<?xml version="1.0" encoding="utf-8"?>
<svg xmlns="http://www.w3.org/2000/svg" xmlns:xlink="http://www.w3.org/1999/xlink" width="600" height="400" viewBox="0 0 2400 1600">
<defs>
  <clipPath id="clip150">
    <rect x="0" y="0" width="2400" height="1600"/>
  </clipPath>
</defs>
<path clip-path="url(#clip150)" d="M0 1600 L2400 1600 L2400 0 L0 0  Z" fill="#ffffff" fill-rule="evenodd" fill-opacity="1"/>
<defs>
  <clipPath id="clip151">
    <rect x="480" y="0" width="1681" height="1600"/>
  </clipPath>
</defs>
<path clip-path="url(#clip150)" d="M242.135 1423.18 L2352.76 1423.18 L2352.76 47.2441 L242.135 47.2441  Z" fill="#ffffff" fill-rule="evenodd" fill-opacity="1"/>
<defs>
  <clipPath id="clip152">
    <rect x="242" y="47" width="2112" height="1377"/>
  </clipPath>
</defs>
<polyline clip-path="url(#clip152)" style="stroke:#000000; stroke-linecap:round; stroke-linejoin:round; stroke-width:2; stroke-opacity:0.1; fill:none" points="301.869,1423.18 301.869,47.2441 "/>
<polyline clip-path="url(#clip152)" style="stroke:#000000; stroke-linecap:round; stroke-linejoin:round; stroke-width:2; stroke-opacity:0.1; fill:none" points="777.249,1423.18 777.249,47.2441 "/>
<polyline clip-path="url(#clip152)" style="stroke:#000000; stroke-linecap:round; stroke-linejoin:round; stroke-width:2; stroke-opacity:0.1; fill:none" points="1252.63,1423.18 1252.63,47.2441 "/>
<polyline clip-path="url(#clip152)" style="stroke:#000000; stroke-linecap:round; stroke-linejoin:round; stroke-width:2; stroke-opacity:0.1; fill:none" points="1728.01,1423.18 1728.01,47.2441 "/>
<polyline clip-path="url(#clip152)" style="stroke:#000000; stroke-linecap:round; stroke-linejoin:round; stroke-width:2; stroke-opacity:0.1; fill:none" points="2203.39,1423.18 2203.39,47.2441 "/>
<polyline clip-path="url(#clip152)" style="stroke:#000000; stroke-linecap:round; stroke-linejoin:round; stroke-width:2; stroke-opacity:0.1; fill:none" points="242.135,1401.78 2352.76,1401.78 "/>
<polyline clip-path="url(#clip152)" style="stroke:#000000; stroke-linecap:round; stroke-linejoin:round; stroke-width:2; stroke-opacity:0.1; fill:none" points="242.135,1029.09 2352.76,1029.09 "/>
<polyline clip-path="url(#clip152)" style="stroke:#000000; stroke-linecap:round; stroke-linejoin:round; stroke-width:2; stroke-opacity:0.1; fill:none" points="242.135,656.4 2352.76,656.4 "/>
<polyline clip-path="url(#clip152)" style="stroke:#000000; stroke-linecap:round; stroke-linejoin:round; stroke-width:2; stroke-opacity:0.1; fill:none" points="242.135,283.711 2352.76,283.711 "/>
<polyline clip-path="url(#clip150)" style="stroke:#000000; stroke-linecap:round; stroke-linejoin:round; stroke-width:4; stroke-opacity:1; fill:none" points="242.135,1423.18 2352.76,1423.18 "/>
<polyline clip-path="url(#clip150)" style="stroke:#000000; stroke-linecap:round; stroke-linejoin:round; stroke-width:4; stroke-opacity:1; fill:none" points="301.869,1423.18 301.869,1404.28 "/>
<polyline clip-path="url(#clip150)" style="stroke:#000000; stroke-linecap:round; stroke-linejoin:round; stroke-width:4; stroke-opacity:1; fill:none" points="777.249,1423.18 777.249,1404.28 "/>
<polyline clip-path="url(#clip150)" style="stroke:#000000; stroke-linecap:round; stroke-linejoin:round; stroke-width:4; stroke-opacity:1; fill:none" points="1252.63,1423.18 1252.63,1404.28 "/>
<polyline clip-path="url(#clip150)" style="stroke:#000000; stroke-linecap:round; stroke-linejoin:round; stroke-width:4; stroke-opacity:1; fill:none" points="1728.01,1423.18 1728.01,1404.28 "/>
<polyline clip-path="url(#clip150)" style="stroke:#000000; stroke-linecap:round; stroke-linejoin:round; stroke-width:4; stroke-opacity:1; fill:none" points="2203.39,1423.18 2203.39,1404.28 "/>
<path clip-path="url(#clip150)" d="M301.869 1454.1 Q298.258 1454.1 296.429 1457.66 Q294.624 1461.2 294.624 1468.33 Q294.624 1475.44 296.429 1479.01 Q298.258 1482.55 301.869 1482.55 Q305.503 1482.55 307.309 1479.01 Q309.138 1475.44 309.138 1468.33 Q309.138 1461.2 307.309 1457.66 Q305.503 1454.1 301.869 1454.1 M301.869 1450.39 Q307.679 1450.39 310.735 1455 Q313.814 1459.58 313.814 1468.33 Q313.814 1477.06 310.735 1481.67 Q307.679 1486.25 301.869 1486.25 Q296.059 1486.25 292.98 1481.67 Q289.925 1477.06 289.925 1468.33 Q289.925 1459.58 292.98 1455 Q296.059 1450.39 301.869 1450.39 Z" fill="#000000" fill-rule="nonzero" fill-opacity="1" /><path clip-path="url(#clip150)" d="M751.937 1481.64 L759.576 1481.64 L759.576 1455.28 L751.266 1456.95 L751.266 1452.69 L759.53 1451.02 L764.205 1451.02 L764.205 1481.64 L771.844 1481.64 L771.844 1485.58 L751.937 1485.58 L751.937 1481.64 Z" fill="#000000" fill-rule="nonzero" fill-opacity="1" /><path clip-path="url(#clip150)" d="M791.289 1454.1 Q787.678 1454.1 785.849 1457.66 Q784.043 1461.2 784.043 1468.33 Q784.043 1475.44 785.849 1479.01 Q787.678 1482.55 791.289 1482.55 Q794.923 1482.55 796.728 1479.01 Q798.557 1475.44 798.557 1468.33 Q798.557 1461.2 796.728 1457.66 Q794.923 1454.1 791.289 1454.1 M791.289 1450.39 Q797.099 1450.39 800.154 1455 Q803.233 1459.58 803.233 1468.33 Q803.233 1477.06 800.154 1481.67 Q797.099 1486.25 791.289 1486.25 Q785.478 1486.25 782.4 1481.67 Q779.344 1477.06 779.344 1468.33 Q779.344 1459.58 782.4 1455 Q785.478 1450.39 791.289 1450.39 Z" fill="#000000" fill-rule="nonzero" fill-opacity="1" /><path clip-path="url(#clip150)" d="M1231.4 1481.64 L1247.72 1481.64 L1247.72 1485.58 L1225.78 1485.58 L1225.78 1481.64 Q1228.44 1478.89 1233.02 1474.26 Q1237.63 1469.61 1238.81 1468.27 Q1241.06 1465.74 1241.94 1464.01 Q1242.84 1462.25 1242.84 1460.56 Q1242.84 1457.8 1240.89 1456.07 Q1238.97 1454.33 1235.87 1454.33 Q1233.67 1454.33 1231.22 1455.09 Q1228.79 1455.86 1226.01 1457.41 L1226.01 1452.69 Q1228.83 1451.55 1231.29 1450.97 Q1233.74 1450.39 1235.78 1450.39 Q1241.15 1450.39 1244.34 1453.08 Q1247.54 1455.77 1247.54 1460.26 Q1247.54 1462.39 1246.73 1464.31 Q1245.94 1466.2 1243.83 1468.8 Q1243.25 1469.47 1240.15 1472.69 Q1237.05 1475.88 1231.4 1481.64 Z" fill="#000000" fill-rule="nonzero" fill-opacity="1" /><path clip-path="url(#clip150)" d="M1267.54 1454.1 Q1263.93 1454.1 1262.1 1457.66 Q1260.29 1461.2 1260.29 1468.33 Q1260.29 1475.44 1262.1 1479.01 Q1263.93 1482.55 1267.54 1482.55 Q1271.17 1482.55 1272.98 1479.01 Q1274.81 1475.44 1274.81 1468.33 Q1274.81 1461.2 1272.98 1457.66 Q1271.17 1454.1 1267.54 1454.1 M1267.54 1450.39 Q1273.35 1450.39 1276.4 1455 Q1279.48 1459.58 1279.48 1468.33 Q1279.48 1477.06 1276.4 1481.67 Q1273.35 1486.25 1267.54 1486.25 Q1261.73 1486.25 1258.65 1481.67 Q1255.59 1477.06 1255.59 1468.33 Q1255.59 1459.58 1258.65 1455 Q1261.73 1450.39 1267.54 1450.39 Z" fill="#000000" fill-rule="nonzero" fill-opacity="1" /><path clip-path="url(#clip150)" d="M1716.85 1466.95 Q1720.21 1467.66 1722.08 1469.93 Q1723.98 1472.2 1723.98 1475.53 Q1723.98 1480.65 1720.46 1483.45 Q1716.94 1486.25 1710.46 1486.25 Q1708.29 1486.25 1705.97 1485.81 Q1703.68 1485.39 1701.23 1484.54 L1701.23 1480.02 Q1703.17 1481.16 1705.49 1481.74 Q1707.8 1482.32 1710.32 1482.32 Q1714.72 1482.32 1717.01 1480.58 Q1719.33 1478.84 1719.33 1475.53 Q1719.33 1472.48 1717.18 1470.77 Q1715.05 1469.03 1711.23 1469.03 L1707.2 1469.03 L1707.2 1465.19 L1711.41 1465.19 Q1714.86 1465.19 1716.69 1463.82 Q1718.52 1462.43 1718.52 1459.84 Q1718.52 1457.18 1716.62 1455.77 Q1714.75 1454.33 1711.23 1454.33 Q1709.31 1454.33 1707.11 1454.75 Q1704.91 1455.16 1702.27 1456.04 L1702.27 1451.88 Q1704.93 1451.14 1707.25 1450.77 Q1709.58 1450.39 1711.64 1450.39 Q1716.97 1450.39 1720.07 1452.83 Q1723.17 1455.23 1723.17 1459.35 Q1723.17 1462.22 1721.53 1464.21 Q1719.88 1466.18 1716.85 1466.95 Z" fill="#000000" fill-rule="nonzero" fill-opacity="1" /><path clip-path="url(#clip150)" d="M1742.85 1454.1 Q1739.24 1454.1 1737.41 1457.66 Q1735.6 1461.2 1735.6 1468.33 Q1735.6 1475.44 1737.41 1479.01 Q1739.24 1482.55 1742.85 1482.55 Q1746.48 1482.55 1748.29 1479.01 Q1750.12 1475.44 1750.12 1468.33 Q1750.12 1461.2 1748.29 1457.66 Q1746.48 1454.1 1742.85 1454.1 M1742.85 1450.39 Q1748.66 1450.39 1751.71 1455 Q1754.79 1459.58 1754.79 1468.33 Q1754.79 1477.06 1751.71 1481.67 Q1748.66 1486.25 1742.85 1486.25 Q1737.04 1486.25 1733.96 1481.67 Q1730.9 1477.06 1730.9 1468.33 Q1730.9 1459.58 1733.96 1455 Q1737.04 1450.39 1742.85 1450.39 Z" fill="#000000" fill-rule="nonzero" fill-opacity="1" /><path clip-path="url(#clip150)" d="M2191.56 1455.09 L2179.76 1473.54 L2191.56 1473.54 L2191.56 1455.09 M2190.33 1451.02 L2196.21 1451.02 L2196.21 1473.54 L2201.14 1473.54 L2201.14 1477.43 L2196.21 1477.43 L2196.21 1485.58 L2191.56 1485.58 L2191.56 1477.43 L2175.96 1477.43 L2175.96 1472.92 L2190.33 1451.02 Z" fill="#000000" fill-rule="nonzero" fill-opacity="1" /><path clip-path="url(#clip150)" d="M2218.88 1454.1 Q2215.26 1454.1 2213.44 1457.66 Q2211.63 1461.2 2211.63 1468.33 Q2211.63 1475.44 2213.44 1479.01 Q2215.26 1482.55 2218.88 1482.55 Q2222.51 1482.55 2224.32 1479.01 Q2226.14 1475.44 2226.14 1468.33 Q2226.14 1461.2 2224.32 1457.66 Q2222.51 1454.1 2218.88 1454.1 M2218.88 1450.39 Q2224.69 1450.39 2227.74 1455 Q2230.82 1459.58 2230.82 1468.33 Q2230.82 1477.06 2227.74 1481.67 Q2224.69 1486.25 2218.88 1486.25 Q2213.07 1486.25 2209.99 1481.67 Q2206.93 1477.06 2206.93 1468.33 Q2206.93 1459.58 2209.99 1455 Q2213.07 1450.39 2218.88 1450.39 Z" fill="#000000" fill-rule="nonzero" fill-opacity="1" /><path clip-path="url(#clip150)" d="M1296.2 1546.53 L1296.2 1568.04 L1290.35 1568.04 L1290.35 1546.72 Q1290.35 1541.66 1288.37 1539.14 Q1286.4 1536.63 1282.45 1536.63 Q1277.71 1536.63 1274.97 1539.65 Q1272.24 1542.68 1272.24 1547.9 L1272.24 1568.04 L1266.35 1568.04 L1266.35 1518.52 L1272.24 1518.52 L1272.24 1537.93 Q1274.34 1534.72 1277.17 1533.13 Q1280.04 1531.54 1283.76 1531.54 Q1289.9 1531.54 1293.05 1535.36 Q1296.2 1539.14 1296.2 1546.53 Z" fill="#000000" fill-rule="nonzero" fill-opacity="1" /><path clip-path="url(#clip150)" d="M1328.54 1537.87 Q1327.56 1537.3 1326.38 1537.04 Q1325.23 1536.76 1323.83 1536.76 Q1318.87 1536.76 1316.19 1540 Q1313.55 1543.22 1313.55 1549.27 L1313.55 1568.04 L1307.66 1568.04 L1307.66 1532.4 L1313.55 1532.4 L1313.55 1537.93 Q1315.4 1534.69 1318.36 1533.13 Q1321.32 1531.54 1325.55 1531.54 Q1326.15 1531.54 1326.89 1531.63 Q1327.62 1531.7 1328.51 1531.85 L1328.54 1537.87 Z" fill="#000000" fill-rule="nonzero" fill-opacity="1" /><polyline clip-path="url(#clip150)" style="stroke:#000000; stroke-linecap:round; stroke-linejoin:round; stroke-width:4; stroke-opacity:1; fill:none" points="242.135,1423.18 242.135,47.2441 "/>
<polyline clip-path="url(#clip150)" style="stroke:#000000; stroke-linecap:round; stroke-linejoin:round; stroke-width:4; stroke-opacity:1; fill:none" points="242.135,1401.78 261.032,1401.78 "/>
<polyline clip-path="url(#clip150)" style="stroke:#000000; stroke-linecap:round; stroke-linejoin:round; stroke-width:4; stroke-opacity:1; fill:none" points="242.135,1029.09 261.032,1029.09 "/>
<polyline clip-path="url(#clip150)" style="stroke:#000000; stroke-linecap:round; stroke-linejoin:round; stroke-width:4; stroke-opacity:1; fill:none" points="242.135,656.4 261.032,656.4 "/>
<polyline clip-path="url(#clip150)" style="stroke:#000000; stroke-linecap:round; stroke-linejoin:round; stroke-width:4; stroke-opacity:1; fill:none" points="242.135,283.711 261.032,283.711 "/>
<path clip-path="url(#clip150)" d="M114.26 1402.23 L143.936 1402.23 L143.936 1406.16 L114.26 1406.16 L114.26 1402.23 Z" fill="#000000" fill-rule="nonzero" fill-opacity="1" /><path clip-path="url(#clip150)" d="M166.876 1388.57 L155.07 1407.02 L166.876 1407.02 L166.876 1388.57 M165.649 1384.5 L171.528 1384.5 L171.528 1407.02 L176.459 1407.02 L176.459 1410.91 L171.528 1410.91 L171.528 1419.06 L166.876 1419.06 L166.876 1410.91 L151.274 1410.91 L151.274 1406.4 L165.649 1384.5 Z" fill="#000000" fill-rule="nonzero" fill-opacity="1" /><path clip-path="url(#clip150)" d="M194.19 1387.58 Q190.579 1387.58 188.75 1391.14 Q186.945 1394.68 186.945 1401.81 Q186.945 1408.92 188.75 1412.48 Q190.579 1416.03 194.19 1416.03 Q197.825 1416.03 199.63 1412.48 Q201.459 1408.92 201.459 1401.81 Q201.459 1394.68 199.63 1391.14 Q197.825 1387.58 194.19 1387.58 M194.19 1383.87 Q200 1383.87 203.056 1388.48 Q206.135 1393.06 206.135 1401.81 Q206.135 1410.54 203.056 1415.15 Q200 1419.73 194.19 1419.73 Q188.38 1419.73 185.301 1415.15 Q182.246 1410.54 182.246 1401.81 Q182.246 1393.06 185.301 1388.48 Q188.38 1383.87 194.19 1383.87 Z" fill="#000000" fill-rule="nonzero" fill-opacity="1" /><path clip-path="url(#clip150)" d="M114.26 1029.54 L143.936 1029.54 L143.936 1033.48 L114.26 1033.48 L114.26 1029.54 Z" fill="#000000" fill-rule="nonzero" fill-opacity="1" /><path clip-path="url(#clip150)" d="M168.195 1027.73 Q171.552 1028.45 173.427 1030.72 Q175.325 1032.99 175.325 1036.32 Q175.325 1041.44 171.806 1044.24 Q168.288 1047.04 161.806 1047.04 Q159.63 1047.04 157.315 1046.6 Q155.024 1046.18 152.57 1045.33 L152.57 1040.81 Q154.515 1041.95 156.829 1042.53 Q159.144 1043.11 161.667 1043.11 Q166.065 1043.11 168.357 1041.37 Q170.672 1039.63 170.672 1036.32 Q170.672 1033.27 168.519 1031.55 Q166.39 1029.82 162.57 1029.82 L158.542 1029.82 L158.542 1025.98 L162.755 1025.98 Q166.204 1025.98 168.033 1024.61 Q169.862 1023.22 169.862 1020.63 Q169.862 1017.97 167.964 1016.55 Q166.089 1015.12 162.57 1015.12 Q160.649 1015.12 158.45 1015.54 Q156.251 1015.95 153.612 1016.83 L153.612 1012.67 Q156.274 1011.92 158.589 1011.55 Q160.927 1011.18 162.987 1011.18 Q168.311 1011.18 171.413 1013.61 Q174.514 1016.02 174.514 1020.14 Q174.514 1023.01 172.871 1025 Q171.227 1026.97 168.195 1027.73 Z" fill="#000000" fill-rule="nonzero" fill-opacity="1" /><path clip-path="url(#clip150)" d="M194.19 1014.89 Q190.579 1014.89 188.75 1018.45 Q186.945 1021.99 186.945 1029.12 Q186.945 1036.23 188.75 1039.8 Q190.579 1043.34 194.19 1043.34 Q197.825 1043.34 199.63 1039.8 Q201.459 1036.23 201.459 1029.12 Q201.459 1021.99 199.63 1018.45 Q197.825 1014.89 194.19 1014.89 M194.19 1011.18 Q200 1011.18 203.056 1015.79 Q206.135 1020.37 206.135 1029.12 Q206.135 1037.85 203.056 1042.46 Q200 1047.04 194.19 1047.04 Q188.38 1047.04 185.301 1042.46 Q182.246 1037.85 182.246 1029.12 Q182.246 1020.37 185.301 1015.79 Q188.38 1011.18 194.19 1011.18 Z" fill="#000000" fill-rule="nonzero" fill-opacity="1" /><path clip-path="url(#clip150)" d="M114.26 656.851 L143.936 656.851 L143.936 660.787 L114.26 660.787 L114.26 656.851 Z" fill="#000000" fill-rule="nonzero" fill-opacity="1" /><path clip-path="url(#clip150)" d="M158.056 669.745 L174.376 669.745 L174.376 673.68 L152.431 673.68 L152.431 669.745 Q155.093 666.99 159.677 662.361 Q164.283 657.708 165.464 656.365 Q167.709 653.842 168.589 652.106 Q169.491 650.347 169.491 648.657 Q169.491 645.902 167.547 644.166 Q165.626 642.43 162.524 642.43 Q160.325 642.43 157.871 643.194 Q155.44 643.958 152.663 645.509 L152.663 640.787 Q155.487 639.652 157.94 639.074 Q160.394 638.495 162.431 638.495 Q167.802 638.495 170.996 641.18 Q174.19 643.865 174.19 648.356 Q174.19 650.486 173.38 652.407 Q172.593 654.305 170.487 656.898 Q169.908 657.569 166.806 660.787 Q163.704 663.981 158.056 669.745 Z" fill="#000000" fill-rule="nonzero" fill-opacity="1" /><path clip-path="url(#clip150)" d="M194.19 642.199 Q190.579 642.199 188.75 645.764 Q186.945 649.305 186.945 656.435 Q186.945 663.541 188.75 667.106 Q190.579 670.648 194.19 670.648 Q197.825 670.648 199.63 667.106 Q201.459 663.541 201.459 656.435 Q201.459 649.305 199.63 645.764 Q197.825 642.199 194.19 642.199 M194.19 638.495 Q200 638.495 203.056 643.101 Q206.135 647.685 206.135 656.435 Q206.135 665.162 203.056 669.768 Q200 674.351 194.19 674.351 Q188.38 674.351 185.301 669.768 Q182.246 665.162 182.246 656.435 Q182.246 647.685 185.301 643.101 Q188.38 638.495 194.19 638.495 Z" fill="#000000" fill-rule="nonzero" fill-opacity="1" /><path clip-path="url(#clip150)" d="M114.26 284.162 L143.936 284.162 L143.936 288.097 L114.26 288.097 L114.26 284.162 Z" fill="#000000" fill-rule="nonzero" fill-opacity="1" /><path clip-path="url(#clip150)" d="M154.839 297.056 L162.477 297.056 L162.477 270.69 L154.167 272.357 L154.167 268.098 L162.431 266.431 L167.107 266.431 L167.107 297.056 L174.746 297.056 L174.746 300.991 L154.839 300.991 L154.839 297.056 Z" fill="#000000" fill-rule="nonzero" fill-opacity="1" /><path clip-path="url(#clip150)" d="M194.19 269.51 Q190.579 269.51 188.75 273.074 Q186.945 276.616 186.945 283.746 Q186.945 290.852 188.75 294.417 Q190.579 297.959 194.19 297.959 Q197.825 297.959 199.63 294.417 Q201.459 290.852 201.459 283.746 Q201.459 276.616 199.63 273.074 Q197.825 269.51 194.19 269.51 M194.19 265.806 Q200 265.806 203.056 270.412 Q206.135 274.996 206.135 283.746 Q206.135 292.472 203.056 297.079 Q200 301.662 194.19 301.662 Q188.38 301.662 185.301 297.079 Q182.246 292.472 182.246 283.746 Q182.246 274.996 185.301 270.412 Q188.38 265.806 194.19 265.806 Z" fill="#000000" fill-rule="nonzero" fill-opacity="1" /><path clip-path="url(#clip150)" d="M19.7307 759.306 Q19.7307 761.852 21.5131 763.603 Q23.2636 765.354 25.8099 765.354 Q28.3244 765.354 30.0749 763.603 Q31.7937 761.852 31.7937 759.306 Q31.7937 756.76 30.0749 755.009 Q28.3244 753.259 25.8099 753.259 Q23.2955 753.259 21.5131 755.041 Q19.7307 756.792 19.7307 759.306 M15.6248 759.306 Q15.6248 757.269 16.4205 755.391 Q17.1844 753.513 18.6485 752.145 Q20.0808 750.681 21.895 749.949 Q23.7092 749.217 25.8099 749.217 Q30.0113 749.217 32.9395 752.177 Q35.8359 755.105 35.8359 759.37 Q35.8359 763.667 32.9713 766.531 Q30.1068 769.396 25.8099 769.396 Q21.5449 769.396 18.5848 766.468 Q15.6248 763.539 15.6248 759.306 Z" fill="#000000" fill-rule="nonzero" fill-opacity="1" /><path clip-path="url(#clip150)" d="M20.1444 701.028 L26.9239 701.028 Q23.9002 704.275 22.4043 707.967 Q20.9083 711.627 20.9083 715.765 Q20.9083 723.913 25.9054 728.242 Q30.8707 732.57 40.2919 732.57 Q49.6813 732.57 54.6784 728.242 Q59.6436 723.913 59.6436 715.765 Q59.6436 711.627 58.1477 707.967 Q56.6518 704.275 53.6281 701.028 L60.3439 701.028 Q62.6355 704.402 63.7814 708.19 Q64.9272 711.945 64.9272 716.147 Q64.9272 726.937 58.3387 733.143 Q51.7183 739.35 40.2919 739.35 Q28.8336 739.35 22.2451 733.143 Q15.6248 726.937 15.6248 716.147 Q15.6248 711.882 16.7706 708.126 Q17.8846 704.338 20.1444 701.028 Z" fill="#000000" fill-rule="nonzero" fill-opacity="1" /><circle clip-path="url(#clip152)" cx="301.869" cy="1364.51" r="14.4" fill="#07519c" fill-rule="evenodd" fill-opacity="1" stroke="#000000" stroke-opacity="1" stroke-width="3.2"/>
<circle clip-path="url(#clip152)" cx="351.797" cy="1129.72" r="14.4" fill="#07519c" fill-rule="evenodd" fill-opacity="1" stroke="#000000" stroke-opacity="1" stroke-width="3.2"/>
<circle clip-path="url(#clip152)" cx="401.725" cy="1058.9" r="14.4" fill="#07519c" fill-rule="evenodd" fill-opacity="1" stroke="#000000" stroke-opacity="1" stroke-width="3.2"/>
<circle clip-path="url(#clip152)" cx="451.64" cy="1014.18" r="14.4" fill="#07519c" fill-rule="evenodd" fill-opacity="1" stroke="#000000" stroke-opacity="1" stroke-width="3.2"/>
<circle clip-path="url(#clip152)" cx="501.568" cy="980.64" r="14.4" fill="#07519c" fill-rule="evenodd" fill-opacity="1" stroke="#000000" stroke-opacity="1" stroke-width="3.2"/>
<circle clip-path="url(#clip152)" cx="551.497" cy="958.278" r="14.4" fill="#07519c" fill-rule="evenodd" fill-opacity="1" stroke="#000000" stroke-opacity="1" stroke-width="3.2"/>
<circle clip-path="url(#clip152)" cx="601.425" cy="943.371" r="14.4" fill="#07519c" fill-rule="evenodd" fill-opacity="1" stroke="#000000" stroke-opacity="1" stroke-width="3.2"/>
<circle clip-path="url(#clip152)" cx="651.353" cy="932.19" r="14.4" fill="#07519c" fill-rule="evenodd" fill-opacity="1" stroke="#000000" stroke-opacity="1" stroke-width="3.2"/>
<circle clip-path="url(#clip152)" cx="701.281" cy="921.009" r="14.4" fill="#07519c" fill-rule="evenodd" fill-opacity="1" stroke="#000000" stroke-opacity="1" stroke-width="3.2"/>
<circle clip-path="url(#clip152)" cx="751.209" cy="917.282" r="14.4" fill="#07519c" fill-rule="evenodd" fill-opacity="1" stroke="#000000" stroke-opacity="1" stroke-width="3.2"/>
<circle clip-path="url(#clip152)" cx="801.124" cy="909.829" r="14.4" fill="#07519c" fill-rule="evenodd" fill-opacity="1" stroke="#000000" stroke-opacity="1" stroke-width="3.2"/>
<circle clip-path="url(#clip152)" cx="851.052" cy="906.102" r="14.4" fill="#07519c" fill-rule="evenodd" fill-opacity="1" stroke="#000000" stroke-opacity="1" stroke-width="3.2"/>
<circle clip-path="url(#clip152)" cx="900.98" cy="898.648" r="14.4" fill="#07519c" fill-rule="evenodd" fill-opacity="1" stroke="#000000" stroke-opacity="1" stroke-width="3.2"/>
<circle clip-path="url(#clip152)" cx="950.908" cy="894.921" r="14.4" fill="#07519c" fill-rule="evenodd" fill-opacity="1" stroke="#000000" stroke-opacity="1" stroke-width="3.2"/>
<circle clip-path="url(#clip152)" cx="1000.84" cy="764.48" r="14.4" fill="#07519c" fill-rule="evenodd" fill-opacity="1" stroke="#000000" stroke-opacity="1" stroke-width="3.2"/>
<circle clip-path="url(#clip152)" cx="1050.76" cy="667.581" r="14.4" fill="#07519c" fill-rule="evenodd" fill-opacity="1" stroke="#000000" stroke-opacity="1" stroke-width="3.2"/>
<circle clip-path="url(#clip152)" cx="1100.69" cy="373.156" r="14.4" fill="#07519c" fill-rule="evenodd" fill-opacity="1" stroke="#000000" stroke-opacity="1" stroke-width="3.2"/>
<circle clip-path="url(#clip152)" cx="1150.61" cy="276.257" r="14.4" fill="#07519c" fill-rule="evenodd" fill-opacity="1" stroke="#000000" stroke-opacity="1" stroke-width="3.2"/>
<circle clip-path="url(#clip152)" cx="1200.54" cy="201.719" r="14.4" fill="#07519c" fill-rule="evenodd" fill-opacity="1" stroke="#000000" stroke-opacity="1" stroke-width="3.2"/>
<circle clip-path="url(#clip152)" cx="1250.46" cy="127.181" r="14.4" fill="#07519c" fill-rule="evenodd" fill-opacity="1" stroke="#000000" stroke-opacity="1" stroke-width="3.2"/>
<circle clip-path="url(#clip152)" cx="1300.39" cy="93.6395" r="14.4" fill="#07519c" fill-rule="evenodd" fill-opacity="1" stroke="#000000" stroke-opacity="1" stroke-width="3.2"/>
<path clip-path="url(#clip152)" d="M302.508 1344.78 L302.508 1376.78 L334.508 1376.78 L334.508 1344.78 L302.508 1344.78 Z" fill="#3082bc" fill-rule="evenodd" fill-opacity="1" stroke="#000000" stroke-opacity="1" stroke-width="3.2"/>
<path clip-path="url(#clip152)" d="M352.436 1165.89 L352.436 1197.89 L384.436 1197.89 L384.436 1165.89 L352.436 1165.89 Z" fill="#3082bc" fill-rule="evenodd" fill-opacity="1" stroke="#000000" stroke-opacity="1" stroke-width="3.2"/>
<path clip-path="url(#clip152)" d="M402.364 1113.72 L402.364 1145.72 L434.364 1145.72 L434.364 1113.72 L402.364 1113.72 Z" fill="#3082bc" fill-rule="evenodd" fill-opacity="1" stroke="#000000" stroke-opacity="1" stroke-width="3.2"/>
<path clip-path="url(#clip152)" d="M452.292 1072.72 L452.292 1104.72 L484.292 1104.72 L484.292 1072.72 L452.292 1072.72 Z" fill="#3082bc" fill-rule="evenodd" fill-opacity="1" stroke="#000000" stroke-opacity="1" stroke-width="3.2"/>
<path clip-path="url(#clip152)" d="M502.22 1042.9 L502.22 1074.9 L534.22 1074.9 L534.22 1042.9 L502.22 1042.9 Z" fill="#3082bc" fill-rule="evenodd" fill-opacity="1" stroke="#000000" stroke-opacity="1" stroke-width="3.2"/>
<path clip-path="url(#clip152)" d="M552.135 1016.82 L552.135 1048.82 L584.135 1048.82 L584.135 1016.82 L552.135 1016.82 Z" fill="#3082bc" fill-rule="evenodd" fill-opacity="1" stroke="#000000" stroke-opacity="1" stroke-width="3.2"/>
<path clip-path="url(#clip152)" d="M602.063 998.182 L602.063 1030.18 L634.063 1030.18 L634.063 998.182 L602.063 998.182 Z" fill="#3082bc" fill-rule="evenodd" fill-opacity="1" stroke="#000000" stroke-opacity="1" stroke-width="3.2"/>
<path clip-path="url(#clip152)" d="M651.991 983.274 L651.991 1015.27 L683.991 1015.27 L683.991 983.274 L651.991 983.274 Z" fill="#3082bc" fill-rule="evenodd" fill-opacity="1" stroke="#000000" stroke-opacity="1" stroke-width="3.2"/>
<path clip-path="url(#clip152)" d="M701.919 972.093 L701.919 1004.09 L733.919 1004.09 L733.919 972.093 L701.919 972.093 Z" fill="#3082bc" fill-rule="evenodd" fill-opacity="1" stroke="#000000" stroke-opacity="1" stroke-width="3.2"/>
<path clip-path="url(#clip152)" d="M751.847 960.913 L751.847 992.913 L783.847 992.913 L783.847 960.913 L751.847 960.913 Z" fill="#3082bc" fill-rule="evenodd" fill-opacity="1" stroke="#000000" stroke-opacity="1" stroke-width="3.2"/>
<path clip-path="url(#clip152)" d="M801.775 953.459 L801.775 985.459 L833.775 985.459 L833.775 953.459 L801.775 953.459 Z" fill="#3082bc" fill-rule="evenodd" fill-opacity="1" stroke="#000000" stroke-opacity="1" stroke-width="3.2"/>
<path clip-path="url(#clip152)" d="M851.704 946.005 L851.704 978.005 L883.704 978.005 L883.704 946.005 L851.704 946.005 Z" fill="#3082bc" fill-rule="evenodd" fill-opacity="1" stroke="#000000" stroke-opacity="1" stroke-width="3.2"/>
<path clip-path="url(#clip152)" d="M901.618 938.551 L901.618 970.551 L933.618 970.551 L933.618 938.551 L901.618 938.551 Z" fill="#3082bc" fill-rule="evenodd" fill-opacity="1" stroke="#000000" stroke-opacity="1" stroke-width="3.2"/>
<path clip-path="url(#clip152)" d="M951.547 919.917 L951.547 951.917 L983.547 951.917 L983.547 919.917 L951.547 919.917 Z" fill="#3082bc" fill-rule="evenodd" fill-opacity="1" stroke="#000000" stroke-opacity="1" stroke-width="3.2"/>
<path clip-path="url(#clip152)" d="M1001.47 752.207 L1001.47 784.207 L1033.47 784.207 L1033.47 752.207 L1001.47 752.207 Z" fill="#3082bc" fill-rule="evenodd" fill-opacity="1" stroke="#000000" stroke-opacity="1" stroke-width="3.2"/>
<path clip-path="url(#clip152)" d="M1051.4 670.215 L1051.4 702.215 L1083.4 702.215 L1083.4 670.215 L1051.4 670.215 Z" fill="#3082bc" fill-rule="evenodd" fill-opacity="1" stroke="#000000" stroke-opacity="1" stroke-width="3.2"/>
<path clip-path="url(#clip152)" d="M1101.33 547.228 L1101.33 579.228 L1133.33 579.228 L1133.33 547.228 L1101.33 547.228 Z" fill="#3082bc" fill-rule="evenodd" fill-opacity="1" stroke="#000000" stroke-opacity="1" stroke-width="3.2"/>
<path clip-path="url(#clip152)" d="M1151.26 409.333 L1151.26 441.333 L1183.26 441.333 L1183.26 409.333 L1151.26 409.333 Z" fill="#3082bc" fill-rule="evenodd" fill-opacity="1" stroke="#000000" stroke-opacity="1" stroke-width="3.2"/>
<path clip-path="url(#clip152)" d="M1201.17 185.719 L1201.17 217.719 L1233.17 217.719 L1233.17 185.719 L1201.17 185.719 Z" fill="#3082bc" fill-rule="evenodd" fill-opacity="1" stroke="#000000" stroke-opacity="1" stroke-width="3.2"/>
<path clip-path="url(#clip152)" d="M1251.1 70.1857 L1251.1 102.186 L1283.1 102.186 L1283.1 70.1857 L1251.1 70.1857 Z" fill="#3082bc" fill-rule="evenodd" fill-opacity="1" stroke="#000000" stroke-opacity="1" stroke-width="3.2"/>
<path clip-path="url(#clip152)" d="M335.146 1180.8 L319.146 1196.8 L335.146 1212.8 L351.146 1196.8 L335.146 1180.8 Z" fill="#6badd5" fill-rule="evenodd" fill-opacity="1" stroke="#000000" stroke-opacity="1" stroke-width="3.2"/>
<path clip-path="url(#clip152)" d="M385.074 1068.99 L369.074 1084.99 L385.074 1100.99 L401.074 1084.99 L385.074 1068.99 Z" fill="#6badd5" fill-rule="evenodd" fill-opacity="1" stroke="#000000" stroke-opacity="1" stroke-width="3.2"/>
<path clip-path="url(#clip152)" d="M435.002 1024.27 L419.002 1040.27 L435.002 1056.27 L451.002 1040.27 L435.002 1024.27 Z" fill="#6badd5" fill-rule="evenodd" fill-opacity="1" stroke="#000000" stroke-opacity="1" stroke-width="3.2"/>
<path clip-path="url(#clip152)" d="M484.93 990.728 L468.93 1006.73 L484.93 1022.73 L500.93 1006.73 L484.93 990.728 Z" fill="#6badd5" fill-rule="evenodd" fill-opacity="1" stroke="#000000" stroke-opacity="1" stroke-width="3.2"/>
<path clip-path="url(#clip152)" d="M534.858 968.366 L518.858 984.366 L534.858 1000.37 L550.858 984.366 L534.858 968.366 Z" fill="#6badd5" fill-rule="evenodd" fill-opacity="1" stroke="#000000" stroke-opacity="1" stroke-width="3.2"/>
<path clip-path="url(#clip152)" d="M584.786 946.005 L568.786 962.005 L584.786 978.005 L600.786 962.005 L584.786 946.005 Z" fill="#6badd5" fill-rule="evenodd" fill-opacity="1" stroke="#000000" stroke-opacity="1" stroke-width="3.2"/>
<path clip-path="url(#clip152)" d="M634.715 934.824 L618.715 950.824 L634.715 966.824 L650.715 950.824 L634.715 934.824 Z" fill="#6badd5" fill-rule="evenodd" fill-opacity="1" stroke="#000000" stroke-opacity="1" stroke-width="3.2"/>
<path clip-path="url(#clip152)" d="M684.643 923.644 L668.643 939.644 L684.643 955.644 L700.643 939.644 L684.643 923.644 Z" fill="#6badd5" fill-rule="evenodd" fill-opacity="1" stroke="#000000" stroke-opacity="1" stroke-width="3.2"/>
<path clip-path="url(#clip152)" d="M734.558 912.463 L718.558 928.463 L734.558 944.463 L750.558 928.463 L734.558 912.463 Z" fill="#6badd5" fill-rule="evenodd" fill-opacity="1" stroke="#000000" stroke-opacity="1" stroke-width="3.2"/>
<path clip-path="url(#clip152)" d="M784.486 908.736 L768.486 924.736 L784.486 940.736 L800.486 924.736 L784.486 908.736 Z" fill="#6badd5" fill-rule="evenodd" fill-opacity="1" stroke="#000000" stroke-opacity="1" stroke-width="3.2"/>
<path clip-path="url(#clip152)" d="M834.414 901.282 L818.414 917.282 L834.414 933.282 L850.414 917.282 L834.414 901.282 Z" fill="#6badd5" fill-rule="evenodd" fill-opacity="1" stroke="#000000" stroke-opacity="1" stroke-width="3.2"/>
<path clip-path="url(#clip152)" d="M884.342 893.829 L868.342 909.829 L884.342 925.829 L900.342 909.829 L884.342 893.829 Z" fill="#6badd5" fill-rule="evenodd" fill-opacity="1" stroke="#000000" stroke-opacity="1" stroke-width="3.2"/>
<path clip-path="url(#clip152)" d="M934.27 893.829 L918.27 909.829 L934.27 925.829 L950.27 909.829 L934.27 893.829 Z" fill="#6badd5" fill-rule="evenodd" fill-opacity="1" stroke="#000000" stroke-opacity="1" stroke-width="3.2"/>
<path clip-path="url(#clip152)" d="M984.198 882.648 L968.198 898.648 L984.198 914.648 L1000.2 898.648 L984.198 882.648 Z" fill="#6badd5" fill-rule="evenodd" fill-opacity="1" stroke="#000000" stroke-opacity="1" stroke-width="3.2"/>
<path clip-path="url(#clip152)" d="M1034.13 867.74 L1018.13 883.74 L1034.13 899.74 L1050.13 883.74 L1034.13 867.74 Z" fill="#6badd5" fill-rule="evenodd" fill-opacity="1" stroke="#000000" stroke-opacity="1" stroke-width="3.2"/>
<path clip-path="url(#clip152)" d="M1084.04 837.925 L1068.04 853.925 L1084.04 869.925 L1100.04 853.925 L1084.04 837.925 Z" fill="#6badd5" fill-rule="evenodd" fill-opacity="1" stroke="#000000" stroke-opacity="1" stroke-width="3.2"/>
<path clip-path="url(#clip152)" d="M1133.97 401.879 L1117.97 417.879 L1133.97 433.879 L1149.97 417.879 L1133.97 401.879 Z" fill="#6badd5" fill-rule="evenodd" fill-opacity="1" stroke="#000000" stroke-opacity="1" stroke-width="3.2"/>
<path clip-path="url(#clip152)" d="M1183.9 301.253 L1167.9 317.253 L1183.9 333.253 L1199.9 317.253 L1183.9 301.253 Z" fill="#6badd5" fill-rule="evenodd" fill-opacity="1" stroke="#000000" stroke-opacity="1" stroke-width="3.2"/>
<path clip-path="url(#clip152)" d="M1233.83 178.266 L1217.83 194.266 L1233.83 210.266 L1249.83 194.266 L1233.83 178.266 Z" fill="#6badd5" fill-rule="evenodd" fill-opacity="1" stroke="#000000" stroke-opacity="1" stroke-width="3.2"/>
<path clip-path="url(#clip152)" d="M1283.75 148.45 L1267.75 164.45 L1283.75 180.45 L1299.75 164.45 L1283.75 148.45 Z" fill="#6badd5" fill-rule="evenodd" fill-opacity="1" stroke="#000000" stroke-opacity="1" stroke-width="3.2"/>
<polyline clip-path="url(#clip152)" style="stroke:#d94601; stroke-linecap:round; stroke-linejoin:round; stroke-width:4; stroke-opacity:1; fill:none" points="302.616,1384.24 302.616,1384.24 302.616,1384.24 302.621,1384.23 302.669,1384.15 303.144,1383.39 307.898,1375.81 322.032,1353.13 349.407,1304.86 376.782,1296.2 427.712,1281.66 488.767,1266.48 575.697,1248.06 686.739,1228.65 833.134,1208.06 1018.24,1187.63 1247.32,1168.17 1518.96,1150.58 1830.01,1135.28 2171.92,1122.45 2293.02,1118.66 "/>
<path clip-path="url(#clip150)" d="M1841.78 352.309 L2282.4 352.309 L2282.4 93.1086 L1841.78 93.1086  Z" fill="#ffffff" fill-rule="evenodd" fill-opacity="1"/>
<polyline clip-path="url(#clip150)" style="stroke:#000000; stroke-linecap:round; stroke-linejoin:round; stroke-width:4; stroke-opacity:1; fill:none" points="1841.78,352.309 2282.4,352.309 2282.4,93.1086 1841.78,93.1086 1841.78,352.309 "/>
<circle clip-path="url(#clip150)" cx="1935.59" cy="144.949" r="20.48" fill="#07519c" fill-rule="evenodd" fill-opacity="1" stroke="#000000" stroke-opacity="1" stroke-width="4.55111"/>
<path clip-path="url(#clip150)" d="M2062.02 122.039 Q2062.02 122.484 2061.93 122.859 L2060.62 131.197 Q2060.54 131.83 2060.4 132.064 Q2060.29 132.298 2059.91 132.298 Q2059.33 132.298 2059.33 131.689 Q2059.33 131.338 2059.47 130.776 Q2059.87 128.129 2059.87 126.934 Q2059.87 126.138 2059.7 125.552 Q2059.56 124.943 2059.33 124.522 Q2059.12 124.1 2058.62 123.819 Q2058.13 123.538 2057.66 123.374 Q2057.2 123.21 2056.35 123.14 Q2055.51 123.046 2054.78 123.023 Q2054.06 122.999 2052.86 122.999 Q2050.26 122.999 2049.84 123.093 Q2049.4 123.21 2049.16 123.561 Q2048.95 123.889 2048.72 124.873 L2042.35 150.333 L2042.16 151.34 Q2042.16 151.903 2042.51 152.09 Q2042.86 152.277 2043.94 152.394 Q2045.48 152.512 2047.01 152.512 Q2047.05 152.512 2047.15 152.512 Q2047.66 152.512 2047.87 152.535 Q2048.08 152.535 2048.29 152.582 Q2048.51 152.629 2048.55 152.746 Q2048.62 152.84 2048.62 153.027 Q2048.62 153.472 2048.44 153.706 Q2048.25 153.917 2048.06 153.964 Q2047.9 153.987 2047.57 153.987 Q2046.91 153.987 2045.51 153.94 Q2044.1 153.894 2043.4 153.894 L2039.42 153.847 L2035.34 153.894 Q2034.71 153.894 2033.37 153.94 Q2032.04 153.987 2031.41 153.987 Q2030.59 153.987 2030.59 153.402 Q2030.59 152.746 2030.89 152.629 Q2031.22 152.512 2032.6 152.512 Q2034.55 152.512 2035.6 152.418 Q2036.65 152.324 2037.22 151.996 Q2037.8 151.668 2037.97 151.34 Q2038.13 150.989 2038.32 150.193 L2044.76 124.592 Q2044.95 124.03 2044.95 123.585 Q2044.95 123.351 2044.88 123.257 Q2044.83 123.163 2044.52 123.093 Q2044.22 122.999 2043.59 122.999 L2041.71 122.999 Q2039.79 122.999 2038.6 123.093 Q2037.43 123.163 2036.3 123.515 Q2035.2 123.866 2034.55 124.358 Q2033.91 124.85 2033.21 125.857 Q2032.51 126.864 2031.99 128.082 Q2031.5 129.3 2030.8 131.291 Q2030.56 131.947 2030.42 132.134 Q2030.31 132.298 2029.98 132.298 Q2029.74 132.298 2029.56 132.157 Q2029.39 131.994 2029.39 131.783 Q2029.63 131.01 2029.67 130.916 L2032.56 122.461 Q2032.79 121.781 2033 121.664 Q2033.23 121.524 2034.1 121.524 L2060.71 121.524 Q2061.13 121.524 2061.27 121.524 Q2061.41 121.524 2061.65 121.571 Q2061.88 121.617 2061.95 121.735 Q2062.02 121.852 2062.02 122.039 Z" fill="#000000" fill-rule="nonzero" fill-opacity="1" /><path clip-path="url(#clip150)" d="M2066.81 154.623 L2066.81 153.573 L2069.45 153.573 L2069.45 149.72 Q2069.45 147.228 2071.06 145.802 Q2072.68 144.375 2074.66 144.375 Q2075.98 144.375 2076.83 145.08 Q2077.68 145.785 2077.68 146.736 Q2077.68 147.376 2077.29 147.802 Q2076.91 148.212 2076.2 148.212 Q2075.53 148.212 2075.14 147.786 Q2074.76 147.359 2074.76 146.769 Q2074.76 145.687 2075.76 145.359 Q2075.25 145.129 2074.66 145.113 Q2073.45 145.113 2072.5 146.359 Q2071.56 147.605 2071.56 149.687 L2071.56 153.573 L2075.5 153.573 L2075.5 154.623 L2071.68 154.623 L2071.68 165.427 Q2071.68 166.395 2072.07 166.706 Q2072.48 167.018 2074.22 167.018 L2074.93 167.018 L2074.93 168.051 Q2073.58 167.952 2070.66 167.952 Q2070.25 167.952 2069.61 167.969 Q2068.99 167.985 2068.14 168.018 Q2067.3 168.051 2066.84 168.051 L2066.84 167.018 Q2068.63 167.018 2069.04 166.805 Q2069.45 166.575 2069.45 165.493 L2069.45 154.623 L2066.81 154.623 Z" fill="#000000" fill-rule="nonzero" fill-opacity="1" /><path clip-path="url(#clip150)" d="M2081.24 148.884 L2081.24 147.835 Q2085.27 147.835 2087.36 145.687 Q2087.93 145.687 2088.03 145.818 Q2088.13 145.949 2088.13 146.556 L2088.13 165.395 Q2088.13 166.395 2088.62 166.706 Q2089.11 167.018 2091.26 167.018 L2092.33 167.018 L2092.33 168.051 Q2091.14 167.952 2086.88 167.952 Q2082.62 167.952 2081.45 168.051 L2081.45 167.018 L2082.52 167.018 Q2084.64 167.018 2085.14 166.723 Q2085.65 166.411 2085.65 165.395 L2085.65 147.999 Q2083.9 148.884 2081.24 148.884 Z" fill="#000000" fill-rule="nonzero" fill-opacity="1" /><path clip-path="url(#clip150)" d="M2104.88 148.108 L2109.77 148.108 L2109.77 152.089 L2105.97 159.496 L2102.99 159.496 L2104.88 152.089 L2104.88 148.108 Z" fill="#000000" fill-rule="nonzero" fill-opacity="1" /><path clip-path="url(#clip150)" d="M2156.11 139.96 L2156.11 142.043 L2136.53 142.043 Q2136.81 146.441 2139.17 148.756 Q2141.55 151.047 2145.79 151.047 Q2148.24 151.047 2150.53 150.446 Q2152.85 149.844 2155.12 148.64 L2155.12 152.668 Q2152.82 153.64 2150.42 154.149 Q2148.01 154.659 2145.53 154.659 Q2139.33 154.659 2135.69 151.047 Q2132.08 147.436 2132.08 141.279 Q2132.08 134.913 2135.51 131.186 Q2138.96 127.436 2144.79 127.436 Q2150.02 127.436 2153.06 130.816 Q2156.11 134.173 2156.11 139.96 M2151.85 138.71 Q2151.81 135.214 2149.88 133.131 Q2147.99 131.048 2144.84 131.048 Q2141.27 131.048 2139.12 133.061 Q2136.99 135.075 2136.67 138.733 L2151.85 138.71 Z" fill="#000000" fill-rule="nonzero" fill-opacity="1" /><path clip-path="url(#clip150)" d="M2183.82 128.061 L2174.44 140.677 L2184.31 153.987 L2179.28 153.987 L2171.74 143.802 L2164.19 153.987 L2159.17 153.987 L2169.24 140.422 L2160.02 128.061 L2165.05 128.061 L2171.92 137.297 L2178.8 128.061 L2183.82 128.061 Z" fill="#000000" fill-rule="nonzero" fill-opacity="1" /><path clip-path="url(#clip150)" d="M2194.44 150.098 L2194.44 163.848 L2190.16 163.848 L2190.16 128.061 L2194.44 128.061 L2194.44 131.997 Q2195.79 129.682 2197.82 128.571 Q2199.88 127.436 2202.73 127.436 Q2207.45 127.436 2210.39 131.186 Q2213.36 134.936 2213.36 141.047 Q2213.36 147.159 2210.39 150.909 Q2207.45 154.659 2202.73 154.659 Q2199.88 154.659 2197.82 153.547 Q2195.79 152.413 2194.44 150.098 M2208.94 141.047 Q2208.94 136.348 2206.99 133.686 Q2205.07 131.001 2201.69 131.001 Q2198.31 131.001 2196.37 133.686 Q2194.44 136.348 2194.44 141.047 Q2194.44 145.747 2196.37 148.432 Q2198.31 151.094 2201.69 151.094 Q2205.07 151.094 2206.99 148.432 Q2208.94 145.747 2208.94 141.047 Z" fill="#000000" fill-rule="nonzero" fill-opacity="1" /><path clip-path="url(#clip150)" d="M2221.02 148.108 L2225.9 148.108 L2225.9 153.987 L2221.02 153.987 L2221.02 148.108 Z" fill="#000000" fill-rule="nonzero" fill-opacity="1" /><path clip-path="url(#clip150)" d="M1912.83 174.033 L1912.83 219.544 L1958.34 219.544 L1958.34 174.033 L1912.83 174.033 Z" fill="#3082bc" fill-rule="evenodd" fill-opacity="1" stroke="#000000" stroke-opacity="1" stroke-width="4.55111"/>
<path clip-path="url(#clip150)" d="M2062.02 173.879 Q2062.02 174.324 2061.93 174.699 L2060.62 183.037 Q2060.54 183.67 2060.4 183.904 Q2060.29 184.138 2059.91 184.138 Q2059.33 184.138 2059.33 183.529 Q2059.33 183.178 2059.47 182.616 Q2059.87 179.969 2059.87 178.774 Q2059.87 177.978 2059.7 177.392 Q2059.56 176.783 2059.33 176.362 Q2059.12 175.94 2058.62 175.659 Q2058.13 175.378 2057.66 175.214 Q2057.2 175.05 2056.35 174.98 Q2055.51 174.886 2054.78 174.863 Q2054.06 174.839 2052.86 174.839 Q2050.26 174.839 2049.84 174.933 Q2049.4 175.05 2049.16 175.401 Q2048.95 175.729 2048.72 176.713 L2042.35 202.173 L2042.16 203.18 Q2042.16 203.743 2042.51 203.93 Q2042.86 204.117 2043.94 204.234 Q2045.48 204.352 2047.01 204.352 Q2047.05 204.352 2047.15 204.352 Q2047.66 204.352 2047.87 204.375 Q2048.08 204.375 2048.29 204.422 Q2048.51 204.469 2048.55 204.586 Q2048.62 204.68 2048.62 204.867 Q2048.62 205.312 2048.44 205.546 Q2048.25 205.757 2048.06 205.804 Q2047.9 205.827 2047.57 205.827 Q2046.91 205.827 2045.51 205.78 Q2044.1 205.734 2043.4 205.734 L2039.42 205.687 L2035.34 205.734 Q2034.71 205.734 2033.37 205.78 Q2032.04 205.827 2031.41 205.827 Q2030.59 205.827 2030.59 205.242 Q2030.59 204.586 2030.89 204.469 Q2031.22 204.352 2032.6 204.352 Q2034.55 204.352 2035.6 204.258 Q2036.65 204.164 2037.22 203.836 Q2037.8 203.508 2037.97 203.18 Q2038.13 202.829 2038.32 202.033 L2044.76 176.432 Q2044.95 175.87 2044.95 175.425 Q2044.95 175.191 2044.88 175.097 Q2044.83 175.003 2044.52 174.933 Q2044.22 174.839 2043.59 174.839 L2041.71 174.839 Q2039.79 174.839 2038.6 174.933 Q2037.43 175.003 2036.3 175.355 Q2035.2 175.706 2034.55 176.198 Q2033.91 176.69 2033.21 177.697 Q2032.51 178.704 2031.99 179.922 Q2031.5 181.14 2030.8 183.131 Q2030.56 183.787 2030.42 183.974 Q2030.31 184.138 2029.98 184.138 Q2029.74 184.138 2029.56 183.997 Q2029.39 183.834 2029.39 183.623 Q2029.63 182.85 2029.67 182.756 L2032.56 174.301 Q2032.79 173.621 2033 173.504 Q2033.23 173.364 2034.1 173.364 L2060.71 173.364 Q2061.13 173.364 2061.27 173.364 Q2061.41 173.364 2061.65 173.411 Q2061.88 173.457 2061.95 173.575 Q2062.02 173.692 2062.02 173.879 Z" fill="#000000" fill-rule="nonzero" fill-opacity="1" /><path clip-path="url(#clip150)" d="M2066.81 206.463 L2066.81 205.413 L2069.45 205.413 L2069.45 201.56 Q2069.45 199.068 2071.06 197.642 Q2072.68 196.215 2074.66 196.215 Q2075.98 196.215 2076.83 196.92 Q2077.68 197.625 2077.68 198.576 Q2077.68 199.216 2077.29 199.642 Q2076.91 200.052 2076.2 200.052 Q2075.53 200.052 2075.14 199.626 Q2074.76 199.199 2074.76 198.609 Q2074.76 197.527 2075.76 197.199 Q2075.25 196.969 2074.66 196.953 Q2073.45 196.953 2072.5 198.199 Q2071.56 199.445 2071.56 201.527 L2071.56 205.413 L2075.5 205.413 L2075.5 206.463 L2071.68 206.463 L2071.68 217.267 Q2071.68 218.235 2072.07 218.546 Q2072.48 218.858 2074.22 218.858 L2074.93 218.858 L2074.93 219.891 Q2073.58 219.792 2070.66 219.792 Q2070.25 219.792 2069.61 219.809 Q2068.99 219.825 2068.14 219.858 Q2067.3 219.891 2066.84 219.891 L2066.84 218.858 Q2068.63 218.858 2069.04 218.645 Q2069.45 218.415 2069.45 217.333 L2069.45 206.463 L2066.81 206.463 Z" fill="#000000" fill-rule="nonzero" fill-opacity="1" /><path clip-path="url(#clip150)" d="M2080.03 219.891 Q2080.03 219.284 2080.08 219.104 Q2080.15 218.923 2080.41 218.645 L2086.85 211.463 Q2090.38 207.495 2090.38 204.036 Q2090.38 201.79 2089.2 200.183 Q2088.03 198.576 2085.89 198.576 Q2084.41 198.576 2083.16 199.478 Q2081.92 200.38 2081.34 201.987 Q2081.44 201.954 2081.79 201.954 Q2082.62 201.954 2083.08 202.478 Q2083.56 203.003 2083.56 203.708 Q2083.56 204.61 2082.97 205.053 Q2082.39 205.479 2081.82 205.479 Q2081.59 205.479 2081.28 205.43 Q2080.98 205.38 2080.51 204.921 Q2080.03 204.446 2080.03 203.61 Q2080.03 201.265 2081.8 199.396 Q2083.59 197.527 2086.31 197.527 Q2089.39 197.527 2091.41 199.363 Q2093.44 201.183 2093.44 204.036 Q2093.44 205.036 2093.13 205.954 Q2092.84 206.856 2092.43 207.561 Q2092.03 208.266 2090.95 209.397 Q2089.87 210.529 2089 211.332 Q2088.13 212.135 2086.18 213.841 L2082.62 217.3 L2088.67 217.3 Q2091.62 217.3 2091.85 217.038 Q2092.18 216.562 2092.59 214.054 L2093.44 214.054 L2092.49 219.891 L2080.03 219.891 Z" fill="#000000" fill-rule="nonzero" fill-opacity="1" /><path clip-path="url(#clip150)" d="M2103.68 199.948 L2108.56 199.948 L2108.56 203.929 L2104.76 211.336 L2101.78 211.336 L2103.68 203.929 L2103.68 199.948 Z" fill="#000000" fill-rule="nonzero" fill-opacity="1" /><path clip-path="url(#clip150)" d="M2154.9 191.8 L2154.9 193.883 L2135.32 193.883 Q2135.6 198.281 2137.96 200.596 Q2140.34 202.887 2144.58 202.887 Q2147.03 202.887 2149.32 202.286 Q2151.64 201.684 2153.91 200.48 L2153.91 204.508 Q2151.61 205.48 2149.21 205.989 Q2146.8 206.499 2144.32 206.499 Q2138.12 206.499 2134.49 202.887 Q2130.87 199.276 2130.87 193.119 Q2130.87 186.753 2134.3 183.026 Q2137.75 179.276 2143.58 179.276 Q2148.81 179.276 2151.85 182.656 Q2154.9 186.013 2154.9 191.8 M2150.64 190.55 Q2150.6 187.054 2148.67 184.971 Q2146.78 182.888 2143.63 182.888 Q2140.06 182.888 2137.91 184.901 Q2135.78 186.915 2135.46 190.573 L2150.64 190.55 Z" fill="#000000" fill-rule="nonzero" fill-opacity="1" /><path clip-path="url(#clip150)" d="M2182.61 179.901 L2173.23 192.517 L2183.1 205.827 L2178.07 205.827 L2170.53 195.642 L2162.98 205.827 L2157.96 205.827 L2168.03 192.262 L2158.81 179.901 L2163.84 179.901 L2170.71 189.137 L2177.59 179.901 L2182.61 179.901 Z" fill="#000000" fill-rule="nonzero" fill-opacity="1" /><path clip-path="url(#clip150)" d="M2193.23 201.938 L2193.23 215.688 L2188.95 215.688 L2188.95 179.901 L2193.23 179.901 L2193.23 183.837 Q2194.58 181.522 2196.61 180.411 Q2198.67 179.276 2201.52 179.276 Q2206.24 179.276 2209.18 183.026 Q2212.15 186.776 2212.15 192.887 Q2212.15 198.999 2209.18 202.749 Q2206.24 206.499 2201.52 206.499 Q2198.67 206.499 2196.61 205.387 Q2194.58 204.253 2193.23 201.938 M2207.73 192.887 Q2207.73 188.188 2205.78 185.526 Q2203.86 182.841 2200.48 182.841 Q2197.1 182.841 2195.16 185.526 Q2193.23 188.188 2193.23 192.887 Q2193.23 197.587 2195.16 200.272 Q2197.1 202.934 2200.48 202.934 Q2203.86 202.934 2205.78 200.272 Q2207.73 197.587 2207.73 192.887 Z" fill="#000000" fill-rule="nonzero" fill-opacity="1" /><path clip-path="url(#clip150)" d="M2219.81 199.948 L2224.69 199.948 L2224.69 205.827 L2219.81 205.827 L2219.81 199.948 Z" fill="#000000" fill-rule="nonzero" fill-opacity="1" /><path clip-path="url(#clip150)" d="M1935.59 225.873 L1912.83 248.629 L1935.59 271.384 L1958.34 248.629 L1935.59 225.873 Z" fill="#6badd5" fill-rule="evenodd" fill-opacity="1" stroke="#000000" stroke-opacity="1" stroke-width="4.55111"/>
<path clip-path="url(#clip150)" d="M2062.02 225.353 Q2062.02 225.798 2061.93 226.172 L2060.62 234.511 Q2060.54 235.143 2060.4 235.377 Q2060.29 235.612 2059.91 235.612 Q2059.33 235.612 2059.33 235.003 Q2059.33 234.651 2059.47 234.089 Q2059.87 231.442 2059.87 230.248 Q2059.87 229.452 2059.7 228.866 Q2059.56 228.257 2059.33 227.835 Q2059.12 227.414 2058.62 227.133 Q2058.13 226.852 2057.66 226.688 Q2057.2 226.524 2056.35 226.453 Q2055.51 226.36 2054.78 226.336 Q2054.06 226.313 2052.86 226.313 Q2050.26 226.313 2049.84 226.407 Q2049.4 226.524 2049.16 226.875 Q2048.95 227.203 2048.72 228.187 L2042.35 253.647 L2042.16 254.654 Q2042.16 255.216 2042.51 255.404 Q2042.86 255.591 2043.94 255.708 Q2045.48 255.825 2047.01 255.825 Q2047.05 255.825 2047.15 255.825 Q2047.66 255.825 2047.87 255.849 Q2048.08 255.849 2048.29 255.895 Q2048.51 255.942 2048.55 256.059 Q2048.62 256.153 2048.62 256.34 Q2048.62 256.786 2048.44 257.02 Q2048.25 257.231 2048.06 257.277 Q2047.9 257.301 2047.57 257.301 Q2046.91 257.301 2045.51 257.254 Q2044.1 257.207 2043.4 257.207 L2039.42 257.16 L2035.34 257.207 Q2034.71 257.207 2033.37 257.254 Q2032.04 257.301 2031.41 257.301 Q2030.59 257.301 2030.59 256.715 Q2030.59 256.059 2030.89 255.942 Q2031.22 255.825 2032.6 255.825 Q2034.55 255.825 2035.6 255.732 Q2036.65 255.638 2037.22 255.31 Q2037.8 254.982 2037.97 254.654 Q2038.13 254.303 2038.32 253.506 L2044.76 227.906 Q2044.95 227.344 2044.95 226.898 Q2044.95 226.664 2044.88 226.571 Q2044.83 226.477 2044.52 226.407 Q2044.22 226.313 2043.59 226.313 L2041.71 226.313 Q2039.79 226.313 2038.6 226.407 Q2037.43 226.477 2036.3 226.828 Q2035.2 227.18 2034.55 227.671 Q2033.91 228.163 2033.21 229.17 Q2032.51 230.178 2031.99 231.396 Q2031.5 232.614 2030.8 234.604 Q2030.56 235.26 2030.42 235.448 Q2030.31 235.612 2029.98 235.612 Q2029.74 235.612 2029.56 235.471 Q2029.39 235.307 2029.39 235.096 Q2029.63 234.323 2029.67 234.23 L2032.56 225.774 Q2032.79 225.095 2033 224.978 Q2033.23 224.837 2034.1 224.837 L2060.71 224.837 Q2061.13 224.837 2061.27 224.837 Q2061.41 224.837 2061.65 224.884 Q2061.88 224.931 2061.95 225.048 Q2062.02 225.165 2062.02 225.353 Z" fill="#000000" fill-rule="nonzero" fill-opacity="1" /><path clip-path="url(#clip150)" d="M2066.81 257.936 L2066.81 256.887 L2069.45 256.887 L2069.45 253.034 Q2069.45 250.542 2071.06 249.115 Q2072.68 247.689 2074.66 247.689 Q2075.98 247.689 2076.83 248.394 Q2077.68 249.099 2077.68 250.05 Q2077.68 250.689 2077.29 251.116 Q2076.91 251.525 2076.2 251.525 Q2075.53 251.525 2075.14 251.099 Q2074.76 250.673 2074.76 250.083 Q2074.76 249 2075.76 248.673 Q2075.25 248.443 2074.66 248.427 Q2073.45 248.427 2072.5 249.673 Q2071.56 250.919 2071.56 253.001 L2071.56 256.887 L2075.5 256.887 L2075.5 257.936 L2071.68 257.936 L2071.68 268.741 Q2071.68 269.708 2072.07 270.02 Q2072.48 270.331 2074.22 270.331 L2074.93 270.331 L2074.93 271.364 Q2073.58 271.266 2070.66 271.266 Q2070.25 271.266 2069.61 271.282 Q2068.99 271.299 2068.14 271.331 Q2067.3 271.364 2066.84 271.364 L2066.84 270.331 Q2068.63 270.331 2069.04 270.118 Q2069.45 269.889 2069.45 268.807 L2069.45 257.936 L2066.81 257.936 Z" fill="#000000" fill-rule="nonzero" fill-opacity="1" /><path clip-path="url(#clip150)" d="M2080.03 266.839 Q2080.03 265.839 2080.61 265.363 Q2081.18 264.888 2081.92 264.888 Q2082.69 264.888 2083.23 265.396 Q2083.79 265.888 2083.79 266.757 Q2083.79 267.692 2083.13 268.216 Q2082.49 268.741 2081.57 268.61 Q2082.38 269.954 2083.85 270.561 Q2085.34 271.167 2086.72 271.167 Q2088.16 271.167 2089.33 269.921 Q2090.51 268.675 2090.51 265.626 Q2090.51 263.035 2089.49 261.543 Q2088.49 260.051 2086.51 260.051 L2085.03 260.051 Q2084.52 260.051 2084.38 260.002 Q2084.23 259.953 2084.23 259.674 Q2084.23 259.346 2084.74 259.281 Q2085.25 259.281 2086.05 259.182 Q2088 259.117 2089.03 257.428 Q2089.97 255.854 2089.97 253.608 Q2089.97 251.558 2088.98 250.706 Q2088.02 249.837 2086.75 249.837 Q2085.57 249.837 2084.28 250.329 Q2082.98 250.82 2082.28 251.919 Q2084.36 251.919 2084.36 253.608 Q2084.36 254.345 2083.88 254.837 Q2083.43 255.313 2082.66 255.313 Q2081.92 255.313 2081.43 254.854 Q2080.93 254.378 2080.93 253.575 Q2080.93 251.657 2082.64 250.329 Q2084.36 249 2086.89 249 Q2089.38 249 2091.21 250.312 Q2093.07 251.624 2093.07 253.64 Q2093.07 255.624 2091.75 257.248 Q2090.44 258.871 2088.36 259.543 Q2090.92 260.051 2092.44 261.789 Q2093.97 263.511 2093.97 265.626 Q2093.97 268.249 2091.9 270.184 Q2089.84 272.102 2086.82 272.102 Q2084.03 272.102 2082.03 270.594 Q2080.03 269.085 2080.03 266.839 Z" fill="#000000" fill-rule="nonzero" fill-opacity="1" /><path clip-path="url(#clip150)" d="M2103.68 251.421 L2108.56 251.421 L2108.56 255.403 L2104.76 262.81 L2101.78 262.81 L2103.68 255.403 L2103.68 251.421 Z" fill="#000000" fill-rule="nonzero" fill-opacity="1" /><path clip-path="url(#clip150)" d="M2154.9 243.273 L2154.9 245.356 L2135.32 245.356 Q2135.6 249.755 2137.96 252.069 Q2140.34 254.361 2144.58 254.361 Q2147.03 254.361 2149.32 253.759 Q2151.64 253.157 2153.91 251.954 L2153.91 255.981 Q2151.61 256.954 2149.21 257.463 Q2146.8 257.972 2144.32 257.972 Q2138.12 257.972 2134.49 254.361 Q2130.87 250.75 2130.87 244.593 Q2130.87 238.227 2134.3 234.5 Q2137.75 230.75 2143.58 230.75 Q2148.81 230.75 2151.85 234.13 Q2154.9 237.486 2154.9 243.273 M2150.64 242.023 Q2150.6 238.528 2148.67 236.444 Q2146.78 234.361 2143.63 234.361 Q2140.06 234.361 2137.91 236.375 Q2135.78 238.389 2135.46 242.046 L2150.64 242.023 Z" fill="#000000" fill-rule="nonzero" fill-opacity="1" /><path clip-path="url(#clip150)" d="M2182.61 231.375 L2173.23 243.991 L2183.1 257.301 L2178.07 257.301 L2170.53 247.116 L2162.98 257.301 L2157.96 257.301 L2168.03 243.736 L2158.81 231.375 L2163.84 231.375 L2170.71 240.611 L2177.59 231.375 L2182.61 231.375 Z" fill="#000000" fill-rule="nonzero" fill-opacity="1" /><path clip-path="url(#clip150)" d="M2193.23 253.412 L2193.23 267.162 L2188.95 267.162 L2188.95 231.375 L2193.23 231.375 L2193.23 235.31 Q2194.58 232.995 2196.61 231.884 Q2198.67 230.75 2201.52 230.75 Q2206.24 230.75 2209.18 234.5 Q2212.15 238.25 2212.15 244.361 Q2212.15 250.472 2209.18 254.222 Q2206.24 257.972 2201.52 257.972 Q2198.67 257.972 2196.61 256.861 Q2194.58 255.727 2193.23 253.412 M2207.73 244.361 Q2207.73 239.662 2205.78 237 Q2203.86 234.315 2200.48 234.315 Q2197.1 234.315 2195.16 237 Q2193.23 239.662 2193.23 244.361 Q2193.23 249.06 2195.16 251.745 Q2197.1 254.407 2200.48 254.407 Q2203.86 254.407 2205.78 251.745 Q2207.73 249.06 2207.73 244.361 Z" fill="#000000" fill-rule="nonzero" fill-opacity="1" /><path clip-path="url(#clip150)" d="M2219.81 251.421 L2224.69 251.421 L2224.69 257.301 L2219.81 257.301 L2219.81 251.421 Z" fill="#000000" fill-rule="nonzero" fill-opacity="1" /><polyline clip-path="url(#clip150)" style="stroke:#d94601; stroke-linecap:round; stroke-linejoin:round; stroke-width:4; stroke-opacity:1; fill:none" points="1865.23,300.469 2005.94,300.469 "/>
<path clip-path="url(#clip150)" d="M2062.02 276.963 Q2062.02 277.408 2061.93 277.783 L2060.62 286.121 Q2060.54 286.753 2060.4 286.988 Q2060.29 287.222 2059.91 287.222 Q2059.33 287.222 2059.33 286.613 Q2059.33 286.262 2059.47 285.699 Q2059.87 283.053 2059.87 281.858 Q2059.87 281.062 2059.7 280.476 Q2059.56 279.867 2059.33 279.446 Q2059.12 279.024 2058.62 278.743 Q2058.13 278.462 2057.66 278.298 Q2057.2 278.134 2056.35 278.064 Q2055.51 277.97 2054.78 277.947 Q2054.06 277.923 2052.86 277.923 Q2050.26 277.923 2049.84 278.017 Q2049.4 278.134 2049.16 278.485 Q2048.95 278.813 2048.72 279.797 L2042.35 305.257 L2042.16 306.264 Q2042.16 306.827 2042.51 307.014 Q2042.86 307.201 2043.94 307.318 Q2045.48 307.436 2047.01 307.436 Q2047.05 307.436 2047.15 307.436 Q2047.66 307.436 2047.87 307.459 Q2048.08 307.459 2048.29 307.506 Q2048.51 307.553 2048.55 307.67 Q2048.62 307.763 2048.62 307.951 Q2048.62 308.396 2048.44 308.63 Q2048.25 308.841 2048.06 308.888 Q2047.9 308.911 2047.57 308.911 Q2046.91 308.911 2045.51 308.864 Q2044.1 308.817 2043.4 308.817 L2039.42 308.771 L2035.34 308.817 Q2034.71 308.817 2033.37 308.864 Q2032.04 308.911 2031.41 308.911 Q2030.59 308.911 2030.59 308.326 Q2030.59 307.67 2030.89 307.553 Q2031.22 307.436 2032.6 307.436 Q2034.55 307.436 2035.6 307.342 Q2036.65 307.248 2037.22 306.92 Q2037.8 306.592 2037.97 306.264 Q2038.13 305.913 2038.32 305.117 L2044.76 279.516 Q2044.95 278.954 2044.95 278.509 Q2044.95 278.275 2044.88 278.181 Q2044.83 278.087 2044.52 278.017 Q2044.22 277.923 2043.59 277.923 L2041.71 277.923 Q2039.79 277.923 2038.6 278.017 Q2037.43 278.087 2036.3 278.439 Q2035.2 278.79 2034.55 279.282 Q2033.91 279.774 2033.21 280.781 Q2032.51 281.788 2031.99 283.006 Q2031.5 284.224 2030.8 286.215 Q2030.56 286.871 2030.42 287.058 Q2030.31 287.222 2029.98 287.222 Q2029.74 287.222 2029.56 287.081 Q2029.39 286.917 2029.39 286.707 Q2029.63 285.934 2029.67 285.84 L2032.56 277.385 Q2032.79 276.705 2033 276.588 Q2033.23 276.448 2034.1 276.448 L2060.71 276.448 Q2061.13 276.448 2061.27 276.448 Q2061.41 276.448 2061.65 276.494 Q2061.88 276.541 2061.95 276.658 Q2062.02 276.776 2062.02 276.963 Z" fill="#000000" fill-rule="nonzero" fill-opacity="1" /><path clip-path="url(#clip150)" d="M2084.35 308.248 Q2084.35 310.642 2083.14 312.953 Q2081.94 315.265 2080.06 316.692 Q2078.17 318.102 2076.25 318.102 Q2075.11 318.102 2074.34 317.479 Q2073.58 316.839 2073.17 315.937 Q2072.86 317.052 2072.19 319.725 Q2071.52 322.397 2071.52 322.66 Q2071.52 322.807 2071.55 322.873 Q2071.58 322.938 2071.73 323.02 Q2071.88 323.119 2072.24 323.152 Q2072.6 323.201 2073.2 323.201 Q2073.52 323.201 2073.63 323.201 Q2073.76 323.217 2073.88 323.299 Q2074.01 323.381 2074.01 323.561 Q2074.01 324.234 2073.4 324.234 Q2072.86 324.234 2071.75 324.184 Q2070.63 324.135 2070.07 324.135 Q2069.6 324.135 2068.65 324.184 Q2067.7 324.234 2067.25 324.234 Q2066.81 324.234 2066.81 323.84 Q2066.81 323.611 2066.88 323.463 Q2066.92 323.332 2067.06 323.266 Q2067.19 323.217 2067.3 323.201 Q2067.4 323.201 2067.6 323.201 Q2068.35 323.201 2068.68 323.07 Q2069.01 322.955 2069.12 322.709 Q2069.25 322.479 2069.4 321.823 L2073.17 306.871 Q2073.4 305.87 2073.4 305.165 Q2073.4 304.28 2073.12 303.952 Q2072.84 303.624 2072.35 303.624 Q2071.5 303.624 2070.94 304.641 Q2070.38 305.657 2069.91 307.625 Q2069.76 308.166 2069.66 308.281 Q2069.58 308.395 2069.33 308.395 Q2068.92 308.379 2068.92 308.051 Q2068.92 307.969 2069.06 307.444 Q2069.19 306.903 2069.43 306.116 Q2069.7 305.313 2069.97 304.805 Q2070.14 304.46 2070.29 304.231 Q2070.43 304.001 2070.73 303.641 Q2071.04 303.28 2071.48 303.083 Q2071.93 302.886 2072.47 302.886 Q2073.52 302.886 2074.38 303.509 Q2075.25 304.133 2075.48 305.395 Q2076.42 304.296 2077.57 303.591 Q2078.71 302.886 2079.88 302.886 Q2081.81 302.886 2083.07 304.395 Q2084.35 305.887 2084.35 308.248 M2081.93 306.772 Q2081.93 305.28 2081.35 304.46 Q2080.8 303.624 2079.78 303.624 Q2078.52 303.624 2077.06 304.903 Q2075.61 306.116 2075.32 307.248 L2073.66 313.822 L2073.56 314.363 Q2073.56 314.462 2073.61 314.757 Q2073.68 315.036 2073.86 315.495 Q2074.06 315.954 2074.32 316.364 Q2074.6 316.757 2075.09 317.052 Q2075.6 317.347 2076.22 317.347 Q2077.22 317.347 2078.3 316.462 Q2079.4 315.577 2080.22 313.904 Q2080.73 312.822 2081.32 310.494 Q2081.93 308.149 2081.93 306.772 Z" fill="#000000" fill-rule="nonzero" fill-opacity="1" /><path clip-path="url(#clip150)" d="M2091.2 303.032 L2096.08 303.032 L2096.08 307.013 L2092.28 314.42 L2089.3 314.42 L2091.2 307.013 L2091.2 303.032 Z" fill="#000000" fill-rule="nonzero" fill-opacity="1" /><path clip-path="url(#clip150)" d="M2140.43 287.962 Q2142.03 285.092 2144.25 283.726 Q2146.47 282.36 2149.48 282.36 Q2153.53 282.36 2155.73 285.208 Q2157.93 288.032 2157.93 293.263 L2157.93 308.911 L2153.65 308.911 L2153.65 293.402 Q2153.65 289.675 2152.33 287.87 Q2151.01 286.064 2148.3 286.064 Q2144.99 286.064 2143.07 288.263 Q2141.15 290.462 2141.15 294.258 L2141.15 308.911 L2136.87 308.911 L2136.87 293.402 Q2136.87 289.652 2135.55 287.87 Q2134.23 286.064 2131.47 286.064 Q2128.21 286.064 2126.29 288.286 Q2124.37 290.485 2124.37 294.258 L2124.37 308.911 L2120.09 308.911 L2120.09 282.985 L2124.37 282.985 L2124.37 287.013 Q2125.83 284.629 2127.86 283.495 Q2129.9 282.36 2132.7 282.36 Q2135.53 282.36 2137.49 283.796 Q2139.48 285.231 2140.43 287.962 Z" fill="#000000" fill-rule="nonzero" fill-opacity="1" /><path clip-path="url(#clip150)" d="M2176.47 285.971 Q2173.05 285.971 2171.06 288.657 Q2169.07 291.319 2169.07 295.971 Q2169.07 300.624 2171.03 303.309 Q2173.03 305.971 2176.47 305.971 Q2179.88 305.971 2181.87 303.286 Q2183.86 300.601 2183.86 295.971 Q2183.86 291.365 2181.87 288.68 Q2179.88 285.971 2176.47 285.971 M2176.47 282.36 Q2182.03 282.36 2185.2 285.971 Q2188.37 289.583 2188.37 295.971 Q2188.37 302.337 2185.2 305.971 Q2182.03 309.582 2176.47 309.582 Q2170.9 309.582 2167.72 305.971 Q2164.58 302.337 2164.58 295.971 Q2164.58 289.583 2167.72 285.971 Q2170.9 282.36 2176.47 282.36 Z" fill="#000000" fill-rule="nonzero" fill-opacity="1" /><path clip-path="url(#clip150)" d="M2212.49 286.92 L2212.49 272.893 L2216.75 272.893 L2216.75 308.911 L2212.49 308.911 L2212.49 305.022 Q2211.15 307.337 2209.09 308.471 Q2207.05 309.582 2204.18 309.582 Q2199.48 309.582 2196.52 305.832 Q2193.58 302.082 2193.58 295.971 Q2193.58 289.86 2196.52 286.11 Q2199.48 282.36 2204.18 282.36 Q2207.05 282.36 2209.09 283.495 Q2211.15 284.606 2212.49 286.92 M2197.98 295.971 Q2197.98 300.67 2199.9 303.356 Q2201.84 306.018 2205.22 306.018 Q2208.6 306.018 2210.55 303.356 Q2212.49 300.67 2212.49 295.971 Q2212.49 291.272 2210.55 288.61 Q2208.6 285.925 2205.22 285.925 Q2201.84 285.925 2199.9 288.61 Q2197.98 291.272 2197.98 295.971 Z" fill="#000000" fill-rule="nonzero" fill-opacity="1" /><path clip-path="url(#clip150)" d="M2247.7 294.883 L2247.7 296.967 L2228.12 296.967 Q2228.4 301.365 2230.76 303.68 Q2233.14 305.971 2237.38 305.971 Q2239.83 305.971 2242.12 305.369 Q2244.44 304.768 2246.71 303.564 L2246.71 307.592 Q2244.41 308.564 2242.01 309.073 Q2239.6 309.582 2237.12 309.582 Q2230.92 309.582 2227.28 305.971 Q2223.67 302.36 2223.67 296.203 Q2223.67 289.837 2227.1 286.11 Q2230.55 282.36 2236.38 282.36 Q2241.61 282.36 2244.65 285.74 Q2247.7 289.096 2247.7 294.883 M2243.44 293.633 Q2243.4 290.138 2241.47 288.055 Q2239.58 285.971 2236.43 285.971 Q2232.86 285.971 2230.71 287.985 Q2228.58 289.999 2228.26 293.657 L2243.44 293.633 Z" fill="#000000" fill-rule="nonzero" fill-opacity="1" /><path clip-path="url(#clip150)" d="M2254.69 272.893 L2258.95 272.893 L2258.95 308.911 L2254.69 308.911 L2254.69 272.893 Z" fill="#000000" fill-rule="nonzero" fill-opacity="1" /></svg>
