<?xml version="1.0" encoding="utf-8"?>
<svg xmlns="http://www.w3.org/2000/svg" xmlns:xlink="http://www.w3.org/1999/xlink" width="600" height="400" viewBox="0 0 2400 1600">
<defs>
  <clipPath id="clip800">
    <rect x="0" y="0" width="2400" height="1600"/>
  </clipPath>
</defs>
<path clip-path="url(#clip800)" d="M0 1600 L2400 1600 L2400 0 L0 0  Z" fill="#ffffff" fill-rule="evenodd" fill-opacity="1"/>
<defs>
  <clipPath id="clip801">
    <rect x="307" y="47" width="2046" height="1440"/>
  </clipPath>
</defs>
<path clip-path="url(#clip800)" d="M279.357 1423.18 L2352.76 1423.18 L2352.76 47.2441 L279.357 47.2441  Z" fill="#ffffff" fill-rule="evenodd" fill-opacity="1"/>
<defs>
  <clipPath id="clip802">
    <rect x="279" y="47" width="2074" height="1377"/>
  </clipPath>
</defs>
<polyline clip-path="url(#clip802)" style="stroke:#000000; stroke-linecap:round; stroke-linejoin:round; stroke-width:2; stroke-opacity:0.1; fill:none" points="336.522,1423.18 336.522,47.2441 "/>
<polyline clip-path="url(#clip802)" style="stroke:#000000; stroke-linecap:round; stroke-linejoin:round; stroke-width:2; stroke-opacity:0.1; fill:none" points="819.298,1423.18 819.298,47.2441 "/>
<polyline clip-path="url(#clip802)" style="stroke:#000000; stroke-linecap:round; stroke-linejoin:round; stroke-width:2; stroke-opacity:0.1; fill:none" points="1302.08,1423.18 1302.08,47.2441 "/>
<polyline clip-path="url(#clip802)" style="stroke:#000000; stroke-linecap:round; stroke-linejoin:round; stroke-width:2; stroke-opacity:0.1; fill:none" points="1784.85,1423.18 1784.85,47.2441 "/>
<polyline clip-path="url(#clip802)" style="stroke:#000000; stroke-linecap:round; stroke-linejoin:round; stroke-width:2; stroke-opacity:0.1; fill:none" points="2267.63,1423.18 2267.63,47.2441 "/>
<polyline clip-path="url(#clip802)" style="stroke:#000000; stroke-linecap:round; stroke-linejoin:round; stroke-width:2; stroke-opacity:0.1; fill:none" points="279.357,1251.26 2352.76,1251.26 "/>
<polyline clip-path="url(#clip802)" style="stroke:#000000; stroke-linecap:round; stroke-linejoin:round; stroke-width:2; stroke-opacity:0.1; fill:none" points="279.357,1010.24 2352.76,1010.24 "/>
<polyline clip-path="url(#clip802)" style="stroke:#000000; stroke-linecap:round; stroke-linejoin:round; stroke-width:2; stroke-opacity:0.1; fill:none" points="279.357,769.218 2352.76,769.218 "/>
<polyline clip-path="url(#clip802)" style="stroke:#000000; stroke-linecap:round; stroke-linejoin:round; stroke-width:2; stroke-opacity:0.1; fill:none" points="279.357,528.197 2352.76,528.197 "/>
<polyline clip-path="url(#clip802)" style="stroke:#000000; stroke-linecap:round; stroke-linejoin:round; stroke-width:2; stroke-opacity:0.1; fill:none" points="279.357,287.176 2352.76,287.176 "/>
<polyline clip-path="url(#clip800)" style="stroke:#000000; stroke-linecap:round; stroke-linejoin:round; stroke-width:4; stroke-opacity:1; fill:none" points="279.357,1423.18 2352.76,1423.18 "/>
<polyline clip-path="url(#clip800)" style="stroke:#000000; stroke-linecap:round; stroke-linejoin:round; stroke-width:4; stroke-opacity:1; fill:none" points="336.522,1423.18 336.522,1404.28 "/>
<polyline clip-path="url(#clip800)" style="stroke:#000000; stroke-linecap:round; stroke-linejoin:round; stroke-width:4; stroke-opacity:1; fill:none" points="819.298,1423.18 819.298,1404.28 "/>
<polyline clip-path="url(#clip800)" style="stroke:#000000; stroke-linecap:round; stroke-linejoin:round; stroke-width:4; stroke-opacity:1; fill:none" points="1302.08,1423.18 1302.08,1404.28 "/>
<polyline clip-path="url(#clip800)" style="stroke:#000000; stroke-linecap:round; stroke-linejoin:round; stroke-width:4; stroke-opacity:1; fill:none" points="1784.85,1423.18 1784.85,1404.28 "/>
<polyline clip-path="url(#clip800)" style="stroke:#000000; stroke-linecap:round; stroke-linejoin:round; stroke-width:4; stroke-opacity:1; fill:none" points="2267.63,1423.18 2267.63,1404.28 "/>
<path clip-path="url(#clip800)" d="M336.522 1454.1 Q332.911 1454.1 331.082 1457.66 Q329.276 1461.2 329.276 1468.33 Q329.276 1475.44 331.082 1479.01 Q332.911 1482.55 336.522 1482.55 Q340.156 1482.55 341.961 1479.01 Q343.79 1475.44 343.79 1468.33 Q343.79 1461.2 341.961 1457.66 Q340.156 1454.1 336.522 1454.1 M336.522 1450.39 Q342.332 1450.39 345.387 1455 Q348.466 1459.58 348.466 1468.33 Q348.466 1477.06 345.387 1481.67 Q342.332 1486.25 336.522 1486.25 Q330.711 1486.25 327.633 1481.67 Q324.577 1477.06 324.577 1468.33 Q324.577 1459.58 327.633 1455 Q330.711 1450.39 336.522 1450.39 Z" fill="#000000" fill-rule="nonzero" fill-opacity="1" /><path clip-path="url(#clip800)" d="M809.576 1451.02 L827.933 1451.02 L827.933 1454.96 L813.859 1454.96 L813.859 1463.43 Q814.877 1463.08 815.896 1462.92 Q816.914 1462.73 817.933 1462.73 Q823.72 1462.73 827.099 1465.9 Q830.479 1469.08 830.479 1474.49 Q830.479 1480.07 827.007 1483.17 Q823.535 1486.25 817.215 1486.25 Q815.039 1486.25 812.771 1485.88 Q810.525 1485.51 808.118 1484.77 L808.118 1480.07 Q810.201 1481.2 812.424 1481.76 Q814.646 1482.32 817.123 1482.32 Q821.127 1482.32 823.465 1480.21 Q825.803 1478.1 825.803 1474.49 Q825.803 1470.88 823.465 1468.77 Q821.127 1466.67 817.123 1466.67 Q815.248 1466.67 813.373 1467.08 Q811.521 1467.5 809.576 1468.38 L809.576 1451.02 Z" fill="#000000" fill-rule="nonzero" fill-opacity="1" /><path clip-path="url(#clip800)" d="M1276.76 1481.64 L1284.4 1481.64 L1284.4 1455.28 L1276.09 1456.95 L1276.09 1452.69 L1284.36 1451.02 L1289.03 1451.02 L1289.03 1481.64 L1296.67 1481.64 L1296.67 1485.58 L1276.76 1485.58 L1276.76 1481.64 Z" fill="#000000" fill-rule="nonzero" fill-opacity="1" /><path clip-path="url(#clip800)" d="M1316.11 1454.1 Q1312.5 1454.1 1310.67 1457.66 Q1308.87 1461.2 1308.87 1468.33 Q1308.87 1475.44 1310.67 1479.01 Q1312.5 1482.55 1316.11 1482.55 Q1319.75 1482.55 1321.55 1479.01 Q1323.38 1475.44 1323.38 1468.33 Q1323.38 1461.2 1321.55 1457.66 Q1319.75 1454.1 1316.11 1454.1 M1316.11 1450.39 Q1321.92 1450.39 1324.98 1455 Q1328.06 1459.58 1328.06 1468.33 Q1328.06 1477.06 1324.98 1481.67 Q1321.92 1486.25 1316.11 1486.25 Q1310.3 1486.25 1307.23 1481.67 Q1304.17 1477.06 1304.17 1468.33 Q1304.17 1459.58 1307.23 1455 Q1310.3 1450.39 1316.11 1450.39 Z" fill="#000000" fill-rule="nonzero" fill-opacity="1" /><path clip-path="url(#clip800)" d="M1760.04 1481.64 L1767.68 1481.64 L1767.68 1455.28 L1759.37 1456.95 L1759.37 1452.69 L1767.63 1451.02 L1772.31 1451.02 L1772.31 1481.64 L1779.94 1481.64 L1779.94 1485.58 L1760.04 1485.58 L1760.04 1481.64 Z" fill="#000000" fill-rule="nonzero" fill-opacity="1" /><path clip-path="url(#clip800)" d="M1789.44 1451.02 L1807.79 1451.02 L1807.79 1454.96 L1793.72 1454.96 L1793.72 1463.43 Q1794.74 1463.08 1795.75 1462.92 Q1796.77 1462.73 1797.79 1462.73 Q1803.58 1462.73 1806.96 1465.9 Q1810.34 1469.08 1810.34 1474.49 Q1810.34 1480.07 1806.87 1483.17 Q1803.39 1486.25 1797.07 1486.25 Q1794.9 1486.25 1792.63 1485.88 Q1790.38 1485.51 1787.98 1484.77 L1787.98 1480.07 Q1790.06 1481.2 1792.28 1481.76 Q1794.5 1482.32 1796.98 1482.32 Q1800.99 1482.32 1803.32 1480.21 Q1805.66 1478.1 1805.66 1474.49 Q1805.66 1470.88 1803.32 1468.77 Q1800.99 1466.67 1796.98 1466.67 Q1795.11 1466.67 1793.23 1467.08 Q1791.38 1467.5 1789.44 1468.38 L1789.44 1451.02 Z" fill="#000000" fill-rule="nonzero" fill-opacity="1" /><path clip-path="url(#clip800)" d="M2246.4 1481.64 L2262.72 1481.64 L2262.72 1485.58 L2240.78 1485.58 L2240.78 1481.64 Q2243.44 1478.89 2248.02 1474.26 Q2252.63 1469.61 2253.81 1468.27 Q2256.05 1465.74 2256.93 1464.01 Q2257.84 1462.25 2257.84 1460.56 Q2257.84 1457.8 2255.89 1456.07 Q2253.97 1454.33 2250.87 1454.33 Q2248.67 1454.33 2246.22 1455.09 Q2243.79 1455.86 2241.01 1457.41 L2241.01 1452.69 Q2243.83 1451.55 2246.29 1450.97 Q2248.74 1450.39 2250.78 1450.39 Q2256.15 1450.39 2259.34 1453.08 Q2262.54 1455.77 2262.54 1460.26 Q2262.54 1462.39 2261.73 1464.31 Q2260.94 1466.2 2258.83 1468.8 Q2258.25 1469.47 2255.15 1472.69 Q2252.05 1475.88 2246.4 1481.64 Z" fill="#000000" fill-rule="nonzero" fill-opacity="1" /><path clip-path="url(#clip800)" d="M2282.54 1454.1 Q2278.93 1454.1 2277.1 1457.66 Q2275.29 1461.2 2275.29 1468.33 Q2275.29 1475.44 2277.1 1479.01 Q2278.93 1482.55 2282.54 1482.55 Q2286.17 1482.55 2287.98 1479.01 Q2289.8 1475.44 2289.8 1468.33 Q2289.8 1461.2 2287.98 1457.66 Q2286.17 1454.1 2282.54 1454.1 M2282.54 1450.39 Q2288.35 1450.39 2291.4 1455 Q2294.48 1459.58 2294.48 1468.33 Q2294.48 1477.06 2291.4 1481.67 Q2288.35 1486.25 2282.54 1486.25 Q2276.73 1486.25 2273.65 1481.67 Q2270.59 1477.06 2270.59 1468.33 Q2270.59 1459.58 2273.65 1455 Q2276.73 1450.39 2282.54 1450.39 Z" fill="#000000" fill-rule="nonzero" fill-opacity="1" /><path clip-path="url(#clip800)" d="M1314.81 1546.53 L1314.81 1568.04 L1308.96 1568.04 L1308.96 1546.72 Q1308.96 1541.66 1306.99 1539.14 Q1305.01 1536.63 1301.07 1536.63 Q1296.32 1536.63 1293.59 1539.65 Q1290.85 1542.68 1290.85 1547.9 L1290.85 1568.04 L1284.96 1568.04 L1284.96 1518.52 L1290.85 1518.52 L1290.85 1537.93 Q1292.95 1534.72 1295.78 1533.13 Q1298.65 1531.54 1302.37 1531.54 Q1308.51 1531.54 1311.66 1535.36 Q1314.81 1539.14 1314.81 1546.53 Z" fill="#000000" fill-rule="nonzero" fill-opacity="1" /><path clip-path="url(#clip800)" d="M1347.15 1537.87 Q1346.17 1537.3 1344.99 1537.04 Q1343.84 1536.76 1342.44 1536.76 Q1337.48 1536.76 1334.8 1540 Q1332.16 1543.22 1332.16 1549.27 L1332.16 1568.04 L1326.27 1568.04 L1326.27 1532.4 L1332.16 1532.4 L1332.16 1537.93 Q1334.01 1534.69 1336.97 1533.13 Q1339.93 1531.54 1344.16 1531.54 Q1344.77 1531.54 1345.5 1531.63 Q1346.23 1531.7 1347.12 1531.85 L1347.15 1537.87 Z" fill="#000000" fill-rule="nonzero" fill-opacity="1" /><polyline clip-path="url(#clip800)" style="stroke:#000000; stroke-linecap:round; stroke-linejoin:round; stroke-width:4; stroke-opacity:1; fill:none" points="279.357,1423.18 279.357,47.2441 "/>
<polyline clip-path="url(#clip800)" style="stroke:#000000; stroke-linecap:round; stroke-linejoin:round; stroke-width:4; stroke-opacity:1; fill:none" points="279.357,1251.26 298.254,1251.26 "/>
<polyline clip-path="url(#clip800)" style="stroke:#000000; stroke-linecap:round; stroke-linejoin:round; stroke-width:4; stroke-opacity:1; fill:none" points="279.357,1010.24 298.254,1010.24 "/>
<polyline clip-path="url(#clip800)" style="stroke:#000000; stroke-linecap:round; stroke-linejoin:round; stroke-width:4; stroke-opacity:1; fill:none" points="279.357,769.218 298.254,769.218 "/>
<polyline clip-path="url(#clip800)" style="stroke:#000000; stroke-linecap:round; stroke-linejoin:round; stroke-width:4; stroke-opacity:1; fill:none" points="279.357,528.197 298.254,528.197 "/>
<polyline clip-path="url(#clip800)" style="stroke:#000000; stroke-linecap:round; stroke-linejoin:round; stroke-width:4; stroke-opacity:1; fill:none" points="279.357,287.176 298.254,287.176 "/>
<path clip-path="url(#clip800)" d="M119.885 1264.61 L136.204 1264.61 L136.204 1268.54 L114.26 1268.54 L114.26 1264.61 Q116.922 1261.85 121.505 1257.22 Q126.112 1252.57 127.292 1251.23 Q129.538 1248.7 130.417 1246.97 Q131.32 1245.21 131.32 1243.52 Q131.32 1240.76 129.376 1239.03 Q127.455 1237.29 124.353 1237.29 Q122.154 1237.29 119.7 1238.05 Q117.269 1238.82 114.492 1240.37 L114.492 1235.65 Q117.316 1234.51 119.769 1233.93 Q122.223 1233.36 124.26 1233.36 Q129.63 1233.36 132.825 1236.04 Q136.019 1238.73 136.019 1243.22 Q136.019 1245.35 135.209 1247.27 Q134.422 1249.17 132.316 1251.76 Q131.737 1252.43 128.635 1255.65 Q125.533 1258.84 119.885 1264.61 Z" fill="#000000" fill-rule="nonzero" fill-opacity="1" /><path clip-path="url(#clip800)" d="M160.186 1249.91 Q163.542 1250.62 165.417 1252.89 Q167.315 1255.16 167.315 1258.49 Q167.315 1263.61 163.797 1266.41 Q160.278 1269.21 153.797 1269.21 Q151.621 1269.21 149.306 1268.77 Q147.015 1268.36 144.561 1267.5 L144.561 1262.99 Q146.505 1264.12 148.82 1264.7 Q151.135 1265.28 153.658 1265.28 Q158.056 1265.28 160.348 1263.54 Q162.663 1261.8 162.663 1258.49 Q162.663 1255.44 160.51 1253.73 Q158.38 1251.99 154.561 1251.99 L150.533 1251.99 L150.533 1248.15 L154.746 1248.15 Q158.195 1248.15 160.024 1246.78 Q161.852 1245.39 161.852 1242.8 Q161.852 1240.14 159.954 1238.73 Q158.079 1237.29 154.561 1237.29 Q152.64 1237.29 150.441 1237.71 Q148.241 1238.12 145.603 1239 L145.603 1234.84 Q148.265 1234.1 150.579 1233.73 Q152.917 1233.36 154.978 1233.36 Q160.302 1233.36 163.403 1235.79 Q166.505 1238.19 166.505 1242.31 Q166.505 1245.18 164.862 1247.18 Q163.218 1249.14 160.186 1249.91 Z" fill="#000000" fill-rule="nonzero" fill-opacity="1" /><path clip-path="url(#clip800)" d="M176.227 1233.98 L194.584 1233.98 L194.584 1237.92 L180.51 1237.92 L180.51 1246.39 Q181.528 1246.04 182.547 1245.88 Q183.565 1245.69 184.584 1245.69 Q190.371 1245.69 193.75 1248.87 Q197.13 1252.04 197.13 1257.45 Q197.13 1263.03 193.658 1266.13 Q190.186 1269.21 183.866 1269.21 Q181.69 1269.21 179.422 1268.84 Q177.176 1268.47 174.769 1267.73 L174.769 1263.03 Q176.852 1264.17 179.075 1264.72 Q181.297 1265.28 183.774 1265.28 Q187.778 1265.28 190.116 1263.17 Q192.454 1261.06 192.454 1257.45 Q192.454 1253.84 190.116 1251.74 Q187.778 1249.63 183.774 1249.63 Q181.899 1249.63 180.024 1250.05 Q178.172 1250.46 176.227 1251.34 L176.227 1233.98 Z" fill="#000000" fill-rule="nonzero" fill-opacity="1" /><path clip-path="url(#clip800)" d="M206.343 1262.66 L211.227 1262.66 L211.227 1268.54 L206.343 1268.54 L206.343 1262.66 Z" fill="#000000" fill-rule="nonzero" fill-opacity="1" /><path clip-path="url(#clip800)" d="M231.412 1237.06 Q227.801 1237.06 225.973 1240.62 Q224.167 1244.17 224.167 1251.3 Q224.167 1258.4 225.973 1261.97 Q227.801 1265.51 231.412 1265.51 Q235.047 1265.51 236.852 1261.97 Q238.681 1258.4 238.681 1251.3 Q238.681 1244.17 236.852 1240.62 Q235.047 1237.06 231.412 1237.06 M231.412 1233.36 Q237.222 1233.36 240.278 1237.96 Q243.357 1242.55 243.357 1251.3 Q243.357 1260.02 240.278 1264.63 Q237.222 1269.21 231.412 1269.21 Q225.602 1269.21 222.523 1264.63 Q219.468 1260.02 219.468 1251.3 Q219.468 1242.55 222.523 1237.96 Q225.602 1233.36 231.412 1233.36 Z" fill="#000000" fill-rule="nonzero" fill-opacity="1" /><path clip-path="url(#clip800)" d="M120.88 1023.58 L137.2 1023.58 L137.2 1027.52 L115.256 1027.52 L115.256 1023.58 Q117.918 1020.83 122.501 1016.2 Q127.107 1011.55 128.288 1010.2 Q130.533 1007.68 131.413 1005.95 Q132.316 1004.19 132.316 1002.5 Q132.316 999.742 130.371 998.006 Q128.45 996.27 125.348 996.27 Q123.149 996.27 120.695 997.034 Q118.265 997.798 115.487 999.349 L115.487 994.626 Q118.311 993.492 120.765 992.913 Q123.218 992.335 125.255 992.335 Q130.626 992.335 133.82 995.02 Q137.015 997.705 137.015 1002.2 Q137.015 1004.33 136.204 1006.25 Q135.417 1008.14 133.311 1010.74 Q132.732 1011.41 129.63 1014.63 Q126.529 1017.82 120.88 1023.58 Z" fill="#000000" fill-rule="nonzero" fill-opacity="1" /><path clip-path="url(#clip800)" d="M161.181 1008.89 Q164.538 1009.6 166.413 1011.87 Q168.311 1014.14 168.311 1017.47 Q168.311 1022.59 164.792 1025.39 Q161.274 1028.19 154.792 1028.19 Q152.616 1028.19 150.302 1027.75 Q148.01 1027.33 145.556 1026.48 L145.556 1021.96 Q147.501 1023.1 149.816 1023.68 Q152.13 1024.26 154.653 1024.26 Q159.052 1024.26 161.343 1022.52 Q163.658 1020.78 163.658 1017.47 Q163.658 1014.42 161.505 1012.7 Q159.376 1010.97 155.556 1010.97 L151.528 1010.97 L151.528 1007.13 L155.741 1007.13 Q159.19 1007.13 161.019 1005.76 Q162.848 1004.37 162.848 1001.78 Q162.848 999.117 160.95 997.705 Q159.075 996.27 155.556 996.27 Q153.635 996.27 151.436 996.686 Q149.237 997.103 146.598 997.983 L146.598 993.816 Q149.26 993.075 151.575 992.705 Q153.913 992.335 155.973 992.335 Q161.297 992.335 164.399 994.765 Q167.501 997.173 167.501 1001.29 Q167.501 1004.16 165.857 1006.15 Q164.214 1008.12 161.181 1008.89 Z" fill="#000000" fill-rule="nonzero" fill-opacity="1" /><path clip-path="url(#clip800)" d="M175.996 992.96 L198.218 992.96 L198.218 994.95 L185.672 1027.52 L180.788 1027.52 L192.593 996.895 L175.996 996.895 L175.996 992.96 Z" fill="#000000" fill-rule="nonzero" fill-opacity="1" /><path clip-path="url(#clip800)" d="M207.338 1021.64 L212.223 1021.64 L212.223 1027.52 L207.338 1027.52 L207.338 1021.64 Z" fill="#000000" fill-rule="nonzero" fill-opacity="1" /><path clip-path="url(#clip800)" d="M222.454 992.96 L240.81 992.96 L240.81 996.895 L226.736 996.895 L226.736 1005.37 Q227.755 1005.02 228.773 1004.86 Q229.792 1004.67 230.81 1004.67 Q236.597 1004.67 239.977 1007.84 Q243.357 1011.02 243.357 1016.43 Q243.357 1022.01 239.884 1025.11 Q236.412 1028.19 230.093 1028.19 Q227.917 1028.19 225.648 1027.82 Q223.403 1027.45 220.996 1026.71 L220.996 1022.01 Q223.079 1023.14 225.301 1023.7 Q227.523 1024.26 230 1024.26 Q234.005 1024.26 236.343 1022.15 Q238.681 1020.04 238.681 1016.43 Q238.681 1012.82 236.343 1010.71 Q234.005 1008.61 230 1008.61 Q228.125 1008.61 226.25 1009.02 Q224.398 1009.44 222.454 1010.32 L222.454 992.96 Z" fill="#000000" fill-rule="nonzero" fill-opacity="1" /><path clip-path="url(#clip800)" d="M119.885 782.563 L136.204 782.563 L136.204 786.498 L114.26 786.498 L114.26 782.563 Q116.922 779.809 121.505 775.179 Q126.112 770.526 127.292 769.184 Q129.538 766.661 130.417 764.924 Q131.32 763.165 131.32 761.475 Q131.32 758.721 129.376 756.985 Q127.455 755.249 124.353 755.249 Q122.154 755.249 119.7 756.012 Q117.269 756.776 114.492 758.327 L114.492 753.605 Q117.316 752.471 119.769 751.892 Q122.223 751.313 124.26 751.313 Q129.63 751.313 132.825 753.999 Q136.019 756.684 136.019 761.174 Q136.019 763.304 135.209 765.225 Q134.422 767.124 132.316 769.716 Q131.737 770.387 128.635 773.605 Q125.533 776.799 119.885 782.563 Z" fill="#000000" fill-rule="nonzero" fill-opacity="1" /><path clip-path="url(#clip800)" d="M158.866 756.012 L147.061 774.461 L158.866 774.461 L158.866 756.012 M157.64 751.938 L163.519 751.938 L163.519 774.461 L168.45 774.461 L168.45 778.35 L163.519 778.35 L163.519 786.498 L158.866 786.498 L158.866 778.35 L143.265 778.35 L143.265 773.836 L157.64 751.938 Z" fill="#000000" fill-rule="nonzero" fill-opacity="1" /><path clip-path="url(#clip800)" d="M186.181 755.017 Q182.57 755.017 180.741 758.582 Q178.936 762.124 178.936 769.253 Q178.936 776.36 180.741 779.924 Q182.57 783.466 186.181 783.466 Q189.815 783.466 191.621 779.924 Q193.45 776.36 193.45 769.253 Q193.45 762.124 191.621 758.582 Q189.815 755.017 186.181 755.017 M186.181 751.313 Q191.991 751.313 195.047 755.92 Q198.125 760.503 198.125 769.253 Q198.125 777.98 195.047 782.586 Q191.991 787.17 186.181 787.17 Q180.371 787.17 177.292 782.586 Q174.237 777.98 174.237 769.253 Q174.237 760.503 177.292 755.92 Q180.371 751.313 186.181 751.313 Z" fill="#000000" fill-rule="nonzero" fill-opacity="1" /><path clip-path="url(#clip800)" d="M206.343 780.619 L211.227 780.619 L211.227 786.498 L206.343 786.498 L206.343 780.619 Z" fill="#000000" fill-rule="nonzero" fill-opacity="1" /><path clip-path="url(#clip800)" d="M231.412 755.017 Q227.801 755.017 225.973 758.582 Q224.167 762.124 224.167 769.253 Q224.167 776.36 225.973 779.924 Q227.801 783.466 231.412 783.466 Q235.047 783.466 236.852 779.924 Q238.681 776.36 238.681 769.253 Q238.681 762.124 236.852 758.582 Q235.047 755.017 231.412 755.017 M231.412 751.313 Q237.222 751.313 240.278 755.92 Q243.357 760.503 243.357 769.253 Q243.357 777.98 240.278 782.586 Q237.222 787.17 231.412 787.17 Q225.602 787.17 222.523 782.586 Q219.468 777.98 219.468 769.253 Q219.468 760.503 222.523 755.92 Q225.602 751.313 231.412 751.313 Z" fill="#000000" fill-rule="nonzero" fill-opacity="1" /><path clip-path="url(#clip800)" d="M120.88 541.542 L137.2 541.542 L137.2 545.477 L115.256 545.477 L115.256 541.542 Q117.918 538.787 122.501 534.158 Q127.107 529.505 128.288 528.162 Q130.533 525.639 131.413 523.903 Q132.316 522.144 132.316 520.454 Q132.316 517.7 130.371 515.963 Q128.45 514.227 125.348 514.227 Q123.149 514.227 120.695 514.991 Q118.265 515.755 115.487 517.306 L115.487 512.584 Q118.311 511.45 120.765 510.871 Q123.218 510.292 125.255 510.292 Q130.626 510.292 133.82 512.977 Q137.015 515.662 137.015 520.153 Q137.015 522.283 136.204 524.204 Q135.417 526.102 133.311 528.695 Q132.732 529.366 129.63 532.584 Q126.529 535.778 120.88 541.542 Z" fill="#000000" fill-rule="nonzero" fill-opacity="1" /><path clip-path="url(#clip800)" d="M159.862 514.991 L148.056 533.44 L159.862 533.44 L159.862 514.991 M158.635 510.917 L164.515 510.917 L164.515 533.44 L169.445 533.44 L169.445 537.329 L164.515 537.329 L164.515 545.477 L159.862 545.477 L159.862 537.329 L144.26 537.329 L144.26 532.815 L158.635 510.917 Z" fill="#000000" fill-rule="nonzero" fill-opacity="1" /><path clip-path="url(#clip800)" d="M181.204 541.542 L197.524 541.542 L197.524 545.477 L175.579 545.477 L175.579 541.542 Q178.241 538.787 182.825 534.158 Q187.431 529.505 188.612 528.162 Q190.857 525.639 191.737 523.903 Q192.639 522.144 192.639 520.454 Q192.639 517.7 190.695 515.963 Q188.774 514.227 185.672 514.227 Q183.473 514.227 181.019 514.991 Q178.589 515.755 175.811 517.306 L175.811 512.584 Q178.635 511.45 181.089 510.871 Q183.542 510.292 185.579 510.292 Q190.95 510.292 194.144 512.977 Q197.338 515.662 197.338 520.153 Q197.338 522.283 196.528 524.204 Q195.741 526.102 193.635 528.695 Q193.056 529.366 189.954 532.584 Q186.852 535.778 181.204 541.542 Z" fill="#000000" fill-rule="nonzero" fill-opacity="1" /><path clip-path="url(#clip800)" d="M207.338 539.598 L212.223 539.598 L212.223 545.477 L207.338 545.477 L207.338 539.598 Z" fill="#000000" fill-rule="nonzero" fill-opacity="1" /><path clip-path="url(#clip800)" d="M222.454 510.917 L240.81 510.917 L240.81 514.852 L226.736 514.852 L226.736 523.324 Q227.755 522.977 228.773 522.815 Q229.792 522.63 230.81 522.63 Q236.597 522.63 239.977 525.801 Q243.357 528.973 243.357 534.389 Q243.357 539.968 239.884 543.07 Q236.412 546.148 230.093 546.148 Q227.917 546.148 225.648 545.778 Q223.403 545.408 220.996 544.667 L220.996 539.968 Q223.079 541.102 225.301 541.658 Q227.523 542.213 230 542.213 Q234.005 542.213 236.343 540.107 Q238.681 538 238.681 534.389 Q238.681 530.778 236.343 528.672 Q234.005 526.565 230 526.565 Q228.125 526.565 226.25 526.982 Q224.398 527.399 222.454 528.278 L222.454 510.917 Z" fill="#000000" fill-rule="nonzero" fill-opacity="1" /><path clip-path="url(#clip800)" d="M119.885 300.521 L136.204 300.521 L136.204 304.456 L114.26 304.456 L114.26 300.521 Q116.922 297.766 121.505 293.136 Q126.112 288.484 127.292 287.141 Q129.538 284.618 130.417 282.882 Q131.32 281.123 131.32 279.433 Q131.32 276.678 129.376 274.942 Q127.455 273.206 124.353 273.206 Q122.154 273.206 119.7 273.97 Q117.269 274.734 114.492 276.285 L114.492 271.563 Q117.316 270.428 119.769 269.85 Q122.223 269.271 124.26 269.271 Q129.63 269.271 132.825 271.956 Q136.019 274.641 136.019 279.132 Q136.019 281.262 135.209 283.183 Q134.422 285.081 132.316 287.674 Q131.737 288.345 128.635 291.562 Q125.533 294.757 119.885 300.521 Z" fill="#000000" fill-rule="nonzero" fill-opacity="1" /><path clip-path="url(#clip800)" d="M158.866 273.97 L147.061 292.419 L158.866 292.419 L158.866 273.97 M157.64 269.896 L163.519 269.896 L163.519 292.419 L168.45 292.419 L168.45 296.308 L163.519 296.308 L163.519 304.456 L158.866 304.456 L158.866 296.308 L143.265 296.308 L143.265 291.794 L157.64 269.896 Z" fill="#000000" fill-rule="nonzero" fill-opacity="1" /><path clip-path="url(#clip800)" d="M176.227 269.896 L194.584 269.896 L194.584 273.831 L180.51 273.831 L180.51 282.303 Q181.528 281.956 182.547 281.794 Q183.565 281.609 184.584 281.609 Q190.371 281.609 193.75 284.78 Q197.13 287.951 197.13 293.368 Q197.13 298.947 193.658 302.048 Q190.186 305.127 183.866 305.127 Q181.69 305.127 179.422 304.757 Q177.176 304.386 174.769 303.646 L174.769 298.947 Q176.852 300.081 179.075 300.636 Q181.297 301.192 183.774 301.192 Q187.778 301.192 190.116 299.086 Q192.454 296.979 192.454 293.368 Q192.454 289.757 190.116 287.65 Q187.778 285.544 183.774 285.544 Q181.899 285.544 180.024 285.961 Q178.172 286.377 176.227 287.257 L176.227 269.896 Z" fill="#000000" fill-rule="nonzero" fill-opacity="1" /><path clip-path="url(#clip800)" d="M206.343 298.576 L211.227 298.576 L211.227 304.456 L206.343 304.456 L206.343 298.576 Z" fill="#000000" fill-rule="nonzero" fill-opacity="1" /><path clip-path="url(#clip800)" d="M231.412 272.975 Q227.801 272.975 225.973 276.539 Q224.167 280.081 224.167 287.211 Q224.167 294.317 225.973 297.882 Q227.801 301.423 231.412 301.423 Q235.047 301.423 236.852 297.882 Q238.681 294.317 238.681 287.211 Q238.681 280.081 236.852 276.539 Q235.047 272.975 231.412 272.975 M231.412 269.271 Q237.222 269.271 240.278 273.877 Q243.357 278.461 243.357 287.211 Q243.357 295.937 240.278 300.544 Q237.222 305.127 231.412 305.127 Q225.602 305.127 222.523 300.544 Q219.468 295.937 219.468 287.211 Q219.468 278.461 222.523 273.877 Q225.602 269.271 231.412 269.271 Z" fill="#000000" fill-rule="nonzero" fill-opacity="1" /><path clip-path="url(#clip800)" d="M16.4842 754.07 L16.4842 747.641 L36.568 747.641 L16.4842 726.316 L16.4842 718.04 L38.6368 741.625 L64.0042 716.354 L64.0042 724.82 L41.1194 747.641 L64.0042 747.641 L64.0042 754.07 L16.4842 754.07 Z" fill="#000000" fill-rule="nonzero" fill-opacity="1" /><polyline clip-path="url(#clip802)" style="stroke:#d94601; stroke-linecap:round; stroke-linejoin:round; stroke-width:4; stroke-opacity:1; fill:none" points="338.038,1384.24 357.598,1283.43 377.159,1183.95 396.719,1023.26 416.279,920.521 435.84,792.747 455.4,754.129 474.96,706.405 494.521,690.146 514.081,650.829 533.641,627.778 553.202,612.276 572.762,581.115 592.323,553.328 611.883,545.003 631.443,530.477 651.004,506.772 670.564,483.925 690.124,471.977 709.685,467.467 729.245,454.162 748.806,436.175 768.366,417.989 787.926,404.089 807.487,398.922 827.047,394.929 846.607,385.354 866.168,372.455 885.728,358.493 905.289,345.726 924.849,336.413 944.409,332.814 963.97,330.552 983.53,324.539 1003.09,315.922 1022.65,305.843 1042.21,295.449 1061.77,285.882 1081.33,278.288 1100.89,273.812 1120.45,272.793 1140.01,270.159 1159.57,265.313 1179.13,258.874 1198.69,251.459 1218.25,243.687 1237.81,236.175 1257.38,229.54 1276.94,224.402 1296.5,221.377 1316.06,220.679 1335.62,219.031 1355.18,215.857 1374.74,211.503 1394.3,206.315 1413.86,200.641 1433.42,194.827 1452.98,189.22 1472.54,184.166 1492.1,180.012 1511.66,177.105 1531.22,175.791 1550.78,175.341 1570.34,173.783 1589.9,171.252 1609.46,167.955 1629.02,164.096 1648.58,159.882 1668.14,155.517 1687.7,151.208 1707.26,147.159 1726.82,143.577 1746.38,140.667 1765.94,138.635 1785.51,137.686 1805.07,137.395 1824.63,136.348 1844.19,134.6 1863.75,132.281 1883.31,129.52 1902.87,126.447 1922.43,123.193 1941.99,119.887 1961.55,116.66 1981.11,113.64 2000.67,110.958 2020.23,108.745 2039.79,107.129 2059.35,106.241 2078.91,106.016 2098.47,105.221 2118.03,103.748 2137.59,101.756 2157.15,99.4033 2176.71,96.8493 2196.27,94.2526 2215.83,91.772 2235.39,89.5662 2254.95,87.794 2274.51,86.6142 2294.07,86.1857 "/>
<line clip-path="url(#clip802)" x1="338.038" y1="1384.24" x2="338.038" y2="1368.24" style="stroke:#d94601; stroke-width:3.2; stroke-opacity:1"/>
<line clip-path="url(#clip802)" x1="338.038" y1="1384.24" x2="322.038" y2="1384.24" style="stroke:#d94601; stroke-width:3.2; stroke-opacity:1"/>
<line clip-path="url(#clip802)" x1="338.038" y1="1384.24" x2="338.038" y2="1400.24" style="stroke:#d94601; stroke-width:3.2; stroke-opacity:1"/>
<line clip-path="url(#clip802)" x1="338.038" y1="1384.24" x2="354.038" y2="1384.24" style="stroke:#d94601; stroke-width:3.2; stroke-opacity:1"/>
<line clip-path="url(#clip802)" x1="729.245" y1="454.162" x2="729.245" y2="438.162" style="stroke:#d94601; stroke-width:3.2; stroke-opacity:1"/>
<line clip-path="url(#clip802)" x1="729.245" y1="454.162" x2="713.245" y2="454.162" style="stroke:#d94601; stroke-width:3.2; stroke-opacity:1"/>
<line clip-path="url(#clip802)" x1="729.245" y1="454.162" x2="729.245" y2="470.162" style="stroke:#d94601; stroke-width:3.2; stroke-opacity:1"/>
<line clip-path="url(#clip802)" x1="729.245" y1="454.162" x2="745.245" y2="454.162" style="stroke:#d94601; stroke-width:3.2; stroke-opacity:1"/>
<line clip-path="url(#clip802)" x1="1120.45" y1="272.793" x2="1120.45" y2="256.793" style="stroke:#d94601; stroke-width:3.2; stroke-opacity:1"/>
<line clip-path="url(#clip802)" x1="1120.45" y1="272.793" x2="1104.45" y2="272.793" style="stroke:#d94601; stroke-width:3.2; stroke-opacity:1"/>
<line clip-path="url(#clip802)" x1="1120.45" y1="272.793" x2="1120.45" y2="288.793" style="stroke:#d94601; stroke-width:3.2; stroke-opacity:1"/>
<line clip-path="url(#clip802)" x1="1120.45" y1="272.793" x2="1136.45" y2="272.793" style="stroke:#d94601; stroke-width:3.2; stroke-opacity:1"/>
<line clip-path="url(#clip802)" x1="1511.66" y1="177.105" x2="1511.66" y2="161.105" style="stroke:#d94601; stroke-width:3.2; stroke-opacity:1"/>
<line clip-path="url(#clip802)" x1="1511.66" y1="177.105" x2="1495.66" y2="177.105" style="stroke:#d94601; stroke-width:3.2; stroke-opacity:1"/>
<line clip-path="url(#clip802)" x1="1511.66" y1="177.105" x2="1511.66" y2="193.105" style="stroke:#d94601; stroke-width:3.2; stroke-opacity:1"/>
<line clip-path="url(#clip802)" x1="1511.66" y1="177.105" x2="1527.66" y2="177.105" style="stroke:#d94601; stroke-width:3.2; stroke-opacity:1"/>
<line clip-path="url(#clip802)" x1="1902.87" y1="126.447" x2="1902.87" y2="110.447" style="stroke:#d94601; stroke-width:3.2; stroke-opacity:1"/>
<line clip-path="url(#clip802)" x1="1902.87" y1="126.447" x2="1886.87" y2="126.447" style="stroke:#d94601; stroke-width:3.2; stroke-opacity:1"/>
<line clip-path="url(#clip802)" x1="1902.87" y1="126.447" x2="1902.87" y2="142.447" style="stroke:#d94601; stroke-width:3.2; stroke-opacity:1"/>
<line clip-path="url(#clip802)" x1="1902.87" y1="126.447" x2="1918.87" y2="126.447" style="stroke:#d94601; stroke-width:3.2; stroke-opacity:1"/>
<line clip-path="url(#clip802)" x1="2294.07" y1="86.1857" x2="2294.07" y2="70.1857" style="stroke:#d94601; stroke-width:3.2; stroke-opacity:1"/>
<line clip-path="url(#clip802)" x1="2294.07" y1="86.1857" x2="2278.07" y2="86.1857" style="stroke:#d94601; stroke-width:3.2; stroke-opacity:1"/>
<line clip-path="url(#clip802)" x1="2294.07" y1="86.1857" x2="2294.07" y2="102.186" style="stroke:#d94601; stroke-width:3.2; stroke-opacity:1"/>
<line clip-path="url(#clip802)" x1="2294.07" y1="86.1857" x2="2310.07" y2="86.1857" style="stroke:#d94601; stroke-width:3.2; stroke-opacity:1"/>
<path clip-path="url(#clip800)" d="M348.47 196.789 L778.13 196.789 L778.13 93.1086 L348.47 93.1086  Z" fill="#ffffff" fill-rule="evenodd" fill-opacity="1"/>
<polyline clip-path="url(#clip800)" style="stroke:#000000; stroke-linecap:round; stroke-linejoin:round; stroke-width:4; stroke-opacity:1; fill:none" points="348.47,196.789 778.13,196.789 778.13,93.1086 348.47,93.1086 348.47,196.789 "/>
<polyline clip-path="url(#clip800)" style="stroke:#d94601; stroke-linecap:round; stroke-linejoin:round; stroke-width:4; stroke-opacity:1; fill:none" points="371.508,144.949 509.734,144.949 "/>
<line clip-path="url(#clip800)" x1="440.621" y1="144.949" x2="440.621" y2="123.617" style="stroke:#d94601; stroke-width:4.55111; stroke-opacity:1"/>
<line clip-path="url(#clip800)" x1="440.621" y1="144.949" x2="419.29" y2="144.949" style="stroke:#d94601; stroke-width:4.55111; stroke-opacity:1"/>
<line clip-path="url(#clip800)" x1="440.621" y1="144.949" x2="440.621" y2="166.28" style="stroke:#d94601; stroke-width:4.55111; stroke-opacity:1"/>
<line clip-path="url(#clip800)" x1="440.621" y1="144.949" x2="461.952" y2="144.949" style="stroke:#d94601; stroke-width:4.55111; stroke-opacity:1"/>
<path clip-path="url(#clip800)" d="M565.4 122.039 Q565.4 122.484 565.306 122.859 L563.994 131.197 Q563.924 131.83 563.783 132.064 Q563.666 132.298 563.292 132.298 Q562.706 132.298 562.706 131.689 Q562.706 131.338 562.847 130.776 Q563.245 128.129 563.245 126.934 Q563.245 126.138 563.081 125.552 Q562.94 124.943 562.706 124.522 Q562.495 124.1 562.003 123.819 Q561.511 123.538 561.043 123.374 Q560.575 123.21 559.731 123.14 Q558.888 123.046 558.162 123.023 Q557.436 122.999 556.241 122.999 Q553.642 122.999 553.22 123.093 Q552.775 123.21 552.541 123.561 Q552.33 123.889 552.096 124.873 L545.725 150.333 L545.537 151.34 Q545.537 151.903 545.889 152.09 Q546.24 152.277 547.317 152.394 Q548.863 152.512 550.386 152.512 Q550.433 152.512 550.526 152.512 Q551.042 152.512 551.252 152.535 Q551.463 152.535 551.674 152.582 Q551.885 152.629 551.932 152.746 Q552.002 152.84 552.002 153.027 Q552.002 153.472 551.815 153.706 Q551.627 153.917 551.44 153.964 Q551.276 153.987 550.948 153.987 Q550.292 153.987 548.887 153.94 Q547.481 153.894 546.779 153.894 L542.797 153.847 L538.721 153.894 Q538.089 153.894 536.754 153.94 Q535.419 153.987 534.786 153.987 Q533.967 153.987 533.967 153.402 Q533.967 152.746 534.271 152.629 Q534.599 152.512 535.981 152.512 Q537.925 152.512 538.979 152.418 Q540.033 152.324 540.595 151.996 Q541.181 151.668 541.345 151.34 Q541.509 150.989 541.696 150.193 L548.137 124.592 Q548.325 124.03 548.325 123.585 Q548.325 123.351 548.254 123.257 Q548.208 123.163 547.903 123.093 Q547.599 122.999 546.966 122.999 L545.092 122.999 Q543.172 122.999 541.977 123.093 Q540.806 123.163 539.682 123.515 Q538.581 123.866 537.925 124.358 Q537.293 124.85 536.59 125.857 Q535.887 126.864 535.372 128.082 Q534.88 129.3 534.177 131.291 Q533.943 131.947 533.803 132.134 Q533.686 132.298 533.358 132.298 Q533.123 132.298 532.936 132.157 Q532.772 131.994 532.772 131.783 Q533.006 131.01 533.053 130.916 L535.934 122.461 Q536.168 121.781 536.379 121.664 Q536.613 121.524 537.48 121.524 L564.088 121.524 Q564.51 121.524 564.65 121.524 Q564.791 121.524 565.025 121.571 Q565.259 121.617 565.329 121.735 Q565.4 121.852 565.4 122.039 Z" fill="#000000" fill-rule="nonzero" fill-opacity="1" /><path clip-path="url(#clip800)" d="M570.189 154.623 L570.189 153.573 L572.829 153.573 L572.829 149.72 Q572.829 147.228 574.436 145.802 Q576.059 144.375 578.043 144.375 Q579.354 144.375 580.207 145.08 Q581.059 145.785 581.059 146.736 Q581.059 147.376 580.666 147.802 Q580.289 148.212 579.584 148.212 Q578.912 148.212 578.518 147.786 Q578.141 147.359 578.141 146.769 Q578.141 145.687 579.141 145.359 Q578.633 145.129 578.043 145.113 Q576.829 145.113 575.878 146.359 Q574.944 147.605 574.944 149.687 L574.944 153.573 L578.879 153.573 L578.879 154.623 L575.059 154.623 L575.059 165.427 Q575.059 166.395 575.452 166.706 Q575.862 167.018 577.6 167.018 L578.305 167.018 L578.305 168.051 Q576.96 167.952 574.042 167.952 Q573.632 167.952 572.993 167.969 Q572.37 167.985 571.517 168.018 Q570.681 168.051 570.222 168.051 L570.222 167.018 Q572.009 167.018 572.419 166.805 Q572.829 166.575 572.829 165.493 L572.829 154.623 L570.189 154.623 Z" fill="#000000" fill-rule="nonzero" fill-opacity="1" /><path clip-path="url(#clip800)" d="M587.338 148.108 L592.222 148.108 L592.222 152.089 L588.426 159.496 L585.44 159.496 L587.338 152.089 L587.338 148.108 Z" fill="#000000" fill-rule="nonzero" fill-opacity="1" /><path clip-path="url(#clip800)" d="M636.574 133.038 Q638.171 130.168 640.393 128.802 Q642.616 127.436 645.625 127.436 Q649.676 127.436 651.875 130.284 Q654.074 133.108 654.074 138.339 L654.074 153.987 L649.791 153.987 L649.791 138.478 Q649.791 134.751 648.472 132.946 Q647.153 131.14 644.444 131.14 Q641.134 131.14 639.213 133.339 Q637.291 135.538 637.291 139.335 L637.291 153.987 L633.009 153.987 L633.009 138.478 Q633.009 134.728 631.69 132.946 Q630.37 131.14 627.616 131.14 Q624.352 131.14 622.43 133.362 Q620.509 135.561 620.509 139.335 L620.509 153.987 L616.227 153.987 L616.227 128.061 L620.509 128.061 L620.509 132.089 Q621.967 129.705 624.004 128.571 Q626.042 127.436 628.842 127.436 Q631.666 127.436 633.634 128.872 Q635.625 130.307 636.574 133.038 Z" fill="#000000" fill-rule="nonzero" fill-opacity="1" /><path clip-path="url(#clip800)" d="M672.615 131.048 Q669.189 131.048 667.199 133.733 Q665.208 136.395 665.208 141.047 Q665.208 145.7 667.176 148.385 Q669.166 151.047 672.615 151.047 Q676.018 151.047 678.009 148.362 Q680 145.677 680 141.047 Q680 136.441 678.009 133.756 Q676.018 131.048 672.615 131.048 M672.615 127.436 Q678.171 127.436 681.342 131.048 Q684.513 134.659 684.513 141.047 Q684.513 147.413 681.342 151.047 Q678.171 154.659 672.615 154.659 Q667.037 154.659 663.865 151.047 Q660.717 147.413 660.717 141.047 Q660.717 134.659 663.865 131.048 Q667.037 127.436 672.615 127.436 Z" fill="#000000" fill-rule="nonzero" fill-opacity="1" /><path clip-path="url(#clip800)" d="M708.634 131.997 L708.634 117.969 L712.893 117.969 L712.893 153.987 L708.634 153.987 L708.634 150.098 Q707.291 152.413 705.231 153.547 Q703.194 154.659 700.324 154.659 Q695.624 154.659 692.662 150.909 Q689.722 147.159 689.722 141.047 Q689.722 134.936 692.662 131.186 Q695.624 127.436 700.324 127.436 Q703.194 127.436 705.231 128.571 Q707.291 129.682 708.634 131.997 M694.12 141.047 Q694.12 145.747 696.041 148.432 Q697.986 151.094 701.365 151.094 Q704.745 151.094 706.689 148.432 Q708.634 145.747 708.634 141.047 Q708.634 136.348 706.689 133.686 Q704.745 131.001 701.365 131.001 Q697.986 131.001 696.041 133.686 Q694.12 136.348 694.12 141.047 Z" fill="#000000" fill-rule="nonzero" fill-opacity="1" /><path clip-path="url(#clip800)" d="M743.842 139.96 L743.842 142.043 L724.259 142.043 Q724.536 146.441 726.897 148.756 Q729.282 151.047 733.518 151.047 Q735.971 151.047 738.263 150.446 Q740.578 149.844 742.846 148.64 L742.846 152.668 Q740.555 153.64 738.147 154.149 Q735.74 154.659 733.263 154.659 Q727.059 154.659 723.425 151.047 Q719.814 147.436 719.814 141.279 Q719.814 134.913 723.24 131.186 Q726.689 127.436 732.522 127.436 Q737.754 127.436 740.786 130.816 Q743.842 134.173 743.842 139.96 M739.583 138.71 Q739.536 135.214 737.615 133.131 Q735.717 131.048 732.569 131.048 Q729.004 131.048 726.851 133.061 Q724.722 135.075 724.397 138.733 L739.583 138.71 Z" fill="#000000" fill-rule="nonzero" fill-opacity="1" /><path clip-path="url(#clip800)" d="M750.833 117.969 L755.092 117.969 L755.092 153.987 L750.833 153.987 L750.833 117.969 Z" fill="#000000" fill-rule="nonzero" fill-opacity="1" /></svg>
