<?xml version="1.0" encoding="utf-8"?>
<svg xmlns="http://www.w3.org/2000/svg" xmlns:xlink="http://www.w3.org/1999/xlink" width="400" height="300" viewBox="0 0 1600 1200">
<defs>
  <clipPath id="clip820">
    <rect x="0" y="0" width="1600" height="1200"/>
  </clipPath>
</defs>
<path clip-path="url(#clip820)" d="M0 1200 L1600 1200 L1600 0 L0 0  Z" fill="#ffffff" fill-rule="evenodd" fill-opacity="1"/>
<defs>
  <clipPath id="clip821">
    <rect x="240" y="47" width="1314" height="971"/>
  </clipPath>
</defs>
<path clip-path="url(#clip820)" d="M240.075 1016.92 L1552.76 1016.92 L1552.76 47.2441 L240.075 47.2441  Z" fill="#ffffff" fill-rule="evenodd" fill-opacity="1"/>
<polyline clip-path="url(#clip821)" style="stroke:#000000; stroke-linecap:round; stroke-linejoin:round; stroke-width:2; stroke-opacity:0.1; fill:none" points="277.226,1016.92 277.226,47.2441 "/>
<polyline clip-path="url(#clip821)" style="stroke:#000000; stroke-linecap:round; stroke-linejoin:round; stroke-width:2; stroke-opacity:0.1; fill:none" points="503.198,1016.92 503.198,47.2441 "/>
<polyline clip-path="url(#clip821)" style="stroke:#000000; stroke-linecap:round; stroke-linejoin:round; stroke-width:2; stroke-opacity:0.1; fill:none" points="729.17,1016.92 729.17,47.2441 "/>
<polyline clip-path="url(#clip821)" style="stroke:#000000; stroke-linecap:round; stroke-linejoin:round; stroke-width:2; stroke-opacity:0.1; fill:none" points="955.142,1016.92 955.142,47.2441 "/>
<polyline clip-path="url(#clip821)" style="stroke:#000000; stroke-linecap:round; stroke-linejoin:round; stroke-width:2; stroke-opacity:0.1; fill:none" points="1181.11,1016.92 1181.11,47.2441 "/>
<polyline clip-path="url(#clip821)" style="stroke:#000000; stroke-linecap:round; stroke-linejoin:round; stroke-width:2; stroke-opacity:0.1; fill:none" points="1407.09,1016.92 1407.09,47.2441 "/>
<polyline clip-path="url(#clip821)" style="stroke:#000000; stroke-linecap:round; stroke-linejoin:round; stroke-width:2; stroke-opacity:0.1; fill:none" points="240.075,989.476 1552.76,989.476 "/>
<polyline clip-path="url(#clip821)" style="stroke:#000000; stroke-linecap:round; stroke-linejoin:round; stroke-width:2; stroke-opacity:0.1; fill:none" points="240.075,775.741 1552.76,775.741 "/>
<polyline clip-path="url(#clip821)" style="stroke:#000000; stroke-linecap:round; stroke-linejoin:round; stroke-width:2; stroke-opacity:0.1; fill:none" points="240.075,562.005 1552.76,562.005 "/>
<polyline clip-path="url(#clip821)" style="stroke:#000000; stroke-linecap:round; stroke-linejoin:round; stroke-width:2; stroke-opacity:0.1; fill:none" points="240.075,348.269 1552.76,348.269 "/>
<polyline clip-path="url(#clip821)" style="stroke:#000000; stroke-linecap:round; stroke-linejoin:round; stroke-width:2; stroke-opacity:0.1; fill:none" points="240.075,134.534 1552.76,134.534 "/>
<polyline clip-path="url(#clip820)" style="stroke:#000000; stroke-linecap:round; stroke-linejoin:round; stroke-width:4; stroke-opacity:1; fill:none" points="240.075,1016.92 1552.76,1016.92 "/>
<polyline clip-path="url(#clip820)" style="stroke:#000000; stroke-linecap:round; stroke-linejoin:round; stroke-width:4; stroke-opacity:1; fill:none" points="277.226,1016.92 277.226,998.022 "/>
<polyline clip-path="url(#clip820)" style="stroke:#000000; stroke-linecap:round; stroke-linejoin:round; stroke-width:4; stroke-opacity:1; fill:none" points="503.198,1016.92 503.198,998.022 "/>
<polyline clip-path="url(#clip820)" style="stroke:#000000; stroke-linecap:round; stroke-linejoin:round; stroke-width:4; stroke-opacity:1; fill:none" points="729.17,1016.92 729.17,998.022 "/>
<polyline clip-path="url(#clip820)" style="stroke:#000000; stroke-linecap:round; stroke-linejoin:round; stroke-width:4; stroke-opacity:1; fill:none" points="955.142,1016.92 955.142,998.022 "/>
<polyline clip-path="url(#clip820)" style="stroke:#000000; stroke-linecap:round; stroke-linejoin:round; stroke-width:4; stroke-opacity:1; fill:none" points="1181.11,1016.92 1181.11,998.022 "/>
<polyline clip-path="url(#clip820)" style="stroke:#000000; stroke-linecap:round; stroke-linejoin:round; stroke-width:4; stroke-opacity:1; fill:none" points="1407.09,1016.92 1407.09,998.022 "/>
<path clip-path="url(#clip820)" d="M254.61 1041.44 Q250.999 1041.44 249.171 1045 Q247.365 1048.54 247.365 1055.67 Q247.365 1062.78 249.171 1066.35 Q250.999 1069.89 254.61 1069.89 Q258.245 1069.89 260.05 1066.35 Q261.879 1062.78 261.879 1055.67 Q261.879 1048.54 260.05 1045 Q258.245 1041.44 254.61 1041.44 M254.61 1037.73 Q260.421 1037.73 263.476 1042.34 Q266.555 1046.92 266.555 1055.67 Q266.555 1064.4 263.476 1069.01 Q260.421 1073.59 254.61 1073.59 Q248.8 1073.59 245.722 1069.01 Q242.666 1064.4 242.666 1055.67 Q242.666 1046.92 245.722 1042.34 Q248.8 1037.73 254.61 1037.73 Z" fill="#000000" fill-rule="nonzero" fill-opacity="1" /><path clip-path="url(#clip820)" d="M274.772 1067.04 L279.657 1067.04 L279.657 1072.92 L274.772 1072.92 L274.772 1067.04 Z" fill="#000000" fill-rule="nonzero" fill-opacity="1" /><path clip-path="url(#clip820)" d="M299.842 1041.44 Q296.231 1041.44 294.402 1045 Q292.596 1048.54 292.596 1055.67 Q292.596 1062.78 294.402 1066.35 Q296.231 1069.89 299.842 1069.89 Q303.476 1069.89 305.281 1066.35 Q307.11 1062.78 307.11 1055.67 Q307.11 1048.54 305.281 1045 Q303.476 1041.44 299.842 1041.44 M299.842 1037.73 Q305.652 1037.73 308.707 1042.34 Q311.786 1046.92 311.786 1055.67 Q311.786 1064.4 308.707 1069.01 Q305.652 1073.59 299.842 1073.59 Q294.031 1073.59 290.953 1069.01 Q287.897 1064.4 287.897 1055.67 Q287.897 1046.92 290.953 1042.34 Q294.031 1037.73 299.842 1037.73 Z" fill="#000000" fill-rule="nonzero" fill-opacity="1" /><path clip-path="url(#clip820)" d="M474.934 1068.98 L491.254 1068.98 L491.254 1072.92 L469.309 1072.92 L469.309 1068.98 Q471.971 1066.23 476.555 1061.6 Q481.161 1056.95 482.342 1055.61 Q484.587 1053.08 485.467 1051.35 Q486.369 1049.59 486.369 1047.9 Q486.369 1045.14 484.425 1043.41 Q482.504 1041.67 479.402 1041.67 Q477.203 1041.67 474.749 1042.43 Q472.318 1043.2 469.541 1044.75 L469.541 1040.03 Q472.365 1038.89 474.818 1038.31 Q477.272 1037.73 479.309 1037.73 Q484.68 1037.73 487.874 1040.42 Q491.068 1043.11 491.068 1047.6 Q491.068 1049.73 490.258 1051.65 Q489.471 1053.54 487.365 1056.14 Q486.786 1056.81 483.684 1060.03 Q480.582 1063.22 474.934 1068.98 Z" fill="#000000" fill-rule="nonzero" fill-opacity="1" /><path clip-path="url(#clip820)" d="M501.068 1067.04 L505.953 1067.04 L505.953 1072.92 L501.068 1072.92 L501.068 1067.04 Z" fill="#000000" fill-rule="nonzero" fill-opacity="1" /><path clip-path="url(#clip820)" d="M516.184 1038.36 L534.54 1038.36 L534.54 1042.3 L520.466 1042.3 L520.466 1050.77 Q521.485 1050.42 522.503 1050.26 Q523.522 1050.07 524.54 1050.07 Q530.327 1050.07 533.707 1053.24 Q537.087 1056.42 537.087 1061.83 Q537.087 1067.41 533.614 1070.51 Q530.142 1073.59 523.823 1073.59 Q521.647 1073.59 519.378 1073.22 Q517.133 1072.85 514.726 1072.11 L514.726 1067.41 Q516.809 1068.54 519.031 1069.1 Q521.253 1069.66 523.73 1069.66 Q527.735 1069.66 530.073 1067.55 Q532.411 1065.44 532.411 1061.83 Q532.411 1058.22 530.073 1056.11 Q527.735 1054.01 523.73 1054.01 Q521.855 1054.01 519.98 1054.42 Q518.128 1054.84 516.184 1055.72 L516.184 1038.36 Z" fill="#000000" fill-rule="nonzero" fill-opacity="1" /><path clip-path="url(#clip820)" d="M696.334 1038.36 L714.691 1038.36 L714.691 1042.3 L700.617 1042.3 L700.617 1050.77 Q701.635 1050.42 702.654 1050.26 Q703.672 1050.07 704.691 1050.07 Q710.478 1050.07 713.857 1053.24 Q717.237 1056.42 717.237 1061.83 Q717.237 1067.41 713.765 1070.51 Q710.293 1073.59 703.973 1073.59 Q701.797 1073.59 699.529 1073.22 Q697.283 1072.85 694.876 1072.11 L694.876 1067.41 Q696.959 1068.54 699.182 1069.1 Q701.404 1069.66 703.881 1069.66 Q707.885 1069.66 710.223 1067.55 Q712.561 1065.44 712.561 1061.83 Q712.561 1058.22 710.223 1056.11 Q707.885 1054.01 703.881 1054.01 Q702.006 1054.01 700.131 1054.42 Q698.279 1054.84 696.334 1055.72 L696.334 1038.36 Z" fill="#000000" fill-rule="nonzero" fill-opacity="1" /><path clip-path="url(#clip820)" d="M726.45 1067.04 L731.334 1067.04 L731.334 1072.92 L726.45 1072.92 L726.45 1067.04 Z" fill="#000000" fill-rule="nonzero" fill-opacity="1" /><path clip-path="url(#clip820)" d="M751.519 1041.44 Q747.908 1041.44 746.08 1045 Q744.274 1048.54 744.274 1055.67 Q744.274 1062.78 746.08 1066.35 Q747.908 1069.89 751.519 1069.89 Q755.154 1069.89 756.959 1066.35 Q758.788 1062.78 758.788 1055.67 Q758.788 1048.54 756.959 1045 Q755.154 1041.44 751.519 1041.44 M751.519 1037.73 Q757.329 1037.73 760.385 1042.34 Q763.464 1046.92 763.464 1055.67 Q763.464 1064.4 760.385 1069.01 Q757.329 1073.59 751.519 1073.59 Q745.709 1073.59 742.63 1069.01 Q739.575 1064.4 739.575 1055.67 Q739.575 1046.92 742.63 1042.34 Q745.709 1037.73 751.519 1037.73 Z" fill="#000000" fill-rule="nonzero" fill-opacity="1" /><path clip-path="url(#clip820)" d="M921.461 1038.36 L943.684 1038.36 L943.684 1040.35 L931.137 1072.92 L926.253 1072.92 L938.059 1042.3 L921.461 1042.3 L921.461 1038.36 Z" fill="#000000" fill-rule="nonzero" fill-opacity="1" /><path clip-path="url(#clip820)" d="M952.804 1067.04 L957.688 1067.04 L957.688 1072.92 L952.804 1072.92 L952.804 1067.04 Z" fill="#000000" fill-rule="nonzero" fill-opacity="1" /><path clip-path="url(#clip820)" d="M967.92 1038.36 L986.276 1038.36 L986.276 1042.3 L972.202 1042.3 L972.202 1050.77 Q973.22 1050.42 974.239 1050.26 Q975.257 1050.07 976.276 1050.07 Q982.063 1050.07 985.443 1053.24 Q988.822 1056.42 988.822 1061.83 Q988.822 1067.41 985.35 1070.51 Q981.878 1073.59 975.558 1073.59 Q973.382 1073.59 971.114 1073.22 Q968.869 1072.85 966.461 1072.11 L966.461 1067.41 Q968.545 1068.54 970.767 1069.1 Q972.989 1069.66 975.466 1069.66 Q979.47 1069.66 981.808 1067.55 Q984.146 1065.44 984.146 1061.83 Q984.146 1058.22 981.808 1056.11 Q979.47 1054.01 975.466 1054.01 Q973.591 1054.01 971.716 1054.42 Q969.864 1054.84 967.92 1055.72 L967.92 1038.36 Z" fill="#000000" fill-rule="nonzero" fill-opacity="1" /><path clip-path="url(#clip820)" d="M1133.19 1068.98 L1140.82 1068.98 L1140.82 1042.62 L1132.51 1044.29 L1132.51 1040.03 L1140.78 1038.36 L1145.45 1038.36 L1145.45 1068.98 L1153.09 1068.98 L1153.09 1072.92 L1133.19 1072.92 L1133.19 1068.98 Z" fill="#000000" fill-rule="nonzero" fill-opacity="1" /><path clip-path="url(#clip820)" d="M1172.54 1041.44 Q1168.93 1041.44 1167.1 1045 Q1165.29 1048.54 1165.29 1055.67 Q1165.29 1062.78 1167.1 1066.35 Q1168.93 1069.89 1172.54 1069.89 Q1176.17 1069.89 1177.98 1066.35 Q1179.81 1062.78 1179.81 1055.67 Q1179.81 1048.54 1177.98 1045 Q1176.17 1041.44 1172.54 1041.44 M1172.54 1037.73 Q1178.35 1037.73 1181.4 1042.34 Q1184.48 1046.92 1184.48 1055.67 Q1184.48 1064.4 1181.4 1069.01 Q1178.35 1073.59 1172.54 1073.59 Q1166.73 1073.59 1163.65 1069.01 Q1160.59 1064.4 1160.59 1055.67 Q1160.59 1046.92 1163.65 1042.34 Q1166.73 1037.73 1172.54 1037.73 Z" fill="#000000" fill-rule="nonzero" fill-opacity="1" /><path clip-path="url(#clip820)" d="M1192.7 1067.04 L1197.58 1067.04 L1197.58 1072.92 L1192.7 1072.92 L1192.7 1067.04 Z" fill="#000000" fill-rule="nonzero" fill-opacity="1" /><path clip-path="url(#clip820)" d="M1217.77 1041.44 Q1214.16 1041.44 1212.33 1045 Q1210.52 1048.54 1210.52 1055.67 Q1210.52 1062.78 1212.33 1066.35 Q1214.16 1069.89 1217.77 1069.89 Q1221.4 1069.89 1223.21 1066.35 Q1225.04 1062.78 1225.04 1055.67 Q1225.04 1048.54 1223.21 1045 Q1221.4 1041.44 1217.77 1041.44 M1217.77 1037.73 Q1223.58 1037.73 1226.63 1042.34 Q1229.71 1046.92 1229.71 1055.67 Q1229.71 1064.4 1226.63 1069.01 Q1223.58 1073.59 1217.77 1073.59 Q1211.96 1073.59 1208.88 1069.01 Q1205.82 1064.4 1205.82 1055.67 Q1205.82 1046.92 1208.88 1042.34 Q1211.96 1037.73 1217.77 1037.73 Z" fill="#000000" fill-rule="nonzero" fill-opacity="1" /><path clip-path="url(#clip820)" d="M1359.66 1068.98 L1367.29 1068.98 L1367.29 1042.62 L1358.98 1044.29 L1358.98 1040.03 L1367.25 1038.36 L1371.92 1038.36 L1371.92 1068.98 L1379.56 1068.98 L1379.56 1072.92 L1359.66 1072.92 L1359.66 1068.98 Z" fill="#000000" fill-rule="nonzero" fill-opacity="1" /><path clip-path="url(#clip820)" d="M1393.03 1068.98 L1409.35 1068.98 L1409.35 1072.92 L1387.41 1072.92 L1387.41 1068.98 Q1390.07 1066.23 1394.66 1061.6 Q1399.26 1056.95 1400.44 1055.61 Q1402.69 1053.08 1403.57 1051.35 Q1404.47 1049.59 1404.47 1047.9 Q1404.47 1045.14 1402.53 1043.41 Q1400.6 1041.67 1397.5 1041.67 Q1395.3 1041.67 1392.85 1042.43 Q1390.42 1043.2 1387.64 1044.75 L1387.64 1040.03 Q1390.47 1038.89 1392.92 1038.31 Q1395.37 1037.73 1397.41 1037.73 Q1402.78 1037.73 1405.97 1040.42 Q1409.17 1043.11 1409.17 1047.6 Q1409.17 1049.73 1408.36 1051.65 Q1407.57 1053.54 1405.47 1056.14 Q1404.89 1056.81 1401.78 1060.03 Q1398.68 1063.22 1393.03 1068.98 Z" fill="#000000" fill-rule="nonzero" fill-opacity="1" /><path clip-path="url(#clip820)" d="M1419.17 1067.04 L1424.05 1067.04 L1424.05 1072.92 L1419.17 1072.92 L1419.17 1067.04 Z" fill="#000000" fill-rule="nonzero" fill-opacity="1" /><path clip-path="url(#clip820)" d="M1434.28 1038.36 L1452.64 1038.36 L1452.64 1042.3 L1438.57 1042.3 L1438.57 1050.77 Q1439.59 1050.42 1440.6 1050.26 Q1441.62 1050.07 1442.64 1050.07 Q1448.43 1050.07 1451.81 1053.24 Q1455.19 1056.42 1455.19 1061.83 Q1455.19 1067.41 1451.72 1070.51 Q1448.24 1073.59 1441.92 1073.59 Q1439.75 1073.59 1437.48 1073.22 Q1435.23 1072.85 1432.83 1072.11 L1432.83 1067.41 Q1434.91 1068.54 1437.13 1069.1 Q1439.35 1069.66 1441.83 1069.66 Q1445.84 1069.66 1448.17 1067.55 Q1450.51 1065.44 1450.51 1061.83 Q1450.51 1058.22 1448.17 1056.11 Q1445.84 1054.01 1441.83 1054.01 Q1439.96 1054.01 1438.08 1054.42 Q1436.23 1054.84 1434.28 1055.72 L1434.28 1038.36 Z" fill="#000000" fill-rule="nonzero" fill-opacity="1" /><path clip-path="url(#clip820)" d="M749.511 1102.26 L789.71 1102.26 L789.71 1107.67 L772.841 1107.67 L772.841 1149.78 L766.38 1149.78 L766.38 1107.67 L749.511 1107.67 L749.511 1102.26 Z" fill="#000000" fill-rule="nonzero" fill-opacity="1" /><path clip-path="url(#clip820)" d="M793.657 1114.14 L799.513 1114.14 L799.513 1149.78 L793.657 1149.78 L793.657 1114.14 M793.657 1100.26 L799.513 1100.26 L799.513 1107.67 L793.657 1107.67 L793.657 1100.26 Z" fill="#000000" fill-rule="nonzero" fill-opacity="1" /><path clip-path="url(#clip820)" d="M839.522 1120.98 Q841.718 1117.03 844.773 1115.15 Q847.829 1113.28 851.967 1113.28 Q857.537 1113.28 860.56 1117.19 Q863.584 1121.07 863.584 1128.27 L863.584 1149.78 L857.696 1149.78 L857.696 1128.46 Q857.696 1123.33 855.882 1120.85 Q854.067 1118.37 850.343 1118.37 Q845.792 1118.37 843.15 1121.39 Q840.508 1124.42 840.508 1129.64 L840.508 1149.78 L834.62 1149.78 L834.62 1128.46 Q834.62 1123.3 832.806 1120.85 Q830.992 1118.37 827.204 1118.37 Q822.716 1118.37 820.075 1121.42 Q817.433 1124.45 817.433 1129.64 L817.433 1149.78 L811.545 1149.78 L811.545 1114.14 L817.433 1114.14 L817.433 1119.67 Q819.438 1116.4 822.239 1114.84 Q825.04 1113.28 828.891 1113.28 Q832.774 1113.28 835.48 1115.25 Q838.217 1117.22 839.522 1120.98 Z" fill="#000000" fill-rule="nonzero" fill-opacity="1" /><path clip-path="url(#clip820)" d="M905.757 1130.5 L905.757 1133.36 L878.83 1133.36 Q879.212 1139.41 882.458 1142.59 Q885.737 1145.74 891.561 1145.74 Q894.935 1145.74 898.086 1144.91 Q901.269 1144.09 904.388 1142.43 L904.388 1147.97 Q901.237 1149.31 897.927 1150.01 Q894.617 1150.71 891.211 1150.71 Q882.681 1150.71 877.684 1145.74 Q872.719 1140.78 872.719 1132.31 Q872.719 1123.56 877.43 1118.43 Q882.172 1113.28 890.193 1113.28 Q897.386 1113.28 901.556 1117.92 Q905.757 1122.54 905.757 1130.5 M899.901 1128.78 Q899.837 1123.97 897.195 1121.11 Q894.585 1118.24 890.256 1118.24 Q885.355 1118.24 882.395 1121.01 Q879.467 1123.78 879.021 1128.81 L899.901 1128.78 Z" fill="#000000" fill-rule="nonzero" fill-opacity="1" /><path clip-path="url(#clip820)" d="M950.158 1100.32 Q945.893 1107.64 943.824 1114.8 Q941.755 1121.97 941.755 1129.32 Q941.755 1136.67 943.824 1143.9 Q945.925 1151.09 950.158 1158.38 L945.065 1158.38 Q940.291 1150.9 937.904 1143.67 Q935.548 1136.45 935.548 1129.32 Q935.548 1122.22 937.904 1115.03 Q940.259 1107.83 945.065 1100.32 L950.158 1100.32 Z" fill="#000000" fill-rule="nonzero" fill-opacity="1" /><path clip-path="url(#clip820)" d="M991.153 1128.27 L991.153 1149.78 L985.296 1149.78 L985.296 1128.46 Q985.296 1123.4 983.323 1120.88 Q981.35 1118.37 977.403 1118.37 Q972.661 1118.37 969.923 1121.39 Q967.186 1124.42 967.186 1129.64 L967.186 1149.78 L961.298 1149.78 L961.298 1100.26 L967.186 1100.26 L967.186 1119.67 Q969.287 1116.46 972.119 1114.87 Q974.984 1113.28 978.708 1113.28 Q984.851 1113.28 988.002 1117.1 Q991.153 1120.88 991.153 1128.27 Z" fill="#000000" fill-rule="nonzero" fill-opacity="1" /><path clip-path="url(#clip820)" d="M1023.49 1119.61 Q1022.5 1119.04 1021.33 1118.78 Q1020.18 1118.5 1018.78 1118.5 Q1013.81 1118.5 1011.14 1121.74 Q1008.5 1124.96 1008.5 1131.01 L1008.5 1149.78 L1002.61 1149.78 L1002.61 1114.14 L1008.5 1114.14 L1008.5 1119.67 Q1010.35 1116.43 1013.31 1114.87 Q1016.27 1113.28 1020.5 1113.28 Q1021.1 1113.28 1021.84 1113.37 Q1022.57 1113.44 1023.46 1113.59 L1023.49 1119.61 Z" fill="#000000" fill-rule="nonzero" fill-opacity="1" /><path clip-path="url(#clip820)" d="M1028.71 1100.32 L1033.8 1100.32 Q1038.58 1107.83 1040.93 1115.03 Q1043.32 1122.22 1043.32 1129.32 Q1043.32 1136.45 1040.93 1143.67 Q1038.58 1150.9 1033.8 1158.38 L1028.71 1158.38 Q1032.94 1151.09 1035.01 1143.9 Q1037.11 1136.67 1037.11 1129.32 Q1037.11 1121.97 1035.01 1114.8 Q1032.94 1107.64 1028.71 1100.32 Z" fill="#000000" fill-rule="nonzero" fill-opacity="1" /><polyline clip-path="url(#clip820)" style="stroke:#000000; stroke-linecap:round; stroke-linejoin:round; stroke-width:4; stroke-opacity:1; fill:none" points="240.075,1016.92 240.075,47.2441 "/>
<polyline clip-path="url(#clip820)" style="stroke:#000000; stroke-linecap:round; stroke-linejoin:round; stroke-width:4; stroke-opacity:1; fill:none" points="240.075,989.476 258.972,989.476 "/>
<polyline clip-path="url(#clip820)" style="stroke:#000000; stroke-linecap:round; stroke-linejoin:round; stroke-width:4; stroke-opacity:1; fill:none" points="240.075,775.741 258.972,775.741 "/>
<polyline clip-path="url(#clip820)" style="stroke:#000000; stroke-linecap:round; stroke-linejoin:round; stroke-width:4; stroke-opacity:1; fill:none" points="240.075,562.005 258.972,562.005 "/>
<polyline clip-path="url(#clip820)" style="stroke:#000000; stroke-linecap:round; stroke-linejoin:round; stroke-width:4; stroke-opacity:1; fill:none" points="240.075,348.269 258.972,348.269 "/>
<polyline clip-path="url(#clip820)" style="stroke:#000000; stroke-linecap:round; stroke-linejoin:round; stroke-width:4; stroke-opacity:1; fill:none" points="240.075,134.534 258.972,134.534 "/>
<path clip-path="url(#clip820)" d="M124.2 989.928 L153.876 989.928 L153.876 993.863 L124.2 993.863 L124.2 989.928 Z" fill="#000000" fill-rule="nonzero" fill-opacity="1" /><path clip-path="url(#clip820)" d="M176.816 976.27 L165.01 994.719 L176.816 994.719 L176.816 976.27 M175.589 972.196 L181.468 972.196 L181.468 994.719 L186.399 994.719 L186.399 998.608 L181.468 998.608 L181.468 1006.76 L176.816 1006.76 L176.816 998.608 L161.214 998.608 L161.214 994.094 L175.589 972.196 Z" fill="#000000" fill-rule="nonzero" fill-opacity="1" /><path clip-path="url(#clip820)" d="M204.13 975.275 Q200.519 975.275 198.69 978.84 Q196.885 982.381 196.885 989.511 Q196.885 996.617 198.69 1000.18 Q200.519 1003.72 204.13 1003.72 Q207.765 1003.72 209.57 1000.18 Q211.399 996.617 211.399 989.511 Q211.399 982.381 209.57 978.84 Q207.765 975.275 204.13 975.275 M204.13 971.571 Q209.94 971.571 212.996 976.178 Q216.075 980.761 216.075 989.511 Q216.075 998.238 212.996 1002.84 Q209.94 1007.43 204.13 1007.43 Q198.32 1007.43 195.241 1002.84 Q192.186 998.238 192.186 989.511 Q192.186 980.761 195.241 976.178 Q198.32 971.571 204.13 971.571 Z" fill="#000000" fill-rule="nonzero" fill-opacity="1" /><path clip-path="url(#clip820)" d="M124.2 776.192 L153.876 776.192 L153.876 780.127 L124.2 780.127 L124.2 776.192 Z" fill="#000000" fill-rule="nonzero" fill-opacity="1" /><path clip-path="url(#clip820)" d="M167.996 789.085 L184.316 789.085 L184.316 793.021 L162.371 793.021 L162.371 789.085 Q165.033 786.331 169.617 781.701 Q174.223 777.048 175.404 775.706 Q177.649 773.183 178.529 771.447 Q179.431 769.687 179.431 767.998 Q179.431 765.243 177.487 763.507 Q175.566 761.771 172.464 761.771 Q170.265 761.771 167.811 762.535 Q165.38 763.299 162.603 764.849 L162.603 760.127 Q165.427 758.993 167.88 758.414 Q170.334 757.836 172.371 757.836 Q177.742 757.836 180.936 760.521 Q184.13 763.206 184.13 767.697 Q184.13 769.826 183.32 771.748 Q182.533 773.646 180.427 776.238 Q179.848 776.91 176.746 780.127 Q173.644 783.322 167.996 789.085 Z" fill="#000000" fill-rule="nonzero" fill-opacity="1" /><path clip-path="url(#clip820)" d="M204.13 761.539 Q200.519 761.539 198.69 765.104 Q196.885 768.646 196.885 775.775 Q196.885 782.882 198.69 786.447 Q200.519 789.988 204.13 789.988 Q207.765 789.988 209.57 786.447 Q211.399 782.882 211.399 775.775 Q211.399 768.646 209.57 765.104 Q207.765 761.539 204.13 761.539 M204.13 757.836 Q209.94 757.836 212.996 762.442 Q216.075 767.025 216.075 775.775 Q216.075 784.502 212.996 789.109 Q209.94 793.692 204.13 793.692 Q198.32 793.692 195.241 789.109 Q192.186 784.502 192.186 775.775 Q192.186 767.025 195.241 762.442 Q198.32 757.836 204.13 757.836 Z" fill="#000000" fill-rule="nonzero" fill-opacity="1" /><path clip-path="url(#clip820)" d="M204.13 547.804 Q200.519 547.804 198.69 551.368 Q196.885 554.91 196.885 562.04 Q196.885 569.146 198.69 572.711 Q200.519 576.253 204.13 576.253 Q207.765 576.253 209.57 572.711 Q211.399 569.146 211.399 562.04 Q211.399 554.91 209.57 551.368 Q207.765 547.804 204.13 547.804 M204.13 544.1 Q209.94 544.1 212.996 548.706 Q216.075 553.29 216.075 562.04 Q216.075 570.766 212.996 575.373 Q209.94 579.956 204.13 579.956 Q198.32 579.956 195.241 575.373 Q192.186 570.766 192.186 562.04 Q192.186 553.29 195.241 548.706 Q198.32 544.1 204.13 544.1 Z" fill="#000000" fill-rule="nonzero" fill-opacity="1" /><path clip-path="url(#clip820)" d="M167.996 361.614 L184.316 361.614 L184.316 365.549 L162.371 365.549 L162.371 361.614 Q165.033 358.86 169.617 354.23 Q174.223 349.577 175.404 348.235 Q177.649 345.711 178.529 343.975 Q179.431 342.216 179.431 340.526 Q179.431 337.772 177.487 336.036 Q175.566 334.3 172.464 334.3 Q170.265 334.3 167.811 335.063 Q165.38 335.827 162.603 337.378 L162.603 332.656 Q165.427 331.522 167.88 330.943 Q170.334 330.364 172.371 330.364 Q177.742 330.364 180.936 333.05 Q184.13 335.735 184.13 340.225 Q184.13 342.355 183.32 344.276 Q182.533 346.174 180.427 348.767 Q179.848 349.438 176.746 352.656 Q173.644 355.85 167.996 361.614 Z" fill="#000000" fill-rule="nonzero" fill-opacity="1" /><path clip-path="url(#clip820)" d="M204.13 334.068 Q200.519 334.068 198.69 337.633 Q196.885 341.174 196.885 348.304 Q196.885 355.411 198.69 358.975 Q200.519 362.517 204.13 362.517 Q207.765 362.517 209.57 358.975 Q211.399 355.411 211.399 348.304 Q211.399 341.174 209.57 337.633 Q207.765 334.068 204.13 334.068 M204.13 330.364 Q209.94 330.364 212.996 334.971 Q216.075 339.554 216.075 348.304 Q216.075 357.031 212.996 361.637 Q209.94 366.221 204.13 366.221 Q198.32 366.221 195.241 361.637 Q192.186 357.031 192.186 348.304 Q192.186 339.554 195.241 334.971 Q198.32 330.364 204.13 330.364 Z" fill="#000000" fill-rule="nonzero" fill-opacity="1" /><path clip-path="url(#clip820)" d="M176.816 121.328 L165.01 139.777 L176.816 139.777 L176.816 121.328 M175.589 117.254 L181.468 117.254 L181.468 139.777 L186.399 139.777 L186.399 143.666 L181.468 143.666 L181.468 151.814 L176.816 151.814 L176.816 143.666 L161.214 143.666 L161.214 139.152 L175.589 117.254 Z" fill="#000000" fill-rule="nonzero" fill-opacity="1" /><path clip-path="url(#clip820)" d="M204.13 120.332 Q200.519 120.332 198.69 123.897 Q196.885 127.439 196.885 134.568 Q196.885 141.675 198.69 145.24 Q200.519 148.781 204.13 148.781 Q207.765 148.781 209.57 145.24 Q211.399 141.675 211.399 134.568 Q211.399 127.439 209.57 123.897 Q207.765 120.332 204.13 120.332 M204.13 116.629 Q209.94 116.629 212.996 121.235 Q216.075 125.818 216.075 134.568 Q216.075 143.295 212.996 147.902 Q209.94 152.485 204.13 152.485 Q198.32 152.485 195.241 147.902 Q192.186 143.295 192.186 134.568 Q192.186 125.818 195.241 121.235 Q198.32 116.629 204.13 116.629 Z" fill="#000000" fill-rule="nonzero" fill-opacity="1" /><path clip-path="url(#clip820)" d="M38.4242 810.677 L38.4242 770.478 L43.835 770.478 L43.835 787.347 L85.9442 787.347 L85.9442 793.808 L43.835 793.808 L43.835 810.677 L38.4242 810.677 Z" fill="#000000" fill-rule="nonzero" fill-opacity="1" /><path clip-path="url(#clip820)" d="M66.6561 745.11 L69.5206 745.11 L69.5206 772.037 Q75.5681 771.655 78.7509 768.409 Q81.9019 765.13 81.9019 759.306 Q81.9019 755.932 81.0744 752.781 Q80.2469 749.598 78.5918 746.479 L84.1299 746.479 Q85.4667 749.63 86.167 752.94 Q86.8672 756.25 86.8672 759.656 Q86.8672 768.186 81.9019 773.183 Q76.9367 778.148 68.4703 778.148 Q59.7174 778.148 54.5931 773.438 Q49.4368 768.695 49.4368 760.674 Q49.4368 753.481 54.0838 749.312 Q58.6989 745.11 66.6561 745.11 M64.9373 750.967 Q60.1312 751.03 57.2666 753.672 Q54.4021 756.282 54.4021 760.611 Q54.4021 765.512 57.1712 768.472 Q59.9402 771.401 64.9692 771.846 L64.9373 750.967 Z" fill="#000000" fill-rule="nonzero" fill-opacity="1" /><path clip-path="url(#clip820)" d="M57.1393 707.744 Q53.1926 705.547 51.3147 702.492 Q49.4368 699.436 49.4368 695.299 Q49.4368 689.729 53.3517 686.705 Q57.2348 683.681 64.4281 683.681 L85.9442 683.681 L85.9442 689.57 L64.619 689.57 Q59.4946 689.57 57.012 691.384 Q54.5294 693.198 54.5294 696.922 Q54.5294 701.473 57.5531 704.115 Q60.5768 706.757 65.7967 706.757 L85.9442 706.757 L85.9442 712.645 L64.619 712.645 Q59.4628 712.645 57.012 714.459 Q54.5294 716.274 54.5294 720.061 Q54.5294 724.549 57.5849 727.191 Q60.6086 729.833 65.7967 729.833 L85.9442 729.833 L85.9442 735.721 L50.2962 735.721 L50.2962 729.833 L55.8344 729.833 Q52.556 727.827 50.9964 725.027 Q49.4368 722.226 49.4368 718.374 Q49.4368 714.491 51.4102 711.786 Q53.3836 709.049 57.1393 707.744 Z" fill="#000000" fill-rule="nonzero" fill-opacity="1" /><path clip-path="url(#clip820)" d="M80.597 666.335 L99.5031 666.335 L99.5031 672.223 L50.2962 672.223 L50.2962 666.335 L55.7071 666.335 Q52.5242 664.489 50.9964 661.688 Q49.4368 658.855 49.4368 654.94 Q49.4368 648.447 54.5931 644.405 Q59.7493 640.331 68.152 640.331 Q76.5547 640.331 81.711 644.405 Q86.8672 648.447 86.8672 654.94 Q86.8672 658.855 85.3394 661.688 Q83.7798 664.489 80.597 666.335 M68.152 646.41 Q61.6908 646.41 58.0305 649.084 Q54.3384 651.725 54.3384 656.372 Q54.3384 661.019 58.0305 663.693 Q61.6908 666.335 68.152 666.335 Q74.6132 666.335 78.3053 663.693 Q81.9656 661.019 81.9656 656.372 Q81.9656 651.725 78.3053 649.084 Q74.6132 646.41 68.152 646.41 Z" fill="#000000" fill-rule="nonzero" fill-opacity="1" /><path clip-path="url(#clip820)" d="M66.6561 600.131 L69.5206 600.131 L69.5206 627.058 Q75.5681 626.676 78.7509 623.43 Q81.9019 620.152 81.9019 614.327 Q81.9019 610.953 81.0744 607.802 Q80.2469 604.619 78.5918 601.5 L84.1299 601.5 Q85.4667 604.651 86.167 607.961 Q86.8672 611.271 86.8672 614.677 Q86.8672 623.207 81.9019 628.204 Q76.9367 633.169 68.4703 633.169 Q59.7174 633.169 54.5931 628.459 Q49.4368 623.716 49.4368 615.696 Q49.4368 608.502 54.0838 604.333 Q58.6989 600.131 66.6561 600.131 M64.9373 605.988 Q60.1312 606.051 57.2666 608.693 Q54.4021 611.303 54.4021 615.632 Q54.4021 620.533 57.1712 623.494 Q59.9402 626.422 64.9692 626.867 L64.9373 605.988 Z" fill="#000000" fill-rule="nonzero" fill-opacity="1" /><path clip-path="url(#clip820)" d="M55.7707 569.862 Q55.1978 570.849 54.9432 572.027 Q54.6567 573.173 54.6567 574.573 Q54.6567 579.538 57.9032 582.212 Q61.1179 584.854 67.1653 584.854 L85.9442 584.854 L85.9442 590.742 L50.2962 590.742 L50.2962 584.854 L55.8344 584.854 Q52.5879 583.008 51.0283 580.048 Q49.4368 577.088 49.4368 572.854 Q49.4368 572.25 49.5323 571.518 Q49.596 570.785 49.7551 569.894 L55.7707 569.862 Z" fill="#000000" fill-rule="nonzero" fill-opacity="1" /><path clip-path="url(#clip820)" d="M68.0247 547.519 Q68.0247 554.617 69.6479 557.354 Q71.2712 560.091 75.1861 560.091 Q78.3053 560.091 80.1514 558.054 Q81.9656 555.985 81.9656 552.452 Q81.9656 547.582 78.5281 544.654 Q75.0588 541.694 69.3297 541.694 L68.0247 541.694 L68.0247 547.519 M65.6057 535.838 L85.9442 535.838 L85.9442 541.694 L80.5333 541.694 Q83.7798 543.699 85.3394 546.691 Q86.8672 549.683 86.8672 554.012 Q86.8672 559.486 83.8116 562.733 Q80.7243 565.948 75.5681 565.948 Q69.5525 565.948 66.4969 561.937 Q63.4414 557.895 63.4414 549.906 L63.4414 541.694 L62.8685 541.694 Q58.8262 541.694 56.6301 544.368 Q54.4021 547.01 54.4021 551.816 Q54.4021 554.871 55.1341 557.768 Q55.8662 560.664 57.3303 563.338 L51.9195 563.338 Q50.6781 560.123 50.0734 557.099 Q49.4368 554.075 49.4368 551.211 Q49.4368 543.477 53.4472 539.657 Q57.4576 535.838 65.6057 535.838 Z" fill="#000000" fill-rule="nonzero" fill-opacity="1" /><path clip-path="url(#clip820)" d="M40.1747 517.982 L50.2962 517.982 L50.2962 505.919 L54.8477 505.919 L54.8477 517.982 L74.1994 517.982 Q78.5599 517.982 79.8013 516.804 Q81.0426 515.595 81.0426 511.935 L81.0426 505.919 L85.9442 505.919 L85.9442 511.935 Q85.9442 518.714 83.4297 521.292 Q80.8834 523.87 74.1994 523.87 L54.8477 523.87 L54.8477 528.167 L50.2962 528.167 L50.2962 523.87 L40.1747 523.87 L40.1747 517.982 Z" fill="#000000" fill-rule="nonzero" fill-opacity="1" /><path clip-path="url(#clip820)" d="M71.8759 498.821 L50.2962 498.821 L50.2962 492.965 L71.6531 492.965 Q76.7139 492.965 79.2602 490.991 Q81.7746 489.018 81.7746 485.071 Q81.7746 480.329 78.7509 477.592 Q75.7272 474.822 70.5073 474.822 L50.2962 474.822 L50.2962 468.966 L85.9442 468.966 L85.9442 474.822 L80.4696 474.822 Q83.7162 476.955 85.3076 479.788 Q86.8672 482.589 86.8672 486.313 Q86.8672 492.455 83.0478 495.638 Q79.2283 498.821 71.8759 498.821 M49.4368 484.085 L49.4368 484.085 Z" fill="#000000" fill-rule="nonzero" fill-opacity="1" /><path clip-path="url(#clip820)" d="M55.7707 436.246 Q55.1978 437.233 54.9432 438.411 Q54.6567 439.556 54.6567 440.957 Q54.6567 445.922 57.9032 448.596 Q61.1179 451.237 67.1653 451.237 L85.9442 451.237 L85.9442 457.126 L50.2962 457.126 L50.2962 451.237 L55.8344 451.237 Q52.5879 449.391 51.0283 446.431 Q49.4368 443.471 49.4368 439.238 Q49.4368 438.633 49.5323 437.901 Q49.596 437.169 49.7551 436.278 L55.7707 436.246 Z" fill="#000000" fill-rule="nonzero" fill-opacity="1" /><path clip-path="url(#clip820)" d="M66.6561 401.044 L69.5206 401.044 L69.5206 427.971 Q75.5681 427.589 78.7509 424.342 Q81.9019 421.064 81.9019 415.239 Q81.9019 411.866 81.0744 408.715 Q80.2469 405.532 78.5918 402.413 L84.1299 402.413 Q85.4667 405.564 86.167 408.874 Q86.8672 412.184 86.8672 415.59 Q86.8672 424.12 81.9019 429.117 Q76.9367 434.082 68.4703 434.082 Q59.7174 434.082 54.5931 429.371 Q49.4368 424.629 49.4368 416.608 Q49.4368 409.415 54.0838 405.245 Q58.6989 401.044 66.6561 401.044 M64.9373 406.9 Q60.1312 406.964 57.2666 409.606 Q54.4021 412.216 54.4021 416.544 Q54.4021 421.446 57.1712 424.406 Q59.9402 427.334 64.9692 427.78 L64.9373 406.9 Z" fill="#000000" fill-rule="nonzero" fill-opacity="1" /><path clip-path="url(#clip820)" d="M36.4826 356.643 Q43.8032 360.908 50.9646 362.977 Q58.126 365.046 65.4784 365.046 Q72.8308 365.046 80.0559 362.977 Q87.2491 360.876 94.5379 356.643 L94.5379 361.736 Q87.0582 366.51 79.8331 368.897 Q72.608 371.252 65.4784 371.252 Q58.3806 371.252 51.1874 368.897 Q43.9942 366.542 36.4826 361.736 L36.4826 356.643 Z" fill="#000000" fill-rule="nonzero" fill-opacity="1" /><path clip-path="url(#clip820)" d="M41.6707 335.127 Q41.6707 337.673 43.4531 339.424 Q45.2036 341.174 47.7499 341.174 Q50.2644 341.174 52.0149 339.424 Q53.7337 337.673 53.7337 335.127 Q53.7337 332.581 52.0149 330.83 Q50.2644 329.08 47.7499 329.08 Q45.2355 329.08 43.4531 330.862 Q41.6707 332.613 41.6707 335.127 M37.5648 335.127 Q37.5648 333.09 38.3605 331.212 Q39.1244 329.334 40.5885 327.966 Q42.0208 326.501 43.835 325.769 Q45.6492 325.037 47.7499 325.037 Q51.9513 325.037 54.8795 327.997 Q57.7759 330.926 57.7759 335.191 Q57.7759 339.488 54.9113 342.352 Q52.0468 345.217 47.7499 345.217 Q43.4849 345.217 40.5248 342.288 Q37.5648 339.36 37.5648 335.127 Z" fill="#000000" fill-rule="nonzero" fill-opacity="1" /><path clip-path="url(#clip820)" d="M42.0844 276.849 L48.8639 276.849 Q45.8402 280.095 44.3443 283.788 Q42.8483 287.448 42.8483 291.586 Q42.8483 299.734 47.8454 304.062 Q52.8107 308.391 62.2319 308.391 Q71.6213 308.391 76.6184 304.062 Q81.5836 299.734 81.5836 291.586 Q81.5836 287.448 80.0877 283.788 Q78.5918 280.095 75.5681 276.849 L82.2839 276.849 Q84.5755 280.223 85.7214 284.01 Q86.8672 287.766 86.8672 291.968 Q86.8672 302.757 80.2787 308.964 Q73.6583 315.171 62.2319 315.171 Q50.7736 315.171 44.1851 308.964 Q37.5648 302.757 37.5648 291.968 Q37.5648 287.702 38.7106 283.947 Q39.8246 280.159 42.0844 276.849 Z" fill="#000000" fill-rule="nonzero" fill-opacity="1" /><path clip-path="url(#clip820)" d="M36.4826 268.096 L36.4826 263.004 Q43.9942 258.229 51.1874 255.874 Q58.3806 253.487 65.4784 253.487 Q72.608 253.487 79.8331 255.874 Q87.0582 258.229 94.5379 263.004 L94.5379 268.096 Q87.2491 263.863 80.0559 261.794 Q72.8308 259.693 65.4784 259.693 Q58.126 259.693 50.9646 261.794 Q43.8032 263.863 36.4826 268.096 Z" fill="#000000" fill-rule="nonzero" fill-opacity="1" /><circle clip-path="url(#clip821)" cx="277.226" cy="979.858" r="14.4" fill="#07519c" fill-rule="evenodd" fill-opacity="1" stroke="#000000" stroke-opacity="1" stroke-width="2.4"/>
<circle clip-path="url(#clip821)" cx="308.184" cy="874.059" r="14.4" fill="#07519c" fill-rule="evenodd" fill-opacity="1" stroke="#000000" stroke-opacity="1" stroke-width="2.4"/>
<circle clip-path="url(#clip821)" cx="339.155" cy="823.831" r="14.4" fill="#07519c" fill-rule="evenodd" fill-opacity="1" stroke="#000000" stroke-opacity="1" stroke-width="2.4"/>
<circle clip-path="url(#clip821)" cx="370.115" cy="777.878" r="14.4" fill="#07519c" fill-rule="evenodd" fill-opacity="1" stroke="#000000" stroke-opacity="1" stroke-width="2.4"/>
<circle clip-path="url(#clip821)" cx="401.075" cy="732.993" r="14.4" fill="#07519c" fill-rule="evenodd" fill-opacity="1" stroke="#000000" stroke-opacity="1" stroke-width="2.4"/>
<circle clip-path="url(#clip821)" cx="432.036" cy="691.315" r="14.4" fill="#07519c" fill-rule="evenodd" fill-opacity="1" stroke="#000000" stroke-opacity="1" stroke-width="2.4"/>
<circle clip-path="url(#clip821)" cx="462.995" cy="674.216" r="14.4" fill="#07519c" fill-rule="evenodd" fill-opacity="1" stroke="#000000" stroke-opacity="1" stroke-width="2.4"/>
<circle clip-path="url(#clip821)" cx="493.954" cy="662.461" r="14.4" fill="#07519c" fill-rule="evenodd" fill-opacity="1" stroke="#000000" stroke-opacity="1" stroke-width="2.4"/>
<circle clip-path="url(#clip821)" cx="524.915" cy="650.705" r="14.4" fill="#07519c" fill-rule="evenodd" fill-opacity="1" stroke="#000000" stroke-opacity="1" stroke-width="2.4"/>
<circle clip-path="url(#clip821)" cx="555.874" cy="646.431" r="14.4" fill="#07519c" fill-rule="evenodd" fill-opacity="1" stroke="#000000" stroke-opacity="1" stroke-width="2.4"/>
<circle clip-path="url(#clip821)" cx="586.83" cy="638.95" r="14.4" fill="#07519c" fill-rule="evenodd" fill-opacity="1" stroke="#000000" stroke-opacity="1" stroke-width="2.4"/>
<circle clip-path="url(#clip821)" cx="617.784" cy="629.332" r="14.4" fill="#07519c" fill-rule="evenodd" fill-opacity="1" stroke="#000000" stroke-opacity="1" stroke-width="2.4"/>
<circle clip-path="url(#clip821)" cx="648.74" cy="631.469" r="14.4" fill="#07519c" fill-rule="evenodd" fill-opacity="1" stroke="#000000" stroke-opacity="1" stroke-width="2.4"/>
<circle clip-path="url(#clip821)" cx="679.704" cy="638.95" r="14.4" fill="#07519c" fill-rule="evenodd" fill-opacity="1" stroke="#000000" stroke-opacity="1" stroke-width="2.4"/>
<circle clip-path="url(#clip821)" cx="710.658" cy="636.812" r="14.4" fill="#07519c" fill-rule="evenodd" fill-opacity="1" stroke="#000000" stroke-opacity="1" stroke-width="2.4"/>
<circle clip-path="url(#clip821)" cx="741.618" cy="642.156" r="14.4" fill="#07519c" fill-rule="evenodd" fill-opacity="1" stroke="#000000" stroke-opacity="1" stroke-width="2.4"/>
<circle clip-path="url(#clip821)" cx="772.576" cy="643.224" r="14.4" fill="#07519c" fill-rule="evenodd" fill-opacity="1" stroke="#000000" stroke-opacity="1" stroke-width="2.4"/>
<circle clip-path="url(#clip821)" cx="803.533" cy="635.744" r="14.4" fill="#07519c" fill-rule="evenodd" fill-opacity="1" stroke="#000000" stroke-opacity="1" stroke-width="2.4"/>
<circle clip-path="url(#clip821)" cx="834.489" cy="635.744" r="14.4" fill="#07519c" fill-rule="evenodd" fill-opacity="1" stroke="#000000" stroke-opacity="1" stroke-width="2.4"/>
<circle clip-path="url(#clip821)" cx="865.45" cy="636.812" r="14.4" fill="#07519c" fill-rule="evenodd" fill-opacity="1" stroke="#000000" stroke-opacity="1" stroke-width="2.4"/>
<circle clip-path="url(#clip821)" cx="896.416" cy="638.95" r="14.4" fill="#07519c" fill-rule="evenodd" fill-opacity="1" stroke="#000000" stroke-opacity="1" stroke-width="2.4"/>
<circle clip-path="url(#clip821)" cx="927.373" cy="631.469" r="14.4" fill="#07519c" fill-rule="evenodd" fill-opacity="1" stroke="#000000" stroke-opacity="1" stroke-width="2.4"/>
<circle clip-path="url(#clip821)" cx="958.334" cy="642.156" r="14.4" fill="#07519c" fill-rule="evenodd" fill-opacity="1" stroke="#000000" stroke-opacity="1" stroke-width="2.4"/>
<circle clip-path="url(#clip821)" cx="989.29" cy="652.843" r="14.4" fill="#07519c" fill-rule="evenodd" fill-opacity="1" stroke="#000000" stroke-opacity="1" stroke-width="2.4"/>
<circle clip-path="url(#clip821)" cx="1020.25" cy="657.117" r="14.4" fill="#07519c" fill-rule="evenodd" fill-opacity="1" stroke="#000000" stroke-opacity="1" stroke-width="2.4"/>
<circle clip-path="url(#clip821)" cx="1051.21" cy="663.529" r="14.4" fill="#07519c" fill-rule="evenodd" fill-opacity="1" stroke="#000000" stroke-opacity="1" stroke-width="2.4"/>
<circle clip-path="url(#clip821)" cx="1082.17" cy="669.941" r="14.4" fill="#07519c" fill-rule="evenodd" fill-opacity="1" stroke="#000000" stroke-opacity="1" stroke-width="2.4"/>
<circle clip-path="url(#clip821)" cx="1113.13" cy="680.628" r="14.4" fill="#07519c" fill-rule="evenodd" fill-opacity="1" stroke="#000000" stroke-opacity="1" stroke-width="2.4"/>
<circle clip-path="url(#clip821)" cx="1144.09" cy="697.727" r="14.4" fill="#07519c" fill-rule="evenodd" fill-opacity="1" stroke="#000000" stroke-opacity="1" stroke-width="2.4"/>
<circle clip-path="url(#clip821)" cx="1175.05" cy="716.963" r="14.4" fill="#07519c" fill-rule="evenodd" fill-opacity="1" stroke="#000000" stroke-opacity="1" stroke-width="2.4"/>
<circle clip-path="url(#clip821)" cx="1206.01" cy="728.719" r="14.4" fill="#07519c" fill-rule="evenodd" fill-opacity="1" stroke="#000000" stroke-opacity="1" stroke-width="2.4"/>
<circle clip-path="url(#clip821)" cx="1236.96" cy="736.199" r="14.4" fill="#07519c" fill-rule="evenodd" fill-opacity="1" stroke="#000000" stroke-opacity="1" stroke-width="2.4"/>
<circle clip-path="url(#clip821)" cx="1267.93" cy="735.131" r="14.4" fill="#07519c" fill-rule="evenodd" fill-opacity="1" stroke="#000000" stroke-opacity="1" stroke-width="2.4"/>
<circle clip-path="url(#clip821)" cx="1298.88" cy="616.508" r="14.4" fill="#07519c" fill-rule="evenodd" fill-opacity="1" stroke="#000000" stroke-opacity="1" stroke-width="2.4"/>
<circle clip-path="url(#clip821)" cx="1329.85" cy="298.041" r="14.4" fill="#07519c" fill-rule="evenodd" fill-opacity="1" stroke="#000000" stroke-opacity="1" stroke-width="2.4"/>
<circle clip-path="url(#clip821)" cx="1360.81" cy="74.6877" r="14.4" fill="#07519c" fill-rule="evenodd" fill-opacity="1" stroke="#000000" stroke-opacity="1" stroke-width="2.4"/>
<circle clip-path="url(#clip821)" cx="1391.76" cy="271.325" r="14.4" fill="#07519c" fill-rule="evenodd" fill-opacity="1" stroke="#000000" stroke-opacity="1" stroke-width="2.4"/>
<circle clip-path="url(#clip821)" cx="1422.73" cy="381.398" r="14.4" fill="#07519c" fill-rule="evenodd" fill-opacity="1" stroke="#000000" stroke-opacity="1" stroke-width="2.4"/>
<circle clip-path="url(#clip821)" cx="1453.69" cy="418.802" r="14.4" fill="#07519c" fill-rule="evenodd" fill-opacity="1" stroke="#000000" stroke-opacity="1" stroke-width="2.4"/>
<circle clip-path="url(#clip821)" cx="1484.65" cy="432.695" r="14.4" fill="#07519c" fill-rule="evenodd" fill-opacity="1" stroke="#000000" stroke-opacity="1" stroke-width="2.4"/>
<circle clip-path="url(#clip821)" cx="1515.6" cy="439.107" r="14.4" fill="#07519c" fill-rule="evenodd" fill-opacity="1" stroke="#000000" stroke-opacity="1" stroke-width="2.4"/>
<path clip-path="url(#clip821)" d="M276.579 876.226 L276.579 908.226 L308.579 908.226 L308.579 876.226 L276.579 876.226 Z" fill="#3082bc" fill-rule="evenodd" fill-opacity="1" stroke="#000000" stroke-opacity="1" stroke-width="2.4"/>
<path clip-path="url(#clip821)" d="M307.546 790.732 L307.546 822.732 L339.546 822.732 L339.546 790.732 L307.546 790.732 Z" fill="#3082bc" fill-rule="evenodd" fill-opacity="1" stroke="#000000" stroke-opacity="1" stroke-width="2.4"/>
<path clip-path="url(#clip821)" d="M338.51 750.122 L338.51 782.122 L370.51 782.122 L370.51 750.122 L338.51 750.122 Z" fill="#3082bc" fill-rule="evenodd" fill-opacity="1" stroke="#000000" stroke-opacity="1" stroke-width="2.4"/>
<path clip-path="url(#clip821)" d="M369.468 712.719 L369.468 744.719 L401.468 744.719 L401.468 712.719 L369.468 712.719 Z" fill="#3082bc" fill-rule="evenodd" fill-opacity="1" stroke="#000000" stroke-opacity="1" stroke-width="2.4"/>
<path clip-path="url(#clip821)" d="M400.431 686.002 L400.431 718.002 L432.431 718.002 L432.431 686.002 L400.431 686.002 Z" fill="#3082bc" fill-rule="evenodd" fill-opacity="1" stroke="#000000" stroke-opacity="1" stroke-width="2.4"/>
<path clip-path="url(#clip821)" d="M431.39 662.491 L431.39 694.491 L463.39 694.491 L463.39 662.491 L431.39 662.491 Z" fill="#3082bc" fill-rule="evenodd" fill-opacity="1" stroke="#000000" stroke-opacity="1" stroke-width="2.4"/>
<path clip-path="url(#clip821)" d="M462.348 652.873 L462.348 684.873 L494.348 684.873 L494.348 652.873 L462.348 652.873 Z" fill="#3082bc" fill-rule="evenodd" fill-opacity="1" stroke="#000000" stroke-opacity="1" stroke-width="2.4"/>
<path clip-path="url(#clip821)" d="M493.308 642.186 L493.308 674.186 L525.308 674.186 L525.308 642.186 L493.308 642.186 Z" fill="#3082bc" fill-rule="evenodd" fill-opacity="1" stroke="#000000" stroke-opacity="1" stroke-width="2.4"/>
<path clip-path="url(#clip821)" d="M524.269 636.843 L524.269 668.843 L556.269 668.843 L556.269 636.843 L524.269 636.843 Z" fill="#3082bc" fill-rule="evenodd" fill-opacity="1" stroke="#000000" stroke-opacity="1" stroke-width="2.4"/>
<path clip-path="url(#clip821)" d="M555.225 629.362 L555.225 661.362 L587.225 661.362 L587.225 629.362 L555.225 629.362 Z" fill="#3082bc" fill-rule="evenodd" fill-opacity="1" stroke="#000000" stroke-opacity="1" stroke-width="2.4"/>
<path clip-path="url(#clip821)" d="M586.181 627.224 L586.181 659.224 L618.181 659.224 L618.181 627.224 L586.181 627.224 Z" fill="#3082bc" fill-rule="evenodd" fill-opacity="1" stroke="#000000" stroke-opacity="1" stroke-width="2.4"/>
<path clip-path="url(#clip821)" d="M617.135 626.156 L617.135 658.156 L649.135 658.156 L649.135 626.156 L617.135 626.156 Z" fill="#3082bc" fill-rule="evenodd" fill-opacity="1" stroke="#000000" stroke-opacity="1" stroke-width="2.4"/>
<path clip-path="url(#clip821)" d="M648.097 615.469 L648.097 647.469 L680.097 647.469 L680.097 615.469 L648.097 615.469 Z" fill="#3082bc" fill-rule="evenodd" fill-opacity="1" stroke="#000000" stroke-opacity="1" stroke-width="2.4"/>
<path clip-path="url(#clip821)" d="M679.056 617.606 L679.056 649.606 L711.056 649.606 L711.056 617.606 L679.056 617.606 Z" fill="#3082bc" fill-rule="evenodd" fill-opacity="1" stroke="#000000" stroke-opacity="1" stroke-width="2.4"/>
<path clip-path="url(#clip821)" d="M710.009 611.194 L710.009 643.194 L742.009 643.194 L742.009 611.194 L710.009 611.194 Z" fill="#3082bc" fill-rule="evenodd" fill-opacity="1" stroke="#000000" stroke-opacity="1" stroke-width="2.4"/>
<path clip-path="url(#clip821)" d="M740.97 619.744 L740.97 651.744 L772.97 651.744 L772.97 619.744 L740.97 619.744 Z" fill="#3082bc" fill-rule="evenodd" fill-opacity="1" stroke="#000000" stroke-opacity="1" stroke-width="2.4"/>
<path clip-path="url(#clip821)" d="M771.93 628.293 L771.93 660.293 L803.93 660.293 L803.93 628.293 L771.93 628.293 Z" fill="#3082bc" fill-rule="evenodd" fill-opacity="1" stroke="#000000" stroke-opacity="1" stroke-width="2.4"/>
<path clip-path="url(#clip821)" d="M802.886 634.705 L802.886 666.705 L834.886 666.705 L834.886 634.705 L802.886 634.705 Z" fill="#3082bc" fill-rule="evenodd" fill-opacity="1" stroke="#000000" stroke-opacity="1" stroke-width="2.4"/>
<path clip-path="url(#clip821)" d="M833.841 633.637 L833.841 665.637 L865.841 665.637 L865.841 633.637 L833.841 633.637 Z" fill="#3082bc" fill-rule="evenodd" fill-opacity="1" stroke="#000000" stroke-opacity="1" stroke-width="2.4"/>
<path clip-path="url(#clip821)" d="M864.811 628.293 L864.811 660.293 L896.811 660.293 L896.811 628.293 L864.811 628.293 Z" fill="#3082bc" fill-rule="evenodd" fill-opacity="1" stroke="#000000" stroke-opacity="1" stroke-width="2.4"/>
<path clip-path="url(#clip821)" d="M895.768 628.293 L895.768 660.293 L927.768 660.293 L927.768 628.293 L895.768 628.293 Z" fill="#3082bc" fill-rule="evenodd" fill-opacity="1" stroke="#000000" stroke-opacity="1" stroke-width="2.4"/>
<path clip-path="url(#clip821)" d="M926.727 636.843 L926.727 668.843 L958.727 668.843 L958.727 636.843 L926.727 636.843 Z" fill="#3082bc" fill-rule="evenodd" fill-opacity="1" stroke="#000000" stroke-opacity="1" stroke-width="2.4"/>
<path clip-path="url(#clip821)" d="M957.689 631.499 L957.689 663.499 L989.689 663.499 L989.689 631.499 L957.689 631.499 Z" fill="#3082bc" fill-rule="evenodd" fill-opacity="1" stroke="#000000" stroke-opacity="1" stroke-width="2.4"/>
<path clip-path="url(#clip821)" d="M988.642 635.774 L988.642 667.774 L1020.64 667.774 L1020.64 635.774 L988.642 635.774 Z" fill="#3082bc" fill-rule="evenodd" fill-opacity="1" stroke="#000000" stroke-opacity="1" stroke-width="2.4"/>
<path clip-path="url(#clip821)" d="M1019.6 651.804 L1019.6 683.804 L1051.6 683.804 L1051.6 651.804 L1019.6 651.804 Z" fill="#3082bc" fill-rule="evenodd" fill-opacity="1" stroke="#000000" stroke-opacity="1" stroke-width="2.4"/>
<path clip-path="url(#clip821)" d="M1050.56 662.491 L1050.56 694.491 L1082.56 694.491 L1082.56 662.491 L1050.56 662.491 Z" fill="#3082bc" fill-rule="evenodd" fill-opacity="1" stroke="#000000" stroke-opacity="1" stroke-width="2.4"/>
<path clip-path="url(#clip821)" d="M1081.52 668.903 L1081.52 700.903 L1113.52 700.903 L1113.52 668.903 L1081.52 668.903 Z" fill="#3082bc" fill-rule="evenodd" fill-opacity="1" stroke="#000000" stroke-opacity="1" stroke-width="2.4"/>
<path clip-path="url(#clip821)" d="M1112.48 675.315 L1112.48 707.315 L1144.48 707.315 L1144.48 675.315 L1112.48 675.315 Z" fill="#3082bc" fill-rule="evenodd" fill-opacity="1" stroke="#000000" stroke-opacity="1" stroke-width="2.4"/>
<path clip-path="url(#clip821)" d="M1143.44 681.727 L1143.44 713.727 L1175.44 713.727 L1175.44 681.727 L1143.44 681.727 Z" fill="#3082bc" fill-rule="evenodd" fill-opacity="1" stroke="#000000" stroke-opacity="1" stroke-width="2.4"/>
<path clip-path="url(#clip821)" d="M1174.4 688.139 L1174.4 720.139 L1206.4 720.139 L1206.4 688.139 L1174.4 688.139 Z" fill="#3082bc" fill-rule="evenodd" fill-opacity="1" stroke="#000000" stroke-opacity="1" stroke-width="2.4"/>
<path clip-path="url(#clip821)" d="M1205.36 681.727 L1205.36 713.727 L1237.36 713.727 L1237.36 681.727 L1205.36 681.727 Z" fill="#3082bc" fill-rule="evenodd" fill-opacity="1" stroke="#000000" stroke-opacity="1" stroke-width="2.4"/>
<path clip-path="url(#clip821)" d="M1236.32 669.972 L1236.32 701.972 L1268.32 701.972 L1268.32 669.972 L1236.32 669.972 Z" fill="#3082bc" fill-rule="evenodd" fill-opacity="1" stroke="#000000" stroke-opacity="1" stroke-width="2.4"/>
<path clip-path="url(#clip821)" d="M1267.28 604.782 L1267.28 636.782 L1299.28 636.782 L1299.28 604.782 L1267.28 604.782 Z" fill="#3082bc" fill-rule="evenodd" fill-opacity="1" stroke="#000000" stroke-opacity="1" stroke-width="2.4"/>
<path clip-path="url(#clip821)" d="M1298.24 391.047 L1298.24 423.047 L1330.24 423.047 L1330.24 391.047 L1298.24 391.047 Z" fill="#3082bc" fill-rule="evenodd" fill-opacity="1" stroke="#000000" stroke-opacity="1" stroke-width="2.4"/>
<path clip-path="url(#clip821)" d="M1329.2 261.737 L1329.2 293.737 L1361.2 293.737 L1361.2 261.737 L1329.2 261.737 Z" fill="#3082bc" fill-rule="evenodd" fill-opacity="1" stroke="#000000" stroke-opacity="1" stroke-width="2.4"/>
<path clip-path="url(#clip821)" d="M1360.16 271.355 L1360.16 303.355 L1392.16 303.355 L1392.16 271.355 L1360.16 271.355 Z" fill="#3082bc" fill-rule="evenodd" fill-opacity="1" stroke="#000000" stroke-opacity="1" stroke-width="2.4"/>
<path clip-path="url(#clip821)" d="M1391.12 367.536 L1391.12 399.536 L1423.12 399.536 L1423.12 367.536 L1391.12 367.536 Z" fill="#3082bc" fill-rule="evenodd" fill-opacity="1" stroke="#000000" stroke-opacity="1" stroke-width="2.4"/>
<path clip-path="url(#clip821)" d="M1422.08 403.871 L1422.08 435.871 L1454.08 435.871 L1454.08 403.871 L1422.08 403.871 Z" fill="#3082bc" fill-rule="evenodd" fill-opacity="1" stroke="#000000" stroke-opacity="1" stroke-width="2.4"/>
<path clip-path="url(#clip821)" d="M1453.04 417.764 L1453.04 449.764 L1485.04 449.764 L1485.04 417.764 L1453.04 417.764 Z" fill="#3082bc" fill-rule="evenodd" fill-opacity="1" stroke="#000000" stroke-opacity="1" stroke-width="2.4"/>
<path clip-path="url(#clip821)" d="M1484 426.313 L1484 458.313 L1516 458.313 L1516 426.313 L1484 426.313 Z" fill="#3082bc" fill-rule="evenodd" fill-opacity="1" stroke="#000000" stroke-opacity="1" stroke-width="2.4"/>
<circle clip-path="url(#clip821)" cx="277.226" cy="970.24" r="14.4" fill="#ffffff" fill-rule="evenodd" fill-opacity="1" stroke="#07519c" stroke-opacity="1" stroke-width="3.6"/>
<circle clip-path="url(#clip821)" cx="308.184" cy="828.106" r="14.4" fill="#ffffff" fill-rule="evenodd" fill-opacity="1" stroke="#07519c" stroke-opacity="1" stroke-width="3.6"/>
<circle clip-path="url(#clip821)" cx="339.155" cy="773.603" r="14.4" fill="#ffffff" fill-rule="evenodd" fill-opacity="1" stroke="#07519c" stroke-opacity="1" stroke-width="3.6"/>
<circle clip-path="url(#clip821)" cx="370.115" cy="728.719" r="14.4" fill="#ffffff" fill-rule="evenodd" fill-opacity="1" stroke="#07519c" stroke-opacity="1" stroke-width="3.6"/>
<circle clip-path="url(#clip821)" cx="401.075" cy="683.834" r="14.4" fill="#ffffff" fill-rule="evenodd" fill-opacity="1" stroke="#07519c" stroke-opacity="1" stroke-width="3.6"/>
<circle clip-path="url(#clip821)" cx="432.036" cy="647.499" r="14.4" fill="#ffffff" fill-rule="evenodd" fill-opacity="1" stroke="#07519c" stroke-opacity="1" stroke-width="3.6"/>
<circle clip-path="url(#clip821)" cx="462.995" cy="633.606" r="14.4" fill="#ffffff" fill-rule="evenodd" fill-opacity="1" stroke="#07519c" stroke-opacity="1" stroke-width="3.6"/>
<circle clip-path="url(#clip821)" cx="493.954" cy="614.37" r="14.4" fill="#ffffff" fill-rule="evenodd" fill-opacity="1" stroke="#07519c" stroke-opacity="1" stroke-width="3.6"/>
<circle clip-path="url(#clip821)" cx="524.915" cy="605.821" r="14.4" fill="#ffffff" fill-rule="evenodd" fill-opacity="1" stroke="#07519c" stroke-opacity="1" stroke-width="3.6"/>
<circle clip-path="url(#clip821)" cx="555.874" cy="596.203" r="14.4" fill="#ffffff" fill-rule="evenodd" fill-opacity="1" stroke="#07519c" stroke-opacity="1" stroke-width="3.6"/>
<circle clip-path="url(#clip821)" cx="586.83" cy="588.722" r="14.4" fill="#ffffff" fill-rule="evenodd" fill-opacity="1" stroke="#07519c" stroke-opacity="1" stroke-width="3.6"/>
<circle clip-path="url(#clip821)" cx="617.784" cy="575.898" r="14.4" fill="#ffffff" fill-rule="evenodd" fill-opacity="1" stroke="#07519c" stroke-opacity="1" stroke-width="3.6"/>
<circle clip-path="url(#clip821)" cx="648.74" cy="566.28" r="14.4" fill="#ffffff" fill-rule="evenodd" fill-opacity="1" stroke="#07519c" stroke-opacity="1" stroke-width="3.6"/>
<circle clip-path="url(#clip821)" cx="679.704" cy="550.249" r="14.4" fill="#ffffff" fill-rule="evenodd" fill-opacity="1" stroke="#07519c" stroke-opacity="1" stroke-width="3.6"/>
<circle clip-path="url(#clip821)" cx="710.658" cy="526.739" r="14.4" fill="#ffffff" fill-rule="evenodd" fill-opacity="1" stroke="#07519c" stroke-opacity="1" stroke-width="3.6"/>
<circle clip-path="url(#clip821)" cx="741.618" cy="507.502" r="14.4" fill="#ffffff" fill-rule="evenodd" fill-opacity="1" stroke="#07519c" stroke-opacity="1" stroke-width="3.6"/>
<circle clip-path="url(#clip821)" cx="772.576" cy="494.678" r="14.4" fill="#ffffff" fill-rule="evenodd" fill-opacity="1" stroke="#07519c" stroke-opacity="1" stroke-width="3.6"/>
<circle clip-path="url(#clip821)" cx="803.533" cy="487.197" r="14.4" fill="#ffffff" fill-rule="evenodd" fill-opacity="1" stroke="#07519c" stroke-opacity="1" stroke-width="3.6"/>
<circle clip-path="url(#clip821)" cx="834.489" cy="473.305" r="14.4" fill="#ffffff" fill-rule="evenodd" fill-opacity="1" stroke="#07519c" stroke-opacity="1" stroke-width="3.6"/>
<circle clip-path="url(#clip821)" cx="865.45" cy="460.481" r="14.4" fill="#ffffff" fill-rule="evenodd" fill-opacity="1" stroke="#07519c" stroke-opacity="1" stroke-width="3.6"/>
<circle clip-path="url(#clip821)" cx="896.416" cy="435.901" r="14.4" fill="#ffffff" fill-rule="evenodd" fill-opacity="1" stroke="#07519c" stroke-opacity="1" stroke-width="3.6"/>
<circle clip-path="url(#clip821)" cx="927.373" cy="431.626" r="14.4" fill="#ffffff" fill-rule="evenodd" fill-opacity="1" stroke="#07519c" stroke-opacity="1" stroke-width="3.6"/>
<circle clip-path="url(#clip821)" cx="958.334" cy="402.772" r="14.4" fill="#ffffff" fill-rule="evenodd" fill-opacity="1" stroke="#07519c" stroke-opacity="1" stroke-width="3.6"/>
<circle clip-path="url(#clip821)" cx="989.29" cy="366.437" r="14.4" fill="#ffffff" fill-rule="evenodd" fill-opacity="1" stroke="#07519c" stroke-opacity="1" stroke-width="3.6"/>
<circle clip-path="url(#clip821)" cx="1020.25" cy="366.437" r="14.4" fill="#ffffff" fill-rule="evenodd" fill-opacity="1" stroke="#07519c" stroke-opacity="1" stroke-width="3.6"/>
<circle clip-path="url(#clip821)" cx="1051.21" cy="376.055" r="14.4" fill="#ffffff" fill-rule="evenodd" fill-opacity="1" stroke="#07519c" stroke-opacity="1" stroke-width="3.6"/>
<circle clip-path="url(#clip821)" cx="1082.17" cy="353.613" r="14.4" fill="#ffffff" fill-rule="evenodd" fill-opacity="1" stroke="#07519c" stroke-opacity="1" stroke-width="3.6"/>
<circle clip-path="url(#clip821)" cx="1113.13" cy="330.102" r="14.4" fill="#ffffff" fill-rule="evenodd" fill-opacity="1" stroke="#07519c" stroke-opacity="1" stroke-width="3.6"/>
<circle clip-path="url(#clip821)" cx="1144.09" cy="320.484" r="14.4" fill="#ffffff" fill-rule="evenodd" fill-opacity="1" stroke="#07519c" stroke-opacity="1" stroke-width="3.6"/>
<circle clip-path="url(#clip821)" cx="1175.05" cy="301.248" r="14.4" fill="#ffffff" fill-rule="evenodd" fill-opacity="1" stroke="#07519c" stroke-opacity="1" stroke-width="3.6"/>
<circle clip-path="url(#clip821)" cx="1206.01" cy="283.08" r="14.4" fill="#ffffff" fill-rule="evenodd" fill-opacity="1" stroke="#07519c" stroke-opacity="1" stroke-width="3.6"/>
<circle clip-path="url(#clip821)" cx="1236.96" cy="241.402" r="14.4" fill="#ffffff" fill-rule="evenodd" fill-opacity="1" stroke="#07519c" stroke-opacity="1" stroke-width="3.6"/>
<circle clip-path="url(#clip821)" cx="1267.93" cy="216.822" r="14.4" fill="#ffffff" fill-rule="evenodd" fill-opacity="1" stroke="#07519c" stroke-opacity="1" stroke-width="3.6"/>
<circle clip-path="url(#clip821)" cx="1298.88" cy="194.38" r="14.4" fill="#ffffff" fill-rule="evenodd" fill-opacity="1" stroke="#07519c" stroke-opacity="1" stroke-width="3.6"/>
<circle clip-path="url(#clip821)" cx="1329.85" cy="176.212" r="14.4" fill="#ffffff" fill-rule="evenodd" fill-opacity="1" stroke="#07519c" stroke-opacity="1" stroke-width="3.6"/>
<circle clip-path="url(#clip821)" cx="1360.81" cy="158.045" r="14.4" fill="#ffffff" fill-rule="evenodd" fill-opacity="1" stroke="#07519c" stroke-opacity="1" stroke-width="3.6"/>
<circle clip-path="url(#clip821)" cx="1391.76" cy="354.681" r="14.4" fill="#ffffff" fill-rule="evenodd" fill-opacity="1" stroke="#07519c" stroke-opacity="1" stroke-width="3.6"/>
<circle clip-path="url(#clip821)" cx="1422.73" cy="402.772" r="14.4" fill="#ffffff" fill-rule="evenodd" fill-opacity="1" stroke="#07519c" stroke-opacity="1" stroke-width="3.6"/>
<circle clip-path="url(#clip821)" cx="1453.69" cy="419.871" r="14.4" fill="#ffffff" fill-rule="evenodd" fill-opacity="1" stroke="#07519c" stroke-opacity="1" stroke-width="3.6"/>
<circle clip-path="url(#clip821)" cx="1484.65" cy="428.42" r="14.4" fill="#ffffff" fill-rule="evenodd" fill-opacity="1" stroke="#07519c" stroke-opacity="1" stroke-width="3.6"/>
<circle clip-path="url(#clip821)" cx="1515.6" cy="435.901" r="14.4" fill="#ffffff" fill-rule="evenodd" fill-opacity="1" stroke="#07519c" stroke-opacity="1" stroke-width="3.6"/>
<polyline clip-path="url(#clip821)" style="stroke:#000000; stroke-linecap:round; stroke-linejoin:round; stroke-width:4; stroke-opacity:1; fill:none" points="277.226,989.476 427.874,455.137 1497.47,455.137 "/>
</svg>
