<?xml version="1.0" encoding="utf-8"?>
<svg xmlns="http://www.w3.org/2000/svg" xmlns:xlink="http://www.w3.org/1999/xlink" width="600" height="400" viewBox="0 0 2400 1600">
<defs>
  <clipPath id="clip150">
    <rect x="0" y="0" width="2400" height="1600"/>
  </clipPath>
</defs>
<path clip-path="url(#clip150)" d="M0 1600 L2400 1600 L2400 0 L0 0  Z" fill="#ffffff" fill-rule="evenodd" fill-opacity="1"/>
<defs>
  <clipPath id="clip151">
    <rect x="307" y="47" width="2046" height="1440"/>
  </clipPath>
</defs>
<path clip-path="url(#clip150)" d="M279.357 1423.18 L2352.76 1423.18 L2352.76 47.2441 L279.357 47.2441  Z" fill="#ffffff" fill-rule="evenodd" fill-opacity="1"/>
<defs>
  <clipPath id="clip152">
    <rect x="279" y="47" width="2074" height="1377"/>
  </clipPath>
</defs>
<polyline clip-path="url(#clip152)" style="stroke:#000000; stroke-linecap:round; stroke-linejoin:round; stroke-width:2; stroke-opacity:0.1; fill:none" points="336.522,1423.18 336.522,47.2441 "/>
<polyline clip-path="url(#clip152)" style="stroke:#000000; stroke-linecap:round; stroke-linejoin:round; stroke-width:2; stroke-opacity:0.1; fill:none" points="819.3,1423.18 819.3,47.2441 "/>
<polyline clip-path="url(#clip152)" style="stroke:#000000; stroke-linecap:round; stroke-linejoin:round; stroke-width:2; stroke-opacity:0.1; fill:none" points="1302.08,1423.18 1302.08,47.2441 "/>
<polyline clip-path="url(#clip152)" style="stroke:#000000; stroke-linecap:round; stroke-linejoin:round; stroke-width:2; stroke-opacity:0.1; fill:none" points="1784.86,1423.18 1784.86,47.2441 "/>
<polyline clip-path="url(#clip152)" style="stroke:#000000; stroke-linecap:round; stroke-linejoin:round; stroke-width:2; stroke-opacity:0.1; fill:none" points="2267.63,1423.18 2267.63,47.2441 "/>
<polyline clip-path="url(#clip152)" style="stroke:#000000; stroke-linecap:round; stroke-linejoin:round; stroke-width:2; stroke-opacity:0.1; fill:none" points="279.357,1251.26 2352.76,1251.26 "/>
<polyline clip-path="url(#clip152)" style="stroke:#000000; stroke-linecap:round; stroke-linejoin:round; stroke-width:2; stroke-opacity:0.1; fill:none" points="279.357,1010.24 2352.76,1010.24 "/>
<polyline clip-path="url(#clip152)" style="stroke:#000000; stroke-linecap:round; stroke-linejoin:round; stroke-width:2; stroke-opacity:0.1; fill:none" points="279.357,769.218 2352.76,769.218 "/>
<polyline clip-path="url(#clip152)" style="stroke:#000000; stroke-linecap:round; stroke-linejoin:round; stroke-width:2; stroke-opacity:0.1; fill:none" points="279.357,528.196 2352.76,528.196 "/>
<polyline clip-path="url(#clip152)" style="stroke:#000000; stroke-linecap:round; stroke-linejoin:round; stroke-width:2; stroke-opacity:0.1; fill:none" points="279.357,287.174 2352.76,287.174 "/>
<polyline clip-path="url(#clip150)" style="stroke:#000000; stroke-linecap:round; stroke-linejoin:round; stroke-width:4; stroke-opacity:1; fill:none" points="279.357,1423.18 2352.76,1423.18 "/>
<polyline clip-path="url(#clip150)" style="stroke:#000000; stroke-linecap:round; stroke-linejoin:round; stroke-width:4; stroke-opacity:1; fill:none" points="336.522,1423.18 336.522,1404.28 "/>
<polyline clip-path="url(#clip150)" style="stroke:#000000; stroke-linecap:round; stroke-linejoin:round; stroke-width:4; stroke-opacity:1; fill:none" points="819.3,1423.18 819.3,1404.28 "/>
<polyline clip-path="url(#clip150)" style="stroke:#000000; stroke-linecap:round; stroke-linejoin:round; stroke-width:4; stroke-opacity:1; fill:none" points="1302.08,1423.18 1302.08,1404.28 "/>
<polyline clip-path="url(#clip150)" style="stroke:#000000; stroke-linecap:round; stroke-linejoin:round; stroke-width:4; stroke-opacity:1; fill:none" points="1784.86,1423.18 1784.86,1404.28 "/>
<polyline clip-path="url(#clip150)" style="stroke:#000000; stroke-linecap:round; stroke-linejoin:round; stroke-width:4; stroke-opacity:1; fill:none" points="2267.63,1423.18 2267.63,1404.28 "/>
<path clip-path="url(#clip150)" d="M336.522 1454.1 Q332.911 1454.1 331.082 1457.66 Q329.276 1461.2 329.276 1468.33 Q329.276 1475.44 331.082 1479.01 Q332.911 1482.55 336.522 1482.55 Q340.156 1482.55 341.961 1479.01 Q343.79 1475.44 343.79 1468.33 Q343.79 1461.2 341.961 1457.66 Q340.156 1454.1 336.522 1454.1 M336.522 1450.39 Q342.332 1450.39 345.387 1455 Q348.466 1459.58 348.466 1468.33 Q348.466 1477.06 345.387 1481.67 Q342.332 1486.25 336.522 1486.25 Q330.711 1486.25 327.633 1481.67 Q324.577 1477.06 324.577 1468.33 Q324.577 1459.58 327.633 1455 Q330.711 1450.39 336.522 1450.39 Z" fill="#000000" fill-rule="nonzero" fill-opacity="1" /><path clip-path="url(#clip150)" d="M809.578 1451.02 L827.934 1451.02 L827.934 1454.96 L813.86 1454.96 L813.86 1463.43 Q814.879 1463.08 815.897 1462.92 Q816.916 1462.73 817.934 1462.73 Q823.721 1462.73 827.101 1465.9 Q830.48 1469.08 830.48 1474.49 Q830.48 1480.07 827.008 1483.17 Q823.536 1486.25 817.217 1486.25 Q815.041 1486.25 812.772 1485.88 Q810.527 1485.51 808.119 1484.77 L808.119 1480.07 Q810.203 1481.2 812.425 1481.76 Q814.647 1482.32 817.124 1482.32 Q821.129 1482.32 823.467 1480.21 Q825.804 1478.1 825.804 1474.49 Q825.804 1470.88 823.467 1468.77 Q821.129 1466.67 817.124 1466.67 Q815.249 1466.67 813.374 1467.08 Q811.522 1467.5 809.578 1468.38 L809.578 1451.02 Z" fill="#000000" fill-rule="nonzero" fill-opacity="1" /><path clip-path="url(#clip150)" d="M1276.77 1481.64 L1284.4 1481.64 L1284.4 1455.28 L1276.09 1456.95 L1276.09 1452.69 L1284.36 1451.02 L1289.03 1451.02 L1289.03 1481.64 L1296.67 1481.64 L1296.67 1485.58 L1276.77 1485.58 L1276.77 1481.64 Z" fill="#000000" fill-rule="nonzero" fill-opacity="1" /><path clip-path="url(#clip150)" d="M1316.12 1454.1 Q1312.51 1454.1 1310.68 1457.66 Q1308.87 1461.2 1308.87 1468.33 Q1308.87 1475.44 1310.68 1479.01 Q1312.51 1482.55 1316.12 1482.55 Q1319.75 1482.55 1321.56 1479.01 Q1323.39 1475.44 1323.39 1468.33 Q1323.39 1461.2 1321.56 1457.66 Q1319.75 1454.1 1316.12 1454.1 M1316.12 1450.39 Q1321.93 1450.39 1324.98 1455 Q1328.06 1459.58 1328.06 1468.33 Q1328.06 1477.06 1324.98 1481.67 Q1321.93 1486.25 1316.12 1486.25 Q1310.31 1486.25 1307.23 1481.67 Q1304.17 1477.06 1304.17 1468.33 Q1304.17 1459.58 1307.23 1455 Q1310.31 1450.39 1316.12 1450.39 Z" fill="#000000" fill-rule="nonzero" fill-opacity="1" /><path clip-path="url(#clip150)" d="M1760.04 1481.64 L1767.68 1481.64 L1767.68 1455.28 L1759.37 1456.95 L1759.37 1452.69 L1767.63 1451.02 L1772.31 1451.02 L1772.31 1481.64 L1779.95 1481.64 L1779.95 1485.58 L1760.04 1485.58 L1760.04 1481.64 Z" fill="#000000" fill-rule="nonzero" fill-opacity="1" /><path clip-path="url(#clip150)" d="M1789.44 1451.02 L1807.8 1451.02 L1807.8 1454.96 L1793.72 1454.96 L1793.72 1463.43 Q1794.74 1463.08 1795.76 1462.92 Q1796.78 1462.73 1797.8 1462.73 Q1803.58 1462.73 1806.96 1465.9 Q1810.34 1469.08 1810.34 1474.49 Q1810.34 1480.07 1806.87 1483.17 Q1803.4 1486.25 1797.08 1486.25 Q1794.9 1486.25 1792.63 1485.88 Q1790.39 1485.51 1787.98 1484.77 L1787.98 1480.07 Q1790.06 1481.2 1792.29 1481.76 Q1794.51 1482.32 1796.99 1482.32 Q1800.99 1482.32 1803.33 1480.21 Q1805.67 1478.1 1805.67 1474.49 Q1805.67 1470.88 1803.33 1468.77 Q1800.99 1466.67 1796.99 1466.67 Q1795.11 1466.67 1793.24 1467.08 Q1791.38 1467.5 1789.44 1468.38 L1789.44 1451.02 Z" fill="#000000" fill-rule="nonzero" fill-opacity="1" /><path clip-path="url(#clip150)" d="M2246.41 1481.64 L2262.73 1481.64 L2262.73 1485.58 L2240.78 1485.58 L2240.78 1481.64 Q2243.44 1478.89 2248.03 1474.26 Q2252.63 1469.61 2253.82 1468.27 Q2256.06 1465.74 2256.94 1464.01 Q2257.84 1462.25 2257.84 1460.56 Q2257.84 1457.8 2255.9 1456.07 Q2253.98 1454.33 2250.88 1454.33 Q2248.68 1454.33 2246.22 1455.09 Q2243.79 1455.86 2241.01 1457.41 L2241.01 1452.69 Q2243.84 1451.55 2246.29 1450.97 Q2248.75 1450.39 2250.78 1450.39 Q2256.15 1450.39 2259.35 1453.08 Q2262.54 1455.77 2262.54 1460.26 Q2262.54 1462.39 2261.73 1464.31 Q2260.94 1466.2 2258.84 1468.8 Q2258.26 1469.47 2255.16 1472.69 Q2252.06 1475.88 2246.41 1481.64 Z" fill="#000000" fill-rule="nonzero" fill-opacity="1" /><path clip-path="url(#clip150)" d="M2282.54 1454.1 Q2278.93 1454.1 2277.1 1457.66 Q2275.3 1461.2 2275.3 1468.33 Q2275.3 1475.44 2277.1 1479.01 Q2278.93 1482.55 2282.54 1482.55 Q2286.18 1482.55 2287.98 1479.01 Q2289.81 1475.44 2289.81 1468.33 Q2289.81 1461.2 2287.98 1457.66 Q2286.18 1454.1 2282.54 1454.1 M2282.54 1450.39 Q2288.35 1450.39 2291.41 1455 Q2294.49 1459.58 2294.49 1468.33 Q2294.49 1477.06 2291.41 1481.67 Q2288.35 1486.25 2282.54 1486.25 Q2276.73 1486.25 2273.65 1481.67 Q2270.6 1477.06 2270.6 1468.33 Q2270.6 1459.58 2273.65 1455 Q2276.73 1450.39 2282.54 1450.39 Z" fill="#000000" fill-rule="nonzero" fill-opacity="1" /><path clip-path="url(#clip150)" d="M1314.81 1546.53 L1314.81 1568.04 L1308.96 1568.04 L1308.96 1546.72 Q1308.96 1541.66 1306.99 1539.14 Q1305.01 1536.63 1301.07 1536.63 Q1296.32 1536.63 1293.59 1539.65 Q1290.85 1542.68 1290.85 1547.9 L1290.85 1568.04 L1284.96 1568.04 L1284.96 1518.52 L1290.85 1518.52 L1290.85 1537.93 Q1292.95 1534.72 1295.78 1533.13 Q1298.65 1531.54 1302.37 1531.54 Q1308.51 1531.54 1311.66 1535.36 Q1314.81 1539.14 1314.81 1546.53 Z" fill="#000000" fill-rule="nonzero" fill-opacity="1" /><path clip-path="url(#clip150)" d="M1347.15 1537.87 Q1346.17 1537.3 1344.99 1537.04 Q1343.84 1536.76 1342.44 1536.76 Q1337.48 1536.76 1334.8 1540 Q1332.16 1543.22 1332.16 1549.27 L1332.16 1568.04 L1326.27 1568.04 L1326.27 1532.4 L1332.16 1532.4 L1332.16 1537.93 Q1334.01 1534.69 1336.97 1533.13 Q1339.93 1531.54 1344.16 1531.54 Q1344.77 1531.54 1345.5 1531.63 Q1346.23 1531.7 1347.12 1531.85 L1347.15 1537.87 Z" fill="#000000" fill-rule="nonzero" fill-opacity="1" /><polyline clip-path="url(#clip150)" style="stroke:#000000; stroke-linecap:round; stroke-linejoin:round; stroke-width:4; stroke-opacity:1; fill:none" points="279.357,1423.18 279.357,47.2441 "/>
<polyline clip-path="url(#clip150)" style="stroke:#000000; stroke-linecap:round; stroke-linejoin:round; stroke-width:4; stroke-opacity:1; fill:none" points="279.357,1251.26 298.254,1251.26 "/>
<polyline clip-path="url(#clip150)" style="stroke:#000000; stroke-linecap:round; stroke-linejoin:round; stroke-width:4; stroke-opacity:1; fill:none" points="279.357,1010.24 298.254,1010.24 "/>
<polyline clip-path="url(#clip150)" style="stroke:#000000; stroke-linecap:round; stroke-linejoin:round; stroke-width:4; stroke-opacity:1; fill:none" points="279.357,769.218 298.254,769.218 "/>
<polyline clip-path="url(#clip150)" style="stroke:#000000; stroke-linecap:round; stroke-linejoin:round; stroke-width:4; stroke-opacity:1; fill:none" points="279.357,528.196 298.254,528.196 "/>
<polyline clip-path="url(#clip150)" style="stroke:#000000; stroke-linecap:round; stroke-linejoin:round; stroke-width:4; stroke-opacity:1; fill:none" points="279.357,287.174 298.254,287.174 "/>
<path clip-path="url(#clip150)" d="M119.885 1264.61 L136.204 1264.61 L136.204 1268.54 L114.26 1268.54 L114.26 1264.61 Q116.922 1261.85 121.505 1257.22 Q126.112 1252.57 127.292 1251.23 Q129.538 1248.7 130.417 1246.97 Q131.32 1245.21 131.32 1243.52 Q131.32 1240.76 129.376 1239.03 Q127.455 1237.29 124.353 1237.29 Q122.154 1237.29 119.7 1238.05 Q117.269 1238.82 114.492 1240.37 L114.492 1235.65 Q117.316 1234.51 119.769 1233.93 Q122.223 1233.36 124.26 1233.36 Q129.63 1233.36 132.825 1236.04 Q136.019 1238.73 136.019 1243.22 Q136.019 1245.35 135.209 1247.27 Q134.422 1249.17 132.316 1251.76 Q131.737 1252.43 128.635 1255.65 Q125.533 1258.84 119.885 1264.61 Z" fill="#000000" fill-rule="nonzero" fill-opacity="1" /><path clip-path="url(#clip150)" d="M160.186 1249.91 Q163.542 1250.62 165.417 1252.89 Q167.315 1255.16 167.315 1258.49 Q167.315 1263.61 163.797 1266.41 Q160.278 1269.21 153.797 1269.21 Q151.621 1269.21 149.306 1268.77 Q147.015 1268.36 144.561 1267.5 L144.561 1262.99 Q146.505 1264.12 148.82 1264.7 Q151.135 1265.28 153.658 1265.28 Q158.056 1265.28 160.348 1263.54 Q162.663 1261.8 162.663 1258.49 Q162.663 1255.44 160.51 1253.73 Q158.38 1251.99 154.561 1251.99 L150.533 1251.99 L150.533 1248.15 L154.746 1248.15 Q158.195 1248.15 160.024 1246.78 Q161.852 1245.39 161.852 1242.8 Q161.852 1240.14 159.954 1238.73 Q158.079 1237.29 154.561 1237.29 Q152.64 1237.29 150.441 1237.71 Q148.241 1238.12 145.603 1239 L145.603 1234.84 Q148.265 1234.1 150.579 1233.73 Q152.917 1233.36 154.978 1233.36 Q160.302 1233.36 163.403 1235.79 Q166.505 1238.19 166.505 1242.31 Q166.505 1245.18 164.862 1247.18 Q163.218 1249.14 160.186 1249.91 Z" fill="#000000" fill-rule="nonzero" fill-opacity="1" /><path clip-path="url(#clip150)" d="M176.227 1233.98 L194.584 1233.98 L194.584 1237.92 L180.51 1237.92 L180.51 1246.39 Q181.528 1246.04 182.547 1245.88 Q183.565 1245.69 184.584 1245.69 Q190.371 1245.69 193.75 1248.86 Q197.13 1252.04 197.13 1257.45 Q197.13 1263.03 193.658 1266.13 Q190.186 1269.21 183.866 1269.21 Q181.69 1269.21 179.422 1268.84 Q177.176 1268.47 174.769 1267.73 L174.769 1263.03 Q176.852 1264.17 179.075 1264.72 Q181.297 1265.28 183.774 1265.28 Q187.778 1265.28 190.116 1263.17 Q192.454 1261.06 192.454 1257.45 Q192.454 1253.84 190.116 1251.74 Q187.778 1249.63 183.774 1249.63 Q181.899 1249.63 180.024 1250.05 Q178.172 1250.46 176.227 1251.34 L176.227 1233.98 Z" fill="#000000" fill-rule="nonzero" fill-opacity="1" /><path clip-path="url(#clip150)" d="M206.343 1262.66 L211.227 1262.66 L211.227 1268.54 L206.343 1268.54 L206.343 1262.66 Z" fill="#000000" fill-rule="nonzero" fill-opacity="1" /><path clip-path="url(#clip150)" d="M231.412 1237.06 Q227.801 1237.06 225.973 1240.62 Q224.167 1244.17 224.167 1251.3 Q224.167 1258.4 225.973 1261.97 Q227.801 1265.51 231.412 1265.51 Q235.047 1265.51 236.852 1261.97 Q238.681 1258.4 238.681 1251.3 Q238.681 1244.17 236.852 1240.62 Q235.047 1237.06 231.412 1237.06 M231.412 1233.36 Q237.222 1233.36 240.278 1237.96 Q243.357 1242.55 243.357 1251.3 Q243.357 1260.02 240.278 1264.63 Q237.222 1269.21 231.412 1269.21 Q225.602 1269.21 222.523 1264.63 Q219.468 1260.02 219.468 1251.3 Q219.468 1242.55 222.523 1237.96 Q225.602 1233.36 231.412 1233.36 Z" fill="#000000" fill-rule="nonzero" fill-opacity="1" /><path clip-path="url(#clip150)" d="M120.88 1023.58 L137.2 1023.58 L137.2 1027.52 L115.256 1027.52 L115.256 1023.58 Q117.918 1020.83 122.501 1016.2 Q127.107 1011.55 128.288 1010.2 Q130.533 1007.68 131.413 1005.95 Q132.316 1004.19 132.316 1002.5 Q132.316 999.741 130.371 998.005 Q128.45 996.269 125.348 996.269 Q123.149 996.269 120.695 997.033 Q118.265 997.797 115.487 999.348 L115.487 994.626 Q118.311 993.492 120.765 992.913 Q123.218 992.334 125.255 992.334 Q130.626 992.334 133.82 995.019 Q137.015 997.704 137.015 1002.2 Q137.015 1004.32 136.204 1006.25 Q135.417 1008.14 133.311 1010.74 Q132.732 1011.41 129.63 1014.63 Q126.529 1017.82 120.88 1023.58 Z" fill="#000000" fill-rule="nonzero" fill-opacity="1" /><path clip-path="url(#clip150)" d="M161.181 1008.88 Q164.538 1009.6 166.413 1011.87 Q168.311 1014.14 168.311 1017.47 Q168.311 1022.59 164.792 1025.39 Q161.274 1028.19 154.792 1028.19 Q152.616 1028.19 150.302 1027.75 Q148.01 1027.33 145.556 1026.48 L145.556 1021.96 Q147.501 1023.1 149.816 1023.68 Q152.13 1024.26 154.653 1024.26 Q159.052 1024.26 161.343 1022.52 Q163.658 1020.78 163.658 1017.47 Q163.658 1014.42 161.505 1012.7 Q159.376 1010.97 155.556 1010.97 L151.528 1010.97 L151.528 1007.13 L155.741 1007.13 Q159.19 1007.13 161.019 1005.76 Q162.848 1004.37 162.848 1001.78 Q162.848 999.116 160.95 997.704 Q159.075 996.269 155.556 996.269 Q153.635 996.269 151.436 996.686 Q149.237 997.103 146.598 997.982 L146.598 993.816 Q149.26 993.075 151.575 992.704 Q153.913 992.334 155.973 992.334 Q161.297 992.334 164.399 994.765 Q167.501 997.172 167.501 1001.29 Q167.501 1004.16 165.857 1006.15 Q164.214 1008.12 161.181 1008.88 Z" fill="#000000" fill-rule="nonzero" fill-opacity="1" /><path clip-path="url(#clip150)" d="M175.996 992.959 L198.218 992.959 L198.218 994.95 L185.672 1027.52 L180.788 1027.52 L192.593 996.894 L175.996 996.894 L175.996 992.959 Z" fill="#000000" fill-rule="nonzero" fill-opacity="1" /><path clip-path="url(#clip150)" d="M207.338 1021.64 L212.223 1021.64 L212.223 1027.52 L207.338 1027.52 L207.338 1021.64 Z" fill="#000000" fill-rule="nonzero" fill-opacity="1" /><path clip-path="url(#clip150)" d="M222.454 992.959 L240.81 992.959 L240.81 996.894 L226.736 996.894 L226.736 1005.37 Q227.755 1005.02 228.773 1004.86 Q229.792 1004.67 230.81 1004.67 Q236.597 1004.67 239.977 1007.84 Q243.357 1011.01 243.357 1016.43 Q243.357 1022.01 239.884 1025.11 Q236.412 1028.19 230.093 1028.19 Q227.917 1028.19 225.648 1027.82 Q223.403 1027.45 220.996 1026.71 L220.996 1022.01 Q223.079 1023.14 225.301 1023.7 Q227.523 1024.26 230 1024.26 Q234.005 1024.26 236.343 1022.15 Q238.681 1020.04 238.681 1016.43 Q238.681 1012.82 236.343 1010.71 Q234.005 1008.61 230 1008.61 Q228.125 1008.61 226.25 1009.02 Q224.398 1009.44 222.454 1010.32 L222.454 992.959 Z" fill="#000000" fill-rule="nonzero" fill-opacity="1" /><path clip-path="url(#clip150)" d="M119.885 782.562 L136.204 782.562 L136.204 786.498 L114.26 786.498 L114.26 782.562 Q116.922 779.808 121.505 775.178 Q126.112 770.525 127.292 769.183 Q129.538 766.66 130.417 764.924 Q131.32 763.164 131.32 761.474 Q131.32 758.72 129.376 756.984 Q127.455 755.248 124.353 755.248 Q122.154 755.248 119.7 756.012 Q117.269 756.775 114.492 758.326 L114.492 753.604 Q117.316 752.47 119.769 751.891 Q122.223 751.313 124.26 751.313 Q129.63 751.313 132.825 753.998 Q136.019 756.683 136.019 761.174 Q136.019 763.303 135.209 765.224 Q134.422 767.123 132.316 769.715 Q131.737 770.386 128.635 773.604 Q125.533 776.798 119.885 782.562 Z" fill="#000000" fill-rule="nonzero" fill-opacity="1" /><path clip-path="url(#clip150)" d="M158.866 756.012 L147.061 774.461 L158.866 774.461 L158.866 756.012 M157.64 751.938 L163.519 751.938 L163.519 774.461 L168.45 774.461 L168.45 778.349 L163.519 778.349 L163.519 786.498 L158.866 786.498 L158.866 778.349 L143.265 778.349 L143.265 773.836 L157.64 751.938 Z" fill="#000000" fill-rule="nonzero" fill-opacity="1" /><path clip-path="url(#clip150)" d="M186.181 755.016 Q182.57 755.016 180.741 758.581 Q178.936 762.123 178.936 769.252 Q178.936 776.359 180.741 779.923 Q182.57 783.465 186.181 783.465 Q189.815 783.465 191.621 779.923 Q193.45 776.359 193.45 769.252 Q193.45 762.123 191.621 758.581 Q189.815 755.016 186.181 755.016 M186.181 751.313 Q191.991 751.313 195.047 755.919 Q198.125 760.502 198.125 769.252 Q198.125 777.979 195.047 782.585 Q191.991 787.169 186.181 787.169 Q180.371 787.169 177.292 782.585 Q174.237 777.979 174.237 769.252 Q174.237 760.502 177.292 755.919 Q180.371 751.313 186.181 751.313 Z" fill="#000000" fill-rule="nonzero" fill-opacity="1" /><path clip-path="url(#clip150)" d="M206.343 780.618 L211.227 780.618 L211.227 786.498 L206.343 786.498 L206.343 780.618 Z" fill="#000000" fill-rule="nonzero" fill-opacity="1" /><path clip-path="url(#clip150)" d="M231.412 755.016 Q227.801 755.016 225.973 758.581 Q224.167 762.123 224.167 769.252 Q224.167 776.359 225.973 779.923 Q227.801 783.465 231.412 783.465 Q235.047 783.465 236.852 779.923 Q238.681 776.359 238.681 769.252 Q238.681 762.123 236.852 758.581 Q235.047 755.016 231.412 755.016 M231.412 751.313 Q237.222 751.313 240.278 755.919 Q243.357 760.502 243.357 769.252 Q243.357 777.979 240.278 782.585 Q237.222 787.169 231.412 787.169 Q225.602 787.169 222.523 782.585 Q219.468 777.979 219.468 769.252 Q219.468 760.502 222.523 755.919 Q225.602 751.313 231.412 751.313 Z" fill="#000000" fill-rule="nonzero" fill-opacity="1" /><path clip-path="url(#clip150)" d="M120.88 541.541 L137.2 541.541 L137.2 545.476 L115.256 545.476 L115.256 541.541 Q117.918 538.786 122.501 534.157 Q127.107 529.504 128.288 528.161 Q130.533 525.638 131.413 523.902 Q132.316 522.143 132.316 520.453 Q132.316 517.698 130.371 515.962 Q128.45 514.226 125.348 514.226 Q123.149 514.226 120.695 514.99 Q118.265 515.754 115.487 517.305 L115.487 512.583 Q118.311 511.448 120.765 510.87 Q123.218 510.291 125.255 510.291 Q130.626 510.291 133.82 512.976 Q137.015 515.661 137.015 520.152 Q137.015 522.282 136.204 524.203 Q135.417 526.101 133.311 528.694 Q132.732 529.365 129.63 532.582 Q126.529 535.777 120.88 541.541 Z" fill="#000000" fill-rule="nonzero" fill-opacity="1" /><path clip-path="url(#clip150)" d="M159.862 514.99 L148.056 533.439 L159.862 533.439 L159.862 514.99 M158.635 510.916 L164.515 510.916 L164.515 533.439 L169.445 533.439 L169.445 537.328 L164.515 537.328 L164.515 545.476 L159.862 545.476 L159.862 537.328 L144.26 537.328 L144.26 532.814 L158.635 510.916 Z" fill="#000000" fill-rule="nonzero" fill-opacity="1" /><path clip-path="url(#clip150)" d="M181.204 541.541 L197.524 541.541 L197.524 545.476 L175.579 545.476 L175.579 541.541 Q178.241 538.786 182.825 534.157 Q187.431 529.504 188.612 528.161 Q190.857 525.638 191.737 523.902 Q192.639 522.143 192.639 520.453 Q192.639 517.698 190.695 515.962 Q188.774 514.226 185.672 514.226 Q183.473 514.226 181.019 514.99 Q178.589 515.754 175.811 517.305 L175.811 512.583 Q178.635 511.448 181.089 510.87 Q183.542 510.291 185.579 510.291 Q190.95 510.291 194.144 512.976 Q197.338 515.661 197.338 520.152 Q197.338 522.282 196.528 524.203 Q195.741 526.101 193.635 528.694 Q193.056 529.365 189.954 532.582 Q186.852 535.777 181.204 541.541 Z" fill="#000000" fill-rule="nonzero" fill-opacity="1" /><path clip-path="url(#clip150)" d="M207.338 539.596 L212.223 539.596 L212.223 545.476 L207.338 545.476 L207.338 539.596 Z" fill="#000000" fill-rule="nonzero" fill-opacity="1" /><path clip-path="url(#clip150)" d="M222.454 510.916 L240.81 510.916 L240.81 514.851 L226.736 514.851 L226.736 523.323 Q227.755 522.976 228.773 522.814 Q229.792 522.629 230.81 522.629 Q236.597 522.629 239.977 525.8 Q243.357 528.971 243.357 534.388 Q243.357 539.967 239.884 543.069 Q236.412 546.147 230.093 546.147 Q227.917 546.147 225.648 545.777 Q223.403 545.406 220.996 544.666 L220.996 539.967 Q223.079 541.101 225.301 541.656 Q227.523 542.212 230 542.212 Q234.005 542.212 236.343 540.106 Q238.681 537.999 238.681 534.388 Q238.681 530.777 236.343 528.67 Q234.005 526.564 230 526.564 Q228.125 526.564 226.25 526.981 Q224.398 527.397 222.454 528.277 L222.454 510.916 Z" fill="#000000" fill-rule="nonzero" fill-opacity="1" /><path clip-path="url(#clip150)" d="M119.885 300.519 L136.204 300.519 L136.204 304.454 L114.26 304.454 L114.26 300.519 Q116.922 297.765 121.505 293.135 Q126.112 288.482 127.292 287.14 Q129.538 284.616 130.417 282.88 Q131.32 281.121 131.32 279.431 Q131.32 276.677 129.376 274.941 Q127.455 273.204 124.353 273.204 Q122.154 273.204 119.7 273.968 Q117.269 274.732 114.492 276.283 L114.492 271.561 Q117.316 270.427 119.769 269.848 Q122.223 269.269 124.26 269.269 Q129.63 269.269 132.825 271.954 Q136.019 274.64 136.019 279.13 Q136.019 281.26 135.209 283.181 Q134.422 285.079 132.316 287.672 Q131.737 288.343 128.635 291.561 Q125.533 294.755 119.885 300.519 Z" fill="#000000" fill-rule="nonzero" fill-opacity="1" /><path clip-path="url(#clip150)" d="M158.866 273.968 L147.061 292.417 L158.866 292.417 L158.866 273.968 M157.64 269.894 L163.519 269.894 L163.519 292.417 L168.45 292.417 L168.45 296.306 L163.519 296.306 L163.519 304.454 L158.866 304.454 L158.866 296.306 L143.265 296.306 L143.265 291.792 L157.64 269.894 Z" fill="#000000" fill-rule="nonzero" fill-opacity="1" /><path clip-path="url(#clip150)" d="M176.227 269.894 L194.584 269.894 L194.584 273.829 L180.51 273.829 L180.51 282.302 Q181.528 281.954 182.547 281.792 Q183.565 281.607 184.584 281.607 Q190.371 281.607 193.75 284.778 Q197.13 287.95 197.13 293.366 Q197.13 298.945 193.658 302.047 Q190.186 305.126 183.866 305.126 Q181.69 305.126 179.422 304.755 Q177.176 304.385 174.769 303.644 L174.769 298.945 Q176.852 300.079 179.075 300.635 Q181.297 301.19 183.774 301.19 Q187.778 301.19 190.116 299.084 Q192.454 296.977 192.454 293.366 Q192.454 289.755 190.116 287.649 Q187.778 285.542 183.774 285.542 Q181.899 285.542 180.024 285.959 Q178.172 286.376 176.227 287.255 L176.227 269.894 Z" fill="#000000" fill-rule="nonzero" fill-opacity="1" /><path clip-path="url(#clip150)" d="M206.343 298.575 L211.227 298.575 L211.227 304.454 L206.343 304.454 L206.343 298.575 Z" fill="#000000" fill-rule="nonzero" fill-opacity="1" /><path clip-path="url(#clip150)" d="M231.412 272.973 Q227.801 272.973 225.973 276.538 Q224.167 280.079 224.167 287.209 Q224.167 294.315 225.973 297.88 Q227.801 301.422 231.412 301.422 Q235.047 301.422 236.852 297.88 Q238.681 294.315 238.681 287.209 Q238.681 280.079 236.852 276.538 Q235.047 272.973 231.412 272.973 M231.412 269.269 Q237.222 269.269 240.278 273.876 Q243.357 278.459 243.357 287.209 Q243.357 295.936 240.278 300.542 Q237.222 305.126 231.412 305.126 Q225.602 305.126 222.523 300.542 Q219.468 295.936 219.468 287.209 Q219.468 278.459 222.523 273.876 Q225.602 269.269 231.412 269.269 Z" fill="#000000" fill-rule="nonzero" fill-opacity="1" /><path clip-path="url(#clip150)" d="M16.4842 754.07 L16.4842 747.641 L36.568 747.641 L16.4842 726.316 L16.4842 718.04 L38.6368 741.625 L64.0042 716.354 L64.0042 724.82 L41.1194 747.641 L64.0042 747.641 L64.0042 754.07 L16.4842 754.07 Z" fill="#000000" fill-rule="nonzero" fill-opacity="1" /><polyline clip-path="url(#clip152)" style="stroke:#d94601; stroke-linecap:round; stroke-linejoin:round; stroke-width:4; stroke-opacity:1; fill:none" points="338.038,1384.24 357.598,1276.9 377.159,1165.51 396.719,1042.89 416.279,915.534 435.84,788.343 455.4,751.329 474.96,714.315 494.521,682.792 514.081,653.48 533.641,629.042 553.202,604.603 572.762,580.348 592.323,561.122 611.883,541.895 631.443,522.669 651.004,506.181 670.564,491.192 690.124,476.202 709.685,461.212 729.245,446.222 748.806,434.517 768.366,423.081 787.926,411.645 807.487,400.208 827.047,388.772 846.607,377.832 866.168,369.175 885.728,360.518 905.289,351.861 924.849,343.204 944.409,334.548 963.97,325.891 983.53,317.234 1003.09,310.652 1022.65,304.146 1042.21,297.639 1061.77,291.133 1081.33,284.627 1100.89,278.12 1120.45,271.614 1140.01,265.108 1159.57,259.158 1179.13,254.272 1198.69,249.386 1218.25,244.5 1237.81,239.614 1257.38,234.728 1276.94,229.843 1296.5,224.957 1316.06,220.071 1335.62,215.185 1355.18,210.492 1374.74,206.818 1394.3,203.145 1413.86,199.472 1433.42,195.798 1452.98,192.125 1472.54,188.452 1492.1,184.778 1511.66,181.105 1531.22,177.432 1550.78,173.758 1570.34,170.085 1589.9,166.819 1609.46,164.047 1629.02,161.274 1648.58,158.502 1668.14,155.729 1687.7,152.957 1707.26,150.184 1726.82,147.412 1746.38,144.639 1765.94,141.866 1785.51,139.094 1805.07,136.321 1824.63,133.549 1844.19,130.973 1863.75,128.866 1883.31,126.76 1902.87,124.654 1922.43,122.548 1941.99,120.442 1961.55,118.336 1981.11,116.23 2000.67,114.124 2020.23,112.018 2039.79,109.912 2059.35,107.805 2078.91,105.699 2098.47,103.593 2118.03,101.487 2137.59,99.7774 2157.15,98.0785 2176.71,96.3795 2196.27,94.6805 2215.83,92.9816 2235.39,91.2826 2254.95,89.5836 2274.51,87.8846 2294.07,86.1857 "/>
<line clip-path="url(#clip152)" x1="338.038" y1="1384.24" x2="338.038" y2="1368.24" style="stroke:#d94601; stroke-width:3.2; stroke-opacity:1"/>
<line clip-path="url(#clip152)" x1="338.038" y1="1384.24" x2="322.038" y2="1384.24" style="stroke:#d94601; stroke-width:3.2; stroke-opacity:1"/>
<line clip-path="url(#clip152)" x1="338.038" y1="1384.24" x2="338.038" y2="1400.24" style="stroke:#d94601; stroke-width:3.2; stroke-opacity:1"/>
<line clip-path="url(#clip152)" x1="338.038" y1="1384.24" x2="354.038" y2="1384.24" style="stroke:#d94601; stroke-width:3.2; stroke-opacity:1"/>
<line clip-path="url(#clip152)" x1="729.245" y1="446.222" x2="729.245" y2="430.222" style="stroke:#d94601; stroke-width:3.2; stroke-opacity:1"/>
<line clip-path="url(#clip152)" x1="729.245" y1="446.222" x2="713.245" y2="446.222" style="stroke:#d94601; stroke-width:3.2; stroke-opacity:1"/>
<line clip-path="url(#clip152)" x1="729.245" y1="446.222" x2="729.245" y2="462.222" style="stroke:#d94601; stroke-width:3.2; stroke-opacity:1"/>
<line clip-path="url(#clip152)" x1="729.245" y1="446.222" x2="745.245" y2="446.222" style="stroke:#d94601; stroke-width:3.2; stroke-opacity:1"/>
<line clip-path="url(#clip152)" x1="1120.45" y1="271.614" x2="1120.45" y2="255.614" style="stroke:#d94601; stroke-width:3.2; stroke-opacity:1"/>
<line clip-path="url(#clip152)" x1="1120.45" y1="271.614" x2="1104.45" y2="271.614" style="stroke:#d94601; stroke-width:3.2; stroke-opacity:1"/>
<line clip-path="url(#clip152)" x1="1120.45" y1="271.614" x2="1120.45" y2="287.614" style="stroke:#d94601; stroke-width:3.2; stroke-opacity:1"/>
<line clip-path="url(#clip152)" x1="1120.45" y1="271.614" x2="1136.45" y2="271.614" style="stroke:#d94601; stroke-width:3.2; stroke-opacity:1"/>
<line clip-path="url(#clip152)" x1="1511.66" y1="181.105" x2="1511.66" y2="165.105" style="stroke:#d94601; stroke-width:3.2; stroke-opacity:1"/>
<line clip-path="url(#clip152)" x1="1511.66" y1="181.105" x2="1495.66" y2="181.105" style="stroke:#d94601; stroke-width:3.2; stroke-opacity:1"/>
<line clip-path="url(#clip152)" x1="1511.66" y1="181.105" x2="1511.66" y2="197.105" style="stroke:#d94601; stroke-width:3.2; stroke-opacity:1"/>
<line clip-path="url(#clip152)" x1="1511.66" y1="181.105" x2="1527.66" y2="181.105" style="stroke:#d94601; stroke-width:3.2; stroke-opacity:1"/>
<line clip-path="url(#clip152)" x1="1902.87" y1="124.654" x2="1902.87" y2="108.654" style="stroke:#d94601; stroke-width:3.2; stroke-opacity:1"/>
<line clip-path="url(#clip152)" x1="1902.87" y1="124.654" x2="1886.87" y2="124.654" style="stroke:#d94601; stroke-width:3.2; stroke-opacity:1"/>
<line clip-path="url(#clip152)" x1="1902.87" y1="124.654" x2="1902.87" y2="140.654" style="stroke:#d94601; stroke-width:3.2; stroke-opacity:1"/>
<line clip-path="url(#clip152)" x1="1902.87" y1="124.654" x2="1918.87" y2="124.654" style="stroke:#d94601; stroke-width:3.2; stroke-opacity:1"/>
<line clip-path="url(#clip152)" x1="2294.07" y1="86.1857" x2="2294.07" y2="70.1857" style="stroke:#d94601; stroke-width:3.2; stroke-opacity:1"/>
<line clip-path="url(#clip152)" x1="2294.07" y1="86.1857" x2="2278.07" y2="86.1857" style="stroke:#d94601; stroke-width:3.2; stroke-opacity:1"/>
<line clip-path="url(#clip152)" x1="2294.07" y1="86.1857" x2="2294.07" y2="102.186" style="stroke:#d94601; stroke-width:3.2; stroke-opacity:1"/>
<line clip-path="url(#clip152)" x1="2294.07" y1="86.1857" x2="2310.07" y2="86.1857" style="stroke:#d94601; stroke-width:3.2; stroke-opacity:1"/>
<path clip-path="url(#clip150)" d="M348.47 196.789 L778.13 196.789 L778.13 93.1086 L348.47 93.1086  Z" fill="#ffffff" fill-rule="evenodd" fill-opacity="1"/>
<polyline clip-path="url(#clip150)" style="stroke:#000000; stroke-linecap:round; stroke-linejoin:round; stroke-width:4; stroke-opacity:1; fill:none" points="348.47,196.789 778.13,196.789 778.13,93.1086 348.47,93.1086 348.47,196.789 "/>
<polyline clip-path="url(#clip150)" style="stroke:#d94601; stroke-linecap:round; stroke-linejoin:round; stroke-width:4; stroke-opacity:1; fill:none" points="371.508,144.949 509.734,144.949 "/>
<line clip-path="url(#clip150)" x1="440.621" y1="144.949" x2="440.621" y2="123.617" style="stroke:#d94601; stroke-width:4.55111; stroke-opacity:1"/>
<line clip-path="url(#clip150)" x1="440.621" y1="144.949" x2="419.29" y2="144.949" style="stroke:#d94601; stroke-width:4.55111; stroke-opacity:1"/>
<line clip-path="url(#clip150)" x1="440.621" y1="144.949" x2="440.621" y2="166.28" style="stroke:#d94601; stroke-width:4.55111; stroke-opacity:1"/>
<line clip-path="url(#clip150)" x1="440.621" y1="144.949" x2="461.952" y2="144.949" style="stroke:#d94601; stroke-width:4.55111; stroke-opacity:1"/>
<path clip-path="url(#clip150)" d="M565.4 122.039 Q565.4 122.484 565.306 122.859 L563.994 131.197 Q563.924 131.83 563.783 132.064 Q563.666 132.298 563.292 132.298 Q562.706 132.298 562.706 131.689 Q562.706 131.338 562.847 130.776 Q563.245 128.129 563.245 126.934 Q563.245 126.138 563.081 125.552 Q562.94 124.943 562.706 124.522 Q562.495 124.1 562.003 123.819 Q561.511 123.538 561.043 123.374 Q560.575 123.21 559.731 123.14 Q558.888 123.046 558.162 123.023 Q557.436 122.999 556.241 122.999 Q553.642 122.999 553.22 123.093 Q552.775 123.21 552.541 123.561 Q552.33 123.889 552.096 124.873 L545.725 150.333 L545.537 151.34 Q545.537 151.903 545.889 152.09 Q546.24 152.277 547.317 152.394 Q548.863 152.512 550.386 152.512 Q550.433 152.512 550.526 152.512 Q551.042 152.512 551.252 152.535 Q551.463 152.535 551.674 152.582 Q551.885 152.629 551.932 152.746 Q552.002 152.84 552.002 153.027 Q552.002 153.472 551.815 153.706 Q551.627 153.917 551.44 153.964 Q551.276 153.987 550.948 153.987 Q550.292 153.987 548.887 153.94 Q547.481 153.894 546.779 153.894 L542.797 153.847 L538.721 153.894 Q538.089 153.894 536.754 153.94 Q535.419 153.987 534.786 153.987 Q533.967 153.987 533.967 153.402 Q533.967 152.746 534.271 152.629 Q534.599 152.512 535.981 152.512 Q537.925 152.512 538.979 152.418 Q540.033 152.324 540.595 151.996 Q541.181 151.668 541.345 151.34 Q541.509 150.989 541.696 150.193 L548.137 124.592 Q548.325 124.03 548.325 123.585 Q548.325 123.351 548.254 123.257 Q548.208 123.163 547.903 123.093 Q547.599 122.999 546.966 122.999 L545.092 122.999 Q543.172 122.999 541.977 123.093 Q540.806 123.163 539.682 123.515 Q538.581 123.866 537.925 124.358 Q537.293 124.85 536.59 125.857 Q535.887 126.864 535.372 128.082 Q534.88 129.3 534.177 131.291 Q533.943 131.947 533.803 132.134 Q533.686 132.298 533.358 132.298 Q533.123 132.298 532.936 132.157 Q532.772 131.994 532.772 131.783 Q533.006 131.01 533.053 130.916 L535.934 122.461 Q536.168 121.781 536.379 121.664 Q536.613 121.524 537.48 121.524 L564.088 121.524 Q564.51 121.524 564.65 121.524 Q564.791 121.524 565.025 121.571 Q565.259 121.617 565.329 121.735 Q565.4 121.852 565.4 122.039 Z" fill="#000000" fill-rule="nonzero" fill-opacity="1" /><path clip-path="url(#clip150)" d="M570.189 154.623 L570.189 153.573 L572.829 153.573 L572.829 149.72 Q572.829 147.228 574.436 145.802 Q576.059 144.375 578.043 144.375 Q579.354 144.375 580.207 145.08 Q581.059 145.785 581.059 146.736 Q581.059 147.376 580.666 147.802 Q580.289 148.212 579.584 148.212 Q578.912 148.212 578.518 147.786 Q578.141 147.359 578.141 146.769 Q578.141 145.687 579.141 145.359 Q578.633 145.129 578.043 145.113 Q576.829 145.113 575.878 146.359 Q574.944 147.605 574.944 149.687 L574.944 153.573 L578.879 153.573 L578.879 154.623 L575.059 154.623 L575.059 165.427 Q575.059 166.395 575.452 166.706 Q575.862 167.018 577.6 167.018 L578.305 167.018 L578.305 168.051 Q576.96 167.952 574.042 167.952 Q573.632 167.952 572.993 167.969 Q572.37 167.985 571.517 168.018 Q570.681 168.051 570.222 168.051 L570.222 167.018 Q572.009 167.018 572.419 166.805 Q572.829 166.575 572.829 165.493 L572.829 154.623 L570.189 154.623 Z" fill="#000000" fill-rule="nonzero" fill-opacity="1" /><path clip-path="url(#clip150)" d="M587.338 148.108 L592.222 148.108 L592.222 152.089 L588.426 159.496 L585.44 159.496 L587.338 152.089 L587.338 148.108 Z" fill="#000000" fill-rule="nonzero" fill-opacity="1" /><path clip-path="url(#clip150)" d="M636.574 133.038 Q638.171 130.168 640.393 128.802 Q642.616 127.436 645.625 127.436 Q649.676 127.436 651.875 130.284 Q654.074 133.108 654.074 138.339 L654.074 153.987 L649.791 153.987 L649.791 138.478 Q649.791 134.751 648.472 132.946 Q647.153 131.14 644.444 131.14 Q641.134 131.14 639.213 133.339 Q637.291 135.538 637.291 139.335 L637.291 153.987 L633.009 153.987 L633.009 138.478 Q633.009 134.728 631.69 132.946 Q630.37 131.14 627.616 131.14 Q624.352 131.14 622.43 133.362 Q620.509 135.561 620.509 139.335 L620.509 153.987 L616.227 153.987 L616.227 128.061 L620.509 128.061 L620.509 132.089 Q621.967 129.705 624.004 128.571 Q626.042 127.436 628.842 127.436 Q631.666 127.436 633.634 128.872 Q635.625 130.307 636.574 133.038 Z" fill="#000000" fill-rule="nonzero" fill-opacity="1" /><path clip-path="url(#clip150)" d="M672.615 131.048 Q669.189 131.048 667.199 133.733 Q665.208 136.395 665.208 141.047 Q665.208 145.7 667.176 148.385 Q669.166 151.047 672.615 151.047 Q676.018 151.047 678.009 148.362 Q680 145.677 680 141.047 Q680 136.441 678.009 133.756 Q676.018 131.048 672.615 131.048 M672.615 127.436 Q678.171 127.436 681.342 131.048 Q684.513 134.659 684.513 141.047 Q684.513 147.413 681.342 151.047 Q678.171 154.659 672.615 154.659 Q667.037 154.659 663.865 151.047 Q660.717 147.413 660.717 141.047 Q660.717 134.659 663.865 131.048 Q667.037 127.436 672.615 127.436 Z" fill="#000000" fill-rule="nonzero" fill-opacity="1" /><path clip-path="url(#clip150)" d="M708.634 131.997 L708.634 117.969 L712.893 117.969 L712.893 153.987 L708.634 153.987 L708.634 150.098 Q707.291 152.413 705.231 153.547 Q703.194 154.659 700.324 154.659 Q695.624 154.659 692.662 150.909 Q689.722 147.159 689.722 141.047 Q689.722 134.936 692.662 131.186 Q695.624 127.436 700.324 127.436 Q703.194 127.436 705.231 128.571 Q707.291 129.682 708.634 131.997 M694.12 141.047 Q694.12 145.747 696.041 148.432 Q697.986 151.094 701.365 151.094 Q704.745 151.094 706.689 148.432 Q708.634 145.747 708.634 141.047 Q708.634 136.348 706.689 133.686 Q704.745 131.001 701.365 131.001 Q697.986 131.001 696.041 133.686 Q694.12 136.348 694.12 141.047 Z" fill="#000000" fill-rule="nonzero" fill-opacity="1" /><path clip-path="url(#clip150)" d="M743.842 139.96 L743.842 142.043 L724.259 142.043 Q724.536 146.441 726.897 148.756 Q729.282 151.047 733.518 151.047 Q735.971 151.047 738.263 150.446 Q740.578 149.844 742.846 148.64 L742.846 152.668 Q740.555 153.64 738.147 154.149 Q735.74 154.659 733.263 154.659 Q727.059 154.659 723.425 151.047 Q719.814 147.436 719.814 141.279 Q719.814 134.913 723.24 131.186 Q726.689 127.436 732.522 127.436 Q737.754 127.436 740.786 130.816 Q743.842 134.173 743.842 139.96 M739.583 138.71 Q739.536 135.214 737.615 133.131 Q735.717 131.048 732.569 131.048 Q729.004 131.048 726.851 133.061 Q724.722 135.075 724.397 138.733 L739.583 138.71 Z" fill="#000000" fill-rule="nonzero" fill-opacity="1" /><path clip-path="url(#clip150)" d="M750.833 117.969 L755.092 117.969 L755.092 153.987 L750.833 153.987 L750.833 117.969 Z" fill="#000000" fill-rule="nonzero" fill-opacity="1" /></svg>
