<?xml version="1.0" encoding="utf-8"?>
<svg xmlns="http://www.w3.org/2000/svg" xmlns:xlink="http://www.w3.org/1999/xlink" width="600" height="400" viewBox="0 0 2400 1600">
<defs>
  <clipPath id="clip210">
    <rect x="0" y="0" width="2400" height="1600"/>
  </clipPath>
</defs>
<path clip-path="url(#clip210)" d="M0 1600 L2400 1600 L2400 0 L0 0  Z" fill="#ffffff" fill-rule="evenodd" fill-opacity="1"/>
<defs>
  <clipPath id="clip211">
    <rect x="234" y="47" width="2119" height="1377"/>
  </clipPath>
</defs>
<path clip-path="url(#clip210)" d="M234.125 1423.18 L2352.76 1423.18 L2352.76 47.2441 L234.125 47.2441  Z" fill="#ffffff" fill-rule="evenodd" fill-opacity="1"/>
<defs>
  <clipPath id="clip212">
    <rect x="234" y="47" width="2120" height="1377"/>
  </clipPath>
</defs>
<polyline clip-path="url(#clip212)" style="stroke:#000000; stroke-linecap:round; stroke-linejoin:round; stroke-width:2; stroke-opacity:0.1; fill:none" points="294.087,1423.18 294.087,47.2441 "/>
<polyline clip-path="url(#clip212)" style="stroke:#000000; stroke-linecap:round; stroke-linejoin:round; stroke-width:2; stroke-opacity:0.1; fill:none" points="661.587,1423.18 661.587,47.2441 "/>
<polyline clip-path="url(#clip212)" style="stroke:#000000; stroke-linecap:round; stroke-linejoin:round; stroke-width:2; stroke-opacity:0.1; fill:none" points="1029.09,1423.18 1029.09,47.2441 "/>
<polyline clip-path="url(#clip212)" style="stroke:#000000; stroke-linecap:round; stroke-linejoin:round; stroke-width:2; stroke-opacity:0.1; fill:none" points="1396.59,1423.18 1396.59,47.2441 "/>
<polyline clip-path="url(#clip212)" style="stroke:#000000; stroke-linecap:round; stroke-linejoin:round; stroke-width:2; stroke-opacity:0.1; fill:none" points="1764.09,1423.18 1764.09,47.2441 "/>
<polyline clip-path="url(#clip212)" style="stroke:#000000; stroke-linecap:round; stroke-linejoin:round; stroke-width:2; stroke-opacity:0.1; fill:none" points="2131.59,1423.18 2131.59,47.2441 "/>
<polyline clip-path="url(#clip212)" style="stroke:#000000; stroke-linecap:round; stroke-linejoin:round; stroke-width:2; stroke-opacity:0.1; fill:none" points="234.125,1193.03 2352.76,1193.03 "/>
<polyline clip-path="url(#clip212)" style="stroke:#000000; stroke-linecap:round; stroke-linejoin:round; stroke-width:2; stroke-opacity:0.1; fill:none" points="234.125,909.342 2352.76,909.342 "/>
<polyline clip-path="url(#clip212)" style="stroke:#000000; stroke-linecap:round; stroke-linejoin:round; stroke-width:2; stroke-opacity:0.1; fill:none" points="234.125,625.653 2352.76,625.653 "/>
<polyline clip-path="url(#clip212)" style="stroke:#000000; stroke-linecap:round; stroke-linejoin:round; stroke-width:2; stroke-opacity:0.1; fill:none" points="234.125,341.964 2352.76,341.964 "/>
<polyline clip-path="url(#clip212)" style="stroke:#000000; stroke-linecap:round; stroke-linejoin:round; stroke-width:2; stroke-opacity:0.1; fill:none" points="234.125,58.2745 2352.76,58.2745 "/>
<polyline clip-path="url(#clip210)" style="stroke:#000000; stroke-linecap:round; stroke-linejoin:round; stroke-width:4; stroke-opacity:1; fill:none" points="234.125,1423.18 2352.76,1423.18 "/>
<polyline clip-path="url(#clip210)" style="stroke:#000000; stroke-linecap:round; stroke-linejoin:round; stroke-width:4; stroke-opacity:1; fill:none" points="294.087,1423.18 294.087,1404.28 "/>
<polyline clip-path="url(#clip210)" style="stroke:#000000; stroke-linecap:round; stroke-linejoin:round; stroke-width:4; stroke-opacity:1; fill:none" points="661.587,1423.18 661.587,1404.28 "/>
<polyline clip-path="url(#clip210)" style="stroke:#000000; stroke-linecap:round; stroke-linejoin:round; stroke-width:4; stroke-opacity:1; fill:none" points="1029.09,1423.18 1029.09,1404.28 "/>
<polyline clip-path="url(#clip210)" style="stroke:#000000; stroke-linecap:round; stroke-linejoin:round; stroke-width:4; stroke-opacity:1; fill:none" points="1396.59,1423.18 1396.59,1404.28 "/>
<polyline clip-path="url(#clip210)" style="stroke:#000000; stroke-linecap:round; stroke-linejoin:round; stroke-width:4; stroke-opacity:1; fill:none" points="1764.09,1423.18 1764.09,1404.28 "/>
<polyline clip-path="url(#clip210)" style="stroke:#000000; stroke-linecap:round; stroke-linejoin:round; stroke-width:4; stroke-opacity:1; fill:none" points="2131.59,1423.18 2131.59,1404.28 "/>
<path clip-path="url(#clip210)" d="M271.471 1454.1 Q267.86 1454.1 266.031 1457.66 Q264.226 1461.2 264.226 1468.33 Q264.226 1475.44 266.031 1479.01 Q267.86 1482.55 271.471 1482.55 Q275.105 1482.55 276.911 1479.01 Q278.74 1475.44 278.74 1468.33 Q278.74 1461.2 276.911 1457.66 Q275.105 1454.1 271.471 1454.1 M271.471 1450.39 Q277.281 1450.39 280.337 1455 Q283.415 1459.58 283.415 1468.33 Q283.415 1477.06 280.337 1481.67 Q277.281 1486.25 271.471 1486.25 Q265.661 1486.25 262.582 1481.67 Q259.527 1477.06 259.527 1468.33 Q259.527 1459.58 262.582 1455 Q265.661 1450.39 271.471 1450.39 Z" fill="#000000" fill-rule="nonzero" fill-opacity="1" /><path clip-path="url(#clip210)" d="M291.633 1479.7 L296.517 1479.7 L296.517 1485.58 L291.633 1485.58 L291.633 1479.7 Z" fill="#000000" fill-rule="nonzero" fill-opacity="1" /><path clip-path="url(#clip210)" d="M316.702 1454.1 Q313.091 1454.1 311.263 1457.66 Q309.457 1461.2 309.457 1468.33 Q309.457 1475.44 311.263 1479.01 Q313.091 1482.55 316.702 1482.55 Q320.337 1482.55 322.142 1479.01 Q323.971 1475.44 323.971 1468.33 Q323.971 1461.2 322.142 1457.66 Q320.337 1454.1 316.702 1454.1 M316.702 1450.39 Q322.512 1450.39 325.568 1455 Q328.647 1459.58 328.647 1468.33 Q328.647 1477.06 325.568 1481.67 Q322.512 1486.25 316.702 1486.25 Q310.892 1486.25 307.813 1481.67 Q304.758 1477.06 304.758 1468.33 Q304.758 1459.58 307.813 1455 Q310.892 1450.39 316.702 1450.39 Z" fill="#000000" fill-rule="nonzero" fill-opacity="1" /><path clip-path="url(#clip210)" d="M633.323 1481.64 L649.642 1481.64 L649.642 1485.58 L627.698 1485.58 L627.698 1481.64 Q630.36 1478.89 634.943 1474.26 Q639.55 1469.61 640.73 1468.27 Q642.976 1465.74 643.855 1464.01 Q644.758 1462.25 644.758 1460.56 Q644.758 1457.8 642.814 1456.07 Q640.892 1454.33 637.79 1454.33 Q635.591 1454.33 633.138 1455.09 Q630.707 1455.86 627.929 1457.41 L627.929 1452.69 Q630.753 1451.55 633.207 1450.97 Q635.661 1450.39 637.698 1450.39 Q643.068 1450.39 646.263 1453.08 Q649.457 1455.77 649.457 1460.26 Q649.457 1462.39 648.647 1464.31 Q647.86 1466.2 645.753 1468.8 Q645.175 1469.47 642.073 1472.69 Q638.971 1475.88 633.323 1481.64 Z" fill="#000000" fill-rule="nonzero" fill-opacity="1" /><path clip-path="url(#clip210)" d="M659.457 1479.7 L664.341 1479.7 L664.341 1485.58 L659.457 1485.58 L659.457 1479.7 Z" fill="#000000" fill-rule="nonzero" fill-opacity="1" /><path clip-path="url(#clip210)" d="M674.573 1451.02 L692.929 1451.02 L692.929 1454.96 L678.855 1454.96 L678.855 1463.43 Q679.874 1463.08 680.892 1462.92 Q681.911 1462.73 682.929 1462.73 Q688.716 1462.73 692.096 1465.9 Q695.475 1469.08 695.475 1474.49 Q695.475 1480.07 692.003 1483.17 Q688.531 1486.25 682.211 1486.25 Q680.036 1486.25 677.767 1485.88 Q675.522 1485.51 673.114 1484.77 L673.114 1480.07 Q675.198 1481.2 677.42 1481.76 Q679.642 1482.32 682.119 1482.32 Q686.124 1482.32 688.461 1480.21 Q690.799 1478.1 690.799 1474.49 Q690.799 1470.88 688.461 1468.77 Q686.124 1466.67 682.119 1466.67 Q680.244 1466.67 678.369 1467.08 Q676.517 1467.5 674.573 1468.38 L674.573 1451.02 Z" fill="#000000" fill-rule="nonzero" fill-opacity="1" /><path clip-path="url(#clip210)" d="M996.251 1451.02 L1014.61 1451.02 L1014.61 1454.96 L1000.53 1454.96 L1000.53 1463.43 Q1001.55 1463.08 1002.57 1462.92 Q1003.59 1462.73 1004.61 1462.73 Q1010.39 1462.73 1013.77 1465.9 Q1017.15 1469.08 1017.15 1474.49 Q1017.15 1480.07 1013.68 1483.17 Q1010.21 1486.25 1003.89 1486.25 Q1001.71 1486.25 999.445 1485.88 Q997.2 1485.51 994.793 1484.77 L994.793 1480.07 Q996.876 1481.2 999.098 1481.76 Q1001.32 1482.32 1003.8 1482.32 Q1007.8 1482.32 1010.14 1480.21 Q1012.48 1478.1 1012.48 1474.49 Q1012.48 1470.88 1010.14 1468.77 Q1007.8 1466.67 1003.8 1466.67 Q1001.92 1466.67 1000.05 1467.08 Q998.195 1467.5 996.251 1468.38 L996.251 1451.02 Z" fill="#000000" fill-rule="nonzero" fill-opacity="1" /><path clip-path="url(#clip210)" d="M1026.37 1479.7 L1031.25 1479.7 L1031.25 1485.58 L1026.37 1485.58 L1026.37 1479.7 Z" fill="#000000" fill-rule="nonzero" fill-opacity="1" /><path clip-path="url(#clip210)" d="M1051.44 1454.1 Q1047.82 1454.1 1046 1457.66 Q1044.19 1461.2 1044.19 1468.33 Q1044.19 1475.44 1046 1479.01 Q1047.82 1482.55 1051.44 1482.55 Q1055.07 1482.55 1056.88 1479.01 Q1058.7 1475.44 1058.7 1468.33 Q1058.7 1461.2 1056.88 1457.66 Q1055.07 1454.1 1051.44 1454.1 M1051.44 1450.39 Q1057.25 1450.39 1060.3 1455 Q1063.38 1459.58 1063.38 1468.33 Q1063.38 1477.06 1060.3 1481.67 Q1057.25 1486.25 1051.44 1486.25 Q1045.63 1486.25 1042.55 1481.67 Q1039.49 1477.06 1039.49 1468.33 Q1039.49 1459.58 1042.55 1455 Q1045.63 1450.39 1051.44 1450.39 Z" fill="#000000" fill-rule="nonzero" fill-opacity="1" /><path clip-path="url(#clip210)" d="M1362.91 1451.02 L1385.13 1451.02 L1385.13 1453.01 L1372.58 1485.58 L1367.7 1485.58 L1379.5 1454.96 L1362.91 1454.96 L1362.91 1451.02 Z" fill="#000000" fill-rule="nonzero" fill-opacity="1" /><path clip-path="url(#clip210)" d="M1394.25 1479.7 L1399.13 1479.7 L1399.13 1485.58 L1394.25 1485.58 L1394.25 1479.7 Z" fill="#000000" fill-rule="nonzero" fill-opacity="1" /><path clip-path="url(#clip210)" d="M1409.36 1451.02 L1427.72 1451.02 L1427.72 1454.96 L1413.65 1454.96 L1413.65 1463.43 Q1414.67 1463.08 1415.68 1462.92 Q1416.7 1462.73 1417.72 1462.73 Q1423.51 1462.73 1426.89 1465.9 Q1430.27 1469.08 1430.27 1474.49 Q1430.27 1480.07 1426.79 1483.17 Q1423.32 1486.25 1417 1486.25 Q1414.83 1486.25 1412.56 1485.88 Q1410.31 1485.51 1407.91 1484.77 L1407.91 1480.07 Q1409.99 1481.2 1412.21 1481.76 Q1414.43 1482.32 1416.91 1482.32 Q1420.91 1482.32 1423.25 1480.21 Q1425.59 1478.1 1425.59 1474.49 Q1425.59 1470.88 1423.25 1468.77 Q1420.91 1466.67 1416.91 1466.67 Q1415.04 1466.67 1413.16 1467.08 Q1411.31 1467.5 1409.36 1468.38 L1409.36 1451.02 Z" fill="#000000" fill-rule="nonzero" fill-opacity="1" /><path clip-path="url(#clip210)" d="M1716.16 1481.64 L1723.8 1481.64 L1723.8 1455.28 L1715.49 1456.95 L1715.49 1452.69 L1723.75 1451.02 L1728.43 1451.02 L1728.43 1481.64 L1736.07 1481.64 L1736.07 1485.58 L1716.16 1485.58 L1716.16 1481.64 Z" fill="#000000" fill-rule="nonzero" fill-opacity="1" /><path clip-path="url(#clip210)" d="M1755.51 1454.1 Q1751.9 1454.1 1750.07 1457.66 Q1748.26 1461.2 1748.26 1468.33 Q1748.26 1475.44 1750.07 1479.01 Q1751.9 1482.55 1755.51 1482.55 Q1759.14 1482.55 1760.95 1479.01 Q1762.78 1475.44 1762.78 1468.33 Q1762.78 1461.2 1760.95 1457.66 Q1759.14 1454.1 1755.51 1454.1 M1755.51 1450.39 Q1761.32 1450.39 1764.38 1455 Q1767.45 1459.58 1767.45 1468.33 Q1767.45 1477.06 1764.38 1481.67 Q1761.32 1486.25 1755.51 1486.25 Q1749.7 1486.25 1746.62 1481.67 Q1743.57 1477.06 1743.57 1468.33 Q1743.57 1459.58 1746.62 1455 Q1749.7 1450.39 1755.51 1450.39 Z" fill="#000000" fill-rule="nonzero" fill-opacity="1" /><path clip-path="url(#clip210)" d="M1775.67 1479.7 L1780.56 1479.7 L1780.56 1485.58 L1775.67 1485.58 L1775.67 1479.7 Z" fill="#000000" fill-rule="nonzero" fill-opacity="1" /><path clip-path="url(#clip210)" d="M1800.74 1454.1 Q1797.13 1454.1 1795.3 1457.66 Q1793.5 1461.2 1793.5 1468.33 Q1793.5 1475.44 1795.3 1479.01 Q1797.13 1482.55 1800.74 1482.55 Q1804.38 1482.55 1806.18 1479.01 Q1808.01 1475.44 1808.01 1468.33 Q1808.01 1461.2 1806.18 1457.66 Q1804.38 1454.1 1800.74 1454.1 M1800.74 1450.39 Q1806.55 1450.39 1809.61 1455 Q1812.69 1459.58 1812.69 1468.33 Q1812.69 1477.06 1809.61 1481.67 Q1806.55 1486.25 1800.74 1486.25 Q1794.93 1486.25 1791.85 1481.67 Q1788.8 1477.06 1788.8 1468.33 Q1788.8 1459.58 1791.85 1455 Q1794.93 1450.39 1800.74 1450.39 Z" fill="#000000" fill-rule="nonzero" fill-opacity="1" /><path clip-path="url(#clip210)" d="M2084.16 1481.64 L2091.79 1481.64 L2091.79 1455.28 L2083.48 1456.95 L2083.48 1452.69 L2091.75 1451.02 L2096.42 1451.02 L2096.42 1481.64 L2104.06 1481.64 L2104.06 1485.58 L2084.16 1485.58 L2084.16 1481.64 Z" fill="#000000" fill-rule="nonzero" fill-opacity="1" /><path clip-path="url(#clip210)" d="M2117.54 1481.64 L2133.85 1481.64 L2133.85 1485.58 L2111.91 1485.58 L2111.91 1481.64 Q2114.57 1478.89 2119.16 1474.26 Q2123.76 1469.61 2124.94 1468.27 Q2127.19 1465.74 2128.07 1464.01 Q2128.97 1462.25 2128.97 1460.56 Q2128.97 1457.8 2127.03 1456.07 Q2125.1 1454.33 2122 1454.33 Q2119.8 1454.33 2117.35 1455.09 Q2114.92 1455.86 2112.14 1457.41 L2112.14 1452.69 Q2114.97 1451.55 2117.42 1450.97 Q2119.87 1450.39 2121.91 1450.39 Q2127.28 1450.39 2130.48 1453.08 Q2133.67 1455.77 2133.67 1460.26 Q2133.67 1462.39 2132.86 1464.31 Q2132.07 1466.2 2129.97 1468.8 Q2129.39 1469.47 2126.29 1472.69 Q2123.18 1475.88 2117.54 1481.64 Z" fill="#000000" fill-rule="nonzero" fill-opacity="1" /><path clip-path="url(#clip210)" d="M2143.67 1479.7 L2148.55 1479.7 L2148.55 1485.58 L2143.67 1485.58 L2143.67 1479.7 Z" fill="#000000" fill-rule="nonzero" fill-opacity="1" /><path clip-path="url(#clip210)" d="M2158.79 1451.02 L2177.14 1451.02 L2177.14 1454.96 L2163.07 1454.96 L2163.07 1463.43 Q2164.09 1463.08 2165.1 1462.92 Q2166.12 1462.73 2167.14 1462.73 Q2172.93 1462.73 2176.31 1465.9 Q2179.69 1469.08 2179.69 1474.49 Q2179.69 1480.07 2176.22 1483.17 Q2172.74 1486.25 2166.42 1486.25 Q2164.25 1486.25 2161.98 1485.88 Q2159.73 1485.51 2157.33 1484.77 L2157.33 1480.07 Q2159.41 1481.2 2161.63 1481.76 Q2163.85 1482.32 2166.33 1482.32 Q2170.34 1482.32 2172.67 1480.21 Q2175.01 1478.1 2175.01 1474.49 Q2175.01 1470.88 2172.67 1468.77 Q2170.34 1466.67 2166.33 1466.67 Q2164.46 1466.67 2162.58 1467.08 Q2160.73 1467.5 2158.79 1468.38 L2158.79 1451.02 Z" fill="#000000" fill-rule="nonzero" fill-opacity="1" /><path clip-path="url(#clip210)" d="M1292.2 1546.53 L1292.2 1568.04 L1286.34 1568.04 L1286.34 1546.72 Q1286.34 1541.66 1284.37 1539.14 Q1282.4 1536.63 1278.45 1536.63 Q1273.71 1536.63 1270.97 1539.65 Q1268.23 1542.68 1268.23 1547.9 L1268.23 1568.04 L1262.34 1568.04 L1262.34 1518.52 L1268.23 1518.52 L1268.23 1537.93 Q1270.33 1534.72 1273.17 1533.13 Q1276.03 1531.54 1279.75 1531.54 Q1285.9 1531.54 1289.05 1535.36 Q1292.2 1539.14 1292.2 1546.53 Z" fill="#000000" fill-rule="nonzero" fill-opacity="1" /><path clip-path="url(#clip210)" d="M1324.54 1537.87 Q1323.55 1537.3 1322.37 1537.04 Q1321.23 1536.76 1319.83 1536.76 Q1314.86 1536.76 1312.19 1540 Q1309.55 1543.22 1309.55 1549.27 L1309.55 1568.04 L1303.66 1568.04 L1303.66 1532.4 L1309.55 1532.4 L1309.55 1537.93 Q1311.39 1534.69 1314.35 1533.13 Q1317.31 1531.54 1321.55 1531.54 Q1322.15 1531.54 1322.88 1531.63 Q1323.61 1531.7 1324.51 1531.85 L1324.54 1537.87 Z" fill="#000000" fill-rule="nonzero" fill-opacity="1" /><polyline clip-path="url(#clip210)" style="stroke:#000000; stroke-linecap:round; stroke-linejoin:round; stroke-width:4; stroke-opacity:1; fill:none" points="234.125,1423.18 234.125,47.2441 "/>
<polyline clip-path="url(#clip210)" style="stroke:#000000; stroke-linecap:round; stroke-linejoin:round; stroke-width:4; stroke-opacity:1; fill:none" points="234.125,1193.03 253.023,1193.03 "/>
<polyline clip-path="url(#clip210)" style="stroke:#000000; stroke-linecap:round; stroke-linejoin:round; stroke-width:4; stroke-opacity:1; fill:none" points="234.125,909.342 253.023,909.342 "/>
<polyline clip-path="url(#clip210)" style="stroke:#000000; stroke-linecap:round; stroke-linejoin:round; stroke-width:4; stroke-opacity:1; fill:none" points="234.125,625.653 253.023,625.653 "/>
<polyline clip-path="url(#clip210)" style="stroke:#000000; stroke-linecap:round; stroke-linejoin:round; stroke-width:4; stroke-opacity:1; fill:none" points="234.125,341.964 253.023,341.964 "/>
<polyline clip-path="url(#clip210)" style="stroke:#000000; stroke-linecap:round; stroke-linejoin:round; stroke-width:4; stroke-opacity:1; fill:none" points="234.125,58.2745 253.023,58.2745 "/>
<path clip-path="url(#clip210)" d="M119.885 1206.38 L136.204 1206.38 L136.204 1210.31 L114.26 1210.31 L114.26 1206.38 Q116.922 1203.62 121.505 1198.99 Q126.112 1194.34 127.292 1193 Q129.538 1190.47 130.417 1188.74 Q131.32 1186.98 131.32 1185.29 Q131.32 1182.53 129.376 1180.8 Q127.455 1179.06 124.353 1179.06 Q122.154 1179.06 119.7 1179.83 Q117.269 1180.59 114.492 1182.14 L114.492 1177.42 Q117.316 1176.28 119.769 1175.71 Q122.223 1175.13 124.26 1175.13 Q129.63 1175.13 132.825 1177.81 Q136.019 1180.5 136.019 1184.99 Q136.019 1187.12 135.209 1189.04 Q134.422 1190.94 132.316 1193.53 Q131.737 1194.2 128.635 1197.42 Q125.533 1200.61 119.885 1206.38 Z" fill="#000000" fill-rule="nonzero" fill-opacity="1" /><path clip-path="url(#clip210)" d="M146.066 1175.75 L164.422 1175.75 L164.422 1179.69 L150.348 1179.69 L150.348 1188.16 Q151.366 1187.81 152.385 1187.65 Q153.403 1187.46 154.422 1187.46 Q160.209 1187.46 163.589 1190.64 Q166.968 1193.81 166.968 1199.22 Q166.968 1204.8 163.496 1207.9 Q160.024 1210.98 153.704 1210.98 Q151.528 1210.98 149.26 1210.61 Q147.015 1210.24 144.607 1209.5 L144.607 1204.8 Q146.691 1205.94 148.913 1206.49 Q151.135 1207.05 153.612 1207.05 Q157.616 1207.05 159.954 1204.94 Q162.292 1202.83 162.292 1199.22 Q162.292 1195.61 159.954 1193.51 Q157.616 1191.4 153.612 1191.4 Q151.737 1191.4 149.862 1191.82 Q148.01 1192.23 146.066 1193.11 L146.066 1175.75 Z" fill="#000000" fill-rule="nonzero" fill-opacity="1" /><path clip-path="url(#clip210)" d="M186.181 1178.83 Q182.57 1178.83 180.741 1182.4 Q178.936 1185.94 178.936 1193.07 Q178.936 1200.17 180.741 1203.74 Q182.57 1207.28 186.181 1207.28 Q189.815 1207.28 191.621 1203.74 Q193.45 1200.17 193.45 1193.07 Q193.45 1185.94 191.621 1182.4 Q189.815 1178.83 186.181 1178.83 M186.181 1175.13 Q191.991 1175.13 195.047 1179.73 Q198.125 1184.32 198.125 1193.07 Q198.125 1201.79 195.047 1206.4 Q191.991 1210.98 186.181 1210.98 Q180.371 1210.98 177.292 1206.4 Q174.237 1201.79 174.237 1193.07 Q174.237 1184.32 177.292 1179.73 Q180.371 1175.13 186.181 1175.13 Z" fill="#000000" fill-rule="nonzero" fill-opacity="1" /><path clip-path="url(#clip210)" d="M120.88 922.687 L137.2 922.687 L137.2 926.622 L115.256 926.622 L115.256 922.687 Q117.918 919.933 122.501 915.303 Q127.107 910.65 128.288 909.308 Q130.533 906.785 131.413 905.048 Q132.316 903.289 132.316 901.599 Q132.316 898.845 130.371 897.109 Q128.45 895.373 125.348 895.373 Q123.149 895.373 120.695 896.136 Q118.265 896.9 115.487 898.451 L115.487 893.729 Q118.311 892.595 120.765 892.016 Q123.218 891.437 125.255 891.437 Q130.626 891.437 133.82 894.123 Q137.015 896.808 137.015 901.298 Q137.015 903.428 136.204 905.349 Q135.417 907.248 133.311 909.84 Q132.732 910.511 129.63 913.729 Q126.529 916.923 120.88 922.687 Z" fill="#000000" fill-rule="nonzero" fill-opacity="1" /><path clip-path="url(#clip210)" d="M145.834 892.062 L168.056 892.062 L168.056 894.053 L155.51 926.622 L150.626 926.622 L162.431 895.998 L145.834 895.998 L145.834 892.062 Z" fill="#000000" fill-rule="nonzero" fill-opacity="1" /><path clip-path="url(#clip210)" d="M177.223 892.062 L195.579 892.062 L195.579 895.998 L181.505 895.998 L181.505 904.47 Q182.524 904.123 183.542 903.96 Q184.561 903.775 185.579 903.775 Q191.366 903.775 194.746 906.947 Q198.125 910.118 198.125 915.534 Q198.125 921.113 194.653 924.215 Q191.181 927.294 184.862 927.294 Q182.686 927.294 180.417 926.923 Q178.172 926.553 175.764 925.812 L175.764 921.113 Q177.848 922.247 180.07 922.803 Q182.292 923.359 184.769 923.359 Q188.774 923.359 191.112 921.252 Q193.45 919.146 193.45 915.534 Q193.45 911.923 191.112 909.817 Q188.774 907.71 184.769 907.71 Q182.894 907.71 181.019 908.127 Q179.167 908.544 177.223 909.423 L177.223 892.062 Z" fill="#000000" fill-rule="nonzero" fill-opacity="1" /><path clip-path="url(#clip210)" d="M130.024 624.299 Q133.38 625.017 135.255 627.285 Q137.154 629.554 137.154 632.887 Q137.154 638.003 133.635 640.803 Q130.117 643.604 123.635 643.604 Q121.459 643.604 119.144 643.165 Q116.853 642.748 114.399 641.891 L114.399 637.378 Q116.343 638.512 118.658 639.091 Q120.973 639.669 123.496 639.669 Q127.894 639.669 130.186 637.933 Q132.501 636.197 132.501 632.887 Q132.501 629.831 130.348 628.118 Q128.218 626.382 124.399 626.382 L120.371 626.382 L120.371 622.54 L124.584 622.54 Q128.033 622.54 129.862 621.174 Q131.691 619.785 131.691 617.193 Q131.691 614.53 129.792 613.118 Q127.917 611.683 124.399 611.683 Q122.478 611.683 120.279 612.1 Q118.08 612.517 115.441 613.396 L115.441 609.23 Q118.103 608.489 120.418 608.118 Q122.755 607.748 124.816 607.748 Q130.14 607.748 133.242 610.179 Q136.343 612.586 136.343 616.706 Q136.343 619.577 134.7 621.567 Q133.056 623.535 130.024 624.299 Z" fill="#000000" fill-rule="nonzero" fill-opacity="1" /><path clip-path="url(#clip210)" d="M156.019 611.452 Q152.408 611.452 150.579 615.017 Q148.774 618.558 148.774 625.688 Q148.774 632.794 150.579 636.359 Q152.408 639.901 156.019 639.901 Q159.653 639.901 161.459 636.359 Q163.288 632.794 163.288 625.688 Q163.288 618.558 161.459 615.017 Q159.653 611.452 156.019 611.452 M156.019 607.748 Q161.829 607.748 164.885 612.355 Q167.964 616.938 167.964 625.688 Q167.964 634.415 164.885 639.021 Q161.829 643.604 156.019 643.604 Q150.209 643.604 147.13 639.021 Q144.075 634.415 144.075 625.688 Q144.075 616.938 147.13 612.355 Q150.209 607.748 156.019 607.748 Z" fill="#000000" fill-rule="nonzero" fill-opacity="1" /><path clip-path="url(#clip210)" d="M186.181 611.452 Q182.57 611.452 180.741 615.017 Q178.936 618.558 178.936 625.688 Q178.936 632.794 180.741 636.359 Q182.57 639.901 186.181 639.901 Q189.815 639.901 191.621 636.359 Q193.45 632.794 193.45 625.688 Q193.45 618.558 191.621 615.017 Q189.815 611.452 186.181 611.452 M186.181 607.748 Q191.991 607.748 195.047 612.355 Q198.125 616.938 198.125 625.688 Q198.125 634.415 195.047 639.021 Q191.991 643.604 186.181 643.604 Q180.371 643.604 177.292 639.021 Q174.237 634.415 174.237 625.688 Q174.237 616.938 177.292 612.355 Q180.371 607.748 186.181 607.748 Z" fill="#000000" fill-rule="nonzero" fill-opacity="1" /><path clip-path="url(#clip210)" d="M131.019 340.61 Q134.376 341.327 136.251 343.596 Q138.149 345.864 138.149 349.198 Q138.149 354.313 134.63 357.114 Q131.112 359.915 124.63 359.915 Q122.455 359.915 120.14 359.475 Q117.848 359.059 115.394 358.202 L115.394 353.688 Q117.339 354.823 119.654 355.401 Q121.968 355.98 124.492 355.98 Q128.89 355.98 131.181 354.244 Q133.496 352.508 133.496 349.198 Q133.496 346.142 131.343 344.429 Q129.214 342.693 125.394 342.693 L121.367 342.693 L121.367 338.85 L125.58 338.85 Q129.029 338.85 130.857 337.485 Q132.686 336.096 132.686 333.503 Q132.686 330.841 130.788 329.429 Q128.913 327.994 125.394 327.994 Q123.473 327.994 121.274 328.411 Q119.075 328.827 116.436 329.707 L116.436 325.54 Q119.098 324.8 121.413 324.429 Q123.751 324.059 125.811 324.059 Q131.135 324.059 134.237 326.489 Q137.339 328.897 137.339 333.017 Q137.339 335.887 135.695 337.878 Q134.052 339.846 131.019 340.61 Z" fill="#000000" fill-rule="nonzero" fill-opacity="1" /><path clip-path="url(#clip210)" d="M151.042 355.309 L167.362 355.309 L167.362 359.244 L145.417 359.244 L145.417 355.309 Q148.079 352.554 152.663 347.924 Q157.269 343.272 158.45 341.929 Q160.695 339.406 161.575 337.67 Q162.477 335.911 162.477 334.221 Q162.477 331.466 160.533 329.73 Q158.612 327.994 155.51 327.994 Q153.311 327.994 150.857 328.758 Q148.427 329.522 145.649 331.073 L145.649 326.35 Q148.473 325.216 150.927 324.638 Q153.38 324.059 155.417 324.059 Q160.788 324.059 163.982 326.744 Q167.177 329.429 167.177 333.92 Q167.177 336.05 166.366 337.971 Q165.579 339.869 163.473 342.462 Q162.894 343.133 159.792 346.35 Q156.69 349.545 151.042 355.309 Z" fill="#000000" fill-rule="nonzero" fill-opacity="1" /><path clip-path="url(#clip210)" d="M177.223 324.684 L195.579 324.684 L195.579 328.619 L181.505 328.619 L181.505 337.091 Q182.524 336.744 183.542 336.582 Q184.561 336.397 185.579 336.397 Q191.366 336.397 194.746 339.568 Q198.125 342.739 198.125 348.156 Q198.125 353.735 194.653 356.836 Q191.181 359.915 184.862 359.915 Q182.686 359.915 180.417 359.545 Q178.172 359.174 175.764 358.434 L175.764 353.735 Q177.848 354.869 180.07 355.424 Q182.292 355.98 184.769 355.98 Q188.774 355.98 191.112 353.873 Q193.45 351.767 193.45 348.156 Q193.45 344.545 191.112 342.438 Q188.774 340.332 184.769 340.332 Q182.894 340.332 181.019 340.749 Q179.167 341.165 177.223 342.045 L177.223 324.684 Z" fill="#000000" fill-rule="nonzero" fill-opacity="1" /><path clip-path="url(#clip210)" d="M130.024 56.9204 Q133.38 57.638 135.255 59.9065 Q137.154 62.175 137.154 65.5083 Q137.154 70.624 133.635 73.4249 Q130.117 76.2258 123.635 76.2258 Q121.459 76.2258 119.144 75.786 Q116.853 75.3694 114.399 74.5129 L114.399 69.999 Q116.343 71.1333 118.658 71.712 Q120.973 72.2907 123.496 72.2907 Q127.894 72.2907 130.186 70.5546 Q132.501 68.8185 132.501 65.5083 Q132.501 62.4528 130.348 60.7398 Q128.218 59.0037 124.399 59.0037 L120.371 59.0037 L120.371 55.1611 L124.584 55.1611 Q128.033 55.1611 129.862 53.7954 Q131.691 52.4065 131.691 49.8139 Q131.691 47.1519 129.792 45.7399 Q127.917 44.3047 124.399 44.3047 Q122.478 44.3047 120.279 44.7214 Q118.08 45.138 115.441 46.0177 L115.441 41.851 Q118.103 41.1103 120.418 40.7399 Q122.755 40.3695 124.816 40.3695 Q130.14 40.3695 133.242 42.8001 Q136.343 45.2075 136.343 49.3278 Q136.343 52.1982 134.7 54.1889 Q133.056 56.1565 130.024 56.9204 Z" fill="#000000" fill-rule="nonzero" fill-opacity="1" /><path clip-path="url(#clip210)" d="M146.066 40.9945 L164.422 40.9945 L164.422 44.9297 L150.348 44.9297 L150.348 53.4019 Q151.366 53.0547 152.385 52.8926 Q153.403 52.7074 154.422 52.7074 Q160.209 52.7074 163.589 55.8787 Q166.968 59.05 166.968 64.4666 Q166.968 70.0453 163.496 73.1471 Q160.024 76.2258 153.704 76.2258 Q151.528 76.2258 149.26 75.8555 Q147.015 75.4851 144.607 74.7444 L144.607 70.0453 Q146.691 71.1796 148.913 71.7351 Q151.135 72.2907 153.612 72.2907 Q157.616 72.2907 159.954 70.1842 Q162.292 68.0777 162.292 64.4666 Q162.292 60.8555 159.954 58.7491 Q157.616 56.6426 153.612 56.6426 Q151.737 56.6426 149.862 57.0593 Q148.01 57.4759 146.066 58.3556 L146.066 40.9945 Z" fill="#000000" fill-rule="nonzero" fill-opacity="1" /><path clip-path="url(#clip210)" d="M186.181 44.0732 Q182.57 44.0732 180.741 47.638 Q178.936 51.1797 178.936 58.3093 Q178.936 65.4157 180.741 68.9805 Q182.57 72.5222 186.181 72.5222 Q189.815 72.5222 191.621 68.9805 Q193.45 65.4157 193.45 58.3093 Q193.45 51.1797 191.621 47.638 Q189.815 44.0732 186.181 44.0732 M186.181 40.3695 Q191.991 40.3695 195.047 44.976 Q198.125 49.5593 198.125 58.3093 Q198.125 67.0361 195.047 71.6425 Q191.991 76.2258 186.181 76.2258 Q180.371 76.2258 177.292 71.6425 Q174.237 67.0361 174.237 58.3093 Q174.237 49.5593 177.292 44.976 Q180.371 40.3695 186.181 40.3695 Z" fill="#000000" fill-rule="nonzero" fill-opacity="1" /><path clip-path="url(#clip210)" d="M16.4842 754.07 L16.4842 747.641 L36.568 747.641 L16.4842 726.316 L16.4842 718.04 L38.6368 741.625 L64.0042 716.354 L64.0042 724.82 L41.1194 747.641 L64.0042 747.641 L64.0042 754.07 L16.4842 754.07 Z" fill="#000000" fill-rule="nonzero" fill-opacity="1" /><polyline clip-path="url(#clip212)" style="stroke:#e6540d; stroke-linecap:round; stroke-linejoin:round; stroke-width:4; stroke-opacity:1; fill:none" points="294.087,1384.24 360.71,1350.56 427.334,1313.76 493.957,1286.64 560.581,1270.05 627.205,1257.12 693.828,1246.88 760.452,1238.6 827.075,1232.09 893.699,1226.49 960.323,1222.08 1026.95,1218.06 1093.57,1215.03 1160.19,1212.07 1226.82,1209.81 1293.44,1207.75 1360.06,1205.82 1426.69,1204.63 1493.31,1203.13 1559.94,1201.97 1626.56,1201.41 1693.18,1200.15 1759.81,1199.76 1826.43,1199.36 1893.05,1197.69 1959.68,1199.14 2026.3,1198.74 2092.92,1197.9 2159.55,1199.77 2226.17,1199.47 2292.79,1201.62 "/>
<path clip-path="url(#clip212)" d="M310.087 1368.24 L278.087 1368.24 L294.087 1400.24 L310.087 1368.24 Z" fill="#e6540d" fill-rule="evenodd" fill-opacity="1" stroke="#000000" stroke-opacity="1" stroke-width="3.2"/>
<path clip-path="url(#clip212)" d="M709.828 1230.88 L677.828 1230.88 L693.828 1262.88 L709.828 1230.88 Z" fill="#e6540d" fill-rule="evenodd" fill-opacity="1" stroke="#000000" stroke-opacity="1" stroke-width="3.2"/>
<path clip-path="url(#clip212)" d="M1109.57 1199.03 L1077.57 1199.03 L1093.57 1231.03 L1109.57 1199.03 Z" fill="#e6540d" fill-rule="evenodd" fill-opacity="1" stroke="#000000" stroke-opacity="1" stroke-width="3.2"/>
<path clip-path="url(#clip212)" d="M1509.31 1187.13 L1477.31 1187.13 L1493.31 1219.13 L1509.31 1187.13 Z" fill="#e6540d" fill-rule="evenodd" fill-opacity="1" stroke="#000000" stroke-opacity="1" stroke-width="3.2"/>
<path clip-path="url(#clip212)" d="M1909.05 1181.69 L1877.05 1181.69 L1893.05 1213.69 L1909.05 1181.69 Z" fill="#e6540d" fill-rule="evenodd" fill-opacity="1" stroke="#000000" stroke-opacity="1" stroke-width="3.2"/>
<path clip-path="url(#clip212)" d="M2308.79 1185.62 L2276.79 1185.62 L2292.79 1217.62 L2308.79 1185.62 Z" fill="#e6540d" fill-rule="evenodd" fill-opacity="1" stroke="#000000" stroke-opacity="1" stroke-width="3.2"/>
<polyline clip-path="url(#clip212)" style="stroke:#e6540d; stroke-linecap:round; stroke-linejoin:round; stroke-width:4; stroke-opacity:1; fill:none" stroke-dasharray="16, 10" points="294.087,1384.24 360.71,1125.78 427.334,931.294 493.957,783.55 560.581,682.639 627.205,611.783 693.828,560.052 760.452,520.57 827.075,489.106 893.699,462.847 960.323,440.054 1026.95,419.533 1093.57,400.559 1160.19,382.564 1226.82,365.238 1293.44,348.31 1360.06,331.62 1426.69,315.043 1493.31,298.487 1559.94,281.885 1626.56,265.179 1693.18,248.337 1759.81,231.316 1826.43,214.088 1893.05,196.639 1959.68,178.933 2026.3,160.967 2092.92,142.726 2159.55,124.188 2226.17,105.345 2292.79,86.1857 "/>
<path clip-path="url(#clip212)" d="M310.087 1368.24 L278.087 1368.24 L294.087 1400.24 L310.087 1368.24 Z" fill="#ffffff" fill-rule="evenodd" fill-opacity="1" stroke="#e6540d" stroke-opacity="1" stroke-width="3.2"/>
<path clip-path="url(#clip212)" d="M709.828 544.052 L677.828 544.052 L693.828 576.052 L709.828 544.052 Z" fill="#ffffff" fill-rule="evenodd" fill-opacity="1" stroke="#e6540d" stroke-opacity="1" stroke-width="3.2"/>
<path clip-path="url(#clip212)" d="M1109.57 384.559 L1077.57 384.559 L1093.57 416.559 L1109.57 384.559 Z" fill="#ffffff" fill-rule="evenodd" fill-opacity="1" stroke="#e6540d" stroke-opacity="1" stroke-width="3.2"/>
<path clip-path="url(#clip212)" d="M1509.31 282.487 L1477.31 282.487 L1493.31 314.487 L1509.31 282.487 Z" fill="#ffffff" fill-rule="evenodd" fill-opacity="1" stroke="#e6540d" stroke-opacity="1" stroke-width="3.2"/>
<path clip-path="url(#clip212)" d="M1909.05 180.639 L1877.05 180.639 L1893.05 212.639 L1909.05 180.639 Z" fill="#ffffff" fill-rule="evenodd" fill-opacity="1" stroke="#e6540d" stroke-opacity="1" stroke-width="3.2"/>
<path clip-path="url(#clip212)" d="M2308.79 70.1857 L2276.79 70.1857 L2292.79 102.186 L2308.79 70.1857 Z" fill="#ffffff" fill-rule="evenodd" fill-opacity="1" stroke="#e6540d" stroke-opacity="1" stroke-width="3.2"/>
<path clip-path="url(#clip210)" d="M304.746 248.629 L770.984 248.629 L770.984 93.1086 L304.746 93.1086  Z" fill="#ffffff" fill-rule="evenodd" fill-opacity="1"/>
<polyline clip-path="url(#clip210)" style="stroke:#000000; stroke-linecap:round; stroke-linejoin:round; stroke-width:4; stroke-opacity:1; fill:none" points="304.746,248.629 770.984,248.629 770.984,93.1086 304.746,93.1086 304.746,248.629 "/>
<polyline clip-path="url(#clip210)" style="stroke:#e6540d; stroke-linecap:round; stroke-linejoin:round; stroke-width:4; stroke-opacity:1; fill:none" points="328.287,144.949 469.529,144.949 "/>
<path clip-path="url(#clip210)" d="M420.704 123.152 L377.111 123.152 L398.908 166.745 L420.704 123.152 Z" fill="#e6540d" fill-rule="evenodd" fill-opacity="1" stroke="#000000" stroke-opacity="1" stroke-width="4.55111"/>
<path clip-path="url(#clip210)" d="M525.697 122.039 Q525.697 122.484 525.603 122.859 L524.291 131.197 Q524.221 131.83 524.08 132.064 Q523.963 132.298 523.589 132.298 Q523.003 132.298 523.003 131.689 Q523.003 131.338 523.144 130.776 Q523.542 128.129 523.542 126.934 Q523.542 126.138 523.378 125.552 Q523.237 124.943 523.003 124.522 Q522.792 124.1 522.3 123.819 Q521.809 123.538 521.34 123.374 Q520.872 123.21 520.028 123.14 Q519.185 123.046 518.459 123.023 Q517.733 122.999 516.538 122.999 Q513.939 122.999 513.517 123.093 Q513.072 123.21 512.838 123.561 Q512.627 123.889 512.393 124.873 L506.022 150.333 L505.834 151.34 Q505.834 151.903 506.186 152.09 Q506.537 152.277 507.615 152.394 Q509.16 152.512 510.683 152.512 Q510.73 152.512 510.823 152.512 Q511.339 152.512 511.549 152.535 Q511.76 152.535 511.971 152.582 Q512.182 152.629 512.229 152.746 Q512.299 152.84 512.299 153.027 Q512.299 153.472 512.112 153.706 Q511.924 153.917 511.737 153.964 Q511.573 153.987 511.245 153.987 Q510.589 153.987 509.184 153.94 Q507.778 153.894 507.076 153.894 L503.094 153.847 L499.018 153.894 Q498.386 153.894 497.051 153.94 Q495.716 153.987 495.084 153.987 Q494.264 153.987 494.264 153.402 Q494.264 152.746 494.568 152.629 Q494.896 152.512 496.278 152.512 Q498.222 152.512 499.276 152.418 Q500.33 152.324 500.892 151.996 Q501.478 151.668 501.642 151.34 Q501.806 150.989 501.993 150.193 L508.434 124.592 Q508.622 124.03 508.622 123.585 Q508.622 123.351 508.551 123.257 Q508.505 123.163 508.2 123.093 Q507.896 122.999 507.263 122.999 L505.389 122.999 Q503.469 122.999 502.274 123.093 Q501.103 123.163 499.979 123.515 Q498.878 123.866 498.222 124.358 Q497.59 124.85 496.887 125.857 Q496.184 126.864 495.669 128.082 Q495.177 129.3 494.475 131.291 Q494.24 131.947 494.1 132.134 Q493.983 132.298 493.655 132.298 Q493.421 132.298 493.233 132.157 Q493.069 131.994 493.069 131.783 Q493.303 131.01 493.35 130.916 L496.231 122.461 Q496.465 121.781 496.676 121.664 Q496.91 121.524 497.777 121.524 L524.385 121.524 Q524.807 121.524 524.947 121.524 Q525.088 121.524 525.322 121.571 Q525.556 121.617 525.626 121.735 Q525.697 121.852 525.697 122.039 Z" fill="#000000" fill-rule="nonzero" fill-opacity="1" /><path clip-path="url(#clip210)" d="M530.486 154.623 L530.486 153.573 L533.126 153.573 L533.126 149.72 Q533.126 147.228 534.733 145.802 Q536.356 144.375 538.34 144.375 Q539.651 144.375 540.504 145.08 Q541.356 145.785 541.356 146.736 Q541.356 147.376 540.963 147.802 Q540.586 148.212 539.881 148.212 Q539.209 148.212 538.815 147.786 Q538.438 147.359 538.438 146.769 Q538.438 145.687 539.438 145.359 Q538.93 145.129 538.34 145.113 Q537.126 145.113 536.175 146.359 Q535.241 147.605 535.241 149.687 L535.241 153.573 L539.176 153.573 L539.176 154.623 L535.356 154.623 L535.356 165.427 Q535.356 166.395 535.749 166.706 Q536.159 167.018 537.897 167.018 L538.602 167.018 L538.602 168.051 Q537.257 167.952 534.339 167.952 Q533.929 167.952 533.29 167.969 Q532.667 167.985 531.814 168.018 Q530.978 168.051 530.519 168.051 L530.519 167.018 Q532.306 167.018 532.716 166.805 Q533.126 166.575 533.126 165.493 L533.126 154.623 L530.486 154.623 Z" fill="#000000" fill-rule="nonzero" fill-opacity="1" /><path clip-path="url(#clip210)" d="M547.635 148.108 L552.519 148.108 L552.519 152.089 L548.723 159.496 L545.737 159.496 L547.635 152.089 L547.635 148.108 Z" fill="#000000" fill-rule="nonzero" fill-opacity="1" /><path clip-path="url(#clip210)" d="M596.871 133.038 Q598.468 130.168 600.69 128.802 Q602.913 127.436 605.922 127.436 Q609.973 127.436 612.172 130.284 Q614.371 133.108 614.371 138.339 L614.371 153.987 L610.088 153.987 L610.088 138.478 Q610.088 134.751 608.769 132.946 Q607.45 131.14 604.741 131.14 Q601.431 131.14 599.51 133.339 Q597.588 135.538 597.588 139.335 L597.588 153.987 L593.306 153.987 L593.306 138.478 Q593.306 134.728 591.987 132.946 Q590.667 131.14 587.913 131.14 Q584.649 131.14 582.727 133.362 Q580.806 135.561 580.806 139.335 L580.806 153.987 L576.524 153.987 L576.524 128.061 L580.806 128.061 L580.806 132.089 Q582.264 129.705 584.302 128.571 Q586.339 127.436 589.139 127.436 Q591.964 127.436 593.931 128.872 Q595.922 130.307 596.871 133.038 Z" fill="#000000" fill-rule="nonzero" fill-opacity="1" /><path clip-path="url(#clip210)" d="M632.912 131.048 Q629.486 131.048 627.496 133.733 Q625.505 136.395 625.505 141.047 Q625.505 145.7 627.473 148.385 Q629.463 151.047 632.912 151.047 Q636.315 151.047 638.306 148.362 Q640.297 145.677 640.297 141.047 Q640.297 136.441 638.306 133.756 Q636.315 131.048 632.912 131.048 M632.912 127.436 Q638.468 127.436 641.639 131.048 Q644.81 134.659 644.81 141.047 Q644.81 147.413 641.639 151.047 Q638.468 154.659 632.912 154.659 Q627.334 154.659 624.162 151.047 Q621.014 147.413 621.014 141.047 Q621.014 134.659 624.162 131.048 Q627.334 127.436 632.912 127.436 Z" fill="#000000" fill-rule="nonzero" fill-opacity="1" /><path clip-path="url(#clip210)" d="M668.931 131.997 L668.931 117.969 L673.19 117.969 L673.19 153.987 L668.931 153.987 L668.931 150.098 Q667.588 152.413 665.528 153.547 Q663.491 154.659 660.621 154.659 Q655.922 154.659 652.959 150.909 Q650.019 147.159 650.019 141.047 Q650.019 134.936 652.959 131.186 Q655.922 127.436 660.621 127.436 Q663.491 127.436 665.528 128.571 Q667.588 129.682 668.931 131.997 M654.417 141.047 Q654.417 145.747 656.338 148.432 Q658.283 151.094 661.662 151.094 Q665.042 151.094 666.986 148.432 Q668.931 145.747 668.931 141.047 Q668.931 136.348 666.986 133.686 Q665.042 131.001 661.662 131.001 Q658.283 131.001 656.338 133.686 Q654.417 136.348 654.417 141.047 Z" fill="#000000" fill-rule="nonzero" fill-opacity="1" /><path clip-path="url(#clip210)" d="M704.139 139.96 L704.139 142.043 L684.556 142.043 Q684.833 146.441 687.194 148.756 Q689.579 151.047 693.815 151.047 Q696.269 151.047 698.56 150.446 Q700.875 149.844 703.143 148.64 L703.143 152.668 Q700.852 153.64 698.444 154.149 Q696.037 154.659 693.56 154.659 Q687.357 154.659 683.722 151.047 Q680.111 147.436 680.111 141.279 Q680.111 134.913 683.537 131.186 Q686.986 127.436 692.819 127.436 Q698.051 127.436 701.083 130.816 Q704.139 134.173 704.139 139.96 M699.88 138.71 Q699.833 135.214 697.912 133.131 Q696.014 131.048 692.866 131.048 Q689.301 131.048 687.148 133.061 Q685.019 135.075 684.694 138.733 L699.88 138.71 Z" fill="#000000" fill-rule="nonzero" fill-opacity="1" /><path clip-path="url(#clip210)" d="M711.13 117.969 L715.389 117.969 L715.389 153.987 L711.13 153.987 L711.13 117.969 Z" fill="#000000" fill-rule="nonzero" fill-opacity="1" /><polyline clip-path="url(#clip210)" style="stroke:#e6540d; stroke-linecap:round; stroke-linejoin:round; stroke-width:4; stroke-opacity:1; fill:none" stroke-dasharray="16, 10" points="328.287,196.789 469.529,196.789 "/>
<path clip-path="url(#clip210)" d="M420.704 174.992 L377.111 174.992 L398.908 218.585 L420.704 174.992 Z" fill="#ffffff" fill-rule="evenodd" fill-opacity="1" stroke="#e6540d" stroke-opacity="1" stroke-width="4.55111"/>
<path clip-path="url(#clip210)" d="M525.697 176.423 Q525.697 176.868 525.603 177.243 L524.291 185.581 Q524.221 186.214 524.08 186.448 Q523.963 186.682 523.589 186.682 Q523.003 186.682 523.003 186.073 Q523.003 185.722 523.144 185.16 Q523.542 182.513 523.542 181.318 Q523.542 180.522 523.378 179.936 Q523.237 179.327 523.003 178.906 Q522.792 178.484 522.3 178.203 Q521.809 177.922 521.34 177.758 Q520.872 177.594 520.028 177.524 Q519.185 177.43 518.459 177.407 Q517.733 177.383 516.538 177.383 Q513.939 177.383 513.517 177.477 Q513.072 177.594 512.838 177.946 Q512.627 178.273 512.393 179.257 L506.022 204.717 L505.834 205.725 Q505.834 206.287 506.186 206.474 Q506.537 206.661 507.615 206.779 Q509.16 206.896 510.683 206.896 Q510.73 206.896 510.823 206.896 Q511.339 206.896 511.549 206.919 Q511.76 206.919 511.971 206.966 Q512.182 207.013 512.229 207.13 Q512.299 207.224 512.299 207.411 Q512.299 207.856 512.112 208.09 Q511.924 208.301 511.737 208.348 Q511.573 208.371 511.245 208.371 Q510.589 208.371 509.184 208.324 Q507.778 208.278 507.076 208.278 L503.094 208.231 L499.018 208.278 Q498.386 208.278 497.051 208.324 Q495.716 208.371 495.084 208.371 Q494.264 208.371 494.264 207.786 Q494.264 207.13 494.568 207.013 Q494.896 206.896 496.278 206.896 Q498.222 206.896 499.276 206.802 Q500.33 206.708 500.892 206.38 Q501.478 206.052 501.642 205.725 Q501.806 205.373 501.993 204.577 L508.434 178.976 Q508.622 178.414 508.622 177.969 Q508.622 177.735 508.551 177.641 Q508.505 177.547 508.2 177.477 Q507.896 177.383 507.263 177.383 L505.389 177.383 Q503.469 177.383 502.274 177.477 Q501.103 177.547 499.979 177.899 Q498.878 178.25 498.222 178.742 Q497.59 179.234 496.887 180.241 Q496.184 181.248 495.669 182.466 Q495.177 183.684 494.475 185.675 Q494.24 186.331 494.1 186.518 Q493.983 186.682 493.655 186.682 Q493.421 186.682 493.233 186.542 Q493.069 186.378 493.069 186.167 Q493.303 185.394 493.35 185.3 L496.231 176.845 Q496.465 176.165 496.676 176.048 Q496.91 175.908 497.777 175.908 L524.385 175.908 Q524.807 175.908 524.947 175.908 Q525.088 175.908 525.322 175.955 Q525.556 176.001 525.626 176.119 Q525.697 176.236 525.697 176.423 Z" fill="#000000" fill-rule="nonzero" fill-opacity="1" /><path clip-path="url(#clip210)" d="M530.486 203.547 L530.486 202.497 Q531.994 202.596 533.749 202.596 Q534.388 202.596 537.405 202.497 L537.405 203.547 Q535.487 203.547 535.487 204.416 Q535.487 204.547 535.683 204.989 L539.455 214.351 L542.881 205.793 Q543.078 205.219 543.078 204.989 Q543.078 204.416 542.684 204.006 Q542.307 203.579 541.471 203.547 L541.471 202.497 Q543.176 202.596 544.39 202.596 Q545.767 202.596 546.898 202.497 L546.898 203.547 Q545.898 203.547 545.193 204.006 Q544.488 204.448 544.258 204.842 Q544.045 205.219 543.816 205.793 L539.422 216.712 Q539.159 217.352 538.717 217.352 Q538.422 217.352 538.29 217.221 Q538.176 217.106 538.012 216.712 L533.175 204.793 Q532.847 203.957 532.421 203.76 Q531.994 203.547 530.486 203.547 Z" fill="#000000" fill-rule="nonzero" fill-opacity="1" /><path clip-path="url(#clip210)" d="M548.676 203.547 L548.676 202.497 Q550.496 202.596 551.791 202.596 Q552.431 202.596 555.464 202.497 L555.464 203.547 Q553.48 203.547 553.48 204.448 Q553.48 204.645 553.644 205.055 L556.841 214.023 L559.727 205.891 Q559.12 204.252 558.956 204.055 Q558.546 203.547 556.841 203.547 L556.841 202.497 Q558.349 202.596 559.825 202.596 Q560.399 202.596 563.317 202.497 L563.317 203.547 Q561.333 203.547 561.333 204.448 Q561.333 204.58 561.497 205.088 L564.826 214.45 L567.875 205.858 Q568.039 205.416 568.056 205.153 Q568.056 204.416 567.531 204.006 Q567.006 203.579 566.105 203.547 L566.105 202.497 Q568.023 202.596 569.22 202.596 Q570.564 202.596 571.679 202.497 L571.679 203.547 Q569.597 203.612 568.859 205.694 L564.924 216.712 Q564.547 217.319 564.252 217.352 Q563.809 217.352 563.58 216.712 L560.153 207.17 L556.759 216.68 Q556.628 217.089 556.513 217.221 Q556.398 217.352 556.087 217.352 Q555.792 217.352 555.661 217.171 Q555.529 217.008 555.382 216.598 L551.152 204.711 Q550.857 203.94 550.414 203.743 Q549.988 203.547 548.676 203.547 Z" fill="#000000" fill-rule="nonzero" fill-opacity="1" /><path clip-path="url(#clip210)" d="M579.69 202.492 L584.574 202.492 L584.574 206.473 L580.778 213.881 L577.792 213.881 L579.69 206.473 L579.69 202.492 Z" fill="#000000" fill-rule="nonzero" fill-opacity="1" /><path clip-path="url(#clip210)" d="M628.926 187.422 Q630.523 184.552 632.745 183.186 Q634.967 181.82 637.977 181.82 Q642.028 181.82 644.227 184.668 Q646.426 187.492 646.426 192.723 L646.426 208.371 L642.143 208.371 L642.143 192.862 Q642.143 189.135 640.824 187.33 Q639.504 185.524 636.796 185.524 Q633.486 185.524 631.565 187.723 Q629.643 189.922 629.643 193.719 L629.643 208.371 L625.361 208.371 L625.361 192.862 Q625.361 189.112 624.042 187.33 Q622.722 185.524 619.968 185.524 Q616.704 185.524 614.782 187.746 Q612.861 189.945 612.861 193.719 L612.861 208.371 L608.579 208.371 L608.579 182.445 L612.861 182.445 L612.861 186.473 Q614.319 184.089 616.356 182.955 Q618.393 181.82 621.194 181.82 Q624.018 181.82 625.986 183.256 Q627.977 184.691 628.926 187.422 Z" fill="#000000" fill-rule="nonzero" fill-opacity="1" /><path clip-path="url(#clip210)" d="M664.967 185.432 Q661.541 185.432 659.551 188.117 Q657.56 190.779 657.56 195.432 Q657.56 200.084 659.528 202.769 Q661.518 205.431 664.967 205.431 Q668.37 205.431 670.361 202.746 Q672.352 200.061 672.352 195.432 Q672.352 190.825 670.361 188.14 Q668.37 185.432 664.967 185.432 M664.967 181.82 Q670.523 181.82 673.694 185.432 Q676.865 189.043 676.865 195.432 Q676.865 201.797 673.694 205.431 Q670.523 209.043 664.967 209.043 Q659.389 209.043 656.217 205.431 Q653.069 201.797 653.069 195.432 Q653.069 189.043 656.217 185.432 Q659.389 181.82 664.967 181.82 Z" fill="#000000" fill-rule="nonzero" fill-opacity="1" /><path clip-path="url(#clip210)" d="M700.986 186.381 L700.986 172.353 L705.245 172.353 L705.245 208.371 L700.986 208.371 L700.986 204.482 Q699.643 206.797 697.583 207.931 Q695.546 209.043 692.675 209.043 Q687.976 209.043 685.013 205.293 Q682.074 201.543 682.074 195.432 Q682.074 189.32 685.013 185.57 Q687.976 181.82 692.675 181.82 Q695.546 181.82 697.583 182.955 Q699.643 184.066 700.986 186.381 M686.472 195.432 Q686.472 200.131 688.393 202.816 Q690.338 205.478 693.717 205.478 Q697.097 205.478 699.041 202.816 Q700.986 200.131 700.986 195.432 Q700.986 190.732 699.041 188.07 Q697.097 185.385 693.717 185.385 Q690.338 185.385 688.393 188.07 Q686.472 190.732 686.472 195.432 Z" fill="#000000" fill-rule="nonzero" fill-opacity="1" /><path clip-path="url(#clip210)" d="M736.194 194.344 L736.194 196.427 L716.611 196.427 Q716.888 200.825 719.249 203.14 Q721.634 205.431 725.87 205.431 Q728.323 205.431 730.615 204.83 Q732.93 204.228 735.198 203.024 L735.198 207.052 Q732.907 208.024 730.499 208.533 Q728.092 209.043 725.615 209.043 Q719.411 209.043 715.777 205.431 Q712.166 201.82 712.166 195.663 Q712.166 189.297 715.592 185.57 Q719.041 181.82 724.874 181.82 Q730.106 181.82 733.138 185.2 Q736.194 188.557 736.194 194.344 M731.935 193.094 Q731.888 189.598 729.967 187.515 Q728.069 185.432 724.921 185.432 Q721.356 185.432 719.203 187.445 Q717.074 189.459 716.749 193.117 L731.935 193.094 Z" fill="#000000" fill-rule="nonzero" fill-opacity="1" /><path clip-path="url(#clip210)" d="M743.184 172.353 L747.444 172.353 L747.444 208.371 L743.184 208.371 L743.184 172.353 Z" fill="#000000" fill-rule="nonzero" fill-opacity="1" /></svg>
