<?xml version="1.0" encoding="utf-8"?>
<svg xmlns="http://www.w3.org/2000/svg" xmlns:xlink="http://www.w3.org/1999/xlink" width="600" height="400" viewBox="0 0 2400 1600">
<defs>
  <clipPath id="clip460">
    <rect x="0" y="0" width="2400" height="1600"/>
  </clipPath>
</defs>
<path clip-path="url(#clip460)" d="M0 1600 L2400 1600 L2400 0 L0 0  Z" fill="#ffffff" fill-rule="evenodd" fill-opacity="1"/>
<defs>
  <clipPath id="clip461">
    <rect x="242" y="47" width="2112" height="1377"/>
  </clipPath>
</defs>
<path clip-path="url(#clip460)" d="M242.135 1423.18 L2352.76 1423.18 L2352.76 47.2441 L242.135 47.2441  Z" fill="#ffffff" fill-rule="evenodd" fill-opacity="1"/>
<polyline clip-path="url(#clip461)" style="stroke:#000000; stroke-linecap:round; stroke-linejoin:round; stroke-width:2; stroke-opacity:0.1; fill:none" points="301.869,1423.18 301.869,47.2441 "/>
<polyline clip-path="url(#clip461)" style="stroke:#000000; stroke-linecap:round; stroke-linejoin:round; stroke-width:2; stroke-opacity:0.1; fill:none" points="931.837,1423.18 931.837,47.2441 "/>
<polyline clip-path="url(#clip461)" style="stroke:#000000; stroke-linecap:round; stroke-linejoin:round; stroke-width:2; stroke-opacity:0.1; fill:none" points="1561.8,1423.18 1561.8,47.2441 "/>
<polyline clip-path="url(#clip461)" style="stroke:#000000; stroke-linecap:round; stroke-linejoin:round; stroke-width:2; stroke-opacity:0.1; fill:none" points="2191.77,1423.18 2191.77,47.2441 "/>
<polyline clip-path="url(#clip461)" style="stroke:#000000; stroke-linecap:round; stroke-linejoin:round; stroke-width:2; stroke-opacity:0.1; fill:none" points="242.135,1384.24 2352.76,1384.24 "/>
<polyline clip-path="url(#clip461)" style="stroke:#000000; stroke-linecap:round; stroke-linejoin:round; stroke-width:2; stroke-opacity:0.1; fill:none" points="242.135,1013.37 2352.76,1013.37 "/>
<polyline clip-path="url(#clip461)" style="stroke:#000000; stroke-linecap:round; stroke-linejoin:round; stroke-width:2; stroke-opacity:0.1; fill:none" points="242.135,642.494 2352.76,642.494 "/>
<polyline clip-path="url(#clip461)" style="stroke:#000000; stroke-linecap:round; stroke-linejoin:round; stroke-width:2; stroke-opacity:0.1; fill:none" points="242.135,271.622 2352.76,271.622 "/>
<polyline clip-path="url(#clip460)" style="stroke:#000000; stroke-linecap:round; stroke-linejoin:round; stroke-width:4; stroke-opacity:1; fill:none" points="242.135,1423.18 2352.76,1423.18 "/>
<polyline clip-path="url(#clip460)" style="stroke:#000000; stroke-linecap:round; stroke-linejoin:round; stroke-width:4; stroke-opacity:1; fill:none" points="301.869,1423.18 301.869,1404.28 "/>
<polyline clip-path="url(#clip460)" style="stroke:#000000; stroke-linecap:round; stroke-linejoin:round; stroke-width:4; stroke-opacity:1; fill:none" points="931.837,1423.18 931.837,1404.28 "/>
<polyline clip-path="url(#clip460)" style="stroke:#000000; stroke-linecap:round; stroke-linejoin:round; stroke-width:4; stroke-opacity:1; fill:none" points="1561.8,1423.18 1561.8,1404.28 "/>
<polyline clip-path="url(#clip460)" style="stroke:#000000; stroke-linecap:round; stroke-linejoin:round; stroke-width:4; stroke-opacity:1; fill:none" points="2191.77,1423.18 2191.77,1404.28 "/>
<path clip-path="url(#clip460)" d="M301.869 1454.1 Q298.258 1454.1 296.429 1457.66 Q294.624 1461.2 294.624 1468.33 Q294.624 1475.44 296.429 1479.01 Q298.258 1482.55 301.869 1482.55 Q305.503 1482.55 307.309 1479.01 Q309.138 1475.44 309.138 1468.33 Q309.138 1461.2 307.309 1457.66 Q305.503 1454.1 301.869 1454.1 M301.869 1450.39 Q307.679 1450.39 310.735 1455 Q313.814 1459.58 313.814 1468.33 Q313.814 1477.06 310.735 1481.67 Q307.679 1486.25 301.869 1486.25 Q296.059 1486.25 292.98 1481.67 Q289.925 1477.06 289.925 1468.33 Q289.925 1459.58 292.98 1455 Q296.059 1450.39 301.869 1450.39 Z" fill="#000000" fill-rule="nonzero" fill-opacity="1" /><path clip-path="url(#clip460)" d="M922.115 1451.02 L940.471 1451.02 L940.471 1454.96 L926.397 1454.96 L926.397 1463.43 Q927.415 1463.08 928.434 1462.92 Q929.452 1462.73 930.471 1462.73 Q936.258 1462.73 939.638 1465.9 Q943.017 1469.08 943.017 1474.49 Q943.017 1480.07 939.545 1483.17 Q936.073 1486.25 929.753 1486.25 Q927.577 1486.25 925.309 1485.88 Q923.064 1485.51 920.656 1484.77 L920.656 1480.07 Q922.74 1481.2 924.962 1481.76 Q927.184 1482.32 929.661 1482.32 Q933.665 1482.32 936.003 1480.21 Q938.341 1478.1 938.341 1474.49 Q938.341 1470.88 936.003 1468.77 Q933.665 1466.67 929.661 1466.67 Q927.786 1466.67 925.911 1467.08 Q924.059 1467.5 922.115 1468.38 L922.115 1451.02 Z" fill="#000000" fill-rule="nonzero" fill-opacity="1" /><path clip-path="url(#clip460)" d="M1536.49 1481.64 L1544.13 1481.64 L1544.13 1455.28 L1535.82 1456.95 L1535.82 1452.69 L1544.08 1451.02 L1548.76 1451.02 L1548.76 1481.64 L1556.4 1481.64 L1556.4 1485.58 L1536.49 1485.58 L1536.49 1481.64 Z" fill="#000000" fill-rule="nonzero" fill-opacity="1" /><path clip-path="url(#clip460)" d="M1575.84 1454.1 Q1572.23 1454.1 1570.4 1457.66 Q1568.6 1461.2 1568.6 1468.33 Q1568.6 1475.44 1570.4 1479.01 Q1572.23 1482.55 1575.84 1482.55 Q1579.48 1482.55 1581.28 1479.01 Q1583.11 1475.44 1583.11 1468.33 Q1583.11 1461.2 1581.28 1457.66 Q1579.48 1454.1 1575.84 1454.1 M1575.84 1450.39 Q1581.65 1450.39 1584.71 1455 Q1587.79 1459.58 1587.79 1468.33 Q1587.79 1477.06 1584.71 1481.67 Q1581.65 1486.25 1575.84 1486.25 Q1570.03 1486.25 1566.95 1481.67 Q1563.9 1477.06 1563.9 1468.33 Q1563.9 1459.58 1566.95 1455 Q1570.03 1450.39 1575.84 1450.39 Z" fill="#000000" fill-rule="nonzero" fill-opacity="1" /><path clip-path="url(#clip460)" d="M2166.96 1481.64 L2174.6 1481.64 L2174.6 1455.28 L2166.29 1456.95 L2166.29 1452.69 L2174.55 1451.02 L2179.23 1451.02 L2179.23 1481.64 L2186.86 1481.64 L2186.86 1485.58 L2166.96 1485.58 L2166.96 1481.64 Z" fill="#000000" fill-rule="nonzero" fill-opacity="1" /><path clip-path="url(#clip460)" d="M2196.35 1451.02 L2214.71 1451.02 L2214.71 1454.96 L2200.64 1454.96 L2200.64 1463.43 Q2201.66 1463.08 2202.67 1462.92 Q2203.69 1462.73 2204.71 1462.73 Q2210.5 1462.73 2213.88 1465.9 Q2217.26 1469.08 2217.26 1474.49 Q2217.26 1480.07 2213.79 1483.17 Q2210.31 1486.25 2203.99 1486.25 Q2201.82 1486.25 2199.55 1485.88 Q2197.3 1485.51 2194.9 1484.77 L2194.9 1480.07 Q2196.98 1481.2 2199.2 1481.76 Q2201.42 1482.32 2203.9 1482.32 Q2207.91 1482.32 2210.24 1480.21 Q2212.58 1478.1 2212.58 1474.49 Q2212.58 1470.88 2210.24 1468.77 Q2207.91 1466.67 2203.9 1466.67 Q2202.03 1466.67 2200.15 1467.08 Q2198.3 1467.5 2196.35 1468.38 L2196.35 1451.02 Z" fill="#000000" fill-rule="nonzero" fill-opacity="1" /><path clip-path="url(#clip460)" d="M1296.2 1546.53 L1296.2 1568.04 L1290.35 1568.04 L1290.35 1546.72 Q1290.35 1541.66 1288.37 1539.14 Q1286.4 1536.63 1282.45 1536.63 Q1277.71 1536.63 1274.97 1539.65 Q1272.24 1542.68 1272.24 1547.9 L1272.24 1568.04 L1266.35 1568.04 L1266.35 1518.52 L1272.24 1518.52 L1272.24 1537.93 Q1274.34 1534.72 1277.17 1533.13 Q1280.04 1531.54 1283.76 1531.54 Q1289.9 1531.54 1293.05 1535.36 Q1296.2 1539.14 1296.2 1546.53 Z" fill="#000000" fill-rule="nonzero" fill-opacity="1" /><path clip-path="url(#clip460)" d="M1328.54 1537.87 Q1327.56 1537.3 1326.38 1537.04 Q1325.23 1536.76 1323.83 1536.76 Q1318.87 1536.76 1316.19 1540 Q1313.55 1543.22 1313.55 1549.27 L1313.55 1568.04 L1307.66 1568.04 L1307.66 1532.4 L1313.55 1532.4 L1313.55 1537.93 Q1315.4 1534.69 1318.36 1533.13 Q1321.32 1531.54 1325.55 1531.54 Q1326.15 1531.54 1326.89 1531.63 Q1327.62 1531.7 1328.51 1531.85 L1328.54 1537.87 Z" fill="#000000" fill-rule="nonzero" fill-opacity="1" /><polyline clip-path="url(#clip460)" style="stroke:#000000; stroke-linecap:round; stroke-linejoin:round; stroke-width:4; stroke-opacity:1; fill:none" points="242.135,1423.18 242.135,47.2441 "/>
<polyline clip-path="url(#clip460)" style="stroke:#000000; stroke-linecap:round; stroke-linejoin:round; stroke-width:4; stroke-opacity:1; fill:none" points="242.135,1384.24 261.032,1384.24 "/>
<polyline clip-path="url(#clip460)" style="stroke:#000000; stroke-linecap:round; stroke-linejoin:round; stroke-width:4; stroke-opacity:1; fill:none" points="242.135,1013.37 261.032,1013.37 "/>
<polyline clip-path="url(#clip460)" style="stroke:#000000; stroke-linecap:round; stroke-linejoin:round; stroke-width:4; stroke-opacity:1; fill:none" points="242.135,642.494 261.032,642.494 "/>
<polyline clip-path="url(#clip460)" style="stroke:#000000; stroke-linecap:round; stroke-linejoin:round; stroke-width:4; stroke-opacity:1; fill:none" points="242.135,271.622 261.032,271.622 "/>
<path clip-path="url(#clip460)" d="M114.26 1384.69 L143.936 1384.69 L143.936 1388.62 L114.26 1388.62 L114.26 1384.69 Z" fill="#000000" fill-rule="nonzero" fill-opacity="1" /><path clip-path="url(#clip460)" d="M166.876 1371.03 L155.07 1389.48 L166.876 1389.48 L166.876 1371.03 M165.649 1366.96 L171.528 1366.96 L171.528 1389.48 L176.459 1389.48 L176.459 1393.37 L171.528 1393.37 L171.528 1401.52 L166.876 1401.52 L166.876 1393.37 L151.274 1393.37 L151.274 1388.86 L165.649 1366.96 Z" fill="#000000" fill-rule="nonzero" fill-opacity="1" /><path clip-path="url(#clip460)" d="M194.19 1370.04 Q190.579 1370.04 188.75 1373.6 Q186.945 1377.14 186.945 1384.27 Q186.945 1391.38 188.75 1394.94 Q190.579 1398.49 194.19 1398.49 Q197.825 1398.49 199.63 1394.94 Q201.459 1391.38 201.459 1384.27 Q201.459 1377.14 199.63 1373.6 Q197.825 1370.04 194.19 1370.04 M194.19 1366.33 Q200 1366.33 203.056 1370.94 Q206.135 1375.52 206.135 1384.27 Q206.135 1393 203.056 1397.61 Q200 1402.19 194.19 1402.19 Q188.38 1402.19 185.301 1397.61 Q182.246 1393 182.246 1384.27 Q182.246 1375.52 185.301 1370.94 Q188.38 1366.33 194.19 1366.33 Z" fill="#000000" fill-rule="nonzero" fill-opacity="1" /><path clip-path="url(#clip460)" d="M115.256 1013.82 L144.931 1013.82 L144.931 1017.75 L115.256 1017.75 L115.256 1013.82 Z" fill="#000000" fill-rule="nonzero" fill-opacity="1" /><path clip-path="url(#clip460)" d="M169.19 1012.01 Q172.547 1012.73 174.422 1015 Q176.32 1017.27 176.32 1020.6 Q176.32 1025.72 172.802 1028.52 Q169.283 1031.32 162.802 1031.32 Q160.626 1031.32 158.311 1030.88 Q156.019 1030.46 153.566 1029.6 L153.566 1025.09 Q155.51 1026.22 157.825 1026.8 Q160.14 1027.38 162.663 1027.38 Q167.061 1027.38 169.352 1025.65 Q171.667 1023.91 171.667 1020.6 Q171.667 1017.54 169.514 1015.83 Q167.385 1014.1 163.565 1014.1 L159.538 1014.1 L159.538 1010.25 L163.751 1010.25 Q167.2 1010.25 169.028 1008.89 Q170.857 1007.5 170.857 1004.91 Q170.857 1002.24 168.959 1000.83 Q167.084 999.396 163.565 999.396 Q161.644 999.396 159.445 999.813 Q157.246 1000.23 154.607 1001.11 L154.607 996.943 Q157.269 996.202 159.584 995.831 Q161.922 995.461 163.982 995.461 Q169.306 995.461 172.408 997.892 Q175.51 1000.3 175.51 1004.42 Q175.51 1007.29 173.866 1009.28 Q172.223 1011.25 169.19 1012.01 Z" fill="#000000" fill-rule="nonzero" fill-opacity="1" /><path clip-path="url(#clip460)" d="M185.232 996.086 L203.588 996.086 L203.588 1000.02 L189.514 1000.02 L189.514 1008.49 Q190.533 1008.15 191.551 1007.98 Q192.57 1007.8 193.588 1007.8 Q199.375 1007.8 202.755 1010.97 Q206.135 1014.14 206.135 1019.56 Q206.135 1025.14 202.662 1028.24 Q199.19 1031.32 192.871 1031.32 Q190.695 1031.32 188.426 1030.95 Q186.181 1030.58 183.774 1029.84 L183.774 1025.14 Q185.857 1026.27 188.079 1026.83 Q190.301 1027.38 192.778 1027.38 Q196.783 1027.38 199.121 1025.28 Q201.459 1023.17 201.459 1019.56 Q201.459 1015.95 199.121 1013.84 Q196.783 1011.73 192.778 1011.73 Q190.903 1011.73 189.028 1012.15 Q187.176 1012.57 185.232 1013.45 L185.232 996.086 Z" fill="#000000" fill-rule="nonzero" fill-opacity="1" /><path clip-path="url(#clip460)" d="M114.26 642.945 L143.936 642.945 L143.936 646.88 L114.26 646.88 L114.26 642.945 Z" fill="#000000" fill-rule="nonzero" fill-opacity="1" /><path clip-path="url(#clip460)" d="M168.195 641.14 Q171.552 641.857 173.427 644.126 Q175.325 646.394 175.325 649.728 Q175.325 654.843 171.806 657.644 Q168.288 660.445 161.806 660.445 Q159.63 660.445 157.315 660.005 Q155.024 659.589 152.57 658.732 L152.57 654.218 Q154.515 655.353 156.829 655.931 Q159.144 656.51 161.667 656.51 Q166.065 656.51 168.357 654.774 Q170.672 653.038 170.672 649.728 Q170.672 646.672 168.519 644.959 Q166.39 643.223 162.57 643.223 L158.542 643.223 L158.542 639.381 L162.755 639.381 Q166.204 639.381 168.033 638.015 Q169.862 636.626 169.862 634.033 Q169.862 631.371 167.964 629.959 Q166.089 628.524 162.57 628.524 Q160.649 628.524 158.45 628.941 Q156.251 629.357 153.612 630.237 L153.612 626.07 Q156.274 625.33 158.589 624.959 Q160.927 624.589 162.987 624.589 Q168.311 624.589 171.413 627.019 Q174.514 629.427 174.514 633.547 Q174.514 636.418 172.871 638.408 Q171.227 640.376 168.195 641.14 Z" fill="#000000" fill-rule="nonzero" fill-opacity="1" /><path clip-path="url(#clip460)" d="M194.19 628.293 Q190.579 628.293 188.75 631.857 Q186.945 635.399 186.945 642.529 Q186.945 649.635 188.75 653.2 Q190.579 656.742 194.19 656.742 Q197.825 656.742 199.63 653.2 Q201.459 649.635 201.459 642.529 Q201.459 635.399 199.63 631.857 Q197.825 628.293 194.19 628.293 M194.19 624.589 Q200 624.589 203.056 629.195 Q206.135 633.779 206.135 642.529 Q206.135 651.255 203.056 655.862 Q200 660.445 194.19 660.445 Q188.38 660.445 185.301 655.862 Q182.246 651.255 182.246 642.529 Q182.246 633.779 185.301 629.195 Q188.38 624.589 194.19 624.589 Z" fill="#000000" fill-rule="nonzero" fill-opacity="1" /><path clip-path="url(#clip460)" d="M115.256 272.073 L144.931 272.073 L144.931 276.008 L115.256 276.008 L115.256 272.073 Z" fill="#000000" fill-rule="nonzero" fill-opacity="1" /><path clip-path="url(#clip460)" d="M159.052 284.967 L175.371 284.967 L175.371 288.902 L153.427 288.902 L153.427 284.967 Q156.089 282.212 160.672 277.582 Q165.278 272.93 166.459 271.587 Q168.704 269.064 169.584 267.328 Q170.487 265.569 170.487 263.879 Q170.487 261.124 168.542 259.388 Q166.621 257.652 163.519 257.652 Q161.32 257.652 158.866 258.416 Q156.436 259.18 153.658 260.731 L153.658 256.008 Q156.482 254.874 158.936 254.295 Q161.39 253.717 163.427 253.717 Q168.797 253.717 171.991 256.402 Q175.186 259.087 175.186 263.578 Q175.186 265.707 174.376 267.629 Q173.589 269.527 171.482 272.119 Q170.903 272.791 167.802 276.008 Q164.7 279.203 159.052 284.967 Z" fill="#000000" fill-rule="nonzero" fill-opacity="1" /><path clip-path="url(#clip460)" d="M185.232 254.342 L203.588 254.342 L203.588 258.277 L189.514 258.277 L189.514 266.749 Q190.533 266.402 191.551 266.24 Q192.57 266.055 193.588 266.055 Q199.375 266.055 202.755 269.226 Q206.135 272.397 206.135 277.814 Q206.135 283.393 202.662 286.494 Q199.19 289.573 192.871 289.573 Q190.695 289.573 188.426 289.203 Q186.181 288.832 183.774 288.092 L183.774 283.393 Q185.857 284.527 188.079 285.082 Q190.301 285.638 192.778 285.638 Q196.783 285.638 199.121 283.531 Q201.459 281.425 201.459 277.814 Q201.459 274.203 199.121 272.096 Q196.783 269.99 192.778 269.99 Q190.903 269.99 189.028 270.406 Q187.176 270.823 185.232 271.703 L185.232 254.342 Z" fill="#000000" fill-rule="nonzero" fill-opacity="1" /><path clip-path="url(#clip460)" d="M19.7307 759.306 Q19.7307 761.852 21.5131 763.603 Q23.2636 765.354 25.8099 765.354 Q28.3244 765.354 30.0749 763.603 Q31.7937 761.852 31.7937 759.306 Q31.7937 756.76 30.0749 755.009 Q28.3244 753.259 25.8099 753.259 Q23.2955 753.259 21.5131 755.041 Q19.7307 756.792 19.7307 759.306 M15.6248 759.306 Q15.6248 757.269 16.4205 755.391 Q17.1844 753.513 18.6485 752.145 Q20.0808 750.681 21.895 749.949 Q23.7092 749.217 25.8099 749.217 Q30.0113 749.217 32.9395 752.177 Q35.8359 755.105 35.8359 759.37 Q35.8359 763.667 32.9713 766.531 Q30.1068 769.396 25.8099 769.396 Q21.5449 769.396 18.5848 766.468 Q15.6248 763.539 15.6248 759.306 Z" fill="#000000" fill-rule="nonzero" fill-opacity="1" /><path clip-path="url(#clip460)" d="M20.1444 701.028 L26.9239 701.028 Q23.9002 704.275 22.4043 707.967 Q20.9083 711.627 20.9083 715.765 Q20.9083 723.913 25.9054 728.242 Q30.8707 732.57 40.2919 732.57 Q49.6813 732.57 54.6784 728.242 Q59.6436 723.913 59.6436 715.765 Q59.6436 711.627 58.1477 707.967 Q56.6518 704.275 53.6281 701.028 L60.3439 701.028 Q62.6355 704.402 63.7814 708.19 Q64.9272 711.945 64.9272 716.147 Q64.9272 726.937 58.3387 733.143 Q51.7183 739.35 40.2919 739.35 Q28.8336 739.35 22.2451 733.143 Q15.6248 726.937 15.6248 716.147 Q15.6248 711.882 16.7706 708.126 Q17.8846 704.338 20.1444 701.028 Z" fill="#000000" fill-rule="nonzero" fill-opacity="1" /><circle clip-path="url(#clip461)" cx="301.869" cy="1310.06" r="14.4" fill="#07519c" fill-rule="evenodd" fill-opacity="1" stroke="#000000" stroke-opacity="1" stroke-width="3.2"/>
<circle clip-path="url(#clip461)" cx="369.066" cy="1080.12" r="14.4" fill="#07519c" fill-rule="evenodd" fill-opacity="1" stroke="#000000" stroke-opacity="1" stroke-width="3.2"/>
<circle clip-path="url(#clip461)" cx="436.297" cy="842.765" r="14.4" fill="#07519c" fill-rule="evenodd" fill-opacity="1" stroke="#000000" stroke-opacity="1" stroke-width="3.2"/>
<circle clip-path="url(#clip461)" cx="503.494" cy="761.173" r="14.4" fill="#07519c" fill-rule="evenodd" fill-opacity="1" stroke="#000000" stroke-opacity="1" stroke-width="3.2"/>
<circle clip-path="url(#clip461)" cx="570.725" cy="694.416" r="14.4" fill="#07519c" fill-rule="evenodd" fill-opacity="1" stroke="#000000" stroke-opacity="1" stroke-width="3.2"/>
<circle clip-path="url(#clip461)" cx="637.922" cy="649.911" r="14.4" fill="#07519c" fill-rule="evenodd" fill-opacity="1" stroke="#000000" stroke-opacity="1" stroke-width="3.2"/>
<circle clip-path="url(#clip461)" cx="705.118" cy="605.407" r="14.4" fill="#07519c" fill-rule="evenodd" fill-opacity="1" stroke="#000000" stroke-opacity="1" stroke-width="3.2"/>
<circle clip-path="url(#clip461)" cx="772.35" cy="568.319" r="14.4" fill="#07519c" fill-rule="evenodd" fill-opacity="1" stroke="#000000" stroke-opacity="1" stroke-width="3.2"/>
<circle clip-path="url(#clip461)" cx="839.546" cy="546.067" r="14.4" fill="#07519c" fill-rule="evenodd" fill-opacity="1" stroke="#000000" stroke-opacity="1" stroke-width="3.2"/>
<circle clip-path="url(#clip461)" cx="906.778" cy="523.815" r="14.4" fill="#07519c" fill-rule="evenodd" fill-opacity="1" stroke="#000000" stroke-opacity="1" stroke-width="3.2"/>
<circle clip-path="url(#clip461)" cx="973.974" cy="501.563" r="14.4" fill="#07519c" fill-rule="evenodd" fill-opacity="1" stroke="#000000" stroke-opacity="1" stroke-width="3.2"/>
<circle clip-path="url(#clip461)" cx="1041.21" cy="486.728" r="14.4" fill="#07519c" fill-rule="evenodd" fill-opacity="1" stroke="#000000" stroke-opacity="1" stroke-width="3.2"/>
<circle clip-path="url(#clip461)" cx="1108.4" cy="464.475" r="14.4" fill="#07519c" fill-rule="evenodd" fill-opacity="1" stroke="#000000" stroke-opacity="1" stroke-width="3.2"/>
<circle clip-path="url(#clip461)" cx="1175.63" cy="457.058" r="14.4" fill="#07519c" fill-rule="evenodd" fill-opacity="1" stroke="#000000" stroke-opacity="1" stroke-width="3.2"/>
<circle clip-path="url(#clip461)" cx="1242.83" cy="449.64" r="14.4" fill="#07519c" fill-rule="evenodd" fill-opacity="1" stroke="#000000" stroke-opacity="1" stroke-width="3.2"/>
<circle clip-path="url(#clip461)" cx="1310.03" cy="442.223" r="14.4" fill="#07519c" fill-rule="evenodd" fill-opacity="1" stroke="#000000" stroke-opacity="1" stroke-width="3.2"/>
<circle clip-path="url(#clip461)" cx="1377.26" cy="427.388" r="14.4" fill="#07519c" fill-rule="evenodd" fill-opacity="1" stroke="#000000" stroke-opacity="1" stroke-width="3.2"/>
<circle clip-path="url(#clip461)" cx="1444.46" cy="419.971" r="14.4" fill="#07519c" fill-rule="evenodd" fill-opacity="1" stroke="#000000" stroke-opacity="1" stroke-width="3.2"/>
<circle clip-path="url(#clip461)" cx="1511.69" cy="412.553" r="14.4" fill="#07519c" fill-rule="evenodd" fill-opacity="1" stroke="#000000" stroke-opacity="1" stroke-width="3.2"/>
<circle clip-path="url(#clip461)" cx="1578.88" cy="405.136" r="14.4" fill="#07519c" fill-rule="evenodd" fill-opacity="1" stroke="#000000" stroke-opacity="1" stroke-width="3.2"/>
<circle clip-path="url(#clip461)" cx="1646.11" cy="397.718" r="14.4" fill="#07519c" fill-rule="evenodd" fill-opacity="1" stroke="#000000" stroke-opacity="1" stroke-width="3.2"/>
<circle clip-path="url(#clip461)" cx="1713.31" cy="397.718" r="14.4" fill="#07519c" fill-rule="evenodd" fill-opacity="1" stroke="#000000" stroke-opacity="1" stroke-width="3.2"/>
<circle clip-path="url(#clip461)" cx="1780.51" cy="390.301" r="14.4" fill="#07519c" fill-rule="evenodd" fill-opacity="1" stroke="#000000" stroke-opacity="1" stroke-width="3.2"/>
<circle clip-path="url(#clip461)" cx="1847.74" cy="390.301" r="14.4" fill="#07519c" fill-rule="evenodd" fill-opacity="1" stroke="#000000" stroke-opacity="1" stroke-width="3.2"/>
<circle clip-path="url(#clip461)" cx="1914.94" cy="382.883" r="14.4" fill="#07519c" fill-rule="evenodd" fill-opacity="1" stroke="#000000" stroke-opacity="1" stroke-width="3.2"/>
<circle clip-path="url(#clip461)" cx="1982.17" cy="382.883" r="14.4" fill="#07519c" fill-rule="evenodd" fill-opacity="1" stroke="#000000" stroke-opacity="1" stroke-width="3.2"/>
<circle clip-path="url(#clip461)" cx="2049.36" cy="323.544" r="14.4" fill="#07519c" fill-rule="evenodd" fill-opacity="1" stroke="#000000" stroke-opacity="1" stroke-width="3.2"/>
<circle clip-path="url(#clip461)" cx="2116.6" cy="138.108" r="14.4" fill="#07519c" fill-rule="evenodd" fill-opacity="1" stroke="#000000" stroke-opacity="1" stroke-width="3.2"/>
<circle clip-path="url(#clip461)" cx="2183.79" cy="86.1857" r="14.4" fill="#07519c" fill-rule="evenodd" fill-opacity="1" stroke="#000000" stroke-opacity="1" stroke-width="3.2"/>
<path clip-path="url(#clip461)" d="M306.868 1368.24 L306.868 1400.24 L338.868 1400.24 L338.868 1368.24 L306.868 1368.24 Z" fill="#3082bc" fill-rule="evenodd" fill-opacity="1" stroke="#000000" stroke-opacity="1" stroke-width="3.2"/>
<path clip-path="url(#clip461)" d="M374.065 1093.79 L374.065 1125.79 L406.065 1125.79 L406.065 1093.79 L374.065 1093.79 Z" fill="#3082bc" fill-rule="evenodd" fill-opacity="1" stroke="#000000" stroke-opacity="1" stroke-width="3.2"/>
<path clip-path="url(#clip461)" d="M441.296 952.861 L441.296 984.861 L473.296 984.861 L473.296 952.861 L441.296 952.861 Z" fill="#3082bc" fill-rule="evenodd" fill-opacity="1" stroke="#000000" stroke-opacity="1" stroke-width="3.2"/>
<path clip-path="url(#clip461)" d="M508.493 886.104 L508.493 918.104 L540.493 918.104 L540.493 886.104 L508.493 886.104 Z" fill="#3082bc" fill-rule="evenodd" fill-opacity="1" stroke="#000000" stroke-opacity="1" stroke-width="3.2"/>
<path clip-path="url(#clip461)" d="M575.724 841.6 L575.724 873.6 L607.724 873.6 L607.724 841.6 L575.724 841.6 Z" fill="#3082bc" fill-rule="evenodd" fill-opacity="1" stroke="#000000" stroke-opacity="1" stroke-width="3.2"/>
<path clip-path="url(#clip461)" d="M642.921 797.095 L642.921 829.095 L674.921 829.095 L674.921 797.095 L642.921 797.095 Z" fill="#3082bc" fill-rule="evenodd" fill-opacity="1" stroke="#000000" stroke-opacity="1" stroke-width="3.2"/>
<path clip-path="url(#clip461)" d="M710.152 752.59 L710.152 784.59 L742.152 784.59 L742.152 752.59 L710.152 752.59 Z" fill="#3082bc" fill-rule="evenodd" fill-opacity="1" stroke="#000000" stroke-opacity="1" stroke-width="3.2"/>
<path clip-path="url(#clip461)" d="M777.349 722.921 L777.349 754.921 L809.349 754.921 L809.349 722.921 L777.349 722.921 Z" fill="#3082bc" fill-rule="evenodd" fill-opacity="1" stroke="#000000" stroke-opacity="1" stroke-width="3.2"/>
<path clip-path="url(#clip461)" d="M844.58 693.251 L844.58 725.251 L876.58 725.251 L876.58 693.251 L844.58 693.251 Z" fill="#3082bc" fill-rule="evenodd" fill-opacity="1" stroke="#000000" stroke-opacity="1" stroke-width="3.2"/>
<path clip-path="url(#clip461)" d="M911.777 663.581 L911.777 695.581 L943.777 695.581 L943.777 663.581 L911.777 663.581 Z" fill="#3082bc" fill-rule="evenodd" fill-opacity="1" stroke="#000000" stroke-opacity="1" stroke-width="3.2"/>
<path clip-path="url(#clip461)" d="M978.973 641.329 L978.973 673.329 L1010.97 673.329 L1010.97 641.329 L978.973 641.329 Z" fill="#3082bc" fill-rule="evenodd" fill-opacity="1" stroke="#000000" stroke-opacity="1" stroke-width="3.2"/>
<path clip-path="url(#clip461)" d="M1046.2 619.076 L1046.2 651.076 L1078.2 651.076 L1078.2 619.076 L1046.2 619.076 Z" fill="#3082bc" fill-rule="evenodd" fill-opacity="1" stroke="#000000" stroke-opacity="1" stroke-width="3.2"/>
<path clip-path="url(#clip461)" d="M1113.4 604.242 L1113.4 636.242 L1145.4 636.242 L1145.4 604.242 L1113.4 604.242 Z" fill="#3082bc" fill-rule="evenodd" fill-opacity="1" stroke="#000000" stroke-opacity="1" stroke-width="3.2"/>
<path clip-path="url(#clip461)" d="M1180.63 581.989 L1180.63 613.989 L1212.63 613.989 L1212.63 581.989 L1180.63 581.989 Z" fill="#3082bc" fill-rule="evenodd" fill-opacity="1" stroke="#000000" stroke-opacity="1" stroke-width="3.2"/>
<path clip-path="url(#clip461)" d="M1247.83 574.572 L1247.83 606.572 L1279.83 606.572 L1279.83 574.572 L1247.83 574.572 Z" fill="#3082bc" fill-rule="evenodd" fill-opacity="1" stroke="#000000" stroke-opacity="1" stroke-width="3.2"/>
<path clip-path="url(#clip461)" d="M1315.06 559.737 L1315.06 591.737 L1347.06 591.737 L1347.06 559.737 L1315.06 559.737 Z" fill="#3082bc" fill-rule="evenodd" fill-opacity="1" stroke="#000000" stroke-opacity="1" stroke-width="3.2"/>
<path clip-path="url(#clip461)" d="M1382.26 544.902 L1382.26 576.902 L1414.26 576.902 L1414.26 544.902 L1382.26 544.902 Z" fill="#3082bc" fill-rule="evenodd" fill-opacity="1" stroke="#000000" stroke-opacity="1" stroke-width="3.2"/>
<path clip-path="url(#clip461)" d="M1449.45 537.485 L1449.45 569.485 L1481.45 569.485 L1481.45 537.485 L1449.45 537.485 Z" fill="#3082bc" fill-rule="evenodd" fill-opacity="1" stroke="#000000" stroke-opacity="1" stroke-width="3.2"/>
<path clip-path="url(#clip461)" d="M1516.69 522.65 L1516.69 554.65 L1548.69 554.65 L1548.69 522.65 L1516.69 522.65 Z" fill="#3082bc" fill-rule="evenodd" fill-opacity="1" stroke="#000000" stroke-opacity="1" stroke-width="3.2"/>
<path clip-path="url(#clip461)" d="M1583.88 515.232 L1583.88 547.232 L1615.88 547.232 L1615.88 515.232 L1583.88 515.232 Z" fill="#3082bc" fill-rule="evenodd" fill-opacity="1" stroke="#000000" stroke-opacity="1" stroke-width="3.2"/>
<path clip-path="url(#clip461)" d="M1651.11 507.815 L1651.11 539.815 L1683.11 539.815 L1683.11 507.815 L1651.11 507.815 Z" fill="#3082bc" fill-rule="evenodd" fill-opacity="1" stroke="#000000" stroke-opacity="1" stroke-width="3.2"/>
<path clip-path="url(#clip461)" d="M1718.31 500.397 L1718.31 532.397 L1750.31 532.397 L1750.31 500.397 L1718.31 500.397 Z" fill="#3082bc" fill-rule="evenodd" fill-opacity="1" stroke="#000000" stroke-opacity="1" stroke-width="3.2"/>
<path clip-path="url(#clip461)" d="M1785.54 492.98 L1785.54 524.98 L1817.54 524.98 L1817.54 492.98 L1785.54 492.98 Z" fill="#3082bc" fill-rule="evenodd" fill-opacity="1" stroke="#000000" stroke-opacity="1" stroke-width="3.2"/>
<path clip-path="url(#clip461)" d="M1852.74 485.563 L1852.74 517.563 L1884.74 517.563 L1884.74 485.563 L1852.74 485.563 Z" fill="#3082bc" fill-rule="evenodd" fill-opacity="1" stroke="#000000" stroke-opacity="1" stroke-width="3.2"/>
<path clip-path="url(#clip461)" d="M1919.97 478.145 L1919.97 510.145 L1951.97 510.145 L1951.97 478.145 L1919.97 478.145 Z" fill="#3082bc" fill-rule="evenodd" fill-opacity="1" stroke="#000000" stroke-opacity="1" stroke-width="3.2"/>
<path clip-path="url(#clip461)" d="M343.867 1227.31 L327.867 1243.31 L343.867 1259.31 L359.867 1243.31 L343.867 1227.31 Z" fill="#6badd5" fill-rule="evenodd" fill-opacity="1" stroke="#000000" stroke-opacity="1" stroke-width="3.2"/>
<path clip-path="url(#clip461)" d="M411.064 856.435 L395.064 872.435 L411.064 888.435 L427.064 872.435 L411.064 856.435 Z" fill="#6badd5" fill-rule="evenodd" fill-opacity="1" stroke="#000000" stroke-opacity="1" stroke-width="3.2"/>
<path clip-path="url(#clip461)" d="M478.295 774.843 L462.295 790.843 L478.295 806.843 L494.295 790.843 L478.295 774.843 Z" fill="#6badd5" fill-rule="evenodd" fill-opacity="1" stroke="#000000" stroke-opacity="1" stroke-width="3.2"/>
<path clip-path="url(#clip461)" d="M545.492 715.503 L529.492 731.503 L545.492 747.503 L561.492 731.503 L545.492 715.503 Z" fill="#6badd5" fill-rule="evenodd" fill-opacity="1" stroke="#000000" stroke-opacity="1" stroke-width="3.2"/>
<path clip-path="url(#clip461)" d="M612.723 670.999 L596.723 686.999 L612.723 702.999 L628.723 686.999 L612.723 670.999 Z" fill="#6badd5" fill-rule="evenodd" fill-opacity="1" stroke="#000000" stroke-opacity="1" stroke-width="3.2"/>
<path clip-path="url(#clip461)" d="M679.92 641.329 L663.92 657.329 L679.92 673.329 L695.92 657.329 L679.92 641.329 Z" fill="#6badd5" fill-rule="evenodd" fill-opacity="1" stroke="#000000" stroke-opacity="1" stroke-width="3.2"/>
<path clip-path="url(#clip461)" d="M747.151 596.824 L731.151 612.824 L747.151 628.824 L763.151 612.824 L747.151 596.824 Z" fill="#6badd5" fill-rule="evenodd" fill-opacity="1" stroke="#000000" stroke-opacity="1" stroke-width="3.2"/>
<path clip-path="url(#clip461)" d="M814.348 567.154 L798.348 583.154 L814.348 599.154 L830.348 583.154 L814.348 567.154 Z" fill="#6badd5" fill-rule="evenodd" fill-opacity="1" stroke="#000000" stroke-opacity="1" stroke-width="3.2"/>
<path clip-path="url(#clip461)" d="M881.579 544.902 L865.579 560.902 L881.579 576.902 L897.579 560.902 L881.579 544.902 Z" fill="#6badd5" fill-rule="evenodd" fill-opacity="1" stroke="#000000" stroke-opacity="1" stroke-width="3.2"/>
<path clip-path="url(#clip461)" d="M948.776 522.65 L932.776 538.65 L948.776 554.65 L964.776 538.65 L948.776 522.65 Z" fill="#6badd5" fill-rule="evenodd" fill-opacity="1" stroke="#000000" stroke-opacity="1" stroke-width="3.2"/>
<path clip-path="url(#clip461)" d="M1016.01 507.815 L1000.01 523.815 L1016.01 539.815 L1032.01 523.815 L1016.01 507.815 Z" fill="#6badd5" fill-rule="evenodd" fill-opacity="1" stroke="#000000" stroke-opacity="1" stroke-width="3.2"/>
<path clip-path="url(#clip461)" d="M1083.2 492.98 L1067.2 508.98 L1083.2 524.98 L1099.2 508.98 L1083.2 492.98 Z" fill="#6badd5" fill-rule="evenodd" fill-opacity="1" stroke="#000000" stroke-opacity="1" stroke-width="3.2"/>
<path clip-path="url(#clip461)" d="M1150.4 478.145 L1134.4 494.145 L1150.4 510.145 L1166.4 494.145 L1150.4 478.145 Z" fill="#6badd5" fill-rule="evenodd" fill-opacity="1" stroke="#000000" stroke-opacity="1" stroke-width="3.2"/>
<path clip-path="url(#clip461)" d="M1217.63 463.31 L1201.63 479.31 L1217.63 495.31 L1233.63 479.31 L1217.63 463.31 Z" fill="#6badd5" fill-rule="evenodd" fill-opacity="1" stroke="#000000" stroke-opacity="1" stroke-width="3.2"/>
<path clip-path="url(#clip461)" d="M1284.83 455.893 L1268.83 471.893 L1284.83 487.893 L1300.83 471.893 L1284.83 455.893 Z" fill="#6badd5" fill-rule="evenodd" fill-opacity="1" stroke="#000000" stroke-opacity="1" stroke-width="3.2"/>
<path clip-path="url(#clip461)" d="M1352.06 448.475 L1336.06 464.475 L1352.06 480.475 L1368.06 464.475 L1352.06 448.475 Z" fill="#6badd5" fill-rule="evenodd" fill-opacity="1" stroke="#000000" stroke-opacity="1" stroke-width="3.2"/>
<path clip-path="url(#clip461)" d="M1419.26 433.64 L1403.26 449.64 L1419.26 465.64 L1435.26 449.64 L1419.26 433.64 Z" fill="#6badd5" fill-rule="evenodd" fill-opacity="1" stroke="#000000" stroke-opacity="1" stroke-width="3.2"/>
<path clip-path="url(#clip461)" d="M1486.45 418.806 L1470.45 434.806 L1486.45 450.806 L1502.45 434.806 L1486.45 418.806 Z" fill="#6badd5" fill-rule="evenodd" fill-opacity="1" stroke="#000000" stroke-opacity="1" stroke-width="3.2"/>
<path clip-path="url(#clip461)" d="M1553.68 418.806 L1537.68 434.806 L1553.68 450.806 L1569.68 434.806 L1553.68 418.806 Z" fill="#6badd5" fill-rule="evenodd" fill-opacity="1" stroke="#000000" stroke-opacity="1" stroke-width="3.2"/>
<path clip-path="url(#clip461)" d="M1620.88 418.806 L1604.88 434.806 L1620.88 450.806 L1636.88 434.806 L1620.88 418.806 Z" fill="#6badd5" fill-rule="evenodd" fill-opacity="1" stroke="#000000" stroke-opacity="1" stroke-width="3.2"/>
<path clip-path="url(#clip461)" d="M1688.11 403.971 L1672.11 419.971 L1688.11 435.971 L1704.11 419.971 L1688.11 403.971 Z" fill="#6badd5" fill-rule="evenodd" fill-opacity="1" stroke="#000000" stroke-opacity="1" stroke-width="3.2"/>
<path clip-path="url(#clip461)" d="M1755.31 396.553 L1739.31 412.553 L1755.31 428.553 L1771.31 412.553 L1755.31 396.553 Z" fill="#6badd5" fill-rule="evenodd" fill-opacity="1" stroke="#000000" stroke-opacity="1" stroke-width="3.2"/>
<path clip-path="url(#clip461)" d="M1822.54 396.553 L1806.54 412.553 L1822.54 428.553 L1838.54 412.553 L1822.54 396.553 Z" fill="#6badd5" fill-rule="evenodd" fill-opacity="1" stroke="#000000" stroke-opacity="1" stroke-width="3.2"/>
<path clip-path="url(#clip461)" d="M1889.74 389.136 L1873.74 405.136 L1889.74 421.136 L1905.74 405.136 L1889.74 389.136 Z" fill="#6badd5" fill-rule="evenodd" fill-opacity="1" stroke="#000000" stroke-opacity="1" stroke-width="3.2"/>
<path clip-path="url(#clip461)" d="M1956.97 381.718 L1940.97 397.718 L1956.97 413.718 L1972.97 397.718 L1956.97 381.718 Z" fill="#6badd5" fill-rule="evenodd" fill-opacity="1" stroke="#000000" stroke-opacity="1" stroke-width="3.2"/>
<path clip-path="url(#clip461)" d="M2024.17 374.301 L2008.17 390.301 L2024.17 406.301 L2040.17 390.301 L2024.17 374.301 Z" fill="#6badd5" fill-rule="evenodd" fill-opacity="1" stroke="#000000" stroke-opacity="1" stroke-width="3.2"/>
<path clip-path="url(#clip461)" d="M2091.4 366.883 L2075.4 382.883 L2091.4 398.883 L2107.4 382.883 L2091.4 366.883 Z" fill="#6badd5" fill-rule="evenodd" fill-opacity="1" stroke="#000000" stroke-opacity="1" stroke-width="3.2"/>
<path clip-path="url(#clip461)" d="M2158.59 359.466 L2142.59 375.466 L2158.59 391.466 L2174.59 375.466 L2158.59 359.466 Z" fill="#6badd5" fill-rule="evenodd" fill-opacity="1" stroke="#000000" stroke-opacity="1" stroke-width="3.2"/>
<path clip-path="url(#clip461)" d="M2225.79 352.049 L2209.79 368.049 L2225.79 384.049 L2241.79 368.049 L2225.79 352.049 Z" fill="#6badd5" fill-rule="evenodd" fill-opacity="1" stroke="#000000" stroke-opacity="1" stroke-width="3.2"/>
<path clip-path="url(#clip461)" d="M2293.02 329.796 L2277.02 345.796 L2293.02 361.796 L2309.02 345.796 L2293.02 329.796 Z" fill="#6badd5" fill-rule="evenodd" fill-opacity="1" stroke="#000000" stroke-opacity="1" stroke-width="3.2"/>
<path clip-path="url(#clip460)" d="M312.489 300.469 L720.06 300.469 L720.06 93.1086 L312.489 93.1086  Z" fill="#ffffff" fill-rule="evenodd" fill-opacity="1"/>
<polyline clip-path="url(#clip460)" style="stroke:#000000; stroke-linecap:round; stroke-linejoin:round; stroke-width:4; stroke-opacity:1; fill:none" points="312.489,300.469 720.06,300.469 720.06,93.1086 312.489,93.1086 312.489,300.469 "/>
<polyline clip-path="url(#clip460)" style="stroke:#07519c; stroke-linecap:round; stroke-linejoin:round; stroke-width:4; stroke-opacity:1; fill:none" points="335.94,144.949 476.648,144.949 "/>
<circle clip-path="url(#clip460)" cx="406.294" cy="144.949" r="19.5428" fill="#07519c" fill-rule="evenodd" fill-opacity="1" stroke="#000000" stroke-opacity="1" stroke-width="4.55111"/>
<path clip-path="url(#clip460)" d="M532.727 122.039 Q532.727 122.484 532.633 122.859 L531.322 131.197 Q531.251 131.83 531.111 132.064 Q530.994 132.298 530.619 132.298 Q530.033 132.298 530.033 131.689 Q530.033 131.338 530.174 130.776 Q530.572 128.129 530.572 126.934 Q530.572 126.138 530.408 125.552 Q530.268 124.943 530.033 124.522 Q529.823 124.1 529.331 123.819 Q528.839 123.538 528.37 123.374 Q527.902 123.21 527.059 123.14 Q526.216 123.046 525.489 123.023 Q524.763 122.999 523.569 122.999 Q520.969 122.999 520.547 123.093 Q520.102 123.21 519.868 123.561 Q519.657 123.889 519.423 124.873 L513.052 150.333 L512.865 151.34 Q512.865 151.903 513.216 152.09 Q513.567 152.277 514.645 152.394 Q516.191 152.512 517.713 152.512 Q517.76 152.512 517.854 152.512 Q518.369 152.512 518.58 152.535 Q518.791 152.535 519.001 152.582 Q519.212 152.629 519.259 152.746 Q519.329 152.84 519.329 153.027 Q519.329 153.472 519.142 153.706 Q518.955 153.917 518.767 153.964 Q518.603 153.987 518.275 153.987 Q517.619 153.987 516.214 153.94 Q514.809 153.894 514.106 153.894 L510.124 153.847 L506.049 153.894 Q505.416 153.894 504.081 153.94 Q502.746 153.987 502.114 153.987 Q501.294 153.987 501.294 153.402 Q501.294 152.746 501.599 152.629 Q501.926 152.512 503.308 152.512 Q505.252 152.512 506.306 152.418 Q507.36 152.324 507.923 151.996 Q508.508 151.668 508.672 151.34 Q508.836 150.989 509.023 150.193 L515.465 124.592 Q515.652 124.03 515.652 123.585 Q515.652 123.351 515.582 123.257 Q515.535 123.163 515.23 123.093 Q514.926 122.999 514.293 122.999 L512.42 122.999 Q510.499 122.999 509.305 123.093 Q508.133 123.163 507.009 123.515 Q505.908 123.866 505.252 124.358 Q504.62 124.85 503.917 125.857 Q503.215 126.864 502.699 128.082 Q502.208 129.3 501.505 131.291 Q501.271 131.947 501.13 132.134 Q501.013 132.298 500.685 132.298 Q500.451 132.298 500.263 132.157 Q500.099 131.994 500.099 131.783 Q500.334 131.01 500.381 130.916 L503.262 122.461 Q503.496 121.781 503.707 121.664 Q503.941 121.524 504.807 121.524 L531.415 121.524 Q531.837 121.524 531.977 121.524 Q532.118 121.524 532.352 121.571 Q532.586 121.617 532.657 121.735 Q532.727 121.852 532.727 122.039 Z" fill="#000000" fill-rule="nonzero" fill-opacity="1" /><path clip-path="url(#clip460)" d="M537.516 154.623 L537.516 153.573 L540.156 153.573 L540.156 149.72 Q540.156 147.228 541.763 145.802 Q543.386 144.375 545.37 144.375 Q546.682 144.375 547.534 145.08 Q548.387 145.785 548.387 146.736 Q548.387 147.376 547.993 147.802 Q547.616 148.212 546.911 148.212 Q546.239 148.212 545.845 147.786 Q545.468 147.359 545.468 146.769 Q545.468 145.687 546.468 145.359 Q545.96 145.129 545.37 145.113 Q544.157 145.113 543.206 146.359 Q542.271 147.605 542.271 149.687 L542.271 153.573 L546.206 153.573 L546.206 154.623 L542.386 154.623 L542.386 165.427 Q542.386 166.395 542.779 166.706 Q543.189 167.018 544.927 167.018 L545.632 167.018 L545.632 168.051 Q544.288 167.952 541.369 167.952 Q540.959 167.952 540.32 167.969 Q539.697 167.985 538.844 168.018 Q538.008 168.051 537.549 168.051 L537.549 167.018 Q539.336 167.018 539.746 166.805 Q540.156 166.575 540.156 165.493 L540.156 154.623 L537.516 154.623 Z" fill="#000000" fill-rule="nonzero" fill-opacity="1" /><path clip-path="url(#clip460)" d="M551.948 148.884 L551.948 147.835 Q555.981 147.835 558.064 145.687 Q558.637 145.687 558.736 145.818 Q558.834 145.949 558.834 146.556 L558.834 165.395 Q558.834 166.395 559.326 166.706 Q559.818 167.018 561.966 167.018 L563.032 167.018 L563.032 168.051 Q561.851 167.952 557.588 167.952 Q553.325 167.952 552.161 168.051 L552.161 167.018 L553.227 167.018 Q555.342 167.018 555.85 166.723 Q556.358 166.411 556.358 165.395 L556.358 147.999 Q554.604 148.884 551.948 148.884 Z" fill="#000000" fill-rule="nonzero" fill-opacity="1" /><path clip-path="url(#clip460)" d="M575.591 148.108 L580.475 148.108 L580.475 152.089 L576.679 159.496 L573.693 159.496 L575.591 152.089 L575.591 148.108 Z" fill="#000000" fill-rule="nonzero" fill-opacity="1" /><path clip-path="url(#clip460)" d="M626.818 139.96 L626.818 142.043 L607.235 142.043 Q607.512 146.441 609.873 148.756 Q612.258 151.047 616.494 151.047 Q618.947 151.047 621.239 150.446 Q623.554 149.844 625.822 148.64 L625.822 152.668 Q623.531 153.64 621.123 154.149 Q618.716 154.659 616.239 154.659 Q610.035 154.659 606.401 151.047 Q602.79 147.436 602.79 141.279 Q602.79 134.913 606.216 131.186 Q609.665 127.436 615.498 127.436 Q620.73 127.436 623.762 130.816 Q626.818 134.173 626.818 139.96 M622.558 138.71 Q622.512 135.214 620.591 133.131 Q618.693 131.048 615.545 131.048 Q611.98 131.048 609.827 133.061 Q607.697 135.075 607.373 138.733 L622.558 138.71 Z" fill="#000000" fill-rule="nonzero" fill-opacity="1" /><path clip-path="url(#clip460)" d="M654.526 128.061 L645.151 140.677 L655.012 153.987 L649.989 153.987 L642.443 143.802 L634.896 153.987 L629.873 153.987 L639.943 140.422 L630.73 128.061 L635.753 128.061 L642.628 137.297 L649.503 128.061 L654.526 128.061 Z" fill="#000000" fill-rule="nonzero" fill-opacity="1" /><path clip-path="url(#clip460)" d="M665.151 150.098 L665.151 163.848 L660.868 163.848 L660.868 128.061 L665.151 128.061 L665.151 131.997 Q666.493 129.682 668.53 128.571 Q670.591 127.436 673.438 127.436 Q678.16 127.436 681.1 131.186 Q684.063 134.936 684.063 141.047 Q684.063 147.159 681.1 150.909 Q678.16 154.659 673.438 154.659 Q670.591 154.659 668.53 153.547 Q666.493 152.413 665.151 150.098 M679.642 141.047 Q679.642 136.348 677.697 133.686 Q675.776 131.001 672.396 131.001 Q669.017 131.001 667.072 133.686 Q665.151 136.348 665.151 141.047 Q665.151 145.747 667.072 148.432 Q669.017 151.094 672.396 151.094 Q675.776 151.094 677.697 148.432 Q679.642 145.747 679.642 141.047 Z" fill="#000000" fill-rule="nonzero" fill-opacity="1" /><path clip-path="url(#clip460)" d="M691.725 148.108 L696.609 148.108 L696.609 153.987 L691.725 153.987 L691.725 148.108 Z" fill="#000000" fill-rule="nonzero" fill-opacity="1" /><polyline clip-path="url(#clip460)" style="stroke:#3082bc; stroke-linecap:round; stroke-linejoin:round; stroke-width:4; stroke-opacity:1; fill:none" points="335.94,196.789 476.648,196.789 "/>
<path clip-path="url(#clip460)" d="M384.58 175.074 L384.58 218.503 L428.008 218.503 L428.008 175.074 L384.58 175.074 Z" fill="#3082bc" fill-rule="evenodd" fill-opacity="1" stroke="#000000" stroke-opacity="1" stroke-width="4.55111"/>
<path clip-path="url(#clip460)" d="M532.727 173.879 Q532.727 174.324 532.633 174.699 L531.322 183.037 Q531.251 183.67 531.111 183.904 Q530.994 184.138 530.619 184.138 Q530.033 184.138 530.033 183.529 Q530.033 183.178 530.174 182.616 Q530.572 179.969 530.572 178.774 Q530.572 177.978 530.408 177.392 Q530.268 176.783 530.033 176.362 Q529.823 175.94 529.331 175.659 Q528.839 175.378 528.37 175.214 Q527.902 175.05 527.059 174.98 Q526.216 174.886 525.489 174.863 Q524.763 174.839 523.569 174.839 Q520.969 174.839 520.547 174.933 Q520.102 175.05 519.868 175.401 Q519.657 175.729 519.423 176.713 L513.052 202.173 L512.865 203.18 Q512.865 203.743 513.216 203.93 Q513.567 204.117 514.645 204.234 Q516.191 204.352 517.713 204.352 Q517.76 204.352 517.854 204.352 Q518.369 204.352 518.58 204.375 Q518.791 204.375 519.001 204.422 Q519.212 204.469 519.259 204.586 Q519.329 204.68 519.329 204.867 Q519.329 205.312 519.142 205.546 Q518.955 205.757 518.767 205.804 Q518.603 205.827 518.275 205.827 Q517.619 205.827 516.214 205.78 Q514.809 205.734 514.106 205.734 L510.124 205.687 L506.049 205.734 Q505.416 205.734 504.081 205.78 Q502.746 205.827 502.114 205.827 Q501.294 205.827 501.294 205.242 Q501.294 204.586 501.599 204.469 Q501.926 204.352 503.308 204.352 Q505.252 204.352 506.306 204.258 Q507.36 204.164 507.923 203.836 Q508.508 203.508 508.672 203.18 Q508.836 202.829 509.023 202.033 L515.465 176.432 Q515.652 175.87 515.652 175.425 Q515.652 175.191 515.582 175.097 Q515.535 175.003 515.23 174.933 Q514.926 174.839 514.293 174.839 L512.42 174.839 Q510.499 174.839 509.305 174.933 Q508.133 175.003 507.009 175.355 Q505.908 175.706 505.252 176.198 Q504.62 176.69 503.917 177.697 Q503.215 178.704 502.699 179.922 Q502.208 181.14 501.505 183.131 Q501.271 183.787 501.13 183.974 Q501.013 184.138 500.685 184.138 Q500.451 184.138 500.263 183.997 Q500.099 183.834 500.099 183.623 Q500.334 182.85 500.381 182.756 L503.262 174.301 Q503.496 173.621 503.707 173.504 Q503.941 173.364 504.807 173.364 L531.415 173.364 Q531.837 173.364 531.977 173.364 Q532.118 173.364 532.352 173.411 Q532.586 173.457 532.657 173.575 Q532.727 173.692 532.727 173.879 Z" fill="#000000" fill-rule="nonzero" fill-opacity="1" /><path clip-path="url(#clip460)" d="M537.516 206.463 L537.516 205.413 L540.156 205.413 L540.156 201.56 Q540.156 199.068 541.763 197.642 Q543.386 196.215 545.37 196.215 Q546.682 196.215 547.534 196.92 Q548.387 197.625 548.387 198.576 Q548.387 199.216 547.993 199.642 Q547.616 200.052 546.911 200.052 Q546.239 200.052 545.845 199.626 Q545.468 199.199 545.468 198.609 Q545.468 197.527 546.468 197.199 Q545.96 196.969 545.37 196.953 Q544.157 196.953 543.206 198.199 Q542.271 199.445 542.271 201.527 L542.271 205.413 L546.206 205.413 L546.206 206.463 L542.386 206.463 L542.386 217.267 Q542.386 218.235 542.779 218.546 Q543.189 218.858 544.927 218.858 L545.632 218.858 L545.632 219.891 Q544.288 219.792 541.369 219.792 Q540.959 219.792 540.32 219.809 Q539.697 219.825 538.844 219.858 Q538.008 219.891 537.549 219.891 L537.549 218.858 Q539.336 218.858 539.746 218.645 Q540.156 218.415 540.156 217.333 L540.156 206.463 L537.516 206.463 Z" fill="#000000" fill-rule="nonzero" fill-opacity="1" /><path clip-path="url(#clip460)" d="M550.738 219.891 Q550.738 219.284 550.788 219.104 Q550.853 218.923 551.116 218.645 L557.559 211.463 Q561.084 207.495 561.084 204.036 Q561.084 201.79 559.904 200.183 Q558.74 198.576 556.592 198.576 Q555.116 198.576 553.87 199.478 Q552.624 200.38 552.05 201.987 Q552.148 201.954 552.493 201.954 Q553.329 201.954 553.788 202.478 Q554.263 203.003 554.263 203.708 Q554.263 204.61 553.673 205.053 Q553.099 205.479 552.526 205.479 Q552.296 205.479 551.984 205.43 Q551.689 205.38 551.214 204.921 Q550.738 204.446 550.738 203.61 Q550.738 201.265 552.509 199.396 Q554.296 197.527 557.018 197.527 Q560.1 197.527 562.117 199.363 Q564.15 201.183 564.15 204.036 Q564.15 205.036 563.839 205.954 Q563.543 206.856 563.134 207.561 Q562.74 208.266 561.658 209.397 Q560.576 210.529 559.707 211.332 Q558.838 212.135 556.887 213.841 L553.329 217.3 L559.379 217.3 Q562.33 217.3 562.56 217.038 Q562.888 216.562 563.298 214.054 L564.15 214.054 L563.199 219.891 L550.738 219.891 Z" fill="#000000" fill-rule="nonzero" fill-opacity="1" /><path clip-path="url(#clip460)" d="M574.382 199.948 L579.266 199.948 L579.266 203.929 L575.47 211.336 L572.483 211.336 L574.382 203.929 L574.382 199.948 Z" fill="#000000" fill-rule="nonzero" fill-opacity="1" /><path clip-path="url(#clip460)" d="M625.608 191.8 L625.608 193.883 L606.025 193.883 Q606.303 198.281 608.664 200.596 Q611.048 202.887 615.284 202.887 Q617.738 202.887 620.029 202.286 Q622.344 201.684 624.613 200.48 L624.613 204.508 Q622.321 205.48 619.914 205.989 Q617.506 206.499 615.029 206.499 Q608.826 206.499 605.192 202.887 Q601.58 199.276 601.58 193.119 Q601.58 186.753 605.006 183.026 Q608.455 179.276 614.289 179.276 Q619.52 179.276 622.553 182.656 Q625.608 186.013 625.608 191.8 M621.349 190.55 Q621.303 187.054 619.381 184.971 Q617.483 182.888 614.335 182.888 Q610.77 182.888 608.617 184.901 Q606.488 186.915 606.164 190.573 L621.349 190.55 Z" fill="#000000" fill-rule="nonzero" fill-opacity="1" /><path clip-path="url(#clip460)" d="M653.316 179.901 L643.941 192.517 L653.802 205.827 L648.779 205.827 L641.233 195.642 L633.687 205.827 L628.664 205.827 L638.733 192.262 L629.52 179.901 L634.543 179.901 L641.418 189.137 L648.293 179.901 L653.316 179.901 Z" fill="#000000" fill-rule="nonzero" fill-opacity="1" /><path clip-path="url(#clip460)" d="M663.941 201.938 L663.941 215.688 L659.659 215.688 L659.659 179.901 L663.941 179.901 L663.941 183.837 Q665.284 181.522 667.321 180.411 Q669.381 179.276 672.228 179.276 Q676.95 179.276 679.89 183.026 Q682.853 186.776 682.853 192.887 Q682.853 198.999 679.89 202.749 Q676.95 206.499 672.228 206.499 Q669.381 206.499 667.321 205.387 Q665.284 204.253 663.941 201.938 M678.432 192.887 Q678.432 188.188 676.487 185.526 Q674.566 182.841 671.187 182.841 Q667.807 182.841 665.863 185.526 Q663.941 188.188 663.941 192.887 Q663.941 197.587 665.863 200.272 Q667.807 202.934 671.187 202.934 Q674.566 202.934 676.487 200.272 Q678.432 197.587 678.432 192.887 Z" fill="#000000" fill-rule="nonzero" fill-opacity="1" /><path clip-path="url(#clip460)" d="M690.515 199.948 L695.399 199.948 L695.399 205.827 L690.515 205.827 L690.515 199.948 Z" fill="#000000" fill-rule="nonzero" fill-opacity="1" /><polyline clip-path="url(#clip460)" style="stroke:#6badd5; stroke-linecap:round; stroke-linejoin:round; stroke-width:4; stroke-opacity:1; fill:none" points="335.94,248.629 476.648,248.629 "/>
<path clip-path="url(#clip460)" d="M406.294 226.914 L384.58 248.629 L406.294 270.343 L428.008 248.629 L406.294 226.914 Z" fill="#6badd5" fill-rule="evenodd" fill-opacity="1" stroke="#000000" stroke-opacity="1" stroke-width="4.55111"/>
<path clip-path="url(#clip460)" d="M532.727 225.353 Q532.727 225.798 532.633 226.172 L531.322 234.511 Q531.251 235.143 531.111 235.377 Q530.994 235.612 530.619 235.612 Q530.033 235.612 530.033 235.003 Q530.033 234.651 530.174 234.089 Q530.572 231.442 530.572 230.248 Q530.572 229.452 530.408 228.866 Q530.268 228.257 530.033 227.835 Q529.823 227.414 529.331 227.133 Q528.839 226.852 528.37 226.688 Q527.902 226.524 527.059 226.453 Q526.216 226.36 525.489 226.336 Q524.763 226.313 523.569 226.313 Q520.969 226.313 520.547 226.407 Q520.102 226.524 519.868 226.875 Q519.657 227.203 519.423 228.187 L513.052 253.647 L512.865 254.654 Q512.865 255.216 513.216 255.404 Q513.567 255.591 514.645 255.708 Q516.191 255.825 517.713 255.825 Q517.76 255.825 517.854 255.825 Q518.369 255.825 518.58 255.849 Q518.791 255.849 519.001 255.895 Q519.212 255.942 519.259 256.059 Q519.329 256.153 519.329 256.34 Q519.329 256.786 519.142 257.02 Q518.955 257.231 518.767 257.277 Q518.603 257.301 518.275 257.301 Q517.619 257.301 516.214 257.254 Q514.809 257.207 514.106 257.207 L510.124 257.16 L506.049 257.207 Q505.416 257.207 504.081 257.254 Q502.746 257.301 502.114 257.301 Q501.294 257.301 501.294 256.715 Q501.294 256.059 501.599 255.942 Q501.926 255.825 503.308 255.825 Q505.252 255.825 506.306 255.732 Q507.36 255.638 507.923 255.31 Q508.508 254.982 508.672 254.654 Q508.836 254.303 509.023 253.506 L515.465 227.906 Q515.652 227.344 515.652 226.898 Q515.652 226.664 515.582 226.571 Q515.535 226.477 515.23 226.407 Q514.926 226.313 514.293 226.313 L512.42 226.313 Q510.499 226.313 509.305 226.407 Q508.133 226.477 507.009 226.828 Q505.908 227.18 505.252 227.671 Q504.62 228.163 503.917 229.17 Q503.215 230.178 502.699 231.396 Q502.208 232.614 501.505 234.604 Q501.271 235.26 501.13 235.448 Q501.013 235.612 500.685 235.612 Q500.451 235.612 500.263 235.471 Q500.099 235.307 500.099 235.096 Q500.334 234.323 500.381 234.23 L503.262 225.774 Q503.496 225.095 503.707 224.978 Q503.941 224.837 504.807 224.837 L531.415 224.837 Q531.837 224.837 531.977 224.837 Q532.118 224.837 532.352 224.884 Q532.586 224.931 532.657 225.048 Q532.727 225.165 532.727 225.353 Z" fill="#000000" fill-rule="nonzero" fill-opacity="1" /><path clip-path="url(#clip460)" d="M537.516 257.936 L537.516 256.887 L540.156 256.887 L540.156 253.034 Q540.156 250.542 541.763 249.115 Q543.386 247.689 545.37 247.689 Q546.682 247.689 547.534 248.394 Q548.387 249.099 548.387 250.05 Q548.387 250.689 547.993 251.116 Q547.616 251.525 546.911 251.525 Q546.239 251.525 545.845 251.099 Q545.468 250.673 545.468 250.083 Q545.468 249 546.468 248.673 Q545.96 248.443 545.37 248.427 Q544.157 248.427 543.206 249.673 Q542.271 250.919 542.271 253.001 L542.271 256.887 L546.206 256.887 L546.206 257.936 L542.386 257.936 L542.386 268.741 Q542.386 269.708 542.779 270.02 Q543.189 270.331 544.927 270.331 L545.632 270.331 L545.632 271.364 Q544.288 271.266 541.369 271.266 Q540.959 271.266 540.32 271.282 Q539.697 271.299 538.844 271.331 Q538.008 271.364 537.549 271.364 L537.549 270.331 Q539.336 270.331 539.746 270.118 Q540.156 269.889 540.156 268.807 L540.156 257.936 L537.516 257.936 Z" fill="#000000" fill-rule="nonzero" fill-opacity="1" /><path clip-path="url(#clip460)" d="M550.738 266.839 Q550.738 265.839 551.312 265.363 Q551.886 264.888 552.624 264.888 Q553.395 264.888 553.936 265.396 Q554.493 265.888 554.493 266.757 Q554.493 267.692 553.837 268.216 Q553.198 268.741 552.28 268.61 Q553.083 269.954 554.559 270.561 Q556.051 271.167 557.428 271.167 Q558.871 271.167 560.035 269.921 Q561.215 268.675 561.215 265.626 Q561.215 263.035 560.199 261.543 Q559.199 260.051 557.215 260.051 L555.739 260.051 Q555.231 260.051 555.083 260.002 Q554.936 259.953 554.936 259.674 Q554.936 259.346 555.444 259.281 Q555.952 259.281 556.756 259.182 Q558.707 259.117 559.74 257.428 Q560.674 255.854 560.674 253.608 Q560.674 251.558 559.69 250.706 Q558.723 249.837 557.461 249.837 Q556.28 249.837 554.985 250.329 Q553.69 250.82 552.985 251.919 Q555.067 251.919 555.067 253.608 Q555.067 254.345 554.591 254.837 Q554.132 255.313 553.362 255.313 Q552.624 255.313 552.132 254.854 Q551.64 254.378 551.64 253.575 Q551.64 251.657 553.345 250.329 Q555.067 249 557.592 249 Q560.084 249 561.92 250.312 Q563.773 251.624 563.773 253.64 Q563.773 255.624 562.461 257.248 Q561.15 258.871 559.067 259.543 Q561.625 260.051 563.15 261.789 Q564.675 263.511 564.675 265.626 Q564.675 268.249 562.609 270.184 Q560.543 272.102 557.526 272.102 Q554.739 272.102 552.739 270.594 Q550.738 269.085 550.738 266.839 Z" fill="#000000" fill-rule="nonzero" fill-opacity="1" /><path clip-path="url(#clip460)" d="M574.382 251.421 L579.266 251.421 L579.266 255.403 L575.47 262.81 L572.483 262.81 L574.382 255.403 L574.382 251.421 Z" fill="#000000" fill-rule="nonzero" fill-opacity="1" /><path clip-path="url(#clip460)" d="M625.608 243.273 L625.608 245.356 L606.025 245.356 Q606.303 249.755 608.664 252.069 Q611.048 254.361 615.284 254.361 Q617.738 254.361 620.029 253.759 Q622.344 253.157 624.613 251.954 L624.613 255.981 Q622.321 256.954 619.914 257.463 Q617.506 257.972 615.029 257.972 Q608.826 257.972 605.192 254.361 Q601.58 250.75 601.58 244.593 Q601.58 238.227 605.006 234.5 Q608.455 230.75 614.289 230.75 Q619.52 230.75 622.553 234.13 Q625.608 237.486 625.608 243.273 M621.349 242.023 Q621.303 238.528 619.381 236.444 Q617.483 234.361 614.335 234.361 Q610.77 234.361 608.617 236.375 Q606.488 238.389 606.164 242.046 L621.349 242.023 Z" fill="#000000" fill-rule="nonzero" fill-opacity="1" /><path clip-path="url(#clip460)" d="M653.316 231.375 L643.941 243.991 L653.802 257.301 L648.779 257.301 L641.233 247.116 L633.687 257.301 L628.664 257.301 L638.733 243.736 L629.52 231.375 L634.543 231.375 L641.418 240.611 L648.293 231.375 L653.316 231.375 Z" fill="#000000" fill-rule="nonzero" fill-opacity="1" /><path clip-path="url(#clip460)" d="M663.941 253.412 L663.941 267.162 L659.659 267.162 L659.659 231.375 L663.941 231.375 L663.941 235.31 Q665.284 232.995 667.321 231.884 Q669.381 230.75 672.228 230.75 Q676.95 230.75 679.89 234.5 Q682.853 238.25 682.853 244.361 Q682.853 250.472 679.89 254.222 Q676.95 257.972 672.228 257.972 Q669.381 257.972 667.321 256.861 Q665.284 255.727 663.941 253.412 M678.432 244.361 Q678.432 239.662 676.487 237 Q674.566 234.315 671.187 234.315 Q667.807 234.315 665.863 237 Q663.941 239.662 663.941 244.361 Q663.941 249.06 665.863 251.745 Q667.807 254.407 671.187 254.407 Q674.566 254.407 676.487 251.745 Q678.432 249.06 678.432 244.361 Z" fill="#000000" fill-rule="nonzero" fill-opacity="1" /><path clip-path="url(#clip460)" d="M690.515 251.421 L695.399 251.421 L695.399 257.301 L690.515 257.301 L690.515 251.421 Z" fill="#000000" fill-rule="nonzero" fill-opacity="1" /></svg>
