<?xml version="1.0" encoding="utf-8"?>
<svg xmlns="http://www.w3.org/2000/svg" xmlns:xlink="http://www.w3.org/1999/xlink" width="600" height="400" viewBox="0 0 2400 1600">
<defs>
  <clipPath id="clip770">
    <rect x="0" y="0" width="2400" height="1600"/>
  </clipPath>
</defs>
<path clip-path="url(#clip770)" d="M0 1600 L2400 1600 L2400 0 L0 0  Z" fill="#ffffff" fill-rule="evenodd" fill-opacity="1"/>
<defs>
  <clipPath id="clip771">
    <rect x="480" y="0" width="1681" height="1600"/>
  </clipPath>
</defs>
<path clip-path="url(#clip770)" d="M242.135 1423.18 L2352.76 1423.18 L2352.76 47.2441 L242.135 47.2441  Z" fill="#ffffff" fill-rule="evenodd" fill-opacity="1"/>
<defs>
  <clipPath id="clip772">
    <rect x="242" y="47" width="2112" height="1377"/>
  </clipPath>
</defs>
<polyline clip-path="url(#clip772)" style="stroke:#000000; stroke-linecap:round; stroke-linejoin:round; stroke-width:2; stroke-opacity:0.1; fill:none" points="301.869,1423.18 301.869,47.2441 "/>
<polyline clip-path="url(#clip772)" style="stroke:#000000; stroke-linecap:round; stroke-linejoin:round; stroke-width:2; stroke-opacity:0.1; fill:none" points="773.228,1423.18 773.228,47.2441 "/>
<polyline clip-path="url(#clip772)" style="stroke:#000000; stroke-linecap:round; stroke-linejoin:round; stroke-width:2; stroke-opacity:0.1; fill:none" points="1244.59,1423.18 1244.59,47.2441 "/>
<polyline clip-path="url(#clip772)" style="stroke:#000000; stroke-linecap:round; stroke-linejoin:round; stroke-width:2; stroke-opacity:0.1; fill:none" points="1715.95,1423.18 1715.95,47.2441 "/>
<polyline clip-path="url(#clip772)" style="stroke:#000000; stroke-linecap:round; stroke-linejoin:round; stroke-width:2; stroke-opacity:0.1; fill:none" points="2187.31,1423.18 2187.31,47.2441 "/>
<polyline clip-path="url(#clip772)" style="stroke:#000000; stroke-linecap:round; stroke-linejoin:round; stroke-width:2; stroke-opacity:0.1; fill:none" points="242.135,1384.24 2352.76,1384.24 "/>
<polyline clip-path="url(#clip772)" style="stroke:#000000; stroke-linecap:round; stroke-linejoin:round; stroke-width:2; stroke-opacity:0.1; fill:none" points="242.135,1022.66 2352.76,1022.66 "/>
<polyline clip-path="url(#clip772)" style="stroke:#000000; stroke-linecap:round; stroke-linejoin:round; stroke-width:2; stroke-opacity:0.1; fill:none" points="242.135,661.089 2352.76,661.089 "/>
<polyline clip-path="url(#clip772)" style="stroke:#000000; stroke-linecap:round; stroke-linejoin:round; stroke-width:2; stroke-opacity:0.1; fill:none" points="242.135,299.515 2352.76,299.515 "/>
<polyline clip-path="url(#clip770)" style="stroke:#000000; stroke-linecap:round; stroke-linejoin:round; stroke-width:4; stroke-opacity:1; fill:none" points="242.135,1423.18 2352.76,1423.18 "/>
<polyline clip-path="url(#clip770)" style="stroke:#000000; stroke-linecap:round; stroke-linejoin:round; stroke-width:4; stroke-opacity:1; fill:none" points="301.869,1423.18 301.869,1404.28 "/>
<polyline clip-path="url(#clip770)" style="stroke:#000000; stroke-linecap:round; stroke-linejoin:round; stroke-width:4; stroke-opacity:1; fill:none" points="773.228,1423.18 773.228,1404.28 "/>
<polyline clip-path="url(#clip770)" style="stroke:#000000; stroke-linecap:round; stroke-linejoin:round; stroke-width:4; stroke-opacity:1; fill:none" points="1244.59,1423.18 1244.59,1404.28 "/>
<polyline clip-path="url(#clip770)" style="stroke:#000000; stroke-linecap:round; stroke-linejoin:round; stroke-width:4; stroke-opacity:1; fill:none" points="1715.95,1423.18 1715.95,1404.28 "/>
<polyline clip-path="url(#clip770)" style="stroke:#000000; stroke-linecap:round; stroke-linejoin:round; stroke-width:4; stroke-opacity:1; fill:none" points="2187.31,1423.18 2187.31,1404.28 "/>
<path clip-path="url(#clip770)" d="M301.869 1454.1 Q298.258 1454.1 296.429 1457.66 Q294.624 1461.2 294.624 1468.33 Q294.624 1475.44 296.429 1479.01 Q298.258 1482.55 301.869 1482.55 Q305.503 1482.55 307.309 1479.01 Q309.138 1475.44 309.138 1468.33 Q309.138 1461.2 307.309 1457.66 Q305.503 1454.1 301.869 1454.1 M301.869 1450.39 Q307.679 1450.39 310.735 1455 Q313.814 1459.58 313.814 1468.33 Q313.814 1477.06 310.735 1481.67 Q307.679 1486.25 301.869 1486.25 Q296.059 1486.25 292.98 1481.67 Q289.925 1477.06 289.925 1468.33 Q289.925 1459.58 292.98 1455 Q296.059 1450.39 301.869 1450.39 Z" fill="#000000" fill-rule="nonzero" fill-opacity="1" /><path clip-path="url(#clip770)" d="M763.506 1451.02 L781.863 1451.02 L781.863 1454.96 L767.789 1454.96 L767.789 1463.43 Q768.807 1463.08 769.826 1462.92 Q770.844 1462.73 771.863 1462.73 Q777.65 1462.73 781.029 1465.9 Q784.409 1469.08 784.409 1474.49 Q784.409 1480.07 780.937 1483.17 Q777.464 1486.25 771.145 1486.25 Q768.969 1486.25 766.701 1485.88 Q764.455 1485.51 762.048 1484.77 L762.048 1480.07 Q764.131 1481.2 766.353 1481.76 Q768.576 1482.32 771.052 1482.32 Q775.057 1482.32 777.395 1480.21 Q779.733 1478.1 779.733 1474.49 Q779.733 1470.88 777.395 1468.77 Q775.057 1466.67 771.052 1466.67 Q769.178 1466.67 767.303 1467.08 Q765.451 1467.5 763.506 1468.38 L763.506 1451.02 Z" fill="#000000" fill-rule="nonzero" fill-opacity="1" /><path clip-path="url(#clip770)" d="M1219.28 1481.64 L1226.91 1481.64 L1226.91 1455.28 L1218.6 1456.95 L1218.6 1452.69 L1226.87 1451.02 L1231.54 1451.02 L1231.54 1481.64 L1239.18 1481.64 L1239.18 1485.58 L1219.28 1485.58 L1219.28 1481.64 Z" fill="#000000" fill-rule="nonzero" fill-opacity="1" /><path clip-path="url(#clip770)" d="M1258.63 1454.1 Q1255.02 1454.1 1253.19 1457.66 Q1251.38 1461.2 1251.38 1468.33 Q1251.38 1475.44 1253.19 1479.01 Q1255.02 1482.55 1258.63 1482.55 Q1262.26 1482.55 1264.07 1479.01 Q1265.9 1475.44 1265.9 1468.33 Q1265.9 1461.2 1264.07 1457.66 Q1262.26 1454.1 1258.63 1454.1 M1258.63 1450.39 Q1264.44 1450.39 1267.49 1455 Q1270.57 1459.58 1270.57 1468.33 Q1270.57 1477.06 1267.49 1481.67 Q1264.44 1486.25 1258.63 1486.25 Q1252.82 1486.25 1249.74 1481.67 Q1246.68 1477.06 1246.68 1468.33 Q1246.68 1459.58 1249.74 1455 Q1252.82 1450.39 1258.63 1450.39 Z" fill="#000000" fill-rule="nonzero" fill-opacity="1" /><path clip-path="url(#clip770)" d="M1691.13 1481.64 L1698.77 1481.64 L1698.77 1455.28 L1690.46 1456.95 L1690.46 1452.69 L1698.72 1451.02 L1703.4 1451.02 L1703.4 1481.64 L1711.04 1481.64 L1711.04 1485.58 L1691.13 1485.58 L1691.13 1481.64 Z" fill="#000000" fill-rule="nonzero" fill-opacity="1" /><path clip-path="url(#clip770)" d="M1720.53 1451.02 L1738.89 1451.02 L1738.89 1454.96 L1724.81 1454.96 L1724.81 1463.43 Q1725.83 1463.08 1726.85 1462.92 Q1727.87 1462.73 1728.89 1462.73 Q1734.67 1462.73 1738.05 1465.9 Q1741.43 1469.08 1741.43 1474.49 Q1741.43 1480.07 1737.96 1483.17 Q1734.49 1486.25 1728.17 1486.25 Q1725.99 1486.25 1723.72 1485.88 Q1721.48 1485.51 1719.07 1484.77 L1719.07 1480.07 Q1721.16 1481.2 1723.38 1481.76 Q1725.6 1482.32 1728.08 1482.32 Q1732.08 1482.32 1734.42 1480.21 Q1736.76 1478.1 1736.76 1474.49 Q1736.76 1470.88 1734.42 1468.77 Q1732.08 1466.67 1728.08 1466.67 Q1726.2 1466.67 1724.33 1467.08 Q1722.47 1467.5 1720.53 1468.38 L1720.53 1451.02 Z" fill="#000000" fill-rule="nonzero" fill-opacity="1" /><path clip-path="url(#clip770)" d="M2166.08 1481.64 L2182.4 1481.64 L2182.4 1485.58 L2160.45 1485.58 L2160.45 1481.64 Q2163.12 1478.89 2167.7 1474.26 Q2172.31 1469.61 2173.49 1468.27 Q2175.73 1465.74 2176.61 1464.01 Q2177.51 1462.25 2177.51 1460.56 Q2177.51 1457.8 2175.57 1456.07 Q2173.65 1454.33 2170.55 1454.33 Q2168.35 1454.33 2165.89 1455.09 Q2163.46 1455.86 2160.69 1457.41 L2160.69 1452.69 Q2163.51 1451.55 2165.96 1450.97 Q2168.42 1450.39 2170.45 1450.39 Q2175.82 1450.39 2179.02 1453.08 Q2182.21 1455.77 2182.21 1460.26 Q2182.21 1462.39 2181.4 1464.31 Q2180.62 1466.2 2178.51 1468.8 Q2177.93 1469.47 2174.83 1472.69 Q2171.73 1475.88 2166.08 1481.64 Z" fill="#000000" fill-rule="nonzero" fill-opacity="1" /><path clip-path="url(#clip770)" d="M2202.21 1454.1 Q2198.6 1454.1 2196.77 1457.66 Q2194.97 1461.2 2194.97 1468.33 Q2194.97 1475.44 2196.77 1479.01 Q2198.6 1482.55 2202.21 1482.55 Q2205.85 1482.55 2207.65 1479.01 Q2209.48 1475.44 2209.48 1468.33 Q2209.48 1461.2 2207.65 1457.66 Q2205.85 1454.1 2202.21 1454.1 M2202.21 1450.39 Q2208.02 1450.39 2211.08 1455 Q2214.16 1459.58 2214.16 1468.33 Q2214.16 1477.06 2211.08 1481.67 Q2208.02 1486.25 2202.21 1486.25 Q2196.4 1486.25 2193.32 1481.67 Q2190.27 1477.06 2190.27 1468.33 Q2190.27 1459.58 2193.32 1455 Q2196.4 1450.39 2202.21 1450.39 Z" fill="#000000" fill-rule="nonzero" fill-opacity="1" /><path clip-path="url(#clip770)" d="M1296.2 1546.53 L1296.2 1568.04 L1290.35 1568.04 L1290.35 1546.72 Q1290.35 1541.66 1288.37 1539.14 Q1286.4 1536.63 1282.45 1536.63 Q1277.71 1536.63 1274.97 1539.65 Q1272.24 1542.68 1272.24 1547.9 L1272.24 1568.04 L1266.35 1568.04 L1266.35 1518.52 L1272.24 1518.52 L1272.24 1537.93 Q1274.34 1534.72 1277.17 1533.13 Q1280.04 1531.54 1283.76 1531.54 Q1289.9 1531.54 1293.05 1535.36 Q1296.2 1539.14 1296.2 1546.53 Z" fill="#000000" fill-rule="nonzero" fill-opacity="1" /><path clip-path="url(#clip770)" d="M1328.54 1537.87 Q1327.56 1537.3 1326.38 1537.04 Q1325.23 1536.76 1323.83 1536.76 Q1318.87 1536.76 1316.19 1540 Q1313.55 1543.22 1313.55 1549.27 L1313.55 1568.04 L1307.66 1568.04 L1307.66 1532.4 L1313.55 1532.4 L1313.55 1537.93 Q1315.4 1534.69 1318.36 1533.13 Q1321.32 1531.54 1325.55 1531.54 Q1326.15 1531.54 1326.89 1531.63 Q1327.62 1531.7 1328.51 1531.85 L1328.54 1537.87 Z" fill="#000000" fill-rule="nonzero" fill-opacity="1" /><polyline clip-path="url(#clip770)" style="stroke:#000000; stroke-linecap:round; stroke-linejoin:round; stroke-width:4; stroke-opacity:1; fill:none" points="242.135,1423.18 242.135,47.2441 "/>
<polyline clip-path="url(#clip770)" style="stroke:#000000; stroke-linecap:round; stroke-linejoin:round; stroke-width:4; stroke-opacity:1; fill:none" points="242.135,1384.24 261.032,1384.24 "/>
<polyline clip-path="url(#clip770)" style="stroke:#000000; stroke-linecap:round; stroke-linejoin:round; stroke-width:4; stroke-opacity:1; fill:none" points="242.135,1022.66 261.032,1022.66 "/>
<polyline clip-path="url(#clip770)" style="stroke:#000000; stroke-linecap:round; stroke-linejoin:round; stroke-width:4; stroke-opacity:1; fill:none" points="242.135,661.089 261.032,661.089 "/>
<polyline clip-path="url(#clip770)" style="stroke:#000000; stroke-linecap:round; stroke-linejoin:round; stroke-width:4; stroke-opacity:1; fill:none" points="242.135,299.515 261.032,299.515 "/>
<path clip-path="url(#clip770)" d="M114.26 1384.69 L143.936 1384.69 L143.936 1388.62 L114.26 1388.62 L114.26 1384.69 Z" fill="#000000" fill-rule="nonzero" fill-opacity="1" /><path clip-path="url(#clip770)" d="M166.876 1371.03 L155.07 1389.48 L166.876 1389.48 L166.876 1371.03 M165.649 1366.96 L171.528 1366.96 L171.528 1389.48 L176.459 1389.48 L176.459 1393.37 L171.528 1393.37 L171.528 1401.52 L166.876 1401.52 L166.876 1393.37 L151.274 1393.37 L151.274 1388.86 L165.649 1366.96 Z" fill="#000000" fill-rule="nonzero" fill-opacity="1" /><path clip-path="url(#clip770)" d="M194.19 1370.04 Q190.579 1370.04 188.75 1373.6 Q186.945 1377.14 186.945 1384.27 Q186.945 1391.38 188.75 1394.94 Q190.579 1398.49 194.19 1398.49 Q197.825 1398.49 199.63 1394.94 Q201.459 1391.38 201.459 1384.27 Q201.459 1377.14 199.63 1373.6 Q197.825 1370.04 194.19 1370.04 M194.19 1366.33 Q200 1366.33 203.056 1370.94 Q206.135 1375.52 206.135 1384.27 Q206.135 1393 203.056 1397.61 Q200 1402.19 194.19 1402.19 Q188.38 1402.19 185.301 1397.61 Q182.246 1393 182.246 1384.27 Q182.246 1375.52 185.301 1370.94 Q188.38 1366.33 194.19 1366.33 Z" fill="#000000" fill-rule="nonzero" fill-opacity="1" /><path clip-path="url(#clip770)" d="M114.26 1023.12 L143.936 1023.12 L143.936 1027.05 L114.26 1027.05 L114.26 1023.12 Z" fill="#000000" fill-rule="nonzero" fill-opacity="1" /><path clip-path="url(#clip770)" d="M168.195 1021.31 Q171.552 1022.03 173.427 1024.3 Q175.325 1026.56 175.325 1029.9 Q175.325 1035.01 171.806 1037.81 Q168.288 1040.62 161.806 1040.62 Q159.63 1040.62 157.315 1040.18 Q155.024 1039.76 152.57 1038.9 L152.57 1034.39 Q154.515 1035.52 156.829 1036.1 Q159.144 1036.68 161.667 1036.68 Q166.065 1036.68 168.357 1034.94 Q170.672 1033.21 170.672 1029.9 Q170.672 1026.84 168.519 1025.13 Q166.39 1023.39 162.57 1023.39 L158.542 1023.39 L158.542 1019.55 L162.755 1019.55 Q166.204 1019.55 168.033 1018.18 Q169.862 1016.8 169.862 1014.2 Q169.862 1011.54 167.964 1010.13 Q166.089 1008.69 162.57 1008.69 Q160.649 1008.69 158.45 1009.11 Q156.251 1009.53 153.612 1010.41 L153.612 1006.24 Q156.274 1005.5 158.589 1005.13 Q160.927 1004.76 162.987 1004.76 Q168.311 1004.76 171.413 1007.19 Q174.514 1009.6 174.514 1013.72 Q174.514 1016.59 172.871 1018.58 Q171.227 1020.55 168.195 1021.31 Z" fill="#000000" fill-rule="nonzero" fill-opacity="1" /><path clip-path="url(#clip770)" d="M194.19 1008.46 Q190.579 1008.46 188.75 1012.03 Q186.945 1015.57 186.945 1022.7 Q186.945 1029.8 188.75 1033.37 Q190.579 1036.91 194.19 1036.91 Q197.825 1036.91 199.63 1033.37 Q201.459 1029.8 201.459 1022.7 Q201.459 1015.57 199.63 1012.03 Q197.825 1008.46 194.19 1008.46 M194.19 1004.76 Q200 1004.76 203.056 1009.37 Q206.135 1013.95 206.135 1022.7 Q206.135 1031.43 203.056 1036.03 Q200 1040.62 194.19 1040.62 Q188.38 1040.62 185.301 1036.03 Q182.246 1031.43 182.246 1022.7 Q182.246 1013.95 185.301 1009.37 Q188.38 1004.76 194.19 1004.76 Z" fill="#000000" fill-rule="nonzero" fill-opacity="1" /><path clip-path="url(#clip770)" d="M114.26 661.541 L143.936 661.541 L143.936 665.476 L114.26 665.476 L114.26 661.541 Z" fill="#000000" fill-rule="nonzero" fill-opacity="1" /><path clip-path="url(#clip770)" d="M158.056 674.434 L174.376 674.434 L174.376 678.369 L152.431 678.369 L152.431 674.434 Q155.093 671.679 159.677 667.05 Q164.283 662.397 165.464 661.054 Q167.709 658.531 168.589 656.795 Q169.491 655.036 169.491 653.346 Q169.491 650.592 167.547 648.855 Q165.626 647.119 162.524 647.119 Q160.325 647.119 157.871 647.883 Q155.44 648.647 152.663 650.198 L152.663 645.476 Q155.487 644.342 157.94 643.763 Q160.394 643.184 162.431 643.184 Q167.802 643.184 170.996 645.869 Q174.19 648.555 174.19 653.045 Q174.19 655.175 173.38 657.096 Q172.593 658.994 170.487 661.587 Q169.908 662.258 166.806 665.476 Q163.704 668.67 158.056 674.434 Z" fill="#000000" fill-rule="nonzero" fill-opacity="1" /><path clip-path="url(#clip770)" d="M194.19 646.888 Q190.579 646.888 188.75 650.453 Q186.945 653.994 186.945 661.124 Q186.945 668.23 188.75 671.795 Q190.579 675.337 194.19 675.337 Q197.825 675.337 199.63 671.795 Q201.459 668.23 201.459 661.124 Q201.459 653.994 199.63 650.453 Q197.825 646.888 194.19 646.888 M194.19 643.184 Q200 643.184 203.056 647.791 Q206.135 652.374 206.135 661.124 Q206.135 669.851 203.056 674.457 Q200 679.04 194.19 679.04 Q188.38 679.04 185.301 674.457 Q182.246 669.851 182.246 661.124 Q182.246 652.374 185.301 647.791 Q188.38 643.184 194.19 643.184 Z" fill="#000000" fill-rule="nonzero" fill-opacity="1" /><path clip-path="url(#clip770)" d="M114.26 299.966 L143.936 299.966 L143.936 303.901 L114.26 303.901 L114.26 299.966 Z" fill="#000000" fill-rule="nonzero" fill-opacity="1" /><path clip-path="url(#clip770)" d="M154.839 312.859 L162.477 312.859 L162.477 286.494 L154.167 288.161 L154.167 283.901 L162.431 282.235 L167.107 282.235 L167.107 312.859 L174.746 312.859 L174.746 316.795 L154.839 316.795 L154.839 312.859 Z" fill="#000000" fill-rule="nonzero" fill-opacity="1" /><path clip-path="url(#clip770)" d="M194.19 285.313 Q190.579 285.313 188.75 288.878 Q186.945 292.42 186.945 299.549 Q186.945 306.656 188.75 310.221 Q190.579 313.762 194.19 313.762 Q197.825 313.762 199.63 310.221 Q201.459 306.656 201.459 299.549 Q201.459 292.42 199.63 288.878 Q197.825 285.313 194.19 285.313 M194.19 281.61 Q200 281.61 203.056 286.216 Q206.135 290.799 206.135 299.549 Q206.135 308.276 203.056 312.883 Q200 317.466 194.19 317.466 Q188.38 317.466 185.301 312.883 Q182.246 308.276 182.246 299.549 Q182.246 290.799 185.301 286.216 Q188.38 281.61 194.19 281.61 Z" fill="#000000" fill-rule="nonzero" fill-opacity="1" /><path clip-path="url(#clip770)" d="M19.7307 759.306 Q19.7307 761.852 21.5131 763.603 Q23.2636 765.354 25.8099 765.354 Q28.3244 765.354 30.0749 763.603 Q31.7937 761.852 31.7937 759.306 Q31.7937 756.76 30.0749 755.009 Q28.3244 753.259 25.8099 753.259 Q23.2955 753.259 21.5131 755.041 Q19.7307 756.792 19.7307 759.306 M15.6248 759.306 Q15.6248 757.269 16.4205 755.391 Q17.1844 753.513 18.6485 752.145 Q20.0808 750.681 21.895 749.949 Q23.7092 749.217 25.8099 749.217 Q30.0113 749.217 32.9395 752.177 Q35.8359 755.105 35.8359 759.37 Q35.8359 763.667 32.9713 766.531 Q30.1068 769.396 25.8099 769.396 Q21.5449 769.396 18.5848 766.468 Q15.6248 763.539 15.6248 759.306 Z" fill="#000000" fill-rule="nonzero" fill-opacity="1" /><path clip-path="url(#clip770)" d="M20.1444 701.028 L26.9239 701.028 Q23.9002 704.275 22.4043 707.967 Q20.9083 711.627 20.9083 715.765 Q20.9083 723.913 25.9054 728.242 Q30.8707 732.57 40.2919 732.57 Q49.6813 732.57 54.6784 728.242 Q59.6436 723.913 59.6436 715.765 Q59.6436 711.627 58.1477 707.967 Q56.6518 704.275 53.6281 701.028 L60.3439 701.028 Q62.6355 704.402 63.7814 708.19 Q64.9272 711.945 64.9272 716.147 Q64.9272 726.937 58.3387 733.143 Q51.7183 739.35 40.2919 739.35 Q28.8336 739.35 22.2451 733.143 Q15.6248 726.937 15.6248 716.147 Q15.6248 711.882 16.7706 708.126 Q17.8846 704.338 20.1444 701.028 Z" fill="#000000" fill-rule="nonzero" fill-opacity="1" /><circle clip-path="url(#clip772)" cx="301.869" cy="1348.08" r="14.4" fill="#07519c" fill-rule="evenodd" fill-opacity="1" stroke="#000000" stroke-opacity="1" stroke-width="3.2"/>
<circle clip-path="url(#clip772)" cx="350.576" cy="1239.61" r="14.4" fill="#07519c" fill-rule="evenodd" fill-opacity="1" stroke="#000000" stroke-opacity="1" stroke-width="3.2"/>
<circle clip-path="url(#clip772)" cx="399.31" cy="1123.9" r="14.4" fill="#07519c" fill-rule="evenodd" fill-opacity="1" stroke="#000000" stroke-opacity="1" stroke-width="3.2"/>
<circle clip-path="url(#clip772)" cx="448.017" cy="1084.13" r="14.4" fill="#07519c" fill-rule="evenodd" fill-opacity="1" stroke="#000000" stroke-opacity="1" stroke-width="3.2"/>
<circle clip-path="url(#clip772)" cx="496.724" cy="1051.59" r="14.4" fill="#07519c" fill-rule="evenodd" fill-opacity="1" stroke="#000000" stroke-opacity="1" stroke-width="3.2"/>
<circle clip-path="url(#clip772)" cx="545.457" cy="1029.9" r="14.4" fill="#07519c" fill-rule="evenodd" fill-opacity="1" stroke="#000000" stroke-opacity="1" stroke-width="3.2"/>
<circle clip-path="url(#clip772)" cx="594.164" cy="1008.2" r="14.4" fill="#07519c" fill-rule="evenodd" fill-opacity="1" stroke="#000000" stroke-opacity="1" stroke-width="3.2"/>
<circle clip-path="url(#clip772)" cx="642.898" cy="993.738" r="14.4" fill="#07519c" fill-rule="evenodd" fill-opacity="1" stroke="#000000" stroke-opacity="1" stroke-width="3.2"/>
<circle clip-path="url(#clip772)" cx="691.605" cy="975.659" r="14.4" fill="#07519c" fill-rule="evenodd" fill-opacity="1" stroke="#000000" stroke-opacity="1" stroke-width="3.2"/>
<circle clip-path="url(#clip772)" cx="740.338" cy="964.812" r="14.4" fill="#07519c" fill-rule="evenodd" fill-opacity="1" stroke="#000000" stroke-opacity="1" stroke-width="3.2"/>
<circle clip-path="url(#clip772)" cx="789.045" cy="957.58" r="14.4" fill="#07519c" fill-rule="evenodd" fill-opacity="1" stroke="#000000" stroke-opacity="1" stroke-width="3.2"/>
<circle clip-path="url(#clip772)" cx="837.752" cy="946.733" r="14.4" fill="#07519c" fill-rule="evenodd" fill-opacity="1" stroke="#000000" stroke-opacity="1" stroke-width="3.2"/>
<circle clip-path="url(#clip772)" cx="886.486" cy="939.502" r="14.4" fill="#07519c" fill-rule="evenodd" fill-opacity="1" stroke="#000000" stroke-opacity="1" stroke-width="3.2"/>
<circle clip-path="url(#clip772)" cx="935.193" cy="935.886" r="14.4" fill="#07519c" fill-rule="evenodd" fill-opacity="1" stroke="#000000" stroke-opacity="1" stroke-width="3.2"/>
<circle clip-path="url(#clip772)" cx="983.926" cy="928.654" r="14.4" fill="#07519c" fill-rule="evenodd" fill-opacity="1" stroke="#000000" stroke-opacity="1" stroke-width="3.2"/>
<circle clip-path="url(#clip772)" cx="1032.63" cy="925.039" r="14.4" fill="#07519c" fill-rule="evenodd" fill-opacity="1" stroke="#000000" stroke-opacity="1" stroke-width="3.2"/>
<circle clip-path="url(#clip772)" cx="1081.37" cy="921.423" r="14.4" fill="#07519c" fill-rule="evenodd" fill-opacity="1" stroke="#000000" stroke-opacity="1" stroke-width="3.2"/>
<circle clip-path="url(#clip772)" cx="1130.07" cy="914.191" r="14.4" fill="#07519c" fill-rule="evenodd" fill-opacity="1" stroke="#000000" stroke-opacity="1" stroke-width="3.2"/>
<circle clip-path="url(#clip772)" cx="1178.78" cy="914.191" r="14.4" fill="#07519c" fill-rule="evenodd" fill-opacity="1" stroke="#000000" stroke-opacity="1" stroke-width="3.2"/>
<circle clip-path="url(#clip772)" cx="1227.51" cy="910.576" r="14.4" fill="#07519c" fill-rule="evenodd" fill-opacity="1" stroke="#000000" stroke-opacity="1" stroke-width="3.2"/>
<circle clip-path="url(#clip772)" cx="1276.22" cy="906.96" r="14.4" fill="#07519c" fill-rule="evenodd" fill-opacity="1" stroke="#000000" stroke-opacity="1" stroke-width="3.2"/>
<circle clip-path="url(#clip772)" cx="1324.95" cy="903.344" r="14.4" fill="#07519c" fill-rule="evenodd" fill-opacity="1" stroke="#000000" stroke-opacity="1" stroke-width="3.2"/>
<circle clip-path="url(#clip772)" cx="1373.66" cy="903.344" r="14.4" fill="#07519c" fill-rule="evenodd" fill-opacity="1" stroke="#000000" stroke-opacity="1" stroke-width="3.2"/>
<circle clip-path="url(#clip772)" cx="1422.37" cy="899.728" r="14.4" fill="#07519c" fill-rule="evenodd" fill-opacity="1" stroke="#000000" stroke-opacity="1" stroke-width="3.2"/>
<circle clip-path="url(#clip772)" cx="1471.1" cy="899.728" r="14.4" fill="#07519c" fill-rule="evenodd" fill-opacity="1" stroke="#000000" stroke-opacity="1" stroke-width="3.2"/>
<circle clip-path="url(#clip772)" cx="1519.81" cy="896.113" r="14.4" fill="#07519c" fill-rule="evenodd" fill-opacity="1" stroke="#000000" stroke-opacity="1" stroke-width="3.2"/>
<circle clip-path="url(#clip772)" cx="1568.54" cy="892.497" r="14.4" fill="#07519c" fill-rule="evenodd" fill-opacity="1" stroke="#000000" stroke-opacity="1" stroke-width="3.2"/>
<circle clip-path="url(#clip772)" cx="1617.25" cy="838.261" r="14.4" fill="#07519c" fill-rule="evenodd" fill-opacity="1" stroke="#000000" stroke-opacity="1" stroke-width="3.2"/>
<circle clip-path="url(#clip772)" cx="1665.98" cy="773.177" r="14.4" fill="#07519c" fill-rule="evenodd" fill-opacity="1" stroke="#000000" stroke-opacity="1" stroke-width="3.2"/>
<circle clip-path="url(#clip772)" cx="1714.69" cy="751.483" r="14.4" fill="#07519c" fill-rule="evenodd" fill-opacity="1" stroke="#000000" stroke-opacity="1" stroke-width="3.2"/>
<circle clip-path="url(#clip772)" cx="1763.42" cy="718.941" r="14.4" fill="#07519c" fill-rule="evenodd" fill-opacity="1" stroke="#000000" stroke-opacity="1" stroke-width="3.2"/>
<circle clip-path="url(#clip772)" cx="1812.13" cy="592.39" r="14.4" fill="#07519c" fill-rule="evenodd" fill-opacity="1" stroke="#000000" stroke-opacity="1" stroke-width="3.2"/>
<circle clip-path="url(#clip772)" cx="1860.84" cy="465.839" r="14.4" fill="#07519c" fill-rule="evenodd" fill-opacity="1" stroke="#000000" stroke-opacity="1" stroke-width="3.2"/>
<circle clip-path="url(#clip772)" cx="1909.57" cy="360.982" r="14.4" fill="#07519c" fill-rule="evenodd" fill-opacity="1" stroke="#000000" stroke-opacity="1" stroke-width="3.2"/>
<circle clip-path="url(#clip772)" cx="1958.28" cy="317.593" r="14.4" fill="#07519c" fill-rule="evenodd" fill-opacity="1" stroke="#000000" stroke-opacity="1" stroke-width="3.2"/>
<circle clip-path="url(#clip772)" cx="2007.01" cy="274.204" r="14.4" fill="#07519c" fill-rule="evenodd" fill-opacity="1" stroke="#000000" stroke-opacity="1" stroke-width="3.2"/>
<circle clip-path="url(#clip772)" cx="2055.72" cy="241.663" r="14.4" fill="#07519c" fill-rule="evenodd" fill-opacity="1" stroke="#000000" stroke-opacity="1" stroke-width="3.2"/>
<circle clip-path="url(#clip772)" cx="2104.43" cy="198.274" r="14.4" fill="#07519c" fill-rule="evenodd" fill-opacity="1" stroke="#000000" stroke-opacity="1" stroke-width="3.2"/>
<circle clip-path="url(#clip772)" cx="2153.16" cy="162.116" r="14.4" fill="#07519c" fill-rule="evenodd" fill-opacity="1" stroke="#000000" stroke-opacity="1" stroke-width="3.2"/>
<circle clip-path="url(#clip772)" cx="2201.87" cy="136.806" r="14.4" fill="#07519c" fill-rule="evenodd" fill-opacity="1" stroke="#000000" stroke-opacity="1" stroke-width="3.2"/>
<circle clip-path="url(#clip772)" cx="2250.6" cy="122.343" r="14.4" fill="#07519c" fill-rule="evenodd" fill-opacity="1" stroke="#000000" stroke-opacity="1" stroke-width="3.2"/>
<path clip-path="url(#clip772)" d="M301.581 1368.24 L301.581 1400.24 L333.581 1400.24 L333.581 1368.24 L301.581 1368.24 Z" fill="#3082bc" fill-rule="evenodd" fill-opacity="1" stroke="#000000" stroke-opacity="1" stroke-width="3.2"/>
<path clip-path="url(#clip772)" d="M350.288 1234.46 L350.288 1266.46 L382.288 1266.46 L382.288 1234.46 L350.288 1234.46 Z" fill="#3082bc" fill-rule="evenodd" fill-opacity="1" stroke="#000000" stroke-opacity="1" stroke-width="3.2"/>
<path clip-path="url(#clip772)" d="M399.022 1169.37 L399.022 1201.37 L431.022 1201.37 L431.022 1169.37 L399.022 1169.37 Z" fill="#3082bc" fill-rule="evenodd" fill-opacity="1" stroke="#000000" stroke-opacity="1" stroke-width="3.2"/>
<path clip-path="url(#clip772)" d="M447.729 1136.83 L447.729 1168.83 L479.729 1168.83 L479.729 1136.83 L447.729 1136.83 Z" fill="#3082bc" fill-rule="evenodd" fill-opacity="1" stroke="#000000" stroke-opacity="1" stroke-width="3.2"/>
<path clip-path="url(#clip772)" d="M496.462 1111.52 L496.462 1143.52 L528.462 1143.52 L528.462 1111.52 L496.462 1111.52 Z" fill="#3082bc" fill-rule="evenodd" fill-opacity="1" stroke="#000000" stroke-opacity="1" stroke-width="3.2"/>
<path clip-path="url(#clip772)" d="M545.169 1089.83 L545.169 1121.83 L577.169 1121.83 L577.169 1089.83 L545.169 1089.83 Z" fill="#3082bc" fill-rule="evenodd" fill-opacity="1" stroke="#000000" stroke-opacity="1" stroke-width="3.2"/>
<path clip-path="url(#clip772)" d="M593.902 1071.75 L593.902 1103.75 L625.902 1103.75 L625.902 1071.75 L593.902 1071.75 Z" fill="#3082bc" fill-rule="evenodd" fill-opacity="1" stroke="#000000" stroke-opacity="1" stroke-width="3.2"/>
<path clip-path="url(#clip772)" d="M642.61 1053.67 L642.61 1085.67 L674.61 1085.67 L674.61 1053.67 L642.61 1053.67 Z" fill="#3082bc" fill-rule="evenodd" fill-opacity="1" stroke="#000000" stroke-opacity="1" stroke-width="3.2"/>
<path clip-path="url(#clip772)" d="M691.317 1039.21 L691.317 1071.21 L723.317 1071.21 L723.317 1039.21 L691.317 1039.21 Z" fill="#3082bc" fill-rule="evenodd" fill-opacity="1" stroke="#000000" stroke-opacity="1" stroke-width="3.2"/>
<path clip-path="url(#clip772)" d="M740.05 1028.36 L740.05 1060.36 L772.05 1060.36 L772.05 1028.36 L740.05 1028.36 Z" fill="#3082bc" fill-rule="evenodd" fill-opacity="1" stroke="#000000" stroke-opacity="1" stroke-width="3.2"/>
<path clip-path="url(#clip772)" d="M788.757 1017.51 L788.757 1049.51 L820.757 1049.51 L820.757 1017.51 L788.757 1017.51 Z" fill="#3082bc" fill-rule="evenodd" fill-opacity="1" stroke="#000000" stroke-opacity="1" stroke-width="3.2"/>
<path clip-path="url(#clip772)" d="M837.49 1006.66 L837.49 1038.66 L869.49 1038.66 L869.49 1006.66 L837.49 1006.66 Z" fill="#3082bc" fill-rule="evenodd" fill-opacity="1" stroke="#000000" stroke-opacity="1" stroke-width="3.2"/>
<path clip-path="url(#clip772)" d="M886.198 999.432 L886.198 1031.43 L918.198 1031.43 L918.198 999.432 L886.198 999.432 Z" fill="#3082bc" fill-rule="evenodd" fill-opacity="1" stroke="#000000" stroke-opacity="1" stroke-width="3.2"/>
<path clip-path="url(#clip772)" d="M934.931 988.585 L934.931 1020.58 L966.931 1020.58 L966.931 988.585 L934.931 988.585 Z" fill="#3082bc" fill-rule="evenodd" fill-opacity="1" stroke="#000000" stroke-opacity="1" stroke-width="3.2"/>
<path clip-path="url(#clip772)" d="M983.638 984.969 L983.638 1016.97 L1015.64 1016.97 L1015.64 984.969 L983.638 984.969 Z" fill="#3082bc" fill-rule="evenodd" fill-opacity="1" stroke="#000000" stroke-opacity="1" stroke-width="3.2"/>
<path clip-path="url(#clip772)" d="M1032.35 977.738 L1032.35 1009.74 L1064.35 1009.74 L1064.35 977.738 L1032.35 977.738 Z" fill="#3082bc" fill-rule="evenodd" fill-opacity="1" stroke="#000000" stroke-opacity="1" stroke-width="3.2"/>
<path clip-path="url(#clip772)" d="M1081.08 970.506 L1081.08 1002.51 L1113.08 1002.51 L1113.08 970.506 L1081.08 970.506 Z" fill="#3082bc" fill-rule="evenodd" fill-opacity="1" stroke="#000000" stroke-opacity="1" stroke-width="3.2"/>
<path clip-path="url(#clip772)" d="M1129.79 963.275 L1129.79 995.275 L1161.79 995.275 L1161.79 963.275 L1129.79 963.275 Z" fill="#3082bc" fill-rule="evenodd" fill-opacity="1" stroke="#000000" stroke-opacity="1" stroke-width="3.2"/>
<path clip-path="url(#clip772)" d="M1178.52 959.659 L1178.52 991.659 L1210.52 991.659 L1210.52 959.659 L1178.52 959.659 Z" fill="#3082bc" fill-rule="evenodd" fill-opacity="1" stroke="#000000" stroke-opacity="1" stroke-width="3.2"/>
<path clip-path="url(#clip772)" d="M1227.23 956.043 L1227.23 988.043 L1259.23 988.043 L1259.23 956.043 L1227.23 956.043 Z" fill="#3082bc" fill-rule="evenodd" fill-opacity="1" stroke="#000000" stroke-opacity="1" stroke-width="3.2"/>
<path clip-path="url(#clip772)" d="M1275.93 952.428 L1275.93 984.428 L1307.93 984.428 L1307.93 952.428 L1275.93 952.428 Z" fill="#3082bc" fill-rule="evenodd" fill-opacity="1" stroke="#000000" stroke-opacity="1" stroke-width="3.2"/>
<path clip-path="url(#clip772)" d="M1324.67 948.812 L1324.67 980.812 L1356.67 980.812 L1356.67 948.812 L1324.67 948.812 Z" fill="#3082bc" fill-rule="evenodd" fill-opacity="1" stroke="#000000" stroke-opacity="1" stroke-width="3.2"/>
<path clip-path="url(#clip772)" d="M1373.37 941.58 L1373.37 973.58 L1405.37 973.58 L1405.37 941.58 L1373.37 941.58 Z" fill="#3082bc" fill-rule="evenodd" fill-opacity="1" stroke="#000000" stroke-opacity="1" stroke-width="3.2"/>
<path clip-path="url(#clip772)" d="M1422.11 937.965 L1422.11 969.965 L1454.11 969.965 L1454.11 937.965 L1422.11 937.965 Z" fill="#3082bc" fill-rule="evenodd" fill-opacity="1" stroke="#000000" stroke-opacity="1" stroke-width="3.2"/>
<path clip-path="url(#clip772)" d="M1470.81 934.349 L1470.81 966.349 L1502.81 966.349 L1502.81 934.349 L1470.81 934.349 Z" fill="#3082bc" fill-rule="evenodd" fill-opacity="1" stroke="#000000" stroke-opacity="1" stroke-width="3.2"/>
<path clip-path="url(#clip772)" d="M1519.52 930.733 L1519.52 962.733 L1551.52 962.733 L1551.52 930.733 L1519.52 930.733 Z" fill="#3082bc" fill-rule="evenodd" fill-opacity="1" stroke="#000000" stroke-opacity="1" stroke-width="3.2"/>
<path clip-path="url(#clip772)" d="M1568.25 927.117 L1568.25 959.117 L1600.25 959.117 L1600.25 927.117 L1568.25 927.117 Z" fill="#3082bc" fill-rule="evenodd" fill-opacity="1" stroke="#000000" stroke-opacity="1" stroke-width="3.2"/>
<path clip-path="url(#clip772)" d="M1616.96 912.654 L1616.96 944.654 L1648.96 944.654 L1648.96 912.654 L1616.96 912.654 Z" fill="#3082bc" fill-rule="evenodd" fill-opacity="1" stroke="#000000" stroke-opacity="1" stroke-width="3.2"/>
<path clip-path="url(#clip772)" d="M1665.69 822.261 L1665.69 854.261 L1697.69 854.261 L1697.69 822.261 L1665.69 822.261 Z" fill="#3082bc" fill-rule="evenodd" fill-opacity="1" stroke="#000000" stroke-opacity="1" stroke-width="3.2"/>
<path clip-path="url(#clip772)" d="M1714.4 742.714 L1714.4 774.714 L1746.4 774.714 L1746.4 742.714 L1714.4 742.714 Z" fill="#3082bc" fill-rule="evenodd" fill-opacity="1" stroke="#000000" stroke-opacity="1" stroke-width="3.2"/>
<path clip-path="url(#clip772)" d="M1763.14 710.173 L1763.14 742.173 L1795.14 742.173 L1795.14 710.173 L1763.14 710.173 Z" fill="#3082bc" fill-rule="evenodd" fill-opacity="1" stroke="#000000" stroke-opacity="1" stroke-width="3.2"/>
<path clip-path="url(#clip772)" d="M1811.84 666.784 L1811.84 698.784 L1843.84 698.784 L1843.84 666.784 L1811.84 666.784 Z" fill="#3082bc" fill-rule="evenodd" fill-opacity="1" stroke="#000000" stroke-opacity="1" stroke-width="3.2"/>
<path clip-path="url(#clip772)" d="M1860.58 608.932 L1860.58 640.932 L1892.58 640.932 L1892.58 608.932 L1860.58 608.932 Z" fill="#3082bc" fill-rule="evenodd" fill-opacity="1" stroke="#000000" stroke-opacity="1" stroke-width="3.2"/>
<path clip-path="url(#clip772)" d="M1909.28 547.464 L1909.28 579.464 L1941.28 579.464 L1941.28 547.464 L1909.28 547.464 Z" fill="#3082bc" fill-rule="evenodd" fill-opacity="1" stroke="#000000" stroke-opacity="1" stroke-width="3.2"/>
<path clip-path="url(#clip772)" d="M1957.99 500.459 L1957.99 532.459 L1989.99 532.459 L1989.99 500.459 L1957.99 500.459 Z" fill="#3082bc" fill-rule="evenodd" fill-opacity="1" stroke="#000000" stroke-opacity="1" stroke-width="3.2"/>
<path clip-path="url(#clip772)" d="M2006.72 410.066 L2006.72 442.066 L2038.72 442.066 L2038.72 410.066 L2006.72 410.066 Z" fill="#3082bc" fill-rule="evenodd" fill-opacity="1" stroke="#000000" stroke-opacity="1" stroke-width="3.2"/>
<path clip-path="url(#clip772)" d="M2055.43 301.593 L2055.43 333.593 L2087.43 333.593 L2087.43 301.593 L2055.43 301.593 Z" fill="#3082bc" fill-rule="evenodd" fill-opacity="1" stroke="#000000" stroke-opacity="1" stroke-width="3.2"/>
<path clip-path="url(#clip772)" d="M2104.16 196.737 L2104.16 228.737 L2136.16 228.737 L2136.16 196.737 L2104.16 196.737 Z" fill="#3082bc" fill-rule="evenodd" fill-opacity="1" stroke="#000000" stroke-opacity="1" stroke-width="3.2"/>
<path clip-path="url(#clip772)" d="M2152.87 117.19 L2152.87 149.19 L2184.87 149.19 L2184.87 117.19 L2152.87 117.19 Z" fill="#3082bc" fill-rule="evenodd" fill-opacity="1" stroke="#000000" stroke-opacity="1" stroke-width="3.2"/>
<path clip-path="url(#clip772)" d="M2201.58 91.8801 L2201.58 123.88 L2233.58 123.88 L2233.58 91.8801 L2201.58 91.8801 Z" fill="#3082bc" fill-rule="evenodd" fill-opacity="1" stroke="#000000" stroke-opacity="1" stroke-width="3.2"/>
<path clip-path="url(#clip772)" d="M2250.31 70.1857 L2250.31 102.186 L2282.31 102.186 L2282.31 70.1857 L2250.31 70.1857 Z" fill="#3082bc" fill-rule="evenodd" fill-opacity="1" stroke="#000000" stroke-opacity="1" stroke-width="3.2"/>
<path clip-path="url(#clip772)" d="M333.293 1299.54 L317.293 1315.54 L333.293 1331.54 L349.293 1315.54 L333.293 1299.54 Z" fill="#6badd5" fill-rule="evenodd" fill-opacity="1" stroke="#000000" stroke-opacity="1" stroke-width="3.2"/>
<path clip-path="url(#clip772)" d="M382.026 1122.37 L366.026 1138.37 L382.026 1154.37 L398.026 1138.37 L382.026 1122.37 Z" fill="#6badd5" fill-rule="evenodd" fill-opacity="1" stroke="#000000" stroke-opacity="1" stroke-width="3.2"/>
<path clip-path="url(#clip772)" d="M430.734 1078.98 L414.734 1094.98 L430.734 1110.98 L446.734 1094.98 L430.734 1078.98 Z" fill="#6badd5" fill-rule="evenodd" fill-opacity="1" stroke="#000000" stroke-opacity="1" stroke-width="3.2"/>
<path clip-path="url(#clip772)" d="M479.441 1053.67 L463.441 1069.67 L479.441 1085.67 L495.441 1069.67 L479.441 1053.67 Z" fill="#6badd5" fill-rule="evenodd" fill-opacity="1" stroke="#000000" stroke-opacity="1" stroke-width="3.2"/>
<path clip-path="url(#clip772)" d="M528.174 1031.97 L512.174 1047.97 L528.174 1063.97 L544.174 1047.97 L528.174 1031.97 Z" fill="#6badd5" fill-rule="evenodd" fill-opacity="1" stroke="#000000" stroke-opacity="1" stroke-width="3.2"/>
<path clip-path="url(#clip772)" d="M576.881 1013.9 L560.881 1029.9 L576.881 1045.9 L592.881 1029.9 L576.881 1013.9 Z" fill="#6badd5" fill-rule="evenodd" fill-opacity="1" stroke="#000000" stroke-opacity="1" stroke-width="3.2"/>
<path clip-path="url(#clip772)" d="M625.614 999.432 L609.614 1015.43 L625.614 1031.43 L641.614 1015.43 L625.614 999.432 Z" fill="#6badd5" fill-rule="evenodd" fill-opacity="1" stroke="#000000" stroke-opacity="1" stroke-width="3.2"/>
<path clip-path="url(#clip772)" d="M674.322 984.969 L658.322 1000.97 L674.322 1016.97 L690.322 1000.97 L674.322 984.969 Z" fill="#6badd5" fill-rule="evenodd" fill-opacity="1" stroke="#000000" stroke-opacity="1" stroke-width="3.2"/>
<path clip-path="url(#clip772)" d="M723.055 974.122 L707.055 990.122 L723.055 1006.12 L739.055 990.122 L723.055 974.122 Z" fill="#6badd5" fill-rule="evenodd" fill-opacity="1" stroke="#000000" stroke-opacity="1" stroke-width="3.2"/>
<path clip-path="url(#clip772)" d="M771.762 959.659 L755.762 975.659 L771.762 991.659 L787.762 975.659 L771.762 959.659 Z" fill="#6badd5" fill-rule="evenodd" fill-opacity="1" stroke="#000000" stroke-opacity="1" stroke-width="3.2"/>
<path clip-path="url(#clip772)" d="M820.469 948.812 L804.469 964.812 L820.469 980.812 L836.469 964.812 L820.469 948.812 Z" fill="#6badd5" fill-rule="evenodd" fill-opacity="1" stroke="#000000" stroke-opacity="1" stroke-width="3.2"/>
<path clip-path="url(#clip772)" d="M869.202 941.58 L853.202 957.58 L869.202 973.58 L885.202 957.58 L869.202 941.58 Z" fill="#6badd5" fill-rule="evenodd" fill-opacity="1" stroke="#000000" stroke-opacity="1" stroke-width="3.2"/>
<path clip-path="url(#clip772)" d="M917.909 937.965 L901.909 953.965 L917.909 969.965 L933.909 953.965 L917.909 937.965 Z" fill="#6badd5" fill-rule="evenodd" fill-opacity="1" stroke="#000000" stroke-opacity="1" stroke-width="3.2"/>
<path clip-path="url(#clip772)" d="M966.643 930.733 L950.643 946.733 L966.643 962.733 L982.643 946.733 L966.643 930.733 Z" fill="#6badd5" fill-rule="evenodd" fill-opacity="1" stroke="#000000" stroke-opacity="1" stroke-width="3.2"/>
<path clip-path="url(#clip772)" d="M1015.35 923.502 L999.35 939.502 L1015.35 955.502 L1031.35 939.502 L1015.35 923.502 Z" fill="#6badd5" fill-rule="evenodd" fill-opacity="1" stroke="#000000" stroke-opacity="1" stroke-width="3.2"/>
<path clip-path="url(#clip772)" d="M1064.06 919.886 L1048.06 935.886 L1064.06 951.886 L1080.06 935.886 L1064.06 919.886 Z" fill="#6badd5" fill-rule="evenodd" fill-opacity="1" stroke="#000000" stroke-opacity="1" stroke-width="3.2"/>
<path clip-path="url(#clip772)" d="M1112.79 912.654 L1096.79 928.654 L1112.79 944.654 L1128.79 928.654 L1112.79 912.654 Z" fill="#6badd5" fill-rule="evenodd" fill-opacity="1" stroke="#000000" stroke-opacity="1" stroke-width="3.2"/>
<path clip-path="url(#clip772)" d="M1161.5 909.039 L1145.5 925.039 L1161.5 941.039 L1177.5 925.039 L1161.5 909.039 Z" fill="#6badd5" fill-rule="evenodd" fill-opacity="1" stroke="#000000" stroke-opacity="1" stroke-width="3.2"/>
<path clip-path="url(#clip772)" d="M1210.23 905.423 L1194.23 921.423 L1210.23 937.423 L1226.23 921.423 L1210.23 905.423 Z" fill="#6badd5" fill-rule="evenodd" fill-opacity="1" stroke="#000000" stroke-opacity="1" stroke-width="3.2"/>
<path clip-path="url(#clip772)" d="M1258.94 905.423 L1242.94 921.423 L1258.94 937.423 L1274.94 921.423 L1258.94 905.423 Z" fill="#6badd5" fill-rule="evenodd" fill-opacity="1" stroke="#000000" stroke-opacity="1" stroke-width="3.2"/>
<path clip-path="url(#clip772)" d="M1307.67 901.807 L1291.67 917.807 L1307.67 933.807 L1323.67 917.807 L1307.67 901.807 Z" fill="#6badd5" fill-rule="evenodd" fill-opacity="1" stroke="#000000" stroke-opacity="1" stroke-width="3.2"/>
<path clip-path="url(#clip772)" d="M1356.38 898.191 L1340.38 914.191 L1356.38 930.191 L1372.38 914.191 L1356.38 898.191 Z" fill="#6badd5" fill-rule="evenodd" fill-opacity="1" stroke="#000000" stroke-opacity="1" stroke-width="3.2"/>
<path clip-path="url(#clip772)" d="M1405.09 894.576 L1389.09 910.576 L1405.09 926.576 L1421.09 910.576 L1405.09 894.576 Z" fill="#6badd5" fill-rule="evenodd" fill-opacity="1" stroke="#000000" stroke-opacity="1" stroke-width="3.2"/>
<path clip-path="url(#clip772)" d="M1453.82 890.96 L1437.82 906.96 L1453.82 922.96 L1469.82 906.96 L1453.82 890.96 Z" fill="#6badd5" fill-rule="evenodd" fill-opacity="1" stroke="#000000" stroke-opacity="1" stroke-width="3.2"/>
<path clip-path="url(#clip772)" d="M1502.53 887.344 L1486.53 903.344 L1502.53 919.344 L1518.53 903.344 L1502.53 887.344 Z" fill="#6badd5" fill-rule="evenodd" fill-opacity="1" stroke="#000000" stroke-opacity="1" stroke-width="3.2"/>
<path clip-path="url(#clip772)" d="M1551.26 890.96 L1535.26 906.96 L1551.26 922.96 L1567.26 906.96 L1551.26 890.96 Z" fill="#6badd5" fill-rule="evenodd" fill-opacity="1" stroke="#000000" stroke-opacity="1" stroke-width="3.2"/>
<path clip-path="url(#clip772)" d="M1599.97 887.344 L1583.97 903.344 L1599.97 919.344 L1615.97 903.344 L1599.97 887.344 Z" fill="#6badd5" fill-rule="evenodd" fill-opacity="1" stroke="#000000" stroke-opacity="1" stroke-width="3.2"/>
<path clip-path="url(#clip772)" d="M1648.67 880.113 L1632.67 896.113 L1648.67 912.113 L1664.67 896.113 L1648.67 880.113 Z" fill="#6badd5" fill-rule="evenodd" fill-opacity="1" stroke="#000000" stroke-opacity="1" stroke-width="3.2"/>
<path clip-path="url(#clip772)" d="M1697.41 876.497 L1681.41 892.497 L1697.41 908.497 L1713.41 892.497 L1697.41 876.497 Z" fill="#6badd5" fill-rule="evenodd" fill-opacity="1" stroke="#000000" stroke-opacity="1" stroke-width="3.2"/>
<path clip-path="url(#clip772)" d="M1746.11 869.265 L1730.11 885.265 L1746.11 901.265 L1762.11 885.265 L1746.11 869.265 Z" fill="#6badd5" fill-rule="evenodd" fill-opacity="1" stroke="#000000" stroke-opacity="1" stroke-width="3.2"/>
<path clip-path="url(#clip772)" d="M1794.85 862.034 L1778.85 878.034 L1794.85 894.034 L1810.85 878.034 L1794.85 862.034 Z" fill="#6badd5" fill-rule="evenodd" fill-opacity="1" stroke="#000000" stroke-opacity="1" stroke-width="3.2"/>
<path clip-path="url(#clip772)" d="M1843.55 847.571 L1827.55 863.571 L1843.55 879.571 L1859.55 863.571 L1843.55 847.571 Z" fill="#6badd5" fill-rule="evenodd" fill-opacity="1" stroke="#000000" stroke-opacity="1" stroke-width="3.2"/>
<path clip-path="url(#clip772)" d="M1892.29 760.793 L1876.29 776.793 L1892.29 792.793 L1908.29 776.793 L1892.29 760.793 Z" fill="#6badd5" fill-rule="evenodd" fill-opacity="1" stroke="#000000" stroke-opacity="1" stroke-width="3.2"/>
<path clip-path="url(#clip772)" d="M1940.99 442.607 L1924.99 458.607 L1940.99 474.607 L1956.99 458.607 L1940.99 442.607 Z" fill="#6badd5" fill-rule="evenodd" fill-opacity="1" stroke="#000000" stroke-opacity="1" stroke-width="3.2"/>
<path clip-path="url(#clip772)" d="M1989.7 355.83 L1973.7 371.83 L1989.7 387.83 L2005.7 371.83 L1989.7 355.83 Z" fill="#6badd5" fill-rule="evenodd" fill-opacity="1" stroke="#000000" stroke-opacity="1" stroke-width="3.2"/>
<path clip-path="url(#clip772)" d="M2038.44 323.288 L2022.44 339.288 L2038.44 355.288 L2054.44 339.288 L2038.44 323.288 Z" fill="#6badd5" fill-rule="evenodd" fill-opacity="1" stroke="#000000" stroke-opacity="1" stroke-width="3.2"/>
<path clip-path="url(#clip772)" d="M2087.14 283.515 L2071.14 299.515 L2087.14 315.515 L2103.14 299.515 L2087.14 283.515 Z" fill="#6badd5" fill-rule="evenodd" fill-opacity="1" stroke="#000000" stroke-opacity="1" stroke-width="3.2"/>
<path clip-path="url(#clip772)" d="M2135.88 207.584 L2119.88 223.584 L2135.88 239.584 L2151.88 223.584 L2135.88 207.584 Z" fill="#6badd5" fill-rule="evenodd" fill-opacity="1" stroke="#000000" stroke-opacity="1" stroke-width="3.2"/>
<path clip-path="url(#clip772)" d="M2184.58 182.274 L2168.58 198.274 L2184.58 214.274 L2200.58 198.274 L2184.58 182.274 Z" fill="#6badd5" fill-rule="evenodd" fill-opacity="1" stroke="#000000" stroke-opacity="1" stroke-width="3.2"/>
<path clip-path="url(#clip772)" d="M2233.32 167.811 L2217.32 183.811 L2233.32 199.811 L2249.32 183.811 L2233.32 167.811 Z" fill="#6badd5" fill-rule="evenodd" fill-opacity="1" stroke="#000000" stroke-opacity="1" stroke-width="3.2"/>
<path clip-path="url(#clip772)" d="M2282.02 160.579 L2266.02 176.579 L2282.02 192.579 L2298.02 176.579 L2282.02 160.579 Z" fill="#6badd5" fill-rule="evenodd" fill-opacity="1" stroke="#000000" stroke-opacity="1" stroke-width="3.2"/>
<polyline clip-path="url(#clip772)" style="stroke:#000000; stroke-linecap:round; stroke-linejoin:round; stroke-width:4; stroke-opacity:1; fill:none" points="301.869,1344.47 303.44,1322.77 305.012,1301.08 306.583,1279.38 308.154,1257.69 309.725,1235.99 311.296,1214.3 312.868,1192.6 314.439,1170.91 316.01,1149.21 317.581,1127.52 319.152,1105.83 320.724,1084.13 322.295,1062.44 323.866,1040.74 325.437,1019.05 327.008,997.354 328.58,975.659 330.151,953.965 331.722,932.27 333.293,910.576 334.864,888.881 336.436,867.187 338.007,845.492 339.578,823.798 341.149,802.103 342.72,780.409 344.292,758.714 345.863,737.02 347.434,715.325 349.005,693.631 350.576,671.936 352.148,650.242 353.719,628.547 355.29,606.853 356.861,585.159 358.432,563.464 360.004,541.77 361.575,520.075 363.146,498.381 364.743,476.686 366.288,454.992 367.86,433.297 369.457,411.603 371.002,389.908 372.599,368.214 374.144,346.519 375.716,324.825 377.313,303.13 378.858,299.515 380.455,299.515 382.026,299.515 383.571,299.515 385.169,299.515 386.74,299.515 388.311,299.515 389.882,299.515 391.454,299.515 393.025,299.515 394.596,299.515 396.167,299.515 397.738,299.515 399.31,299.515 400.881,299.515 402.452,299.515 404.023,299.515 405.594,299.515 407.166,299.515 408.737,299.515 410.308,299.515 411.879,299.515 413.45,299.515 415.022,299.515 416.593,299.515 418.164,299.515 419.735,299.515 421.306,299.515 422.878,299.515 424.449,299.515 426.02,299.515 427.591,299.515 429.162,299.515 430.734,299.515 432.305,299.515 433.876,299.515 435.447,299.515 437.018,299.515 438.59,299.515 440.161,299.515 441.732,299.515 443.303,299.515 444.874,299.515 446.446,299.515 448.017,299.515 449.588,299.515 451.159,299.515 452.73,299.515 454.302,299.515 455.873,299.515 457.444,299.515 459.015,299.515 460.586,299.515 462.158,299.515 463.729,299.515 465.3,299.515 466.871,299.515 468.442,299.515 470.014,299.515 471.585,299.515 473.156,299.515 474.727,299.515 476.298,299.515 477.87,299.515 479.441,299.515 481.012,299.515 482.583,299.515 484.154,299.515 485.725,299.515 487.323,299.515 488.868,299.515 490.465,299.515 492.01,299.515 493.581,299.515 495.179,299.515 496.724,299.515 498.321,299.515 499.892,299.515 501.437,299.515 503.035,299.515 504.606,299.515 506.177,299.515 507.748,299.515 509.32,299.515 510.891,299.515 512.462,299.515 514.033,299.515 515.604,299.515 517.176,299.515 518.747,299.515 520.318,299.515 521.889,299.515 523.46,299.515 525.032,299.515 526.603,299.515 528.174,299.515 529.745,299.515 531.316,299.515 532.888,299.515 534.459,299.515 536.03,299.515 537.601,299.515 539.172,299.515 540.744,299.515 542.315,299.515 543.886,299.515 545.457,299.515 547.028,299.515 548.6,299.515 550.171,299.515 551.742,299.515 553.313,299.515 554.884,299.515 556.456,299.515 558.027,299.515 559.598,299.515 561.169,299.515 562.74,299.515 564.312,299.515 565.883,299.515 567.454,299.515 569.025,299.515 570.596,299.515 572.168,299.515 573.739,299.515 575.31,299.515 576.881,299.515 578.452,299.515 580.024,299.515 581.595,299.515 583.166,299.515 584.737,299.515 586.308,299.515 587.88,299.515 589.451,299.515 591.022,299.515 592.593,299.515 594.164,299.515 595.735,299.515 597.307,299.515 598.878,299.515 600.449,299.515 602.046,299.515 603.591,299.515 605.163,299.515 606.76,299.515 608.305,299.515 609.902,299.515 611.474,299.515 613.045,299.515 614.616,299.515 616.187,299.515 617.758,299.515 619.33,299.515 620.901,299.515 622.472,299.515 624.043,299.515 625.614,299.515 627.186,299.515 628.757,299.515 630.328,299.515 631.899,299.515 633.47,299.515 635.042,299.515 636.613,299.515 638.184,299.515 639.755,299.515 641.326,299.515 642.898,299.515 644.469,299.515 646.04,299.515 647.611,299.515 649.182,299.515 650.754,299.515 652.325,299.515 653.896,299.515 655.467,299.515 657.038,299.515 658.61,299.515 660.181,299.515 661.752,299.515 663.323,299.515 664.894,299.515 666.466,299.515 668.037,299.515 669.608,299.515 671.179,299.515 672.75,299.515 674.322,299.515 675.893,299.515 677.464,299.515 679.035,299.515 680.606,299.515 682.178,299.515 683.749,299.515 685.32,299.515 686.891,299.515 688.462,299.515 690.034,299.515 691.605,299.515 693.176,299.515 694.747,299.515 696.318,299.515 697.89,299.515 699.461,299.515 701.032,299.515 702.603,299.515 704.174,299.515 705.745,299.515 707.317,299.515 708.888,299.515 710.459,299.515 712.03,299.515 713.601,299.515 715.199,299.515 716.744,299.515 718.315,299.515 719.912,299.515 721.457,299.515 723.055,299.515 724.6,299.515 726.197,299.515 727.768,299.515 729.34,299.515 730.911,299.515 732.456,299.515 734.053,299.515 735.624,299.515 737.196,299.515 738.767,299.515 740.338,299.515 741.909,299.515 743.48,299.515 745.052,299.515 746.623,299.515 748.194,299.515 749.765,299.515 751.336,299.515 752.908,299.515 754.479,299.515 756.05,299.515 757.621,299.515 759.192,299.515 760.764,299.515 762.335,299.515 763.906,299.515 765.477,299.515 767.048,299.515 768.62,299.515 770.191,299.515 771.762,299.515 773.333,299.515 774.904,299.515 776.476,299.515 778.047,299.515 779.618,299.515 781.189,299.515 782.76,299.515 784.332,299.515 785.903,299.515 787.474,299.515 789.045,299.515 790.616,299.515 792.188,299.515 793.759,299.515 795.33,299.515 796.901,299.515 798.472,299.515 800.044,299.515 801.615,299.515 803.186,299.515 804.757,299.515 806.328,299.515 807.899,299.515 809.471,299.515 811.042,299.515 812.613,299.515 814.184,299.515 815.755,299.515 817.327,299.515 818.898,299.515 820.469,299.515 822.04,299.515 823.611,299.515 825.183,299.515 826.754,299.515 828.351,299.515 829.896,299.515 831.467,299.515 833.039,299.515 834.61,299.515 836.207,299.515 837.752,299.515 839.323,299.515 840.921,299.515 842.466,299.515 844.063,299.515 845.608,299.515 847.206,299.515 848.777,299.515 850.322,299.515 851.919,299.515 853.49,299.515 855.062,299.515 856.633,299.515 858.204,299.515 859.775,299.515 861.346,299.515 862.918,299.515 864.489,299.515 866.06,299.515 867.631,299.515 869.202,299.515 870.774,299.515 872.345,299.515 873.916,299.515 875.487,299.515 877.058,299.515 878.63,299.515 880.201,299.515 881.772,299.515 883.343,299.515 884.914,299.515 886.486,299.515 888.057,299.515 889.628,299.515 891.199,299.515 892.77,299.515 894.342,299.515 895.913,299.515 897.484,299.515 899.055,299.515 900.626,299.515 902.198,299.515 903.769,299.515 905.34,299.515 906.911,299.515 908.482,299.515 910.054,299.515 911.625,299.515 913.196,299.515 914.767,299.515 916.338,299.515 917.909,299.515 919.481,299.515 921.052,299.515 922.623,299.515 924.194,299.515 925.765,299.515 927.337,299.515 928.908,299.515 930.479,299.515 932.05,299.515 933.621,299.515 935.193,299.515 936.764,299.515 938.335,299.515 939.906,299.515 941.477,299.515 943.075,299.515 944.62,299.515 946.191,299.515 947.762,299.515 949.333,299.515 950.931,299.515 952.476,299.515 954.073,299.515 955.644,299.515 957.189,299.515 958.787,299.515 960.358,299.515 961.929,299.515 963.5,299.515 965.045,299.515 966.643,299.515 968.214,299.515 969.785,299.515 971.356,299.515 972.928,299.515 974.499,299.515 976.07,299.515 977.641,299.515 979.212,299.515 980.784,299.515 982.355,299.515 983.926,299.515 985.497,299.515 987.068,299.515 988.64,299.515 990.211,299.515 991.782,299.515 993.353,299.515 994.924,299.515 996.496,299.515 998.067,299.515 999.638,299.515 1001.21,299.515 1002.78,299.515 1004.35,299.515 1005.92,299.515 1007.49,299.515 1009.07,299.515 1010.64,299.515 1012.21,299.515 1013.78,299.515 1015.35,299.515 1016.92,299.515 1018.49,299.515 1020.06,299.515 1021.63,299.515 1023.21,299.515 1024.78,299.515 1026.35,299.515 1027.92,299.515 1029.49,299.515 1031.06,299.515 1032.63,299.515 1034.2,299.515 1035.78,299.515 1037.35,299.515 1038.92,299.515 1040.49,299.515 1042.06,299.515 1043.63,299.515 1045.2,299.515 1046.77,299.515 1048.35,299.515 1049.92,299.515 1051.49,299.515 1053.06,299.515 1054.63,299.515 1056.2,299.515 1057.8,299.515 1059.34,299.515 1060.94,299.515 1062.49,299.515 1064.06,299.515 1065.63,299.515 1067.2,299.515 1068.8,299.515 1070.34,299.515 1071.94,299.515 1073.51,299.515 1075.06,299.515 1076.65,299.515 1078.22,299.515 1079.8,299.515 1081.37,299.515 1082.94,299.515 1084.51,299.515 1086.08,299.515 1087.65,299.515 1089.22,299.515 1090.79,299.515 1092.36,299.515 1093.94,299.515 1095.51,299.515 1097.08,299.515 1098.65,299.515 1100.22,299.515 1101.79,299.515 1103.36,299.515 1104.93,299.515 1106.51,299.515 1108.08,299.515 1109.65,299.515 1111.22,299.515 1112.79,299.515 1114.36,299.515 1115.93,299.515 1117.5,299.515 1119.08,299.515 1120.65,299.515 1122.22,299.515 1123.79,299.515 1125.36,299.515 1126.93,299.515 1128.5,299.515 1130.07,299.515 1131.64,299.515 1133.22,299.515 1134.79,299.515 1136.36,299.515 1137.93,299.515 1139.5,299.515 1141.07,299.515 1142.64,299.515 1144.21,299.515 1145.79,299.515 1147.36,299.515 1148.93,299.515 1150.5,299.515 1152.07,299.515 1153.64,299.515 1155.21,299.515 1156.78,299.515 1158.36,299.515 1159.93,299.515 1161.5,299.515 1163.07,299.515 1164.64,299.515 1166.21,299.515 1167.78,299.515 1169.35,299.515 1170.92,299.515 1172.5,299.515 1174.07,299.515 1175.64,299.515 1177.24,299.515 1178.78,299.515 1180.35,299.515 1181.95,299.515 1183.49,299.515 1185.09,299.515 1186.66,299.515 1188.21,299.515 1189.81,299.515 1191.35,299.515 1192.95,299.515 1194.52,299.515 1196.09,299.515 1197.66,299.515 1199.23,299.515 1200.8,299.515 1202.37,299.515 1203.95,299.515 1205.52,299.515 1207.09,299.515 1208.66,299.515 1210.23,299.515 1211.8,299.515 1213.37,299.515 1214.94,299.515 1216.52,299.515 1218.09,299.515 1219.66,299.515 1221.23,299.515 1222.8,299.515 1224.37,299.515 1225.94,299.515 1227.51,299.515 1229.09,299.515 1230.66,299.515 1232.23,299.515 1233.8,299.515 1235.37,299.515 1236.94,299.515 1238.51,299.515 1240.08,299.515 1241.65,299.515 1243.23,299.515 1244.8,299.515 1246.37,299.515 1247.94,299.515 1249.51,299.515 1251.08,299.515 1252.65,299.515 1254.22,299.515 1255.8,299.515 1257.37,299.515 1258.94,299.515 1260.51,299.515 1262.08,299.515 1263.65,299.515 1265.22,299.515 1266.79,299.515 1268.37,299.515 1269.94,299.515 1271.51,299.515 1273.08,299.515 1274.65,299.515 1276.22,299.515 1277.79,299.515 1279.36,299.515 1280.93,299.515 1282.51,299.515 1284.08,299.515 1285.65,299.515 1287.22,299.515 1288.79,299.515 1290.39,299.515 1291.93,299.515 1293.5,299.515 1295.1,299.515 1296.65,299.515 1298.22,299.515 1299.82,299.515 1301.36,299.515 1302.96,299.515 1304.5,299.515 1306.1,299.515 1307.67,299.515 1309.22,299.515 1310.81,299.515 1312.38,299.515 1313.96,299.515 1315.53,299.515 1317.1,299.515 1318.67,299.515 1320.24,299.515 1321.81,299.515 1323.38,299.515 1324.95,299.515 1326.53,299.515 1328.1,299.515 1329.67,299.515 1331.24,299.515 1332.81,299.515 1334.38,299.515 1335.95,299.515 1337.52,299.515 1339.1,299.515 1340.67,299.515 1342.24,299.515 1343.81,299.515 1345.38,299.515 1346.95,299.515 1348.52,299.515 1350.09,299.515 1351.66,299.515 1353.24,299.515 1354.81,299.515 1356.38,299.515 1357.95,299.515 1359.52,299.515 1361.09,299.515 1362.66,299.515 1364.23,299.515 1365.81,299.515 1367.38,299.515 1368.95,299.515 1370.52,299.515 1372.09,299.515 1373.66,299.515 1375.23,299.515 1376.8,299.515 1378.38,299.515 1379.95,299.515 1381.52,299.515 1383.09,299.515 1384.66,299.515 1386.23,299.515 1387.8,299.515 1389.37,299.515 1390.94,299.515 1392.52,299.515 1394.09,299.515 1395.66,299.515 1397.23,299.515 1398.8,299.515 1400.37,299.515 1401.94,299.515 1403.54,299.515 1405.09,299.515 1406.66,299.515 1408.23,299.515 1409.8,299.515 1411.4,299.515 1412.94,299.515 1414.51,299.515 1416.11,299.515 1417.65,299.515 1419.25,299.515 1420.82,299.515 1422.37,299.515 1423.97,299.515 1425.54,299.515 1427.11,299.515 1428.68,299.515 1430.25,299.515 1431.82,299.515 1433.39,299.515 1434.96,299.515 1436.54,299.515 1438.11,299.515 1439.68,299.515 1441.25,299.515 1442.82,299.515 1444.39,299.515 1445.96,299.515 1447.53,299.515 1449.11,299.515 1450.68,299.515 1452.25,299.515 1453.82,299.515 1455.39,299.515 1456.96,299.515 1458.53,299.515 1460.1,299.515 1461.67,299.515 1463.25,299.515 1464.82,299.515 1466.39,299.515 1467.96,299.515 1469.53,299.515 1471.1,299.515 1472.67,299.515 1474.24,299.515 1475.82,299.515 1477.39,299.515 1478.96,299.515 1480.53,299.515 1482.1,299.515 1483.67,299.515 1485.24,299.515 1486.81,299.515 1488.39,299.515 1489.96,299.515 1491.53,299.515 1493.1,299.515 1494.67,299.515 1496.24,299.515 1497.81,299.515 1499.38,299.515 1500.95,299.515 1502.53,299.515 1504.1,299.515 1505.67,299.515 1507.24,299.515 1508.81,299.515 1510.38,299.515 1511.95,299.515 1513.52,299.515 1515.1,299.515 1516.67,299.515 1518.24,299.515 1519.81,299.515 1521.38,299.515 1522.95,299.515 1524.55,299.515 1526.09,299.515 1527.66,299.515 1529.26,299.515 1530.81,299.515 1532.4,299.515 1533.95,299.515 1535.52,299.515 1537.12,299.515 1538.66,299.515 1540.26,299.515 1541.83,299.515 1543.4,299.515 1544.97,299.515 1546.55,299.515 1548.12,299.515 1549.69,299.515 1551.26,299.515 1552.83,299.515 1554.4,299.515 1555.97,299.515 1557.54,299.515 1559.12,299.515 1560.69,299.515 1562.26,299.515 1563.83,299.515 1565.4,299.515 1566.97,299.515 1568.54,299.515 1570.11,299.515 1571.68,299.515 1573.26,299.515 1574.83,299.515 1576.4,299.515 1577.97,299.515 1579.54,299.515 1581.11,299.515 1582.68,299.515 1584.25,299.515 1585.83,299.515 1587.4,299.515 1588.97,299.515 1590.54,299.515 1592.11,299.515 1593.68,299.515 1595.25,299.515 1596.82,299.515 1598.4,299.515 1599.97,299.515 1601.54,299.515 1603.11,299.515 1604.68,299.515 1606.25,299.515 1607.82,299.515 1609.39,299.515 1610.96,299.515 1612.54,299.515 1614.11,299.515 1615.68,299.515 1617.25,299.515 1618.82,299.515 1620.39,299.515 1621.96,299.515 1623.53,299.515 1625.11,299.515 1626.68,299.515 1628.25,299.515 1629.82,299.515 1631.39,299.515 1632.96,299.515 1634.53,299.515 1636.1,299.515 1637.67,299.515 1639.25,299.515 1640.84,299.515 1642.39,299.515 1643.96,299.515 1645.56,299.515 1647.1,299.515 1648.67,299.515 1650.27,299.515 1651.82,299.515 1653.41,299.515 1654.98,299.515 1656.56,299.515 1658.13,299.515 1659.7,299.515 1661.27,299.515 1662.84,299.515 1664.41,299.515 1665.98,299.515 1667.55,299.515 1669.13,299.515 1670.7,299.515 1672.27,299.515 1673.84,299.515 1675.41,299.515 1676.98,299.515 1678.55,299.515 1680.12,299.515 1681.69,299.515 1683.27,299.515 1684.84,299.515 1686.41,299.515 1687.98,299.515 1689.55,299.515 1691.12,299.515 1692.69,299.515 1694.26,299.515 1695.84,299.515 1697.41,299.515 1698.98,299.515 1700.55,299.515 1702.12,299.515 1703.69,299.515 1705.26,299.515 1706.83,299.515 1708.41,299.515 1709.98,299.515 1711.55,299.515 1713.12,299.515 1714.69,299.515 1716.26,299.515 1717.83,299.515 1719.4,299.515 1720.97,299.515 1722.55,299.515 1724.12,299.515 1725.69,299.515 1727.26,299.515 1728.83,299.515 1730.4,299.515 1731.97,299.515 1733.54,299.515 1735.12,299.515 1736.69,299.515 1738.26,299.515 1739.83,299.515 1741.4,299.515 1742.97,299.515 1744.54,299.515 1746.11,299.515 1747.68,299.515 1749.26,299.515 1750.83,299.515 1752.4,299.515 1754,299.515 1755.54,299.515 1757.11,299.515 1758.71,299.515 1760.25,299.515 1761.83,299.515 1763.42,299.515 1764.99,299.515 1766.54,299.515 1768.14,299.515 1769.71,299.515 1771.28,299.515 1772.85,299.515 1774.42,299.515 1775.99,299.515 1777.54,299.515 1779.14,299.515 1780.71,299.515 1782.28,299.515 1783.85,299.515 1785.42,299.515 1786.99,299.515 1788.56,299.515 1790.13,299.515 1791.7,299.515 1793.28,299.515 1794.85,299.515 1796.42,299.515 1797.99,299.515 1799.56,299.515 1801.13,299.515 1802.7,299.515 1804.27,299.515 1805.85,299.515 1807.42,299.515 1808.99,299.515 1810.56,299.515 1812.13,299.515 1813.7,299.515 1815.27,299.515 1816.84,299.515 1818.42,299.515 1819.99,299.515 1821.56,299.515 1823.13,299.515 1824.7,299.515 1826.27,299.515 1827.84,299.515 1829.41,299.515 1830.98,299.515 1832.56,299.515 1834.13,299.515 1835.7,299.515 1837.27,299.515 1838.84,299.515 1840.41,299.515 1841.98,299.515 1843.55,299.515 1845.13,299.515 1846.7,299.515 1848.27,299.515 1849.84,299.515 1851.41,299.515 1852.98,299.515 1854.55,299.515 1856.12,299.515 1857.69,299.515 1859.27,299.515 1860.84,299.515 1862.41,299.515 1863.98,299.515 1865.55,299.515 1867.15,299.515 1868.69,299.515 1870.26,299.515 1871.86,299.515 1873.41,299.515 1874.98,299.515 1876.58,299.515 1878.12,299.515 1879.69,299.515 1881.29,299.515 1882.86,299.515 1884.41,299.515 1886,299.515 1887.57,299.515 1889.12,299.515 1890.72,299.515 1892.29,299.515 1893.86,299.515 1895.43,299.515 1897,299.515 1898.57,299.515 1900.14,299.515 1901.71,299.515 1903.29,299.515 1904.86,299.515 1906.43,299.515 1908,299.515 1909.57,299.515 1911.14,299.515 1912.71,299.515 1914.28,299.515 1915.86,299.515 1917.43,299.515 1919,299.515 1920.57,299.515 1922.14,299.515 1923.71,299.515 1925.28,299.515 1926.85,299.515 1928.43,299.515 1930,299.515 1931.57,299.515 1933.14,299.515 1934.71,299.515 1936.28,299.515 1937.85,299.515 1939.42,299.515 1940.99,299.515 1942.57,299.515 1944.14,299.515 1945.71,299.515 1947.28,299.515 1948.85,299.515 1950.42,299.515 1951.99,299.515 1953.56,299.515 1955.14,299.515 1956.71,299.515 1958.28,299.515 1959.85,299.515 1961.42,299.515 1962.99,299.515 1964.56,299.515 1966.13,299.515 1967.7,299.515 1969.28,299.515 1970.85,299.515 1972.42,299.515 1973.99,299.515 1975.56,299.515 1977.13,299.515 1978.7,299.515 1980.27,299.515 1981.85,299.515 1983.42,299.515 1984.99,299.515 1986.56,299.515 1988.13,299.515 1989.7,299.515 1991.3,299.515 1992.84,299.515 1994.42,299.515 1996.01,299.515 1997.56,299.515 1999.13,299.515 2000.73,299.515 2002.27,299.515 2003.87,299.515 2005.44,299.515 2007.01,299.515 2008.58,299.515 2010.15,299.515 2011.72,299.515 2013.3,299.515 2014.87,299.515 2016.44,299.515 2018.01,299.515 2019.58,299.515 2021.15,299.515 2022.72,299.515 2024.29,299.515 2025.87,299.515 2027.44,299.515 2029.01,299.515 2030.58,299.515 2032.15,299.515 2033.72,299.515 2035.29,299.515 2036.86,299.515 2038.44,299.515 2040.01,299.515 2041.58,299.515 2043.15,299.515 2044.72,299.515 2046.29,299.515 2047.86,299.515 2049.43,299.515 2051,299.515 2052.58,299.515 2054.15,299.515 2055.72,299.515 2057.29,299.515 2058.86,299.515 2060.43,299.515 2062,299.515 2063.57,299.515 2065.15,299.515 2066.72,299.515 2068.29,299.515 2069.86,299.515 2071.43,299.515 2073,299.515 2074.57,299.515 2076.14,299.515 2077.71,299.515 2079.29,299.515 2080.86,299.515 2082.43,299.515 2084,299.515 2085.57,299.515 2087.14,299.515 2088.71,299.515 2090.28,299.515 2091.86,299.515 2093.43,299.515 2095,299.515 2096.57,299.515 2098.14,299.515 2099.71,299.515 2101.31,299.515 2102.85,299.515 2104.43,299.515 2106,299.515 2107.59,299.515 2109.14,299.515 2110.71,299.515 2112.31,299.515 2113.88,299.515 2115.42,299.515 2116.99,299.515 2118.59,299.515 2120.16,299.515 2121.71,299.515 2123.31,299.515 2124.88,299.515 2126.45,299.515 2128.02,299.515 2129.59,299.515 2131.16,299.515 2132.73,299.515 2134.3,299.515 2135.88,299.515 2137.45,299.515 2139.02,299.515 2140.59,299.515 2142.16,299.515 2143.73,299.515 2145.3,299.515 2146.87,299.515 2148.45,299.515 2150.02,299.515 2151.59,299.515 2153.16,299.515 2154.73,299.515 2156.3,299.515 2157.87,299.515 2159.44,299.515 2161.01,299.515 2162.59,299.515 2164.16,299.515 2165.73,299.515 2167.3,299.515 2168.87,299.515 2170.44,299.515 2172.01,299.515 2173.58,299.515 2175.16,299.515 2176.73,299.515 2178.3,299.515 2179.87,299.515 2181.44,299.515 2183.01,299.515 2184.58,299.515 2186.15,299.515 2187.72,299.515 2189.3,299.515 2190.87,299.515 2192.44,299.515 2194.01,299.515 2195.58,299.515 2197.15,299.515 2198.72,299.515 2200.29,299.515 2201.87,299.515 2203.44,299.515 2205.01,299.515 2206.58,299.515 2208.15,299.515 2209.72,299.515 2211.29,299.515 2212.86,299.515 2214.44,299.515 2216.01,299.515 2217.58,299.515 2219.15,299.515 2220.75,299.515 2222.29,299.515 2223.86,299.515 2225.43,299.515 2227.03,299.515 2228.6,299.515 2230.15,299.515 2231.74,299.515 2233.32,299.515 2234.89,299.515 2236.43,299.515 2238.03,299.515 2239.6,299.515 2241.17,299.515 2242.74,299.515 2244.31,299.515 2245.89,299.515 2247.46,299.515 2249.03,299.515 2250.6,299.515 2252.17,299.515 2253.74,299.515 2255.31,299.515 2256.88,299.515 2258.46,299.515 2260.03,299.515 2261.6,299.515 2263.17,299.515 2264.74,299.515 2266.31,299.515 2267.88,299.515 2269.45,299.515 2271.02,299.515 2272.6,299.515 2274.17,299.515 2275.74,299.515 2277.31,299.515 2278.88,299.515 2280.45,299.515 2282.02,299.515 2283.59,299.515 2285.17,299.515 2286.74,299.515 2288.31,299.515 2289.88,299.515 2291.45,299.515 2293.02,299.515 "/>
<path clip-path="url(#clip770)" d="M1874.83 1377.32 L2282.4 1377.32 L2282.4 1118.12 L1874.83 1118.12  Z" fill="#ffffff" fill-rule="evenodd" fill-opacity="1"/>
<polyline clip-path="url(#clip770)" style="stroke:#000000; stroke-linecap:round; stroke-linejoin:round; stroke-width:4; stroke-opacity:1; fill:none" points="1874.83,1377.32 2282.4,1377.32 2282.4,1118.12 1874.83,1118.12 1874.83,1377.32 "/>
<circle clip-path="url(#clip770)" cx="1968.64" cy="1169.96" r="20.48" fill="#07519c" fill-rule="evenodd" fill-opacity="1" stroke="#000000" stroke-opacity="1" stroke-width="4.55111"/>
<path clip-path="url(#clip770)" d="M2095.07 1147.05 Q2095.07 1147.49 2094.97 1147.87 L2093.66 1156.2 Q2093.59 1156.84 2093.45 1157.07 Q2093.34 1157.3 2092.96 1157.3 Q2092.37 1157.3 2092.37 1156.7 Q2092.37 1156.34 2092.52 1155.78 Q2092.91 1153.14 2092.91 1151.94 Q2092.91 1151.14 2092.75 1150.56 Q2092.61 1149.95 2092.37 1149.53 Q2092.16 1149.11 2091.67 1148.83 Q2091.18 1148.54 2090.71 1148.38 Q2090.24 1148.22 2089.4 1148.15 Q2088.56 1148.05 2087.83 1148.03 Q2087.1 1148.01 2085.91 1148.01 Q2083.31 1148.01 2082.89 1148.1 Q2082.44 1148.22 2082.21 1148.57 Q2082 1148.9 2081.76 1149.88 L2075.39 1175.34 L2075.21 1176.35 Q2075.21 1176.91 2075.56 1177.1 Q2075.91 1177.28 2076.99 1177.4 Q2078.53 1177.52 2080.05 1177.52 Q2080.1 1177.52 2080.2 1177.52 Q2080.71 1177.52 2080.92 1177.54 Q2081.13 1177.54 2081.34 1177.59 Q2081.55 1177.64 2081.6 1177.75 Q2081.67 1177.85 2081.67 1178.03 Q2081.67 1178.48 2081.48 1178.71 Q2081.3 1178.92 2081.11 1178.97 Q2080.94 1178.99 2080.62 1178.99 Q2079.96 1178.99 2078.56 1178.95 Q2077.15 1178.9 2076.45 1178.9 L2072.47 1178.85 L2068.39 1178.9 Q2067.76 1178.9 2066.42 1178.95 Q2065.09 1178.99 2064.46 1178.99 Q2063.64 1178.99 2063.64 1178.41 Q2063.64 1177.75 2063.94 1177.64 Q2064.27 1177.52 2065.65 1177.52 Q2067.59 1177.52 2068.65 1177.42 Q2069.7 1177.33 2070.26 1177 Q2070.85 1176.68 2071.01 1176.35 Q2071.18 1176 2071.36 1175.2 L2077.81 1149.6 Q2077.99 1149.04 2077.99 1148.59 Q2077.99 1148.36 2077.92 1148.26 Q2077.88 1148.17 2077.57 1148.1 Q2077.27 1148.01 2076.63 1148.01 L2074.76 1148.01 Q2072.84 1148.01 2071.65 1148.1 Q2070.47 1148.17 2069.35 1148.52 Q2068.25 1148.87 2067.59 1149.36 Q2066.96 1149.86 2066.26 1150.86 Q2065.56 1151.87 2065.04 1153.09 Q2064.55 1154.31 2063.85 1156.3 Q2063.61 1156.95 2063.47 1157.14 Q2063.35 1157.3 2063.03 1157.3 Q2062.79 1157.3 2062.6 1157.16 Q2062.44 1157 2062.44 1156.79 Q2062.68 1156.02 2062.72 1155.92 L2065.6 1147.47 Q2065.84 1146.79 2066.05 1146.67 Q2066.28 1146.53 2067.15 1146.53 L2093.76 1146.53 Q2094.18 1146.53 2094.32 1146.53 Q2094.46 1146.53 2094.69 1146.58 Q2094.93 1146.62 2095 1146.74 Q2095.07 1146.86 2095.07 1147.05 Z" fill="#000000" fill-rule="nonzero" fill-opacity="1" /><path clip-path="url(#clip770)" d="M2099.86 1179.63 L2099.86 1178.58 L2102.5 1178.58 L2102.5 1174.73 Q2102.5 1172.23 2104.1 1170.81 Q2105.73 1169.38 2107.71 1169.38 Q2109.02 1169.38 2109.88 1170.09 Q2110.73 1170.79 2110.73 1171.74 Q2110.73 1172.38 2110.33 1172.81 Q2109.96 1173.22 2109.25 1173.22 Q2108.58 1173.22 2108.19 1172.79 Q2107.81 1172.37 2107.81 1171.78 Q2107.81 1170.69 2108.81 1170.37 Q2108.3 1170.14 2107.71 1170.12 Q2106.5 1170.12 2105.55 1171.37 Q2104.61 1172.61 2104.61 1174.69 L2104.61 1178.58 L2108.55 1178.58 L2108.55 1179.63 L2104.73 1179.63 L2104.73 1190.43 Q2104.73 1191.4 2105.12 1191.71 Q2105.53 1192.02 2107.27 1192.02 L2107.97 1192.02 L2107.97 1193.06 Q2106.63 1192.96 2103.71 1192.96 Q2103.3 1192.96 2102.66 1192.98 Q2102.04 1192.99 2101.19 1193.02 Q2100.35 1193.06 2099.89 1193.06 L2099.89 1192.02 Q2101.68 1192.02 2102.09 1191.81 Q2102.5 1191.58 2102.5 1190.5 L2102.5 1179.63 L2099.86 1179.63 Z" fill="#000000" fill-rule="nonzero" fill-opacity="1" /><path clip-path="url(#clip770)" d="M2114.29 1173.89 L2114.29 1172.84 Q2118.32 1172.84 2120.41 1170.69 Q2120.98 1170.69 2121.08 1170.82 Q2121.18 1170.96 2121.18 1171.56 L2121.18 1190.4 Q2121.18 1191.4 2121.67 1191.71 Q2122.16 1192.02 2124.31 1192.02 L2125.37 1192.02 L2125.37 1193.06 Q2124.19 1192.96 2119.93 1192.96 Q2115.67 1192.96 2114.5 1193.06 L2114.5 1192.02 L2115.57 1192.02 Q2117.68 1192.02 2118.19 1191.73 Q2118.7 1191.42 2118.7 1190.4 L2118.7 1173.01 Q2116.95 1173.89 2114.29 1173.89 Z" fill="#000000" fill-rule="nonzero" fill-opacity="1" /><path clip-path="url(#clip770)" d="M2137.93 1173.11 L2142.82 1173.11 L2142.82 1177.1 L2139.02 1184.5 L2136.03 1184.5 L2137.93 1177.1 L2137.93 1173.11 Z" fill="#000000" fill-rule="nonzero" fill-opacity="1" /><path clip-path="url(#clip770)" d="M2189.16 1164.97 L2189.16 1167.05 L2169.58 1167.05 Q2169.85 1171.45 2172.21 1173.76 Q2174.6 1176.05 2178.84 1176.05 Q2181.29 1176.05 2183.58 1175.45 Q2185.9 1174.85 2188.16 1173.65 L2188.16 1177.67 Q2185.87 1178.65 2183.46 1179.16 Q2181.06 1179.67 2178.58 1179.67 Q2172.38 1179.67 2168.74 1176.05 Q2165.13 1172.44 2165.13 1166.29 Q2165.13 1159.92 2168.56 1156.19 Q2172.01 1152.44 2177.84 1152.44 Q2183.07 1152.44 2186.1 1155.82 Q2189.16 1159.18 2189.16 1164.97 M2184.9 1163.72 Q2184.85 1160.22 2182.93 1158.14 Q2181.03 1156.05 2177.89 1156.05 Q2174.32 1156.05 2172.17 1158.07 Q2170.04 1160.08 2169.71 1163.74 L2184.9 1163.72 Z" fill="#000000" fill-rule="nonzero" fill-opacity="1" /><path clip-path="url(#clip770)" d="M2216.87 1153.07 L2207.49 1165.68 L2217.35 1178.99 L2212.33 1178.99 L2204.78 1168.81 L2197.24 1178.99 L2192.21 1178.99 L2202.28 1165.43 L2193.07 1153.07 L2198.09 1153.07 L2204.97 1162.3 L2211.84 1153.07 L2216.87 1153.07 Z" fill="#000000" fill-rule="nonzero" fill-opacity="1" /><path clip-path="url(#clip770)" d="M2227.49 1175.11 L2227.49 1188.85 L2223.21 1188.85 L2223.21 1153.07 L2227.49 1153.07 L2227.49 1157 Q2228.83 1154.69 2230.87 1153.58 Q2232.93 1152.44 2235.78 1152.44 Q2240.5 1152.44 2243.44 1156.19 Q2246.4 1159.94 2246.4 1166.05 Q2246.4 1172.17 2243.44 1175.92 Q2240.5 1179.67 2235.78 1179.67 Q2232.93 1179.67 2230.87 1178.55 Q2228.83 1177.42 2227.49 1175.11 M2241.98 1166.05 Q2241.98 1161.36 2240.04 1158.69 Q2238.12 1156.01 2234.74 1156.01 Q2231.36 1156.01 2229.41 1158.69 Q2227.49 1161.36 2227.49 1166.05 Q2227.49 1170.75 2229.41 1173.44 Q2231.36 1176.1 2234.74 1176.1 Q2238.12 1176.1 2240.04 1173.44 Q2241.98 1170.75 2241.98 1166.05 Z" fill="#000000" fill-rule="nonzero" fill-opacity="1" /><path clip-path="url(#clip770)" d="M2254.07 1173.11 L2258.95 1173.11 L2258.95 1178.99 L2254.07 1178.99 L2254.07 1173.11 Z" fill="#000000" fill-rule="nonzero" fill-opacity="1" /><path clip-path="url(#clip770)" d="M1945.88 1199.04 L1945.88 1244.55 L1991.39 1244.55 L1991.39 1199.04 L1945.88 1199.04 Z" fill="#3082bc" fill-rule="evenodd" fill-opacity="1" stroke="#000000" stroke-opacity="1" stroke-width="4.55111"/>
<path clip-path="url(#clip770)" d="M2095.07 1198.89 Q2095.07 1199.33 2094.97 1199.71 L2093.66 1208.04 Q2093.59 1208.68 2093.45 1208.91 Q2093.34 1209.14 2092.96 1209.14 Q2092.37 1209.14 2092.37 1208.54 Q2092.37 1208.18 2092.52 1207.62 Q2092.91 1204.98 2092.91 1203.78 Q2092.91 1202.98 2092.75 1202.4 Q2092.61 1201.79 2092.37 1201.37 Q2092.16 1200.95 2091.67 1200.67 Q2091.18 1200.38 2090.71 1200.22 Q2090.24 1200.06 2089.4 1199.99 Q2088.56 1199.89 2087.83 1199.87 Q2087.1 1199.85 2085.91 1199.85 Q2083.31 1199.85 2082.89 1199.94 Q2082.44 1200.06 2082.21 1200.41 Q2082 1200.74 2081.76 1201.72 L2075.39 1227.18 L2075.21 1228.19 Q2075.21 1228.75 2075.56 1228.94 Q2075.91 1229.12 2076.99 1229.24 Q2078.53 1229.36 2080.05 1229.36 Q2080.1 1229.36 2080.2 1229.36 Q2080.71 1229.36 2080.92 1229.38 Q2081.13 1229.38 2081.34 1229.43 Q2081.55 1229.48 2081.6 1229.59 Q2081.67 1229.69 2081.67 1229.87 Q2081.67 1230.32 2081.48 1230.55 Q2081.3 1230.76 2081.11 1230.81 Q2080.94 1230.83 2080.62 1230.83 Q2079.96 1230.83 2078.56 1230.79 Q2077.15 1230.74 2076.45 1230.74 L2072.47 1230.69 L2068.39 1230.74 Q2067.76 1230.74 2066.42 1230.79 Q2065.09 1230.83 2064.46 1230.83 Q2063.64 1230.83 2063.64 1230.25 Q2063.64 1229.59 2063.94 1229.48 Q2064.27 1229.36 2065.65 1229.36 Q2067.59 1229.36 2068.65 1229.26 Q2069.7 1229.17 2070.26 1228.84 Q2070.85 1228.52 2071.01 1228.19 Q2071.18 1227.84 2071.36 1227.04 L2077.81 1201.44 Q2077.99 1200.88 2077.99 1200.43 Q2077.99 1200.2 2077.92 1200.1 Q2077.88 1200.01 2077.57 1199.94 Q2077.27 1199.85 2076.63 1199.85 L2074.76 1199.85 Q2072.84 1199.85 2071.65 1199.94 Q2070.47 1200.01 2069.35 1200.36 Q2068.25 1200.71 2067.59 1201.2 Q2066.96 1201.7 2066.26 1202.7 Q2065.56 1203.71 2065.04 1204.93 Q2064.55 1206.15 2063.85 1208.14 Q2063.61 1208.79 2063.47 1208.98 Q2063.35 1209.14 2063.03 1209.14 Q2062.79 1209.14 2062.6 1209 Q2062.44 1208.84 2062.44 1208.63 Q2062.68 1207.86 2062.72 1207.76 L2065.6 1199.31 Q2065.84 1198.63 2066.05 1198.51 Q2066.28 1198.37 2067.15 1198.37 L2093.76 1198.37 Q2094.18 1198.37 2094.32 1198.37 Q2094.46 1198.37 2094.69 1198.42 Q2094.93 1198.46 2095 1198.58 Q2095.07 1198.7 2095.07 1198.89 Z" fill="#000000" fill-rule="nonzero" fill-opacity="1" /><path clip-path="url(#clip770)" d="M2099.86 1231.47 L2099.86 1230.42 L2102.5 1230.42 L2102.5 1226.57 Q2102.5 1224.07 2104.1 1222.65 Q2105.73 1221.22 2107.71 1221.22 Q2109.02 1221.22 2109.88 1221.93 Q2110.73 1222.63 2110.73 1223.58 Q2110.73 1224.22 2110.33 1224.65 Q2109.96 1225.06 2109.25 1225.06 Q2108.58 1225.06 2108.19 1224.63 Q2107.81 1224.21 2107.81 1223.62 Q2107.81 1222.53 2108.81 1222.21 Q2108.3 1221.98 2107.71 1221.96 Q2106.5 1221.96 2105.55 1223.21 Q2104.61 1224.45 2104.61 1226.53 L2104.61 1230.42 L2108.55 1230.42 L2108.55 1231.47 L2104.73 1231.47 L2104.73 1242.27 Q2104.73 1243.24 2105.12 1243.55 Q2105.53 1243.86 2107.27 1243.86 L2107.97 1243.86 L2107.97 1244.9 Q2106.63 1244.8 2103.71 1244.8 Q2103.3 1244.8 2102.66 1244.82 Q2102.04 1244.83 2101.19 1244.86 Q2100.35 1244.9 2099.89 1244.9 L2099.89 1243.86 Q2101.68 1243.86 2102.09 1243.65 Q2102.5 1243.42 2102.5 1242.34 L2102.5 1231.47 L2099.86 1231.47 Z" fill="#000000" fill-rule="nonzero" fill-opacity="1" /><path clip-path="url(#clip770)" d="M2113.08 1244.9 Q2113.08 1244.29 2113.13 1244.11 Q2113.19 1243.93 2113.46 1243.65 L2119.9 1236.47 Q2123.43 1232.5 2123.43 1229.04 Q2123.43 1226.8 2122.25 1225.19 Q2121.08 1223.58 2118.93 1223.58 Q2117.46 1223.58 2116.21 1224.48 Q2114.97 1225.39 2114.39 1226.99 Q2114.49 1226.96 2114.83 1226.96 Q2115.67 1226.96 2116.13 1227.49 Q2116.6 1228.01 2116.6 1228.71 Q2116.6 1229.62 2116.01 1230.06 Q2115.44 1230.49 2114.87 1230.49 Q2114.64 1230.49 2114.33 1230.44 Q2114.03 1230.39 2113.56 1229.93 Q2113.08 1229.45 2113.08 1228.62 Q2113.08 1226.27 2114.85 1224.4 Q2116.64 1222.53 2119.36 1222.53 Q2122.44 1222.53 2124.46 1224.37 Q2126.49 1226.19 2126.49 1229.04 Q2126.49 1230.04 2126.18 1230.96 Q2125.88 1231.86 2125.48 1232.57 Q2125.08 1233.27 2124 1234.4 Q2122.92 1235.54 2122.05 1236.34 Q2121.18 1237.14 2119.23 1238.85 L2115.67 1242.31 L2121.72 1242.31 Q2124.67 1242.31 2124.9 1242.04 Q2125.23 1241.57 2125.64 1239.06 L2126.49 1239.06 L2125.54 1244.9 L2113.08 1244.9 Z" fill="#000000" fill-rule="nonzero" fill-opacity="1" /><path clip-path="url(#clip770)" d="M2136.72 1224.95 L2141.61 1224.95 L2141.61 1228.94 L2137.81 1236.34 L2134.82 1236.34 L2136.72 1228.94 L2136.72 1224.95 Z" fill="#000000" fill-rule="nonzero" fill-opacity="1" /><path clip-path="url(#clip770)" d="M2187.95 1216.81 L2187.95 1218.89 L2168.37 1218.89 Q2168.64 1223.29 2171.01 1225.6 Q2173.39 1227.89 2177.63 1227.89 Q2180.08 1227.89 2182.37 1227.29 Q2184.69 1226.69 2186.95 1225.49 L2186.95 1229.51 Q2184.66 1230.49 2182.26 1231 Q2179.85 1231.51 2177.37 1231.51 Q2171.17 1231.51 2167.53 1227.89 Q2163.92 1224.28 2163.92 1218.13 Q2163.92 1211.76 2167.35 1208.03 Q2170.8 1204.28 2176.63 1204.28 Q2181.86 1204.28 2184.89 1207.66 Q2187.95 1211.02 2187.95 1216.81 M2183.69 1215.56 Q2183.64 1212.06 2181.72 1209.98 Q2179.82 1207.89 2176.68 1207.89 Q2173.11 1207.89 2170.96 1209.91 Q2168.83 1211.92 2168.51 1215.58 L2183.69 1215.56 Z" fill="#000000" fill-rule="nonzero" fill-opacity="1" /><path clip-path="url(#clip770)" d="M2215.66 1204.91 L2206.28 1217.52 L2216.14 1230.83 L2211.12 1230.83 L2203.57 1220.65 L2196.03 1230.83 L2191.01 1230.83 L2201.07 1217.27 L2191.86 1204.91 L2196.88 1204.91 L2203.76 1214.14 L2210.63 1204.91 L2215.66 1204.91 Z" fill="#000000" fill-rule="nonzero" fill-opacity="1" /><path clip-path="url(#clip770)" d="M2226.28 1226.95 L2226.28 1240.69 L2222 1240.69 L2222 1204.91 L2226.28 1204.91 L2226.28 1208.84 Q2227.63 1206.53 2229.66 1205.42 Q2231.72 1204.28 2234.57 1204.28 Q2239.29 1204.28 2242.23 1208.03 Q2245.19 1211.78 2245.19 1217.89 Q2245.19 1224.01 2242.23 1227.76 Q2239.29 1231.51 2234.57 1231.51 Q2231.72 1231.51 2229.66 1230.39 Q2227.63 1229.26 2226.28 1226.95 M2240.77 1217.89 Q2240.77 1213.2 2238.83 1210.53 Q2236.91 1207.85 2233.53 1207.85 Q2230.15 1207.85 2228.2 1210.53 Q2226.28 1213.2 2226.28 1217.89 Q2226.28 1222.59 2228.2 1225.28 Q2230.15 1227.94 2233.53 1227.94 Q2236.91 1227.94 2238.83 1225.28 Q2240.77 1222.59 2240.77 1217.89 Z" fill="#000000" fill-rule="nonzero" fill-opacity="1" /><path clip-path="url(#clip770)" d="M2252.86 1224.95 L2257.74 1224.95 L2257.74 1230.83 L2252.86 1230.83 L2252.86 1224.95 Z" fill="#000000" fill-rule="nonzero" fill-opacity="1" /><path clip-path="url(#clip770)" d="M1968.64 1250.88 L1945.88 1273.64 L1968.64 1296.39 L1991.39 1273.64 L1968.64 1250.88 Z" fill="#6badd5" fill-rule="evenodd" fill-opacity="1" stroke="#000000" stroke-opacity="1" stroke-width="4.55111"/>
<path clip-path="url(#clip770)" d="M2095.07 1250.36 Q2095.07 1250.8 2094.97 1251.18 L2093.66 1259.52 Q2093.59 1260.15 2093.45 1260.38 Q2093.34 1260.62 2092.96 1260.62 Q2092.37 1260.62 2092.37 1260.01 Q2092.37 1259.66 2092.52 1259.1 Q2092.91 1256.45 2092.91 1255.25 Q2092.91 1254.46 2092.75 1253.87 Q2092.61 1253.26 2092.37 1252.84 Q2092.16 1252.42 2091.67 1252.14 Q2091.18 1251.86 2090.71 1251.69 Q2090.24 1251.53 2089.4 1251.46 Q2088.56 1251.37 2087.83 1251.34 Q2087.1 1251.32 2085.91 1251.32 Q2083.31 1251.32 2082.89 1251.41 Q2082.44 1251.53 2082.21 1251.88 Q2082 1252.21 2081.76 1253.19 L2075.39 1278.65 L2075.21 1279.66 Q2075.21 1280.22 2075.56 1280.41 Q2075.91 1280.6 2076.99 1280.71 Q2078.53 1280.83 2080.05 1280.83 Q2080.1 1280.83 2080.2 1280.83 Q2080.71 1280.83 2080.92 1280.86 Q2081.13 1280.86 2081.34 1280.9 Q2081.55 1280.95 2081.6 1281.07 Q2081.67 1281.16 2081.67 1281.35 Q2081.67 1281.79 2081.48 1282.03 Q2081.3 1282.24 2081.11 1282.28 Q2080.94 1282.31 2080.62 1282.31 Q2079.96 1282.31 2078.56 1282.26 Q2077.15 1282.21 2076.45 1282.21 L2072.47 1282.17 L2068.39 1282.21 Q2067.76 1282.21 2066.42 1282.26 Q2065.09 1282.31 2064.46 1282.31 Q2063.64 1282.31 2063.64 1281.72 Q2063.64 1281.07 2063.94 1280.95 Q2064.27 1280.83 2065.65 1280.83 Q2067.59 1280.83 2068.65 1280.74 Q2069.7 1280.64 2070.26 1280.32 Q2070.85 1279.99 2071.01 1279.66 Q2071.18 1279.31 2071.36 1278.51 L2077.81 1252.91 Q2077.99 1252.35 2077.99 1251.91 Q2077.99 1251.67 2077.92 1251.58 Q2077.88 1251.48 2077.57 1251.41 Q2077.27 1251.32 2076.63 1251.32 L2074.76 1251.32 Q2072.84 1251.32 2071.65 1251.41 Q2070.47 1251.48 2069.35 1251.83 Q2068.25 1252.19 2067.59 1252.68 Q2066.96 1253.17 2066.26 1254.18 Q2065.56 1255.18 2065.04 1256.4 Q2064.55 1257.62 2063.85 1259.61 Q2063.61 1260.27 2063.47 1260.45 Q2063.35 1260.62 2063.03 1260.62 Q2062.79 1260.62 2062.6 1260.48 Q2062.44 1260.31 2062.44 1260.1 Q2062.68 1259.33 2062.72 1259.24 L2065.6 1250.78 Q2065.84 1250.1 2066.05 1249.98 Q2066.28 1249.84 2067.15 1249.84 L2093.76 1249.84 Q2094.18 1249.84 2094.32 1249.84 Q2094.46 1249.84 2094.69 1249.89 Q2094.93 1249.94 2095 1250.05 Q2095.07 1250.17 2095.07 1250.36 Z" fill="#000000" fill-rule="nonzero" fill-opacity="1" /><path clip-path="url(#clip770)" d="M2099.86 1282.94 L2099.86 1281.89 L2102.5 1281.89 L2102.5 1278.04 Q2102.5 1275.55 2104.1 1274.12 Q2105.73 1272.7 2107.71 1272.7 Q2109.02 1272.7 2109.88 1273.4 Q2110.73 1274.11 2110.73 1275.06 Q2110.73 1275.7 2110.33 1276.12 Q2109.96 1276.53 2109.25 1276.53 Q2108.58 1276.53 2108.19 1276.11 Q2107.81 1275.68 2107.81 1275.09 Q2107.81 1274.01 2108.81 1273.68 Q2108.3 1273.45 2107.71 1273.43 Q2106.5 1273.43 2105.55 1274.68 Q2104.61 1275.93 2104.61 1278.01 L2104.61 1281.89 L2108.55 1281.89 L2108.55 1282.94 L2104.73 1282.94 L2104.73 1293.75 Q2104.73 1294.71 2105.12 1295.03 Q2105.53 1295.34 2107.27 1295.34 L2107.97 1295.34 L2107.97 1296.37 Q2106.63 1296.27 2103.71 1296.27 Q2103.3 1296.27 2102.66 1296.29 Q2102.04 1296.31 2101.19 1296.34 Q2100.35 1296.37 2099.89 1296.37 L2099.89 1295.34 Q2101.68 1295.34 2102.09 1295.12 Q2102.5 1294.9 2102.5 1293.81 L2102.5 1282.94 L2099.86 1282.94 Z" fill="#000000" fill-rule="nonzero" fill-opacity="1" /><path clip-path="url(#clip770)" d="M2113.08 1291.85 Q2113.08 1290.85 2113.65 1290.37 Q2114.23 1289.89 2114.97 1289.89 Q2115.74 1289.89 2116.28 1290.4 Q2116.83 1290.89 2116.83 1291.76 Q2116.83 1292.7 2116.18 1293.22 Q2115.54 1293.75 2114.62 1293.62 Q2115.42 1294.96 2116.9 1295.57 Q2118.39 1296.17 2119.77 1296.17 Q2121.21 1296.17 2122.38 1294.93 Q2123.56 1293.68 2123.56 1290.63 Q2123.56 1288.04 2122.54 1286.55 Q2121.54 1285.06 2119.56 1285.06 L2118.08 1285.06 Q2117.57 1285.06 2117.42 1285.01 Q2117.28 1284.96 2117.28 1284.68 Q2117.28 1284.35 2117.79 1284.29 Q2118.29 1284.29 2119.1 1284.19 Q2121.05 1284.12 2122.08 1282.43 Q2123.02 1280.86 2123.02 1278.61 Q2123.02 1276.56 2122.03 1275.71 Q2121.06 1274.84 2119.8 1274.84 Q2118.62 1274.84 2117.33 1275.34 Q2116.03 1275.83 2115.33 1276.93 Q2117.41 1276.93 2117.41 1278.61 Q2117.41 1279.35 2116.93 1279.84 Q2116.47 1280.32 2115.7 1280.32 Q2114.97 1280.32 2114.47 1279.86 Q2113.98 1279.38 2113.98 1278.58 Q2113.98 1276.66 2115.69 1275.34 Q2117.41 1274.01 2119.93 1274.01 Q2122.43 1274.01 2124.26 1275.32 Q2126.11 1276.63 2126.11 1278.65 Q2126.11 1280.63 2124.8 1282.25 Q2123.49 1283.88 2121.41 1284.55 Q2123.97 1285.06 2125.49 1286.8 Q2127.02 1288.52 2127.02 1290.63 Q2127.02 1293.26 2124.95 1295.19 Q2122.88 1297.11 2119.87 1297.11 Q2117.08 1297.11 2115.08 1295.6 Q2113.08 1294.09 2113.08 1291.85 Z" fill="#000000" fill-rule="nonzero" fill-opacity="1" /><path clip-path="url(#clip770)" d="M2136.72 1276.43 L2141.61 1276.43 L2141.61 1280.41 L2137.81 1287.82 L2134.82 1287.82 L2136.72 1280.41 L2136.72 1276.43 Z" fill="#000000" fill-rule="nonzero" fill-opacity="1" /><path clip-path="url(#clip770)" d="M2187.95 1268.28 L2187.95 1270.36 L2168.37 1270.36 Q2168.64 1274.76 2171.01 1277.08 Q2173.39 1279.37 2177.63 1279.37 Q2180.08 1279.37 2182.37 1278.77 Q2184.69 1278.16 2186.95 1276.96 L2186.95 1280.99 Q2184.66 1281.96 2182.26 1282.47 Q2179.85 1282.98 2177.37 1282.98 Q2171.17 1282.98 2167.53 1279.37 Q2163.92 1275.76 2163.92 1269.6 Q2163.92 1263.23 2167.35 1259.51 Q2170.8 1255.76 2176.63 1255.76 Q2181.86 1255.76 2184.89 1259.14 Q2187.95 1262.49 2187.95 1268.28 M2183.69 1267.03 Q2183.64 1263.53 2181.72 1261.45 Q2179.82 1259.37 2176.68 1259.37 Q2173.11 1259.37 2170.96 1261.38 Q2168.83 1263.4 2168.51 1267.05 L2183.69 1267.03 Z" fill="#000000" fill-rule="nonzero" fill-opacity="1" /><path clip-path="url(#clip770)" d="M2215.66 1256.38 L2206.28 1269 L2216.14 1282.31 L2211.12 1282.31 L2203.57 1272.12 L2196.03 1282.31 L2191.01 1282.31 L2201.07 1268.74 L2191.86 1256.38 L2196.88 1256.38 L2203.76 1265.62 L2210.63 1256.38 L2215.66 1256.38 Z" fill="#000000" fill-rule="nonzero" fill-opacity="1" /><path clip-path="url(#clip770)" d="M2226.28 1278.42 L2226.28 1292.17 L2222 1292.17 L2222 1256.38 L2226.28 1256.38 L2226.28 1260.32 Q2227.63 1258 2229.66 1256.89 Q2231.72 1255.76 2234.57 1255.76 Q2239.29 1255.76 2242.23 1259.51 Q2245.19 1263.26 2245.19 1269.37 Q2245.19 1275.48 2242.23 1279.23 Q2239.29 1282.98 2234.57 1282.98 Q2231.72 1282.98 2229.66 1281.87 Q2227.63 1280.73 2226.28 1278.42 M2240.77 1269.37 Q2240.77 1264.67 2238.83 1262.01 Q2236.91 1259.32 2233.53 1259.32 Q2230.15 1259.32 2228.2 1262.01 Q2226.28 1264.67 2226.28 1269.37 Q2226.28 1274.07 2228.2 1276.75 Q2230.15 1279.41 2233.53 1279.41 Q2236.91 1279.41 2238.83 1276.75 Q2240.77 1274.07 2240.77 1269.37 Z" fill="#000000" fill-rule="nonzero" fill-opacity="1" /><path clip-path="url(#clip770)" d="M2252.86 1276.43 L2257.74 1276.43 L2257.74 1282.31 L2252.86 1282.31 L2252.86 1276.43 Z" fill="#000000" fill-rule="nonzero" fill-opacity="1" /><polyline clip-path="url(#clip770)" style="stroke:#000000; stroke-linecap:round; stroke-linejoin:round; stroke-width:4; stroke-opacity:1; fill:none" points="1898.28,1325.48 2038.99,1325.48 "/>
<path clip-path="url(#clip770)" d="M2095.07 1302.49 Q2095.07 1302.94 2094.97 1303.31 L2093.66 1311.65 Q2093.59 1312.28 2093.45 1312.52 Q2093.34 1312.75 2092.96 1312.75 Q2092.37 1312.75 2092.37 1312.14 Q2092.37 1311.79 2092.52 1311.23 Q2092.91 1308.58 2092.91 1307.39 Q2092.91 1306.59 2092.75 1306 Q2092.61 1305.4 2092.37 1304.97 Q2092.16 1304.55 2091.67 1304.27 Q2091.18 1303.99 2090.71 1303.83 Q2090.24 1303.66 2089.4 1303.59 Q2088.56 1303.5 2087.83 1303.48 Q2087.1 1303.45 2085.91 1303.45 Q2083.31 1303.45 2082.89 1303.55 Q2082.44 1303.66 2082.21 1304.01 Q2082 1304.34 2081.76 1305.33 L2075.39 1330.79 L2075.21 1331.79 Q2075.21 1332.35 2075.56 1332.54 Q2075.91 1332.73 2076.99 1332.85 Q2078.53 1332.96 2080.05 1332.96 Q2080.1 1332.96 2080.2 1332.96 Q2080.71 1332.96 2080.92 1332.99 Q2081.13 1332.99 2081.34 1333.03 Q2081.55 1333.08 2081.6 1333.2 Q2081.67 1333.29 2081.67 1333.48 Q2081.67 1333.92 2081.48 1334.16 Q2081.3 1334.37 2081.11 1334.42 Q2080.94 1334.44 2080.62 1334.44 Q2079.96 1334.44 2078.56 1334.39 Q2077.15 1334.35 2076.45 1334.35 L2072.47 1334.3 L2068.39 1334.35 Q2067.76 1334.35 2066.42 1334.39 Q2065.09 1334.44 2064.46 1334.44 Q2063.64 1334.44 2063.64 1333.85 Q2063.64 1333.2 2063.94 1333.08 Q2064.27 1332.96 2065.65 1332.96 Q2067.59 1332.96 2068.65 1332.87 Q2069.7 1332.78 2070.26 1332.45 Q2070.85 1332.12 2071.01 1331.79 Q2071.18 1331.44 2071.36 1330.65 L2077.81 1305.04 Q2077.99 1304.48 2077.99 1304.04 Q2077.99 1303.8 2077.92 1303.71 Q2077.88 1303.62 2077.57 1303.55 Q2077.27 1303.45 2076.63 1303.45 L2074.76 1303.45 Q2072.84 1303.45 2071.65 1303.55 Q2070.47 1303.62 2069.35 1303.97 Q2068.25 1304.32 2067.59 1304.81 Q2066.96 1305.3 2066.26 1306.31 Q2065.56 1307.32 2065.04 1308.53 Q2064.55 1309.75 2063.85 1311.74 Q2063.61 1312.4 2063.47 1312.59 Q2063.35 1312.75 2063.03 1312.75 Q2062.79 1312.75 2062.6 1312.61 Q2062.44 1312.45 2062.44 1312.24 Q2062.68 1311.46 2062.72 1311.37 L2065.6 1302.91 Q2065.84 1302.23 2066.05 1302.12 Q2066.28 1301.98 2067.15 1301.98 L2093.76 1301.98 Q2094.18 1301.98 2094.32 1301.98 Q2094.46 1301.98 2094.69 1302.02 Q2094.93 1302.07 2095 1302.19 Q2095.07 1302.3 2095.07 1302.49 Z" fill="#000000" fill-rule="nonzero" fill-opacity="1" /><path clip-path="url(#clip770)" d="M2112.22 1336.33 Q2112.22 1337.25 2111.76 1337.74 Q2111.3 1338.21 2110.68 1338.21 Q2110.17 1338.21 2109.89 1337.92 Q2109.63 1337.62 2109.63 1337.23 Q2109.63 1336.66 2110.09 1336.2 Q2110.56 1335.74 2111.25 1335.72 Q2111.02 1335.11 2110.42 1334.75 Q2109.81 1334.38 2109.27 1334.28 Q2108.74 1334.18 2108.22 1334.18 Q2107.19 1334.18 2106.4 1334.51 Q2105.61 1334.84 2105.22 1335.34 Q2104.83 1335.84 2104.65 1336.31 Q2104.47 1336.79 2104.47 1337.2 Q2104.47 1337.56 2104.55 1337.85 Q2104.65 1338.13 2104.87 1338.34 Q2105.1 1338.54 2105.27 1338.67 Q2105.45 1338.8 2105.84 1338.92 Q2106.24 1339.03 2106.4 1339.08 Q2106.56 1339.11 2107.02 1339.21 Q2107.97 1339.41 2108.4 1339.52 Q2108.83 1339.62 2109.38 1339.9 Q2109.96 1340.18 2110.38 1340.62 Q2111.42 1341.66 2111.42 1343.08 Q2111.42 1343.61 2111.24 1344.25 Q2111.07 1344.89 2110.6 1345.69 Q2110.12 1346.49 2109.4 1347.13 Q2108.68 1347.77 2107.43 1348.21 Q2106.2 1348.66 2104.66 1348.66 Q2102.51 1348.66 2101.19 1347.76 Q2099.86 1346.84 2099.86 1345.39 Q2099.86 1344.34 2100.43 1343.77 Q2101.01 1343.18 2101.74 1343.18 Q2102.3 1343.18 2102.65 1343.49 Q2102.99 1343.79 2102.99 1344.34 Q2102.99 1345.1 2102.38 1345.67 Q2101.78 1346.25 2100.87 1346.13 Q2101.64 1347.9 2104.69 1347.9 Q2105.84 1347.9 2106.73 1347.61 Q2107.63 1347.3 2108.12 1346.87 Q2108.63 1346.43 2108.96 1345.89 Q2109.29 1345.35 2109.38 1344.94 Q2109.5 1344.53 2109.5 1344.21 Q2109.5 1343.67 2109.29 1343.26 Q2109.07 1342.85 2108.78 1342.62 Q2108.5 1342.38 2107.96 1342.18 Q2107.43 1341.97 2107.06 1341.89 Q2106.68 1341.8 2106.01 1341.67 Q2105.69 1341.61 2105.5 1341.57 Q2105.3 1341.52 2104.89 1341.39 Q2104.5 1341.25 2104.22 1341.1 Q2103.96 1340.95 2103.61 1340.69 Q2103.27 1340.43 2103.06 1340.11 Q2102.84 1339.8 2102.69 1339.34 Q2102.55 1338.89 2102.55 1338.34 Q2102.55 1337.85 2102.69 1337.26 Q2102.86 1336.67 2103.27 1335.98 Q2103.69 1335.29 2104.3 1334.74 Q2104.91 1334.18 2105.92 1333.82 Q2106.96 1333.44 2108.22 1333.44 Q2110.06 1333.44 2111.14 1334.29 Q2112.22 1335.13 2112.22 1336.33 Z" fill="#000000" fill-rule="nonzero" fill-opacity="1" /><path clip-path="url(#clip770)" d="M2131.79 1343.48 Q2131.79 1343.61 2131.64 1344.12 Q2131.49 1344.62 2131.13 1345.41 Q2130.79 1346.2 2130.31 1346.92 Q2129.84 1347.62 2129.05 1348.15 Q2128.28 1348.66 2127.39 1348.66 Q2126.21 1348.66 2125.43 1347.87 Q2124.64 1347.08 2124.64 1345.9 Q2124.64 1345.74 2124.65 1345.57 Q2124.67 1345.41 2124.69 1345.31 Q2124.7 1345.2 2124.75 1345.02 Q2124.82 1344.82 2124.84 1344.74 Q2124.87 1344.66 2124.95 1344.41 Q2125.05 1344.15 2125.08 1344.05 Q2127.16 1338.74 2127.16 1336.52 Q2127.16 1334.18 2125.34 1334.18 Q2123.72 1334.18 2122.11 1335.36 Q2121.38 1335.95 2120.67 1337 Q2119.97 1338.05 2119.83 1338.44 Q2119.69 1339.29 2119.47 1339.95 Q2119.38 1340.41 2118.9 1342.2 L2118.16 1345.23 L2117.52 1347.77 Q2117.39 1348.13 2117.03 1348.39 Q2116.67 1348.66 2116.28 1348.66 Q2115.95 1348.66 2115.62 1348.43 Q2115.31 1348.21 2115.31 1347.71 Q2115.31 1347.44 2115.44 1346.97 L2120.31 1327.62 L2120.41 1326.97 Q2120.41 1326.77 2120.33 1326.67 Q2120.26 1326.56 2119.87 1326.47 Q2119.49 1326.39 2118.74 1326.39 Q2118.42 1326.39 2118.28 1326.38 Q2118.15 1326.36 2118.03 1326.28 Q2117.92 1326.18 2117.92 1325.98 Q2117.92 1325.7 2118.03 1325.56 Q2118.16 1325.39 2118.26 1325.36 Q2118.36 1325.33 2118.56 1325.31 Q2118.83 1325.29 2119.77 1325.21 Q2120.7 1325.11 2121.51 1325.05 Q2122.31 1324.98 2122.65 1324.98 Q2122.85 1324.98 2122.95 1325.08 Q2123.06 1325.16 2123.08 1325.26 L2123.1 1325.34 L2120.47 1336.02 Q2122.56 1333.44 2125.44 1333.44 Q2127.31 1333.44 2128.31 1334.41 Q2129.31 1335.36 2129.31 1337.03 Q2129.31 1338.95 2127.26 1344.41 Q2126.66 1345.94 2126.66 1346.8 Q2126.66 1347.38 2126.84 1347.64 Q2127.03 1347.9 2127.46 1347.9 Q2128.11 1347.9 2128.69 1347.53 Q2129.28 1347.13 2129.69 1346.49 Q2130.1 1345.84 2130.38 1345.18 Q2130.67 1344.51 2130.89 1343.75 Q2131.02 1343.34 2131.08 1343.25 Q2131.16 1343.15 2131.39 1343.15 Q2131.79 1343.15 2131.79 1343.48 Z" fill="#000000" fill-rule="nonzero" fill-opacity="1" /></svg>
