<?xml version="1.0" encoding="utf-8"?>
<svg xmlns="http://www.w3.org/2000/svg" xmlns:xlink="http://www.w3.org/1999/xlink" width="600" height="400" viewBox="0 0 2400 1600">
<defs>
  <clipPath id="clip660">
    <rect x="0" y="0" width="2400" height="1600"/>
  </clipPath>
</defs>
<path clip-path="url(#clip660)" d="M0 1600 L2400 1600 L2400 0 L0 0  Z" fill="#ffffff" fill-rule="evenodd" fill-opacity="1"/>
<defs>
  <clipPath id="clip661">
    <rect x="480" y="0" width="1681" height="1600"/>
  </clipPath>
</defs>
<path clip-path="url(#clip660)" d="M287.366 1423.18 L2352.76 1423.18 L2352.76 47.2441 L287.366 47.2441  Z" fill="#ffffff" fill-rule="evenodd" fill-opacity="1"/>
<defs>
  <clipPath id="clip662">
    <rect x="287" y="47" width="2066" height="1377"/>
  </clipPath>
</defs>
<polyline clip-path="url(#clip662)" style="stroke:#000000; stroke-linecap:round; stroke-linejoin:round; stroke-width:2; stroke-opacity:0.1; fill:none" points="345.82,1423.18 345.82,47.2441 "/>
<polyline clip-path="url(#clip662)" style="stroke:#000000; stroke-linecap:round; stroke-linejoin:round; stroke-width:2; stroke-opacity:0.1; fill:none" points="960.99,1423.18 960.99,47.2441 "/>
<polyline clip-path="url(#clip662)" style="stroke:#000000; stroke-linecap:round; stroke-linejoin:round; stroke-width:2; stroke-opacity:0.1; fill:none" points="1576.16,1423.18 1576.16,47.2441 "/>
<polyline clip-path="url(#clip662)" style="stroke:#000000; stroke-linecap:round; stroke-linejoin:round; stroke-width:2; stroke-opacity:0.1; fill:none" points="2191.33,1423.18 2191.33,47.2441 "/>
<polyline clip-path="url(#clip662)" style="stroke:#000000; stroke-linecap:round; stroke-linejoin:round; stroke-width:2; stroke-opacity:0.1; fill:none" points="287.366,1384.24 2352.76,1384.24 "/>
<polyline clip-path="url(#clip662)" style="stroke:#000000; stroke-linecap:round; stroke-linejoin:round; stroke-width:2; stroke-opacity:0.1; fill:none" points="287.366,1154.09 2352.76,1154.09 "/>
<polyline clip-path="url(#clip662)" style="stroke:#000000; stroke-linecap:round; stroke-linejoin:round; stroke-width:2; stroke-opacity:0.1; fill:none" points="287.366,923.936 2352.76,923.936 "/>
<polyline clip-path="url(#clip662)" style="stroke:#000000; stroke-linecap:round; stroke-linejoin:round; stroke-width:2; stroke-opacity:0.1; fill:none" points="287.366,693.785 2352.76,693.785 "/>
<polyline clip-path="url(#clip662)" style="stroke:#000000; stroke-linecap:round; stroke-linejoin:round; stroke-width:2; stroke-opacity:0.1; fill:none" points="287.366,463.634 2352.76,463.634 "/>
<polyline clip-path="url(#clip662)" style="stroke:#000000; stroke-linecap:round; stroke-linejoin:round; stroke-width:2; stroke-opacity:0.1; fill:none" points="287.366,233.482 2352.76,233.482 "/>
<polyline clip-path="url(#clip660)" style="stroke:#000000; stroke-linecap:round; stroke-linejoin:round; stroke-width:4; stroke-opacity:1; fill:none" points="287.366,1423.18 2352.76,1423.18 "/>
<polyline clip-path="url(#clip660)" style="stroke:#000000; stroke-linecap:round; stroke-linejoin:round; stroke-width:4; stroke-opacity:1; fill:none" points="345.82,1423.18 345.82,1404.28 "/>
<polyline clip-path="url(#clip660)" style="stroke:#000000; stroke-linecap:round; stroke-linejoin:round; stroke-width:4; stroke-opacity:1; fill:none" points="960.99,1423.18 960.99,1404.28 "/>
<polyline clip-path="url(#clip660)" style="stroke:#000000; stroke-linecap:round; stroke-linejoin:round; stroke-width:4; stroke-opacity:1; fill:none" points="1576.16,1423.18 1576.16,1404.28 "/>
<polyline clip-path="url(#clip660)" style="stroke:#000000; stroke-linecap:round; stroke-linejoin:round; stroke-width:4; stroke-opacity:1; fill:none" points="2191.33,1423.18 2191.33,1404.28 "/>
<path clip-path="url(#clip660)" d="M345.82 1454.1 Q342.209 1454.1 340.381 1457.66 Q338.575 1461.2 338.575 1468.33 Q338.575 1475.44 340.381 1479.01 Q342.209 1482.55 345.82 1482.55 Q349.455 1482.55 351.26 1479.01 Q353.089 1475.44 353.089 1468.33 Q353.089 1461.2 351.26 1457.66 Q349.455 1454.1 345.82 1454.1 M345.82 1450.39 Q351.63 1450.39 354.686 1455 Q357.765 1459.58 357.765 1468.33 Q357.765 1477.06 354.686 1481.67 Q351.63 1486.25 345.82 1486.25 Q340.01 1486.25 336.931 1481.67 Q333.876 1477.06 333.876 1468.33 Q333.876 1459.58 336.931 1455 Q340.01 1450.39 345.82 1450.39 Z" fill="#000000" fill-rule="nonzero" fill-opacity="1" /><path clip-path="url(#clip660)" d="M951.268 1451.02 L969.624 1451.02 L969.624 1454.96 L955.55 1454.96 L955.55 1463.43 Q956.569 1463.08 957.587 1462.92 Q958.606 1462.73 959.624 1462.73 Q965.411 1462.73 968.791 1465.9 Q972.17 1469.08 972.17 1474.49 Q972.17 1480.07 968.698 1483.17 Q965.226 1486.25 958.907 1486.25 Q956.731 1486.25 954.462 1485.88 Q952.217 1485.51 949.809 1484.77 L949.809 1480.07 Q951.893 1481.2 954.115 1481.76 Q956.337 1482.32 958.814 1482.32 Q962.819 1482.32 965.157 1480.21 Q967.494 1478.1 967.494 1474.49 Q967.494 1470.88 965.157 1468.77 Q962.819 1466.67 958.814 1466.67 Q956.939 1466.67 955.064 1467.08 Q953.212 1467.5 951.268 1468.38 L951.268 1451.02 Z" fill="#000000" fill-rule="nonzero" fill-opacity="1" /><path clip-path="url(#clip660)" d="M1550.85 1481.64 L1558.49 1481.64 L1558.49 1455.28 L1550.18 1456.95 L1550.18 1452.69 L1558.44 1451.02 L1563.12 1451.02 L1563.12 1481.64 L1570.75 1481.64 L1570.75 1485.58 L1550.85 1485.58 L1550.85 1481.64 Z" fill="#000000" fill-rule="nonzero" fill-opacity="1" /><path clip-path="url(#clip660)" d="M1590.2 1454.1 Q1586.59 1454.1 1584.76 1457.66 Q1582.95 1461.2 1582.95 1468.33 Q1582.95 1475.44 1584.76 1479.01 Q1586.59 1482.55 1590.2 1482.55 Q1593.83 1482.55 1595.64 1479.01 Q1597.47 1475.44 1597.47 1468.33 Q1597.47 1461.2 1595.64 1457.66 Q1593.83 1454.1 1590.2 1454.1 M1590.2 1450.39 Q1596.01 1450.39 1599.06 1455 Q1602.14 1459.58 1602.14 1468.33 Q1602.14 1477.06 1599.06 1481.67 Q1596.01 1486.25 1590.2 1486.25 Q1584.39 1486.25 1581.31 1481.67 Q1578.25 1477.06 1578.25 1468.33 Q1578.25 1459.58 1581.31 1455 Q1584.39 1450.39 1590.2 1450.39 Z" fill="#000000" fill-rule="nonzero" fill-opacity="1" /><path clip-path="url(#clip660)" d="M2166.51 1481.64 L2174.15 1481.64 L2174.15 1455.28 L2165.84 1456.95 L2165.84 1452.69 L2174.11 1451.02 L2178.78 1451.02 L2178.78 1481.64 L2186.42 1481.64 L2186.42 1485.58 L2166.51 1485.58 L2166.51 1481.64 Z" fill="#000000" fill-rule="nonzero" fill-opacity="1" /><path clip-path="url(#clip660)" d="M2195.91 1451.02 L2214.27 1451.02 L2214.27 1454.96 L2200.19 1454.96 L2200.19 1463.43 Q2201.21 1463.08 2202.23 1462.92 Q2203.25 1462.73 2204.27 1462.73 Q2210.06 1462.73 2213.44 1465.9 Q2216.81 1469.08 2216.81 1474.49 Q2216.81 1480.07 2213.34 1483.17 Q2209.87 1486.25 2203.55 1486.25 Q2201.38 1486.25 2199.11 1485.88 Q2196.86 1485.51 2194.45 1484.77 L2194.45 1480.07 Q2196.54 1481.2 2198.76 1481.76 Q2200.98 1482.32 2203.46 1482.32 Q2207.46 1482.32 2209.8 1480.21 Q2212.14 1478.1 2212.14 1474.49 Q2212.14 1470.88 2209.8 1468.77 Q2207.46 1466.67 2203.46 1466.67 Q2201.58 1466.67 2199.71 1467.08 Q2197.86 1467.5 2195.91 1468.38 L2195.91 1451.02 Z" fill="#000000" fill-rule="nonzero" fill-opacity="1" /><path clip-path="url(#clip660)" d="M1318.82 1546.53 L1318.82 1568.04 L1312.96 1568.04 L1312.96 1546.72 Q1312.96 1541.66 1310.99 1539.14 Q1309.02 1536.63 1305.07 1536.63 Q1300.33 1536.63 1297.59 1539.65 Q1294.85 1542.68 1294.85 1547.9 L1294.85 1568.04 L1288.96 1568.04 L1288.96 1518.52 L1294.85 1518.52 L1294.85 1537.93 Q1296.95 1534.72 1299.79 1533.13 Q1302.65 1531.54 1306.37 1531.54 Q1312.52 1531.54 1315.67 1535.36 Q1318.82 1539.14 1318.82 1546.53 Z" fill="#000000" fill-rule="nonzero" fill-opacity="1" /><path clip-path="url(#clip660)" d="M1351.16 1537.87 Q1350.17 1537.3 1348.99 1537.04 Q1347.85 1536.76 1346.45 1536.76 Q1341.48 1536.76 1338.81 1540 Q1336.17 1543.22 1336.17 1549.27 L1336.17 1568.04 L1330.28 1568.04 L1330.28 1532.4 L1336.17 1532.4 L1336.17 1537.93 Q1338.01 1534.69 1340.97 1533.13 Q1343.93 1531.54 1348.17 1531.54 Q1348.77 1531.54 1349.5 1531.63 Q1350.23 1531.7 1351.13 1531.85 L1351.16 1537.87 Z" fill="#000000" fill-rule="nonzero" fill-opacity="1" /><polyline clip-path="url(#clip660)" style="stroke:#000000; stroke-linecap:round; stroke-linejoin:round; stroke-width:4; stroke-opacity:1; fill:none" points="287.366,1423.18 287.366,47.2441 "/>
<polyline clip-path="url(#clip660)" style="stroke:#000000; stroke-linecap:round; stroke-linejoin:round; stroke-width:4; stroke-opacity:1; fill:none" points="287.366,1384.24 306.264,1384.24 "/>
<polyline clip-path="url(#clip660)" style="stroke:#000000; stroke-linecap:round; stroke-linejoin:round; stroke-width:4; stroke-opacity:1; fill:none" points="287.366,1154.09 306.264,1154.09 "/>
<polyline clip-path="url(#clip660)" style="stroke:#000000; stroke-linecap:round; stroke-linejoin:round; stroke-width:4; stroke-opacity:1; fill:none" points="287.366,923.936 306.264,923.936 "/>
<polyline clip-path="url(#clip660)" style="stroke:#000000; stroke-linecap:round; stroke-linejoin:round; stroke-width:4; stroke-opacity:1; fill:none" points="287.366,693.785 306.264,693.785 "/>
<polyline clip-path="url(#clip660)" style="stroke:#000000; stroke-linecap:round; stroke-linejoin:round; stroke-width:4; stroke-opacity:1; fill:none" points="287.366,463.634 306.264,463.634 "/>
<polyline clip-path="url(#clip660)" style="stroke:#000000; stroke-linecap:round; stroke-linejoin:round; stroke-width:4; stroke-opacity:1; fill:none" points="287.366,233.482 306.264,233.482 "/>
<path clip-path="url(#clip660)" d="M114.26 1384.69 L143.936 1384.69 L143.936 1388.62 L114.26 1388.62 L114.26 1384.69 Z" fill="#000000" fill-rule="nonzero" fill-opacity="1" /><path clip-path="url(#clip660)" d="M166.876 1371.03 L155.07 1389.48 L166.876 1389.48 L166.876 1371.03 M165.649 1366.96 L171.528 1366.96 L171.528 1389.48 L176.459 1389.48 L176.459 1393.37 L171.528 1393.37 L171.528 1401.52 L166.876 1401.52 L166.876 1393.37 L151.274 1393.37 L151.274 1388.86 L165.649 1366.96 Z" fill="#000000" fill-rule="nonzero" fill-opacity="1" /><path clip-path="url(#clip660)" d="M194.19 1370.04 Q190.579 1370.04 188.75 1373.6 Q186.945 1377.14 186.945 1384.27 Q186.945 1391.38 188.75 1394.94 Q190.579 1398.49 194.19 1398.49 Q197.825 1398.49 199.63 1394.94 Q201.459 1391.38 201.459 1384.27 Q201.459 1377.14 199.63 1373.6 Q197.825 1370.04 194.19 1370.04 M194.19 1366.33 Q200 1366.33 203.056 1370.94 Q206.135 1375.52 206.135 1384.27 Q206.135 1393 203.056 1397.61 Q200 1402.19 194.19 1402.19 Q188.38 1402.19 185.301 1397.61 Q182.246 1393 182.246 1384.27 Q182.246 1375.52 185.301 1370.94 Q188.38 1366.33 194.19 1366.33 Z" fill="#000000" fill-rule="nonzero" fill-opacity="1" /><path clip-path="url(#clip660)" d="M214.352 1395.64 L219.236 1395.64 L219.236 1401.52 L214.352 1401.52 L214.352 1395.64 Z" fill="#000000" fill-rule="nonzero" fill-opacity="1" /><path clip-path="url(#clip660)" d="M239.422 1370.04 Q235.81 1370.04 233.982 1373.6 Q232.176 1377.14 232.176 1384.27 Q232.176 1391.38 233.982 1394.94 Q235.81 1398.49 239.422 1398.49 Q243.056 1398.49 244.861 1394.94 Q246.69 1391.38 246.69 1384.27 Q246.69 1377.14 244.861 1373.6 Q243.056 1370.04 239.422 1370.04 M239.422 1366.33 Q245.232 1366.33 248.287 1370.94 Q251.366 1375.52 251.366 1384.27 Q251.366 1393 248.287 1397.61 Q245.232 1402.19 239.422 1402.19 Q233.611 1402.19 230.533 1397.61 Q227.477 1393 227.477 1384.27 Q227.477 1375.52 230.533 1370.94 Q233.611 1366.33 239.422 1366.33 Z" fill="#000000" fill-rule="nonzero" fill-opacity="1" /><path clip-path="url(#clip660)" d="M115.256 1154.54 L144.931 1154.54 L144.931 1158.47 L115.256 1158.47 L115.256 1154.54 Z" fill="#000000" fill-rule="nonzero" fill-opacity="1" /><path clip-path="url(#clip660)" d="M169.19 1152.73 Q172.547 1153.45 174.422 1155.72 Q176.32 1157.99 176.32 1161.32 Q176.32 1166.44 172.802 1169.24 Q169.283 1172.04 162.802 1172.04 Q160.626 1172.04 158.311 1171.6 Q156.019 1171.18 153.566 1170.33 L153.566 1165.81 Q155.51 1166.95 157.825 1167.52 Q160.14 1168.1 162.663 1168.1 Q167.061 1168.1 169.352 1166.37 Q171.667 1164.63 171.667 1161.32 Q171.667 1158.27 169.514 1156.55 Q167.385 1154.82 163.565 1154.82 L159.538 1154.82 L159.538 1150.97 L163.751 1150.97 Q167.2 1150.97 169.028 1149.61 Q170.857 1148.22 170.857 1145.63 Q170.857 1142.96 168.959 1141.55 Q167.084 1140.12 163.565 1140.12 Q161.644 1140.12 159.445 1140.53 Q157.246 1140.95 154.607 1141.83 L154.607 1137.66 Q157.269 1136.92 159.584 1136.55 Q161.922 1136.18 163.982 1136.18 Q169.306 1136.18 172.408 1138.61 Q175.51 1141.02 175.51 1145.14 Q175.51 1148.01 173.866 1150 Q172.223 1151.97 169.19 1152.73 Z" fill="#000000" fill-rule="nonzero" fill-opacity="1" /><path clip-path="url(#clip660)" d="M184.005 1136.81 L206.227 1136.81 L206.227 1138.8 L193.681 1171.37 L188.797 1171.37 L200.602 1140.74 L184.005 1140.74 L184.005 1136.81 Z" fill="#000000" fill-rule="nonzero" fill-opacity="1" /><path clip-path="url(#clip660)" d="M215.348 1165.49 L220.232 1165.49 L220.232 1171.37 L215.348 1171.37 L215.348 1165.49 Z" fill="#000000" fill-rule="nonzero" fill-opacity="1" /><path clip-path="url(#clip660)" d="M230.463 1136.81 L248.82 1136.81 L248.82 1140.74 L234.746 1140.74 L234.746 1149.21 Q235.764 1148.87 236.783 1148.71 Q237.801 1148.52 238.82 1148.52 Q244.607 1148.52 247.986 1151.69 Q251.366 1154.86 251.366 1160.28 Q251.366 1165.86 247.894 1168.96 Q244.421 1172.04 238.102 1172.04 Q235.926 1172.04 233.658 1171.67 Q231.412 1171.3 229.005 1170.56 L229.005 1165.86 Q231.088 1166.99 233.31 1167.55 Q235.533 1168.1 238.009 1168.1 Q242.014 1168.1 244.352 1166 Q246.69 1163.89 246.69 1160.28 Q246.69 1156.67 244.352 1154.56 Q242.014 1152.46 238.009 1152.46 Q236.135 1152.46 234.26 1152.87 Q232.408 1153.29 230.463 1154.17 L230.463 1136.81 Z" fill="#000000" fill-rule="nonzero" fill-opacity="1" /><path clip-path="url(#clip660)" d="M114.26 924.387 L143.936 924.387 L143.936 928.322 L114.26 928.322 L114.26 924.387 Z" fill="#000000" fill-rule="nonzero" fill-opacity="1" /><path clip-path="url(#clip660)" d="M168.195 922.582 Q171.552 923.299 173.427 925.568 Q175.325 927.836 175.325 931.17 Q175.325 936.285 171.806 939.086 Q168.288 941.887 161.806 941.887 Q159.63 941.887 157.315 941.447 Q155.024 941.031 152.57 940.174 L152.57 935.66 Q154.515 936.795 156.829 937.373 Q159.144 937.952 161.667 937.952 Q166.065 937.952 168.357 936.216 Q170.672 934.48 170.672 931.17 Q170.672 928.114 168.519 926.401 Q166.39 924.665 162.57 924.665 L158.542 924.665 L158.542 920.823 L162.755 920.823 Q166.204 920.823 168.033 919.457 Q169.862 918.068 169.862 915.475 Q169.862 912.813 167.964 911.401 Q166.089 909.966 162.57 909.966 Q160.649 909.966 158.45 910.383 Q156.251 910.799 153.612 911.679 L153.612 907.512 Q156.274 906.772 158.589 906.401 Q160.927 906.031 162.987 906.031 Q168.311 906.031 171.413 908.461 Q174.514 910.869 174.514 914.989 Q174.514 917.86 172.871 919.85 Q171.227 921.818 168.195 922.582 Z" fill="#000000" fill-rule="nonzero" fill-opacity="1" /><path clip-path="url(#clip660)" d="M184.237 906.656 L202.593 906.656 L202.593 910.591 L188.519 910.591 L188.519 919.063 Q189.538 918.716 190.556 918.554 Q191.575 918.369 192.593 918.369 Q198.38 918.369 201.76 921.54 Q205.139 924.711 205.139 930.128 Q205.139 935.707 201.667 938.809 Q198.195 941.887 191.875 941.887 Q189.7 941.887 187.431 941.517 Q185.186 941.146 182.778 940.406 L182.778 935.707 Q184.862 936.841 187.084 937.397 Q189.306 937.952 191.783 937.952 Q195.787 937.952 198.125 935.846 Q200.463 933.739 200.463 930.128 Q200.463 926.517 198.125 924.41 Q195.787 922.304 191.783 922.304 Q189.908 922.304 188.033 922.721 Q186.181 923.137 184.237 924.017 L184.237 906.656 Z" fill="#000000" fill-rule="nonzero" fill-opacity="1" /><path clip-path="url(#clip660)" d="M214.352 935.336 L219.236 935.336 L219.236 941.216 L214.352 941.216 L214.352 935.336 Z" fill="#000000" fill-rule="nonzero" fill-opacity="1" /><path clip-path="url(#clip660)" d="M239.422 909.735 Q235.81 909.735 233.982 913.299 Q232.176 916.841 232.176 923.971 Q232.176 931.077 233.982 934.642 Q235.81 938.184 239.422 938.184 Q243.056 938.184 244.861 934.642 Q246.69 931.077 246.69 923.971 Q246.69 916.841 244.861 913.299 Q243.056 909.735 239.422 909.735 M239.422 906.031 Q245.232 906.031 248.287 910.637 Q251.366 915.221 251.366 923.971 Q251.366 932.697 248.287 937.304 Q245.232 941.887 239.422 941.887 Q233.611 941.887 230.533 937.304 Q227.477 932.697 227.477 923.971 Q227.477 915.221 230.533 910.637 Q233.611 906.031 239.422 906.031 Z" fill="#000000" fill-rule="nonzero" fill-opacity="1" /><path clip-path="url(#clip660)" d="M115.256 694.236 L144.931 694.236 L144.931 698.171 L115.256 698.171 L115.256 694.236 Z" fill="#000000" fill-rule="nonzero" fill-opacity="1" /><path clip-path="url(#clip660)" d="M169.19 692.431 Q172.547 693.148 174.422 695.417 Q176.32 697.685 176.32 701.019 Q176.32 706.134 172.802 708.935 Q169.283 711.736 162.802 711.736 Q160.626 711.736 158.311 711.296 Q156.019 710.88 153.566 710.023 L153.566 705.509 Q155.51 706.643 157.825 707.222 Q160.14 707.801 162.663 707.801 Q167.061 707.801 169.352 706.065 Q171.667 704.329 171.667 701.019 Q171.667 697.963 169.514 696.25 Q167.385 694.514 163.565 694.514 L159.538 694.514 L159.538 690.671 L163.751 690.671 Q167.2 690.671 169.028 689.306 Q170.857 687.917 170.857 685.324 Q170.857 682.662 168.959 681.25 Q167.084 679.815 163.565 679.815 Q161.644 679.815 159.445 680.232 Q157.246 680.648 154.607 681.528 L154.607 677.361 Q157.269 676.62 159.584 676.25 Q161.922 675.88 163.982 675.88 Q169.306 675.88 172.408 678.31 Q175.51 680.718 175.51 684.838 Q175.51 687.708 173.866 689.699 Q172.223 691.667 169.19 692.431 Z" fill="#000000" fill-rule="nonzero" fill-opacity="1" /><path clip-path="url(#clip660)" d="M189.213 707.13 L205.533 707.13 L205.533 711.065 L183.588 711.065 L183.588 707.13 Q186.251 704.375 190.834 699.745 Q195.44 695.093 196.621 693.75 Q198.866 691.227 199.746 689.491 Q200.649 687.732 200.649 686.042 Q200.649 683.287 198.704 681.551 Q196.783 679.815 193.681 679.815 Q191.482 679.815 189.028 680.579 Q186.598 681.343 183.82 682.894 L183.82 678.171 Q186.644 677.037 189.098 676.458 Q191.551 675.88 193.588 675.88 Q198.959 675.88 202.153 678.565 Q205.348 681.25 205.348 685.741 Q205.348 687.87 204.537 689.792 Q203.75 691.69 201.644 694.282 Q201.065 694.954 197.963 698.171 Q194.862 701.366 189.213 707.13 Z" fill="#000000" fill-rule="nonzero" fill-opacity="1" /><path clip-path="url(#clip660)" d="M215.348 705.185 L220.232 705.185 L220.232 711.065 L215.348 711.065 L215.348 705.185 Z" fill="#000000" fill-rule="nonzero" fill-opacity="1" /><path clip-path="url(#clip660)" d="M230.463 676.505 L248.82 676.505 L248.82 680.44 L234.746 680.44 L234.746 688.912 Q235.764 688.565 236.783 688.403 Q237.801 688.218 238.82 688.218 Q244.607 688.218 247.986 691.389 Q251.366 694.56 251.366 699.977 Q251.366 705.556 247.894 708.657 Q244.421 711.736 238.102 711.736 Q235.926 711.736 233.658 711.366 Q231.412 710.995 229.005 710.255 L229.005 705.556 Q231.088 706.69 233.31 707.245 Q235.533 707.801 238.009 707.801 Q242.014 707.801 244.352 705.694 Q246.69 703.588 246.69 699.977 Q246.69 696.366 244.352 694.259 Q242.014 692.153 238.009 692.153 Q236.135 692.153 234.26 692.569 Q232.408 692.986 230.463 693.866 L230.463 676.505 Z" fill="#000000" fill-rule="nonzero" fill-opacity="1" /><path clip-path="url(#clip660)" d="M114.26 464.085 L143.936 464.085 L143.936 468.02 L114.26 468.02 L114.26 464.085 Z" fill="#000000" fill-rule="nonzero" fill-opacity="1" /><path clip-path="url(#clip660)" d="M168.195 462.279 Q171.552 462.997 173.427 465.266 Q175.325 467.534 175.325 470.867 Q175.325 475.983 171.806 478.784 Q168.288 481.585 161.806 481.585 Q159.63 481.585 157.315 481.145 Q155.024 480.728 152.57 479.872 L152.57 475.358 Q154.515 476.492 156.829 477.071 Q159.144 477.65 161.667 477.65 Q166.065 477.65 168.357 475.914 Q170.672 474.178 170.672 470.867 Q170.672 467.812 168.519 466.099 Q166.39 464.363 162.57 464.363 L158.542 464.363 L158.542 460.52 L162.755 460.52 Q166.204 460.52 168.033 459.154 Q169.862 457.766 169.862 455.173 Q169.862 452.511 167.964 451.099 Q166.089 449.664 162.57 449.664 Q160.649 449.664 158.45 450.08 Q156.251 450.497 153.612 451.377 L153.612 447.21 Q156.274 446.469 158.589 446.099 Q160.927 445.729 162.987 445.729 Q168.311 445.729 171.413 448.159 Q174.514 450.567 174.514 454.687 Q174.514 457.557 172.871 459.548 Q171.227 461.516 168.195 462.279 Z" fill="#000000" fill-rule="nonzero" fill-opacity="1" /><path clip-path="url(#clip660)" d="M194.19 449.432 Q190.579 449.432 188.75 452.997 Q186.945 456.539 186.945 463.668 Q186.945 470.775 188.75 474.34 Q190.579 477.881 194.19 477.881 Q197.825 477.881 199.63 474.34 Q201.459 470.775 201.459 463.668 Q201.459 456.539 199.63 452.997 Q197.825 449.432 194.19 449.432 M194.19 445.729 Q200 445.729 203.056 450.335 Q206.135 454.918 206.135 463.668 Q206.135 472.395 203.056 477.002 Q200 481.585 194.19 481.585 Q188.38 481.585 185.301 477.002 Q182.246 472.395 182.246 463.668 Q182.246 454.918 185.301 450.335 Q188.38 445.729 194.19 445.729 Z" fill="#000000" fill-rule="nonzero" fill-opacity="1" /><path clip-path="url(#clip660)" d="M214.352 475.034 L219.236 475.034 L219.236 480.914 L214.352 480.914 L214.352 475.034 Z" fill="#000000" fill-rule="nonzero" fill-opacity="1" /><path clip-path="url(#clip660)" d="M239.422 449.432 Q235.81 449.432 233.982 452.997 Q232.176 456.539 232.176 463.668 Q232.176 470.775 233.982 474.34 Q235.81 477.881 239.422 477.881 Q243.056 477.881 244.861 474.34 Q246.69 470.775 246.69 463.668 Q246.69 456.539 244.861 452.997 Q243.056 449.432 239.422 449.432 M239.422 445.729 Q245.232 445.729 248.287 450.335 Q251.366 454.918 251.366 463.668 Q251.366 472.395 248.287 477.002 Q245.232 481.585 239.422 481.585 Q233.611 481.585 230.533 477.002 Q227.477 472.395 227.477 463.668 Q227.477 454.918 230.533 450.335 Q233.611 445.729 239.422 445.729 Z" fill="#000000" fill-rule="nonzero" fill-opacity="1" /><path clip-path="url(#clip660)" d="M115.256 233.934 L144.931 233.934 L144.931 237.869 L115.256 237.869 L115.256 233.934 Z" fill="#000000" fill-rule="nonzero" fill-opacity="1" /><path clip-path="url(#clip660)" d="M159.052 246.827 L175.371 246.827 L175.371 250.762 L153.427 250.762 L153.427 246.827 Q156.089 244.073 160.672 239.443 Q165.278 234.79 166.459 233.448 Q168.704 230.925 169.584 229.188 Q170.487 227.429 170.487 225.739 Q170.487 222.985 168.542 221.249 Q166.621 219.513 163.519 219.513 Q161.32 219.513 158.866 220.276 Q156.436 221.04 153.658 222.591 L153.658 217.869 Q156.482 216.735 158.936 216.156 Q161.39 215.577 163.427 215.577 Q168.797 215.577 171.991 218.263 Q175.186 220.948 175.186 225.438 Q175.186 227.568 174.376 229.489 Q173.589 231.388 171.482 233.98 Q170.903 234.651 167.802 237.869 Q164.7 241.063 159.052 246.827 Z" fill="#000000" fill-rule="nonzero" fill-opacity="1" /><path clip-path="url(#clip660)" d="M184.005 216.202 L206.227 216.202 L206.227 218.193 L193.681 250.762 L188.797 250.762 L200.602 220.138 L184.005 220.138 L184.005 216.202 Z" fill="#000000" fill-rule="nonzero" fill-opacity="1" /><path clip-path="url(#clip660)" d="M215.348 244.883 L220.232 244.883 L220.232 250.762 L215.348 250.762 L215.348 244.883 Z" fill="#000000" fill-rule="nonzero" fill-opacity="1" /><path clip-path="url(#clip660)" d="M230.463 216.202 L248.82 216.202 L248.82 220.138 L234.746 220.138 L234.746 228.61 Q235.764 228.263 236.783 228.101 Q237.801 227.915 238.82 227.915 Q244.607 227.915 247.986 231.087 Q251.366 234.258 251.366 239.675 Q251.366 245.253 247.894 248.355 Q244.421 251.434 238.102 251.434 Q235.926 251.434 233.658 251.063 Q231.412 250.693 229.005 249.952 L229.005 245.253 Q231.088 246.387 233.31 246.943 Q235.533 247.499 238.009 247.499 Q242.014 247.499 244.352 245.392 Q246.69 243.286 246.69 239.675 Q246.69 236.063 244.352 233.957 Q242.014 231.85 238.009 231.85 Q236.135 231.85 234.26 232.267 Q232.408 232.684 230.463 233.563 L230.463 216.202 Z" fill="#000000" fill-rule="nonzero" fill-opacity="1" /><path clip-path="url(#clip660)" d="M19.7307 759.306 Q19.7307 761.852 21.5131 763.603 Q23.2636 765.354 25.8099 765.354 Q28.3244 765.354 30.0749 763.603 Q31.7937 761.852 31.7937 759.306 Q31.7937 756.76 30.0749 755.009 Q28.3244 753.259 25.8099 753.259 Q23.2955 753.259 21.5131 755.041 Q19.7307 756.792 19.7307 759.306 M15.6248 759.306 Q15.6248 757.269 16.4205 755.391 Q17.1844 753.513 18.6485 752.145 Q20.0808 750.681 21.895 749.949 Q23.7092 749.217 25.8099 749.217 Q30.0113 749.217 32.9395 752.177 Q35.8359 755.105 35.8359 759.37 Q35.8359 763.667 32.9713 766.531 Q30.1068 769.396 25.8099 769.396 Q21.5449 769.396 18.5848 766.468 Q15.6248 763.539 15.6248 759.306 Z" fill="#000000" fill-rule="nonzero" fill-opacity="1" /><path clip-path="url(#clip660)" d="M20.1444 701.028 L26.9239 701.028 Q23.9002 704.275 22.4043 707.967 Q20.9083 711.627 20.9083 715.765 Q20.9083 723.913 25.9054 728.242 Q30.8707 732.57 40.2919 732.57 Q49.6813 732.57 54.6784 728.242 Q59.6436 723.913 59.6436 715.765 Q59.6436 711.627 58.1477 707.967 Q56.6518 704.275 53.6281 701.028 L60.3439 701.028 Q62.6355 704.402 63.7814 708.19 Q64.9272 711.945 64.9272 716.147 Q64.9272 726.937 58.3387 733.143 Q51.7183 739.35 40.2919 739.35 Q28.8336 739.35 22.2451 733.143 Q15.6248 726.937 15.6248 716.147 Q15.6248 711.882 16.7706 708.126 Q17.8846 704.338 20.1444 701.028 Z" fill="#000000" fill-rule="nonzero" fill-opacity="1" /><polyline clip-path="url(#clip662)" style="stroke:#07519c; stroke-linecap:round; stroke-linejoin:round; stroke-width:4; stroke-opacity:1; fill:none" points="345.82,1292.18 347.871,1329 349.921,1338.21 351.972,1338.21 354.023,1329 356.073,1329 358.124,1329 360.174,1329 362.225,1329 364.275,1319.8 366.326,1310.59 368.377,1301.38 370.427,1292.18 372.478,1282.97 374.528,1264.56 376.579,1255.35 378.629,1246.15 380.68,1227.74 382.731,1218.53 384.781,1200.12 386.832,1190.91 388.882,1172.5 390.933,1154.09 392.983,1135.68 395.034,1126.47 397.084,1108.06 399.135,1089.64 401.186,1080.44 403.236,1062.03 405.287,1043.61 407.337,1034.41 409.388,1016 411.438,1006.79 413.489,997.584 415.54,979.172 417.59,969.966 419.641,960.76 421.691,942.348 423.742,933.142 425.792,923.936 427.877,914.73 429.894,896.318 431.944,887.112 434.029,868.7 436.045,859.494 438.13,850.288 440.146,831.875 442.197,822.669 444.282,804.257 446.298,795.051 448.383,785.845 450.433,767.433 452.45,758.227 454.534,758.227 456.585,758.227 458.636,749.021 460.686,739.815 462.737,739.815 464.787,739.815 466.838,730.609 468.888,730.609 470.939,721.403 472.99,721.403 475.04,712.197 477.091,712.197 479.141,702.991 481.192,702.991 483.242,693.785 485.293,693.785 487.344,693.785 489.394,684.579 491.445,684.579 493.495,684.579 495.546,675.373 497.596,675.373 499.647,675.373 501.697,675.373 503.748,666.167 505.799,666.167 507.849,656.961 509.9,647.755 511.95,647.755 514.001,647.755 516.051,647.755 518.102,638.548 520.153,638.548 522.203,638.548 524.254,629.342 526.304,629.342 528.355,629.342 530.405,620.136 532.456,620.136 534.507,620.136 536.557,620.136 538.608,620.136 540.658,610.93 542.709,610.93 544.759,610.93 546.81,601.724 548.86,601.724 550.911,601.724 552.962,592.518 555.012,592.518 557.063,592.518 559.113,592.518 561.164,583.312 563.214,583.312 565.265,583.312 567.316,574.106 569.366,574.106 571.417,574.106 573.467,574.106 575.518,564.9 577.568,564.9 579.619,564.9 581.67,564.9 583.72,564.9 585.771,555.694 587.855,555.694 589.872,555.694 591.957,546.488 593.973,546.488 596.023,546.488 598.108,546.488 600.125,537.282 602.209,537.282 604.26,537.282 606.276,528.076 608.361,528.076 610.412,528.076 612.462,528.076 614.513,528.076 616.563,518.87 618.614,518.87 620.664,518.87 622.715,518.87 624.766,509.664 626.816,509.664 628.867,509.664 630.917,509.664 632.968,509.664 635.018,500.458 637.069,500.458 639.119,500.458 641.17,500.458 643.221,500.458 645.271,500.458 647.322,500.458 649.372,491.252 651.423,491.252 653.473,491.252 655.524,491.252 657.575,482.046 659.625,482.046 661.676,482.046 663.726,482.046 665.777,472.84 667.827,472.84 669.878,472.84 671.929,472.84 673.979,472.84 676.03,472.84 678.08,463.634 680.131,463.634 682.181,463.634 684.232,463.634 686.282,463.634 688.333,454.428 690.384,454.428 692.434,454.428 694.485,454.428 696.535,454.428 698.586,454.428 700.636,454.428 702.687,445.221 704.738,445.221 706.788,445.221 708.839,445.221 710.889,445.221 712.94,445.221 714.99,436.015 717.041,436.015 719.092,436.015 721.142,436.015 723.193,436.015 725.243,426.809 727.294,426.809 729.344,426.809 731.395,426.809 733.445,426.809 735.496,417.603 737.581,417.603 739.597,417.603 741.648,417.603 743.732,417.603 745.749,417.603 747.834,417.603 749.884,417.603 751.935,408.397 753.985,417.603 756.036,408.397 758.086,408.397 760.137,408.397 762.188,408.397 764.238,408.397 766.289,399.191 768.339,399.191 770.39,399.191 772.44,399.191 774.491,399.191 776.542,389.985 778.592,389.985 780.643,389.985 782.693,389.985 784.744,389.985 786.794,389.985 788.845,389.985 790.895,389.985 792.946,389.985 794.997,389.985 797.047,389.985 799.098,380.779 801.148,380.779 803.199,380.779 805.249,371.573 807.3,371.573 809.351,371.573 811.401,371.573 813.452,371.573 815.502,371.573 817.553,371.573 819.603,371.573 821.654,371.573 823.705,362.367 825.755,362.367 827.806,362.367 829.856,362.367 831.907,362.367 833.957,362.367 836.008,353.161 838.058,353.161 840.109,353.161 842.16,353.161 844.21,353.161 846.261,353.161 848.311,353.161 850.362,353.161 852.412,353.161 854.463,343.955 856.514,343.955 858.564,343.955 860.615,343.955 862.665,343.955 864.716,343.955 866.766,343.955 868.817,343.955 870.868,343.955 872.918,334.749 874.969,334.749 877.019,334.749 879.07,334.749 881.12,334.749 883.171,334.749 885.256,334.749 887.272,325.543 889.323,325.543 891.407,334.749 893.424,334.749 895.508,325.543 897.525,325.543 899.61,325.543 901.66,325.543 903.711,325.543 905.761,325.543 907.778,316.337 909.862,325.543 911.913,325.543 913.964,325.543 916.014,325.543 918.065,316.337 920.115,316.337 922.166,316.337 924.216,316.337 926.267,316.337 928.318,316.337 930.368,316.337 932.419,316.337 934.469,316.337 936.52,316.337 938.57,307.131 940.621,316.337 942.671,307.131 944.722,307.131 946.773,307.131 948.823,297.925 950.874,297.925 952.924,297.925 954.975,297.925 957.025,297.925 959.076,297.925 961.127,297.925 963.177,297.925 965.228,297.925 967.278,297.925 969.329,297.925 971.379,297.925 973.43,297.925 975.481,297.925 977.531,297.925 979.582,297.925 981.632,297.925 983.683,288.719 985.733,288.719 987.784,297.925 989.834,297.925 991.885,288.719 993.936,297.925 995.986,288.719 998.037,288.719 1000.09,288.719 1002.14,288.719 1004.19,279.513 1006.24,288.719 1008.29,288.719 1010.34,288.719 1012.39,279.513 1014.44,279.513 1016.49,279.513 1018.54,279.513 1020.59,279.513 1022.64,279.513 1024.69,279.513 1026.74,279.513 1028.8,279.513 1030.85,270.307 1032.93,270.307 1034.95,270.307 1037,270.307 1039.05,270.307 1041.1,270.307 1043.18,270.307 1045.2,270.307 1047.25,270.307 1049.34,270.307 1051.35,270.307 1053.44,270.307 1055.45,270.307 1057.54,270.307 1059.59,270.307 1061.6,270.307 1063.69,270.307 1065.74,270.307 1067.79,270.307 1069.84,261.101 1071.89,261.101 1073.94,261.101 1075.99,261.101 1078.04,261.101 1080.09,261.101 1082.14,261.101 1084.19,261.101 1086.25,261.101 1088.3,261.101 1090.35,261.101 1092.4,261.101 1094.45,261.101 1096.5,261.101 1098.55,261.101 1100.6,261.101 1102.65,261.101 1104.7,261.101 1106.75,251.895 1108.8,251.895 1110.85,251.895 1112.9,251.895 1114.95,251.895 1117,251.895 1119.05,251.895 1121.1,251.895 1123.16,251.895 1125.21,251.895 1127.26,251.895 1129.31,251.895 1131.36,251.895 1133.41,242.688 1135.46,242.688 1137.51,242.688 1139.56,251.895 1141.61,251.895 1143.66,251.895 1145.71,242.688 1147.76,242.688 1149.81,242.688 1151.86,242.688 1153.91,242.688 1155.96,242.688 1158.01,242.688 1160.07,242.688 1162.12,242.688 1164.17,242.688 1166.22,242.688 1168.27,242.688 1170.32,242.688 1172.37,242.688 1174.42,242.688 1176.47,242.688 1178.52,242.688 1180.57,242.688 1182.66,242.688 1184.67,242.688 1186.72,242.688 1188.77,233.482 1190.82,242.688 1192.91,233.482 1194.93,242.688 1197.01,242.688 1199.06,233.482 1201.08,233.482 1203.16,242.688 1205.21,233.482 1207.26,242.688 1209.31,233.482 1211.33,233.482 1213.41,233.482 1215.46,233.482 1217.52,233.482 1219.57,233.482 1221.62,233.482 1223.67,233.482 1225.72,233.482 1227.77,233.482 1229.82,233.482 1231.87,233.482 1233.92,233.482 1235.97,224.276 1238.02,224.276 1240.07,224.276 1242.12,224.276 1244.17,224.276 1246.22,224.276 1248.27,224.276 1250.32,224.276 1252.38,215.07 1254.43,224.276 1256.48,224.276 1258.53,224.276 1260.58,224.276 1262.63,224.276 1264.68,224.276 1266.73,224.276 1268.78,224.276 1270.83,224.276 1272.88,224.276 1274.93,215.07 1276.98,224.276 1279.03,215.07 1281.08,215.07 1283.13,215.07 1285.18,224.276 1287.23,215.07 1289.29,215.07 1291.34,215.07 1293.39,215.07 1295.44,215.07 1297.49,215.07 1299.54,215.07 1301.59,215.07 1303.64,215.07 1305.69,215.07 1307.74,215.07 1309.79,215.07 1311.84,215.07 1313.89,215.07 1315.94,215.07 1317.99,215.07 1320.04,215.07 1322.09,215.07 1324.14,215.07 1326.2,215.07 1328.25,215.07 1330.3,215.07 1332.38,215.07 1334.4,215.07 1336.48,215.07 1338.5,215.07 1340.55,215.07 1342.6,215.07 1344.65,205.864 1346.74,215.07 1348.75,205.864 1350.84,205.864 1352.89,205.864 1354.9,205.864 1356.99,205.864 1359.04,205.864 1361.09,205.864 1363.14,205.864 1365.19,205.864 1367.24,205.864 1369.29,205.864 1371.34,205.864 1373.39,205.864 1375.44,196.658 1377.49,205.864 1379.54,196.658 1381.59,196.658 1383.65,196.658 1385.7,196.658 1387.75,196.658 1389.8,196.658 1391.85,196.658 1393.9,196.658 1395.95,196.658 1398,196.658 1400.05,196.658 1402.1,196.658 1404.15,196.658 1406.2,196.658 1408.25,196.658 1410.3,196.658 1412.35,196.658 1414.4,196.658 1416.45,196.658 1418.51,196.658 1420.56,196.658 1422.61,196.658 1424.66,187.452 1426.71,187.452 1428.76,187.452 1430.81,196.658 1432.86,187.452 1434.91,187.452 1436.96,187.452 1439.01,187.452 1441.06,187.452 1443.11,187.452 1445.16,187.452 1447.21,187.452 1449.26,187.452 1451.31,187.452 1453.36,187.452 1455.42,187.452 1457.47,187.452 1459.52,187.452 1461.57,187.452 1463.62,187.452 1465.67,187.452 1467.72,187.452 1469.77,187.452 1471.82,187.452 1473.87,187.452 1475.92,187.452 1477.97,187.452 1480.02,187.452 1482.07,187.452 1484.12,187.452 1486.17,187.452 1488.26,187.452 1490.27,187.452 1492.33,187.452 1494.41,187.452 1496.43,187.452 1498.51,187.452 1500.56,187.452 1502.58,187.452 1504.66,187.452 1506.68,187.452 1508.76,187.452 1510.81,187.452 1512.87,187.452 1514.92,187.452 1516.97,187.452 1519.02,187.452 1521.07,187.452 1523.12,187.452 1525.17,178.246 1527.22,178.246 1529.27,178.246 1531.32,178.246 1533.37,187.452 1535.42,178.246 1537.47,178.246 1539.52,178.246 1541.57,178.246 1543.62,178.246 1545.67,178.246 1547.72,178.246 1549.78,178.246 1551.83,178.246 1553.88,178.246 1555.93,178.246 1557.98,178.246 1560.03,178.246 1562.08,178.246 1564.13,178.246 1566.18,178.246 1568.23,178.246 1570.28,178.246 1572.33,178.246 1574.38,178.246 1576.43,178.246 1578.48,169.04 1580.53,169.04 1582.58,169.04 1584.64,169.04 1586.69,169.04 1588.74,169.04 1590.79,169.04 1592.84,169.04 1594.89,169.04 1596.94,169.04 1598.99,169.04 1601.04,169.04 1603.09,169.04 1605.14,169.04 1607.19,169.04 1609.24,169.04 1611.29,169.04 1613.34,169.04 1615.39,178.246 1617.44,169.04 1619.49,169.04 1621.55,169.04 1623.6,169.04 1625.65,169.04 1627.7,169.04 1629.75,169.04 1631.8,169.04 1633.85,169.04 1635.93,169.04 1637.95,169.04 1640,159.834 1642.09,159.834 1644.1,169.04 1646.15,169.04 1648.24,169.04 1650.25,169.04 1652.34,169.04 1654.35,169.04 1656.44,159.834 1658.49,159.834 1660.51,169.04 1662.59,159.834 1664.64,159.834 1666.69,159.834 1668.74,159.834 1670.79,159.834 1672.84,159.834 1674.89,159.834 1676.94,159.834 1679,159.834 1681.05,159.834 1683.1,159.834 1685.15,159.834 1687.2,159.834 1689.25,159.834 1691.3,159.834 1693.35,159.834 1695.4,159.834 1697.45,159.834 1699.5,159.834 1701.55,159.834 1703.6,159.834 1705.65,159.834 1707.7,159.834 1709.75,159.834 1711.8,159.834 1713.85,159.834 1715.91,159.834 1717.96,159.834 1720.01,159.834 1722.06,159.834 1724.11,159.834 1726.16,159.834 1728.21,159.834 1730.26,159.834 1732.31,159.834 1734.36,159.834 1736.41,159.834 1738.46,159.834 1740.51,159.834 1742.56,159.834 1744.61,159.834 1746.66,159.834 1748.71,150.628 1750.77,159.834 1752.82,159.834 1754.87,159.834 1756.92,150.628 1758.97,150.628 1761.02,150.628 1763.07,150.628 1765.12,150.628 1767.17,159.834 1769.22,150.628 1771.27,150.628 1773.32,159.834 1775.37,150.628 1777.42,150.628 1779.47,150.628 1781.52,150.628 1783.61,150.628 1785.62,150.628 1787.68,150.628 1789.73,150.628 1791.78,150.628 1793.86,150.628 1795.88,150.628 1797.93,150.628 1800.01,150.628 1802.03,150.628 1804.11,150.628 1806.16,150.628 1808.18,150.628 1810.27,150.628 1812.32,150.628 1814.37,150.628 1816.42,150.628 1818.47,150.628 1820.52,150.628 1822.57,150.628 1824.62,150.628 1826.67,150.628 1828.72,150.628 1830.77,150.628 1832.82,150.628 1834.87,150.628 1836.92,150.628 1838.97,150.628 1841.02,150.628 1843.07,150.628 1845.13,150.628 1847.18,150.628 1849.23,150.628 1851.28,150.628 1853.33,150.628 1855.38,150.628 1857.43,150.628 1859.48,150.628 1861.53,150.628 1863.58,150.628 1865.63,150.628 1867.68,150.628 1869.73,150.628 1871.78,150.628 1873.83,150.628 1875.88,141.422 1877.93,150.628 1879.98,141.422 1882.04,150.628 1884.09,141.422 1886.14,141.422 1888.19,141.422 1890.24,141.422 1892.29,141.422 1894.34,141.422 1896.39,141.422 1898.44,141.422 1900.49,141.422 1902.54,141.422 1904.59,141.422 1906.64,141.422 1908.69,141.422 1910.74,141.422 1912.79,141.422 1914.84,141.422 1916.89,141.422 1918.95,141.422 1921,141.422 1923.05,141.422 1925.1,141.422 1927.15,141.422 1929.2,141.422 1931.25,141.422 1933.3,141.422 1935.35,141.422 1937.4,141.422 1939.45,141.422 1941.54,141.422 1943.55,141.422 "/>
<circle clip-path="url(#clip662)" cx="345.82" cy="1292.18" r="14.4" fill="#07519c" fill-rule="evenodd" fill-opacity="1" stroke="#000000" stroke-opacity="1" stroke-width="3.2"/>
<circle clip-path="url(#clip662)" cx="604.26" cy="537.282" r="14.4" fill="#07519c" fill-rule="evenodd" fill-opacity="1" stroke="#000000" stroke-opacity="1" stroke-width="3.2"/>
<circle clip-path="url(#clip662)" cx="862.665" cy="343.955" r="14.4" fill="#07519c" fill-rule="evenodd" fill-opacity="1" stroke="#000000" stroke-opacity="1" stroke-width="3.2"/>
<circle clip-path="url(#clip662)" cx="1121.1" cy="251.895" r="14.4" fill="#07519c" fill-rule="evenodd" fill-opacity="1" stroke="#000000" stroke-opacity="1" stroke-width="3.2"/>
<circle clip-path="url(#clip662)" cx="1379.54" cy="196.658" r="14.4" fill="#07519c" fill-rule="evenodd" fill-opacity="1" stroke="#000000" stroke-opacity="1" stroke-width="3.2"/>
<circle clip-path="url(#clip662)" cx="1637.95" cy="169.04" r="14.4" fill="#07519c" fill-rule="evenodd" fill-opacity="1" stroke="#000000" stroke-opacity="1" stroke-width="3.2"/>
<circle clip-path="url(#clip662)" cx="1896.39" cy="141.422" r="14.4" fill="#07519c" fill-rule="evenodd" fill-opacity="1" stroke="#000000" stroke-opacity="1" stroke-width="3.2"/>
<polyline clip-path="url(#clip662)" style="stroke:#3082bc; stroke-linecap:round; stroke-linejoin:round; stroke-width:4; stroke-opacity:1; fill:none" points="345.82,1347.41 347.871,1365.83 349.921,1375.03 351.972,1375.03 354.023,1384.24 356.073,1384.24 358.124,1384.24 360.174,1384.24 362.225,1384.24 364.275,1384.24 366.326,1384.24 368.377,1375.03 370.427,1375.03 372.478,1365.83 374.528,1356.62 376.579,1347.41 378.629,1338.21 380.68,1329 382.731,1310.59 384.781,1301.38 386.832,1292.18 388.882,1282.97 390.933,1264.56 392.983,1246.15 395.034,1236.94 397.084,1227.74 399.135,1209.32 401.186,1190.91 403.236,1181.71 405.287,1172.5 407.337,1154.09 409.388,1144.88 411.438,1135.68 413.489,1126.47 415.54,1117.26 417.59,1108.06 419.641,1098.85 421.691,1089.64 423.742,1080.44 425.792,1071.23 427.877,1062.03 429.894,1043.61 431.944,1043.61 434.029,1025.2 436.045,1016 438.13,1006.79 440.146,997.584 442.197,988.378 444.282,979.172 446.298,960.76 448.383,960.76 450.433,942.348 452.45,942.348 454.534,933.142 456.585,933.142 458.636,923.936 460.686,923.936 462.737,923.936 464.787,914.73 466.838,914.73 468.888,905.524 470.939,905.524 472.99,905.524 475.04,896.318 477.091,887.112 479.141,887.112 481.192,887.112 483.242,887.112 485.293,887.112 487.344,877.906 489.394,877.906 491.445,868.7 493.495,877.906 495.546,868.7 497.596,868.7 499.647,868.7 501.697,859.494 503.748,859.494 505.799,850.288 507.849,850.288 509.9,850.288 511.95,850.288 514.001,850.288 516.051,841.082 518.102,841.082 520.153,841.082 522.203,831.875 524.254,831.875 526.304,831.875 528.355,822.669 530.405,822.669 532.456,822.669 534.507,813.463 536.557,813.463 538.608,813.463 540.658,813.463 542.709,813.463 544.759,804.257 546.81,804.257 548.86,804.257 550.911,804.257 552.962,804.257 555.012,795.051 557.063,795.051 559.113,795.051 561.164,795.051 563.214,785.845 565.265,785.845 567.316,785.845 569.366,785.845 571.417,776.639 573.467,776.639 575.518,776.639 577.568,776.639 579.619,767.433 581.67,767.433 583.72,767.433 585.771,767.433 587.855,767.433 589.872,767.433 591.957,767.433 593.973,758.227 596.023,758.227 598.108,749.021 600.125,749.021 602.209,749.021 604.26,749.021 606.276,749.021 608.361,739.815 610.412,739.815 612.462,739.815 614.513,739.815 616.563,739.815 618.614,730.609 620.664,730.609 622.715,730.609 624.766,730.609 626.816,730.609 628.867,730.609 630.917,721.403 632.968,730.609 635.018,721.403 637.069,721.403 639.119,721.403 641.17,712.197 643.221,712.197 645.271,712.197 647.322,712.197 649.372,712.197 651.423,712.197 653.473,712.197 655.524,702.991 657.575,702.991 659.625,702.991 661.676,693.785 663.726,693.785 665.777,693.785 667.827,693.785 669.878,693.785 671.929,693.785 673.979,693.785 676.03,684.579 678.08,684.579 680.131,684.579 682.181,684.579 684.232,675.373 686.282,675.373 688.333,675.373 690.384,675.373 692.434,675.373 694.485,675.373 696.535,666.167 698.586,675.373 700.636,666.167 702.687,666.167 704.738,666.167 706.788,666.167 708.839,666.167 710.889,656.961 712.94,656.961 714.99,656.961 717.041,656.961 719.092,656.961 721.142,656.961 723.193,647.755 725.243,647.755 727.294,647.755 729.344,647.755 731.395,638.548 733.445,638.548 735.496,638.548 737.581,638.548 739.597,638.548 741.648,638.548 743.732,638.548 745.749,638.548 747.834,629.342 749.884,629.342 751.935,629.342 753.985,629.342 756.036,629.342 758.086,629.342 760.137,620.136 762.188,620.136 764.238,620.136 766.289,620.136 768.339,620.136 770.39,620.136 772.44,620.136 774.491,620.136 776.542,610.93 778.592,610.93 780.643,610.93 782.693,610.93 784.744,601.724 786.794,601.724 788.845,601.724 790.895,601.724 792.946,601.724 794.997,601.724 797.047,601.724 799.098,601.724 801.148,601.724 803.199,592.518 805.249,592.518 807.3,592.518 809.351,592.518 811.401,583.312 813.452,583.312 815.502,583.312 817.553,583.312 819.603,583.312 821.654,583.312 823.705,574.106 825.755,583.312 827.806,574.106 829.856,574.106 831.907,574.106 833.957,574.106 836.008,574.106 838.058,574.106 840.109,574.106 842.16,574.106 844.21,564.9 846.261,564.9 848.311,564.9 850.362,564.9 852.412,564.9 854.463,564.9 856.514,564.9 858.564,564.9 860.615,555.694 862.665,555.694 864.716,555.694 866.766,555.694 868.817,555.694 870.868,555.694 872.918,555.694 874.969,546.488 877.019,546.488 879.07,546.488 881.12,546.488 883.171,546.488 885.256,546.488 887.272,546.488 889.323,537.282 891.407,546.488 893.424,537.282 895.508,537.282 897.525,537.282 899.61,537.282 901.66,537.282 903.711,537.282 905.761,537.282 907.778,537.282 909.862,528.076 911.913,528.076 913.964,528.076 916.014,528.076 918.065,528.076 920.115,528.076 922.166,528.076 924.216,528.076 926.267,528.076 928.318,518.87 930.368,528.076 932.419,518.87 934.469,518.87 936.52,518.87 938.57,518.87 940.621,518.87 942.671,518.87 944.722,518.87 946.773,509.664 948.823,509.664 950.874,509.664 952.924,509.664 954.975,509.664 957.025,509.664 959.076,509.664 961.127,509.664 963.177,509.664 965.228,509.664 967.278,509.664 969.329,509.664 971.379,509.664 973.43,500.458 975.481,500.458 977.531,500.458 979.582,500.458 981.632,500.458 983.683,500.458 985.733,500.458 987.784,491.252 989.834,500.458 991.885,500.458 993.936,491.252 995.986,491.252 998.037,491.252 1000.09,491.252 1002.14,491.252 1004.19,491.252 1006.24,491.252 1008.29,491.252 1010.34,491.252 1012.39,491.252 1014.44,482.046 1016.49,482.046 1018.54,482.046 1020.59,482.046 1022.64,482.046 1024.69,482.046 1026.74,482.046 1028.8,482.046 1030.85,472.84 1032.93,472.84 1034.95,472.84 1037,472.84 1039.05,472.84 1041.1,472.84 1043.18,472.84 1045.2,472.84 1047.25,472.84 1049.34,472.84 1051.35,463.634 1053.44,472.84 1055.45,472.84 1057.54,472.84 1059.59,472.84 1061.6,472.84 1063.69,463.634 1065.74,463.634 1067.79,463.634 1069.84,463.634 1071.89,463.634 1073.94,463.634 1075.99,454.428 1078.04,463.634 1080.09,454.428 1082.14,454.428 1084.19,454.428 1086.25,454.428 1088.3,454.428 1090.35,463.634 1092.4,454.428 1094.45,454.428 1096.5,454.428 1098.55,445.221 1100.6,454.428 1102.65,445.221 1104.7,445.221 1106.75,445.221 1108.8,445.221 1110.85,445.221 1112.9,445.221 1114.95,445.221 1117,445.221 1119.05,445.221 1121.1,445.221 1123.16,445.221 1125.21,445.221 1127.26,445.221 1129.31,445.221 1131.36,445.221 1133.41,436.015 1135.46,436.015 1137.51,436.015 1139.56,436.015 1141.61,436.015 1143.66,436.015 1145.71,436.015 1147.76,436.015 1149.81,436.015 1151.86,426.809 1153.91,436.015 1155.96,436.015 1158.01,436.015 1160.07,436.015 1162.12,426.809 1164.17,426.809 1166.22,426.809 1168.27,426.809 1170.32,426.809 1172.37,426.809 1174.42,426.809 1176.47,426.809 1178.52,426.809 1180.57,426.809 1182.66,426.809 1184.67,426.809 1186.72,426.809 1188.77,426.809 1190.82,417.603 1192.91,417.603 1194.93,426.809 1197.01,426.809 1199.06,417.603 1201.08,417.603 1203.16,417.603 1205.21,417.603 1207.26,417.603 1209.31,417.603 1211.33,417.603 1213.41,417.603 1215.46,417.603 1217.52,417.603 1219.57,408.397 1221.62,408.397 1223.67,408.397 1225.72,417.603 1227.77,408.397 1229.82,408.397 1231.87,408.397 1233.92,408.397 1235.97,408.397 1238.02,408.397 1240.07,408.397 1242.12,408.397 1244.17,408.397 1246.22,408.397 1248.27,408.397 1250.32,408.397 1252.38,408.397 1254.43,408.397 1256.48,408.397 1258.53,408.397 1260.58,408.397 1262.63,399.191 1264.68,399.191 1266.73,399.191 1268.78,399.191 1270.83,399.191 1272.88,399.191 1274.93,399.191 1276.98,399.191 1279.03,399.191 1281.08,399.191 1283.13,389.985 1285.18,399.191 1287.23,389.985 1289.29,399.191 1291.34,389.985 1293.39,389.985 1295.44,389.985 1297.49,389.985 1299.54,389.985 1301.59,389.985 1303.64,389.985 1305.69,389.985 1307.74,389.985 1309.79,389.985 1311.84,389.985 1313.89,389.985 1315.94,389.985 1317.99,389.985 1320.04,389.985 1322.09,389.985 1324.14,389.985 1326.2,389.985 1328.25,389.985 1330.3,389.985 1332.38,389.985 1334.4,389.985 1336.48,389.985 1338.5,389.985 1340.55,389.985 1342.6,380.779 1344.65,380.779 1346.74,380.779 1348.75,380.779 1350.84,380.779 1352.89,380.779 1354.9,380.779 1356.99,371.573 1359.04,371.573 1361.09,371.573 1363.14,371.573 1365.19,371.573 1367.24,380.779 1369.29,371.573 1371.34,371.573 1373.39,371.573 1375.44,371.573 1377.49,371.573 1379.54,371.573 1381.59,371.573 1383.65,371.573 1385.7,371.573 1387.75,371.573 1389.8,371.573 1391.85,371.573 1393.9,362.367 1395.95,371.573 1398,362.367 1400.05,362.367 1402.1,362.367 1404.15,362.367 1406.2,362.367 1408.25,362.367 1410.3,362.367 1412.35,362.367 1414.4,362.367 1416.45,362.367 1418.51,353.161 1420.56,362.367 1422.61,362.367 1424.66,362.367 1426.71,362.367 1428.76,362.367 1430.81,362.367 1432.86,362.367 1434.91,362.367 1436.96,353.161 1439.01,353.161 1441.06,353.161 1443.11,353.161 1445.16,353.161 1447.21,353.161 1449.26,353.161 1451.31,353.161 1453.36,353.161 1455.42,353.161 1457.47,353.161 1459.52,353.161 1461.57,353.161 1463.62,353.161 1465.67,353.161 1467.72,353.161 1469.77,353.161 1471.82,353.161 1473.87,353.161 1475.92,353.161 1477.97,353.161 1480.02,353.161 1482.07,353.161 1484.12,353.161 1486.17,353.161 1488.26,343.955 1490.27,343.955 1492.33,343.955 1494.41,343.955 1496.43,343.955 1498.51,343.955 1500.56,343.955 1502.58,343.955 1504.66,343.955 1506.68,334.749 1508.76,343.955 1510.81,343.955 1512.87,343.955 1514.92,343.955 1516.97,343.955 1519.02,343.955 1521.07,343.955 1523.12,343.955 1525.17,334.749 1527.22,334.749 1529.27,334.749 1531.32,334.749 1533.37,334.749 1535.42,334.749 1537.47,334.749 1539.52,334.749 1541.57,334.749 1543.62,334.749 1545.67,334.749 1547.72,334.749 1549.78,334.749 1551.83,334.749 1553.88,334.749 1555.93,334.749 1557.98,334.749 1560.03,334.749 1562.08,334.749 1564.13,334.749 1566.18,334.749 1568.23,334.749 1570.28,334.749 1572.33,334.749 1574.38,334.749 1576.43,334.749 1578.48,334.749 1580.53,334.749 1582.58,334.749 1584.64,334.749 1586.69,334.749 1588.74,334.749 1590.79,334.749 1592.84,334.749 1594.89,334.749 1596.94,334.749 1598.99,325.543 1601.04,325.543 1603.09,325.543 1605.14,325.543 1607.19,325.543 1609.24,325.543 1611.29,325.543 1613.34,325.543 1615.39,325.543 1617.44,325.543 1619.49,325.543 1621.55,325.543 1623.6,325.543 1625.65,325.543 1627.7,325.543 1629.75,325.543 1631.8,325.543 1633.85,325.543 1635.93,325.543 1637.95,325.543 1640,325.543 1642.09,325.543 1644.1,325.543 1646.15,316.337 1648.24,325.543 1650.25,325.543 1652.34,316.337 1654.35,325.543 1656.44,325.543 1658.49,316.337 1660.51,316.337 1662.59,316.337 1664.64,316.337 1666.69,316.337 1668.74,316.337 1670.79,316.337 1672.84,316.337 1674.89,316.337 1676.94,316.337 1679,316.337 1681.05,316.337 1683.1,316.337 1685.15,316.337 1687.2,316.337 1689.25,316.337 1691.3,316.337 1693.35,316.337 1695.4,316.337 1697.45,316.337 1699.5,316.337 1701.55,316.337 1703.6,316.337 1705.65,316.337 1707.7,316.337 1709.75,307.131 1711.8,316.337 1713.85,307.131 1715.91,316.337 1717.96,307.131 1720.01,307.131 1722.06,307.131 1724.11,307.131 1726.16,307.131 1728.21,307.131 1730.26,307.131 1732.31,307.131 1734.36,307.131 1736.41,307.131 1738.46,307.131 1740.51,307.131 1742.56,307.131 1744.61,307.131 1746.66,307.131 1748.71,307.131 1750.77,307.131 1752.82,307.131 1754.87,307.131 1756.92,297.925 1758.97,297.925 1761.02,307.131 1763.07,297.925 1765.12,297.925 1767.17,297.925 1769.22,307.131 1771.27,297.925 1773.32,297.925 1775.37,297.925 1777.42,297.925 1779.47,297.925 1781.52,297.925 1783.61,297.925 1785.62,297.925 1787.68,297.925 1789.73,297.925 1791.78,297.925 1793.86,297.925 1795.88,297.925 1797.93,297.925 1800.01,297.925 1802.03,297.925 1804.11,297.925 1806.16,297.925 1808.18,297.925 1810.27,297.925 1812.32,297.925 1814.37,288.719 1816.42,297.925 1818.47,288.719 1820.52,288.719 1822.57,297.925 1824.62,297.925 1826.67,288.719 1828.72,288.719 1830.77,288.719 1832.82,288.719 1834.87,297.925 1836.92,288.719 1838.97,288.719 1841.02,288.719 1843.07,288.719 1845.13,288.719 1847.18,288.719 1849.23,288.719 1851.28,288.719 1853.33,288.719 1855.38,288.719 1857.43,288.719 1859.48,288.719 1861.53,288.719 1863.58,288.719 1865.63,288.719 1867.68,288.719 1869.73,288.719 1871.78,288.719 1873.83,288.719 1875.88,288.719 1877.93,288.719 1879.98,279.513 1882.04,279.513 1884.09,288.719 1886.14,279.513 1888.19,279.513 1890.24,279.513 1892.29,279.513 1894.34,279.513 1896.39,279.513 1898.44,279.513 1900.49,279.513 1902.54,279.513 1904.59,279.513 1906.64,279.513 1908.69,279.513 1910.74,279.513 1912.79,279.513 1914.84,279.513 1916.89,279.513 1918.95,279.513 1921,279.513 1923.05,279.513 1925.1,279.513 1927.15,279.513 1929.2,279.513 1931.25,279.513 1933.3,279.513 1935.35,279.513 1937.4,279.513 1939.45,279.513 1941.54,279.513 1943.55,279.513 "/>
<path clip-path="url(#clip662)" d="M459.04 880.318 L459.04 912.318 L491.04 912.318 L491.04 880.318 L459.04 880.318 Z" fill="#3082bc" fill-rule="evenodd" fill-opacity="1" stroke="#000000" stroke-opacity="1" stroke-width="3.2"/>
<path clip-path="url(#clip662)" d="M717.445 622.548 L717.445 654.548 L749.445 654.548 L749.445 622.548 L717.445 622.548 Z" fill="#3082bc" fill-rule="evenodd" fill-opacity="1" stroke="#000000" stroke-opacity="1" stroke-width="3.2"/>
<path clip-path="url(#clip662)" d="M975.885 484.458 L975.885 516.458 L1007.89 516.458 L1007.89 484.458 L975.885 484.458 Z" fill="#3082bc" fill-rule="evenodd" fill-opacity="1" stroke="#000000" stroke-opacity="1" stroke-width="3.2"/>
<path clip-path="url(#clip662)" d="M1234.32 392.397 L1234.32 424.397 L1266.32 424.397 L1266.32 392.397 L1234.32 392.397 Z" fill="#3082bc" fill-rule="evenodd" fill-opacity="1" stroke="#000000" stroke-opacity="1" stroke-width="3.2"/>
<path clip-path="url(#clip662)" d="M1492.76 327.955 L1492.76 359.955 L1524.76 359.955 L1524.76 327.955 L1492.76 327.955 Z" fill="#3082bc" fill-rule="evenodd" fill-opacity="1" stroke="#000000" stroke-opacity="1" stroke-width="3.2"/>
<path clip-path="url(#clip662)" d="M1751.17 281.925 L1751.17 313.925 L1783.17 313.925 L1783.17 281.925 L1751.17 281.925 Z" fill="#3082bc" fill-rule="evenodd" fill-opacity="1" stroke="#000000" stroke-opacity="1" stroke-width="3.2"/>
<polyline clip-path="url(#clip662)" style="stroke:#07519c; stroke-linecap:round; stroke-linejoin:round; stroke-width:4; stroke-opacity:1; fill:none" stroke-dasharray="16, 10" points="345.82,1347.41 366.326,1329 386.832,1209.32 407.337,1043.61 427.877,905.524 448.383,767.433 468.888,712.197 489.394,675.373 509.9,647.755 530.405,620.136 550.911,610.93 571.417,583.312 591.957,574.106 612.462,546.488 632.968,537.282 653.473,518.87 673.979,500.458 694.485,491.252 714.99,482.046 735.496,463.634 756.036,454.428 776.542,436.015 797.047,426.809 817.553,408.397 838.058,399.191 858.564,389.985 879.07,389.985 899.61,362.367 920.115,353.161 940.621,353.161 961.127,343.955 981.632,334.749 1002.14,325.543 1022.64,316.337 1043.18,316.337 1063.69,297.925 1084.19,297.925 1104.7,288.719 1125.21,279.513 1145.71,288.719 1166.22,279.513 1186.72,279.513 1207.26,270.307 1227.77,270.307 1248.27,270.307 1268.78,251.895 1289.29,251.895 1309.79,251.895 1330.3,242.688 1350.84,233.482 1371.34,242.688 1391.85,233.482 1412.35,224.276 1432.86,224.276 1453.36,215.07 1473.87,215.07 1494.41,205.864 1514.92,205.864 1535.42,205.864 1555.93,205.864 1576.43,205.864 1596.94,205.864 1617.44,196.658 1637.95,196.658 1658.49,196.658 1679,187.452 1699.5,187.452 1720.01,187.452 1740.51,178.246 1761.02,178.246 1781.52,178.246 1802.03,178.246 1822.57,178.246 1843.07,169.04 1863.58,169.04 1884.09,169.04 1904.59,169.04 1925.1,169.04 1945.6,159.834 1966.14,159.834 1986.65,159.834 2007.15,159.834 2027.66,150.628 2048.17,150.628 2068.67,150.628 2089.18,141.422 2109.72,141.422 2130.22,132.216 2150.73,123.01 2171.23,123.01 2191.74,123.01 2212.24,123.01 2232.75,113.804 2253.29,95.3917 2273.8,86.1857 2294.3,95.3917 "/>
<path clip-path="url(#clip662)" d="M345.82 1331.41 L330.604 1342.47 L336.412 1360.36 L355.228 1360.36 L361.036 1342.47 Z" fill="#07519c" fill-rule="evenodd" fill-opacity="1" stroke="#000000" stroke-opacity="1" stroke-width="3.2"/>
<path clip-path="url(#clip662)" d="M591.957 558.106 L576.741 569.162 L582.549 587.05 L601.365 587.05 L607.173 569.162 Z" fill="#07519c" fill-rule="evenodd" fill-opacity="1" stroke="#000000" stroke-opacity="1" stroke-width="3.2"/>
<path clip-path="url(#clip662)" d="M838.058 383.191 L822.842 394.247 L828.65 412.135 L847.466 412.135 L853.274 394.247 Z" fill="#07519c" fill-rule="evenodd" fill-opacity="1" stroke="#000000" stroke-opacity="1" stroke-width="3.2"/>
<path clip-path="url(#clip662)" d="M1084.19 281.925 L1068.98 292.981 L1074.79 310.869 L1093.6 310.869 L1099.41 292.981 Z" fill="#07519c" fill-rule="evenodd" fill-opacity="1" stroke="#000000" stroke-opacity="1" stroke-width="3.2"/>
<path clip-path="url(#clip662)" d="M1330.3 226.688 L1315.08 237.744 L1320.89 255.632 L1339.7 255.632 L1345.51 237.744 Z" fill="#07519c" fill-rule="evenodd" fill-opacity="1" stroke="#000000" stroke-opacity="1" stroke-width="3.2"/>
<path clip-path="url(#clip662)" d="M1576.43 189.864 L1561.22 200.92 L1567.02 218.808 L1585.84 218.808 L1591.65 200.92 Z" fill="#07519c" fill-rule="evenodd" fill-opacity="1" stroke="#000000" stroke-opacity="1" stroke-width="3.2"/>
<path clip-path="url(#clip662)" d="M1822.57 162.246 L1807.35 173.302 L1813.16 191.19 L1831.98 191.19 L1837.78 173.302 Z" fill="#07519c" fill-rule="evenodd" fill-opacity="1" stroke="#000000" stroke-opacity="1" stroke-width="3.2"/>
<path clip-path="url(#clip662)" d="M2068.67 134.628 L2053.45 145.684 L2059.26 163.572 L2078.08 163.572 L2083.89 145.684 Z" fill="#07519c" fill-rule="evenodd" fill-opacity="1" stroke="#000000" stroke-opacity="1" stroke-width="3.2"/>
<path clip-path="url(#clip660)" d="M1869.73 1377.32 L2283.91 1377.32 L2283.91 1169.96 L1869.73 1169.96  Z" fill="#ffffff" fill-rule="evenodd" fill-opacity="1"/>
<polyline clip-path="url(#clip660)" style="stroke:#000000; stroke-linecap:round; stroke-linejoin:round; stroke-width:4; stroke-opacity:1; fill:none" points="1869.73,1377.32 2283.91,1377.32 2283.91,1169.96 1869.73,1169.96 1869.73,1377.32 "/>
<polyline clip-path="url(#clip660)" style="stroke:#07519c; stroke-linecap:round; stroke-linejoin:round; stroke-width:4; stroke-opacity:1; fill:none" points="1892.68,1221.8 2030.37,1221.8 "/>
<circle clip-path="url(#clip660)" cx="1961.53" cy="1221.8" r="19.124" fill="#07519c" fill-rule="evenodd" fill-opacity="1" stroke="#000000" stroke-opacity="1" stroke-width="4.55111"/>
<path clip-path="url(#clip660)" d="M2085.95 1198.89 Q2085.95 1199.33 2085.86 1199.71 L2084.54 1208.04 Q2084.47 1208.68 2084.33 1208.91 Q2084.22 1209.14 2083.84 1209.14 Q2083.26 1209.14 2083.26 1208.54 Q2083.26 1208.18 2083.4 1207.62 Q2083.79 1204.98 2083.79 1203.78 Q2083.79 1202.98 2083.63 1202.4 Q2083.49 1201.79 2083.26 1201.37 Q2083.05 1200.95 2082.55 1200.67 Q2082.06 1200.38 2081.59 1200.22 Q2081.12 1200.06 2080.28 1199.99 Q2079.44 1199.89 2078.71 1199.87 Q2077.99 1199.85 2076.79 1199.85 Q2074.19 1199.85 2073.77 1199.94 Q2073.32 1200.06 2073.09 1200.41 Q2072.88 1200.74 2072.65 1201.72 L2066.27 1227.18 L2066.09 1228.19 Q2066.09 1228.75 2066.44 1228.94 Q2066.79 1229.12 2067.87 1229.24 Q2069.41 1229.36 2070.94 1229.36 Q2070.98 1229.36 2071.08 1229.36 Q2071.59 1229.36 2071.8 1229.38 Q2072.01 1229.38 2072.22 1229.43 Q2072.43 1229.48 2072.48 1229.59 Q2072.55 1229.69 2072.55 1229.87 Q2072.55 1230.32 2072.36 1230.55 Q2072.18 1230.76 2071.99 1230.81 Q2071.83 1230.83 2071.5 1230.83 Q2070.84 1230.83 2069.44 1230.79 Q2068.03 1230.74 2067.33 1230.74 L2063.35 1230.69 L2059.27 1230.74 Q2058.64 1230.74 2057.3 1230.79 Q2055.97 1230.83 2055.34 1230.83 Q2054.52 1230.83 2054.52 1230.25 Q2054.52 1229.59 2054.82 1229.48 Q2055.15 1229.36 2056.53 1229.36 Q2058.48 1229.36 2059.53 1229.26 Q2060.58 1229.17 2061.15 1228.84 Q2061.73 1228.52 2061.89 1228.19 Q2062.06 1227.84 2062.25 1227.04 L2068.69 1201.44 Q2068.87 1200.88 2068.87 1200.43 Q2068.87 1200.2 2068.8 1200.1 Q2068.76 1200.01 2068.45 1199.94 Q2068.15 1199.85 2067.52 1199.85 L2065.64 1199.85 Q2063.72 1199.85 2062.53 1199.94 Q2061.36 1200.01 2060.23 1200.36 Q2059.13 1200.71 2058.48 1201.2 Q2057.84 1201.7 2057.14 1202.7 Q2056.44 1203.71 2055.92 1204.93 Q2055.43 1206.15 2054.73 1208.14 Q2054.49 1208.79 2054.35 1208.98 Q2054.24 1209.14 2053.91 1209.14 Q2053.67 1209.14 2053.49 1209 Q2053.32 1208.84 2053.32 1208.63 Q2053.56 1207.86 2053.6 1207.76 L2056.48 1199.31 Q2056.72 1198.63 2056.93 1198.51 Q2057.16 1198.37 2058.03 1198.37 L2084.64 1198.37 Q2085.06 1198.37 2085.2 1198.37 Q2085.34 1198.37 2085.57 1198.42 Q2085.81 1198.46 2085.88 1198.58 Q2085.95 1198.7 2085.95 1198.89 Z" fill="#000000" fill-rule="nonzero" fill-opacity="1" /><path clip-path="url(#clip660)" d="M2090.74 1231.47 L2090.74 1230.42 L2093.38 1230.42 L2093.38 1226.57 Q2093.38 1224.07 2094.99 1222.65 Q2096.61 1221.22 2098.59 1221.22 Q2099.9 1221.22 2100.76 1221.93 Q2101.61 1222.63 2101.61 1223.58 Q2101.61 1224.22 2101.22 1224.65 Q2100.84 1225.06 2100.13 1225.06 Q2099.46 1225.06 2099.07 1224.63 Q2098.69 1224.21 2098.69 1223.62 Q2098.69 1222.53 2099.69 1222.21 Q2099.18 1221.98 2098.59 1221.96 Q2097.38 1221.96 2096.43 1223.21 Q2095.49 1224.45 2095.49 1226.53 L2095.49 1230.42 L2099.43 1230.42 L2099.43 1231.47 L2095.61 1231.47 L2095.61 1242.27 Q2095.61 1243.24 2096 1243.55 Q2096.41 1243.86 2098.15 1243.86 L2098.85 1243.86 L2098.85 1244.9 Q2097.51 1244.8 2094.59 1244.8 Q2094.18 1244.8 2093.54 1244.82 Q2092.92 1244.83 2092.07 1244.86 Q2091.23 1244.9 2090.77 1244.9 L2090.77 1243.86 Q2092.56 1243.86 2092.97 1243.65 Q2093.38 1243.42 2093.38 1242.34 L2093.38 1231.47 L2090.74 1231.47 Z" fill="#000000" fill-rule="nonzero" fill-opacity="1" /><path clip-path="url(#clip660)" d="M2105.17 1225.73 L2105.17 1224.68 Q2109.2 1224.68 2111.29 1222.53 Q2111.86 1222.53 2111.96 1222.66 Q2112.06 1222.8 2112.06 1223.4 L2112.06 1242.24 Q2112.06 1243.24 2112.55 1243.55 Q2113.04 1243.86 2115.19 1243.86 L2116.25 1243.86 L2116.25 1244.9 Q2115.07 1244.8 2110.81 1244.8 Q2106.55 1244.8 2105.38 1244.9 L2105.38 1243.86 L2106.45 1243.86 Q2108.56 1243.86 2109.07 1243.57 Q2109.58 1243.26 2109.58 1242.24 L2109.58 1224.85 Q2107.83 1225.73 2105.17 1225.73 Z" fill="#000000" fill-rule="nonzero" fill-opacity="1" /><path clip-path="url(#clip660)" d="M2128.81 1224.95 L2133.7 1224.95 L2133.7 1228.94 L2129.9 1236.34 L2126.92 1236.34 L2128.81 1228.94 L2128.81 1224.95 Z" fill="#000000" fill-rule="nonzero" fill-opacity="1" /><path clip-path="url(#clip660)" d="M2180.04 1216.81 L2180.04 1218.89 L2160.46 1218.89 Q2160.73 1223.29 2163.1 1225.6 Q2165.48 1227.89 2169.72 1227.89 Q2172.17 1227.89 2174.46 1227.29 Q2176.78 1226.69 2179.05 1225.49 L2179.05 1229.51 Q2176.75 1230.49 2174.35 1231 Q2171.94 1231.51 2169.46 1231.51 Q2163.26 1231.51 2159.62 1227.89 Q2156.01 1224.28 2156.01 1218.13 Q2156.01 1211.76 2159.44 1208.03 Q2162.89 1204.28 2168.72 1204.28 Q2173.95 1204.28 2176.98 1207.66 Q2180.04 1211.02 2180.04 1216.81 M2175.78 1215.56 Q2175.73 1212.06 2173.81 1209.98 Q2171.92 1207.89 2168.77 1207.89 Q2165.2 1207.89 2163.05 1209.91 Q2160.92 1211.92 2160.6 1215.58 L2175.78 1215.56 Z" fill="#000000" fill-rule="nonzero" fill-opacity="1" /><path clip-path="url(#clip660)" d="M2207.75 1204.91 L2198.37 1217.52 L2208.23 1230.83 L2203.21 1230.83 L2195.67 1220.65 L2188.12 1230.83 L2183.1 1230.83 L2193.17 1217.27 L2183.95 1204.91 L2188.98 1204.91 L2195.85 1214.14 L2202.73 1204.91 L2207.75 1204.91 Z" fill="#000000" fill-rule="nonzero" fill-opacity="1" /><path clip-path="url(#clip660)" d="M2218.37 1226.95 L2218.37 1240.69 L2214.09 1240.69 L2214.09 1204.91 L2218.37 1204.91 L2218.37 1208.84 Q2219.72 1206.53 2221.75 1205.42 Q2223.81 1204.28 2226.66 1204.28 Q2231.38 1204.28 2234.32 1208.03 Q2237.29 1211.78 2237.29 1217.89 Q2237.29 1224.01 2234.32 1227.76 Q2231.38 1231.51 2226.66 1231.51 Q2223.81 1231.51 2221.75 1230.39 Q2219.72 1229.26 2218.37 1226.95 M2232.86 1217.89 Q2232.86 1213.2 2230.92 1210.53 Q2229 1207.85 2225.62 1207.85 Q2222.24 1207.85 2220.29 1210.53 Q2218.37 1213.2 2218.37 1217.89 Q2218.37 1222.59 2220.29 1225.28 Q2222.24 1227.94 2225.62 1227.94 Q2229 1227.94 2230.92 1225.28 Q2232.86 1222.59 2232.86 1217.89 Z" fill="#000000" fill-rule="nonzero" fill-opacity="1" /><path clip-path="url(#clip660)" d="M2244.95 1224.95 L2249.83 1224.95 L2249.83 1230.83 L2244.95 1230.83 L2244.95 1224.95 Z" fill="#000000" fill-rule="nonzero" fill-opacity="1" /><polyline clip-path="url(#clip660)" style="stroke:#3082bc; stroke-linecap:round; stroke-linejoin:round; stroke-width:4; stroke-opacity:1; fill:none" points="1892.68,1273.64 2030.37,1273.64 "/>
<path clip-path="url(#clip660)" d="M1940.28 1252.39 L1940.28 1294.88 L1982.78 1294.88 L1982.78 1252.39 L1940.28 1252.39 Z" fill="#3082bc" fill-rule="evenodd" fill-opacity="1" stroke="#000000" stroke-opacity="1" stroke-width="4.55111"/>
<path clip-path="url(#clip660)" d="M2085.95 1250.73 Q2085.95 1251.17 2085.86 1251.55 L2084.54 1259.88 Q2084.47 1260.52 2084.33 1260.75 Q2084.22 1260.98 2083.84 1260.98 Q2083.26 1260.98 2083.26 1260.38 Q2083.26 1260.02 2083.4 1259.46 Q2083.79 1256.82 2083.79 1255.62 Q2083.79 1254.82 2083.63 1254.24 Q2083.49 1253.63 2083.26 1253.21 Q2083.05 1252.79 2082.55 1252.51 Q2082.06 1252.22 2081.59 1252.06 Q2081.12 1251.9 2080.28 1251.83 Q2079.44 1251.73 2078.71 1251.71 Q2077.99 1251.69 2076.79 1251.69 Q2074.19 1251.69 2073.77 1251.78 Q2073.32 1251.9 2073.09 1252.25 Q2072.88 1252.58 2072.65 1253.56 L2066.27 1279.02 L2066.09 1280.03 Q2066.09 1280.59 2066.44 1280.78 Q2066.79 1280.96 2067.87 1281.08 Q2069.41 1281.2 2070.94 1281.2 Q2070.98 1281.2 2071.08 1281.2 Q2071.59 1281.2 2071.8 1281.22 Q2072.01 1281.22 2072.22 1281.27 Q2072.43 1281.32 2072.48 1281.43 Q2072.55 1281.53 2072.55 1281.71 Q2072.55 1282.16 2072.36 1282.39 Q2072.18 1282.6 2071.99 1282.65 Q2071.83 1282.67 2071.5 1282.67 Q2070.84 1282.67 2069.44 1282.63 Q2068.03 1282.58 2067.33 1282.58 L2063.35 1282.53 L2059.27 1282.58 Q2058.64 1282.58 2057.3 1282.63 Q2055.97 1282.67 2055.34 1282.67 Q2054.52 1282.67 2054.52 1282.09 Q2054.52 1281.43 2054.82 1281.32 Q2055.15 1281.2 2056.53 1281.2 Q2058.48 1281.2 2059.53 1281.1 Q2060.58 1281.01 2061.15 1280.68 Q2061.73 1280.36 2061.89 1280.03 Q2062.06 1279.68 2062.25 1278.88 L2068.69 1253.28 Q2068.87 1252.72 2068.87 1252.27 Q2068.87 1252.04 2068.8 1251.94 Q2068.76 1251.85 2068.45 1251.78 Q2068.15 1251.69 2067.52 1251.69 L2065.64 1251.69 Q2063.72 1251.69 2062.53 1251.78 Q2061.36 1251.85 2060.23 1252.2 Q2059.13 1252.55 2058.48 1253.04 Q2057.84 1253.54 2057.14 1254.54 Q2056.44 1255.55 2055.92 1256.77 Q2055.43 1257.99 2054.73 1259.98 Q2054.49 1260.63 2054.35 1260.82 Q2054.24 1260.98 2053.91 1260.98 Q2053.67 1260.98 2053.49 1260.84 Q2053.32 1260.68 2053.32 1260.47 Q2053.56 1259.7 2053.6 1259.6 L2056.48 1251.15 Q2056.72 1250.47 2056.93 1250.35 Q2057.16 1250.21 2058.03 1250.21 L2084.64 1250.21 Q2085.06 1250.21 2085.2 1250.21 Q2085.34 1250.21 2085.57 1250.26 Q2085.81 1250.3 2085.88 1250.42 Q2085.95 1250.54 2085.95 1250.73 Z" fill="#000000" fill-rule="nonzero" fill-opacity="1" /><path clip-path="url(#clip660)" d="M2090.74 1283.31 L2090.74 1282.26 L2093.38 1282.26 L2093.38 1278.41 Q2093.38 1275.91 2094.99 1274.49 Q2096.61 1273.06 2098.59 1273.06 Q2099.9 1273.06 2100.76 1273.77 Q2101.61 1274.47 2101.61 1275.42 Q2101.61 1276.06 2101.22 1276.49 Q2100.84 1276.9 2100.13 1276.9 Q2099.46 1276.9 2099.07 1276.47 Q2098.69 1276.05 2098.69 1275.46 Q2098.69 1274.37 2099.69 1274.05 Q2099.18 1273.82 2098.59 1273.8 Q2097.38 1273.8 2096.43 1275.05 Q2095.49 1276.29 2095.49 1278.37 L2095.49 1282.26 L2099.43 1282.26 L2099.43 1283.31 L2095.61 1283.31 L2095.61 1294.11 Q2095.61 1295.08 2096 1295.39 Q2096.41 1295.7 2098.15 1295.7 L2098.85 1295.7 L2098.85 1296.74 Q2097.51 1296.64 2094.59 1296.64 Q2094.18 1296.64 2093.54 1296.66 Q2092.92 1296.67 2092.07 1296.7 Q2091.23 1296.74 2090.77 1296.74 L2090.77 1295.7 Q2092.56 1295.7 2092.97 1295.49 Q2093.38 1295.26 2093.38 1294.18 L2093.38 1283.31 L2090.74 1283.31 Z" fill="#000000" fill-rule="nonzero" fill-opacity="1" /><path clip-path="url(#clip660)" d="M2103.96 1296.74 Q2103.96 1296.13 2104.01 1295.95 Q2104.08 1295.77 2104.34 1295.49 L2110.78 1288.31 Q2114.31 1284.34 2114.31 1280.88 Q2114.31 1278.64 2113.13 1277.03 Q2111.96 1275.42 2109.81 1275.42 Q2108.34 1275.42 2107.09 1276.32 Q2105.85 1277.23 2105.27 1278.83 Q2105.37 1278.8 2105.72 1278.8 Q2106.55 1278.8 2107.01 1279.33 Q2107.49 1279.85 2107.49 1280.55 Q2107.49 1281.46 2106.9 1281.9 Q2106.32 1282.33 2105.75 1282.33 Q2105.52 1282.33 2105.21 1282.28 Q2104.91 1282.23 2104.44 1281.77 Q2103.96 1281.29 2103.96 1280.46 Q2103.96 1278.11 2105.73 1276.24 Q2107.52 1274.37 2110.24 1274.37 Q2113.32 1274.37 2115.34 1276.21 Q2117.37 1278.03 2117.37 1280.88 Q2117.37 1281.88 2117.06 1282.8 Q2116.77 1283.7 2116.36 1284.41 Q2115.96 1285.11 2114.88 1286.24 Q2113.8 1287.38 2112.93 1288.18 Q2112.06 1288.98 2110.11 1290.69 L2106.55 1294.15 L2112.6 1294.15 Q2115.55 1294.15 2115.78 1293.88 Q2116.11 1293.41 2116.52 1290.9 L2117.37 1290.9 L2116.42 1296.74 L2103.96 1296.74 Z" fill="#000000" fill-rule="nonzero" fill-opacity="1" /><path clip-path="url(#clip660)" d="M2127.6 1276.79 L2132.49 1276.79 L2132.49 1280.78 L2128.69 1288.18 L2125.71 1288.18 L2127.6 1280.78 L2127.6 1276.79 Z" fill="#000000" fill-rule="nonzero" fill-opacity="1" /><path clip-path="url(#clip660)" d="M2178.83 1268.65 L2178.83 1270.73 L2159.25 1270.73 Q2159.53 1275.13 2161.89 1277.44 Q2164.27 1279.73 2168.51 1279.73 Q2170.96 1279.73 2173.25 1279.13 Q2175.57 1278.53 2177.84 1277.33 L2177.84 1281.35 Q2175.54 1282.33 2173.14 1282.84 Q2170.73 1283.35 2168.25 1283.35 Q2162.05 1283.35 2158.41 1279.73 Q2154.8 1276.12 2154.8 1269.97 Q2154.8 1263.6 2158.23 1259.87 Q2161.68 1256.12 2167.51 1256.12 Q2172.74 1256.12 2175.78 1259.5 Q2178.83 1262.86 2178.83 1268.65 M2174.57 1267.4 Q2174.53 1263.9 2172.6 1261.82 Q2170.71 1259.73 2167.56 1259.73 Q2163.99 1259.73 2161.84 1261.75 Q2159.71 1263.76 2159.39 1267.42 L2174.57 1267.4 Z" fill="#000000" fill-rule="nonzero" fill-opacity="1" /><path clip-path="url(#clip660)" d="M2206.54 1256.75 L2197.16 1269.36 L2207.03 1282.67 L2202 1282.67 L2194.46 1272.49 L2186.91 1282.67 L2181.89 1282.67 L2191.96 1269.11 L2182.74 1256.75 L2187.77 1256.75 L2194.64 1265.98 L2201.52 1256.75 L2206.54 1256.75 Z" fill="#000000" fill-rule="nonzero" fill-opacity="1" /><path clip-path="url(#clip660)" d="M2217.16 1278.79 L2217.16 1292.53 L2212.88 1292.53 L2212.88 1256.75 L2217.16 1256.75 L2217.16 1260.68 Q2218.51 1258.37 2220.54 1257.26 Q2222.6 1256.12 2225.45 1256.12 Q2230.17 1256.12 2233.11 1259.87 Q2236.08 1263.62 2236.08 1269.73 Q2236.08 1275.85 2233.11 1279.6 Q2230.17 1283.35 2225.45 1283.35 Q2222.6 1283.35 2220.54 1282.23 Q2218.51 1281.1 2217.16 1278.79 M2231.65 1269.73 Q2231.65 1265.04 2229.71 1262.37 Q2227.79 1259.69 2224.41 1259.69 Q2221.03 1259.69 2219.09 1262.37 Q2217.16 1265.04 2217.16 1269.73 Q2217.16 1274.43 2219.09 1277.12 Q2221.03 1279.78 2224.41 1279.78 Q2227.79 1279.78 2229.71 1277.12 Q2231.65 1274.43 2231.65 1269.73 Z" fill="#000000" fill-rule="nonzero" fill-opacity="1" /><path clip-path="url(#clip660)" d="M2243.74 1276.79 L2248.62 1276.79 L2248.62 1282.67 L2243.74 1282.67 L2243.74 1276.79 Z" fill="#000000" fill-rule="nonzero" fill-opacity="1" /><polyline clip-path="url(#clip660)" style="stroke:#07519c; stroke-linecap:round; stroke-linejoin:round; stroke-width:4; stroke-opacity:1; fill:none" stroke-dasharray="16, 10" points="1892.68,1325.48 2030.37,1325.48 "/>
<path clip-path="url(#clip660)" d="M1961.53 1304.23 L1941.32 1318.91 L1949.03 1342.67 L1974.02 1342.67 L1981.73 1318.91 Z" fill="#07519c" fill-rule="evenodd" fill-opacity="1" stroke="#000000" stroke-opacity="1" stroke-width="4.55111"/>
<path clip-path="url(#clip660)" d="M2085.95 1305.11 Q2085.95 1305.55 2085.86 1305.93 L2084.54 1314.27 Q2084.47 1314.9 2084.33 1315.13 Q2084.22 1315.37 2083.84 1315.37 Q2083.26 1315.37 2083.26 1314.76 Q2083.26 1314.41 2083.4 1313.85 Q2083.79 1311.2 2083.79 1310.01 Q2083.79 1309.21 2083.63 1308.62 Q2083.49 1308.01 2083.26 1307.59 Q2083.05 1307.17 2082.55 1306.89 Q2082.06 1306.61 2081.59 1306.44 Q2081.12 1306.28 2080.28 1306.21 Q2079.44 1306.12 2078.71 1306.09 Q2077.99 1306.07 2076.79 1306.07 Q2074.19 1306.07 2073.77 1306.16 Q2073.32 1306.28 2073.09 1306.63 Q2072.88 1306.96 2072.65 1307.94 L2066.27 1333.4 L2066.09 1334.41 Q2066.09 1334.97 2066.44 1335.16 Q2066.79 1335.35 2067.87 1335.47 Q2069.41 1335.58 2070.94 1335.58 Q2070.98 1335.58 2071.08 1335.58 Q2071.59 1335.58 2071.8 1335.61 Q2072.01 1335.61 2072.22 1335.65 Q2072.43 1335.7 2072.48 1335.82 Q2072.55 1335.91 2072.55 1336.1 Q2072.55 1336.54 2072.36 1336.78 Q2072.18 1336.99 2071.99 1337.03 Q2071.83 1337.06 2071.5 1337.06 Q2070.84 1337.06 2069.44 1337.01 Q2068.03 1336.96 2067.33 1336.96 L2063.35 1336.92 L2059.27 1336.96 Q2058.64 1336.96 2057.3 1337.01 Q2055.97 1337.06 2055.34 1337.06 Q2054.52 1337.06 2054.52 1336.47 Q2054.52 1335.82 2054.82 1335.7 Q2055.15 1335.58 2056.53 1335.58 Q2058.48 1335.58 2059.53 1335.49 Q2060.58 1335.39 2061.15 1335.07 Q2061.73 1334.74 2061.89 1334.41 Q2062.06 1334.06 2062.25 1333.26 L2068.69 1307.66 Q2068.87 1307.1 2068.87 1306.66 Q2068.87 1306.42 2068.8 1306.33 Q2068.76 1306.23 2068.45 1306.16 Q2068.15 1306.07 2067.52 1306.07 L2065.64 1306.07 Q2063.72 1306.07 2062.53 1306.16 Q2061.36 1306.23 2060.23 1306.59 Q2059.13 1306.94 2058.48 1307.43 Q2057.84 1307.92 2057.14 1308.93 Q2056.44 1309.93 2055.92 1311.15 Q2055.43 1312.37 2054.73 1314.36 Q2054.49 1315.02 2054.35 1315.2 Q2054.24 1315.37 2053.91 1315.37 Q2053.67 1315.37 2053.49 1315.23 Q2053.32 1315.06 2053.32 1314.85 Q2053.56 1314.08 2053.6 1313.99 L2056.48 1305.53 Q2056.72 1304.85 2056.93 1304.74 Q2057.16 1304.59 2058.03 1304.59 L2084.64 1304.59 Q2085.06 1304.59 2085.2 1304.59 Q2085.34 1304.59 2085.57 1304.64 Q2085.81 1304.69 2085.88 1304.81 Q2085.95 1304.92 2085.95 1305.11 Z" fill="#000000" fill-rule="nonzero" fill-opacity="1" /><path clip-path="url(#clip660)" d="M2090.74 1332.23 L2090.74 1331.18 Q2092.25 1331.28 2094 1331.28 Q2094.64 1331.28 2097.66 1331.18 L2097.66 1332.23 Q2095.74 1332.23 2095.74 1333.1 Q2095.74 1333.23 2095.94 1333.68 L2099.71 1343.04 L2103.13 1334.48 Q2103.33 1333.91 2103.33 1333.68 Q2103.33 1333.1 2102.94 1332.69 Q2102.56 1332.27 2101.72 1332.23 L2101.72 1331.18 Q2103.43 1331.28 2104.64 1331.28 Q2106.02 1331.28 2107.15 1331.18 L2107.15 1332.23 Q2106.15 1332.23 2105.45 1332.69 Q2104.74 1333.14 2104.51 1333.53 Q2104.3 1333.91 2104.07 1334.48 L2099.67 1345.4 Q2099.41 1346.04 2098.97 1346.04 Q2098.67 1346.04 2098.54 1345.91 Q2098.43 1345.79 2098.26 1345.4 L2093.43 1333.48 Q2093.1 1332.64 2092.67 1332.45 Q2092.25 1332.23 2090.74 1332.23 Z" fill="#000000" fill-rule="nonzero" fill-opacity="1" /><path clip-path="url(#clip660)" d="M2108.93 1332.23 L2108.93 1331.18 Q2110.75 1331.28 2112.04 1331.28 Q2112.68 1331.28 2115.72 1331.18 L2115.72 1332.23 Q2113.73 1332.23 2113.73 1333.14 Q2113.73 1333.33 2113.9 1333.74 L2117.09 1342.71 L2119.98 1334.58 Q2119.37 1332.94 2119.21 1332.74 Q2118.8 1332.23 2117.09 1332.23 L2117.09 1331.18 Q2118.6 1331.28 2120.08 1331.28 Q2120.65 1331.28 2123.57 1331.18 L2123.57 1332.23 Q2121.59 1332.23 2121.59 1333.14 Q2121.59 1333.27 2121.75 1333.77 L2125.08 1343.14 L2128.13 1334.55 Q2128.29 1334.1 2128.31 1333.84 Q2128.31 1333.1 2127.78 1332.69 Q2127.26 1332.27 2126.36 1332.23 L2126.36 1331.18 Q2128.28 1331.28 2129.47 1331.28 Q2130.82 1331.28 2131.93 1331.18 L2131.93 1332.23 Q2129.85 1332.3 2129.11 1334.38 L2125.18 1345.4 Q2124.8 1346.01 2124.5 1346.04 Q2124.06 1346.04 2123.83 1345.4 L2120.41 1335.86 L2117.01 1345.37 Q2116.88 1345.78 2116.77 1345.91 Q2116.65 1346.04 2116.34 1346.04 Q2116.04 1346.04 2115.91 1345.86 Q2115.78 1345.69 2115.63 1345.28 L2111.4 1333.4 Q2111.11 1332.63 2110.67 1332.43 Q2110.24 1332.23 2108.93 1332.23 Z" fill="#000000" fill-rule="nonzero" fill-opacity="1" /><path clip-path="url(#clip660)" d="M2139.94 1331.18 L2144.83 1331.18 L2144.83 1335.16 L2141.03 1342.57 L2138.04 1342.57 L2139.94 1335.16 L2139.94 1331.18 Z" fill="#000000" fill-rule="nonzero" fill-opacity="1" /><path clip-path="url(#clip660)" d="M2191.17 1323.03 L2191.17 1325.11 L2171.59 1325.11 Q2171.86 1329.51 2174.23 1331.83 Q2176.61 1334.12 2180.85 1334.12 Q2183.3 1334.12 2185.59 1333.52 Q2187.91 1332.91 2190.17 1331.71 L2190.17 1335.74 Q2187.88 1336.71 2185.48 1337.22 Q2183.07 1337.73 2180.59 1337.73 Q2174.39 1337.73 2170.75 1334.12 Q2167.14 1330.51 2167.14 1324.35 Q2167.14 1317.98 2170.57 1314.26 Q2174.02 1310.51 2179.85 1310.51 Q2185.08 1310.51 2188.11 1313.89 Q2191.17 1317.24 2191.17 1323.03 M2186.91 1321.78 Q2186.86 1318.28 2184.94 1316.2 Q2183.04 1314.12 2179.9 1314.12 Q2176.33 1314.12 2174.18 1316.13 Q2172.05 1318.15 2171.73 1321.8 L2186.91 1321.78 Z" fill="#000000" fill-rule="nonzero" fill-opacity="1" /><path clip-path="url(#clip660)" d="M2218.88 1311.13 L2209.5 1323.75 L2219.36 1337.06 L2214.34 1337.06 L2206.79 1326.87 L2199.25 1337.06 L2194.23 1337.06 L2204.29 1323.49 L2195.08 1311.13 L2200.1 1311.13 L2206.98 1320.37 L2213.85 1311.13 L2218.88 1311.13 Z" fill="#000000" fill-rule="nonzero" fill-opacity="1" /><path clip-path="url(#clip660)" d="M2229.5 1333.17 L2229.5 1346.92 L2225.22 1346.92 L2225.22 1311.13 L2229.5 1311.13 L2229.5 1315.07 Q2230.85 1312.75 2232.88 1311.64 Q2234.94 1310.51 2237.79 1310.51 Q2242.51 1310.51 2245.45 1314.26 Q2248.41 1318.01 2248.41 1324.12 Q2248.41 1330.23 2245.45 1333.98 Q2242.51 1337.73 2237.79 1337.73 Q2234.94 1337.73 2232.88 1336.62 Q2230.85 1335.48 2229.5 1333.17 M2243.99 1324.12 Q2243.99 1319.42 2242.05 1316.76 Q2240.13 1314.07 2236.75 1314.07 Q2233.37 1314.07 2231.42 1316.76 Q2229.5 1319.42 2229.5 1324.12 Q2229.5 1328.82 2231.42 1331.5 Q2233.37 1334.16 2236.75 1334.16 Q2240.13 1334.16 2242.05 1331.5 Q2243.99 1328.82 2243.99 1324.12 Z" fill="#000000" fill-rule="nonzero" fill-opacity="1" /><path clip-path="url(#clip660)" d="M2256.08 1331.18 L2260.96 1331.18 L2260.96 1337.06 L2256.08 1337.06 L2256.08 1331.18 Z" fill="#000000" fill-rule="nonzero" fill-opacity="1" /></svg>
