<?xml version="1.0" encoding="utf-8"?>
<svg xmlns="http://www.w3.org/2000/svg" xmlns:xlink="http://www.w3.org/1999/xlink" width="600" height="400" viewBox="0 0 2400 1600">
<defs>
  <clipPath id="clip150">
    <rect x="0" y="0" width="2400" height="1600"/>
  </clipPath>
</defs>
<path clip-path="url(#clip150)" d="M0 1600 L2400 1600 L2400 0 L0 0  Z" fill="#ffffff" fill-rule="evenodd" fill-opacity="1"/>
<defs>
  <clipPath id="clip151">
    <rect x="219" y="47" width="2134" height="1377"/>
  </clipPath>
</defs>
<path clip-path="url(#clip150)" d="M219.866 1423.18 L2352.76 1423.18 L2352.76 47.2441 L219.866 47.2441  Z" fill="#ffffff" fill-rule="evenodd" fill-opacity="1"/>
<polyline clip-path="url(#clip151)" style="stroke:#000000; stroke-linecap:round; stroke-linejoin:round; stroke-width:2; stroke-opacity:0.1; fill:none" points="333.533,1423.18 333.533,47.2441 "/>
<polyline clip-path="url(#clip151)" style="stroke:#000000; stroke-linecap:round; stroke-linejoin:round; stroke-width:2; stroke-opacity:0.1; fill:none" points="939.241,1423.18 939.241,47.2441 "/>
<polyline clip-path="url(#clip151)" style="stroke:#000000; stroke-linecap:round; stroke-linejoin:round; stroke-width:2; stroke-opacity:0.1; fill:none" points="1544.95,1423.18 1544.95,47.2441 "/>
<polyline clip-path="url(#clip151)" style="stroke:#000000; stroke-linecap:round; stroke-linejoin:round; stroke-width:2; stroke-opacity:0.1; fill:none" points="2150.66,1423.18 2150.66,47.2441 "/>
<polyline clip-path="url(#clip151)" style="stroke:#000000; stroke-linecap:round; stroke-linejoin:round; stroke-width:2; stroke-opacity:0.1; fill:none" points="219.866,1198.8 2352.76,1198.8 "/>
<polyline clip-path="url(#clip151)" style="stroke:#000000; stroke-linecap:round; stroke-linejoin:round; stroke-width:2; stroke-opacity:0.1; fill:none" points="219.866,827.93 2352.76,827.93 "/>
<polyline clip-path="url(#clip151)" style="stroke:#000000; stroke-linecap:round; stroke-linejoin:round; stroke-width:2; stroke-opacity:0.1; fill:none" points="219.866,457.058 2352.76,457.058 "/>
<polyline clip-path="url(#clip151)" style="stroke:#000000; stroke-linecap:round; stroke-linejoin:round; stroke-width:2; stroke-opacity:0.1; fill:none" points="219.866,86.1857 2352.76,86.1857 "/>
<polyline clip-path="url(#clip150)" style="stroke:#000000; stroke-linecap:round; stroke-linejoin:round; stroke-width:4; stroke-opacity:1; fill:none" points="219.866,1423.18 2352.76,1423.18 "/>
<polyline clip-path="url(#clip150)" style="stroke:#000000; stroke-linecap:round; stroke-linejoin:round; stroke-width:4; stroke-opacity:1; fill:none" points="333.533,1423.18 333.533,1404.28 "/>
<polyline clip-path="url(#clip150)" style="stroke:#000000; stroke-linecap:round; stroke-linejoin:round; stroke-width:4; stroke-opacity:1; fill:none" points="939.241,1423.18 939.241,1404.28 "/>
<polyline clip-path="url(#clip150)" style="stroke:#000000; stroke-linecap:round; stroke-linejoin:round; stroke-width:4; stroke-opacity:1; fill:none" points="1544.95,1423.18 1544.95,1404.28 "/>
<polyline clip-path="url(#clip150)" style="stroke:#000000; stroke-linecap:round; stroke-linejoin:round; stroke-width:4; stroke-opacity:1; fill:none" points="2150.66,1423.18 2150.66,1404.28 "/>
<path clip-path="url(#clip150)" d="M308.233 1451.02 L326.589 1451.02 L326.589 1454.96 L312.515 1454.96 L312.515 1463.43 Q313.533 1463.08 314.552 1462.92 Q315.57 1462.73 316.589 1462.73 Q322.376 1462.73 325.756 1465.9 Q329.135 1469.08 329.135 1474.49 Q329.135 1480.07 325.663 1483.17 Q322.191 1486.25 315.871 1486.25 Q313.695 1486.25 311.427 1485.88 Q309.182 1485.51 306.774 1484.77 L306.774 1480.07 Q308.858 1481.2 311.08 1481.76 Q313.302 1482.32 315.779 1482.32 Q319.783 1482.32 322.121 1480.21 Q324.459 1478.1 324.459 1474.49 Q324.459 1470.88 322.121 1468.77 Q319.783 1466.67 315.779 1466.67 Q313.904 1466.67 312.029 1467.08 Q310.177 1467.5 308.233 1468.38 L308.233 1451.02 Z" fill="#000000" fill-rule="nonzero" fill-opacity="1" /><path clip-path="url(#clip150)" d="M348.348 1454.1 Q344.737 1454.1 342.908 1457.66 Q341.103 1461.2 341.103 1468.33 Q341.103 1475.44 342.908 1479.01 Q344.737 1482.55 348.348 1482.55 Q351.982 1482.55 353.788 1479.01 Q355.617 1475.44 355.617 1468.33 Q355.617 1461.2 353.788 1457.66 Q351.982 1454.1 348.348 1454.1 M348.348 1450.39 Q354.158 1450.39 357.214 1455 Q360.292 1459.58 360.292 1468.33 Q360.292 1477.06 357.214 1481.67 Q354.158 1486.25 348.348 1486.25 Q342.538 1486.25 339.459 1481.67 Q336.404 1477.06 336.404 1468.33 Q336.404 1459.58 339.459 1455 Q342.538 1450.39 348.348 1450.39 Z" fill="#000000" fill-rule="nonzero" fill-opacity="1" /><path clip-path="url(#clip150)" d="M898.847 1481.64 L906.486 1481.64 L906.486 1455.28 L898.176 1456.95 L898.176 1452.69 L906.44 1451.02 L911.116 1451.02 L911.116 1481.64 L918.755 1481.64 L918.755 1485.58 L898.847 1485.58 L898.847 1481.64 Z" fill="#000000" fill-rule="nonzero" fill-opacity="1" /><path clip-path="url(#clip150)" d="M938.199 1454.1 Q934.588 1454.1 932.759 1457.66 Q930.954 1461.2 930.954 1468.33 Q930.954 1475.44 932.759 1479.01 Q934.588 1482.55 938.199 1482.55 Q941.833 1482.55 943.639 1479.01 Q945.468 1475.44 945.468 1468.33 Q945.468 1461.2 943.639 1457.66 Q941.833 1454.1 938.199 1454.1 M938.199 1450.39 Q944.009 1450.39 947.065 1455 Q950.143 1459.58 950.143 1468.33 Q950.143 1477.06 947.065 1481.67 Q944.009 1486.25 938.199 1486.25 Q932.389 1486.25 929.31 1481.67 Q926.255 1477.06 926.255 1468.33 Q926.255 1459.58 929.31 1455 Q932.389 1450.39 938.199 1450.39 Z" fill="#000000" fill-rule="nonzero" fill-opacity="1" /><path clip-path="url(#clip150)" d="M968.361 1454.1 Q964.75 1454.1 962.921 1457.66 Q961.116 1461.2 961.116 1468.33 Q961.116 1475.44 962.921 1479.01 Q964.75 1482.55 968.361 1482.55 Q971.995 1482.55 973.801 1479.01 Q975.629 1475.44 975.629 1468.33 Q975.629 1461.2 973.801 1457.66 Q971.995 1454.1 968.361 1454.1 M968.361 1450.39 Q974.171 1450.39 977.227 1455 Q980.305 1459.58 980.305 1468.33 Q980.305 1477.06 977.227 1481.67 Q974.171 1486.25 968.361 1486.25 Q962.551 1486.25 959.472 1481.67 Q956.417 1477.06 956.417 1468.33 Q956.417 1459.58 959.472 1455 Q962.551 1450.39 968.361 1450.39 Z" fill="#000000" fill-rule="nonzero" fill-opacity="1" /><path clip-path="url(#clip150)" d="M1504.55 1481.64 L1512.19 1481.64 L1512.19 1455.28 L1503.88 1456.95 L1503.88 1452.69 L1512.15 1451.02 L1516.82 1451.02 L1516.82 1481.64 L1524.46 1481.64 L1524.46 1485.58 L1504.55 1485.58 L1504.55 1481.64 Z" fill="#000000" fill-rule="nonzero" fill-opacity="1" /><path clip-path="url(#clip150)" d="M1533.95 1451.02 L1552.31 1451.02 L1552.31 1454.96 L1538.24 1454.96 L1538.24 1463.43 Q1539.25 1463.08 1540.27 1462.92 Q1541.29 1462.73 1542.31 1462.73 Q1548.1 1462.73 1551.48 1465.9 Q1554.86 1469.08 1554.86 1474.49 Q1554.86 1480.07 1551.38 1483.17 Q1547.91 1486.25 1541.59 1486.25 Q1539.42 1486.25 1537.15 1485.88 Q1534.9 1485.51 1532.49 1484.77 L1532.49 1480.07 Q1534.58 1481.2 1536.8 1481.76 Q1539.02 1482.32 1541.5 1482.32 Q1545.5 1482.32 1547.84 1480.21 Q1550.18 1478.1 1550.18 1474.49 Q1550.18 1470.88 1547.84 1468.77 Q1545.5 1466.67 1541.5 1466.67 Q1539.62 1466.67 1537.75 1467.08 Q1535.9 1467.5 1533.95 1468.38 L1533.95 1451.02 Z" fill="#000000" fill-rule="nonzero" fill-opacity="1" /><path clip-path="url(#clip150)" d="M1574.07 1454.1 Q1570.46 1454.1 1568.63 1457.66 Q1566.82 1461.2 1566.82 1468.33 Q1566.82 1475.44 1568.63 1479.01 Q1570.46 1482.55 1574.07 1482.55 Q1577.7 1482.55 1579.51 1479.01 Q1581.34 1475.44 1581.34 1468.33 Q1581.34 1461.2 1579.51 1457.66 Q1577.7 1454.1 1574.07 1454.1 M1574.07 1450.39 Q1579.88 1450.39 1582.93 1455 Q1586.01 1459.58 1586.01 1468.33 Q1586.01 1477.06 1582.93 1481.67 Q1579.88 1486.25 1574.07 1486.25 Q1568.26 1486.25 1565.18 1481.67 Q1562.12 1477.06 1562.12 1468.33 Q1562.12 1459.58 1565.18 1455 Q1568.26 1450.39 1574.07 1450.39 Z" fill="#000000" fill-rule="nonzero" fill-opacity="1" /><path clip-path="url(#clip150)" d="M2114.35 1481.64 L2130.67 1481.64 L2130.67 1485.58 L2108.72 1485.58 L2108.72 1481.64 Q2111.38 1478.89 2115.97 1474.26 Q2120.57 1469.61 2121.76 1468.27 Q2124 1465.74 2124.88 1464.01 Q2125.78 1462.25 2125.78 1460.56 Q2125.78 1457.8 2123.84 1456.07 Q2121.92 1454.33 2118.82 1454.33 Q2116.62 1454.33 2114.16 1455.09 Q2111.73 1455.86 2108.95 1457.41 L2108.95 1452.69 Q2111.78 1451.55 2114.23 1450.97 Q2116.69 1450.39 2118.72 1450.39 Q2124.09 1450.39 2127.29 1453.08 Q2130.48 1455.77 2130.48 1460.26 Q2130.48 1462.39 2129.67 1464.31 Q2128.88 1466.2 2126.78 1468.8 Q2126.2 1469.47 2123.1 1472.69 Q2120 1475.88 2114.35 1481.64 Z" fill="#000000" fill-rule="nonzero" fill-opacity="1" /><path clip-path="url(#clip150)" d="M2150.48 1454.1 Q2146.87 1454.1 2145.04 1457.66 Q2143.24 1461.2 2143.24 1468.33 Q2143.24 1475.44 2145.04 1479.01 Q2146.87 1482.55 2150.48 1482.55 Q2154.12 1482.55 2155.92 1479.01 Q2157.75 1475.44 2157.75 1468.33 Q2157.75 1461.2 2155.92 1457.66 Q2154.12 1454.1 2150.48 1454.1 M2150.48 1450.39 Q2156.29 1450.39 2159.35 1455 Q2162.43 1459.58 2162.43 1468.33 Q2162.43 1477.06 2159.35 1481.67 Q2156.29 1486.25 2150.48 1486.25 Q2144.67 1486.25 2141.59 1481.67 Q2138.54 1477.06 2138.54 1468.33 Q2138.54 1459.58 2141.59 1455 Q2144.67 1450.39 2150.48 1450.39 Z" fill="#000000" fill-rule="nonzero" fill-opacity="1" /><path clip-path="url(#clip150)" d="M2180.64 1454.1 Q2177.03 1454.1 2175.2 1457.66 Q2173.4 1461.2 2173.4 1468.33 Q2173.4 1475.44 2175.2 1479.01 Q2177.03 1482.55 2180.64 1482.55 Q2184.28 1482.55 2186.08 1479.01 Q2187.91 1475.44 2187.91 1468.33 Q2187.91 1461.2 2186.08 1457.66 Q2184.28 1454.1 2180.64 1454.1 M2180.64 1450.39 Q2186.45 1450.39 2189.51 1455 Q2192.59 1459.58 2192.59 1468.33 Q2192.59 1477.06 2189.51 1481.67 Q2186.45 1486.25 2180.64 1486.25 Q2174.83 1486.25 2171.75 1481.67 Q2168.7 1477.06 2168.7 1468.33 Q2168.7 1459.58 2171.75 1455 Q2174.83 1450.39 2180.64 1450.39 Z" fill="#000000" fill-rule="nonzero" fill-opacity="1" /><path clip-path="url(#clip150)" d="M1224.96 1539.24 Q1227.16 1535.29 1230.21 1533.41 Q1233.27 1531.54 1237.41 1531.54 Q1242.98 1531.54 1246 1535.45 Q1249.02 1539.33 1249.02 1546.53 L1249.02 1568.04 L1243.14 1568.04 L1243.14 1546.72 Q1243.14 1541.59 1241.32 1539.11 Q1239.51 1536.63 1235.78 1536.63 Q1231.23 1536.63 1228.59 1539.65 Q1225.95 1542.68 1225.95 1547.9 L1225.95 1568.04 L1220.06 1568.04 L1220.06 1546.72 Q1220.06 1541.56 1218.25 1539.11 Q1216.43 1536.63 1212.64 1536.63 Q1208.16 1536.63 1205.51 1539.68 Q1202.87 1542.71 1202.87 1547.9 L1202.87 1568.04 L1196.98 1568.04 L1196.98 1532.4 L1202.87 1532.4 L1202.87 1537.93 Q1204.88 1534.66 1207.68 1533.1 Q1210.48 1531.54 1214.33 1531.54 Q1218.21 1531.54 1220.92 1533.51 Q1223.66 1535.48 1224.96 1539.24 Z" fill="#000000" fill-rule="nonzero" fill-opacity="1" /><path clip-path="url(#clip150)" d="M1254.37 1520.52 L1294.57 1520.52 L1294.57 1525.93 L1277.7 1525.93 L1277.7 1568.04 L1271.24 1568.04 L1271.24 1525.93 L1254.37 1525.93 L1254.37 1520.52 Z" fill="#000000" fill-rule="nonzero" fill-opacity="1" /><path clip-path="url(#clip150)" d="M1303.26 1536.5 Q1298.55 1536.5 1295.81 1540.19 Q1293.07 1543.85 1293.07 1550.25 Q1293.07 1556.65 1295.78 1560.34 Q1298.52 1564 1303.26 1564 Q1307.94 1564 1310.68 1560.31 Q1313.41 1556.62 1313.41 1550.25 Q1313.41 1543.92 1310.68 1540.23 Q1307.94 1536.5 1303.26 1536.5 M1303.26 1531.54 Q1310.9 1531.54 1315.26 1536.5 Q1319.62 1541.47 1319.62 1550.25 Q1319.62 1559 1315.26 1564 Q1310.9 1568.97 1303.26 1568.97 Q1295.59 1568.97 1291.23 1564 Q1286.9 1559 1286.9 1550.25 Q1286.9 1541.47 1291.23 1536.5 Q1295.59 1531.54 1303.26 1531.54 Z" fill="#000000" fill-rule="nonzero" fill-opacity="1" /><path clip-path="url(#clip150)" d="M1349.98 1537.87 Q1349 1537.3 1347.82 1537.04 Q1346.67 1536.76 1345.27 1536.76 Q1340.31 1536.76 1337.63 1540 Q1334.99 1543.22 1334.99 1549.27 L1334.99 1568.04 L1329.1 1568.04 L1329.1 1532.4 L1334.99 1532.4 L1334.99 1537.93 Q1336.84 1534.69 1339.8 1533.13 Q1342.76 1531.54 1346.99 1531.54 Q1347.6 1531.54 1348.33 1531.63 Q1349.06 1531.7 1349.95 1531.85 L1349.98 1537.87 Z" fill="#000000" fill-rule="nonzero" fill-opacity="1" /><path clip-path="url(#clip150)" d="M1375.64 1537.87 Q1374.65 1537.3 1373.47 1537.04 Q1372.33 1536.76 1370.93 1536.76 Q1365.96 1536.76 1363.29 1540 Q1360.65 1543.22 1360.65 1549.27 L1360.65 1568.04 L1354.76 1568.04 L1354.76 1532.4 L1360.65 1532.4 L1360.65 1537.93 Q1362.49 1534.69 1365.45 1533.13 Q1368.41 1531.54 1372.65 1531.54 Q1373.25 1531.54 1373.98 1531.63 Q1374.71 1531.7 1375.61 1531.85 L1375.64 1537.87 Z" fill="#000000" fill-rule="nonzero" fill-opacity="1" /><polyline clip-path="url(#clip150)" style="stroke:#000000; stroke-linecap:round; stroke-linejoin:round; stroke-width:4; stroke-opacity:1; fill:none" points="219.866,1423.18 219.866,47.2441 "/>
<polyline clip-path="url(#clip150)" style="stroke:#000000; stroke-linecap:round; stroke-linejoin:round; stroke-width:4; stroke-opacity:1; fill:none" points="219.866,1198.8 238.764,1198.8 "/>
<polyline clip-path="url(#clip150)" style="stroke:#000000; stroke-linecap:round; stroke-linejoin:round; stroke-width:4; stroke-opacity:1; fill:none" points="219.866,827.93 238.764,827.93 "/>
<polyline clip-path="url(#clip150)" style="stroke:#000000; stroke-linecap:round; stroke-linejoin:round; stroke-width:4; stroke-opacity:1; fill:none" points="219.866,457.058 238.764,457.058 "/>
<polyline clip-path="url(#clip150)" style="stroke:#000000; stroke-linecap:round; stroke-linejoin:round; stroke-width:4; stroke-opacity:1; fill:none" points="219.866,86.1857 238.764,86.1857 "/>
<path clip-path="url(#clip150)" d="M128.288 1184.6 Q124.677 1184.6 122.848 1188.17 Q121.043 1191.71 121.043 1198.84 Q121.043 1205.94 122.848 1209.51 Q124.677 1213.05 128.288 1213.05 Q131.922 1213.05 133.728 1209.51 Q135.556 1205.94 135.556 1198.84 Q135.556 1191.71 133.728 1188.17 Q131.922 1184.6 128.288 1184.6 M128.288 1180.9 Q134.098 1180.9 137.154 1185.5 Q140.232 1190.09 140.232 1198.84 Q140.232 1207.56 137.154 1212.17 Q134.098 1216.75 128.288 1216.75 Q122.478 1216.75 119.399 1212.17 Q116.343 1207.56 116.343 1198.84 Q116.343 1190.09 119.399 1185.5 Q122.478 1180.9 128.288 1180.9 Z" fill="#000000" fill-rule="nonzero" fill-opacity="1" /><path clip-path="url(#clip150)" d="M148.45 1210.2 L153.334 1210.2 L153.334 1216.08 L148.45 1216.08 L148.45 1210.2 Z" fill="#000000" fill-rule="nonzero" fill-opacity="1" /><path clip-path="url(#clip150)" d="M167.547 1212.15 L183.866 1212.15 L183.866 1216.08 L161.922 1216.08 L161.922 1212.15 Q164.584 1209.39 169.167 1204.76 Q173.774 1200.11 174.954 1198.77 Q177.2 1196.24 178.079 1194.51 Q178.982 1192.75 178.982 1191.06 Q178.982 1188.3 177.038 1186.57 Q175.116 1184.83 172.014 1184.83 Q169.815 1184.83 167.362 1185.6 Q164.931 1186.36 162.153 1187.91 L162.153 1183.19 Q164.977 1182.05 167.431 1181.48 Q169.885 1180.9 171.922 1180.9 Q177.292 1180.9 180.487 1183.58 Q183.681 1186.27 183.681 1190.76 Q183.681 1192.89 182.871 1194.81 Q182.084 1196.71 179.977 1199.3 Q179.399 1199.97 176.297 1203.19 Q173.195 1206.38 167.547 1212.15 Z" fill="#000000" fill-rule="nonzero" fill-opacity="1" /><path clip-path="url(#clip150)" d="M126.205 813.729 Q122.593 813.729 120.765 817.293 Q118.959 820.835 118.959 827.965 Q118.959 835.071 120.765 838.636 Q122.593 842.178 126.205 842.178 Q129.839 842.178 131.644 838.636 Q133.473 835.071 133.473 827.965 Q133.473 820.835 131.644 817.293 Q129.839 813.729 126.205 813.729 M126.205 810.025 Q132.015 810.025 135.07 814.631 Q138.149 819.215 138.149 827.965 Q138.149 836.692 135.07 841.298 Q132.015 845.881 126.205 845.881 Q120.394 845.881 117.316 841.298 Q114.26 836.692 114.26 827.965 Q114.26 819.215 117.316 814.631 Q120.394 810.025 126.205 810.025 Z" fill="#000000" fill-rule="nonzero" fill-opacity="1" /><path clip-path="url(#clip150)" d="M146.366 839.33 L151.251 839.33 L151.251 845.21 L146.366 845.21 L146.366 839.33 Z" fill="#000000" fill-rule="nonzero" fill-opacity="1" /><path clip-path="url(#clip150)" d="M174.283 814.724 L162.477 833.173 L174.283 833.173 L174.283 814.724 M173.056 810.65 L178.936 810.65 L178.936 833.173 L183.866 833.173 L183.866 837.062 L178.936 837.062 L178.936 845.21 L174.283 845.21 L174.283 837.062 L158.681 837.062 L158.681 832.548 L173.056 810.65 Z" fill="#000000" fill-rule="nonzero" fill-opacity="1" /><path clip-path="url(#clip150)" d="M126.529 442.857 Q122.918 442.857 121.089 446.421 Q119.283 449.963 119.283 457.093 Q119.283 464.199 121.089 467.764 Q122.918 471.305 126.529 471.305 Q130.163 471.305 131.968 467.764 Q133.797 464.199 133.797 457.093 Q133.797 449.963 131.968 446.421 Q130.163 442.857 126.529 442.857 M126.529 439.153 Q132.339 439.153 135.394 443.759 Q138.473 448.343 138.473 457.093 Q138.473 465.819 135.394 470.426 Q132.339 475.009 126.529 475.009 Q120.718 475.009 117.64 470.426 Q114.584 465.819 114.584 457.093 Q114.584 448.343 117.64 443.759 Q120.718 439.153 126.529 439.153 Z" fill="#000000" fill-rule="nonzero" fill-opacity="1" /><path clip-path="url(#clip150)" d="M146.691 468.458 L151.575 468.458 L151.575 474.338 L146.691 474.338 L146.691 468.458 Z" fill="#000000" fill-rule="nonzero" fill-opacity="1" /><path clip-path="url(#clip150)" d="M172.339 455.194 Q169.19 455.194 167.339 457.347 Q165.51 459.5 165.51 463.25 Q165.51 466.977 167.339 469.153 Q169.19 471.305 172.339 471.305 Q175.487 471.305 177.315 469.153 Q179.167 466.977 179.167 463.25 Q179.167 459.5 177.315 457.347 Q175.487 455.194 172.339 455.194 M181.621 440.542 L181.621 444.801 Q179.862 443.968 178.056 443.528 Q176.274 443.088 174.514 443.088 Q169.885 443.088 167.431 446.213 Q165.001 449.338 164.653 455.657 Q166.019 453.644 168.079 452.579 Q170.139 451.491 172.616 451.491 Q177.825 451.491 180.834 454.662 Q183.866 457.81 183.866 463.25 Q183.866 468.574 180.718 471.792 Q177.57 475.009 172.339 475.009 Q166.343 475.009 163.172 470.426 Q160.001 465.819 160.001 457.093 Q160.001 448.898 163.89 444.037 Q167.778 439.153 174.329 439.153 Q176.089 439.153 177.871 439.5 Q179.676 439.847 181.621 440.542 Z" fill="#000000" fill-rule="nonzero" fill-opacity="1" /><path clip-path="url(#clip150)" d="M126.783 71.9844 Q123.172 71.9844 121.343 75.5492 Q119.538 79.0908 119.538 86.2204 Q119.538 93.3268 121.343 96.8916 Q123.172 100.433 126.783 100.433 Q130.417 100.433 132.223 96.8916 Q134.052 93.3268 134.052 86.2204 Q134.052 79.0908 132.223 75.5492 Q130.417 71.9844 126.783 71.9844 M126.783 68.2807 Q132.593 68.2807 135.649 72.8871 Q138.728 77.4704 138.728 86.2204 Q138.728 94.9472 135.649 99.5537 Q132.593 104.137 126.783 104.137 Q120.973 104.137 117.894 99.5537 Q114.839 94.9472 114.839 86.2204 Q114.839 77.4704 117.894 72.8871 Q120.973 68.2807 126.783 68.2807 Z" fill="#000000" fill-rule="nonzero" fill-opacity="1" /><path clip-path="url(#clip150)" d="M146.945 97.5861 L151.829 97.5861 L151.829 103.466 L146.945 103.466 L146.945 97.5861 Z" fill="#000000" fill-rule="nonzero" fill-opacity="1" /><path clip-path="url(#clip150)" d="M172.014 87.0537 Q168.681 87.0537 166.76 88.8361 Q164.862 90.6185 164.862 93.7435 Q164.862 96.8685 166.76 98.6509 Q168.681 100.433 172.014 100.433 Q175.348 100.433 177.269 98.6509 Q179.19 96.8453 179.19 93.7435 Q179.19 90.6185 177.269 88.8361 Q175.371 87.0537 172.014 87.0537 M167.339 85.063 Q164.329 84.3223 162.64 82.2621 Q160.973 80.2019 160.973 77.239 Q160.973 73.0955 163.913 70.6881 Q166.876 68.2807 172.014 68.2807 Q177.176 68.2807 180.116 70.6881 Q183.056 73.0955 183.056 77.239 Q183.056 80.2019 181.366 82.2621 Q179.7 84.3223 176.714 85.063 Q180.093 85.85 181.968 88.1417 Q183.866 90.4333 183.866 93.7435 Q183.866 98.7666 180.788 101.452 Q177.732 104.137 172.014 104.137 Q166.297 104.137 163.218 101.452 Q160.163 98.7666 160.163 93.7435 Q160.163 90.4333 162.061 88.1417 Q163.959 85.85 167.339 85.063 M165.626 77.6788 Q165.626 80.3639 167.292 81.8686 Q168.982 83.3732 172.014 83.3732 Q175.024 83.3732 176.714 81.8686 Q178.426 80.3639 178.426 77.6788 Q178.426 74.9936 176.714 73.489 Q175.024 71.9844 172.014 71.9844 Q168.982 71.9844 167.292 73.489 Q165.626 74.9936 165.626 77.6788 Z" fill="#000000" fill-rule="nonzero" fill-opacity="1" /><path clip-path="url(#clip150)" d="M14.479 873.03 L14.479 867.141 L43.7294 867.141 L28.3562 849.667 L28.3562 842.188 L45.0344 861.094 L64.0042 841.392 L64.0042 849.031 L46.5939 867.141 L64.0042 867.141 L64.0042 873.03 L14.479 873.03 Z" fill="#000000" fill-rule="nonzero" fill-opacity="1" /><path clip-path="url(#clip150)" d="M45.7664 811.6 Q39.4007 811.6 35.8996 814.242 Q32.3984 816.852 32.3984 821.595 Q32.3984 826.305 35.8996 828.947 Q39.4007 831.557 45.7664 831.557 Q52.1003 831.557 55.6014 828.947 Q59.1026 826.305 59.1026 821.595 Q59.1026 816.852 55.6014 814.242 Q52.1003 811.6 45.7664 811.6 M59.58 805.744 Q68.683 805.744 73.1071 809.786 Q77.5631 813.828 77.5631 822.168 Q77.5631 825.255 77.0857 827.992 Q76.6401 830.729 75.6852 833.308 L69.9879 833.308 Q71.3884 830.729 72.0568 828.215 Q72.7252 825.7 72.7252 823.091 Q72.7252 817.33 69.7015 814.465 Q66.7096 811.6 60.6303 811.6 L57.7339 811.6 Q60.885 813.415 62.4446 816.247 Q64.0042 819.08 64.0042 823.027 Q64.0042 829.584 59.0071 833.594 Q54.01 837.604 45.7664 837.604 Q37.491 837.604 32.4939 833.594 Q27.4968 829.584 27.4968 823.027 Q27.4968 819.08 29.0564 816.247 Q30.616 813.415 33.7671 811.6 L28.3562 811.6 L28.3562 805.744 L59.58 805.744 Z" fill="#000000" fill-rule="nonzero" fill-opacity="1" /><path clip-path="url(#clip150)" d="M42.4881 743.328 L64.0042 743.328 L64.0042 749.185 L42.679 749.185 Q37.6183 749.185 35.1038 751.158 Q32.5894 753.131 32.5894 757.078 Q32.5894 761.821 35.6131 764.558 Q38.6368 767.295 43.8567 767.295 L64.0042 767.295 L64.0042 773.183 L14.479 773.183 L14.479 767.295 L33.8944 767.295 Q30.6797 765.194 29.0883 762.362 Q27.4968 759.497 27.4968 755.773 Q27.4968 749.63 31.3163 746.479 Q35.1038 743.328 42.4881 743.328 Z" fill="#000000" fill-rule="nonzero" fill-opacity="1" /><path clip-path="url(#clip150)" d="M33.8307 710.99 Q33.2578 711.977 33.0032 713.155 Q32.7167 714.301 32.7167 715.701 Q32.7167 720.666 35.9632 723.34 Q39.1779 725.982 45.2253 725.982 L64.0042 725.982 L64.0042 731.87 L28.3562 731.87 L28.3562 725.982 L33.8944 725.982 Q30.6479 724.136 29.0883 721.176 Q27.4968 718.216 27.4968 713.982 Q27.4968 713.378 27.5923 712.646 Q27.656 711.913 27.8151 711.022 L33.8307 710.99 Z" fill="#000000" fill-rule="nonzero" fill-opacity="1" /><path clip-path="url(#clip150)" d="M16.4842 680.562 L34.2127 663.279 L34.2127 669.677 L21.6404 683.682 L34.2127 697.686 L34.2127 704.084 L16.4842 686.801 L16.4842 680.562 Z" fill="#000000" fill-rule="nonzero" fill-opacity="1" /><path clip-path="url(#clip150)" d="M43.5384 653.19 L43.5384 636.034 L48.7583 636.034 L48.7583 653.19 L43.5384 653.19 Z" fill="#000000" fill-rule="nonzero" fill-opacity="1" /><path clip-path="url(#clip150)" d="M58.5933 624.767 L58.5933 614.264 L22.3406 614.264 L24.6323 625.69 L18.7758 625.69 L16.4842 614.327 L16.4842 607.898 L58.5933 607.898 L58.5933 597.394 L64.0042 597.394 L64.0042 624.767 L58.5933 624.767 Z" fill="#000000" fill-rule="nonzero" fill-opacity="1" /><path clip-path="url(#clip151)" d="M280.231 1400.24 L268.919 1395.55 L264.231 1384.24 L268.919 1372.93 L280.231 1368.24 L291.543 1372.93 L296.231 1384.24 L291.543 1395.55 Z" fill="#009af9" fill-rule="evenodd" fill-opacity="1" stroke="#000000" stroke-opacity="1" stroke-width="3.2"/>
<path clip-path="url(#clip151)" d="M855.653 1029.37 L844.341 1024.68 L839.653 1013.37 L844.341 1002.05 L855.653 997.366 L866.965 1002.05 L871.653 1013.37 L866.965 1024.68 Z" fill="#009af9" fill-rule="evenodd" fill-opacity="1" stroke="#000000" stroke-opacity="1" stroke-width="3.2"/>
<path clip-path="url(#clip151)" d="M1429.86 658.494 L1418.55 653.806 L1413.86 642.494 L1418.55 631.182 L1429.86 626.494 L1441.18 631.182 L1445.86 642.494 L1441.18 653.806 Z" fill="#009af9" fill-rule="evenodd" fill-opacity="1" stroke="#000000" stroke-opacity="1" stroke-width="3.2"/>
<path clip-path="url(#clip151)" d="M2292.39 102.186 L2281.08 97.4977 L2276.39 86.1857 L2281.08 74.8737 L2292.39 70.1857 L2303.7 74.8737 L2308.39 86.1857 L2303.7 97.4977 Z" fill="#009af9" fill-rule="evenodd" fill-opacity="1" stroke="#000000" stroke-opacity="1" stroke-width="3.2"/>
<polyline clip-path="url(#clip151)" style="stroke:#e26f46; stroke-linecap:round; stroke-linejoin:round; stroke-width:4; stroke-opacity:1; fill:none" points="280.721,1384.24 855.329,1013.37 1429.94,642.494 2291.85,86.1857 "/>
<path clip-path="url(#clip150)" d="M290.963 248.629 L1279.9 248.629 L1279.9 93.1086 L290.963 93.1086  Z" fill="#ffffff" fill-rule="evenodd" fill-opacity="1"/>
<polyline clip-path="url(#clip150)" style="stroke:#000000; stroke-linecap:round; stroke-linejoin:round; stroke-width:4; stroke-opacity:1; fill:none" points="290.963,248.629 1279.9,248.629 1279.9,93.1086 290.963,93.1086 290.963,248.629 "/>
<path clip-path="url(#clip150)" d="M385.758 167.704 L369.67 161.037 L363.002 144.949 L369.67 128.86 L385.758 122.193 L401.846 128.86 L408.513 144.949 L401.846 161.037 Z" fill="#009af9" fill-rule="evenodd" fill-opacity="1" stroke="#000000" stroke-opacity="1" stroke-width="4.55111"/>
<path clip-path="url(#clip150)" d="M496.571 130.84 Q491.479 130.84 488.469 134.636 Q485.483 138.432 485.483 144.983 Q485.483 151.511 488.469 155.307 Q491.479 159.104 496.571 159.104 Q501.664 159.104 504.627 155.307 Q507.613 151.511 507.613 144.983 Q507.613 138.432 504.627 134.636 Q501.664 130.84 496.571 130.84 M496.571 127.044 Q503.84 127.044 508.192 131.928 Q512.543 136.789 512.543 144.983 Q512.543 153.155 508.192 158.039 Q503.84 162.9 496.571 162.9 Q489.28 162.9 484.905 158.039 Q480.553 153.178 480.553 144.983 Q480.553 136.789 484.905 131.928 Q489.28 127.044 496.571 127.044 Z" fill="#000000" fill-rule="nonzero" fill-opacity="1" /><path clip-path="url(#clip150)" d="M534.696 140.284 Q533.978 139.868 533.122 139.682 Q532.289 139.474 531.27 139.474 Q527.659 139.474 525.715 141.835 Q523.793 144.173 523.793 148.571 L523.793 162.229 L519.511 162.229 L519.511 136.303 L523.793 136.303 L523.793 140.331 Q525.136 137.969 527.289 136.835 Q529.441 135.678 532.52 135.678 Q532.96 135.678 533.492 135.747 Q534.025 135.794 534.673 135.909 L534.696 140.284 Z" fill="#000000" fill-rule="nonzero" fill-opacity="1" /><path clip-path="url(#clip150)" d="M539.164 136.303 L543.423 136.303 L543.423 162.229 L539.164 162.229 L539.164 136.303 M539.164 126.21 L543.423 126.21 L543.423 131.604 L539.164 131.604 L539.164 126.21 Z" fill="#000000" fill-rule="nonzero" fill-opacity="1" /><path clip-path="url(#clip150)" d="M569.395 148.965 Q569.395 144.335 567.474 141.789 Q565.575 139.243 562.126 139.243 Q558.701 139.243 556.779 141.789 Q554.881 144.335 554.881 148.965 Q554.881 153.571 556.779 156.118 Q558.701 158.664 562.126 158.664 Q565.575 158.664 567.474 156.118 Q569.395 153.571 569.395 148.965 M573.654 159.011 Q573.654 165.631 570.714 168.849 Q567.775 172.09 561.71 172.09 Q559.464 172.09 557.474 171.742 Q555.483 171.418 553.608 170.724 L553.608 166.58 Q555.483 167.599 557.312 168.085 Q559.14 168.571 561.038 168.571 Q565.228 168.571 567.312 166.372 Q569.395 164.196 569.395 159.775 L569.395 157.668 Q568.075 159.96 566.015 161.094 Q563.955 162.229 561.085 162.229 Q556.316 162.229 553.4 158.594 Q550.483 154.96 550.483 148.965 Q550.483 142.946 553.4 139.312 Q556.316 135.678 561.085 135.678 Q563.955 135.678 566.015 136.812 Q568.075 137.946 569.395 140.238 L569.395 136.303 L573.654 136.303 L573.654 159.011 Z" fill="#000000" fill-rule="nonzero" fill-opacity="1" /><path clip-path="url(#clip150)" d="M582.427 136.303 L586.686 136.303 L586.686 162.229 L582.427 162.229 L582.427 136.303 M582.427 126.21 L586.686 126.21 L586.686 131.604 L582.427 131.604 L582.427 126.21 Z" fill="#000000" fill-rule="nonzero" fill-opacity="1" /><path clip-path="url(#clip150)" d="M617.149 146.581 L617.149 162.229 L612.89 162.229 L612.89 146.719 Q612.89 143.039 611.455 141.21 Q610.02 139.382 607.149 139.382 Q603.7 139.382 601.71 141.581 Q599.719 143.78 599.719 147.576 L599.719 162.229 L595.436 162.229 L595.436 136.303 L599.719 136.303 L599.719 140.331 Q601.247 137.993 603.307 136.835 Q605.39 135.678 608.098 135.678 Q612.566 135.678 614.858 138.456 Q617.149 141.21 617.149 146.581 Z" fill="#000000" fill-rule="nonzero" fill-opacity="1" /><path clip-path="url(#clip150)" d="M637.427 149.196 Q632.265 149.196 630.274 150.377 Q628.283 151.557 628.283 154.405 Q628.283 156.673 629.765 158.016 Q631.27 159.335 633.839 159.335 Q637.381 159.335 639.51 156.835 Q641.663 154.312 641.663 150.145 L641.663 149.196 L637.427 149.196 M645.922 147.437 L645.922 162.229 L641.663 162.229 L641.663 158.293 Q640.205 160.655 638.029 161.789 Q635.853 162.9 632.705 162.9 Q628.723 162.9 626.362 160.678 Q624.024 158.432 624.024 154.682 Q624.024 150.307 626.941 148.085 Q629.881 145.863 635.691 145.863 L641.663 145.863 L641.663 145.446 Q641.663 142.507 639.719 140.909 Q637.797 139.289 634.302 139.289 Q632.08 139.289 629.973 139.821 Q627.867 140.354 625.922 141.419 L625.922 137.483 Q628.26 136.581 630.459 136.141 Q632.658 135.678 634.742 135.678 Q640.367 135.678 643.144 138.594 Q645.922 141.511 645.922 147.437 Z" fill="#000000" fill-rule="nonzero" fill-opacity="1" /><path clip-path="url(#clip150)" d="M654.695 126.21 L658.955 126.21 L658.955 162.229 L654.695 162.229 L654.695 126.21 Z" fill="#000000" fill-rule="nonzero" fill-opacity="1" /><path clip-path="url(#clip150)" d="M683.121 127.669 L690.089 127.669 L698.908 151.187 L707.774 127.669 L714.741 127.669 L714.741 162.229 L710.181 162.229 L710.181 131.882 L701.269 155.585 L696.57 155.585 L687.658 131.882 L687.658 162.229 L683.121 162.229 L683.121 127.669 Z" fill="#000000" fill-rule="nonzero" fill-opacity="1" /><path clip-path="url(#clip150)" d="M735.575 132.275 L729.232 149.474 L741.94 149.474 L735.575 132.275 M732.936 127.669 L738.237 127.669 L751.408 162.229 L746.547 162.229 L743.399 153.363 L727.82 153.363 L724.672 162.229 L719.741 162.229 L732.936 127.669 Z" fill="#000000" fill-rule="nonzero" fill-opacity="1" /><path clip-path="url(#clip150)" d="M747.982 127.669 L777.218 127.669 L777.218 131.604 L764.949 131.604 L764.949 162.229 L760.25 162.229 L760.25 131.604 L747.982 131.604 L747.982 127.669 Z" fill="#000000" fill-rule="nonzero" fill-opacity="1" /><path clip-path="url(#clip150)" d="M781.732 127.669 L786.408 127.669 L786.408 158.293 L803.236 158.293 L803.236 162.229 L781.732 162.229 L781.732 127.669 Z" fill="#000000" fill-rule="nonzero" fill-opacity="1" /><path clip-path="url(#clip150)" d="M820.782 132.275 L814.44 149.474 L827.148 149.474 L820.782 132.275 M818.144 127.669 L823.444 127.669 L836.616 162.229 L831.755 162.229 L828.606 153.363 L813.028 153.363 L809.88 162.229 L804.949 162.229 L818.144 127.669 Z" fill="#000000" fill-rule="nonzero" fill-opacity="1" /><path clip-path="url(#clip150)" d="M846.338 145.724 L846.338 158.386 L853.838 158.386 Q857.611 158.386 859.416 156.835 Q861.245 155.261 861.245 152.043 Q861.245 148.803 859.416 147.275 Q857.611 145.724 853.838 145.724 L846.338 145.724 M846.338 131.511 L846.338 141.928 L853.259 141.928 Q856.685 141.928 858.352 140.655 Q860.041 139.358 860.041 136.719 Q860.041 134.104 858.352 132.807 Q856.685 131.511 853.259 131.511 L846.338 131.511 M841.662 127.669 L853.606 127.669 Q858.954 127.669 861.847 129.891 Q864.741 132.113 864.741 136.21 Q864.741 139.382 863.259 141.257 Q861.778 143.131 858.907 143.594 Q862.356 144.335 864.254 146.696 Q866.176 149.034 866.176 152.553 Q866.176 157.182 863.028 159.705 Q859.879 162.229 854.069 162.229 L841.662 162.229 L841.662 127.669 Z" fill="#000000" fill-rule="nonzero" fill-opacity="1" /><path clip-path="url(#clip150)" d="M889.069 136.303 L893.328 136.303 L893.328 162.229 L889.069 162.229 L889.069 136.303 M889.069 126.21 L893.328 126.21 L893.328 131.604 L889.069 131.604 L889.069 126.21 Z" fill="#000000" fill-rule="nonzero" fill-opacity="1" /><path clip-path="url(#clip150)" d="M922.425 141.28 Q924.023 138.409 926.245 137.044 Q928.467 135.678 931.476 135.678 Q935.527 135.678 937.726 138.525 Q939.925 141.349 939.925 146.581 L939.925 162.229 L935.643 162.229 L935.643 146.719 Q935.643 142.993 934.323 141.187 Q933.004 139.382 930.296 139.382 Q926.986 139.382 925.064 141.581 Q923.143 143.78 923.143 147.576 L923.143 162.229 L918.861 162.229 L918.861 146.719 Q918.861 142.969 917.541 141.187 Q916.222 139.382 913.467 139.382 Q910.203 139.382 908.282 141.604 Q906.361 143.803 906.361 147.576 L906.361 162.229 L902.078 162.229 L902.078 136.303 L906.361 136.303 L906.361 140.331 Q907.819 137.946 909.856 136.812 Q911.893 135.678 914.694 135.678 Q917.518 135.678 919.486 137.113 Q921.476 138.548 922.425 141.28 Z" fill="#000000" fill-rule="nonzero" fill-opacity="1" /><path clip-path="url(#clip150)" d="M952.541 158.34 L952.541 172.09 L948.259 172.09 L948.259 136.303 L952.541 136.303 L952.541 140.238 Q953.884 137.923 955.921 136.812 Q957.981 135.678 960.828 135.678 Q965.55 135.678 968.49 139.428 Q971.453 143.178 971.453 149.289 Q971.453 155.4 968.49 159.15 Q965.55 162.9 960.828 162.9 Q957.981 162.9 955.921 161.789 Q953.884 160.655 952.541 158.34 M967.032 149.289 Q967.032 144.59 965.087 141.928 Q963.166 139.243 959.786 139.243 Q956.407 139.243 954.462 141.928 Q952.541 144.59 952.541 149.289 Q952.541 153.988 954.462 156.673 Q956.407 159.335 959.786 159.335 Q963.166 159.335 965.087 156.673 Q967.032 153.988 967.032 149.289 Z" fill="#000000" fill-rule="nonzero" fill-opacity="1" /><path clip-path="url(#clip150)" d="M978.513 126.21 L982.772 126.21 L982.772 162.229 L978.513 162.229 L978.513 126.21 Z" fill="#000000" fill-rule="nonzero" fill-opacity="1" /><path clip-path="url(#clip150)" d="M1013.86 148.201 L1013.86 150.284 L994.277 150.284 Q994.555 154.682 996.916 156.997 Q999.3 159.289 1003.54 159.289 Q1005.99 159.289 1008.28 158.687 Q1010.6 158.085 1012.86 156.881 L1012.86 160.909 Q1010.57 161.881 1008.17 162.391 Q1005.76 162.9 1003.28 162.9 Q997.078 162.9 993.444 159.289 Q989.832 155.678 989.832 149.52 Q989.832 143.155 993.258 139.428 Q996.707 135.678 1002.54 135.678 Q1007.77 135.678 1010.8 139.057 Q1013.86 142.414 1013.86 148.201 M1009.6 146.951 Q1009.55 143.456 1007.63 141.372 Q1005.74 139.289 1002.59 139.289 Q999.022 139.289 996.869 141.303 Q994.74 143.317 994.416 146.974 L1009.6 146.951 Z" fill="#000000" fill-rule="nonzero" fill-opacity="1" /><path clip-path="url(#clip150)" d="M1041.04 141.28 Q1042.63 138.409 1044.86 137.044 Q1047.08 135.678 1050.09 135.678 Q1054.14 135.678 1056.34 138.525 Q1058.54 141.349 1058.54 146.581 L1058.54 162.229 L1054.25 162.229 L1054.25 146.719 Q1054.25 142.993 1052.93 141.187 Q1051.61 139.382 1048.91 139.382 Q1045.6 139.382 1043.67 141.581 Q1041.75 143.78 1041.75 147.576 L1041.75 162.229 L1037.47 162.229 L1037.47 146.719 Q1037.47 142.969 1036.15 141.187 Q1034.83 139.382 1032.08 139.382 Q1028.81 139.382 1026.89 141.604 Q1024.97 143.803 1024.97 147.576 L1024.97 162.229 L1020.69 162.229 L1020.69 136.303 L1024.97 136.303 L1024.97 140.331 Q1026.43 137.946 1028.47 136.812 Q1030.5 135.678 1033.3 135.678 Q1036.13 135.678 1038.1 137.113 Q1040.09 138.548 1041.04 141.28 Z" fill="#000000" fill-rule="nonzero" fill-opacity="1" /><path clip-path="url(#clip150)" d="M1089.21 148.201 L1089.21 150.284 L1069.62 150.284 Q1069.9 154.682 1072.26 156.997 Q1074.65 159.289 1078.88 159.289 Q1081.34 159.289 1083.63 158.687 Q1085.94 158.085 1088.21 156.881 L1088.21 160.909 Q1085.92 161.881 1083.51 162.391 Q1081.11 162.9 1078.63 162.9 Q1072.42 162.9 1068.79 159.289 Q1065.18 155.678 1065.18 149.52 Q1065.18 143.155 1068.61 139.428 Q1072.05 135.678 1077.89 135.678 Q1083.12 135.678 1086.15 139.057 Q1089.21 142.414 1089.21 148.201 M1084.95 146.951 Q1084.9 143.456 1082.98 141.372 Q1081.08 139.289 1077.93 139.289 Q1074.37 139.289 1072.22 141.303 Q1070.09 143.317 1069.76 146.974 L1084.95 146.951 Z" fill="#000000" fill-rule="nonzero" fill-opacity="1" /><path clip-path="url(#clip150)" d="M1117.75 146.581 L1117.75 162.229 L1113.49 162.229 L1113.49 146.719 Q1113.49 143.039 1112.05 141.21 Q1110.62 139.382 1107.75 139.382 Q1104.3 139.382 1102.31 141.581 Q1100.32 143.78 1100.32 147.576 L1100.32 162.229 L1096.04 162.229 L1096.04 136.303 L1100.32 136.303 L1100.32 140.331 Q1101.85 137.993 1103.91 136.835 Q1105.99 135.678 1108.7 135.678 Q1113.17 135.678 1115.46 138.456 Q1117.75 141.21 1117.75 146.581 Z" fill="#000000" fill-rule="nonzero" fill-opacity="1" /><path clip-path="url(#clip150)" d="M1130.46 128.942 L1130.46 136.303 L1139.23 136.303 L1139.23 139.613 L1130.46 139.613 L1130.46 153.687 Q1130.46 156.858 1131.31 157.761 Q1132.19 158.664 1134.85 158.664 L1139.23 158.664 L1139.23 162.229 L1134.85 162.229 Q1129.92 162.229 1128.05 160.4 Q1126.17 158.548 1126.17 153.687 L1126.17 139.613 L1123.05 139.613 L1123.05 136.303 L1126.17 136.303 L1126.17 128.942 L1130.46 128.942 Z" fill="#000000" fill-rule="nonzero" fill-opacity="1" /><path clip-path="url(#clip150)" d="M1156.61 149.196 Q1151.45 149.196 1149.46 150.377 Q1147.47 151.557 1147.47 154.405 Q1147.47 156.673 1148.95 158.016 Q1150.46 159.335 1153.03 159.335 Q1156.57 159.335 1158.7 156.835 Q1160.85 154.312 1160.85 150.145 L1160.85 149.196 L1156.61 149.196 M1165.11 147.437 L1165.11 162.229 L1160.85 162.229 L1160.85 158.293 Q1159.39 160.655 1157.22 161.789 Q1155.04 162.9 1151.89 162.9 Q1147.91 162.9 1145.55 160.678 Q1143.21 158.432 1143.21 154.682 Q1143.21 150.307 1146.13 148.085 Q1149.07 145.863 1154.88 145.863 L1160.85 145.863 L1160.85 145.446 Q1160.85 142.507 1158.91 140.909 Q1156.98 139.289 1153.49 139.289 Q1151.27 139.289 1149.16 139.821 Q1147.05 140.354 1145.11 141.419 L1145.11 137.483 Q1147.45 136.581 1149.65 136.141 Q1151.85 135.678 1153.93 135.678 Q1159.55 135.678 1162.33 138.594 Q1165.11 141.511 1165.11 147.437 Z" fill="#000000" fill-rule="nonzero" fill-opacity="1" /><path clip-path="url(#clip150)" d="M1178.1 128.942 L1178.1 136.303 L1186.87 136.303 L1186.87 139.613 L1178.1 139.613 L1178.1 153.687 Q1178.1 156.858 1178.95 157.761 Q1179.83 158.664 1182.49 158.664 L1186.87 158.664 L1186.87 162.229 L1182.49 162.229 Q1177.56 162.229 1175.69 160.4 Q1173.81 158.548 1173.81 153.687 L1173.81 139.613 L1170.69 139.613 L1170.69 136.303 L1173.81 136.303 L1173.81 128.942 L1178.1 128.942 Z" fill="#000000" fill-rule="nonzero" fill-opacity="1" /><path clip-path="url(#clip150)" d="M1192.47 136.303 L1196.73 136.303 L1196.73 162.229 L1192.47 162.229 L1192.47 136.303 M1192.47 126.21 L1196.73 126.21 L1196.73 131.604 L1192.47 131.604 L1192.47 126.21 Z" fill="#000000" fill-rule="nonzero" fill-opacity="1" /><path clip-path="url(#clip150)" d="M1215.69 139.289 Q1212.26 139.289 1210.27 141.974 Q1208.28 144.636 1208.28 149.289 Q1208.28 153.942 1210.25 156.627 Q1212.24 159.289 1215.69 159.289 Q1219.09 159.289 1221.08 156.604 Q1223.07 153.918 1223.07 149.289 Q1223.07 144.682 1221.08 141.997 Q1219.09 139.289 1215.69 139.289 M1215.69 135.678 Q1221.24 135.678 1224.41 139.289 Q1227.59 142.9 1227.59 149.289 Q1227.59 155.655 1224.41 159.289 Q1221.24 162.9 1215.69 162.9 Q1210.11 162.9 1206.94 159.289 Q1203.79 155.655 1203.79 149.289 Q1203.79 142.9 1206.94 139.289 Q1210.11 135.678 1215.69 135.678 Z" fill="#000000" fill-rule="nonzero" fill-opacity="1" /><path clip-path="url(#clip150)" d="M1256.2 146.581 L1256.2 162.229 L1251.94 162.229 L1251.94 146.719 Q1251.94 143.039 1250.5 141.21 Q1249.07 139.382 1246.2 139.382 Q1242.75 139.382 1240.76 141.581 Q1238.77 143.78 1238.77 147.576 L1238.77 162.229 L1234.48 162.229 L1234.48 136.303 L1238.77 136.303 L1238.77 140.331 Q1240.29 137.993 1242.35 136.835 Q1244.44 135.678 1247.15 135.678 Q1251.61 135.678 1253.91 138.456 Q1256.2 141.21 1256.2 146.581 Z" fill="#000000" fill-rule="nonzero" fill-opacity="1" /><polyline clip-path="url(#clip150)" style="stroke:#e26f46; stroke-linecap:round; stroke-linejoin:round; stroke-width:4; stroke-opacity:1; fill:none" points="314.661,196.789 456.854,196.789 "/>
<path clip-path="url(#clip150)" d="M508.423 182.171 L508.423 187.101 Q506.062 184.902 503.377 183.814 Q500.715 182.726 497.705 182.726 Q491.78 182.726 488.631 186.36 Q485.483 189.972 485.483 196.823 Q485.483 203.652 488.631 207.286 Q491.78 210.897 497.705 210.897 Q500.715 210.897 503.377 209.809 Q506.062 208.721 508.423 206.522 L508.423 211.407 Q505.969 213.073 503.215 213.907 Q500.483 214.74 497.428 214.74 Q489.581 214.74 485.067 209.948 Q480.553 205.133 480.553 196.823 Q480.553 188.49 485.067 183.698 Q489.581 178.884 497.428 178.884 Q500.53 178.884 503.261 179.717 Q506.016 180.527 508.423 182.171 Z" fill="#000000" fill-rule="nonzero" fill-opacity="1" /><path clip-path="url(#clip150)" d="M515.46 178.05 L519.719 178.05 L519.719 214.069 L515.46 214.069 L515.46 178.05 Z" fill="#000000" fill-rule="nonzero" fill-opacity="1" /><path clip-path="url(#clip150)" d="M538.677 191.129 Q535.252 191.129 533.261 193.814 Q531.27 196.476 531.27 201.129 Q531.27 205.782 533.238 208.467 Q535.228 211.129 538.677 211.129 Q542.08 211.129 544.071 208.444 Q546.062 205.758 546.062 201.129 Q546.062 196.522 544.071 193.837 Q542.08 191.129 538.677 191.129 M538.677 187.518 Q544.233 187.518 547.404 191.129 Q550.576 194.74 550.576 201.129 Q550.576 207.495 547.404 211.129 Q544.233 214.74 538.677 214.74 Q533.099 214.74 529.928 211.129 Q526.779 207.495 526.779 201.129 Q526.779 194.74 529.928 191.129 Q533.099 187.518 538.677 187.518 Z" fill="#000000" fill-rule="nonzero" fill-opacity="1" /><path clip-path="url(#clip150)" d="M574.163 188.907 L574.163 192.934 Q572.358 192.009 570.413 191.546 Q568.469 191.083 566.386 191.083 Q563.214 191.083 561.617 192.055 Q560.043 193.027 560.043 194.971 Q560.043 196.453 561.177 197.309 Q562.312 198.143 565.738 198.907 L567.196 199.231 Q571.733 200.203 573.631 201.985 Q575.552 203.745 575.552 206.916 Q575.552 210.527 572.682 212.633 Q569.835 214.74 564.835 214.74 Q562.751 214.74 560.483 214.323 Q558.238 213.93 555.738 213.12 L555.738 208.721 Q558.099 209.948 560.39 210.573 Q562.682 211.175 564.927 211.175 Q567.937 211.175 569.557 210.157 Q571.177 209.115 571.177 207.24 Q571.177 205.504 569.997 204.578 Q568.839 203.652 564.881 202.796 L563.4 202.448 Q559.441 201.615 557.682 199.902 Q555.923 198.166 555.923 195.157 Q555.923 191.499 558.515 189.509 Q561.108 187.518 565.876 187.518 Q568.237 187.518 570.321 187.865 Q572.404 188.212 574.163 188.907 Z" fill="#000000" fill-rule="nonzero" fill-opacity="1" /><path clip-path="url(#clip150)" d="M604.51 200.041 L604.51 202.124 L584.927 202.124 Q585.205 206.522 587.566 208.837 Q589.95 211.129 594.186 211.129 Q596.64 211.129 598.932 210.527 Q601.247 209.925 603.515 208.721 L603.515 212.749 Q601.223 213.721 598.816 214.231 Q596.409 214.74 593.932 214.74 Q587.728 214.74 584.094 211.129 Q580.483 207.518 580.483 201.36 Q580.483 194.995 583.909 191.268 Q587.358 187.518 593.191 187.518 Q598.423 187.518 601.455 190.897 Q604.51 194.254 604.51 200.041 M600.251 198.791 Q600.205 195.296 598.284 193.212 Q596.385 191.129 593.237 191.129 Q589.673 191.129 587.52 193.143 Q585.39 195.157 585.066 198.814 L600.251 198.791 Z" fill="#000000" fill-rule="nonzero" fill-opacity="1" /><path clip-path="url(#clip150)" d="M630.783 180.782 L630.783 188.143 L639.557 188.143 L639.557 191.453 L630.783 191.453 L630.783 205.527 Q630.783 208.698 631.64 209.601 Q632.52 210.504 635.182 210.504 L639.557 210.504 L639.557 214.069 L635.182 214.069 Q630.251 214.069 628.376 212.24 Q626.501 210.388 626.501 205.527 L626.501 191.453 L623.376 191.453 L623.376 188.143 L626.501 188.143 L626.501 180.782 L630.783 180.782 Z" fill="#000000" fill-rule="nonzero" fill-opacity="1" /><path clip-path="url(#clip150)" d="M660.181 192.124 Q659.464 191.708 658.607 191.522 Q657.774 191.314 656.756 191.314 Q653.144 191.314 651.2 193.675 Q649.279 196.013 649.279 200.411 L649.279 214.069 L644.996 214.069 L644.996 188.143 L649.279 188.143 L649.279 192.171 Q650.621 189.809 652.774 188.675 Q654.927 187.518 658.006 187.518 Q658.445 187.518 658.978 187.587 Q659.51 187.634 660.158 187.749 L660.181 192.124 Z" fill="#000000" fill-rule="nonzero" fill-opacity="1" /><path clip-path="url(#clip150)" d="M676.431 201.036 Q671.269 201.036 669.279 202.217 Q667.288 203.397 667.288 206.245 Q667.288 208.513 668.769 209.856 Q670.274 211.175 672.843 211.175 Q676.385 211.175 678.515 208.675 Q680.667 206.152 680.667 201.985 L680.667 201.036 L676.431 201.036 M684.927 199.277 L684.927 214.069 L680.667 214.069 L680.667 210.133 Q679.209 212.495 677.033 213.629 Q674.857 214.74 671.709 214.74 Q667.728 214.74 665.367 212.518 Q663.029 210.272 663.029 206.522 Q663.029 202.147 665.945 199.925 Q668.885 197.703 674.695 197.703 L680.667 197.703 L680.667 197.286 Q680.667 194.347 678.723 192.749 Q676.802 191.129 673.306 191.129 Q671.084 191.129 668.978 191.661 Q666.871 192.194 664.927 193.259 L664.927 189.323 Q667.265 188.421 669.464 187.981 Q671.663 187.518 673.746 187.518 Q679.371 187.518 682.149 190.434 Q684.927 193.351 684.927 199.277 Z" fill="#000000" fill-rule="nonzero" fill-opacity="1" /><path clip-path="url(#clip150)" d="M715.251 198.421 L715.251 214.069 L710.991 214.069 L710.991 198.559 Q710.991 194.879 709.556 193.05 Q708.121 191.222 705.251 191.222 Q701.802 191.222 699.811 193.421 Q697.82 195.62 697.82 199.416 L697.82 214.069 L693.538 214.069 L693.538 188.143 L697.82 188.143 L697.82 192.171 Q699.348 189.833 701.408 188.675 Q703.491 187.518 706.2 187.518 Q710.667 187.518 712.959 190.296 Q715.251 193.05 715.251 198.421 Z" fill="#000000" fill-rule="nonzero" fill-opacity="1" /><path clip-path="url(#clip150)" d="M740.274 188.907 L740.274 192.934 Q738.468 192.009 736.524 191.546 Q734.579 191.083 732.496 191.083 Q729.325 191.083 727.727 192.055 Q726.153 193.027 726.153 194.971 Q726.153 196.453 727.288 197.309 Q728.422 198.143 731.848 198.907 L733.306 199.231 Q737.843 200.203 739.741 201.985 Q741.662 203.745 741.662 206.916 Q741.662 210.527 738.792 212.633 Q735.945 214.74 730.945 214.74 Q728.862 214.74 726.593 214.323 Q724.348 213.93 721.848 213.12 L721.848 208.721 Q724.209 209.948 726.501 210.573 Q728.792 211.175 731.038 211.175 Q734.047 211.175 735.667 210.157 Q737.288 209.115 737.288 207.24 Q737.288 205.504 736.107 204.578 Q734.95 203.652 730.991 202.796 L729.51 202.448 Q725.551 201.615 723.792 199.902 Q722.033 198.166 722.033 195.157 Q722.033 191.499 724.626 189.509 Q727.218 187.518 731.987 187.518 Q734.348 187.518 736.431 187.865 Q738.514 188.212 740.274 188.907 Z" fill="#000000" fill-rule="nonzero" fill-opacity="1" /><path clip-path="url(#clip150)" d="M748.445 178.05 L752.704 178.05 L752.704 214.069 L748.445 214.069 L748.445 178.05 Z" fill="#000000" fill-rule="nonzero" fill-opacity="1" /><path clip-path="url(#clip150)" d="M773.398 201.036 Q768.236 201.036 766.246 202.217 Q764.255 203.397 764.255 206.245 Q764.255 208.513 765.736 209.856 Q767.241 211.175 769.81 211.175 Q773.352 211.175 775.482 208.675 Q777.635 206.152 777.635 201.985 L777.635 201.036 L773.398 201.036 M781.894 199.277 L781.894 214.069 L777.635 214.069 L777.635 210.133 Q776.176 212.495 774 213.629 Q771.824 214.74 768.676 214.74 Q764.695 214.74 762.334 212.518 Q759.996 210.272 759.996 206.522 Q759.996 202.147 762.912 199.925 Q765.852 197.703 771.662 197.703 L777.635 197.703 L777.635 197.286 Q777.635 194.347 775.69 192.749 Q773.769 191.129 770.273 191.129 Q768.051 191.129 765.945 191.661 Q763.838 192.194 761.894 193.259 L761.894 189.323 Q764.232 188.421 766.431 187.981 Q768.63 187.518 770.713 187.518 Q776.338 187.518 779.116 190.434 Q781.894 193.351 781.894 199.277 Z" fill="#000000" fill-rule="nonzero" fill-opacity="1" /><path clip-path="url(#clip150)" d="M794.88 180.782 L794.88 188.143 L803.653 188.143 L803.653 191.453 L794.88 191.453 L794.88 205.527 Q794.88 208.698 795.736 209.601 Q796.616 210.504 799.278 210.504 L803.653 210.504 L803.653 214.069 L799.278 214.069 Q794.347 214.069 792.472 212.24 Q790.597 210.388 790.597 205.527 L790.597 191.453 L787.472 191.453 L787.472 188.143 L790.597 188.143 L790.597 180.782 L794.88 180.782 Z" fill="#000000" fill-rule="nonzero" fill-opacity="1" /><path clip-path="url(#clip150)" d="M809.255 188.143 L813.514 188.143 L813.514 214.069 L809.255 214.069 L809.255 188.143 M809.255 178.05 L813.514 178.05 L813.514 183.444 L809.255 183.444 L809.255 178.05 Z" fill="#000000" fill-rule="nonzero" fill-opacity="1" /><path clip-path="url(#clip150)" d="M832.472 191.129 Q829.046 191.129 827.056 193.814 Q825.065 196.476 825.065 201.129 Q825.065 205.782 827.032 208.467 Q829.023 211.129 832.472 211.129 Q835.875 211.129 837.866 208.444 Q839.856 205.758 839.856 201.129 Q839.856 196.522 837.866 193.837 Q835.875 191.129 832.472 191.129 M832.472 187.518 Q838.028 187.518 841.199 191.129 Q844.37 194.74 844.37 201.129 Q844.37 207.495 841.199 211.129 Q838.028 214.74 832.472 214.74 Q826.894 214.74 823.722 211.129 Q820.574 207.495 820.574 201.129 Q820.574 194.74 823.722 191.129 Q826.894 187.518 832.472 187.518 Z" fill="#000000" fill-rule="nonzero" fill-opacity="1" /><path clip-path="url(#clip150)" d="M872.981 198.421 L872.981 214.069 L868.722 214.069 L868.722 198.559 Q868.722 194.879 867.287 193.05 Q865.852 191.222 862.981 191.222 Q859.532 191.222 857.541 193.421 Q855.551 195.62 855.551 199.416 L855.551 214.069 L851.268 214.069 L851.268 188.143 L855.551 188.143 L855.551 192.171 Q857.079 189.833 859.139 188.675 Q861.222 187.518 863.93 187.518 Q868.398 187.518 870.69 190.296 Q872.981 193.05 872.981 198.421 Z" fill="#000000" fill-rule="nonzero" fill-opacity="1" /></svg>
