<?xml version="1.0" encoding="utf-8"?>
<svg xmlns="http://www.w3.org/2000/svg" xmlns:xlink="http://www.w3.org/1999/xlink" width="600" height="400" viewBox="0 0 2400 1600">
<defs>
  <clipPath id="clip840">
    <rect x="0" y="0" width="2400" height="1600"/>
  </clipPath>
</defs>
<path clip-path="url(#clip840)" d="M0 1600 L2400 1600 L2400 0 L0 0  Z" fill="#ffffff" fill-rule="evenodd" fill-opacity="1"/>
<defs>
  <clipPath id="clip841">
    <rect x="242" y="47" width="1820" height="1377"/>
  </clipPath>
</defs>
<path clip-path="url(#clip840)" d="M224.098 1486.45 L2352.76 1486.45 L2352.76 47.2441 L224.098 47.2441  Z" fill="#ffffff" fill-rule="evenodd" fill-opacity="1"/>
<defs>
  <clipPath id="clip842">
    <rect x="224" y="47" width="2130" height="1440"/>
  </clipPath>
</defs>
<polyline clip-path="url(#clip842)" style="stroke:#000000; stroke-linecap:round; stroke-linejoin:round; stroke-width:2; stroke-opacity:0.1; fill:none" points="284.343,1486.45 284.343,47.2441 "/>
<polyline clip-path="url(#clip842)" style="stroke:#000000; stroke-linecap:round; stroke-linejoin:round; stroke-width:2; stroke-opacity:0.1; fill:none" points="779.67,1486.45 779.67,47.2441 "/>
<polyline clip-path="url(#clip842)" style="stroke:#000000; stroke-linecap:round; stroke-linejoin:round; stroke-width:2; stroke-opacity:0.1; fill:none" points="1275,1486.45 1275,47.2441 "/>
<polyline clip-path="url(#clip842)" style="stroke:#000000; stroke-linecap:round; stroke-linejoin:round; stroke-width:2; stroke-opacity:0.1; fill:none" points="1770.33,1486.45 1770.33,47.2441 "/>
<polyline clip-path="url(#clip842)" style="stroke:#000000; stroke-linecap:round; stroke-linejoin:round; stroke-width:2; stroke-opacity:0.1; fill:none" points="2265.65,1486.45 2265.65,47.2441 "/>
<polyline clip-path="url(#clip842)" style="stroke:#000000; stroke-linecap:round; stroke-linejoin:round; stroke-width:2; stroke-opacity:0.1; fill:none" points="224.098,1445.72 2352.76,1445.72 "/>
<polyline clip-path="url(#clip842)" style="stroke:#000000; stroke-linecap:round; stroke-linejoin:round; stroke-width:2; stroke-opacity:0.1; fill:none" points="224.098,1203.26 2352.76,1203.26 "/>
<polyline clip-path="url(#clip842)" style="stroke:#000000; stroke-linecap:round; stroke-linejoin:round; stroke-width:2; stroke-opacity:0.1; fill:none" points="224.098,960.809 2352.76,960.809 "/>
<polyline clip-path="url(#clip842)" style="stroke:#000000; stroke-linecap:round; stroke-linejoin:round; stroke-width:2; stroke-opacity:0.1; fill:none" points="224.098,718.355 2352.76,718.355 "/>
<polyline clip-path="url(#clip842)" style="stroke:#000000; stroke-linecap:round; stroke-linejoin:round; stroke-width:2; stroke-opacity:0.1; fill:none" points="224.098,475.902 2352.76,475.902 "/>
<polyline clip-path="url(#clip842)" style="stroke:#000000; stroke-linecap:round; stroke-linejoin:round; stroke-width:2; stroke-opacity:0.1; fill:none" points="224.098,233.448 2352.76,233.448 "/>
<polyline clip-path="url(#clip840)" style="stroke:#000000; stroke-linecap:round; stroke-linejoin:round; stroke-width:4; stroke-opacity:1; fill:none" points="224.098,1486.45 2352.76,1486.45 "/>
<polyline clip-path="url(#clip840)" style="stroke:#000000; stroke-linecap:round; stroke-linejoin:round; stroke-width:4; stroke-opacity:1; fill:none" points="284.343,1486.45 284.343,1467.55 "/>
<polyline clip-path="url(#clip840)" style="stroke:#000000; stroke-linecap:round; stroke-linejoin:round; stroke-width:4; stroke-opacity:1; fill:none" points="779.67,1486.45 779.67,1467.55 "/>
<polyline clip-path="url(#clip840)" style="stroke:#000000; stroke-linecap:round; stroke-linejoin:round; stroke-width:4; stroke-opacity:1; fill:none" points="1275,1486.45 1275,1467.55 "/>
<polyline clip-path="url(#clip840)" style="stroke:#000000; stroke-linecap:round; stroke-linejoin:round; stroke-width:4; stroke-opacity:1; fill:none" points="1770.33,1486.45 1770.33,1467.55 "/>
<polyline clip-path="url(#clip840)" style="stroke:#000000; stroke-linecap:round; stroke-linejoin:round; stroke-width:4; stroke-opacity:1; fill:none" points="2265.65,1486.45 2265.65,1467.55 "/>
<path clip-path="url(#clip840)" d="M284.343 1517.37 Q280.732 1517.37 278.903 1520.93 Q277.098 1524.47 277.098 1531.6 Q277.098 1538.71 278.903 1542.27 Q280.732 1545.82 284.343 1545.82 Q287.977 1545.82 289.783 1542.27 Q291.611 1538.71 291.611 1531.6 Q291.611 1524.47 289.783 1520.93 Q287.977 1517.37 284.343 1517.37 M284.343 1513.66 Q290.153 1513.66 293.209 1518.27 Q296.287 1522.85 296.287 1531.6 Q296.287 1540.33 293.209 1544.94 Q290.153 1549.52 284.343 1549.52 Q278.533 1549.52 275.454 1544.94 Q272.399 1540.33 272.399 1531.6 Q272.399 1522.85 275.454 1518.27 Q278.533 1513.66 284.343 1513.66 Z" fill="#000000" fill-rule="nonzero" fill-opacity="1" /><path clip-path="url(#clip840)" d="M769.948 1514.29 L788.305 1514.29 L788.305 1518.22 L774.231 1518.22 L774.231 1526.7 Q775.249 1526.35 776.268 1526.19 Q777.286 1526 778.305 1526 Q784.092 1526 787.471 1529.17 Q790.851 1532.34 790.851 1537.76 Q790.851 1543.34 787.379 1546.44 Q783.907 1549.52 777.587 1549.52 Q775.411 1549.52 773.143 1549.15 Q770.897 1548.78 768.49 1548.04 L768.49 1543.34 Q770.573 1544.47 772.795 1545.03 Q775.018 1545.58 777.495 1545.58 Q781.499 1545.58 783.837 1543.48 Q786.175 1541.37 786.175 1537.76 Q786.175 1534.15 783.837 1532.04 Q781.499 1529.94 777.495 1529.94 Q775.62 1529.94 773.745 1530.35 Q771.893 1530.77 769.948 1531.65 L769.948 1514.29 Z" fill="#000000" fill-rule="nonzero" fill-opacity="1" /><path clip-path="url(#clip840)" d="M1249.69 1544.91 L1257.32 1544.91 L1257.32 1518.55 L1249.01 1520.21 L1249.01 1515.95 L1257.28 1514.29 L1261.95 1514.29 L1261.95 1544.91 L1269.59 1544.91 L1269.59 1548.85 L1249.69 1548.85 L1249.69 1544.91 Z" fill="#000000" fill-rule="nonzero" fill-opacity="1" /><path clip-path="url(#clip840)" d="M1289.04 1517.37 Q1285.43 1517.37 1283.6 1520.93 Q1281.79 1524.47 1281.79 1531.6 Q1281.79 1538.71 1283.6 1542.27 Q1285.43 1545.82 1289.04 1545.82 Q1292.67 1545.82 1294.48 1542.27 Q1296.31 1538.71 1296.31 1531.6 Q1296.31 1524.47 1294.48 1520.93 Q1292.67 1517.37 1289.04 1517.37 M1289.04 1513.66 Q1294.85 1513.66 1297.9 1518.27 Q1300.98 1522.85 1300.98 1531.6 Q1300.98 1540.33 1297.9 1544.94 Q1294.85 1549.52 1289.04 1549.52 Q1283.23 1549.52 1280.15 1544.94 Q1277.09 1540.33 1277.09 1531.6 Q1277.09 1522.85 1280.15 1518.27 Q1283.23 1513.66 1289.04 1513.66 Z" fill="#000000" fill-rule="nonzero" fill-opacity="1" /><path clip-path="url(#clip840)" d="M1745.51 1544.91 L1753.15 1544.91 L1753.15 1518.55 L1744.84 1520.21 L1744.84 1515.95 L1753.1 1514.29 L1757.78 1514.29 L1757.78 1544.91 L1765.42 1544.91 L1765.42 1548.85 L1745.51 1548.85 L1745.51 1544.91 Z" fill="#000000" fill-rule="nonzero" fill-opacity="1" /><path clip-path="url(#clip840)" d="M1774.91 1514.29 L1793.27 1514.29 L1793.27 1518.22 L1779.19 1518.22 L1779.19 1526.7 Q1780.21 1526.35 1781.23 1526.19 Q1782.25 1526 1783.27 1526 Q1789.05 1526 1792.43 1529.17 Q1795.81 1532.34 1795.81 1537.76 Q1795.81 1543.34 1792.34 1546.44 Q1788.87 1549.52 1782.55 1549.52 Q1780.37 1549.52 1778.1 1549.15 Q1775.86 1548.78 1773.45 1548.04 L1773.45 1543.34 Q1775.53 1544.47 1777.76 1545.03 Q1779.98 1545.58 1782.46 1545.58 Q1786.46 1545.58 1788.8 1543.48 Q1791.14 1541.37 1791.14 1537.76 Q1791.14 1534.15 1788.8 1532.04 Q1786.46 1529.94 1782.46 1529.94 Q1780.58 1529.94 1778.71 1530.35 Q1776.85 1530.77 1774.91 1531.65 L1774.91 1514.29 Z" fill="#000000" fill-rule="nonzero" fill-opacity="1" /><path clip-path="url(#clip840)" d="M2244.43 1544.91 L2260.75 1544.91 L2260.75 1548.85 L2238.8 1548.85 L2238.8 1544.91 Q2241.46 1542.16 2246.05 1537.53 Q2250.65 1532.88 2251.83 1531.53 Q2254.08 1529.01 2254.96 1527.27 Q2255.86 1525.51 2255.86 1523.82 Q2255.86 1521.07 2253.92 1519.33 Q2252 1517.6 2248.89 1517.6 Q2246.69 1517.6 2244.24 1518.36 Q2241.81 1519.13 2239.03 1520.68 L2239.03 1515.95 Q2241.86 1514.82 2244.31 1514.24 Q2246.76 1513.66 2248.8 1513.66 Q2254.17 1513.66 2257.37 1516.35 Q2260.56 1519.03 2260.56 1523.52 Q2260.56 1525.65 2259.75 1527.57 Q2258.96 1529.47 2256.86 1532.07 Q2256.28 1532.74 2253.18 1535.95 Q2250.07 1539.15 2244.43 1544.91 Z" fill="#000000" fill-rule="nonzero" fill-opacity="1" /><path clip-path="url(#clip840)" d="M2280.56 1517.37 Q2276.95 1517.37 2275.12 1520.93 Q2273.32 1524.47 2273.32 1531.6 Q2273.32 1538.71 2275.12 1542.27 Q2276.95 1545.82 2280.56 1545.82 Q2284.19 1545.82 2286 1542.27 Q2287.83 1538.71 2287.83 1531.6 Q2287.83 1524.47 2286 1520.93 Q2284.19 1517.37 2280.56 1517.37 M2280.56 1513.66 Q2286.37 1513.66 2289.43 1518.27 Q2292.5 1522.85 2292.5 1531.6 Q2292.5 1540.33 2289.43 1544.94 Q2286.37 1549.52 2280.56 1549.52 Q2274.75 1549.52 2271.67 1544.94 Q2268.62 1540.33 2268.62 1531.6 Q2268.62 1522.85 2271.67 1518.27 Q2274.75 1513.66 2280.56 1513.66 Z" fill="#000000" fill-rule="nonzero" fill-opacity="1" /><polyline clip-path="url(#clip840)" style="stroke:#000000; stroke-linecap:round; stroke-linejoin:round; stroke-width:4; stroke-opacity:1; fill:none" points="224.098,1486.45 224.098,47.2441 "/>
<polyline clip-path="url(#clip840)" style="stroke:#000000; stroke-linecap:round; stroke-linejoin:round; stroke-width:4; stroke-opacity:1; fill:none" points="224.098,1445.72 242.996,1445.72 "/>
<polyline clip-path="url(#clip840)" style="stroke:#000000; stroke-linecap:round; stroke-linejoin:round; stroke-width:4; stroke-opacity:1; fill:none" points="224.098,1203.26 242.996,1203.26 "/>
<polyline clip-path="url(#clip840)" style="stroke:#000000; stroke-linecap:round; stroke-linejoin:round; stroke-width:4; stroke-opacity:1; fill:none" points="224.098,960.809 242.996,960.809 "/>
<polyline clip-path="url(#clip840)" style="stroke:#000000; stroke-linecap:round; stroke-linejoin:round; stroke-width:4; stroke-opacity:1; fill:none" points="224.098,718.355 242.996,718.355 "/>
<polyline clip-path="url(#clip840)" style="stroke:#000000; stroke-linecap:round; stroke-linejoin:round; stroke-width:4; stroke-opacity:1; fill:none" points="224.098,475.902 242.996,475.902 "/>
<polyline clip-path="url(#clip840)" style="stroke:#000000; stroke-linecap:round; stroke-linejoin:round; stroke-width:4; stroke-opacity:1; fill:none" points="224.098,233.448 242.996,233.448 "/>
<path clip-path="url(#clip840)" d="M50.9921 1446.17 L80.6679 1446.17 L80.6679 1450.1 L50.9921 1450.1 L50.9921 1446.17 Z" fill="#000000" fill-rule="nonzero" fill-opacity="1" /><path clip-path="url(#clip840)" d="M103.608 1432.51 L91.8021 1450.96 L103.608 1450.96 L103.608 1432.51 M102.381 1428.44 L108.26 1428.44 L108.26 1450.96 L113.191 1450.96 L113.191 1454.85 L108.26 1454.85 L108.26 1463 L103.608 1463 L103.608 1454.85 L88.0058 1454.85 L88.0058 1450.33 L102.381 1428.44 Z" fill="#000000" fill-rule="nonzero" fill-opacity="1" /><path clip-path="url(#clip840)" d="M130.922 1431.51 Q127.311 1431.51 125.482 1435.08 Q123.677 1438.62 123.677 1445.75 Q123.677 1452.86 125.482 1456.42 Q127.311 1459.96 130.922 1459.96 Q134.556 1459.96 136.362 1456.42 Q138.191 1452.86 138.191 1445.75 Q138.191 1438.62 136.362 1435.08 Q134.556 1431.51 130.922 1431.51 M130.922 1427.81 Q136.732 1427.81 139.788 1432.42 Q142.867 1437 142.867 1445.75 Q142.867 1454.48 139.788 1459.08 Q136.732 1463.67 130.922 1463.67 Q125.112 1463.67 122.033 1459.08 Q118.978 1454.48 118.978 1445.75 Q118.978 1437 122.033 1432.42 Q125.112 1427.81 130.922 1427.81 Z" fill="#000000" fill-rule="nonzero" fill-opacity="1" /><path clip-path="url(#clip840)" d="M151.084 1457.12 L155.968 1457.12 L155.968 1463 L151.084 1463 L151.084 1457.12 Z" fill="#000000" fill-rule="nonzero" fill-opacity="1" /><path clip-path="url(#clip840)" d="M176.153 1431.51 Q172.542 1431.51 170.714 1435.08 Q168.908 1438.62 168.908 1445.75 Q168.908 1452.86 170.714 1456.42 Q172.542 1459.96 176.153 1459.96 Q179.788 1459.96 181.593 1456.42 Q183.422 1452.86 183.422 1445.75 Q183.422 1438.62 181.593 1435.08 Q179.788 1431.51 176.153 1431.51 M176.153 1427.81 Q181.964 1427.81 185.019 1432.42 Q188.098 1437 188.098 1445.75 Q188.098 1454.48 185.019 1459.08 Q181.964 1463.67 176.153 1463.67 Q170.343 1463.67 167.265 1459.08 Q164.209 1454.48 164.209 1445.75 Q164.209 1437 167.265 1432.42 Q170.343 1427.81 176.153 1427.81 Z" fill="#000000" fill-rule="nonzero" fill-opacity="1" /><path clip-path="url(#clip840)" d="M51.9875 1203.71 L81.6633 1203.71 L81.6633 1207.65 L51.9875 1207.65 L51.9875 1203.71 Z" fill="#000000" fill-rule="nonzero" fill-opacity="1" /><path clip-path="url(#clip840)" d="M105.922 1201.91 Q109.279 1202.63 111.154 1204.89 Q113.052 1207.16 113.052 1210.5 Q113.052 1215.61 109.533 1218.41 Q106.015 1221.21 99.5335 1221.21 Q97.3576 1221.21 95.0428 1220.77 Q92.7512 1220.36 90.2975 1219.5 L90.2975 1214.99 Q92.2419 1216.12 94.5567 1216.7 Q96.8715 1217.28 99.3946 1217.28 Q103.793 1217.28 106.084 1215.54 Q108.399 1213.81 108.399 1210.5 Q108.399 1207.44 106.246 1205.73 Q104.117 1203.99 100.297 1203.99 L96.2697 1203.99 L96.2697 1200.15 L100.483 1200.15 Q103.932 1200.15 105.76 1198.78 Q107.589 1197.39 107.589 1194.8 Q107.589 1192.14 105.691 1190.73 Q103.816 1189.29 100.297 1189.29 Q98.3761 1189.29 96.1771 1189.71 Q93.978 1190.13 91.3391 1191.01 L91.3391 1186.84 Q94.0012 1186.1 96.316 1185.73 Q98.6539 1185.36 100.714 1185.36 Q106.038 1185.36 109.14 1187.79 Q112.242 1190.2 112.242 1194.32 Q112.242 1197.19 110.598 1199.18 Q108.955 1201.14 105.922 1201.91 Z" fill="#000000" fill-rule="nonzero" fill-opacity="1" /><path clip-path="url(#clip840)" d="M120.737 1185.98 L142.959 1185.98 L142.959 1187.97 L130.413 1220.54 L125.529 1220.54 L137.334 1189.92 L120.737 1189.92 L120.737 1185.98 Z" fill="#000000" fill-rule="nonzero" fill-opacity="1" /><path clip-path="url(#clip840)" d="M152.08 1214.66 L156.964 1214.66 L156.964 1220.54 L152.08 1220.54 L152.08 1214.66 Z" fill="#000000" fill-rule="nonzero" fill-opacity="1" /><path clip-path="url(#clip840)" d="M167.195 1185.98 L185.552 1185.98 L185.552 1189.92 L171.478 1189.92 L171.478 1198.39 Q172.496 1198.04 173.515 1197.88 Q174.533 1197.7 175.552 1197.7 Q181.339 1197.7 184.718 1200.87 Q188.098 1204.04 188.098 1209.45 Q188.098 1215.03 184.626 1218.13 Q181.153 1221.21 174.834 1221.21 Q172.658 1221.21 170.39 1220.84 Q168.144 1220.47 165.737 1219.73 L165.737 1215.03 Q167.82 1216.17 170.042 1216.72 Q172.265 1217.28 174.741 1217.28 Q178.746 1217.28 181.084 1215.17 Q183.422 1213.07 183.422 1209.45 Q183.422 1205.84 181.084 1203.74 Q178.746 1201.63 174.741 1201.63 Q172.866 1201.63 170.991 1202.05 Q169.14 1202.46 167.195 1203.34 L167.195 1185.98 Z" fill="#000000" fill-rule="nonzero" fill-opacity="1" /><path clip-path="url(#clip840)" d="M50.9921 961.26 L80.6679 961.26 L80.6679 965.195 L50.9921 965.195 L50.9921 961.26 Z" fill="#000000" fill-rule="nonzero" fill-opacity="1" /><path clip-path="url(#clip840)" d="M104.927 959.455 Q108.283 960.172 110.158 962.441 Q112.057 964.709 112.057 968.043 Q112.057 973.158 108.538 975.959 Q105.02 978.76 98.5382 978.76 Q96.3623 978.76 94.0475 978.32 Q91.7558 977.904 89.3021 977.047 L89.3021 972.533 Q91.2465 973.667 93.5613 974.246 Q95.8761 974.825 98.3993 974.825 Q102.797 974.825 105.089 973.089 Q107.404 971.353 107.404 968.043 Q107.404 964.987 105.251 963.274 Q103.121 961.538 99.3021 961.538 L95.2743 961.538 L95.2743 957.695 L99.4872 957.695 Q102.936 957.695 104.765 956.33 Q106.594 954.941 106.594 952.348 Q106.594 949.686 104.696 948.274 Q102.821 946.839 99.3021 946.839 Q97.3808 946.839 95.1817 947.256 Q92.9826 947.672 90.3438 948.552 L90.3438 944.385 Q93.0058 943.644 95.3206 943.274 Q97.6585 942.904 99.7187 942.904 Q105.043 942.904 108.145 945.334 Q111.246 947.742 111.246 951.862 Q111.246 954.732 109.603 956.723 Q107.959 958.691 104.927 959.455 Z" fill="#000000" fill-rule="nonzero" fill-opacity="1" /><path clip-path="url(#clip840)" d="M120.969 943.529 L139.325 943.529 L139.325 947.464 L125.251 947.464 L125.251 955.936 Q126.27 955.589 127.288 955.427 Q128.307 955.242 129.325 955.242 Q135.112 955.242 138.492 958.413 Q141.871 961.584 141.871 967.001 Q141.871 972.58 138.399 975.681 Q134.927 978.76 128.607 978.76 Q126.432 978.76 124.163 978.39 Q121.918 978.019 119.51 977.279 L119.51 972.58 Q121.594 973.714 123.816 974.269 Q126.038 974.825 128.515 974.825 Q132.519 974.825 134.857 972.718 Q137.195 970.612 137.195 967.001 Q137.195 963.39 134.857 961.283 Q132.519 959.177 128.515 959.177 Q126.64 959.177 124.765 959.593 Q122.913 960.01 120.969 960.89 L120.969 943.529 Z" fill="#000000" fill-rule="nonzero" fill-opacity="1" /><path clip-path="url(#clip840)" d="M151.084 972.209 L155.968 972.209 L155.968 978.089 L151.084 978.089 L151.084 972.209 Z" fill="#000000" fill-rule="nonzero" fill-opacity="1" /><path clip-path="url(#clip840)" d="M176.153 946.607 Q172.542 946.607 170.714 950.172 Q168.908 953.714 168.908 960.843 Q168.908 967.95 170.714 971.515 Q172.542 975.056 176.153 975.056 Q179.788 975.056 181.593 971.515 Q183.422 967.95 183.422 960.843 Q183.422 953.714 181.593 950.172 Q179.788 946.607 176.153 946.607 M176.153 942.904 Q181.964 942.904 185.019 947.51 Q188.098 952.094 188.098 960.843 Q188.098 969.57 185.019 974.177 Q181.964 978.76 176.153 978.76 Q170.343 978.76 167.265 974.177 Q164.209 969.57 164.209 960.843 Q164.209 952.094 167.265 947.51 Q170.343 942.904 176.153 942.904 Z" fill="#000000" fill-rule="nonzero" fill-opacity="1" /><path clip-path="url(#clip840)" d="M51.9875 718.807 L81.6633 718.807 L81.6633 722.742 L51.9875 722.742 L51.9875 718.807 Z" fill="#000000" fill-rule="nonzero" fill-opacity="1" /><path clip-path="url(#clip840)" d="M105.922 717.001 Q109.279 717.719 111.154 719.987 Q113.052 722.256 113.052 725.589 Q113.052 730.705 109.533 733.506 Q106.015 736.307 99.5335 736.307 Q97.3576 736.307 95.0428 735.867 Q92.7512 735.45 90.2975 734.594 L90.2975 730.08 Q92.2419 731.214 94.5567 731.793 Q96.8715 732.371 99.3946 732.371 Q103.793 732.371 106.084 730.635 Q108.399 728.899 108.399 725.589 Q108.399 722.534 106.246 720.821 Q104.117 719.084 100.297 719.084 L96.2697 719.084 L96.2697 715.242 L100.483 715.242 Q103.932 715.242 105.76 713.876 Q107.589 712.487 107.589 709.895 Q107.589 707.233 105.691 705.821 Q103.816 704.385 100.297 704.385 Q98.3761 704.385 96.1771 704.802 Q93.978 705.219 91.3391 706.098 L91.3391 701.932 Q94.0012 701.191 96.316 700.821 Q98.6539 700.45 100.714 700.45 Q106.038 700.45 109.14 702.881 Q112.242 705.288 112.242 709.409 Q112.242 712.279 110.598 714.27 Q108.955 716.237 105.922 717.001 Z" fill="#000000" fill-rule="nonzero" fill-opacity="1" /><path clip-path="url(#clip840)" d="M125.945 731.7 L142.265 731.7 L142.265 735.635 L120.32 735.635 L120.32 731.7 Q122.982 728.946 127.566 724.316 Q132.172 719.663 133.353 718.321 Q135.598 715.797 136.478 714.061 Q137.381 712.302 137.381 710.612 Q137.381 707.858 135.436 706.122 Q133.515 704.385 130.413 704.385 Q128.214 704.385 125.76 705.149 Q123.33 705.913 120.552 707.464 L120.552 702.742 Q123.376 701.608 125.83 701.029 Q128.283 700.45 130.32 700.45 Q135.691 700.45 138.885 703.135 Q142.08 705.821 142.08 710.311 Q142.08 712.441 141.269 714.362 Q140.482 716.26 138.376 718.853 Q137.797 719.524 134.695 722.742 Q131.594 725.936 125.945 731.7 Z" fill="#000000" fill-rule="nonzero" fill-opacity="1" /><path clip-path="url(#clip840)" d="M152.08 729.756 L156.964 729.756 L156.964 735.635 L152.08 735.635 L152.08 729.756 Z" fill="#000000" fill-rule="nonzero" fill-opacity="1" /><path clip-path="url(#clip840)" d="M167.195 701.075 L185.552 701.075 L185.552 705.01 L171.478 705.01 L171.478 713.483 Q172.496 713.135 173.515 712.973 Q174.533 712.788 175.552 712.788 Q181.339 712.788 184.718 715.959 Q188.098 719.131 188.098 724.547 Q188.098 730.126 184.626 733.228 Q181.153 736.307 174.834 736.307 Q172.658 736.307 170.39 735.936 Q168.144 735.566 165.737 734.825 L165.737 730.126 Q167.82 731.26 170.042 731.816 Q172.265 732.371 174.741 732.371 Q178.746 732.371 181.084 730.265 Q183.422 728.158 183.422 724.547 Q183.422 720.936 181.084 718.83 Q178.746 716.723 174.741 716.723 Q172.866 716.723 170.991 717.14 Q169.14 717.557 167.195 718.436 L167.195 701.075 Z" fill="#000000" fill-rule="nonzero" fill-opacity="1" /><path clip-path="url(#clip840)" d="M50.9921 476.353 L80.6679 476.353 L80.6679 480.288 L50.9921 480.288 L50.9921 476.353 Z" fill="#000000" fill-rule="nonzero" fill-opacity="1" /><path clip-path="url(#clip840)" d="M104.927 474.548 Q108.283 475.265 110.158 477.534 Q112.057 479.802 112.057 483.136 Q112.057 488.251 108.538 491.052 Q105.02 493.853 98.5382 493.853 Q96.3623 493.853 94.0475 493.413 Q91.7558 492.997 89.3021 492.14 L89.3021 487.626 Q91.2465 488.761 93.5613 489.339 Q95.8761 489.918 98.3993 489.918 Q102.797 489.918 105.089 488.182 Q107.404 486.446 107.404 483.136 Q107.404 480.08 105.251 478.367 Q103.121 476.631 99.3021 476.631 L95.2743 476.631 L95.2743 472.788 L99.4872 472.788 Q102.936 472.788 104.765 471.423 Q106.594 470.034 106.594 467.441 Q106.594 464.779 104.696 463.367 Q102.821 461.932 99.3021 461.932 Q97.3808 461.932 95.1817 462.349 Q92.9826 462.765 90.3438 463.645 L90.3438 459.478 Q93.0058 458.738 95.3206 458.367 Q97.6585 457.997 99.7187 457.997 Q105.043 457.997 108.145 460.427 Q111.246 462.835 111.246 466.955 Q111.246 469.825 109.603 471.816 Q107.959 473.784 104.927 474.548 Z" fill="#000000" fill-rule="nonzero" fill-opacity="1" /><path clip-path="url(#clip840)" d="M130.922 461.701 Q127.311 461.701 125.482 465.265 Q123.677 468.807 123.677 475.937 Q123.677 483.043 125.482 486.608 Q127.311 490.149 130.922 490.149 Q134.556 490.149 136.362 486.608 Q138.191 483.043 138.191 475.937 Q138.191 468.807 136.362 465.265 Q134.556 461.701 130.922 461.701 M130.922 457.997 Q136.732 457.997 139.788 462.603 Q142.867 467.187 142.867 475.937 Q142.867 484.663 139.788 489.27 Q136.732 493.853 130.922 493.853 Q125.112 493.853 122.033 489.27 Q118.978 484.663 118.978 475.937 Q118.978 467.187 122.033 462.603 Q125.112 457.997 130.922 457.997 Z" fill="#000000" fill-rule="nonzero" fill-opacity="1" /><path clip-path="url(#clip840)" d="M151.084 487.302 L155.968 487.302 L155.968 493.182 L151.084 493.182 L151.084 487.302 Z" fill="#000000" fill-rule="nonzero" fill-opacity="1" /><path clip-path="url(#clip840)" d="M176.153 461.701 Q172.542 461.701 170.714 465.265 Q168.908 468.807 168.908 475.937 Q168.908 483.043 170.714 486.608 Q172.542 490.149 176.153 490.149 Q179.788 490.149 181.593 486.608 Q183.422 483.043 183.422 475.937 Q183.422 468.807 181.593 465.265 Q179.788 461.701 176.153 461.701 M176.153 457.997 Q181.964 457.997 185.019 462.603 Q188.098 467.187 188.098 475.937 Q188.098 484.663 185.019 489.27 Q181.964 493.853 176.153 493.853 Q170.343 493.853 167.265 489.27 Q164.209 484.663 164.209 475.937 Q164.209 467.187 167.265 462.603 Q170.343 457.997 176.153 457.997 Z" fill="#000000" fill-rule="nonzero" fill-opacity="1" /><path clip-path="url(#clip840)" d="M51.9875 233.9 L81.6633 233.9 L81.6633 237.835 L51.9875 237.835 L51.9875 233.9 Z" fill="#000000" fill-rule="nonzero" fill-opacity="1" /><path clip-path="url(#clip840)" d="M95.7836 246.793 L112.103 246.793 L112.103 250.728 L90.1586 250.728 L90.1586 246.793 Q92.8206 244.039 97.4039 239.409 Q102.01 234.756 103.191 233.414 Q105.436 230.891 106.316 229.154 Q107.219 227.395 107.219 225.705 Q107.219 222.951 105.274 221.215 Q103.353 219.479 100.251 219.479 Q98.0521 219.479 95.5984 220.242 Q93.1678 221.006 90.3901 222.557 L90.3901 217.835 Q93.2141 216.701 95.6678 216.122 Q98.1215 215.543 100.159 215.543 Q105.529 215.543 108.723 218.229 Q111.918 220.914 111.918 225.404 Q111.918 227.534 111.108 229.455 Q110.321 231.353 108.214 233.946 Q107.635 234.617 104.534 237.835 Q101.432 241.029 95.7836 246.793 Z" fill="#000000" fill-rule="nonzero" fill-opacity="1" /><path clip-path="url(#clip840)" d="M120.737 216.168 L142.959 216.168 L142.959 218.159 L130.413 250.728 L125.529 250.728 L137.334 220.104 L120.737 220.104 L120.737 216.168 Z" fill="#000000" fill-rule="nonzero" fill-opacity="1" /><path clip-path="url(#clip840)" d="M152.08 244.849 L156.964 244.849 L156.964 250.728 L152.08 250.728 L152.08 244.849 Z" fill="#000000" fill-rule="nonzero" fill-opacity="1" /><path clip-path="url(#clip840)" d="M167.195 216.168 L185.552 216.168 L185.552 220.104 L171.478 220.104 L171.478 228.576 Q172.496 228.228 173.515 228.066 Q174.533 227.881 175.552 227.881 Q181.339 227.881 184.718 231.053 Q188.098 234.224 188.098 239.64 Q188.098 245.219 184.626 248.321 Q181.153 251.4 174.834 251.4 Q172.658 251.4 170.39 251.029 Q168.144 250.659 165.737 249.918 L165.737 245.219 Q167.82 246.353 170.042 246.909 Q172.265 247.464 174.741 247.464 Q178.746 247.464 181.084 245.358 Q183.422 243.252 183.422 239.64 Q183.422 236.029 181.084 233.923 Q178.746 231.816 174.741 231.816 Q172.866 231.816 170.991 232.233 Q169.14 232.65 167.195 233.529 L167.195 216.168 Z" fill="#000000" fill-rule="nonzero" fill-opacity="1" /><circle clip-path="url(#clip842)" cx="284.343" cy="1348.73" r="14.4" fill="#07519c" fill-rule="evenodd" fill-opacity="1" stroke="#000000" stroke-opacity="1" stroke-width="3.2"/>
<circle clip-path="url(#clip842)" cx="337.178" cy="1048.09" r="14.4" fill="#07519c" fill-rule="evenodd" fill-opacity="1" stroke="#000000" stroke-opacity="1" stroke-width="3.2"/>
<circle clip-path="url(#clip842)" cx="390.04" cy="737.752" r="14.4" fill="#07519c" fill-rule="evenodd" fill-opacity="1" stroke="#000000" stroke-opacity="1" stroke-width="3.2"/>
<circle clip-path="url(#clip842)" cx="442.875" cy="631.072" r="14.4" fill="#07519c" fill-rule="evenodd" fill-opacity="1" stroke="#000000" stroke-opacity="1" stroke-width="3.2"/>
<circle clip-path="url(#clip842)" cx="495.738" cy="543.789" r="14.4" fill="#07519c" fill-rule="evenodd" fill-opacity="1" stroke="#000000" stroke-opacity="1" stroke-width="3.2"/>
<circle clip-path="url(#clip842)" cx="548.573" cy="485.6" r="14.4" fill="#07519c" fill-rule="evenodd" fill-opacity="1" stroke="#000000" stroke-opacity="1" stroke-width="3.2"/>
<circle clip-path="url(#clip842)" cx="601.408" cy="427.411" r="14.4" fill="#07519c" fill-rule="evenodd" fill-opacity="1" stroke="#000000" stroke-opacity="1" stroke-width="3.2"/>
<circle clip-path="url(#clip842)" cx="654.27" cy="378.92" r="14.4" fill="#07519c" fill-rule="evenodd" fill-opacity="1" stroke="#000000" stroke-opacity="1" stroke-width="3.2"/>
<circle clip-path="url(#clip842)" cx="707.105" cy="349.826" r="14.4" fill="#07519c" fill-rule="evenodd" fill-opacity="1" stroke="#000000" stroke-opacity="1" stroke-width="3.2"/>
<circle clip-path="url(#clip842)" cx="759.967" cy="320.732" r="14.4" fill="#07519c" fill-rule="evenodd" fill-opacity="1" stroke="#000000" stroke-opacity="1" stroke-width="3.2"/>
<circle clip-path="url(#clip842)" cx="812.802" cy="291.637" r="14.4" fill="#07519c" fill-rule="evenodd" fill-opacity="1" stroke="#000000" stroke-opacity="1" stroke-width="3.2"/>
<circle clip-path="url(#clip842)" cx="865.665" cy="272.241" r="14.4" fill="#07519c" fill-rule="evenodd" fill-opacity="1" stroke="#000000" stroke-opacity="1" stroke-width="3.2"/>
<circle clip-path="url(#clip842)" cx="918.5" cy="243.146" r="14.4" fill="#07519c" fill-rule="evenodd" fill-opacity="1" stroke="#000000" stroke-opacity="1" stroke-width="3.2"/>
<circle clip-path="url(#clip842)" cx="971.362" cy="233.448" r="14.4" fill="#07519c" fill-rule="evenodd" fill-opacity="1" stroke="#000000" stroke-opacity="1" stroke-width="3.2"/>
<circle clip-path="url(#clip842)" cx="1024.2" cy="223.75" r="14.4" fill="#07519c" fill-rule="evenodd" fill-opacity="1" stroke="#000000" stroke-opacity="1" stroke-width="3.2"/>
<circle clip-path="url(#clip842)" cx="1077.03" cy="214.052" r="14.4" fill="#07519c" fill-rule="evenodd" fill-opacity="1" stroke="#000000" stroke-opacity="1" stroke-width="3.2"/>
<circle clip-path="url(#clip842)" cx="1129.89" cy="194.656" r="14.4" fill="#07519c" fill-rule="evenodd" fill-opacity="1" stroke="#000000" stroke-opacity="1" stroke-width="3.2"/>
<circle clip-path="url(#clip842)" cx="1182.73" cy="184.958" r="14.4" fill="#07519c" fill-rule="evenodd" fill-opacity="1" stroke="#000000" stroke-opacity="1" stroke-width="3.2"/>
<circle clip-path="url(#clip842)" cx="1235.59" cy="175.26" r="14.4" fill="#07519c" fill-rule="evenodd" fill-opacity="1" stroke="#000000" stroke-opacity="1" stroke-width="3.2"/>
<circle clip-path="url(#clip842)" cx="1288.43" cy="165.561" r="14.4" fill="#07519c" fill-rule="evenodd" fill-opacity="1" stroke="#000000" stroke-opacity="1" stroke-width="3.2"/>
<circle clip-path="url(#clip842)" cx="1341.29" cy="155.863" r="14.4" fill="#07519c" fill-rule="evenodd" fill-opacity="1" stroke="#000000" stroke-opacity="1" stroke-width="3.2"/>
<circle clip-path="url(#clip842)" cx="1394.12" cy="155.863" r="14.4" fill="#07519c" fill-rule="evenodd" fill-opacity="1" stroke="#000000" stroke-opacity="1" stroke-width="3.2"/>
<circle clip-path="url(#clip842)" cx="1446.96" cy="146.165" r="14.4" fill="#07519c" fill-rule="evenodd" fill-opacity="1" stroke="#000000" stroke-opacity="1" stroke-width="3.2"/>
<circle clip-path="url(#clip842)" cx="1499.82" cy="146.165" r="14.4" fill="#07519c" fill-rule="evenodd" fill-opacity="1" stroke="#000000" stroke-opacity="1" stroke-width="3.2"/>
<circle clip-path="url(#clip842)" cx="1552.66" cy="136.467" r="14.4" fill="#07519c" fill-rule="evenodd" fill-opacity="1" stroke="#000000" stroke-opacity="1" stroke-width="3.2"/>
<path clip-path="url(#clip842)" d="M284.854 1429.72 L284.854 1461.72 L316.854 1461.72 L316.854 1429.72 L284.854 1429.72 Z" fill="#3082bc" fill-rule="evenodd" fill-opacity="1" stroke="#000000" stroke-opacity="1" stroke-width="3.2"/>
<path clip-path="url(#clip842)" d="M337.689 1070.88 L337.689 1102.88 L369.689 1102.88 L369.689 1070.88 L337.689 1070.88 Z" fill="#3082bc" fill-rule="evenodd" fill-opacity="1" stroke="#000000" stroke-opacity="1" stroke-width="3.2"/>
<path clip-path="url(#clip842)" d="M390.551 886.62 L390.551 918.62 L422.551 918.62 L422.551 886.62 L390.551 886.62 Z" fill="#3082bc" fill-rule="evenodd" fill-opacity="1" stroke="#000000" stroke-opacity="1" stroke-width="3.2"/>
<path clip-path="url(#clip842)" d="M443.386 799.337 L443.386 831.337 L475.386 831.337 L475.386 799.337 L443.386 799.337 Z" fill="#3082bc" fill-rule="evenodd" fill-opacity="1" stroke="#000000" stroke-opacity="1" stroke-width="3.2"/>
<path clip-path="url(#clip842)" d="M496.249 741.148 L496.249 773.148 L528.249 773.148 L528.249 741.148 L496.249 741.148 Z" fill="#3082bc" fill-rule="evenodd" fill-opacity="1" stroke="#000000" stroke-opacity="1" stroke-width="3.2"/>
<path clip-path="url(#clip842)" d="M549.084 682.959 L549.084 714.959 L581.084 714.959 L581.084 682.959 L549.084 682.959 Z" fill="#3082bc" fill-rule="evenodd" fill-opacity="1" stroke="#000000" stroke-opacity="1" stroke-width="3.2"/>
<path clip-path="url(#clip842)" d="M601.946 624.77 L601.946 656.77 L633.946 656.77 L633.946 624.77 L601.946 624.77 Z" fill="#3082bc" fill-rule="evenodd" fill-opacity="1" stroke="#000000" stroke-opacity="1" stroke-width="3.2"/>
<path clip-path="url(#clip842)" d="M654.781 585.978 L654.781 617.978 L686.781 617.978 L686.781 585.978 L654.781 585.978 Z" fill="#3082bc" fill-rule="evenodd" fill-opacity="1" stroke="#000000" stroke-opacity="1" stroke-width="3.2"/>
<path clip-path="url(#clip842)" d="M707.643 547.185 L707.643 579.185 L739.643 579.185 L739.643 547.185 L707.643 547.185 Z" fill="#3082bc" fill-rule="evenodd" fill-opacity="1" stroke="#000000" stroke-opacity="1" stroke-width="3.2"/>
<path clip-path="url(#clip842)" d="M760.478 508.393 L760.478 540.393 L792.478 540.393 L792.478 508.393 L760.478 508.393 Z" fill="#3082bc" fill-rule="evenodd" fill-opacity="1" stroke="#000000" stroke-opacity="1" stroke-width="3.2"/>
<path clip-path="url(#clip842)" d="M813.313 479.298 L813.313 511.298 L845.313 511.298 L845.313 479.298 L813.313 479.298 Z" fill="#3082bc" fill-rule="evenodd" fill-opacity="1" stroke="#000000" stroke-opacity="1" stroke-width="3.2"/>
<path clip-path="url(#clip842)" d="M866.176 450.204 L866.176 482.204 L898.176 482.204 L898.176 450.204 L866.176 450.204 Z" fill="#3082bc" fill-rule="evenodd" fill-opacity="1" stroke="#000000" stroke-opacity="1" stroke-width="3.2"/>
<path clip-path="url(#clip842)" d="M919.011 430.807 L919.011 462.807 L951.011 462.807 L951.011 430.807 L919.011 430.807 Z" fill="#3082bc" fill-rule="evenodd" fill-opacity="1" stroke="#000000" stroke-opacity="1" stroke-width="3.2"/>
<path clip-path="url(#clip842)" d="M971.873 401.713 L971.873 433.713 L1003.87 433.713 L1003.87 401.713 L971.873 401.713 Z" fill="#3082bc" fill-rule="evenodd" fill-opacity="1" stroke="#000000" stroke-opacity="1" stroke-width="3.2"/>
<path clip-path="url(#clip842)" d="M1024.71 392.015 L1024.71 424.015 L1056.71 424.015 L1056.71 392.015 L1024.71 392.015 Z" fill="#3082bc" fill-rule="evenodd" fill-opacity="1" stroke="#000000" stroke-opacity="1" stroke-width="3.2"/>
<path clip-path="url(#clip842)" d="M1077.57 372.619 L1077.57 404.619 L1109.57 404.619 L1109.57 372.619 L1077.57 372.619 Z" fill="#3082bc" fill-rule="evenodd" fill-opacity="1" stroke="#000000" stroke-opacity="1" stroke-width="3.2"/>
<path clip-path="url(#clip842)" d="M1130.41 353.222 L1130.41 385.222 L1162.41 385.222 L1162.41 353.222 L1130.41 353.222 Z" fill="#3082bc" fill-rule="evenodd" fill-opacity="1" stroke="#000000" stroke-opacity="1" stroke-width="3.2"/>
<path clip-path="url(#clip842)" d="M1183.24 343.524 L1183.24 375.524 L1215.24 375.524 L1215.24 343.524 L1183.24 343.524 Z" fill="#3082bc" fill-rule="evenodd" fill-opacity="1" stroke="#000000" stroke-opacity="1" stroke-width="3.2"/>
<path clip-path="url(#clip842)" d="M1236.1 324.128 L1236.1 356.128 L1268.1 356.128 L1268.1 324.128 L1236.1 324.128 Z" fill="#3082bc" fill-rule="evenodd" fill-opacity="1" stroke="#000000" stroke-opacity="1" stroke-width="3.2"/>
<path clip-path="url(#clip842)" d="M1288.94 314.43 L1288.94 346.43 L1320.94 346.43 L1320.94 314.43 L1288.94 314.43 Z" fill="#3082bc" fill-rule="evenodd" fill-opacity="1" stroke="#000000" stroke-opacity="1" stroke-width="3.2"/>
<path clip-path="url(#clip842)" d="M1341.8 304.732 L1341.8 336.732 L1373.8 336.732 L1373.8 304.732 L1341.8 304.732 Z" fill="#3082bc" fill-rule="evenodd" fill-opacity="1" stroke="#000000" stroke-opacity="1" stroke-width="3.2"/>
<path clip-path="url(#clip842)" d="M1394.64 295.033 L1394.64 327.033 L1426.64 327.033 L1426.64 295.033 L1394.64 295.033 Z" fill="#3082bc" fill-rule="evenodd" fill-opacity="1" stroke="#000000" stroke-opacity="1" stroke-width="3.2"/>
<path clip-path="url(#clip842)" d="M1447.5 285.335 L1447.5 317.335 L1479.5 317.335 L1479.5 285.335 L1447.5 285.335 Z" fill="#3082bc" fill-rule="evenodd" fill-opacity="1" stroke="#000000" stroke-opacity="1" stroke-width="3.2"/>
<path clip-path="url(#clip842)" d="M1500.33 275.637 L1500.33 307.637 L1532.33 307.637 L1532.33 275.637 L1500.33 275.637 Z" fill="#3082bc" fill-rule="evenodd" fill-opacity="1" stroke="#000000" stroke-opacity="1" stroke-width="3.2"/>
<path clip-path="url(#clip842)" d="M1553.2 265.939 L1553.2 297.939 L1585.2 297.939 L1585.2 265.939 L1553.2 265.939 Z" fill="#3082bc" fill-rule="evenodd" fill-opacity="1" stroke="#000000" stroke-opacity="1" stroke-width="3.2"/>
<path clip-path="url(#clip842)" d="M317.365 1245.45 L301.365 1261.45 L317.365 1277.45 L333.365 1261.45 L317.365 1245.45 Z" fill="#6badd5" fill-rule="evenodd" fill-opacity="1" stroke="#000000" stroke-opacity="1" stroke-width="3.2"/>
<path clip-path="url(#clip842)" d="M370.2 760.544 L354.2 776.544 L370.2 792.544 L386.2 776.544 L370.2 760.544 Z" fill="#6badd5" fill-rule="evenodd" fill-opacity="1" stroke="#000000" stroke-opacity="1" stroke-width="3.2"/>
<path clip-path="url(#clip842)" d="M423.062 653.865 L407.062 669.865 L423.062 685.865 L439.062 669.865 L423.062 653.865 Z" fill="#6badd5" fill-rule="evenodd" fill-opacity="1" stroke="#000000" stroke-opacity="1" stroke-width="3.2"/>
<path clip-path="url(#clip842)" d="M475.897 576.279 L459.897 592.279 L475.897 608.279 L491.897 592.279 L475.897 576.279 Z" fill="#6badd5" fill-rule="evenodd" fill-opacity="1" stroke="#000000" stroke-opacity="1" stroke-width="3.2"/>
<path clip-path="url(#clip842)" d="M528.76 518.091 L512.76 534.091 L528.76 550.091 L544.76 534.091 L528.76 518.091 Z" fill="#6badd5" fill-rule="evenodd" fill-opacity="1" stroke="#000000" stroke-opacity="1" stroke-width="3.2"/>
<path clip-path="url(#clip842)" d="M581.594 479.298 L565.594 495.298 L581.594 511.298 L597.594 495.298 L581.594 479.298 Z" fill="#6badd5" fill-rule="evenodd" fill-opacity="1" stroke="#000000" stroke-opacity="1" stroke-width="3.2"/>
<path clip-path="url(#clip842)" d="M634.457 421.109 L618.457 437.109 L634.457 453.109 L650.457 437.109 L634.457 421.109 Z" fill="#6badd5" fill-rule="evenodd" fill-opacity="1" stroke="#000000" stroke-opacity="1" stroke-width="3.2"/>
<path clip-path="url(#clip842)" d="M687.292 382.317 L671.292 398.317 L687.292 414.317 L703.292 398.317 L687.292 382.317 Z" fill="#6badd5" fill-rule="evenodd" fill-opacity="1" stroke="#000000" stroke-opacity="1" stroke-width="3.2"/>
<path clip-path="url(#clip842)" d="M740.154 353.222 L724.154 369.222 L740.154 385.222 L756.154 369.222 L740.154 353.222 Z" fill="#6badd5" fill-rule="evenodd" fill-opacity="1" stroke="#000000" stroke-opacity="1" stroke-width="3.2"/>
<path clip-path="url(#clip842)" d="M792.989 324.128 L776.989 340.128 L792.989 356.128 L808.989 340.128 L792.989 324.128 Z" fill="#6badd5" fill-rule="evenodd" fill-opacity="1" stroke="#000000" stroke-opacity="1" stroke-width="3.2"/>
<path clip-path="url(#clip842)" d="M845.852 304.732 L829.852 320.732 L845.852 336.732 L861.852 320.732 L845.852 304.732 Z" fill="#6badd5" fill-rule="evenodd" fill-opacity="1" stroke="#000000" stroke-opacity="1" stroke-width="3.2"/>
<path clip-path="url(#clip842)" d="M898.687 285.335 L882.687 301.335 L898.687 317.335 L914.687 301.335 L898.687 285.335 Z" fill="#6badd5" fill-rule="evenodd" fill-opacity="1" stroke="#000000" stroke-opacity="1" stroke-width="3.2"/>
<path clip-path="url(#clip842)" d="M951.522 265.939 L935.522 281.939 L951.522 297.939 L967.522 281.939 L951.522 265.939 Z" fill="#6badd5" fill-rule="evenodd" fill-opacity="1" stroke="#000000" stroke-opacity="1" stroke-width="3.2"/>
<path clip-path="url(#clip842)" d="M1004.38 246.543 L988.384 262.543 L1004.38 278.543 L1020.38 262.543 L1004.38 246.543 Z" fill="#6badd5" fill-rule="evenodd" fill-opacity="1" stroke="#000000" stroke-opacity="1" stroke-width="3.2"/>
<path clip-path="url(#clip842)" d="M1057.22 236.845 L1041.22 252.845 L1057.22 268.845 L1073.22 252.845 L1057.22 236.845 Z" fill="#6badd5" fill-rule="evenodd" fill-opacity="1" stroke="#000000" stroke-opacity="1" stroke-width="3.2"/>
<path clip-path="url(#clip842)" d="M1110.08 227.146 L1094.08 243.146 L1110.08 259.146 L1126.08 243.146 L1110.08 227.146 Z" fill="#6badd5" fill-rule="evenodd" fill-opacity="1" stroke="#000000" stroke-opacity="1" stroke-width="3.2"/>
<path clip-path="url(#clip842)" d="M1162.92 207.75 L1146.92 223.75 L1162.92 239.75 L1178.92 223.75 L1162.92 207.75 Z" fill="#6badd5" fill-rule="evenodd" fill-opacity="1" stroke="#000000" stroke-opacity="1" stroke-width="3.2"/>
<path clip-path="url(#clip842)" d="M1215.75 188.354 L1199.75 204.354 L1215.75 220.354 L1231.75 204.354 L1215.75 188.354 Z" fill="#6badd5" fill-rule="evenodd" fill-opacity="1" stroke="#000000" stroke-opacity="1" stroke-width="3.2"/>
<path clip-path="url(#clip842)" d="M1268.61 188.354 L1252.61 204.354 L1268.61 220.354 L1284.61 204.354 L1268.61 188.354 Z" fill="#6badd5" fill-rule="evenodd" fill-opacity="1" stroke="#000000" stroke-opacity="1" stroke-width="3.2"/>
<path clip-path="url(#clip842)" d="M1321.45 188.354 L1305.45 204.354 L1321.45 220.354 L1337.45 204.354 L1321.45 188.354 Z" fill="#6badd5" fill-rule="evenodd" fill-opacity="1" stroke="#000000" stroke-opacity="1" stroke-width="3.2"/>
<path clip-path="url(#clip842)" d="M1374.31 168.958 L1358.31 184.958 L1374.31 200.958 L1390.31 184.958 L1374.31 168.958 Z" fill="#6badd5" fill-rule="evenodd" fill-opacity="1" stroke="#000000" stroke-opacity="1" stroke-width="3.2"/>
<path clip-path="url(#clip842)" d="M1427.15 159.26 L1411.15 175.26 L1427.15 191.26 L1443.15 175.26 L1427.15 159.26 Z" fill="#6badd5" fill-rule="evenodd" fill-opacity="1" stroke="#000000" stroke-opacity="1" stroke-width="3.2"/>
<path clip-path="url(#clip842)" d="M1480.01 159.26 L1464.01 175.26 L1480.01 191.26 L1496.01 175.26 L1480.01 159.26 Z" fill="#6badd5" fill-rule="evenodd" fill-opacity="1" stroke="#000000" stroke-opacity="1" stroke-width="3.2"/>
<path clip-path="url(#clip842)" d="M1532.84 149.561 L1516.84 165.561 L1532.84 181.561 L1548.84 165.561 L1532.84 149.561 Z" fill="#6badd5" fill-rule="evenodd" fill-opacity="1" stroke="#000000" stroke-opacity="1" stroke-width="3.2"/>
<path clip-path="url(#clip842)" d="M1585.71 139.863 L1569.71 155.863 L1585.71 171.863 L1601.71 155.863 L1585.71 139.863 Z" fill="#6badd5" fill-rule="evenodd" fill-opacity="1" stroke="#000000" stroke-opacity="1" stroke-width="3.2"/>
<path clip-path="url(#clip842)" d="M1638.54 130.165 L1622.54 146.165 L1638.54 162.165 L1654.54 146.165 L1638.54 130.165 Z" fill="#6badd5" fill-rule="evenodd" fill-opacity="1" stroke="#000000" stroke-opacity="1" stroke-width="3.2"/>
<path clip-path="url(#clip842)" d="M1691.4 120.467 L1675.4 136.467 L1691.4 152.467 L1707.4 136.467 L1691.4 120.467 Z" fill="#6badd5" fill-rule="evenodd" fill-opacity="1" stroke="#000000" stroke-opacity="1" stroke-width="3.2"/>
<path clip-path="url(#clip842)" d="M1744.24 110.769 L1728.24 126.769 L1744.24 142.769 L1760.24 126.769 L1744.24 110.769 Z" fill="#6badd5" fill-rule="evenodd" fill-opacity="1" stroke="#000000" stroke-opacity="1" stroke-width="3.2"/>
<path clip-path="url(#clip842)" d="M1797.07 101.071 L1781.07 117.071 L1797.07 133.071 L1813.07 117.071 L1797.07 101.071 Z" fill="#6badd5" fill-rule="evenodd" fill-opacity="1" stroke="#000000" stroke-opacity="1" stroke-width="3.2"/>
<path clip-path="url(#clip842)" d="M1849.94 71.9763 L1833.94 87.9763 L1849.94 103.976 L1865.94 87.9763 L1849.94 71.9763 Z" fill="#6badd5" fill-rule="evenodd" fill-opacity="1" stroke="#000000" stroke-opacity="1" stroke-width="3.2"/>
<polyline clip-path="url(#clip842)" style="stroke:#808080; stroke-linecap:round; stroke-linejoin:round; stroke-width:12; stroke-opacity:1; fill:none" stroke-dasharray="48, 30" points="2292.51,2925.65 2292.51,-1391.96 "/>
<path clip-path="url(#clip840)" d="M295.053 302.578 L704.428 302.578 L704.428 95.2176 L295.053 95.2176  Z" fill="#ffffff" fill-rule="evenodd" fill-opacity="1"/>
<polyline clip-path="url(#clip840)" style="stroke:#000000; stroke-linecap:round; stroke-linejoin:round; stroke-width:4; stroke-opacity:1; fill:none" points="295.053,302.578 704.428,302.578 704.428,95.2176 295.053,95.2176 295.053,302.578 "/>
<circle clip-path="url(#clip840)" cx="389.66" cy="147.058" r="20.48" fill="#07519c" fill-rule="evenodd" fill-opacity="1" stroke="#000000" stroke-opacity="1" stroke-width="4.55111"/>
<path clip-path="url(#clip840)" d="M516.895 124.148 Q516.895 124.593 516.801 124.968 L515.489 133.306 Q515.419 133.939 515.279 134.173 Q515.161 134.407 514.787 134.407 Q514.201 134.407 514.201 133.798 Q514.201 133.447 514.342 132.885 Q514.74 130.238 514.74 129.043 Q514.74 128.247 514.576 127.661 Q514.435 127.052 514.201 126.631 Q513.99 126.209 513.498 125.928 Q513.007 125.647 512.538 125.483 Q512.07 125.319 511.226 125.249 Q510.383 125.155 509.657 125.132 Q508.931 125.108 507.736 125.108 Q505.137 125.108 504.715 125.202 Q504.27 125.319 504.036 125.67 Q503.825 125.998 503.591 126.982 L497.22 152.442 L497.032 153.449 Q497.032 154.012 497.384 154.199 Q497.735 154.386 498.813 154.503 Q500.358 154.621 501.881 154.621 Q501.928 154.621 502.021 154.621 Q502.537 154.621 502.747 154.644 Q502.958 154.644 503.169 154.691 Q503.38 154.738 503.427 154.855 Q503.497 154.948 503.497 155.136 Q503.497 155.581 503.31 155.815 Q503.122 156.026 502.935 156.073 Q502.771 156.096 502.443 156.096 Q501.787 156.096 500.382 156.049 Q498.976 156.002 498.274 156.002 L494.292 155.956 L490.216 156.002 Q489.584 156.002 488.249 156.049 Q486.914 156.096 486.282 156.096 Q485.462 156.096 485.462 155.511 Q485.462 154.855 485.766 154.738 Q486.094 154.621 487.476 154.621 Q489.42 154.621 490.474 154.527 Q491.528 154.433 492.09 154.105 Q492.676 153.777 492.84 153.449 Q493.004 153.098 493.191 152.302 L499.632 126.701 Q499.82 126.139 499.82 125.694 Q499.82 125.46 499.749 125.366 Q499.703 125.272 499.398 125.202 Q499.094 125.108 498.461 125.108 L496.587 125.108 Q494.667 125.108 493.472 125.202 Q492.301 125.272 491.177 125.624 Q490.076 125.975 489.42 126.467 Q488.788 126.959 488.085 127.966 Q487.382 128.973 486.867 130.191 Q486.375 131.409 485.673 133.4 Q485.438 134.056 485.298 134.243 Q485.181 134.407 484.853 134.407 Q484.619 134.407 484.431 134.266 Q484.267 134.102 484.267 133.892 Q484.501 133.119 484.548 133.025 L487.429 124.57 Q487.663 123.89 487.874 123.773 Q488.108 123.633 488.975 123.633 L515.583 123.633 Q516.005 123.633 516.145 123.633 Q516.286 123.633 516.52 123.679 Q516.754 123.726 516.824 123.843 Q516.895 123.961 516.895 124.148 Z" fill="#000000" fill-rule="nonzero" fill-opacity="1" /><path clip-path="url(#clip840)" d="M521.684 156.731 L521.684 155.682 L524.324 155.682 L524.324 151.829 Q524.324 149.337 525.931 147.911 Q527.554 146.484 529.538 146.484 Q530.849 146.484 531.702 147.189 Q532.554 147.894 532.554 148.845 Q532.554 149.485 532.161 149.911 Q531.784 150.321 531.079 150.321 Q530.407 150.321 530.013 149.894 Q529.636 149.468 529.636 148.878 Q529.636 147.796 530.636 147.468 Q530.128 147.238 529.538 147.222 Q528.324 147.222 527.373 148.468 Q526.439 149.714 526.439 151.796 L526.439 155.682 L530.374 155.682 L530.374 156.731 L526.554 156.731 L526.554 167.536 Q526.554 168.504 526.947 168.815 Q527.357 169.127 529.095 169.127 L529.8 169.127 L529.8 170.16 Q528.455 170.061 525.537 170.061 Q525.127 170.061 524.488 170.078 Q523.865 170.094 523.012 170.127 Q522.176 170.16 521.717 170.16 L521.717 169.127 Q523.504 169.127 523.914 168.914 Q524.324 168.684 524.324 167.602 L524.324 156.731 L521.684 156.731 Z" fill="#000000" fill-rule="nonzero" fill-opacity="1" /><path clip-path="url(#clip840)" d="M536.116 150.993 L536.116 149.944 Q540.149 149.944 542.231 147.796 Q542.805 147.796 542.904 147.927 Q543.002 148.058 543.002 148.665 L543.002 167.503 Q543.002 168.504 543.494 168.815 Q543.986 169.127 546.134 169.127 L547.199 169.127 L547.199 170.16 Q546.019 170.061 541.756 170.061 Q537.493 170.061 536.329 170.16 L536.329 169.127 L537.395 169.127 Q539.51 169.127 540.018 168.832 Q540.526 168.52 540.526 167.503 L540.526 150.108 Q538.772 150.993 536.116 150.993 Z" fill="#000000" fill-rule="nonzero" fill-opacity="1" /><path clip-path="url(#clip840)" d="M559.759 150.217 L564.643 150.217 L564.643 154.198 L560.847 161.605 L557.861 161.605 L559.759 154.198 L559.759 150.217 Z" fill="#000000" fill-rule="nonzero" fill-opacity="1" /><path clip-path="url(#clip840)" d="M610.985 142.068 L610.985 144.152 L591.402 144.152 Q591.68 148.55 594.041 150.865 Q596.425 153.156 600.661 153.156 Q603.115 153.156 605.407 152.554 Q607.722 151.953 609.99 150.749 L609.99 154.777 Q607.698 155.749 605.291 156.258 Q602.884 156.767 600.407 156.767 Q594.203 156.767 590.569 153.156 Q586.958 149.545 586.958 143.388 Q586.958 137.022 590.384 133.295 Q593.833 129.545 599.666 129.545 Q604.898 129.545 607.93 132.925 Q610.985 136.281 610.985 142.068 M606.726 140.818 Q606.68 137.323 604.759 135.24 Q602.86 133.156 599.712 133.156 Q596.148 133.156 593.995 135.17 Q591.865 137.184 591.541 140.842 L606.726 140.818 Z" fill="#000000" fill-rule="nonzero" fill-opacity="1" /><path clip-path="url(#clip840)" d="M638.694 130.17 L629.319 142.786 L639.18 156.096 L634.157 156.096 L626.61 145.911 L619.064 156.096 L614.041 156.096 L624.11 142.531 L614.897 130.17 L619.921 130.17 L626.796 139.406 L633.671 130.17 L638.694 130.17 Z" fill="#000000" fill-rule="nonzero" fill-opacity="1" /><path clip-path="url(#clip840)" d="M649.319 152.207 L649.319 165.957 L645.036 165.957 L645.036 130.17 L649.319 130.17 L649.319 134.106 Q650.661 131.791 652.698 130.68 Q654.758 129.545 657.606 129.545 Q662.328 129.545 665.268 133.295 Q668.231 137.045 668.231 143.156 Q668.231 149.267 665.268 153.017 Q662.328 156.767 657.606 156.767 Q654.758 156.767 652.698 155.656 Q650.661 154.522 649.319 152.207 M663.809 143.156 Q663.809 138.457 661.865 135.795 Q659.944 133.11 656.564 133.11 Q653.184 133.11 651.24 135.795 Q649.319 138.457 649.319 143.156 Q649.319 147.855 651.24 150.541 Q653.184 153.203 656.564 153.203 Q659.944 153.203 661.865 150.541 Q663.809 147.855 663.809 143.156 Z" fill="#000000" fill-rule="nonzero" fill-opacity="1" /><path clip-path="url(#clip840)" d="M675.892 150.217 L680.777 150.217 L680.777 156.096 L675.892 156.096 L675.892 150.217 Z" fill="#000000" fill-rule="nonzero" fill-opacity="1" /><path clip-path="url(#clip840)" d="M366.905 176.142 L366.905 221.653 L412.416 221.653 L412.416 176.142 L366.905 176.142 Z" fill="#3082bc" fill-rule="evenodd" fill-opacity="1" stroke="#000000" stroke-opacity="1" stroke-width="4.55111"/>
<path clip-path="url(#clip840)" d="M516.895 175.988 Q516.895 176.433 516.801 176.808 L515.489 185.146 Q515.419 185.779 515.279 186.013 Q515.161 186.247 514.787 186.247 Q514.201 186.247 514.201 185.638 Q514.201 185.287 514.342 184.725 Q514.74 182.078 514.74 180.883 Q514.74 180.087 514.576 179.501 Q514.435 178.892 514.201 178.471 Q513.99 178.049 513.498 177.768 Q513.007 177.487 512.538 177.323 Q512.07 177.159 511.226 177.089 Q510.383 176.995 509.657 176.972 Q508.931 176.948 507.736 176.948 Q505.137 176.948 504.715 177.042 Q504.27 177.159 504.036 177.51 Q503.825 177.838 503.591 178.822 L497.22 204.282 L497.032 205.289 Q497.032 205.852 497.384 206.039 Q497.735 206.226 498.813 206.343 Q500.358 206.461 501.881 206.461 Q501.928 206.461 502.021 206.461 Q502.537 206.461 502.747 206.484 Q502.958 206.484 503.169 206.531 Q503.38 206.578 503.427 206.695 Q503.497 206.788 503.497 206.976 Q503.497 207.421 503.31 207.655 Q503.122 207.866 502.935 207.913 Q502.771 207.936 502.443 207.936 Q501.787 207.936 500.382 207.889 Q498.976 207.842 498.274 207.842 L494.292 207.796 L490.216 207.842 Q489.584 207.842 488.249 207.889 Q486.914 207.936 486.282 207.936 Q485.462 207.936 485.462 207.351 Q485.462 206.695 485.766 206.578 Q486.094 206.461 487.476 206.461 Q489.42 206.461 490.474 206.367 Q491.528 206.273 492.09 205.945 Q492.676 205.617 492.84 205.289 Q493.004 204.938 493.191 204.142 L499.632 178.541 Q499.82 177.979 499.82 177.534 Q499.82 177.3 499.749 177.206 Q499.703 177.112 499.398 177.042 Q499.094 176.948 498.461 176.948 L496.587 176.948 Q494.667 176.948 493.472 177.042 Q492.301 177.112 491.177 177.464 Q490.076 177.815 489.42 178.307 Q488.788 178.799 488.085 179.806 Q487.382 180.813 486.867 182.031 Q486.375 183.249 485.673 185.24 Q485.438 185.896 485.298 186.083 Q485.181 186.247 484.853 186.247 Q484.619 186.247 484.431 186.106 Q484.267 185.942 484.267 185.732 Q484.501 184.959 484.548 184.865 L487.429 176.41 Q487.663 175.73 487.874 175.613 Q488.108 175.473 488.975 175.473 L515.583 175.473 Q516.005 175.473 516.145 175.473 Q516.286 175.473 516.52 175.519 Q516.754 175.566 516.824 175.683 Q516.895 175.801 516.895 175.988 Z" fill="#000000" fill-rule="nonzero" fill-opacity="1" /><path clip-path="url(#clip840)" d="M521.684 208.571 L521.684 207.522 L524.324 207.522 L524.324 203.669 Q524.324 201.177 525.931 199.751 Q527.554 198.324 529.538 198.324 Q530.849 198.324 531.702 199.029 Q532.554 199.734 532.554 200.685 Q532.554 201.325 532.161 201.751 Q531.784 202.161 531.079 202.161 Q530.407 202.161 530.013 201.734 Q529.636 201.308 529.636 200.718 Q529.636 199.636 530.636 199.308 Q530.128 199.078 529.538 199.062 Q528.324 199.062 527.373 200.308 Q526.439 201.554 526.439 203.636 L526.439 207.522 L530.374 207.522 L530.374 208.571 L526.554 208.571 L526.554 219.376 Q526.554 220.344 526.947 220.655 Q527.357 220.967 529.095 220.967 L529.8 220.967 L529.8 222 Q528.455 221.901 525.537 221.901 Q525.127 221.901 524.488 221.918 Q523.865 221.934 523.012 221.967 Q522.176 222 521.717 222 L521.717 220.967 Q523.504 220.967 523.914 220.754 Q524.324 220.524 524.324 219.442 L524.324 208.571 L521.684 208.571 Z" fill="#000000" fill-rule="nonzero" fill-opacity="1" /><path clip-path="url(#clip840)" d="M534.906 222 Q534.906 221.393 534.955 221.213 Q535.021 221.032 535.283 220.754 L541.727 213.572 Q545.252 209.604 545.252 206.145 Q545.252 203.899 544.071 202.292 Q542.907 200.685 540.759 200.685 Q539.284 200.685 538.038 201.587 Q536.792 202.489 536.218 204.095 Q536.316 204.063 536.66 204.063 Q537.497 204.063 537.956 204.587 Q538.431 205.112 538.431 205.817 Q538.431 206.719 537.841 207.161 Q537.267 207.588 536.693 207.588 Q536.464 207.588 536.152 207.539 Q535.857 207.489 535.382 207.03 Q534.906 206.555 534.906 205.719 Q534.906 203.374 536.677 201.505 Q538.464 199.636 541.186 199.636 Q544.268 199.636 546.285 201.472 Q548.318 203.292 548.318 206.145 Q548.318 207.145 548.006 208.063 Q547.711 208.965 547.301 209.67 Q546.908 210.375 545.826 211.506 Q544.744 212.638 543.875 213.441 Q543.006 214.244 541.055 215.95 L537.497 219.409 L543.547 219.409 Q546.498 219.409 546.727 219.147 Q547.055 218.671 547.465 216.163 L548.318 216.163 L547.367 222 L534.906 222 Z" fill="#000000" fill-rule="nonzero" fill-opacity="1" /><path clip-path="url(#clip840)" d="M558.549 202.057 L563.433 202.057 L563.433 206.038 L559.637 213.445 L556.651 213.445 L558.549 206.038 L558.549 202.057 Z" fill="#000000" fill-rule="nonzero" fill-opacity="1" /><path clip-path="url(#clip840)" d="M609.776 193.908 L609.776 195.992 L590.193 195.992 Q590.47 200.39 592.831 202.705 Q595.216 204.996 599.452 204.996 Q601.906 204.996 604.197 204.394 Q606.512 203.793 608.78 202.589 L608.78 206.617 Q606.489 207.589 604.081 208.098 Q601.674 208.607 599.197 208.607 Q592.994 208.607 589.359 204.996 Q585.748 201.385 585.748 195.228 Q585.748 188.862 589.174 185.135 Q592.623 181.385 598.456 181.385 Q603.688 181.385 606.72 184.765 Q609.776 188.121 609.776 193.908 M605.517 192.658 Q605.47 189.163 603.549 187.08 Q601.651 184.996 598.503 184.996 Q594.938 184.996 592.785 187.01 Q590.656 189.024 590.331 192.682 L605.517 192.658 Z" fill="#000000" fill-rule="nonzero" fill-opacity="1" /><path clip-path="url(#clip840)" d="M637.484 182.01 L628.109 194.626 L637.97 207.936 L632.947 207.936 L625.401 197.751 L617.854 207.936 L612.831 207.936 L622.901 194.371 L613.688 182.01 L618.711 182.01 L625.586 191.246 L632.461 182.01 L637.484 182.01 Z" fill="#000000" fill-rule="nonzero" fill-opacity="1" /><path clip-path="url(#clip840)" d="M648.109 204.047 L648.109 217.797 L643.827 217.797 L643.827 182.01 L648.109 182.01 L648.109 185.946 Q649.452 183.631 651.489 182.52 Q653.549 181.385 656.396 181.385 Q661.118 181.385 664.058 185.135 Q667.021 188.885 667.021 194.996 Q667.021 201.107 664.058 204.857 Q661.118 208.607 656.396 208.607 Q653.549 208.607 651.489 207.496 Q649.452 206.362 648.109 204.047 M662.6 194.996 Q662.6 190.297 660.655 187.635 Q658.734 184.95 655.354 184.95 Q651.975 184.95 650.03 187.635 Q648.109 190.297 648.109 194.996 Q648.109 199.695 650.03 202.381 Q651.975 205.043 655.354 205.043 Q658.734 205.043 660.655 202.381 Q662.6 199.695 662.6 194.996 Z" fill="#000000" fill-rule="nonzero" fill-opacity="1" /><path clip-path="url(#clip840)" d="M674.683 202.057 L679.567 202.057 L679.567 207.936 L674.683 207.936 L674.683 202.057 Z" fill="#000000" fill-rule="nonzero" fill-opacity="1" /><path clip-path="url(#clip840)" d="M389.66 227.982 L366.905 250.738 L389.66 273.493 L412.416 250.738 L389.66 227.982 Z" fill="#6badd5" fill-rule="evenodd" fill-opacity="1" stroke="#000000" stroke-opacity="1" stroke-width="4.55111"/>
<path clip-path="url(#clip840)" d="M516.895 227.462 Q516.895 227.907 516.801 228.281 L515.489 236.62 Q515.419 237.252 515.279 237.486 Q515.161 237.721 514.787 237.721 Q514.201 237.721 514.201 237.112 Q514.201 236.76 514.342 236.198 Q514.74 233.551 514.74 232.357 Q514.74 231.56 514.576 230.975 Q514.435 230.366 514.201 229.944 Q513.99 229.523 513.498 229.242 Q513.007 228.961 512.538 228.797 Q512.07 228.633 511.226 228.562 Q510.383 228.469 509.657 228.445 Q508.931 228.422 507.736 228.422 Q505.137 228.422 504.715 228.516 Q504.27 228.633 504.036 228.984 Q503.825 229.312 503.591 230.296 L497.22 255.756 L497.032 256.763 Q497.032 257.325 497.384 257.513 Q497.735 257.7 498.813 257.817 Q500.358 257.934 501.881 257.934 Q501.928 257.934 502.021 257.934 Q502.537 257.934 502.747 257.958 Q502.958 257.958 503.169 258.004 Q503.38 258.051 503.427 258.168 Q503.497 258.262 503.497 258.449 Q503.497 258.894 503.31 259.129 Q503.122 259.339 502.935 259.386 Q502.771 259.41 502.443 259.41 Q501.787 259.41 500.382 259.363 Q498.976 259.316 498.274 259.316 L494.292 259.269 L490.216 259.316 Q489.584 259.316 488.249 259.363 Q486.914 259.41 486.282 259.41 Q485.462 259.41 485.462 258.824 Q485.462 258.168 485.766 258.051 Q486.094 257.934 487.476 257.934 Q489.42 257.934 490.474 257.84 Q491.528 257.747 492.09 257.419 Q492.676 257.091 492.84 256.763 Q493.004 256.412 493.191 255.615 L499.632 230.015 Q499.82 229.452 499.82 229.007 Q499.82 228.773 499.749 228.679 Q499.703 228.586 499.398 228.516 Q499.094 228.422 498.461 228.422 L496.587 228.422 Q494.667 228.422 493.472 228.516 Q492.301 228.586 491.177 228.937 Q490.076 229.288 489.42 229.78 Q488.788 230.272 488.085 231.279 Q487.382 232.287 486.867 233.505 Q486.375 234.722 485.673 236.713 Q485.438 237.369 485.298 237.557 Q485.181 237.721 484.853 237.721 Q484.619 237.721 484.431 237.58 Q484.267 237.416 484.267 237.205 Q484.501 236.432 484.548 236.339 L487.429 227.883 Q487.663 227.204 487.874 227.087 Q488.108 226.946 488.975 226.946 L515.583 226.946 Q516.005 226.946 516.145 226.946 Q516.286 226.946 516.52 226.993 Q516.754 227.04 516.824 227.157 Q516.895 227.274 516.895 227.462 Z" fill="#000000" fill-rule="nonzero" fill-opacity="1" /><path clip-path="url(#clip840)" d="M521.684 260.045 L521.684 258.996 L524.324 258.996 L524.324 255.143 Q524.324 252.651 525.931 251.224 Q527.554 249.798 529.538 249.798 Q530.849 249.798 531.702 250.503 Q532.554 251.208 532.554 252.159 Q532.554 252.798 532.161 253.224 Q531.784 253.634 531.079 253.634 Q530.407 253.634 530.013 253.208 Q529.636 252.782 529.636 252.192 Q529.636 251.109 530.636 250.782 Q530.128 250.552 529.538 250.536 Q528.324 250.536 527.373 251.782 Q526.439 253.028 526.439 255.11 L526.439 258.996 L530.374 258.996 L530.374 260.045 L526.554 260.045 L526.554 270.85 Q526.554 271.817 526.947 272.129 Q527.357 272.44 529.095 272.44 L529.8 272.44 L529.8 273.473 Q528.455 273.375 525.537 273.375 Q525.127 273.375 524.488 273.391 Q523.865 273.408 523.012 273.44 Q522.176 273.473 521.717 273.473 L521.717 272.44 Q523.504 272.44 523.914 272.227 Q524.324 271.998 524.324 270.915 L524.324 260.045 L521.684 260.045 Z" fill="#000000" fill-rule="nonzero" fill-opacity="1" /><path clip-path="url(#clip840)" d="M534.906 268.948 Q534.906 267.948 535.48 267.472 Q536.054 266.997 536.792 266.997 Q537.562 266.997 538.103 267.505 Q538.661 267.997 538.661 268.866 Q538.661 269.801 538.005 270.325 Q537.365 270.85 536.447 270.719 Q537.251 272.063 538.726 272.67 Q540.218 273.276 541.596 273.276 Q543.038 273.276 544.202 272.03 Q545.383 270.784 545.383 267.735 Q545.383 265.144 544.366 263.652 Q543.366 262.16 541.382 262.16 L539.907 262.16 Q539.399 262.16 539.251 262.111 Q539.103 262.062 539.103 261.783 Q539.103 261.455 539.612 261.39 Q540.12 261.39 540.923 261.291 Q542.874 261.226 543.907 259.537 Q544.842 257.963 544.842 255.717 Q544.842 253.667 543.858 252.815 Q542.891 251.946 541.628 251.946 Q540.448 251.946 539.153 252.437 Q537.857 252.929 537.152 254.028 Q539.235 254.028 539.235 255.717 Q539.235 256.454 538.759 256.946 Q538.3 257.422 537.529 257.422 Q536.792 257.422 536.3 256.963 Q535.808 256.487 535.808 255.684 Q535.808 253.766 537.513 252.437 Q539.235 251.109 541.76 251.109 Q544.252 251.109 546.088 252.421 Q547.941 253.733 547.941 255.749 Q547.941 257.733 546.629 259.356 Q545.317 260.98 543.235 261.652 Q545.793 262.16 547.318 263.898 Q548.842 265.62 548.842 267.735 Q548.842 270.358 546.777 272.293 Q544.711 274.211 541.694 274.211 Q538.907 274.211 536.906 272.703 Q534.906 271.194 534.906 268.948 Z" fill="#000000" fill-rule="nonzero" fill-opacity="1" /><path clip-path="url(#clip840)" d="M558.549 253.53 L563.433 253.53 L563.433 257.512 L559.637 264.919 L556.651 264.919 L558.549 257.512 L558.549 253.53 Z" fill="#000000" fill-rule="nonzero" fill-opacity="1" /><path clip-path="url(#clip840)" d="M609.776 245.382 L609.776 247.465 L590.193 247.465 Q590.47 251.863 592.831 254.178 Q595.216 256.47 599.452 256.47 Q601.906 256.47 604.197 255.868 Q606.512 255.266 608.78 254.063 L608.78 258.09 Q606.489 259.063 604.081 259.572 Q601.674 260.081 599.197 260.081 Q592.994 260.081 589.359 256.47 Q585.748 252.859 585.748 246.701 Q585.748 240.336 589.174 236.609 Q592.623 232.859 598.456 232.859 Q603.688 232.859 606.72 236.239 Q609.776 239.595 609.776 245.382 M605.517 244.132 Q605.47 240.637 603.549 238.553 Q601.651 236.47 598.503 236.47 Q594.938 236.47 592.785 238.484 Q590.656 240.498 590.331 244.155 L605.517 244.132 Z" fill="#000000" fill-rule="nonzero" fill-opacity="1" /><path clip-path="url(#clip840)" d="M637.484 233.484 L628.109 246.1 L637.97 259.41 L632.947 259.41 L625.401 249.225 L617.854 259.41 L612.831 259.41 L622.901 245.845 L613.688 233.484 L618.711 233.484 L625.586 242.72 L632.461 233.484 L637.484 233.484 Z" fill="#000000" fill-rule="nonzero" fill-opacity="1" /><path clip-path="url(#clip840)" d="M648.109 255.521 L648.109 269.271 L643.827 269.271 L643.827 233.484 L648.109 233.484 L648.109 237.419 Q649.452 235.104 651.489 233.993 Q653.549 232.859 656.396 232.859 Q661.118 232.859 664.058 236.609 Q667.021 240.359 667.021 246.47 Q667.021 252.581 664.058 256.331 Q661.118 260.081 656.396 260.081 Q653.549 260.081 651.489 258.97 Q649.452 257.836 648.109 255.521 M662.6 246.47 Q662.6 241.771 660.655 239.109 Q658.734 236.424 655.354 236.424 Q651.975 236.424 650.03 239.109 Q648.109 241.771 648.109 246.47 Q648.109 251.169 650.03 253.854 Q651.975 256.516 655.354 256.516 Q658.734 256.516 660.655 253.854 Q662.6 251.169 662.6 246.47 Z" fill="#000000" fill-rule="nonzero" fill-opacity="1" /><path clip-path="url(#clip840)" d="M674.683 253.53 L679.567 253.53 L679.567 259.41 L674.683 259.41 L674.683 253.53 Z" fill="#000000" fill-rule="nonzero" fill-opacity="1" /></svg>
