<?xml version="1.0" encoding="utf-8"?>
<svg xmlns="http://www.w3.org/2000/svg" xmlns:xlink="http://www.w3.org/1999/xlink" width="600" height="400" viewBox="0 0 2400 1600">
<defs>
  <clipPath id="clip690">
    <rect x="0" y="0" width="2400" height="1600"/>
  </clipPath>
</defs>
<path clip-path="url(#clip690)" d="M0 1600 L2400 1600 L2400 0 L0 0  Z" fill="#ffffff" fill-rule="evenodd" fill-opacity="1"/>
<defs>
  <clipPath id="clip691">
    <rect x="279" y="47" width="2074" height="1377"/>
  </clipPath>
</defs>
<path clip-path="url(#clip690)" d="M234.612 1423.18 L2352.76 1423.18 L2352.76 47.2441 L234.612 47.2441  Z" fill="#ffffff" fill-rule="evenodd" fill-opacity="1"/>
<defs>
  <clipPath id="clip692">
    <rect x="234" y="47" width="2119" height="1377"/>
  </clipPath>
</defs>
<polyline clip-path="url(#clip692)" style="stroke:#000000; stroke-linecap:round; stroke-linejoin:round; stroke-width:2; stroke-opacity:0.1; fill:none" points="293.336,1423.18 293.336,47.2441 "/>
<polyline clip-path="url(#clip692)" style="stroke:#000000; stroke-linecap:round; stroke-linejoin:round; stroke-width:2; stroke-opacity:0.1; fill:none" points="682.723,1423.18 682.723,47.2441 "/>
<polyline clip-path="url(#clip692)" style="stroke:#000000; stroke-linecap:round; stroke-linejoin:round; stroke-width:2; stroke-opacity:0.1; fill:none" points="1072.11,1423.18 1072.11,47.2441 "/>
<polyline clip-path="url(#clip692)" style="stroke:#000000; stroke-linecap:round; stroke-linejoin:round; stroke-width:2; stroke-opacity:0.1; fill:none" points="1461.5,1423.18 1461.5,47.2441 "/>
<polyline clip-path="url(#clip692)" style="stroke:#000000; stroke-linecap:round; stroke-linejoin:round; stroke-width:2; stroke-opacity:0.1; fill:none" points="1850.89,1423.18 1850.89,47.2441 "/>
<polyline clip-path="url(#clip692)" style="stroke:#000000; stroke-linecap:round; stroke-linejoin:round; stroke-width:2; stroke-opacity:0.1; fill:none" points="2240.27,1423.18 2240.27,47.2441 "/>
<polyline clip-path="url(#clip692)" style="stroke:#000000; stroke-linecap:round; stroke-linejoin:round; stroke-width:2; stroke-opacity:0.1; fill:none" points="234.612,1349.54 2352.76,1349.54 "/>
<polyline clip-path="url(#clip692)" style="stroke:#000000; stroke-linecap:round; stroke-linejoin:round; stroke-width:2; stroke-opacity:0.1; fill:none" points="234.612,1075.09 2352.76,1075.09 "/>
<polyline clip-path="url(#clip692)" style="stroke:#000000; stroke-linecap:round; stroke-linejoin:round; stroke-width:2; stroke-opacity:0.1; fill:none" points="234.612,800.638 2352.76,800.638 "/>
<polyline clip-path="url(#clip692)" style="stroke:#000000; stroke-linecap:round; stroke-linejoin:round; stroke-width:2; stroke-opacity:0.1; fill:none" points="234.612,526.189 2352.76,526.189 "/>
<polyline clip-path="url(#clip692)" style="stroke:#000000; stroke-linecap:round; stroke-linejoin:round; stroke-width:2; stroke-opacity:0.1; fill:none" points="234.612,251.74 2352.76,251.74 "/>
<polyline clip-path="url(#clip690)" style="stroke:#000000; stroke-linecap:round; stroke-linejoin:round; stroke-width:4; stroke-opacity:1; fill:none" points="234.612,1423.18 2352.76,1423.18 "/>
<polyline clip-path="url(#clip690)" style="stroke:#000000; stroke-linecap:round; stroke-linejoin:round; stroke-width:4; stroke-opacity:1; fill:none" points="293.336,1423.18 293.336,1404.28 "/>
<polyline clip-path="url(#clip690)" style="stroke:#000000; stroke-linecap:round; stroke-linejoin:round; stroke-width:4; stroke-opacity:1; fill:none" points="682.723,1423.18 682.723,1404.28 "/>
<polyline clip-path="url(#clip690)" style="stroke:#000000; stroke-linecap:round; stroke-linejoin:round; stroke-width:4; stroke-opacity:1; fill:none" points="1072.11,1423.18 1072.11,1404.28 "/>
<polyline clip-path="url(#clip690)" style="stroke:#000000; stroke-linecap:round; stroke-linejoin:round; stroke-width:4; stroke-opacity:1; fill:none" points="1461.5,1423.18 1461.5,1404.28 "/>
<polyline clip-path="url(#clip690)" style="stroke:#000000; stroke-linecap:round; stroke-linejoin:round; stroke-width:4; stroke-opacity:1; fill:none" points="1850.89,1423.18 1850.89,1404.28 "/>
<polyline clip-path="url(#clip690)" style="stroke:#000000; stroke-linecap:round; stroke-linejoin:round; stroke-width:4; stroke-opacity:1; fill:none" points="2240.27,1423.18 2240.27,1404.28 "/>
<path clip-path="url(#clip690)" d="M293.336 1454.1 Q289.725 1454.1 287.896 1457.66 Q286.091 1461.2 286.091 1468.33 Q286.091 1475.44 287.896 1479.01 Q289.725 1482.55 293.336 1482.55 Q296.97 1482.55 298.776 1479.01 Q300.605 1475.44 300.605 1468.33 Q300.605 1461.2 298.776 1457.66 Q296.97 1454.1 293.336 1454.1 M293.336 1450.39 Q299.146 1450.39 302.202 1455 Q305.281 1459.58 305.281 1468.33 Q305.281 1477.06 302.202 1481.67 Q299.146 1486.25 293.336 1486.25 Q287.526 1486.25 284.447 1481.67 Q281.392 1477.06 281.392 1468.33 Q281.392 1459.58 284.447 1455 Q287.526 1450.39 293.336 1450.39 Z" fill="#000000" fill-rule="nonzero" fill-opacity="1" /><path clip-path="url(#clip690)" d="M673.001 1451.02 L691.358 1451.02 L691.358 1454.96 L677.284 1454.96 L677.284 1463.43 Q678.302 1463.08 679.321 1462.92 Q680.339 1462.73 681.358 1462.73 Q687.145 1462.73 690.524 1465.9 Q693.904 1469.08 693.904 1474.49 Q693.904 1480.07 690.432 1483.17 Q686.96 1486.25 680.64 1486.25 Q678.464 1486.25 676.196 1485.88 Q673.95 1485.51 671.543 1484.77 L671.543 1480.07 Q673.626 1481.2 675.848 1481.76 Q678.071 1482.32 680.548 1482.32 Q684.552 1482.32 686.89 1480.21 Q689.228 1478.1 689.228 1474.49 Q689.228 1470.88 686.89 1468.77 Q684.552 1466.67 680.548 1466.67 Q678.673 1466.67 676.798 1467.08 Q674.946 1467.5 673.001 1468.38 L673.001 1451.02 Z" fill="#000000" fill-rule="nonzero" fill-opacity="1" /><path clip-path="url(#clip690)" d="M1046.8 1481.64 L1054.44 1481.64 L1054.44 1455.28 L1046.13 1456.95 L1046.13 1452.69 L1054.39 1451.02 L1059.07 1451.02 L1059.07 1481.64 L1066.71 1481.64 L1066.71 1485.58 L1046.8 1485.58 L1046.8 1481.64 Z" fill="#000000" fill-rule="nonzero" fill-opacity="1" /><path clip-path="url(#clip690)" d="M1086.15 1454.1 Q1082.54 1454.1 1080.71 1457.66 Q1078.9 1461.2 1078.9 1468.33 Q1078.9 1475.44 1080.71 1479.01 Q1082.54 1482.55 1086.15 1482.55 Q1089.78 1482.55 1091.59 1479.01 Q1093.42 1475.44 1093.42 1468.33 Q1093.42 1461.2 1091.59 1457.66 Q1089.78 1454.1 1086.15 1454.1 M1086.15 1450.39 Q1091.96 1450.39 1095.02 1455 Q1098.09 1459.58 1098.09 1468.33 Q1098.09 1477.06 1095.02 1481.67 Q1091.96 1486.25 1086.15 1486.25 Q1080.34 1486.25 1077.26 1481.67 Q1074.21 1477.06 1074.21 1468.33 Q1074.21 1459.58 1077.26 1455 Q1080.34 1450.39 1086.15 1450.39 Z" fill="#000000" fill-rule="nonzero" fill-opacity="1" /><path clip-path="url(#clip690)" d="M1436.68 1481.64 L1444.32 1481.64 L1444.32 1455.28 L1436.01 1456.95 L1436.01 1452.69 L1444.28 1451.02 L1448.95 1451.02 L1448.95 1481.64 L1456.59 1481.64 L1456.59 1485.58 L1436.68 1485.58 L1436.68 1481.64 Z" fill="#000000" fill-rule="nonzero" fill-opacity="1" /><path clip-path="url(#clip690)" d="M1466.08 1451.02 L1484.44 1451.02 L1484.44 1454.96 L1470.36 1454.96 L1470.36 1463.43 Q1471.38 1463.08 1472.4 1462.92 Q1473.42 1462.73 1474.44 1462.73 Q1480.22 1462.73 1483.6 1465.9 Q1486.98 1469.08 1486.98 1474.49 Q1486.98 1480.07 1483.51 1483.17 Q1480.04 1486.25 1473.72 1486.25 Q1471.54 1486.25 1469.28 1485.88 Q1467.03 1485.51 1464.62 1484.77 L1464.62 1480.07 Q1466.71 1481.2 1468.93 1481.76 Q1471.15 1482.32 1473.63 1482.32 Q1477.63 1482.32 1479.97 1480.21 Q1482.31 1478.1 1482.31 1474.49 Q1482.31 1470.88 1479.97 1468.77 Q1477.63 1466.67 1473.63 1466.67 Q1471.75 1466.67 1469.88 1467.08 Q1468.03 1467.5 1466.08 1468.38 L1466.08 1451.02 Z" fill="#000000" fill-rule="nonzero" fill-opacity="1" /><path clip-path="url(#clip690)" d="M1829.66 1481.64 L1845.98 1481.64 L1845.98 1485.58 L1824.03 1485.58 L1824.03 1481.64 Q1826.7 1478.89 1831.28 1474.26 Q1835.89 1469.61 1837.07 1468.27 Q1839.31 1465.74 1840.19 1464.01 Q1841.09 1462.25 1841.09 1460.56 Q1841.09 1457.8 1839.15 1456.07 Q1837.23 1454.33 1834.13 1454.33 Q1831.93 1454.33 1829.47 1455.09 Q1827.04 1455.86 1824.27 1457.41 L1824.27 1452.69 Q1827.09 1451.55 1829.54 1450.97 Q1832 1450.39 1834.03 1450.39 Q1839.4 1450.39 1842.6 1453.08 Q1845.79 1455.77 1845.79 1460.26 Q1845.79 1462.39 1844.98 1464.31 Q1844.2 1466.2 1842.09 1468.8 Q1841.51 1469.47 1838.41 1472.69 Q1835.31 1475.88 1829.66 1481.64 Z" fill="#000000" fill-rule="nonzero" fill-opacity="1" /><path clip-path="url(#clip690)" d="M1865.79 1454.1 Q1862.18 1454.1 1860.35 1457.66 Q1858.55 1461.2 1858.55 1468.33 Q1858.55 1475.44 1860.35 1479.01 Q1862.18 1482.55 1865.79 1482.55 Q1869.43 1482.55 1871.23 1479.01 Q1873.06 1475.44 1873.06 1468.33 Q1873.06 1461.2 1871.23 1457.66 Q1869.43 1454.1 1865.79 1454.1 M1865.79 1450.39 Q1871.6 1450.39 1874.66 1455 Q1877.74 1459.58 1877.74 1468.33 Q1877.74 1477.06 1874.66 1481.67 Q1871.6 1486.25 1865.79 1486.25 Q1859.98 1486.25 1856.9 1481.67 Q1853.85 1477.06 1853.85 1468.33 Q1853.85 1459.58 1856.9 1455 Q1859.98 1450.39 1865.79 1450.39 Z" fill="#000000" fill-rule="nonzero" fill-opacity="1" /><path clip-path="url(#clip690)" d="M2219.54 1481.64 L2235.86 1481.64 L2235.86 1485.58 L2213.92 1485.58 L2213.92 1481.64 Q2216.58 1478.89 2221.16 1474.26 Q2225.77 1469.61 2226.95 1468.27 Q2229.2 1465.74 2230.08 1464.01 Q2230.98 1462.25 2230.98 1460.56 Q2230.98 1457.8 2229.03 1456.07 Q2227.11 1454.33 2224.01 1454.33 Q2221.81 1454.33 2219.36 1455.09 Q2216.93 1455.86 2214.15 1457.41 L2214.15 1452.69 Q2216.97 1451.55 2219.43 1450.97 Q2221.88 1450.39 2223.92 1450.39 Q2229.29 1450.39 2232.48 1453.08 Q2235.68 1455.77 2235.68 1460.26 Q2235.68 1462.39 2234.87 1464.31 Q2234.08 1466.2 2231.97 1468.8 Q2231.4 1469.47 2228.29 1472.69 Q2225.19 1475.88 2219.54 1481.64 Z" fill="#000000" fill-rule="nonzero" fill-opacity="1" /><path clip-path="url(#clip690)" d="M2245.72 1451.02 L2264.08 1451.02 L2264.08 1454.96 L2250.01 1454.96 L2250.01 1463.43 Q2251.02 1463.08 2252.04 1462.92 Q2253.06 1462.73 2254.08 1462.73 Q2259.87 1462.73 2263.25 1465.9 Q2266.63 1469.08 2266.63 1474.49 Q2266.63 1480.07 2263.15 1483.17 Q2259.68 1486.25 2253.36 1486.25 Q2251.19 1486.25 2248.92 1485.88 Q2246.67 1485.51 2244.27 1484.77 L2244.27 1480.07 Q2246.35 1481.2 2248.57 1481.76 Q2250.79 1482.32 2253.27 1482.32 Q2257.27 1482.32 2259.61 1480.21 Q2261.95 1478.1 2261.95 1474.49 Q2261.95 1470.88 2259.61 1468.77 Q2257.27 1466.67 2253.27 1466.67 Q2251.4 1466.67 2249.52 1467.08 Q2247.67 1467.5 2245.72 1468.38 L2245.72 1451.02 Z" fill="#000000" fill-rule="nonzero" fill-opacity="1" /><path clip-path="url(#clip690)" d="M1292.44 1546.53 L1292.44 1568.04 L1286.59 1568.04 L1286.59 1546.72 Q1286.59 1541.66 1284.61 1539.14 Q1282.64 1536.63 1278.69 1536.63 Q1273.95 1536.63 1271.21 1539.65 Q1268.48 1542.68 1268.48 1547.9 L1268.48 1568.04 L1262.59 1568.04 L1262.59 1518.52 L1268.48 1518.52 L1268.48 1537.93 Q1270.58 1534.72 1273.41 1533.13 Q1276.27 1531.54 1280 1531.54 Q1286.14 1531.54 1289.29 1535.36 Q1292.44 1539.14 1292.44 1546.53 Z" fill="#000000" fill-rule="nonzero" fill-opacity="1" /><path clip-path="url(#clip690)" d="M1324.78 1537.87 Q1323.79 1537.3 1322.62 1537.04 Q1321.47 1536.76 1320.07 1536.76 Q1315.1 1536.76 1312.43 1540 Q1309.79 1543.22 1309.79 1549.27 L1309.79 1568.04 L1303.9 1568.04 L1303.9 1532.4 L1309.79 1532.4 L1309.79 1537.93 Q1311.64 1534.69 1314.6 1533.13 Q1317.56 1531.54 1321.79 1531.54 Q1322.39 1531.54 1323.13 1531.63 Q1323.86 1531.7 1324.75 1531.85 L1324.78 1537.87 Z" fill="#000000" fill-rule="nonzero" fill-opacity="1" /><polyline clip-path="url(#clip690)" style="stroke:#000000; stroke-linecap:round; stroke-linejoin:round; stroke-width:4; stroke-opacity:1; fill:none" points="234.612,1423.18 234.612,47.2441 "/>
<polyline clip-path="url(#clip690)" style="stroke:#000000; stroke-linecap:round; stroke-linejoin:round; stroke-width:4; stroke-opacity:1; fill:none" points="234.612,1349.54 253.509,1349.54 "/>
<polyline clip-path="url(#clip690)" style="stroke:#000000; stroke-linecap:round; stroke-linejoin:round; stroke-width:4; stroke-opacity:1; fill:none" points="234.612,1075.09 253.509,1075.09 "/>
<polyline clip-path="url(#clip690)" style="stroke:#000000; stroke-linecap:round; stroke-linejoin:round; stroke-width:4; stroke-opacity:1; fill:none" points="234.612,800.638 253.509,800.638 "/>
<polyline clip-path="url(#clip690)" style="stroke:#000000; stroke-linecap:round; stroke-linejoin:round; stroke-width:4; stroke-opacity:1; fill:none" points="234.612,526.189 253.509,526.189 "/>
<polyline clip-path="url(#clip690)" style="stroke:#000000; stroke-linecap:round; stroke-linejoin:round; stroke-width:4; stroke-opacity:1; fill:none" points="234.612,251.74 253.509,251.74 "/>
<path clip-path="url(#clip690)" d="M119.885 1362.88 L136.204 1362.88 L136.204 1366.82 L114.26 1366.82 L114.26 1362.88 Q116.922 1360.13 121.505 1355.5 Q126.112 1350.84 127.292 1349.5 Q129.538 1346.98 130.417 1345.24 Q131.32 1343.48 131.32 1341.79 Q131.32 1339.04 129.376 1337.3 Q127.455 1335.57 124.353 1335.57 Q122.154 1335.57 119.7 1336.33 Q117.269 1337.09 114.492 1338.65 L114.492 1333.92 Q117.316 1332.79 119.769 1332.21 Q122.223 1331.63 124.26 1331.63 Q129.63 1331.63 132.825 1334.32 Q136.019 1337 136.019 1341.49 Q136.019 1343.62 135.209 1345.54 Q134.422 1347.44 132.316 1350.03 Q131.737 1350.71 128.635 1353.92 Q125.533 1357.12 119.885 1362.88 Z" fill="#000000" fill-rule="nonzero" fill-opacity="1" /><path clip-path="url(#clip690)" d="M160.186 1348.18 Q163.542 1348.9 165.417 1351.17 Q167.315 1353.44 167.315 1356.77 Q167.315 1361.89 163.797 1364.69 Q160.278 1367.49 153.797 1367.49 Q151.621 1367.49 149.306 1367.05 Q147.015 1366.63 144.561 1365.77 L144.561 1361.26 Q146.505 1362.39 148.82 1362.97 Q151.135 1363.55 153.658 1363.55 Q158.056 1363.55 160.348 1361.82 Q162.663 1360.08 162.663 1356.77 Q162.663 1353.71 160.51 1352 Q158.38 1350.27 154.561 1350.27 L150.533 1350.27 L150.533 1346.42 L154.746 1346.42 Q158.195 1346.42 160.024 1345.06 Q161.852 1343.67 161.852 1341.08 Q161.852 1338.41 159.954 1337 Q158.079 1335.57 154.561 1335.57 Q152.64 1335.57 150.441 1335.98 Q148.241 1336.4 145.603 1337.28 L145.603 1333.11 Q148.265 1332.37 150.579 1332 Q152.917 1331.63 154.978 1331.63 Q160.302 1331.63 163.403 1334.06 Q166.505 1336.47 166.505 1340.59 Q166.505 1343.46 164.862 1345.45 Q163.218 1347.42 160.186 1348.18 Z" fill="#000000" fill-rule="nonzero" fill-opacity="1" /><path clip-path="url(#clip690)" d="M189.028 1336.33 L177.223 1354.78 L189.028 1354.78 L189.028 1336.33 M187.801 1332.26 L193.681 1332.26 L193.681 1354.78 L198.612 1354.78 L198.612 1358.67 L193.681 1358.67 L193.681 1366.82 L189.028 1366.82 L189.028 1358.67 L173.427 1358.67 L173.427 1354.15 L187.801 1332.26 Z" fill="#000000" fill-rule="nonzero" fill-opacity="1" /><path clip-path="url(#clip690)" d="M121.274 1088.43 L137.593 1088.43 L137.593 1092.37 L115.649 1092.37 L115.649 1088.43 Q118.311 1085.68 122.894 1081.05 Q127.501 1076.4 128.681 1075.05 Q130.927 1072.53 131.806 1070.79 Q132.709 1069.03 132.709 1067.34 Q132.709 1064.59 130.765 1062.85 Q128.843 1061.12 125.742 1061.12 Q123.543 1061.12 121.089 1061.88 Q118.658 1062.65 115.881 1064.2 L115.881 1059.47 Q118.705 1058.34 121.158 1057.76 Q123.612 1057.18 125.649 1057.18 Q131.019 1057.18 134.214 1059.87 Q137.408 1062.55 137.408 1067.04 Q137.408 1069.17 136.598 1071.09 Q135.811 1072.99 133.704 1075.58 Q133.126 1076.26 130.024 1079.47 Q126.922 1082.67 121.274 1088.43 Z" fill="#000000" fill-rule="nonzero" fill-opacity="1" /><path clip-path="url(#clip690)" d="M161.575 1073.73 Q164.931 1074.45 166.806 1076.72 Q168.704 1078.99 168.704 1082.32 Q168.704 1087.44 165.186 1090.24 Q161.667 1093.04 155.186 1093.04 Q153.01 1093.04 150.695 1092.6 Q148.403 1092.18 145.95 1091.33 L145.95 1086.81 Q147.894 1087.95 150.209 1088.52 Q152.524 1089.1 155.047 1089.1 Q159.445 1089.1 161.737 1087.37 Q164.052 1085.63 164.052 1082.32 Q164.052 1079.27 161.899 1077.55 Q159.769 1075.82 155.95 1075.82 L151.922 1075.82 L151.922 1071.97 L156.135 1071.97 Q159.584 1071.97 161.413 1070.61 Q163.241 1069.22 163.241 1066.63 Q163.241 1063.96 161.343 1062.55 Q159.468 1061.12 155.95 1061.12 Q154.028 1061.12 151.829 1061.53 Q149.63 1061.95 146.991 1062.83 L146.991 1058.66 Q149.653 1057.92 151.968 1057.55 Q154.306 1057.18 156.366 1057.18 Q161.69 1057.18 164.792 1059.61 Q167.894 1062.02 167.894 1066.14 Q167.894 1069.01 166.251 1071 Q164.607 1072.97 161.575 1073.73 Z" fill="#000000" fill-rule="nonzero" fill-opacity="1" /><path clip-path="url(#clip690)" d="M176.389 1057.81 L198.612 1057.81 L198.612 1059.8 L186.065 1092.37 L181.181 1092.37 L192.987 1061.74 L176.389 1061.74 L176.389 1057.81 Z" fill="#000000" fill-rule="nonzero" fill-opacity="1" /><path clip-path="url(#clip690)" d="M120.371 813.983 L136.691 813.983 L136.691 817.918 L114.746 817.918 L114.746 813.983 Q117.408 811.228 121.992 806.599 Q126.598 801.946 127.779 800.603 Q130.024 798.08 130.904 796.344 Q131.806 794.585 131.806 792.895 Q131.806 790.141 129.862 788.404 Q127.941 786.668 124.839 786.668 Q122.64 786.668 120.186 787.432 Q117.756 788.196 114.978 789.747 L114.978 785.025 Q117.802 783.891 120.255 783.312 Q122.709 782.733 124.746 782.733 Q130.117 782.733 133.311 785.418 Q136.505 788.104 136.505 792.594 Q136.505 794.724 135.695 796.645 Q134.908 798.543 132.802 801.136 Q132.223 801.807 129.121 805.025 Q126.019 808.219 120.371 813.983 Z" fill="#000000" fill-rule="nonzero" fill-opacity="1" /><path clip-path="url(#clip690)" d="M159.353 787.432 L147.547 805.881 L159.353 805.881 L159.353 787.432 M158.126 783.358 L164.005 783.358 L164.005 805.881 L168.936 805.881 L168.936 809.77 L164.005 809.77 L164.005 817.918 L159.353 817.918 L159.353 809.77 L143.751 809.77 L143.751 805.256 L158.126 783.358 Z" fill="#000000" fill-rule="nonzero" fill-opacity="1" /><path clip-path="url(#clip690)" d="M186.667 786.437 Q183.056 786.437 181.227 790.002 Q179.422 793.543 179.422 800.673 Q179.422 807.779 181.227 811.344 Q183.056 814.886 186.667 814.886 Q190.301 814.886 192.107 811.344 Q193.936 807.779 193.936 800.673 Q193.936 793.543 192.107 790.002 Q190.301 786.437 186.667 786.437 M186.667 782.733 Q192.477 782.733 195.533 787.34 Q198.612 791.923 198.612 800.673 Q198.612 809.4 195.533 814.006 Q192.477 818.589 186.667 818.589 Q180.857 818.589 177.778 814.006 Q174.723 809.4 174.723 800.673 Q174.723 791.923 177.778 787.34 Q180.857 782.733 186.667 782.733 Z" fill="#000000" fill-rule="nonzero" fill-opacity="1" /><path clip-path="url(#clip690)" d="M121.019 539.534 L137.339 539.534 L137.339 543.469 L115.394 543.469 L115.394 539.534 Q118.056 536.779 122.64 532.15 Q127.246 527.497 128.427 526.154 Q130.672 523.631 131.552 521.895 Q132.455 520.136 132.455 518.446 Q132.455 515.692 130.51 513.955 Q128.589 512.219 125.487 512.219 Q123.288 512.219 120.834 512.983 Q118.404 513.747 115.626 515.298 L115.626 510.576 Q118.45 509.442 120.904 508.863 Q123.357 508.284 125.394 508.284 Q130.765 508.284 133.959 510.969 Q137.154 513.655 137.154 518.145 Q137.154 520.275 136.343 522.196 Q135.556 524.094 133.45 526.687 Q132.871 527.358 129.769 530.576 Q126.667 533.77 121.019 539.534 Z" fill="#000000" fill-rule="nonzero" fill-opacity="1" /><path clip-path="url(#clip690)" d="M160.001 512.983 L148.195 531.432 L160.001 531.432 L160.001 512.983 M158.774 508.909 L164.653 508.909 L164.653 531.432 L169.584 531.432 L169.584 535.321 L164.653 535.321 L164.653 543.469 L160.001 543.469 L160.001 535.321 L144.399 535.321 L144.399 530.807 L158.774 508.909 Z" fill="#000000" fill-rule="nonzero" fill-opacity="1" /><path clip-path="url(#clip690)" d="M191.482 524.835 Q194.838 525.553 196.713 527.821 Q198.612 530.09 198.612 533.423 Q198.612 538.539 195.093 541.34 Q191.575 544.14 185.093 544.14 Q182.917 544.14 180.602 543.701 Q178.311 543.284 175.857 542.428 L175.857 537.914 Q177.801 539.048 180.116 539.627 Q182.431 540.205 184.954 540.205 Q189.352 540.205 191.644 538.469 Q193.959 536.733 193.959 533.423 Q193.959 530.367 191.806 528.654 Q189.676 526.918 185.857 526.918 L181.829 526.918 L181.829 523.076 L186.042 523.076 Q189.491 523.076 191.32 521.71 Q193.149 520.321 193.149 517.729 Q193.149 515.067 191.25 513.655 Q189.375 512.219 185.857 512.219 Q183.936 512.219 181.737 512.636 Q179.538 513.053 176.899 513.932 L176.899 509.766 Q179.561 509.025 181.876 508.655 Q184.213 508.284 186.274 508.284 Q191.598 508.284 194.7 510.715 Q197.801 513.122 197.801 517.242 Q197.801 520.113 196.158 522.104 Q194.514 524.071 191.482 524.835 Z" fill="#000000" fill-rule="nonzero" fill-opacity="1" /><path clip-path="url(#clip690)" d="M120.209 265.085 L136.529 265.085 L136.529 269.02 L114.584 269.02 L114.584 265.085 Q117.246 262.33 121.83 257.701 Q126.436 253.048 127.617 251.705 Q129.862 249.182 130.742 247.446 Q131.644 245.687 131.644 243.997 Q131.644 241.243 129.7 239.506 Q127.779 237.77 124.677 237.77 Q122.478 237.77 120.024 238.534 Q117.593 239.298 114.816 240.849 L114.816 236.127 Q117.64 234.993 120.093 234.414 Q122.547 233.835 124.584 233.835 Q129.955 233.835 133.149 236.52 Q136.343 239.206 136.343 243.696 Q136.343 245.826 135.533 247.747 Q134.746 249.645 132.64 252.238 Q132.061 252.909 128.959 256.127 Q125.857 259.321 120.209 265.085 Z" fill="#000000" fill-rule="nonzero" fill-opacity="1" /><path clip-path="url(#clip690)" d="M159.19 238.534 L147.385 256.983 L159.19 256.983 L159.19 238.534 M157.964 234.46 L163.843 234.46 L163.843 256.983 L168.774 256.983 L168.774 260.872 L163.843 260.872 L163.843 269.02 L159.19 269.02 L159.19 260.872 L143.589 260.872 L143.589 256.358 L157.964 234.46 Z" fill="#000000" fill-rule="nonzero" fill-opacity="1" /><path clip-path="url(#clip690)" d="M187.084 249.877 Q183.936 249.877 182.084 252.03 Q180.255 254.182 180.255 257.932 Q180.255 261.659 182.084 263.835 Q183.936 265.988 187.084 265.988 Q190.232 265.988 192.061 263.835 Q193.913 261.659 193.913 257.932 Q193.913 254.182 192.061 252.03 Q190.232 249.877 187.084 249.877 M196.366 235.224 L196.366 239.483 Q194.607 238.65 192.801 238.21 Q191.019 237.77 189.26 237.77 Q184.63 237.77 182.176 240.895 Q179.746 244.02 179.399 250.34 Q180.764 248.326 182.825 247.261 Q184.885 246.173 187.362 246.173 Q192.57 246.173 195.579 249.344 Q198.612 252.492 198.612 257.932 Q198.612 263.256 195.463 266.474 Q192.315 269.691 187.084 269.691 Q181.089 269.691 177.917 265.108 Q174.746 260.502 174.746 251.775 Q174.746 243.581 178.635 238.719 Q182.524 233.835 189.075 233.835 Q190.834 233.835 192.616 234.182 Q194.422 234.53 196.366 235.224 Z" fill="#000000" fill-rule="nonzero" fill-opacity="1" /><path clip-path="url(#clip690)" d="M16.4842 754.07 L16.4842 747.641 L36.568 747.641 L16.4842 726.316 L16.4842 718.04 L38.6368 741.625 L64.0042 716.354 L64.0042 724.82 L41.1194 747.641 L64.0042 747.641 L64.0042 754.07 L16.4842 754.07 Z" fill="#000000" fill-rule="nonzero" fill-opacity="1" /><polyline clip-path="url(#clip692)" style="stroke:#d94601; stroke-linecap:round; stroke-linejoin:round; stroke-width:4; stroke-opacity:1; fill:none" points="294.559,1384.24 294.559,1384.24 294.56,1384.23 294.568,1384.18 294.646,1383.67 295.424,1378.59 300.758,1344.07 311.037,1277.87 330.324,1148.41 356.917,945.869 371.214,823.746 408.749,740.184 435.084,692.966 483.321,622.062 536.784,560.236 611.282,493.07 701.931,430.716 815.736,371.459 951.752,318.231 1112.43,271.012 1297.11,230.209 1504.7,195.591 1730.64,166.97 1872.21,152.503 "/>
<polyline clip-path="url(#clip692)" style="stroke:#fc8d3b; stroke-linecap:round; stroke-linejoin:round; stroke-width:4; stroke-opacity:1; fill:none" points="294.559,1384.24 294.559,1384.24 294.56,1384.23 294.568,1384.17 294.646,1383.6 295.424,1377.92 300.402,1341.86 309.744,1274.62 326.557,1149.57 351.773,939.51 371.214,756.237 412.49,655.204 441.382,600.846 493.08,523.389 549.841,458.341 627.44,390.451 720.36,329.393 834.759,273.058 969.352,223.524 1125.97,180.356 1303.35,143.624 1499.34,112.967 1707.65,88.1451 1726.69,86.1857 "/>
<polyline clip-path="url(#clip692)" style="stroke:#fcbd85; stroke-linecap:round; stroke-linejoin:round; stroke-width:4; stroke-opacity:1; fill:none" points="294.559,1384.24 294.559,1384.24 294.56,1384.23 294.568,1384.2 294.646,1383.81 295.424,1379.95 301.768,1348.76 314.857,1284.43 344.899,1125.14 371.214,961.618 407.217,902.532 449.22,845.428 507.704,780.598 581.389,715.708 677.743,649.494 799.155,585.563 950.331,525.285 1132.8,470.59 1348.02,422.179 1595.6,380.316 1873.16,344.872 2173.83,315.639 2292.81,306.017 "/>
<path clip-path="url(#clip690)" d="M1827.09 1377.32 L2282.15 1377.32 L2282.15 1169.96 L1827.09 1169.96  Z" fill="#ffffff" fill-rule="evenodd" fill-opacity="1"/>
<polyline clip-path="url(#clip690)" style="stroke:#000000; stroke-linecap:round; stroke-linejoin:round; stroke-width:4; stroke-opacity:1; fill:none" points="1827.09,1377.32 2282.15,1377.32 2282.15,1169.96 1827.09,1169.96 1827.09,1377.32 "/>
<polyline clip-path="url(#clip690)" style="stroke:#d94601; stroke-linecap:round; stroke-linejoin:round; stroke-width:4; stroke-opacity:1; fill:none" points="1850.63,1221.8 1991.84,1221.8 "/>
<path clip-path="url(#clip690)" d="M2048 1198.89 Q2048 1199.33 2047.9 1199.71 L2046.59 1208.04 Q2046.52 1208.68 2046.38 1208.91 Q2046.26 1209.14 2045.89 1209.14 Q2045.3 1209.14 2045.3 1208.54 Q2045.3 1208.18 2045.45 1207.62 Q2045.84 1204.98 2045.84 1203.78 Q2045.84 1202.98 2045.68 1202.4 Q2045.54 1201.79 2045.3 1201.37 Q2045.09 1200.95 2044.6 1200.67 Q2044.11 1200.38 2043.64 1200.22 Q2043.17 1200.06 2042.33 1199.99 Q2041.49 1199.89 2040.76 1199.87 Q2040.03 1199.85 2038.84 1199.85 Q2036.24 1199.85 2035.82 1199.94 Q2035.37 1200.06 2035.14 1200.41 Q2034.93 1200.74 2034.69 1201.72 L2028.32 1227.18 L2028.14 1228.19 Q2028.14 1228.75 2028.49 1228.94 Q2028.84 1229.12 2029.92 1229.24 Q2031.46 1229.36 2032.98 1229.36 Q2033.03 1229.36 2033.12 1229.36 Q2033.64 1229.36 2033.85 1229.38 Q2034.06 1229.38 2034.27 1229.43 Q2034.48 1229.48 2034.53 1229.59 Q2034.6 1229.69 2034.6 1229.87 Q2034.6 1230.32 2034.41 1230.55 Q2034.23 1230.76 2034.04 1230.81 Q2033.87 1230.83 2033.55 1230.83 Q2032.89 1230.83 2031.49 1230.79 Q2030.08 1230.74 2029.38 1230.74 L2025.4 1230.69 L2021.32 1230.74 Q2020.69 1230.74 2019.35 1230.79 Q2018.02 1230.83 2017.39 1230.83 Q2016.57 1230.83 2016.57 1230.25 Q2016.57 1229.59 2016.87 1229.48 Q2017.2 1229.36 2018.58 1229.36 Q2020.52 1229.36 2021.58 1229.26 Q2022.63 1229.17 2023.19 1228.84 Q2023.78 1228.52 2023.94 1228.19 Q2024.11 1227.84 2024.29 1227.04 L2030.74 1201.44 Q2030.92 1200.88 2030.92 1200.43 Q2030.92 1200.2 2030.85 1200.1 Q2030.81 1200.01 2030.5 1199.94 Q2030.2 1199.85 2029.56 1199.85 L2027.69 1199.85 Q2025.77 1199.85 2024.58 1199.94 Q2023.4 1200.01 2022.28 1200.36 Q2021.18 1200.71 2020.52 1201.2 Q2019.89 1201.7 2019.19 1202.7 Q2018.49 1203.71 2017.97 1204.93 Q2017.48 1206.15 2016.78 1208.14 Q2016.54 1208.79 2016.4 1208.98 Q2016.28 1209.14 2015.96 1209.14 Q2015.72 1209.14 2015.53 1209 Q2015.37 1208.84 2015.37 1208.63 Q2015.6 1207.86 2015.65 1207.76 L2018.53 1199.31 Q2018.77 1198.63 2018.98 1198.51 Q2019.21 1198.37 2020.08 1198.37 L2046.69 1198.37 Q2047.11 1198.37 2047.25 1198.37 Q2047.39 1198.37 2047.62 1198.42 Q2047.86 1198.46 2047.93 1198.58 Q2048 1198.7 2048 1198.89 Z" fill="#000000" fill-rule="nonzero" fill-opacity="1" /><path clip-path="url(#clip690)" d="M2052.79 1231.47 L2052.79 1230.42 L2055.43 1230.42 L2055.43 1226.57 Q2055.43 1224.07 2057.03 1222.65 Q2058.66 1221.22 2060.64 1221.22 Q2061.95 1221.22 2062.81 1221.93 Q2063.66 1222.63 2063.66 1223.58 Q2063.66 1224.22 2063.26 1224.65 Q2062.89 1225.06 2062.18 1225.06 Q2061.51 1225.06 2061.12 1224.63 Q2060.74 1224.21 2060.74 1223.62 Q2060.74 1222.53 2061.74 1222.21 Q2061.23 1221.98 2060.64 1221.96 Q2059.43 1221.96 2058.48 1223.21 Q2057.54 1224.45 2057.54 1226.53 L2057.54 1230.42 L2061.48 1230.42 L2061.48 1231.47 L2057.66 1231.47 L2057.66 1242.27 Q2057.66 1243.24 2058.05 1243.55 Q2058.46 1243.86 2060.2 1243.86 L2060.9 1243.86 L2060.9 1244.9 Q2059.56 1244.8 2056.64 1244.8 Q2056.23 1244.8 2055.59 1244.82 Q2054.97 1244.83 2054.12 1244.86 Q2053.28 1244.9 2052.82 1244.9 L2052.82 1243.86 Q2054.61 1243.86 2055.02 1243.65 Q2055.43 1243.42 2055.43 1242.34 L2055.43 1231.47 L2052.79 1231.47 Z" fill="#000000" fill-rule="nonzero" fill-opacity="1" /><path clip-path="url(#clip690)" d="M2067.22 1225.73 L2067.22 1224.68 Q2071.25 1224.68 2073.33 1222.53 Q2073.91 1222.53 2074.01 1222.66 Q2074.11 1222.8 2074.11 1223.4 L2074.11 1242.24 Q2074.11 1243.24 2074.6 1243.55 Q2075.09 1243.86 2077.24 1243.86 L2078.3 1243.86 L2078.3 1244.9 Q2077.12 1244.8 2072.86 1244.8 Q2068.6 1244.8 2067.43 1244.9 L2067.43 1243.86 L2068.5 1243.86 Q2070.61 1243.86 2071.12 1243.57 Q2071.63 1243.26 2071.63 1242.24 L2071.63 1224.85 Q2069.88 1225.73 2067.22 1225.73 Z" fill="#000000" fill-rule="nonzero" fill-opacity="1" /><path clip-path="url(#clip690)" d="M2090.86 1224.95 L2095.75 1224.95 L2095.75 1228.94 L2091.95 1236.34 L2088.96 1236.34 L2090.86 1228.94 L2090.86 1224.95 Z" fill="#000000" fill-rule="nonzero" fill-opacity="1" /><path clip-path="url(#clip690)" d="M2140.1 1209.88 Q2141.7 1207.01 2143.92 1205.65 Q2146.14 1204.28 2149.15 1204.28 Q2153.2 1204.28 2155.4 1207.13 Q2157.6 1209.95 2157.6 1215.19 L2157.6 1230.83 L2153.32 1230.83 L2153.32 1215.32 Q2153.32 1211.6 2152 1209.79 Q2150.68 1207.99 2147.97 1207.99 Q2144.66 1207.99 2142.74 1210.19 Q2140.82 1212.38 2140.82 1216.18 L2140.82 1230.83 L2136.53 1230.83 L2136.53 1215.32 Q2136.53 1211.57 2135.21 1209.79 Q2133.89 1207.99 2131.14 1207.99 Q2127.88 1207.99 2125.95 1210.21 Q2124.03 1212.41 2124.03 1216.18 L2124.03 1230.83 L2119.75 1230.83 L2119.75 1204.91 L2124.03 1204.91 L2124.03 1208.94 Q2125.49 1206.55 2127.53 1205.42 Q2129.57 1204.28 2132.37 1204.28 Q2135.19 1204.28 2137.16 1205.72 Q2139.15 1207.15 2140.1 1209.88 Z" fill="#000000" fill-rule="nonzero" fill-opacity="1" /><path clip-path="url(#clip690)" d="M2176.14 1207.89 Q2172.71 1207.89 2170.72 1210.58 Q2168.73 1213.24 2168.73 1217.89 Q2168.73 1222.55 2170.7 1225.23 Q2172.69 1227.89 2176.14 1227.89 Q2179.54 1227.89 2181.53 1225.21 Q2183.52 1222.52 2183.52 1217.89 Q2183.52 1213.29 2181.53 1210.6 Q2179.54 1207.89 2176.14 1207.89 M2176.14 1204.28 Q2181.7 1204.28 2184.87 1207.89 Q2188.04 1211.51 2188.04 1217.89 Q2188.04 1224.26 2184.87 1227.89 Q2181.7 1231.51 2176.14 1231.51 Q2170.56 1231.51 2167.39 1227.89 Q2164.24 1224.26 2164.24 1217.89 Q2164.24 1211.51 2167.39 1207.89 Q2170.56 1204.28 2176.14 1204.28 Z" fill="#000000" fill-rule="nonzero" fill-opacity="1" /><path clip-path="url(#clip690)" d="M2212.16 1208.84 L2212.16 1194.82 L2216.42 1194.82 L2216.42 1230.83 L2212.16 1230.83 L2212.16 1226.95 Q2210.82 1229.26 2208.76 1230.39 Q2206.72 1231.51 2203.85 1231.51 Q2199.15 1231.51 2196.19 1227.76 Q2193.25 1224.01 2193.25 1217.89 Q2193.25 1211.78 2196.19 1208.03 Q2199.15 1204.28 2203.85 1204.28 Q2206.72 1204.28 2208.76 1205.42 Q2210.82 1206.53 2212.16 1208.84 M2197.64 1217.89 Q2197.64 1222.59 2199.57 1225.28 Q2201.51 1227.94 2204.89 1227.94 Q2208.27 1227.94 2210.21 1225.28 Q2212.16 1222.59 2212.16 1217.89 Q2212.16 1213.2 2210.21 1210.53 Q2208.27 1207.85 2204.89 1207.85 Q2201.51 1207.85 2199.57 1210.53 Q2197.64 1213.2 2197.64 1217.89 Z" fill="#000000" fill-rule="nonzero" fill-opacity="1" /><path clip-path="url(#clip690)" d="M2247.37 1216.81 L2247.37 1218.89 L2227.78 1218.89 Q2228.06 1223.29 2230.42 1225.6 Q2232.81 1227.89 2237.04 1227.89 Q2239.5 1227.89 2241.79 1227.29 Q2244.1 1226.69 2246.37 1225.49 L2246.37 1229.51 Q2244.08 1230.49 2241.67 1231 Q2239.26 1231.51 2236.79 1231.51 Q2230.58 1231.51 2226.95 1227.89 Q2223.34 1224.28 2223.34 1218.13 Q2223.34 1211.76 2226.76 1208.03 Q2230.21 1204.28 2236.05 1204.28 Q2241.28 1204.28 2244.31 1207.66 Q2247.37 1211.02 2247.37 1216.81 M2243.11 1215.56 Q2243.06 1212.06 2241.14 1209.98 Q2239.24 1207.89 2236.09 1207.89 Q2232.53 1207.89 2230.38 1209.91 Q2228.25 1211.92 2227.92 1215.58 L2243.11 1215.56 Z" fill="#000000" fill-rule="nonzero" fill-opacity="1" /><path clip-path="url(#clip690)" d="M2254.36 1194.82 L2258.62 1194.82 L2258.62 1230.83 L2254.36 1230.83 L2254.36 1194.82 Z" fill="#000000" fill-rule="nonzero" fill-opacity="1" /><polyline clip-path="url(#clip690)" style="stroke:#fc8d3b; stroke-linecap:round; stroke-linejoin:round; stroke-width:4; stroke-opacity:1; fill:none" points="1850.63,1273.64 1991.84,1273.64 "/>
<path clip-path="url(#clip690)" d="M2048 1250.73 Q2048 1251.17 2047.9 1251.55 L2046.59 1259.88 Q2046.52 1260.52 2046.38 1260.75 Q2046.26 1260.98 2045.89 1260.98 Q2045.3 1260.98 2045.3 1260.38 Q2045.3 1260.02 2045.45 1259.46 Q2045.84 1256.82 2045.84 1255.62 Q2045.84 1254.82 2045.68 1254.24 Q2045.54 1253.63 2045.3 1253.21 Q2045.09 1252.79 2044.6 1252.51 Q2044.11 1252.22 2043.64 1252.06 Q2043.17 1251.9 2042.33 1251.83 Q2041.49 1251.73 2040.76 1251.71 Q2040.03 1251.69 2038.84 1251.69 Q2036.24 1251.69 2035.82 1251.78 Q2035.37 1251.9 2035.14 1252.25 Q2034.93 1252.58 2034.69 1253.56 L2028.32 1279.02 L2028.14 1280.03 Q2028.14 1280.59 2028.49 1280.78 Q2028.84 1280.96 2029.92 1281.08 Q2031.46 1281.2 2032.98 1281.2 Q2033.03 1281.2 2033.12 1281.2 Q2033.64 1281.2 2033.85 1281.22 Q2034.06 1281.22 2034.27 1281.27 Q2034.48 1281.32 2034.53 1281.43 Q2034.6 1281.53 2034.6 1281.71 Q2034.6 1282.16 2034.41 1282.39 Q2034.23 1282.6 2034.04 1282.65 Q2033.87 1282.67 2033.55 1282.67 Q2032.89 1282.67 2031.49 1282.63 Q2030.08 1282.58 2029.38 1282.58 L2025.4 1282.53 L2021.32 1282.58 Q2020.69 1282.58 2019.35 1282.63 Q2018.02 1282.67 2017.39 1282.67 Q2016.57 1282.67 2016.57 1282.09 Q2016.57 1281.43 2016.87 1281.32 Q2017.2 1281.2 2018.58 1281.2 Q2020.52 1281.2 2021.58 1281.1 Q2022.63 1281.01 2023.19 1280.68 Q2023.78 1280.36 2023.94 1280.03 Q2024.11 1279.68 2024.29 1278.88 L2030.74 1253.28 Q2030.92 1252.72 2030.92 1252.27 Q2030.92 1252.04 2030.85 1251.94 Q2030.81 1251.85 2030.5 1251.78 Q2030.2 1251.69 2029.56 1251.69 L2027.69 1251.69 Q2025.77 1251.69 2024.58 1251.78 Q2023.4 1251.85 2022.28 1252.2 Q2021.18 1252.55 2020.52 1253.04 Q2019.89 1253.54 2019.19 1254.54 Q2018.49 1255.55 2017.97 1256.77 Q2017.48 1257.99 2016.78 1259.98 Q2016.54 1260.63 2016.4 1260.82 Q2016.28 1260.98 2015.96 1260.98 Q2015.72 1260.98 2015.53 1260.84 Q2015.37 1260.68 2015.37 1260.47 Q2015.6 1259.7 2015.65 1259.6 L2018.53 1251.15 Q2018.77 1250.47 2018.98 1250.35 Q2019.21 1250.21 2020.08 1250.21 L2046.69 1250.21 Q2047.11 1250.21 2047.25 1250.21 Q2047.39 1250.21 2047.62 1250.26 Q2047.86 1250.3 2047.93 1250.42 Q2048 1250.54 2048 1250.73 Z" fill="#000000" fill-rule="nonzero" fill-opacity="1" /><path clip-path="url(#clip690)" d="M2052.79 1283.31 L2052.79 1282.26 L2055.43 1282.26 L2055.43 1278.41 Q2055.43 1275.91 2057.03 1274.49 Q2058.66 1273.06 2060.64 1273.06 Q2061.95 1273.06 2062.81 1273.77 Q2063.66 1274.47 2063.66 1275.42 Q2063.66 1276.06 2063.26 1276.49 Q2062.89 1276.9 2062.18 1276.9 Q2061.51 1276.9 2061.12 1276.47 Q2060.74 1276.05 2060.74 1275.46 Q2060.74 1274.37 2061.74 1274.05 Q2061.23 1273.82 2060.64 1273.8 Q2059.43 1273.8 2058.48 1275.05 Q2057.54 1276.29 2057.54 1278.37 L2057.54 1282.26 L2061.48 1282.26 L2061.48 1283.31 L2057.66 1283.31 L2057.66 1294.11 Q2057.66 1295.08 2058.05 1295.39 Q2058.46 1295.7 2060.2 1295.7 L2060.9 1295.7 L2060.9 1296.74 Q2059.56 1296.64 2056.64 1296.64 Q2056.23 1296.64 2055.59 1296.66 Q2054.97 1296.67 2054.12 1296.7 Q2053.28 1296.74 2052.82 1296.74 L2052.82 1295.7 Q2054.61 1295.7 2055.02 1295.49 Q2055.43 1295.26 2055.43 1294.18 L2055.43 1283.31 L2052.79 1283.31 Z" fill="#000000" fill-rule="nonzero" fill-opacity="1" /><path clip-path="url(#clip690)" d="M2066.01 1296.74 Q2066.01 1296.13 2066.06 1295.95 Q2066.12 1295.77 2066.39 1295.49 L2072.83 1288.31 Q2076.36 1284.34 2076.36 1280.88 Q2076.36 1278.64 2075.17 1277.03 Q2074.01 1275.42 2071.86 1275.42 Q2070.39 1275.42 2069.14 1276.32 Q2067.9 1277.23 2067.32 1278.83 Q2067.42 1278.8 2067.76 1278.8 Q2068.6 1278.8 2069.06 1279.33 Q2069.53 1279.85 2069.53 1280.55 Q2069.53 1281.46 2068.94 1281.9 Q2068.37 1282.33 2067.8 1282.33 Q2067.57 1282.33 2067.26 1282.28 Q2066.96 1282.23 2066.49 1281.77 Q2066.01 1281.29 2066.01 1280.46 Q2066.01 1278.11 2067.78 1276.24 Q2069.57 1274.37 2072.29 1274.37 Q2075.37 1274.37 2077.39 1276.21 Q2079.42 1278.03 2079.42 1280.88 Q2079.42 1281.88 2079.11 1282.8 Q2078.81 1283.7 2078.4 1284.41 Q2078.01 1285.11 2076.93 1286.24 Q2075.85 1287.38 2074.98 1288.18 Q2074.11 1288.98 2072.16 1290.69 L2068.6 1294.15 L2074.65 1294.15 Q2077.6 1294.15 2077.83 1293.88 Q2078.16 1293.41 2078.57 1290.9 L2079.42 1290.9 L2078.47 1296.74 L2066.01 1296.74 Z" fill="#000000" fill-rule="nonzero" fill-opacity="1" /><path clip-path="url(#clip690)" d="M2089.65 1276.79 L2094.54 1276.79 L2094.54 1280.78 L2090.74 1288.18 L2087.75 1288.18 L2089.65 1280.78 L2089.65 1276.79 Z" fill="#000000" fill-rule="nonzero" fill-opacity="1" /><path clip-path="url(#clip690)" d="M2138.89 1261.72 Q2140.49 1258.85 2142.71 1257.49 Q2144.93 1256.12 2147.94 1256.12 Q2151.99 1256.12 2154.19 1258.97 Q2156.39 1261.79 2156.39 1267.03 L2156.39 1282.67 L2152.11 1282.67 L2152.11 1267.16 Q2152.11 1263.44 2150.79 1261.63 Q2149.47 1259.83 2146.76 1259.83 Q2143.45 1259.83 2141.53 1262.03 Q2139.61 1264.22 2139.61 1268.02 L2139.61 1282.67 L2135.32 1282.67 L2135.32 1267.16 Q2135.32 1263.41 2134 1261.63 Q2132.69 1259.83 2129.93 1259.83 Q2126.67 1259.83 2124.75 1262.05 Q2122.82 1264.25 2122.82 1268.02 L2122.82 1282.67 L2118.54 1282.67 L2118.54 1256.75 L2122.82 1256.75 L2122.82 1260.78 Q2124.28 1258.39 2126.32 1257.26 Q2128.36 1256.12 2131.16 1256.12 Q2133.98 1256.12 2135.95 1257.56 Q2137.94 1258.99 2138.89 1261.72 Z" fill="#000000" fill-rule="nonzero" fill-opacity="1" /><path clip-path="url(#clip690)" d="M2174.93 1259.73 Q2171.5 1259.73 2169.51 1262.42 Q2167.52 1265.08 2167.52 1269.73 Q2167.52 1274.39 2169.49 1277.07 Q2171.48 1279.73 2174.93 1279.73 Q2178.33 1279.73 2180.32 1277.05 Q2182.31 1274.36 2182.31 1269.73 Q2182.31 1265.13 2180.32 1262.44 Q2178.33 1259.73 2174.93 1259.73 M2174.93 1256.12 Q2180.49 1256.12 2183.66 1259.73 Q2186.83 1263.35 2186.83 1269.73 Q2186.83 1276.1 2183.66 1279.73 Q2180.49 1283.35 2174.93 1283.35 Q2169.35 1283.35 2166.18 1279.73 Q2163.03 1276.1 2163.03 1269.73 Q2163.03 1263.35 2166.18 1259.73 Q2169.35 1256.12 2174.93 1256.12 Z" fill="#000000" fill-rule="nonzero" fill-opacity="1" /><path clip-path="url(#clip690)" d="M2210.95 1260.68 L2210.95 1246.66 L2215.21 1246.66 L2215.21 1282.67 L2210.95 1282.67 L2210.95 1278.79 Q2209.61 1281.1 2207.55 1282.23 Q2205.51 1283.35 2202.64 1283.35 Q2197.94 1283.35 2194.98 1279.6 Q2192.04 1275.85 2192.04 1269.73 Q2192.04 1263.62 2194.98 1259.87 Q2197.94 1256.12 2202.64 1256.12 Q2205.51 1256.12 2207.55 1257.26 Q2209.61 1258.37 2210.95 1260.68 M2196.43 1269.73 Q2196.43 1274.43 2198.36 1277.12 Q2200.3 1279.78 2203.68 1279.78 Q2207.06 1279.78 2209 1277.12 Q2210.95 1274.43 2210.95 1269.73 Q2210.95 1265.04 2209 1262.37 Q2207.06 1259.69 2203.68 1259.69 Q2200.3 1259.69 2198.36 1262.37 Q2196.43 1265.04 2196.43 1269.73 Z" fill="#000000" fill-rule="nonzero" fill-opacity="1" /><path clip-path="url(#clip690)" d="M2246.16 1268.65 L2246.16 1270.73 L2226.57 1270.73 Q2226.85 1275.13 2229.21 1277.44 Q2231.6 1279.73 2235.83 1279.73 Q2238.29 1279.73 2240.58 1279.13 Q2242.89 1278.53 2245.16 1277.33 L2245.16 1281.35 Q2242.87 1282.33 2240.46 1282.84 Q2238.05 1283.35 2235.58 1283.35 Q2229.37 1283.35 2225.74 1279.73 Q2222.13 1276.12 2222.13 1269.97 Q2222.13 1263.6 2225.55 1259.87 Q2229 1256.12 2234.84 1256.12 Q2240.07 1256.12 2243.1 1259.5 Q2246.16 1262.86 2246.16 1268.65 M2241.9 1267.4 Q2241.85 1263.9 2239.93 1261.82 Q2238.03 1259.73 2234.88 1259.73 Q2231.32 1259.73 2229.17 1261.75 Q2227.04 1263.76 2226.71 1267.42 L2241.9 1267.4 Z" fill="#000000" fill-rule="nonzero" fill-opacity="1" /><path clip-path="url(#clip690)" d="M2253.15 1246.66 L2257.41 1246.66 L2257.41 1282.67 L2253.15 1282.67 L2253.15 1246.66 Z" fill="#000000" fill-rule="nonzero" fill-opacity="1" /><polyline clip-path="url(#clip690)" style="stroke:#fcbd85; stroke-linecap:round; stroke-linejoin:round; stroke-width:4; stroke-opacity:1; fill:none" points="1850.63,1325.48 1991.84,1325.48 "/>
<path clip-path="url(#clip690)" d="M2048 1302.2 Q2048 1302.64 2047.9 1303.02 L2046.59 1311.36 Q2046.52 1311.99 2046.38 1312.22 Q2046.26 1312.46 2045.89 1312.46 Q2045.3 1312.46 2045.3 1311.85 Q2045.3 1311.5 2045.45 1310.94 Q2045.84 1308.29 2045.84 1307.09 Q2045.84 1306.3 2045.68 1305.71 Q2045.54 1305.1 2045.3 1304.68 Q2045.09 1304.26 2044.6 1303.98 Q2044.11 1303.7 2043.64 1303.53 Q2043.17 1303.37 2042.33 1303.3 Q2041.49 1303.21 2040.76 1303.18 Q2040.03 1303.16 2038.84 1303.16 Q2036.24 1303.16 2035.82 1303.25 Q2035.37 1303.37 2035.14 1303.72 Q2034.93 1304.05 2034.69 1305.03 L2028.32 1330.49 L2028.14 1331.5 Q2028.14 1332.06 2028.49 1332.25 Q2028.84 1332.44 2029.92 1332.55 Q2031.46 1332.67 2032.98 1332.67 Q2033.03 1332.67 2033.12 1332.67 Q2033.64 1332.67 2033.85 1332.7 Q2034.06 1332.7 2034.27 1332.74 Q2034.48 1332.79 2034.53 1332.91 Q2034.6 1333 2034.6 1333.19 Q2034.6 1333.63 2034.41 1333.87 Q2034.23 1334.08 2034.04 1334.12 Q2033.87 1334.15 2033.55 1334.15 Q2032.89 1334.15 2031.49 1334.1 Q2030.08 1334.05 2029.38 1334.05 L2025.4 1334.01 L2021.32 1334.05 Q2020.69 1334.05 2019.35 1334.1 Q2018.02 1334.15 2017.39 1334.15 Q2016.57 1334.15 2016.57 1333.56 Q2016.57 1332.91 2016.87 1332.79 Q2017.2 1332.67 2018.58 1332.67 Q2020.52 1332.67 2021.58 1332.58 Q2022.63 1332.48 2023.19 1332.16 Q2023.78 1331.83 2023.94 1331.5 Q2024.11 1331.15 2024.29 1330.35 L2030.74 1304.75 Q2030.92 1304.19 2030.92 1303.75 Q2030.92 1303.51 2030.85 1303.42 Q2030.81 1303.32 2030.5 1303.25 Q2030.2 1303.16 2029.56 1303.16 L2027.69 1303.16 Q2025.77 1303.16 2024.58 1303.25 Q2023.4 1303.32 2022.28 1303.67 Q2021.18 1304.03 2020.52 1304.52 Q2019.89 1305.01 2019.19 1306.02 Q2018.49 1307.02 2017.97 1308.24 Q2017.48 1309.46 2016.78 1311.45 Q2016.54 1312.11 2016.4 1312.29 Q2016.28 1312.46 2015.96 1312.46 Q2015.72 1312.46 2015.53 1312.32 Q2015.37 1312.15 2015.37 1311.94 Q2015.6 1311.17 2015.65 1311.08 L2018.53 1302.62 Q2018.77 1301.94 2018.98 1301.82 Q2019.21 1301.68 2020.08 1301.68 L2046.69 1301.68 Q2047.11 1301.68 2047.25 1301.68 Q2047.39 1301.68 2047.62 1301.73 Q2047.86 1301.78 2047.93 1301.89 Q2048 1302.01 2048 1302.2 Z" fill="#000000" fill-rule="nonzero" fill-opacity="1" /><path clip-path="url(#clip690)" d="M2052.79 1334.78 L2052.79 1333.73 L2055.43 1333.73 L2055.43 1329.88 Q2055.43 1327.39 2057.03 1325.96 Q2058.66 1324.54 2060.64 1324.54 Q2061.95 1324.54 2062.81 1325.24 Q2063.66 1325.95 2063.66 1326.9 Q2063.66 1327.54 2063.26 1327.96 Q2062.89 1328.37 2062.18 1328.37 Q2061.51 1328.37 2061.12 1327.95 Q2060.74 1327.52 2060.74 1326.93 Q2060.74 1325.85 2061.74 1325.52 Q2061.23 1325.29 2060.64 1325.27 Q2059.43 1325.27 2058.48 1326.52 Q2057.54 1327.77 2057.54 1329.85 L2057.54 1333.73 L2061.48 1333.73 L2061.48 1334.78 L2057.66 1334.78 L2057.66 1345.59 Q2057.66 1346.55 2058.05 1346.87 Q2058.46 1347.18 2060.2 1347.18 L2060.9 1347.18 L2060.9 1348.21 Q2059.56 1348.11 2056.64 1348.11 Q2056.23 1348.11 2055.59 1348.13 Q2054.97 1348.15 2054.12 1348.18 Q2053.28 1348.21 2052.82 1348.21 L2052.82 1347.18 Q2054.61 1347.18 2055.02 1346.96 Q2055.43 1346.74 2055.43 1345.65 L2055.43 1334.78 L2052.79 1334.78 Z" fill="#000000" fill-rule="nonzero" fill-opacity="1" /><path clip-path="url(#clip690)" d="M2066.01 1343.69 Q2066.01 1342.69 2066.58 1342.21 Q2067.16 1341.73 2067.9 1341.73 Q2068.67 1341.73 2069.21 1342.24 Q2069.76 1342.73 2069.76 1343.6 Q2069.76 1344.54 2069.11 1345.06 Q2068.47 1345.59 2067.55 1345.46 Q2068.35 1346.8 2069.83 1347.41 Q2071.32 1348.01 2072.7 1348.01 Q2074.14 1348.01 2075.31 1346.77 Q2076.49 1345.52 2076.49 1342.47 Q2076.49 1339.88 2075.47 1338.39 Q2074.47 1336.9 2072.49 1336.9 L2071.01 1336.9 Q2070.5 1336.9 2070.35 1336.85 Q2070.21 1336.8 2070.21 1336.52 Q2070.21 1336.19 2070.72 1336.13 Q2071.22 1336.13 2072.03 1336.03 Q2073.98 1335.96 2075.01 1334.27 Q2075.95 1332.7 2075.95 1330.45 Q2075.95 1328.4 2074.96 1327.55 Q2073.99 1326.68 2072.73 1326.68 Q2071.55 1326.68 2070.26 1327.18 Q2068.96 1327.67 2068.26 1328.77 Q2070.34 1328.77 2070.34 1330.45 Q2070.34 1331.19 2069.86 1331.68 Q2069.4 1332.16 2068.63 1332.16 Q2067.9 1332.16 2067.4 1331.7 Q2066.91 1331.22 2066.91 1330.42 Q2066.91 1328.5 2068.62 1327.18 Q2070.34 1325.85 2072.86 1325.85 Q2075.36 1325.85 2077.19 1327.16 Q2079.04 1328.47 2079.04 1330.49 Q2079.04 1332.47 2077.73 1334.09 Q2076.42 1335.72 2074.34 1336.39 Q2076.9 1336.9 2078.42 1338.64 Q2079.95 1340.36 2079.95 1342.47 Q2079.95 1345.1 2077.88 1347.03 Q2075.81 1348.95 2072.8 1348.95 Q2070.01 1348.95 2068.01 1347.44 Q2066.01 1345.93 2066.01 1343.69 Z" fill="#000000" fill-rule="nonzero" fill-opacity="1" /><path clip-path="url(#clip690)" d="M2089.65 1328.27 L2094.54 1328.27 L2094.54 1332.25 L2090.74 1339.66 L2087.75 1339.66 L2089.65 1332.25 L2089.65 1328.27 Z" fill="#000000" fill-rule="nonzero" fill-opacity="1" /><path clip-path="url(#clip690)" d="M2138.89 1313.2 Q2140.49 1310.33 2142.71 1308.96 Q2144.93 1307.6 2147.94 1307.6 Q2151.99 1307.6 2154.19 1310.44 Q2156.39 1313.27 2156.39 1318.5 L2156.39 1334.15 L2152.11 1334.15 L2152.11 1318.64 Q2152.11 1314.91 2150.79 1313.11 Q2149.47 1311.3 2146.76 1311.3 Q2143.45 1311.3 2141.53 1313.5 Q2139.61 1315.7 2139.61 1319.49 L2139.61 1334.15 L2135.32 1334.15 L2135.32 1318.64 Q2135.32 1314.89 2134 1313.11 Q2132.69 1311.3 2129.93 1311.3 Q2126.67 1311.3 2124.75 1313.52 Q2122.82 1315.72 2122.82 1319.49 L2122.82 1334.15 L2118.54 1334.15 L2118.54 1308.22 L2122.82 1308.22 L2122.82 1312.25 Q2124.28 1309.87 2126.32 1308.73 Q2128.36 1307.6 2131.16 1307.6 Q2133.98 1307.6 2135.95 1309.03 Q2137.94 1310.47 2138.89 1313.2 Z" fill="#000000" fill-rule="nonzero" fill-opacity="1" /><path clip-path="url(#clip690)" d="M2174.93 1311.21 Q2171.5 1311.21 2169.51 1313.89 Q2167.52 1316.56 2167.52 1321.21 Q2167.52 1325.86 2169.49 1328.55 Q2171.48 1331.21 2174.93 1331.21 Q2178.33 1331.21 2180.32 1328.52 Q2182.31 1325.84 2182.31 1321.21 Q2182.31 1316.6 2180.32 1313.92 Q2178.33 1311.21 2174.93 1311.21 M2174.93 1307.6 Q2180.49 1307.6 2183.66 1311.21 Q2186.83 1314.82 2186.83 1321.21 Q2186.83 1327.57 2183.66 1331.21 Q2180.49 1334.82 2174.93 1334.82 Q2169.35 1334.82 2166.18 1331.21 Q2163.03 1327.57 2163.03 1321.21 Q2163.03 1314.82 2166.18 1311.21 Q2169.35 1307.6 2174.93 1307.6 Z" fill="#000000" fill-rule="nonzero" fill-opacity="1" /><path clip-path="url(#clip690)" d="M2210.95 1312.16 L2210.95 1298.13 L2215.21 1298.13 L2215.21 1334.15 L2210.95 1334.15 L2210.95 1330.26 Q2209.61 1332.57 2207.55 1333.71 Q2205.51 1334.82 2202.64 1334.82 Q2197.94 1334.82 2194.98 1331.07 Q2192.04 1327.32 2192.04 1321.21 Q2192.04 1315.1 2194.98 1311.35 Q2197.94 1307.6 2202.64 1307.6 Q2205.51 1307.6 2207.55 1308.73 Q2209.61 1309.84 2210.95 1312.16 M2196.43 1321.21 Q2196.43 1325.91 2198.36 1328.59 Q2200.3 1331.25 2203.68 1331.25 Q2207.06 1331.25 2209 1328.59 Q2210.95 1325.91 2210.95 1321.21 Q2210.95 1316.51 2209 1313.85 Q2207.06 1311.16 2203.68 1311.16 Q2200.3 1311.16 2198.36 1313.85 Q2196.43 1316.51 2196.43 1321.21 Z" fill="#000000" fill-rule="nonzero" fill-opacity="1" /><path clip-path="url(#clip690)" d="M2246.16 1320.12 L2246.16 1322.2 L2226.57 1322.2 Q2226.85 1326.6 2229.21 1328.92 Q2231.6 1331.21 2235.83 1331.21 Q2238.29 1331.21 2240.58 1330.61 Q2242.89 1330 2245.16 1328.8 L2245.16 1332.83 Q2242.87 1333.8 2240.46 1334.31 Q2238.05 1334.82 2235.58 1334.82 Q2229.37 1334.82 2225.74 1331.21 Q2222.13 1327.6 2222.13 1321.44 Q2222.13 1315.07 2225.55 1311.35 Q2229 1307.6 2234.84 1307.6 Q2240.07 1307.6 2243.1 1310.98 Q2246.16 1314.33 2246.16 1320.12 M2241.9 1318.87 Q2241.85 1315.37 2239.93 1313.29 Q2238.03 1311.21 2234.88 1311.21 Q2231.32 1311.21 2229.17 1313.22 Q2227.04 1315.24 2226.71 1318.89 L2241.9 1318.87 Z" fill="#000000" fill-rule="nonzero" fill-opacity="1" /><path clip-path="url(#clip690)" d="M2253.15 1298.13 L2257.41 1298.13 L2257.41 1334.15 L2253.15 1334.15 L2253.15 1298.13 Z" fill="#000000" fill-rule="nonzero" fill-opacity="1" /></svg>
