<?xml version="1.0" encoding="utf-8"?>
<svg xmlns="http://www.w3.org/2000/svg" xmlns:xlink="http://www.w3.org/1999/xlink" width="600" height="400" viewBox="0 0 2400 1600">
<defs>
  <clipPath id="clip200">
    <rect x="0" y="0" width="2400" height="1600"/>
  </clipPath>
</defs>
<path clip-path="url(#clip200)" d="M0 1600 L2400 1600 L2400 0 L0 0  Z" fill="#ffffff" fill-rule="evenodd" fill-opacity="1"/>
<defs>
  <clipPath id="clip201">
    <rect x="480" y="0" width="1681" height="1600"/>
  </clipPath>
</defs>
<path clip-path="url(#clip200)" d="M202.227 1423.18 L2352.76 1423.18 L2352.76 47.2441 L202.227 47.2441  Z" fill="#ffffff" fill-rule="evenodd" fill-opacity="1"/>
<defs>
  <clipPath id="clip202">
    <rect x="202" y="47" width="2152" height="1377"/>
  </clipPath>
</defs>
<polyline clip-path="url(#clip202)" style="stroke:#000000; stroke-linecap:round; stroke-linejoin:round; stroke-width:2; stroke-opacity:0.1; fill:none" points="263.091,1423.18 263.091,47.2441 "/>
<polyline clip-path="url(#clip202)" style="stroke:#000000; stroke-linecap:round; stroke-linejoin:round; stroke-width:2; stroke-opacity:0.1; fill:none" points="777.234,1423.18 777.234,47.2441 "/>
<polyline clip-path="url(#clip202)" style="stroke:#000000; stroke-linecap:round; stroke-linejoin:round; stroke-width:2; stroke-opacity:0.1; fill:none" points="1291.38,1423.18 1291.38,47.2441 "/>
<polyline clip-path="url(#clip202)" style="stroke:#000000; stroke-linecap:round; stroke-linejoin:round; stroke-width:2; stroke-opacity:0.1; fill:none" points="1805.52,1423.18 1805.52,47.2441 "/>
<polyline clip-path="url(#clip202)" style="stroke:#000000; stroke-linecap:round; stroke-linejoin:round; stroke-width:2; stroke-opacity:0.1; fill:none" points="2319.66,1423.18 2319.66,47.2441 "/>
<polyline clip-path="url(#clip202)" style="stroke:#000000; stroke-linecap:round; stroke-linejoin:round; stroke-width:2; stroke-opacity:0.1; fill:none" points="202.227,1385.52 2352.76,1385.52 "/>
<polyline clip-path="url(#clip202)" style="stroke:#000000; stroke-linecap:round; stroke-linejoin:round; stroke-width:2; stroke-opacity:0.1; fill:none" points="202.227,1035.52 2352.76,1035.52 "/>
<polyline clip-path="url(#clip202)" style="stroke:#000000; stroke-linecap:round; stroke-linejoin:round; stroke-width:2; stroke-opacity:0.1; fill:none" points="202.227,685.514 2352.76,685.514 "/>
<polyline clip-path="url(#clip202)" style="stroke:#000000; stroke-linecap:round; stroke-linejoin:round; stroke-width:2; stroke-opacity:0.1; fill:none" points="202.227,335.511 2352.76,335.511 "/>
<polyline clip-path="url(#clip200)" style="stroke:#000000; stroke-linecap:round; stroke-linejoin:round; stroke-width:4; stroke-opacity:1; fill:none" points="202.227,1423.18 2352.76,1423.18 "/>
<polyline clip-path="url(#clip200)" style="stroke:#000000; stroke-linecap:round; stroke-linejoin:round; stroke-width:4; stroke-opacity:1; fill:none" points="263.091,1423.18 263.091,1404.28 "/>
<polyline clip-path="url(#clip200)" style="stroke:#000000; stroke-linecap:round; stroke-linejoin:round; stroke-width:4; stroke-opacity:1; fill:none" points="777.234,1423.18 777.234,1404.28 "/>
<polyline clip-path="url(#clip200)" style="stroke:#000000; stroke-linecap:round; stroke-linejoin:round; stroke-width:4; stroke-opacity:1; fill:none" points="1291.38,1423.18 1291.38,1404.28 "/>
<polyline clip-path="url(#clip200)" style="stroke:#000000; stroke-linecap:round; stroke-linejoin:round; stroke-width:4; stroke-opacity:1; fill:none" points="1805.52,1423.18 1805.52,1404.28 "/>
<polyline clip-path="url(#clip200)" style="stroke:#000000; stroke-linecap:round; stroke-linejoin:round; stroke-width:4; stroke-opacity:1; fill:none" points="2319.66,1423.18 2319.66,1404.28 "/>
<path clip-path="url(#clip200)" d="M240.476 1454.1 Q236.865 1454.1 235.036 1457.66 Q233.231 1461.2 233.231 1468.33 Q233.231 1475.44 235.036 1479.01 Q236.865 1482.55 240.476 1482.55 Q244.11 1482.55 245.916 1479.01 Q247.744 1475.44 247.744 1468.33 Q247.744 1461.2 245.916 1457.66 Q244.11 1454.1 240.476 1454.1 M240.476 1450.39 Q246.286 1450.39 249.342 1455 Q252.42 1459.58 252.42 1468.33 Q252.42 1477.06 249.342 1481.67 Q246.286 1486.25 240.476 1486.25 Q234.666 1486.25 231.587 1481.67 Q228.531 1477.06 228.531 1468.33 Q228.531 1459.58 231.587 1455 Q234.666 1450.39 240.476 1450.39 Z" fill="#000000" fill-rule="nonzero" fill-opacity="1" /><path clip-path="url(#clip200)" d="M260.638 1479.7 L265.522 1479.7 L265.522 1485.58 L260.638 1485.58 L260.638 1479.7 Z" fill="#000000" fill-rule="nonzero" fill-opacity="1" /><path clip-path="url(#clip200)" d="M285.707 1454.1 Q282.096 1454.1 280.267 1457.66 Q278.462 1461.2 278.462 1468.33 Q278.462 1475.44 280.267 1479.01 Q282.096 1482.55 285.707 1482.55 Q289.341 1482.55 291.147 1479.01 Q292.976 1475.44 292.976 1468.33 Q292.976 1461.2 291.147 1457.66 Q289.341 1454.1 285.707 1454.1 M285.707 1450.39 Q291.517 1450.39 294.573 1455 Q297.651 1459.58 297.651 1468.33 Q297.651 1477.06 294.573 1481.67 Q291.517 1486.25 285.707 1486.25 Q279.897 1486.25 276.818 1481.67 Q273.763 1477.06 273.763 1468.33 Q273.763 1459.58 276.818 1455 Q279.897 1450.39 285.707 1450.39 Z" fill="#000000" fill-rule="nonzero" fill-opacity="1" /><path clip-path="url(#clip200)" d="M755.417 1454.1 Q751.806 1454.1 749.977 1457.66 Q748.171 1461.2 748.171 1468.33 Q748.171 1475.44 749.977 1479.01 Q751.806 1482.55 755.417 1482.55 Q759.051 1482.55 760.857 1479.01 Q762.685 1475.44 762.685 1468.33 Q762.685 1461.2 760.857 1457.66 Q759.051 1454.1 755.417 1454.1 M755.417 1450.39 Q761.227 1450.39 764.282 1455 Q767.361 1459.58 767.361 1468.33 Q767.361 1477.06 764.282 1481.67 Q761.227 1486.25 755.417 1486.25 Q749.607 1486.25 746.528 1481.67 Q743.472 1477.06 743.472 1468.33 Q743.472 1459.58 746.528 1455 Q749.607 1450.39 755.417 1450.39 Z" fill="#000000" fill-rule="nonzero" fill-opacity="1" /><path clip-path="url(#clip200)" d="M775.579 1479.7 L780.463 1479.7 L780.463 1485.58 L775.579 1485.58 L775.579 1479.7 Z" fill="#000000" fill-rule="nonzero" fill-opacity="1" /><path clip-path="url(#clip200)" d="M794.676 1481.64 L810.995 1481.64 L810.995 1485.58 L789.051 1485.58 L789.051 1481.64 Q791.713 1478.89 796.296 1474.26 Q800.903 1469.61 802.083 1468.27 Q804.329 1465.74 805.208 1464.01 Q806.111 1462.25 806.111 1460.56 Q806.111 1457.8 804.166 1456.07 Q802.245 1454.33 799.143 1454.33 Q796.944 1454.33 794.491 1455.09 Q792.06 1455.86 789.282 1457.41 L789.282 1452.69 Q792.106 1451.55 794.56 1450.97 Q797.014 1450.39 799.051 1450.39 Q804.421 1450.39 807.616 1453.08 Q810.81 1455.77 810.81 1460.26 Q810.81 1462.39 810 1464.31 Q809.213 1466.2 807.106 1468.8 Q806.528 1469.47 803.426 1472.69 Q800.324 1475.88 794.676 1481.64 Z" fill="#000000" fill-rule="nonzero" fill-opacity="1" /><path clip-path="url(#clip200)" d="M1268.52 1454.1 Q1264.91 1454.1 1263.08 1457.66 Q1261.27 1461.2 1261.27 1468.33 Q1261.27 1475.44 1263.08 1479.01 Q1264.91 1482.55 1268.52 1482.55 Q1272.15 1482.55 1273.96 1479.01 Q1275.79 1475.44 1275.79 1468.33 Q1275.79 1461.2 1273.96 1457.66 Q1272.15 1454.1 1268.52 1454.1 M1268.52 1450.39 Q1274.33 1450.39 1277.38 1455 Q1280.46 1459.58 1280.46 1468.33 Q1280.46 1477.06 1277.38 1481.67 Q1274.33 1486.25 1268.52 1486.25 Q1262.71 1486.25 1259.63 1481.67 Q1256.57 1477.06 1256.57 1468.33 Q1256.57 1459.58 1259.63 1455 Q1262.71 1450.39 1268.52 1450.39 Z" fill="#000000" fill-rule="nonzero" fill-opacity="1" /><path clip-path="url(#clip200)" d="M1288.68 1479.7 L1293.56 1479.7 L1293.56 1485.58 L1288.68 1485.58 L1288.68 1479.7 Z" fill="#000000" fill-rule="nonzero" fill-opacity="1" /><path clip-path="url(#clip200)" d="M1316.6 1455.09 L1304.79 1473.54 L1316.6 1473.54 L1316.6 1455.09 M1315.37 1451.02 L1321.25 1451.02 L1321.25 1473.54 L1326.18 1473.54 L1326.18 1477.43 L1321.25 1477.43 L1321.25 1485.58 L1316.6 1485.58 L1316.6 1477.43 L1300.99 1477.43 L1300.99 1472.92 L1315.37 1451.02 Z" fill="#000000" fill-rule="nonzero" fill-opacity="1" /><path clip-path="url(#clip200)" d="M1782.82 1454.1 Q1779.21 1454.1 1777.38 1457.66 Q1775.58 1461.2 1775.58 1468.33 Q1775.58 1475.44 1777.38 1479.01 Q1779.21 1482.55 1782.82 1482.55 Q1786.46 1482.55 1788.26 1479.01 Q1790.09 1475.44 1790.09 1468.33 Q1790.09 1461.2 1788.26 1457.66 Q1786.46 1454.1 1782.82 1454.1 M1782.82 1450.39 Q1788.63 1450.39 1791.69 1455 Q1794.77 1459.58 1794.77 1468.33 Q1794.77 1477.06 1791.69 1481.67 Q1788.63 1486.25 1782.82 1486.25 Q1777.01 1486.25 1773.93 1481.67 Q1770.88 1477.06 1770.88 1468.33 Q1770.88 1459.58 1773.93 1455 Q1777.01 1450.39 1782.82 1450.39 Z" fill="#000000" fill-rule="nonzero" fill-opacity="1" /><path clip-path="url(#clip200)" d="M1802.98 1479.7 L1807.87 1479.7 L1807.87 1485.58 L1802.98 1485.58 L1802.98 1479.7 Z" fill="#000000" fill-rule="nonzero" fill-opacity="1" /><path clip-path="url(#clip200)" d="M1828.63 1466.44 Q1825.48 1466.44 1823.63 1468.59 Q1821.8 1470.74 1821.8 1474.49 Q1821.8 1478.22 1823.63 1480.39 Q1825.48 1482.55 1828.63 1482.55 Q1831.78 1482.55 1833.61 1480.39 Q1835.46 1478.22 1835.46 1474.49 Q1835.46 1470.74 1833.61 1468.59 Q1831.78 1466.44 1828.63 1466.44 M1837.91 1451.78 L1837.91 1456.04 Q1836.15 1455.21 1834.35 1454.77 Q1832.57 1454.33 1830.81 1454.33 Q1826.18 1454.33 1823.72 1457.45 Q1821.29 1460.58 1820.95 1466.9 Q1822.31 1464.89 1824.37 1463.82 Q1826.43 1462.73 1828.91 1462.73 Q1834.12 1462.73 1837.13 1465.9 Q1840.16 1469.05 1840.16 1474.49 Q1840.16 1479.82 1837.01 1483.03 Q1833.86 1486.25 1828.63 1486.25 Q1822.64 1486.25 1819.46 1481.67 Q1816.29 1477.06 1816.29 1468.33 Q1816.29 1460.14 1820.18 1455.28 Q1824.07 1450.39 1830.62 1450.39 Q1832.38 1450.39 1834.16 1450.74 Q1835.97 1451.09 1837.91 1451.78 Z" fill="#000000" fill-rule="nonzero" fill-opacity="1" /><path clip-path="url(#clip200)" d="M2297.09 1454.1 Q2293.48 1454.1 2291.65 1457.66 Q2289.85 1461.2 2289.85 1468.33 Q2289.85 1475.44 2291.65 1479.01 Q2293.48 1482.55 2297.09 1482.55 Q2300.73 1482.55 2302.53 1479.01 Q2304.36 1475.44 2304.36 1468.33 Q2304.36 1461.2 2302.53 1457.66 Q2300.73 1454.1 2297.09 1454.1 M2297.09 1450.39 Q2302.9 1450.39 2305.96 1455 Q2309.04 1459.58 2309.04 1468.33 Q2309.04 1477.06 2305.96 1481.67 Q2302.9 1486.25 2297.09 1486.25 Q2291.28 1486.25 2288.2 1481.67 Q2285.15 1477.06 2285.15 1468.33 Q2285.15 1459.58 2288.2 1455 Q2291.28 1450.39 2297.09 1450.39 Z" fill="#000000" fill-rule="nonzero" fill-opacity="1" /><path clip-path="url(#clip200)" d="M2317.25 1479.7 L2322.14 1479.7 L2322.14 1485.58 L2317.25 1485.58 L2317.25 1479.7 Z" fill="#000000" fill-rule="nonzero" fill-opacity="1" /><path clip-path="url(#clip200)" d="M2342.32 1469.17 Q2338.99 1469.17 2337.07 1470.95 Q2335.17 1472.73 2335.17 1475.86 Q2335.17 1478.98 2337.07 1480.77 Q2338.99 1482.55 2342.32 1482.55 Q2345.66 1482.55 2347.58 1480.77 Q2349.5 1478.96 2349.5 1475.86 Q2349.5 1472.73 2347.58 1470.95 Q2345.68 1469.17 2342.32 1469.17 M2337.65 1467.18 Q2334.64 1466.44 2332.95 1464.38 Q2331.28 1462.32 2331.28 1459.35 Q2331.28 1455.21 2334.22 1452.8 Q2337.18 1450.39 2342.32 1450.39 Q2347.48 1450.39 2350.42 1452.8 Q2353.36 1455.21 2353.36 1459.35 Q2353.36 1462.32 2351.67 1464.38 Q2350.01 1466.44 2347.02 1467.18 Q2350.4 1467.96 2352.28 1470.26 Q2354.17 1472.55 2354.17 1475.86 Q2354.17 1480.88 2351.1 1483.57 Q2348.04 1486.25 2342.32 1486.25 Q2336.6 1486.25 2333.53 1483.57 Q2330.47 1480.88 2330.47 1475.86 Q2330.47 1472.55 2332.37 1470.26 Q2334.27 1467.96 2337.65 1467.18 M2335.93 1459.79 Q2335.93 1462.48 2337.6 1463.98 Q2339.29 1465.49 2342.32 1465.49 Q2345.33 1465.49 2347.02 1463.98 Q2348.73 1462.48 2348.73 1459.79 Q2348.73 1457.11 2347.02 1455.6 Q2345.33 1454.1 2342.32 1454.1 Q2339.29 1454.1 2337.6 1455.6 Q2335.93 1457.11 2335.93 1459.79 Z" fill="#000000" fill-rule="nonzero" fill-opacity="1" /><path clip-path="url(#clip200)" d="M1170.01 1546.53 L1170.01 1568.04 L1164.15 1568.04 L1164.15 1546.72 Q1164.15 1541.66 1162.18 1539.14 Q1160.2 1536.63 1156.26 1536.63 Q1151.51 1536.63 1148.78 1539.65 Q1146.04 1542.68 1146.04 1547.9 L1146.04 1568.04 L1140.15 1568.04 L1140.15 1518.52 L1146.04 1518.52 L1146.04 1537.93 Q1148.14 1534.72 1150.97 1533.13 Q1153.84 1531.54 1157.56 1531.54 Q1163.7 1531.54 1166.86 1535.36 Q1170.01 1539.14 1170.01 1546.53 Z" fill="#000000" fill-rule="nonzero" fill-opacity="1" /><path clip-path="url(#clip200)" d="M1208.77 1578.87 L1208.77 1583.42 L1174.91 1583.42 L1174.91 1578.87 L1208.77 1578.87 Z" fill="#000000" fill-rule="nonzero" fill-opacity="1" /><path clip-path="url(#clip200)" d="M1237.74 1537.81 L1237.74 1518.52 L1243.59 1518.52 L1243.59 1568.04 L1237.74 1568.04 L1237.74 1562.7 Q1235.89 1565.88 1233.06 1567.44 Q1230.26 1568.97 1226.31 1568.97 Q1219.85 1568.97 1215.78 1563.81 Q1211.73 1558.65 1211.73 1550.25 Q1211.73 1541.85 1215.78 1536.69 Q1219.85 1531.54 1226.31 1531.54 Q1230.26 1531.54 1233.06 1533.1 Q1235.89 1534.62 1237.74 1537.81 M1217.78 1550.25 Q1217.78 1556.71 1220.42 1560.4 Q1223.1 1564.07 1227.74 1564.07 Q1232.39 1564.07 1235.06 1560.4 Q1237.74 1556.71 1237.74 1550.25 Q1237.74 1543.79 1235.06 1540.13 Q1232.39 1536.44 1227.74 1536.44 Q1223.1 1536.44 1220.42 1540.13 Q1217.78 1543.79 1217.78 1550.25 Z" fill="#000000" fill-rule="nonzero" fill-opacity="1" /><path clip-path="url(#clip200)" d="M1290.45 1518.58 Q1286.18 1525.9 1284.11 1533.06 Q1282.04 1540.23 1282.04 1547.58 Q1282.04 1554.93 1284.11 1562.16 Q1286.21 1569.35 1290.45 1576.64 L1285.35 1576.64 Q1280.58 1569.16 1278.19 1561.93 Q1275.84 1554.71 1275.84 1547.58 Q1275.84 1540.48 1278.19 1533.29 Q1280.55 1526.09 1285.35 1518.58 L1290.45 1518.58 Z" fill="#000000" fill-rule="nonzero" fill-opacity="1" /><path clip-path="url(#clip200)" d="M1327.46 1533.76 L1327.46 1539.24 Q1324.98 1537.87 1322.47 1537.2 Q1319.98 1536.5 1317.44 1536.5 Q1311.74 1536.5 1308.59 1540.13 Q1305.44 1543.73 1305.44 1550.25 Q1305.44 1556.78 1308.59 1560.4 Q1311.74 1564 1317.44 1564 Q1319.98 1564 1322.47 1563.33 Q1324.98 1562.63 1327.46 1561.26 L1327.46 1566.68 Q1325.01 1567.82 1322.37 1568.39 Q1319.76 1568.97 1316.8 1568.97 Q1308.75 1568.97 1304 1563.91 Q1299.26 1558.85 1299.26 1550.25 Q1299.26 1541.53 1304.04 1536.53 Q1308.84 1531.54 1317.18 1531.54 Q1319.89 1531.54 1322.47 1532.11 Q1325.04 1532.65 1327.46 1533.76 Z" fill="#000000" fill-rule="nonzero" fill-opacity="1" /><path clip-path="url(#clip200)" d="M1365.4 1539.24 Q1367.6 1535.29 1370.65 1533.41 Q1373.71 1531.54 1377.85 1531.54 Q1383.42 1531.54 1386.44 1535.45 Q1389.46 1539.33 1389.46 1546.53 L1389.46 1568.04 L1383.58 1568.04 L1383.58 1546.72 Q1383.58 1541.59 1381.76 1539.11 Q1379.95 1536.63 1376.22 1536.63 Q1371.67 1536.63 1369.03 1539.65 Q1366.39 1542.68 1366.39 1547.9 L1366.39 1568.04 L1360.5 1568.04 L1360.5 1546.72 Q1360.5 1541.56 1358.69 1539.11 Q1356.87 1536.63 1353.08 1536.63 Q1348.6 1536.63 1345.95 1539.68 Q1343.31 1542.71 1343.31 1547.9 L1343.31 1568.04 L1337.42 1568.04 L1337.42 1532.4 L1343.31 1532.4 L1343.31 1537.93 Q1345.32 1534.66 1348.12 1533.1 Q1350.92 1531.54 1354.77 1531.54 Q1358.65 1531.54 1361.36 1533.51 Q1364.1 1535.48 1365.4 1539.24 Z" fill="#000000" fill-rule="nonzero" fill-opacity="1" /><path clip-path="url(#clip200)" d="M1400.22 1518.58 L1405.32 1518.58 Q1410.09 1526.09 1412.44 1533.29 Q1414.83 1540.48 1414.83 1547.58 Q1414.83 1554.71 1412.44 1561.93 Q1410.09 1569.16 1405.32 1576.64 L1400.22 1576.64 Q1404.46 1569.35 1406.52 1562.16 Q1408.63 1554.93 1408.63 1547.58 Q1408.63 1540.23 1406.52 1533.06 Q1404.46 1525.9 1400.22 1518.58 Z" fill="#000000" fill-rule="nonzero" fill-opacity="1" /><polyline clip-path="url(#clip200)" style="stroke:#000000; stroke-linecap:round; stroke-linejoin:round; stroke-width:4; stroke-opacity:1; fill:none" points="202.227,1423.18 202.227,47.2441 "/>
<polyline clip-path="url(#clip200)" style="stroke:#000000; stroke-linecap:round; stroke-linejoin:round; stroke-width:4; stroke-opacity:1; fill:none" points="202.227,1385.52 221.125,1385.52 "/>
<polyline clip-path="url(#clip200)" style="stroke:#000000; stroke-linecap:round; stroke-linejoin:round; stroke-width:4; stroke-opacity:1; fill:none" points="202.227,1035.52 221.125,1035.52 "/>
<polyline clip-path="url(#clip200)" style="stroke:#000000; stroke-linecap:round; stroke-linejoin:round; stroke-width:4; stroke-opacity:1; fill:none" points="202.227,685.514 221.125,685.514 "/>
<polyline clip-path="url(#clip200)" style="stroke:#000000; stroke-linecap:round; stroke-linejoin:round; stroke-width:4; stroke-opacity:1; fill:none" points="202.227,335.511 221.125,335.511 "/>
<path clip-path="url(#clip200)" d="M154.283 1371.32 Q150.672 1371.32 148.843 1374.88 Q147.038 1378.43 147.038 1385.55 Q147.038 1392.66 148.843 1396.23 Q150.672 1399.77 154.283 1399.77 Q157.917 1399.77 159.723 1396.23 Q161.552 1392.66 161.552 1385.55 Q161.552 1378.43 159.723 1374.88 Q157.917 1371.32 154.283 1371.32 M154.283 1367.62 Q160.093 1367.62 163.149 1372.22 Q166.227 1376.8 166.227 1385.55 Q166.227 1394.28 163.149 1398.89 Q160.093 1403.47 154.283 1403.47 Q148.473 1403.47 145.394 1398.89 Q142.339 1394.28 142.339 1385.55 Q142.339 1376.8 145.394 1372.22 Q148.473 1367.62 154.283 1367.62 Z" fill="#000000" fill-rule="nonzero" fill-opacity="1" /><path clip-path="url(#clip200)" d="M145.325 1018.24 L163.681 1018.24 L163.681 1022.17 L149.607 1022.17 L149.607 1030.64 Q150.626 1030.3 151.644 1030.13 Q152.663 1029.95 153.681 1029.95 Q159.468 1029.95 162.848 1033.12 Q166.227 1036.29 166.227 1041.71 Q166.227 1047.29 162.755 1050.39 Q159.283 1053.47 152.964 1053.47 Q150.788 1053.47 148.519 1053.1 Q146.274 1052.73 143.866 1051.99 L143.866 1047.29 Q145.95 1048.42 148.172 1048.98 Q150.394 1049.53 152.871 1049.53 Q156.876 1049.53 159.214 1047.43 Q161.552 1045.32 161.552 1041.71 Q161.552 1038.1 159.214 1035.99 Q156.876 1033.88 152.871 1033.88 Q150.996 1033.88 149.121 1034.3 Q147.269 1034.72 145.325 1035.6 L145.325 1018.24 Z" fill="#000000" fill-rule="nonzero" fill-opacity="1" /><path clip-path="url(#clip200)" d="M114.931 698.859 L122.57 698.859 L122.57 672.493 L114.26 674.16 L114.26 669.9 L122.524 668.234 L127.2 668.234 L127.2 698.859 L134.839 698.859 L134.839 702.794 L114.931 702.794 L114.931 698.859 Z" fill="#000000" fill-rule="nonzero" fill-opacity="1" /><path clip-path="url(#clip200)" d="M154.283 671.312 Q150.672 671.312 148.843 674.877 Q147.038 678.419 147.038 685.548 Q147.038 692.655 148.843 696.22 Q150.672 699.761 154.283 699.761 Q157.917 699.761 159.723 696.22 Q161.552 692.655 161.552 685.548 Q161.552 678.419 159.723 674.877 Q157.917 671.312 154.283 671.312 M154.283 667.609 Q160.093 667.609 163.149 672.215 Q166.227 676.799 166.227 685.548 Q166.227 694.275 163.149 698.882 Q160.093 703.465 154.283 703.465 Q148.473 703.465 145.394 698.882 Q142.339 694.275 142.339 685.548 Q142.339 676.799 145.394 672.215 Q148.473 667.609 154.283 667.609 Z" fill="#000000" fill-rule="nonzero" fill-opacity="1" /><path clip-path="url(#clip200)" d="M115.927 348.855 L123.566 348.855 L123.566 322.49 L115.256 324.156 L115.256 319.897 L123.519 318.231 L128.195 318.231 L128.195 348.855 L135.834 348.855 L135.834 352.791 L115.927 352.791 L115.927 348.855 Z" fill="#000000" fill-rule="nonzero" fill-opacity="1" /><path clip-path="url(#clip200)" d="M145.325 318.231 L163.681 318.231 L163.681 322.166 L149.607 322.166 L149.607 330.638 Q150.626 330.291 151.644 330.129 Q152.663 329.943 153.681 329.943 Q159.468 329.943 162.848 333.115 Q166.227 336.286 166.227 341.703 Q166.227 347.281 162.755 350.383 Q159.283 353.462 152.964 353.462 Q150.788 353.462 148.519 353.091 Q146.274 352.721 143.866 351.98 L143.866 347.281 Q145.95 348.416 148.172 348.971 Q150.394 349.527 152.871 349.527 Q156.876 349.527 159.214 347.42 Q161.552 345.314 161.552 341.703 Q161.552 338.092 159.214 335.985 Q156.876 333.879 152.871 333.879 Q150.996 333.879 149.121 334.295 Q147.269 334.712 145.325 335.592 L145.325 318.231 Z" fill="#000000" fill-rule="nonzero" fill-opacity="1" /><path clip-path="url(#clip200)" d="M41.7242 1105.98 Q42.4244 1103.91 44.7161 1101.97 Q47.0077 1100 51.0181 1098.03 L64.0042 1091.5 L64.0042 1098.41 L51.8138 1104.49 Q47.0395 1106.84 45.48 1109.07 Q43.9204 1111.27 43.9204 1115.09 L43.9204 1122.09 L64.0042 1122.09 L64.0042 1128.52 L16.4842 1128.52 L16.4842 1114 Q16.4842 1105.86 19.8898 1101.84 Q23.2955 1097.83 30.1704 1097.83 Q34.6582 1097.83 37.6183 1099.94 Q40.5784 1102 41.7242 1105.98 M21.7677 1122.09 L38.6368 1122.09 L38.6368 1114 Q38.6368 1109.36 36.5043 1107 Q34.34 1104.61 30.1704 1104.61 Q26.0009 1104.61 23.9002 1107 Q21.7677 1109.36 21.7677 1114 L21.7677 1122.09 Z" fill="#000000" fill-rule="nonzero" fill-opacity="1" /><path clip-path="url(#clip200)" d="M74.8259 1056.39 L79.3773 1056.39 L79.3773 1090.26 L74.8259 1090.26 L74.8259 1056.39 Z" fill="#000000" fill-rule="nonzero" fill-opacity="1" /><path clip-path="url(#clip200)" d="M58.657 1045.22 L77.5631 1045.22 L77.5631 1051.11 L28.3562 1051.11 L28.3562 1045.22 L33.7671 1045.22 Q30.5842 1043.38 29.0564 1040.57 Q27.4968 1037.74 27.4968 1033.83 Q27.4968 1027.33 32.6531 1023.29 Q37.8093 1019.22 46.212 1019.22 Q54.6147 1019.22 59.771 1023.29 Q64.9272 1027.33 64.9272 1033.83 Q64.9272 1037.74 63.3994 1040.57 Q61.8398 1043.38 58.657 1045.22 M46.212 1025.3 Q39.7508 1025.3 36.0905 1027.97 Q32.3984 1030.61 32.3984 1035.26 Q32.3984 1039.91 36.0905 1042.58 Q39.7508 1045.22 46.212 1045.22 Q52.6732 1045.22 56.3653 1042.58 Q60.0256 1039.91 60.0256 1035.26 Q60.0256 1030.61 56.3653 1027.97 Q52.6732 1025.3 46.212 1025.3 Z" fill="#000000" fill-rule="nonzero" fill-opacity="1" /><path clip-path="url(#clip200)" d="M14.5426 974.722 Q21.8632 978.987 29.0246 981.056 Q36.186 983.124 43.5384 983.124 Q50.8908 983.124 58.1159 981.056 Q65.3091 978.955 72.5979 974.722 L72.5979 979.814 Q65.1182 984.589 57.8931 986.976 Q50.668 989.331 43.5384 989.331 Q36.4406 989.331 29.2474 986.976 Q22.0542 984.62 14.5426 979.814 L14.5426 974.722 Z" fill="#000000" fill-rule="nonzero" fill-opacity="1" /><path clip-path="url(#clip200)" d="M42.4881 933.727 L64.0042 933.727 L64.0042 939.583 L42.679 939.583 Q37.6183 939.583 35.1038 941.556 Q32.5894 943.53 32.5894 947.476 Q32.5894 952.219 35.6131 954.956 Q38.6368 957.693 43.8567 957.693 L64.0042 957.693 L64.0042 963.582 L14.479 963.582 L14.479 957.693 L33.8944 957.693 Q30.6797 955.593 29.0883 952.76 Q27.4968 949.895 27.4968 946.171 Q27.4968 940.029 31.3163 936.878 Q35.1038 933.727 42.4881 933.727 Z" fill="#000000" fill-rule="nonzero" fill-opacity="1" /><path clip-path="url(#clip200)" d="M33.8307 901.389 Q33.2578 902.375 33.0032 903.553 Q32.7167 904.699 32.7167 906.099 Q32.7167 911.065 35.9632 913.738 Q39.1779 916.38 45.2253 916.38 L64.0042 916.38 L64.0042 922.268 L28.3562 922.268 L28.3562 916.38 L33.8944 916.38 Q30.6479 914.534 29.0883 911.574 Q27.4968 908.614 27.4968 904.381 Q27.4968 903.776 27.5923 903.044 Q27.656 902.312 27.8151 901.421 L33.8307 901.389 Z" fill="#000000" fill-rule="nonzero" fill-opacity="1" /><path clip-path="url(#clip200)" d="M29.7248 848.872 L35.1993 848.872 Q33.8307 851.354 33.1623 853.869 Q32.4621 856.351 32.4621 858.898 Q32.4621 864.595 36.0905 867.746 Q39.6872 870.897 46.212 870.897 Q52.7369 870.897 56.3653 867.746 Q59.9619 864.595 59.9619 858.898 Q59.9619 856.351 59.2935 853.869 Q58.5933 851.354 57.2247 848.872 L62.6355 848.872 Q63.7814 851.322 64.3543 853.964 Q64.9272 856.574 64.9272 859.534 Q64.9272 867.587 59.8664 872.329 Q54.8057 877.072 46.212 877.072 Q37.491 877.072 32.4939 872.297 Q27.4968 867.491 27.4968 859.152 Q27.4968 856.447 28.0697 853.869 Q28.6108 851.291 29.7248 848.872 Z" fill="#000000" fill-rule="nonzero" fill-opacity="1" /><path clip-path="url(#clip200)" d="M35.1993 810.932 Q31.2526 808.736 29.3747 805.68 Q27.4968 802.625 27.4968 798.487 Q27.4968 792.917 31.4117 789.893 Q35.2948 786.87 42.4881 786.87 L64.0042 786.87 L64.0042 792.758 L42.679 792.758 Q37.5546 792.758 35.072 794.572 Q32.5894 796.386 32.5894 800.11 Q32.5894 804.662 35.6131 807.304 Q38.6368 809.945 43.8567 809.945 L64.0042 809.945 L64.0042 815.834 L42.679 815.834 Q37.5228 815.834 35.072 817.648 Q32.5894 819.462 32.5894 823.25 Q32.5894 827.738 35.6449 830.379 Q38.6686 833.021 43.8567 833.021 L64.0042 833.021 L64.0042 838.909 L28.3562 838.909 L28.3562 833.021 L33.8944 833.021 Q30.616 831.016 29.0564 828.215 Q27.4968 825.414 27.4968 821.563 Q27.4968 817.68 29.4702 814.974 Q31.4436 812.237 35.1993 810.932 Z" fill="#000000" fill-rule="nonzero" fill-opacity="1" /><path clip-path="url(#clip200)" d="M16.4842 750.903 L34.2127 733.621 L34.2127 740.018 L21.6404 754.023 L34.2127 768.027 L34.2127 774.425 L16.4842 757.142 L16.4842 750.903 Z" fill="#000000" fill-rule="nonzero" fill-opacity="1" /><path clip-path="url(#clip200)" d="M58.5933 714.205 L58.5933 691.766 L64.0042 691.766 L64.0042 721.939 L58.5933 721.939 Q54.8057 718.279 48.44 711.977 Q42.0425 705.643 40.1964 704.02 Q36.7271 700.933 34.34 699.723 Q31.921 698.482 29.5975 698.482 Q25.8099 698.482 23.4228 701.155 Q21.0356 703.797 21.0356 708.062 Q21.0356 711.086 22.086 714.46 Q23.1363 717.802 25.2688 721.621 L18.7758 721.621 Q17.2162 717.738 16.4205 714.364 Q15.6248 710.99 15.6248 708.19 Q15.6248 700.805 19.3169 696.413 Q23.009 692.021 29.1837 692.021 Q32.112 692.021 34.7537 693.135 Q37.3637 694.217 40.9285 697.113 Q41.8515 697.909 46.2757 702.174 Q50.668 706.439 58.5933 714.205 Z" fill="#000000" fill-rule="nonzero" fill-opacity="1" /><path clip-path="url(#clip200)" d="M16.4842 664.712 L16.4842 624.512 L21.895 624.512 L21.895 641.381 L64.0042 641.381 L64.0042 647.843 L21.895 647.843 L21.895 664.712 L16.4842 664.712 Z" fill="#000000" fill-rule="nonzero" fill-opacity="1" /><path clip-path="url(#clip200)" d="M32.4621 615.823 Q32.4621 620.534 36.1542 623.271 Q39.8145 626.008 46.212 626.008 Q52.6095 626.008 56.3017 623.303 Q59.9619 620.566 59.9619 615.823 Q59.9619 611.144 56.2698 608.407 Q52.5777 605.67 46.212 605.67 Q39.8781 605.67 36.186 608.407 Q32.4621 611.144 32.4621 615.823 M27.4968 615.823 Q27.4968 608.184 32.4621 603.824 Q37.4273 599.463 46.212 599.463 Q54.9649 599.463 59.9619 603.824 Q64.9272 608.184 64.9272 615.823 Q64.9272 623.494 59.9619 627.854 Q54.9649 632.183 46.212 632.183 Q37.4273 632.183 32.4621 627.854 Q27.4968 623.494 27.4968 615.823 Z" fill="#000000" fill-rule="nonzero" fill-opacity="1" /><path clip-path="url(#clip200)" d="M33.8307 569.099 Q33.2578 570.086 33.0032 571.263 Q32.7167 572.409 32.7167 573.809 Q32.7167 578.775 35.9632 581.448 Q39.1779 584.09 45.2253 584.09 L64.0042 584.09 L64.0042 589.978 L28.3562 589.978 L28.3562 584.09 L33.8944 584.09 Q30.6479 582.244 29.0883 579.284 Q27.4968 576.324 27.4968 572.091 Q27.4968 571.486 27.5923 570.754 Q27.656 570.022 27.8151 569.131 L33.8307 569.099 Z" fill="#000000" fill-rule="nonzero" fill-opacity="1" /><path clip-path="url(#clip200)" d="M33.8307 543.445 Q33.2578 544.432 33.0032 545.609 Q32.7167 546.755 32.7167 548.156 Q32.7167 553.121 35.9632 555.795 Q39.1779 558.436 45.2253 558.436 L64.0042 558.436 L64.0042 564.325 L28.3562 564.325 L28.3562 558.436 L33.8944 558.436 Q30.6479 556.59 29.0883 553.63 Q27.4968 550.67 27.4968 546.437 Q27.4968 545.832 27.5923 545.1 Q27.656 544.368 27.8151 543.477 L33.8307 543.445 Z" fill="#000000" fill-rule="nonzero" fill-opacity="1" /><path clip-path="url(#clip200)" d="M45.7664 493.124 Q39.4007 493.124 35.8996 495.766 Q32.3984 498.376 32.3984 503.118 Q32.3984 507.829 35.8996 510.471 Q39.4007 513.081 45.7664 513.081 Q52.1003 513.081 55.6014 510.471 Q59.1026 507.829 59.1026 503.118 Q59.1026 498.376 55.6014 495.766 Q52.1003 493.124 45.7664 493.124 M59.58 487.268 Q68.683 487.268 73.1071 491.31 Q77.5631 495.352 77.5631 503.691 Q77.5631 506.779 77.0857 509.516 Q76.6401 512.253 75.6852 514.831 L69.9879 514.831 Q71.3884 512.253 72.0568 509.739 Q72.7252 507.224 72.7252 504.614 Q72.7252 498.853 69.7015 495.989 Q66.7096 493.124 60.6303 493.124 L57.7339 493.124 Q60.885 494.938 62.4446 497.771 Q64.0042 500.604 64.0042 504.551 Q64.0042 511.107 59.0071 515.118 Q54.01 519.128 45.7664 519.128 Q37.491 519.128 32.4939 515.118 Q27.4968 511.107 27.4968 504.551 Q27.4968 500.604 29.0564 497.771 Q30.616 494.938 33.7671 493.124 L28.3562 493.124 L28.3562 487.268 L59.58 487.268 Z" fill="#000000" fill-rule="nonzero" fill-opacity="1" /><path clip-path="url(#clip200)" d="M16.4842 450.92 L34.2127 433.637 L34.2127 440.034 L21.6404 454.039 L34.2127 468.043 L34.2127 474.441 L16.4842 457.158 L16.4842 450.92 Z" fill="#000000" fill-rule="nonzero" fill-opacity="1" /><path clip-path="url(#clip200)" d="M43.5384 423.547 L43.5384 406.391 L48.7583 406.391 L48.7583 423.547 L43.5384 423.547 Z" fill="#000000" fill-rule="nonzero" fill-opacity="1" /><path clip-path="url(#clip200)" d="M58.5933 395.124 L58.5933 384.621 L22.3406 384.621 L24.6323 396.047 L18.7758 396.047 L16.4842 384.684 L16.4842 378.255 L58.5933 378.255 L58.5933 367.752 L64.0042 367.752 L64.0042 395.124 L58.5933 395.124 Z" fill="#000000" fill-rule="nonzero" fill-opacity="1" /><path clip-path="url(#clip200)" d="M14.5426 356.516 L14.5426 351.424 Q22.0542 346.649 29.2474 344.294 Q36.4406 341.907 43.5384 341.907 Q50.668 341.907 57.8931 344.294 Q65.1182 346.649 72.5979 351.424 L72.5979 356.516 Q65.3091 352.283 58.1159 350.214 Q50.8908 348.113 43.5384 348.113 Q36.186 348.113 29.0246 350.214 Q21.8632 352.283 14.5426 356.516 Z" fill="#000000" fill-rule="nonzero" fill-opacity="1" /><polyline clip-path="url(#clip202)" style="stroke:#009af9; stroke-linecap:round; stroke-linejoin:round; stroke-width:4; stroke-opacity:1; fill:none" points="263.091,1383.27 263.47,1376.44 263.886,1370.73 264.341,1365.9 264.833,1361.73 265.358,1350.31 265.916,1347.5 266.513,1345 267.142,1335.78 267.804,1334.05 268.5,1325.86 269.229,1324.67 269.991,1317.26 270.781,1310.2 271.599,1303.44 272.451,1303.15 273.336,1296.87 274.249,1290.81 275.196,1290.88 276.175,1285.17 277.183,1279.63 278.224,1279.93 279.298,1274.64 280.405,1275 281.55,1275.31 282.729,1270.33 283.94,1270.68 285.189,1270.98 286.472,1266.25 287.787,1266.58 289.14,1266.87 290.555,1267.19 291.956,1262.63 293.413,1262.9 294.929,1258.6 296.428,1258.8 298.016,1259.11 299.584,1254.78 301.212,1255.03 302.901,1250.93 304.567,1251.1 306.328,1251.39 308.094,1247.3 309.862,1247.44 311.734,1251.85 313.623,1255.97 315.554,1255.99 317.524,1255.98 319.535,1259.76 321.595,1263.36 323.696,1263.21 325.841,1266.54 328.003,1262.95 330.161,1262.92 332.314,1259.27 334.462,1259.23 336.606,1255.51 338.744,1255.47 340.878,1251.69 343.008,1251.65 345.137,1251.61 347.262,1247.76 349.382,1247.72 351.501,1247.68 353.617,1243.76 355.727,1243.72 357.837,1243.68 359.948,1243.64 362.053,1239.65 364.154,1239.61 366.251,1235.55 368.337,1231.41 370.419,1231.37 372.501,1231.33 374.583,1231.29 376.661,1227.08 378.733,1227.04 380.806,1227 382.874,1222.71 384.937,1222.67 387,1222.63 389.058,1218.27 391.112,1218.23 393.165,1218.19 395.219,1218.15 397.273,1218.1 399.321,1213.66 401.366,1213.62 403.41,1213.58 405.449,1209.05 407.484,1209.01 409.519,1208.97 411.549,1204.37 413.574,1204.32 415.599,1204.28 417.624,1204.24 419.645,1199.55 421.66,1199.51 423.676,1199.47 425.687,1194.69 427.694,1194.65 429.7,1194.61 431.706,1194.57 433.708,1189.71 435.705,1189.67 437.701,1189.62 439.698,1189.58 441.695,1189.54 443.687,1184.59 445.708,1184.55 447.662,1184.5 449.678,1179.46 451.623,1179.42 453.601,1179.38 455.611,1179.34 457.552,1174.21 459.553,1174.16 461.521,1174.12 463.452,1168.9 465.444,1168.85 467.403,1168.81 469.362,1168.76 471.321,1168.72 473.275,1163.4 475.225,1163.36 477.174,1163.31 479.124,1163.27 481.069,1157.85 483.009,1157.81 484.949,1157.77 486.889,1157.72 488.829,1157.68 490.764,1152.16 492.695,1152.12 494.625,1152.08 496.556,1152.03 498.486,1151.99 500.417,1151.94 502.348,1151.9 504.274,1146.28 506.195,1146.24 508.116,1146.19 510.037,1146.15 511.953,1140.43 513.865,1140.38 515.777,1140.34 517.688,1140.29 519.595,1134.47 521.497,1134.42 523.4,1134.38 525.302,1134.33 527.204,1134.29 529.106,1134.25 531.004,1128.31 532.896,1128.27 534.789,1128.22 536.682,1128.18 538.575,1128.13 540.463,1122.09 542.346,1122.05 544.229,1122 546.113,1121.96 547.996,1121.91 549.879,1121.86 551.762,1121.82 553.641,1115.67 555.515,1115.62 557.388,1115.57 559.262,1115.53 561.136,1115.48 563.01,1115.44 564.879,1109.17 566.743,1109.13 568.608,1109.08 570.472,1109.03 572.336,1108.99 574.196,1102.61 576.051,1102.56 577.906,1102.51 579.761,1102.47 581.616,1102.42 583.466,1095.92 585.342,1095.87 587.157,1095.83 589.002,1095.78 590.878,1095.73 592.693,1095.69 594.569,1095.64 596.414,1095.6 598.255,1088.97 600.096,1095.5 601.936,1088.88 603.772,1088.83 605.608,1088.79 607.444,1088.74 609.28,1088.69 611.111,1081.95 612.938,1081.9 614.764,1081.86 616.591,1081.81 618.417,1081.76 620.239,1074.89 622.056,1074.85 623.873,1074.8 625.69,1074.75 627.507,1074.7 629.324,1074.66 631.141,1074.61 632.958,1074.56 634.775,1074.52 636.592,1074.47 638.41,1074.42 640.222,1067.42 642.029,1067.37 643.837,1067.33 645.64,1060.2 647.438,1060.15 649.236,1060.1 651.034,1060.06 652.832,1060.01 654.63,1059.96 656.428,1059.91 658.226,1059.87 660.025,1059.82 661.818,1052.56 663.607,1052.51 665.395,1052.46 667.184,1052.41 668.972,1052.36 670.761,1052.32 672.545,1044.92 674.324,1044.87 676.103,1044.82 677.883,1044.78 679.662,1044.73 681.441,1044.68 683.22,1044.63 684.999,1044.58 686.778,1044.53 688.553,1037 690.323,1036.95 692.092,1036.9 693.862,1036.85 695.632,1036.8 697.401,1036.76 699.171,1036.71 700.941,1036.66 702.711,1036.61 704.476,1028.93 706.236,1028.88 707.996,1028.83 709.756,1028.79 711.517,1028.74 713.277,1028.69 715.066,1028.64 716.793,1020.82 718.543,1020.77 720.328,1028.49 722.059,1028.45 723.844,1020.62 725.565,1020.57 727.345,1020.52 729.096,1020.47 730.847,1020.42 732.598,1020.38 734.315,1012.41 736.09,1020.28 737.841,1020.23 739.591,1020.18 741.342,1020.13 743.088,1012.16 744.83,1012.11 746.571,1012.06 748.312,1012.01 750.054,1011.96 751.795,1011.91 753.536,1011.86 755.277,1011.81 757.019,1011.76 758.76,1011.72 760.497,1003.59 762.233,1011.62 763.97,1003.49 765.702,1003.44 767.434,1003.39 769.161,995.117 770.883,995.067 772.605,995.018 774.328,994.968 776.05,994.918 777.773,994.868 779.495,994.819 781.217,994.769 782.94,994.719 784.662,994.669 786.385,994.62 788.107,994.57 789.829,994.52 791.552,994.47 793.274,994.421 794.997,994.371 796.719,994.321 798.437,985.885 800.15,985.835 801.867,994.172 803.59,994.123 805.307,985.684 807.025,994.023 808.743,985.584 810.456,985.534 812.168,985.484 813.881,985.434 815.59,976.837 817.298,985.334 819.011,985.284 820.724,985.234 822.432,976.635 824.135,976.585 825.839,976.534 827.542,976.484 829.246,976.434 830.949,976.383 832.653,976.333 834.356,976.283 836.06,976.232 837.758,967.47 839.48,967.419 841.146,967.369 842.84,967.319 844.534,967.268 846.228,967.218 847.95,967.166 849.616,967.117 851.31,967.066 853.033,967.015 854.698,966.965 856.421,966.914 858.086,966.864 859.809,966.812 861.503,966.762 863.168,966.712 864.891,966.661 866.585,966.61 868.279,966.559 869.968,957.626 871.652,957.575 873.337,957.524 875.021,957.473 876.706,957.423 878.39,957.372 880.075,957.321 881.76,957.27 883.444,957.219 885.129,957.168 886.813,957.118 888.498,957.067 890.182,957.016 891.867,956.965 893.551,956.914 895.236,956.863 896.92,956.812 898.605,956.761 900.285,947.653 901.96,947.602 903.635,947.551 905.31,947.5 906.985,947.449 908.66,947.398 910.335,947.347 912.01,947.296 913.685,947.245 915.36,947.193 917.035,947.142 918.711,947.091 920.386,947.04 922.056,937.757 923.722,937.705 925.387,937.654 927.057,946.836 928.733,946.785 930.408,946.734 932.078,937.448 933.744,937.396 935.409,937.345 937.075,937.293 938.74,937.242 940.406,937.191 942.072,937.139 943.737,937.088 945.403,937.036 947.068,936.985 948.734,936.934 950.4,936.882 952.065,936.831 953.731,936.779 955.396,936.728 957.062,936.676 958.728,936.625 960.393,936.574 962.087,936.521 963.725,936.471 965.39,936.419 967.051,926.95 968.712,936.317 970.4,926.845 972.034,936.214 973.727,936.162 975.388,926.689 977.016,926.639 978.705,936.008 980.366,926.534 982.027,935.905 983.688,926.43 985.316,926.38 987,926.327 988.656,926.275 990.312,926.224 991.968,926.172 993.625,926.12 995.281,926.068 996.937,926.017 998.593,925.965 1000.25,925.913 1001.91,925.861 1003.56,925.81 1005.21,916.152 1006.86,916.1 1008.51,916.048 1010.15,915.996 1011.8,915.944 1013.45,915.892 1015.09,915.84 1016.74,915.788 1018.38,905.947 1020.02,915.685 1021.67,915.633 1023.32,915.581 1024.96,915.529 1026.61,915.477 1028.26,915.425 1029.9,915.373 1031.55,915.321 1033.2,915.269 1034.84,915.217 1036.49,905.37 1038.13,915.113 1039.77,905.265 1041.41,905.213 1043.04,905.16 1044.69,914.906 1046.33,905.056 1047.97,905.003 1049.6,904.951 1051.24,904.899 1052.88,904.846 1054.51,904.794 1056.15,904.742 1057.79,904.69 1059.43,904.637 1061.06,904.585 1062.7,904.533 1064.34,904.48 1065.97,904.428 1067.61,904.376 1069.25,904.324 1070.89,904.271 1072.52,904.219 1074.16,904.167 1075.8,904.114 1077.43,904.062 1079.07,904.01 1080.71,903.957 1082.37,903.904 1083.98,903.853 1085.65,903.799 1087.26,903.748 1088.9,903.695 1090.53,903.643 1092.17,893.595 1093.82,903.538 1095.43,893.49 1097.09,893.436 1098.71,893.384 1100.31,893.332 1101.97,893.278 1103.6,893.226 1105.22,893.173 1106.85,893.121 1108.48,893.068 1110.11,893.015 1111.73,892.963 1113.36,892.91 1114.99,892.857 1116.61,882.614 1118.24,892.753 1119.86,882.508 1121.48,882.455 1123.1,882.402 1124.71,882.35 1126.33,882.297 1127.95,882.244 1129.57,882.191 1131.19,882.138 1132.81,882.085 1134.42,882.032 1136.04,881.979 1137.66,881.927 1139.28,881.874 1140.9,881.821 1142.52,881.768 1144.13,881.715 1145.75,881.662 1147.37,881.609 1148.99,881.556 1150.61,881.503 1152.23,881.451 1153.84,881.398 1155.46,870.95 1157.07,870.897 1158.67,870.844 1160.29,881.187 1161.9,870.737 1163.51,870.684 1165.12,870.631 1166.73,870.578 1168.34,870.525 1169.95,870.472 1171.55,870.418 1173.16,870.365 1174.77,870.312 1176.38,870.259 1177.99,870.206 1179.6,870.153 1181.21,870.099 1182.82,870.046 1184.43,869.993 1186.03,869.94 1187.64,869.887 1189.25,869.833 1190.86,869.78 1192.47,869.727 1194.08,869.674 1195.69,869.621 1197.3,869.567 1198.9,869.514 1200.51,869.461 1202.12,869.408 1203.73,869.355 1205.37,869.3 1206.95,869.248 1208.56,869.195 1210.19,869.141 1211.78,869.088 1213.41,869.034 1215.02,868.981 1216.6,868.929 1218.24,868.874 1219.82,868.822 1221.46,868.768 1223.06,868.715 1224.67,868.661 1226.28,868.608 1227.89,868.555 1229.5,868.501 1231.11,868.448 1232.72,868.395 1234.32,857.726 1235.92,857.673 1237.52,857.619 1239.12,857.566 1240.72,868.13 1242.33,857.458 1243.93,857.405 1245.53,857.351 1247.13,857.298 1248.72,857.244 1250.32,857.191 1251.92,857.137 1253.52,857.084 1255.12,857.03 1256.72,856.976 1258.32,856.923 1259.92,856.869 1261.52,856.816 1263.12,856.762 1264.72,856.709 1266.32,856.655 1267.92,856.601 1269.52,856.548 1271.12,856.494 1272.72,856.441 1274.31,856.387 1275.91,845.505 1277.5,845.451 1279.09,845.397 1280.68,845.343 1282.27,845.29 1283.86,845.236 1285.45,845.182 1287.04,845.128 1288.63,845.074 1290.22,845.02 1291.81,844.967 1293.4,844.913 1294.99,844.859 1296.58,844.805 1298.17,844.751 1299.76,844.697 1301.35,844.644 1302.94,844.59 1304.53,855.374 1306.13,844.482 1307.72,844.428 1309.31,844.374 1310.9,844.32 1312.49,844.266 1314.08,844.212 1315.67,844.158 1317.26,844.105 1318.85,844.051 1320.46,843.996 1322.03,843.943 1323.61,832.84 1325.22,832.785 1326.78,843.782 1328.37,843.728 1329.98,843.673 1331.55,843.62 1333.16,843.565 1334.73,843.512 1336.34,832.405 1337.92,832.35 1339.48,843.351 1341.09,832.242 1342.67,832.188 1344.25,832.134 1345.83,832.079 1347.41,832.025 1348.99,831.971 1350.57,831.917 1352.15,831.863 1353.73,831.809 1355.31,831.754 1356.89,831.7 1358.47,831.646 1360.05,831.592 1361.63,831.538 1363.21,831.484 1364.8,831.429 1366.38,831.375 1367.96,831.321 1369.54,831.267 1371.12,831.213 1372.7,831.158 1374.28,831.104 1375.86,831.05 1377.44,830.996 1379.02,830.941 1380.6,830.887 1382.18,830.833 1383.76,830.779 1385.34,830.725 1386.92,830.67 1388.5,830.616 1390.08,830.562 1391.66,830.508 1393.24,830.453 1394.82,830.399 1396.4,830.345 1397.98,830.291 1399.56,830.236 1401.15,830.182 1402.73,830.128 1404.31,830.073 1405.89,830.019 1407.46,818.68 1409.04,829.911 1410.62,829.857 1412.2,829.802 1413.77,818.461 1415.35,818.406 1416.92,818.352 1418.49,818.297 1420.06,818.243 1421.63,829.478 1423.21,818.133 1424.78,818.079 1426.36,829.316 1427.93,817.97 1429.5,817.915 1431.07,817.861 1432.64,817.806 1434.24,817.751 1435.79,817.697 1437.36,817.642 1438.93,817.588 1440.5,817.533 1442.1,817.478 1443.64,817.424 1445.21,817.37 1446.81,817.314 1448.35,817.26 1449.95,817.205 1451.52,817.15 1453.07,817.097 1454.66,817.041 1456.24,816.987 1457.81,816.932 1459.38,816.877 1460.95,816.823 1462.52,816.768 1464.09,816.714 1465.66,816.659 1467.23,816.604 1468.8,816.55 1470.37,816.495 1471.95,816.44 1473.52,816.386 1475.09,816.331 1476.66,816.277 1478.23,816.222 1479.8,816.167 1481.37,816.113 1482.94,816.058 1484.51,816.003 1486.08,815.949 1487.66,815.894 1489.23,815.839 1490.8,815.785 1492.37,815.73 1493.94,815.675 1495.51,815.621 1497.08,815.566 1498.65,815.511 1500.22,815.457 1501.79,815.402 1503.36,815.347 1504.93,803.761 1506.5,815.238 1508.06,803.651 1509.63,815.129 1511.2,803.541 1512.76,803.486 1514.32,803.431 1515.88,803.376 1517.44,803.322 1519,803.267 1520.57,803.212 1522.13,803.157 1523.69,803.102 1525.25,803.047 1526.81,802.992 1528.37,802.937 1529.93,802.882 1531.5,802.827 1533.06,802.772 1534.62,802.717 1536.18,802.662 1537.74,802.607 1539.3,802.552 1540.86,802.497 1542.43,802.442 1543.99,802.387 1545.55,802.332 1547.11,802.277 1548.67,802.222 1550.23,802.167 1551.8,802.112 1553.36,802.057 1554.94,802.001 1556.48,801.947 1558.04,801.892 1559.63,801.836 1561.16,801.782 1562.75,789.958 1564.28,801.673 1565.84,801.618 1567.43,801.562 1568.96,801.508 1570.55,801.452 1572.11,801.397 1573.67,801.342 1575.23,801.286 1576.8,801.231 1578.36,801.176 1579.92,801.121 1581.48,801.066 1583.04,801.011 1584.6,800.956 1586.16,789.124 1587.72,800.846 1589.28,800.791 1590.84,800.736 1592.4,800.681 1593.96,800.626 1595.52,800.571 1597.08,788.735 1598.63,788.68 1600.19,788.625 1601.74,788.569 1603.29,788.514 1604.84,788.459 1606.39,788.403 1607.95,788.348 1609.5,800.077 1611.06,800.022 1612.62,788.182 1614.17,788.126 1615.72,788.071 1617.28,788.016 1618.83,787.96 1620.38,787.905 1621.93,787.85 1623.49,787.794 1625.04,787.739 1626.59,787.683 1628.14,775.614 1629.68,775.558 1631.22,775.503 1632.76,763.203 1634.29,763.147 1635.82,750.613 1637.34,724.88 1638.83,698.149 1640.31,684.367 1641.78,656.057 1643.23,641.458 1644.67,611.459 1646.09,580.269 1647.49,564.182 1648.89,547.776 1650.28,547.717 1651.67,530.984 1653.04,513.917 1654.41,496.509 1655.76,442.27 1657.09,423.413 1658.42,423.354 1659.74,404.112 1661.05,384.476 1662.35,384.417 1663.65,364.377 1664.95,364.317 1666.26,343.863 1667.53,343.804 1668.82,343.745 1670.12,322.866 1671.38,322.807 1672.65,301.495 1673.94,301.434 1675.19,301.375 1676.47,301.314 1677.74,301.254 1679.01,279.495 1680.26,279.435 1681.52,257.22 1682.77,257.159 1684.02,257.099 1685.27,257.039 1686.51,234.355 1687.75,234.294 1688.99,234.234 1690.23,234.174 1691.47,211.009 1692.7,210.948 1693.93,210.888 1695.16,210.827 1696.38,187.169 1697.6,187.109 1698.82,187.048 1700.04,186.988 1701.26,186.927 1702.49,186.866 1703.71,186.806 1704.93,186.745 1706.14,162.579 1707.35,162.519 1708.57,162.458 1709.78,162.397 1710.98,137.712 1712.19,137.652 1713.38,112.436 1714.58,112.375 1715.77,112.314 1716.96,112.253 1718.15,112.192 1719.35,112.132 1720.53,86.3683 1721.72,86.3074 1722.9,86.2465 1724.08,86.1857 "/>
<polyline clip-path="url(#clip202)" style="stroke:#e26f46; stroke-linecap:round; stroke-linejoin:round; stroke-width:4; stroke-opacity:1; fill:none" points="263.091,1383.85 263.962,1380.76 264.866,1373.62 265.798,1366.78 266.763,1364.5 267.767,1362.37 268.803,1356.27 269.867,1350.36 270.965,1348.76 272.101,1347.24 273.27,1341.85 274.472,1340.56 275.711,1339.31 276.989,1338.12 278.304,1336.98 279.658,1335.88 281.049,1334.82 282.478,1333.79 283.945,1332.79 285.449,1331.83 287.018,1330.93 288.568,1326.66 290.182,1329.09 291.861,1325.04 293.518,1324.2 295.269,1323.45 297.001,1322.64 298.799,1321.88 300.666,1321.17 302.504,1317.36 304.443,1319.71 306.389,1316.03 308.339,1318.26 310.398,1317.61 312.467,1319.74 314.578,1319.04 316.732,1321.06 318.933,1323 321.176,1322.27 323.463,1324.1 325.791,1323.34 328.138,1323.31 330.485,1323.27 332.828,1320.7 335.16,1318.08 337.489,1318.05 339.817,1318.01 342.145,1317.98 344.473,1317.94 346.796,1315.28 349.115,1315.24 351.429,1312.53 353.742,1315.17 356.056,1312.46 358.365,1312.42 360.675,1312.39 362.979,1309.62 365.279,1309.59 367.574,1306.77 369.864,1306.74 372.154,1306.7 374.444,1306.67 376.734,1306.63 379.02,1303.77 381.301,1303.73 383.581,1303.7 385.857,1300.78 388.129,1300.74 390.4,1300.71 392.667,1297.74 394.928,1297.7 397.19,1297.67 399.447,1294.64 401.7,1294.61 403.952,1294.57 406.204,1294.54 408.457,1294.5 410.704,1291.42 412.947,1291.38 415.19,1291.35 417.433,1291.31 419.676,1291.28 421.914,1288.14 424.148,1288.1 426.381,1288.07 428.614,1288.03 430.843,1284.84 433.067,1284.8 435.291,1284.77 437.515,1284.73 439.734,1281.48 441.949,1281.44 444.163,1281.41 446.378,1281.37 448.588,1278.06 450.793,1278.02 452.998,1277.99 455.203,1277.95 457.444,1277.91 459.613,1277.88 461.855,1277.84 464.018,1274.47 466.214,1274.43 468.441,1271 470.591,1270.96 472.813,1270.93 474.999,1270.89 477.149,1270.85 479.367,1267.36 481.543,1267.32 483.72,1267.28 485.897,1267.25 488.073,1267.21 490.245,1263.65 492.413,1263.61 494.58,1263.58 496.747,1263.54 498.914,1263.5 501.081,1263.46 503.244,1259.84 505.406,1263.38 507.569,1259.76 509.726,1259.73 511.884,1259.69 514.037,1256 516.185,1255.96 518.334,1255.92 520.482,1255.88 522.63,1255.85 524.778,1255.81 526.927,1255.77 529.07,1252.02 531.209,1251.98 533.348,1251.94 535.482,1248.12 537.611,1248.08 539.74,1248.04 541.87,1248 543.999,1247.96 546.128,1247.92 548.258,1247.88 550.382,1243.99 552.502,1243.95 554.622,1243.91 556.742,1243.87 558.857,1239.91 560.968,1239.87 563.078,1239.83 565.188,1239.79 567.299,1239.75 569.409,1239.71 571.515,1235.68 573.62,1239.63 575.726,1235.6 577.827,1235.56 579.928,1235.52 582.029,1235.48 584.13,1235.44 586.226,1231.33 588.318,1231.29 590.409,1231.25 592.501,1231.21 594.592,1231.17 596.683,1231.13 598.77,1226.95 600.852,1226.91 602.934,1226.86 605.016,1226.82 607.094,1222.57 609.166,1222.53 611.239,1222.48 613.346,1222.44 615.384,1222.4 617.456,1222.36 619.563,1222.32 621.601,1222.28 623.704,1217.94 625.767,1217.9 627.83,1217.86 629.893,1217.82 631.956,1217.78 634.019,1217.74 636.077,1213.32 638.131,1213.28 640.185,1213.24 642.238,1213.2 644.292,1213.16 646.346,1213.12 648.399,1213.07 650.453,1213.03 652.502,1208.54 654.546,1208.49 656.59,1208.45 658.634,1208.41 660.674,1203.83 662.708,1203.79 664.743,1203.75 666.778,1203.71 668.812,1203.67 670.847,1203.62 672.882,1203.58 674.916,1203.54 676.951,1203.5 678.981,1198.83 681.006,1198.79 683.032,1198.75 685.057,1198.71 687.077,1193.96 689.093,1193.92 691.109,1193.88 693.125,1193.83 695.14,1193.79 697.156,1193.75 699.167,1188.92 701.178,1193.66 703.189,1188.83 705.195,1188.79 707.202,1188.74 709.208,1188.7 711.214,1188.66 713.221,1188.62 715.227,1188.57 717.233,1188.53 719.235,1183.61 721.232,1183.56 723.229,1183.52 725.225,1183.48 727.222,1183.44 729.219,1183.39 731.216,1183.35 733.213,1183.31 735.205,1178.29 737.192,1178.25 739.18,1178.21 741.167,1178.16 743.154,1178.12 745.142,1178.08 747.129,1178.03 749.112,1172.93 751.09,1172.88 753.068,1172.84 755.045,1172.8 757.023,1172.75 759.034,1172.71 760.979,1172.67 762.952,1167.47 764.958,1172.58 766.899,1167.38 768.9,1167.33 770.836,1167.29 772.837,1167.25 774.805,1167.2 776.774,1167.16 778.742,1167.11 780.678,1167.07 782.674,1161.77 784.633,1161.73 786.592,1161.69 788.551,1161.64 790.51,1161.6 792.469,1161.55 794.428,1161.51 796.387,1161.46 798.346,1161.42 800.3,1156.03 802.255,1161.33 804.209,1155.94 806.158,1155.89 808.108,1155.85 810.057,1155.8 812.007,1155.76 813.957,1155.72 815.906,1155.67 817.851,1150.18 819.791,1150.13 821.731,1150.09 823.671,1150.04 825.611,1150 827.551,1149.95 829.491,1149.91 831.431,1149.86 833.371,1149.82 835.311,1149.77 837.251,1149.73 839.191,1149.69 841.132,1149.64 843.067,1144.04 844.997,1144 846.928,1143.95 848.859,1143.91 850.789,1143.86 852.72,1143.82 854.65,1143.77 856.576,1138.07 858.502,1143.68 860.433,1143.64 862.359,1137.94 864.28,1137.89 866.201,1137.85 868.122,1137.8 870.043,1137.75 871.964,1137.71 873.885,1137.66 875.806,1137.62 877.728,1137.57 879.649,1137.53 881.565,1131.72 883.477,1131.67 885.388,1131.63 887.3,1131.58 889.212,1131.54 891.123,1131.49 893.035,1131.45 894.947,1131.4 896.854,1125.49 898.788,1125.44 900.658,1125.39 902.56,1125.35 904.463,1125.3 906.365,1125.26 908.299,1125.21 910.169,1125.17 912.071,1125.12 914.005,1125.07 915.871,1119.05 917.8,1124.98 919.671,1124.94 921.605,1124.89 923.507,1124.84 925.377,1124.8 927.306,1118.77 929.199,1118.72 931.092,1118.68 932.985,1118.63 934.877,1118.59 936.77,1118.54 938.658,1112.4 940.546,1118.45 942.434,1112.31 944.317,1112.26 946.201,1112.22 948.084,1112.17 949.967,1112.12 951.855,1118.17 953.743,1112.03 955.626,1111.98 957.51,1111.94 959.388,1105.68 961.267,1111.85 963.145,1105.59 965.019,1105.54 966.893,1105.5 968.767,1105.45 970.641,1105.4 972.514,1105.36 974.388,1105.31 976.262,1105.26 978.136,1105.22 980.01,1105.17 981.883,1105.12 983.757,1105.08 985.631,1105.03 987.505,1104.98 989.379,1104.94 991.248,1098.56 993.112,1098.52 994.976,1098.47 996.841,1098.42 998.705,1098.38 1000.57,1098.33 1002.43,1098.28 1004.3,1098.24 1006.16,1098.19 1008.02,1091.7 1009.88,1098.1 1011.75,1098.05 1013.61,1098 1015.47,1097.95 1017.33,1091.46 1019.19,1091.41 1021.04,1091.37 1022.9,1091.32 1024.75,1091.27 1026.61,1091.22 1028.46,1091.18 1030.32,1091.13 1032.17,1091.08 1034.03,1091.04 1035.91,1090.99 1037.74,1090.94 1039.59,1090.89 1041.45,1090.85 1043.3,1084.23 1045.17,1084.18 1046.99,1090.71 1048.88,1090.66 1050.73,1084.04 1052.54,1083.99 1054.42,1083.94 1056.27,1083.9 1058.11,1083.85 1059.96,1083.8 1061.77,1083.75 1063.65,1083.71 1065.49,1083.66 1067.34,1083.61 1069.18,1076.87 1071.01,1076.82 1072.85,1076.77 1074.69,1083.42 1076.53,1076.68 1078.37,1076.63 1080.2,1076.58 1082.04,1076.53 1083.88,1076.49 1085.71,1076.44 1087.55,1076.39 1089.38,1076.34 1091.22,1076.29 1093.06,1076.25 1094.89,1076.2 1096.73,1076.15 1098.56,1076.1 1100.4,1076.06 1102.24,1076.01 1104.07,1075.96 1105.91,1075.91 1107.74,1069.04 1109.57,1068.99 1111.39,1068.94 1113.22,1068.89 1115.04,1068.85 1116.87,1068.8 1118.7,1068.75 1120.52,1068.7 1122.35,1068.65 1124.18,1068.61 1126,1061.6 1127.82,1068.51 1129.64,1061.51 1131.46,1068.41 1133.29,1061.41 1135.1,1061.36 1136.92,1061.31 1138.74,1061.27 1140.55,1061.22 1142.37,1061.17 1144.19,1061.12 1146.01,1061.07 1147.82,1061.02 1149.64,1060.98 1151.46,1060.93 1153.27,1060.88 1155.09,1060.83 1156.91,1060.78 1158.72,1060.73 1160.54,1060.68 1162.36,1060.64 1164.18,1060.59 1165.99,1060.54 1167.81,1060.49 1169.66,1060.44 1171.44,1060.39 1173.29,1060.34 1175.08,1060.3 1176.89,1060.25 1178.71,1053.11 1180.51,1053.06 1182.35,1053.01 1184.13,1052.96 1185.97,1052.91 1187.77,1052.86 1189.55,1052.81 1191.39,1045.54 1193.18,1045.49 1194.98,1045.44 1196.78,1045.39 1198.58,1045.34 1200.38,1052.52 1202.18,1045.25 1203.98,1045.2 1205.78,1045.15 1207.58,1045.1 1209.38,1045.05 1211.17,1045 1212.97,1044.95 1214.77,1044.9 1216.57,1044.85 1218.37,1044.81 1220.16,1044.76 1221.96,1044.71 1223.76,1037.29 1225.55,1044.61 1227.34,1037.2 1229.13,1037.15 1230.92,1037.1 1232.71,1037.05 1234.5,1037 1236.29,1036.95 1238.07,1036.9 1239.86,1036.85 1241.65,1036.8 1243.44,1036.75 1245.22,1029.2 1247.01,1036.65 1248.8,1036.6 1250.59,1036.56 1252.37,1036.51 1254.16,1036.46 1255.95,1036.41 1257.74,1036.36 1259.53,1036.31 1261.31,1028.75 1263.09,1028.7 1264.87,1028.65 1266.65,1028.6 1268.43,1028.55 1270.21,1028.5 1271.99,1028.45 1273.77,1028.4 1275.55,1028.36 1277.33,1028.31 1279.1,1028.26 1280.88,1028.21 1282.66,1028.16 1284.44,1028.11 1286.22,1028.06 1288,1028.01 1289.78,1027.96 1291.56,1027.91 1293.34,1027.86 1295.12,1027.81 1296.9,1027.76 1298.68,1027.71 1300.45,1027.66 1302.23,1027.61 1304.01,1027.56 1305.82,1019.85 1307.56,1019.81 1309.33,1019.76 1311.13,1019.7 1312.87,1019.66 1314.67,1019.61 1316.43,1019.56 1318.18,1019.51 1319.97,1019.46 1321.71,1011.61 1323.5,1019.36 1325.27,1019.31 1327.04,1019.26 1328.81,1019.21 1330.58,1019.16 1332.35,1019.11 1334.12,1019.06 1335.89,1019.01 1337.66,1011.15 1339.42,1011.1 1341.18,1011.05 1342.94,1011 1344.7,1010.95 1346.46,1010.9 1348.22,1010.85 1349.98,1010.8 1351.74,1010.75 1353.5,1010.7 1355.26,1010.65 1357.02,1010.6 1358.78,1010.55 1360.54,1010.5 1362.3,1010.45 1364.06,1010.4 1365.82,1010.35 1367.58,1010.3 1369.34,1010.25 1371.1,1010.2 1372.86,1010.15 1374.62,1010.1 1376.38,1010.05 1378.14,1010 1379.9,1009.95 1381.66,1009.9 1383.42,1009.85 1385.18,1009.8 1386.94,1009.75 1388.7,1009.7 1390.46,1009.65 1392.22,1009.6 1393.99,1009.54 1395.75,1009.49 1397.51,1009.44 1399.27,1009.39 1401.02,1001.38 1402.77,1001.33 1404.52,1001.28 1406.27,1001.23 1408.02,1001.18 1409.78,1001.13 1411.53,1001.08 1413.28,1001.03 1415.03,1000.98 1416.78,1000.92 1418.53,1000.87 1420.28,1000.82 1422.03,1000.77 1423.78,1000.72 1425.53,1000.67 1427.28,1000.62 1429.03,1000.57 1430.78,1000.52 1432.56,1000.47 1434.29,1000.42 1436.04,1000.37 1437.82,1000.32 1439.54,1000.27 1441.28,992.097 1443.06,1000.17 1444.78,1000.12 1446.56,991.943 1448.27,1000.01 1450.05,999.963 1451.8,991.79 1453.51,991.74 1455.28,991.688 1457.02,991.637 1458.76,991.586 1460.51,991.535 1462.25,991.484 1463.99,991.433 1465.73,991.383 1467.47,991.332 1469.21,991.281 1470.95,991.23 1472.7,991.179 1474.44,991.128 1476.18,991.077 1477.92,991.026 1479.66,990.975 1481.4,990.924 1483.14,990.873 1484.88,990.822 1486.63,990.771 1488.37,990.72 1490.11,990.669 1491.85,990.618 1493.59,990.567 1495.33,982.234 1497.06,990.466 1498.8,982.131 1500.54,990.364 1502.27,982.028 1504.01,981.977 1505.74,981.926 1507.47,981.875 1509.2,981.823 1510.93,981.772 1512.67,981.721 1514.4,981.67 1516.13,981.618 1517.86,981.567 1519.59,981.516 1521.32,981.465 1523.06,981.413 1524.79,981.362 1526.52,981.311 1528.25,981.26 1529.98,981.208 1531.72,981.157 1533.45,981.106 1535.17,972.609 1536.9,972.558 1538.62,980.952 1540.35,972.454 1542.07,972.403 1543.8,972.351 1545.52,980.748 1547.25,972.248 1548.97,972.196 1550.7,972.145 1552.42,972.093 1554.14,972.042 1555.86,971.99 1557.61,971.938 1559.31,971.887 1561.03,971.836 1562.75,971.784 1564.47,971.732 1566.23,971.68 1567.92,971.629 1569.64,971.578 1571.39,971.525 1573.09,971.474 1574.84,971.422 1576.56,971.37 1578.25,971.32 1580,971.267 1581.73,971.216 1583.44,962.551 1585.16,971.113 1586.88,962.447 1588.59,962.395 1590.31,970.958 1592.03,970.907 1593.75,962.239 1595.46,962.187 1597.18,962.135 1598.89,962.083 1600.61,970.65 1602.32,961.979 1604.04,961.927 1605.75,961.875 1607.46,961.824 1609.18,961.772 1610.89,961.72 1612.6,961.668 1614.32,961.616 1616.03,961.564 1617.74,961.512 1619.45,961.46 1621.17,961.408 1622.88,961.356 1624.59,961.304 1626.31,961.252 1628.02,961.201 1629.73,961.149 1631.44,961.097 1633.16,961.045 1634.87,960.993 1636.58,960.941 1638.29,952.102 1639.99,952.05 1641.7,960.785 1643.41,951.946 1645.11,951.893 1646.82,951.841 1648.52,951.789 1650.23,951.737 1651.93,951.685 1653.63,951.632 1655.34,951.58 1657.04,951.528 1658.74,951.476 1660.45,951.423 1662.15,951.371 1663.85,951.319 1665.56,951.267 1667.26,951.214 1668.96,951.162 1670.67,951.11 1672.37,951.058 1674.07,951.005 1675.78,950.953 1677.48,950.901 1679.18,950.849 1680.89,950.796 1682.59,950.744 1684.29,950.692 1686,950.639 1687.7,950.587 1689.43,950.534 1691.11,950.483 "/>
<polyline clip-path="url(#clip202)" style="stroke:#3da44d; stroke-linecap:round; stroke-linejoin:round; stroke-width:4; stroke-opacity:1; fill:none" points="263.091,1382.15 263.607,1384.24 264.161,1372.66 264.748,1368.74 265.368,1358.77 266.02,1355.91 266.707,1347.13 267.426,1345.01 268.178,1337.15 268.959,1329.67 269.768,1322.54 270.606,1315.71 271.472,1309.16 272.371,1308.66 273.303,1302.55 274.268,1302.24 275.267,1296.5 276.293,1290.92 277.349,1285.49 278.437,1285.58 279.558,1280.4 280.708,1275.32 281.891,1275.58 283.112,1275.8 284.366,1270.99 285.648,1266.26 286.964,1266.59 288.312,1261.99 289.717,1262.43 291.109,1257.86 292.557,1258.22 294.063,1253.91 295.552,1254.19 297.126,1249.97 298.68,1250.25 300.294,1246.02 301.968,1246.46 303.621,1242.2 305.363,1242.64 307.114,1242.95 308.873,1243.16 310.726,1239.16 312.586,1243.69 314.494,1247.99 316.449,1252.08 318.447,1252.11 320.482,1252.11 322.56,1255.87 324.686,1259.4 326.829,1255.69 328.968,1255.65 331.102,1251.87 333.231,1251.83 335.361,1251.79 337.49,1251.75 339.619,1251.71 341.744,1247.86 343.864,1247.82 345.979,1243.9 348.089,1243.86 350.2,1243.82 352.305,1239.83 354.411,1243.75 356.517,1239.75 358.618,1239.72 360.714,1235.65 362.805,1235.61 364.897,1235.57 366.984,1231.44 369.066,1231.4 371.148,1231.36 373.23,1231.32 375.312,1231.28 377.389,1227.07 379.461,1227.03 381.534,1226.99 383.602,1222.7 385.665,1222.66 387.723,1218.29 389.782,1222.58 391.84,1218.21 393.894,1218.17 395.947,1218.13 398.001,1218.09 400.054,1218.05 402.103,1213.6 404.143,1209.08 406.182,1213.52 408.226,1213.48 410.266,1208.96 412.3,1208.92 414.335,1208.87 416.37,1208.83 418.405,1208.79 420.434,1204.18 422.455,1199.49 424.475,1204.1 426.496,1199.41 428.512,1199.37 430.527,1199.33 432.543,1199.28 434.559,1199.24 436.575,1199.2 438.586,1194.42 440.592,1194.38 442.598,1194.34 444.638,1194.3 446.611,1194.26 448.651,1194.21 450.619,1189.35 452.616,1189.31 454.646,1189.26 456.61,1189.22 458.64,1189.18 460.632,1184.23 462.586,1184.18 464.606,1184.14 466.589,1179.1 468.567,1179.05 470.545,1179.01 472.518,1173.88 474.487,1173.83 476.46,1178.88 478.438,1178.84 480.411,1173.7 482.379,1173.66 484.348,1173.62 486.316,1173.58 488.285,1173.53 490.253,1173.49 492.222,1173.45 494.185,1168.21 496.144,1168.17 498.103,1168.13 500.062,1168.08 502.021,1168.04 503.975,1162.71 505.93,1167.95 507.884,1162.63 509.833,1162.58 511.778,1157.16 513.718,1157.12 515.658,1157.07 517.598,1157.03 519.538,1156.98 521.479,1156.94 523.414,1151.42 525.344,1151.37 527.275,1151.33 529.206,1151.28 531.136,1151.24 533.067,1151.2 534.997,1151.15 536.928,1151.11 538.854,1145.48 540.775,1145.44 542.696,1145.39 544.617,1145.35 546.538,1145.3 548.455,1139.58 550.366,1139.53 552.278,1139.49 554.19,1139.44 556.101,1139.4 558.013,1139.35 559.925,1139.31 561.836,1139.26 563.743,1133.43 565.65,1139.17 567.562,1139.13 569.469,1133.29 571.371,1133.25 573.273,1133.2 575.171,1127.26 577.064,1127.21 578.956,1127.17 580.849,1127.12 582.742,1127.08 584.634,1127.03 586.554,1120.98 588.406,1120.94 590.289,1120.89 592.204,1120.84 594.056,1120.8 595.97,1120.75 597.854,1120.71 599.737,1120.66 601.615,1114.5 603.494,1120.57 605.372,1114.4 607.246,1114.36 609.12,1114.31 610.994,1114.27 612.868,1114.22 614.742,1114.18 616.615,1114.13 618.484,1107.85 620.349,1107.8 622.213,1107.76 624.077,1107.71 625.937,1101.32 627.792,1101.27 629.652,1107.57 631.511,1101.18 633.366,1101.13 635.221,1101.09 637.076,1101.04 638.931,1100.99 640.786,1100.95 642.64,1100.9 644.495,1100.85 646.35,1100.81 648.2,1094.29 650.046,1094.24 651.891,1094.2 653.737,1094.15 655.577,1087.52 657.413,1087.47 659.249,1087.42 661.085,1087.38 662.921,1087.33 664.757,1087.28 666.593,1087.23 668.429,1087.19 670.265,1087.14 672.101,1087.09 673.932,1080.33 675.759,1080.29 677.585,1080.24 679.412,1080.19 681.238,1080.15 683.065,1080.1 684.886,1073.21 686.703,1073.16 688.52,1073.12 690.337,1073.07 692.155,1073.02 693.972,1072.98 695.789,1072.93 697.606,1072.88 699.423,1072.83 701.24,1072.79 703.057,1072.74 704.874,1072.69 706.691,1072.64 708.508,1072.6 710.325,1072.55 712.142,1072.5 713.959,1072.45 715.776,1072.41 717.588,1065.39 719.426,1065.34 721.203,1065.29 723.011,1065.25 724.849,1065.2 726.626,1065.15 728.464,1065.1 730.236,1057.95 732.06,1050.67 733.853,1057.86 735.651,1057.81 737.449,1057.76 739.217,1057.71 741.041,1050.43 742.829,1050.38 744.618,1050.33 746.407,1050.29 748.191,1042.87 749.97,1042.82 751.749,1042.77 753.528,1042.72 755.307,1042.67 757.086,1042.63 758.866,1042.58 760.645,1042.53 762.424,1042.48 764.203,1042.43 765.982,1042.38 767.761,1042.34 769.541,1042.29 771.32,1042.24 773.099,1042.19 774.878,1042.14 776.657,1042.09 778.436,1042.05 780.216,1042 781.99,1034.44 783.76,1034.39 785.53,1034.34 787.299,1034.29 789.069,1034.24 790.834,1026.54 792.594,1026.49 794.359,1034.1 796.129,1034.05 797.894,1026.34 799.654,1026.29 801.414,1026.24 803.175,1026.2 804.935,1026.15 806.695,1026.1 808.455,1026.05 810.216,1026 811.976,1025.95 813.736,1025.9 815.492,1018.05 817.238,1010.06 818.984,1017.95 820.734,1017.91 822.485,1017.86 824.236,1017.81 825.987,1017.76 827.738,1017.71 829.484,1009.71 831.225,1009.66 832.966,1009.61 834.708,1009.56 836.449,1009.51 838.19,1009.46 839.927,1001.32 841.663,1009.37 843.405,1009.32 845.141,1001.17 846.902,1001.12 848.605,1001.07 850.337,1001.02 852.073,1009.07 853.815,1009.02 855.585,1008.97 857.288,992.568 859.015,1000.77 860.776,1000.72 862.479,1000.67 864.24,1000.62 865.943,1000.57 867.708,1008.63 869.445,1000.47 871.148,1000.42 872.904,992.115 874.626,992.065 876.348,992.015 878.071,991.965 879.793,991.915 881.516,991.865 883.238,991.815 884.96,991.766 886.683,991.716 888.405,991.666 890.128,991.616 891.85,991.566 893.572,991.516 895.295,991.466 897.017,991.416 898.74,991.366 900.462,991.315 902.184,991.265 903.907,991.215 905.629,991.165 907.347,982.697 909.06,982.647 910.777,991.016 912.495,982.546 914.208,982.496 915.921,982.446 917.629,973.819 919.337,982.346 921.05,982.295 922.758,973.667 924.462,973.617 926.165,973.566 927.869,973.516 929.572,973.465 931.28,981.995 932.989,973.364 934.697,981.895 936.41,981.844 938.123,981.794 939.836,981.744 941.549,981.693 943.261,981.643 944.974,981.593 946.687,981.542 948.4,981.492 950.113,981.442 951.821,972.805 953.525,972.754 955.228,972.704 956.932,972.653 958.635,972.603 960.339,972.552 962.042,972.501 963.746,972.451 965.449,972.4 967.153,972.35 968.856,972.299 970.559,972.248 972.291,972.197 973.966,972.147 975.67,972.096 977.369,963.293 979.063,963.242 980.785,963.191 982.451,963.141 984.173,963.089 985.867,963.038 987.533,962.988 989.26,971.692 990.958,962.885 992.652,962.834 994.346,962.783 996.012,962.733 997.734,962.682 999.428,962.631 1001.12,962.58 1002.82,962.529 1004.51,962.478 1006.2,962.427 1007.9,962.376 1009.59,962.325 1011.28,953.35 1012.97,953.299 1014.65,953.247 1016.34,953.196 1018.02,962.072 1019.71,953.094 1021.4,953.042 1023.08,952.991 1024.77,952.94 1026.46,961.818 1028.15,952.838 1029.83,952.786 1031.52,952.735 1033.2,952.684 1034.88,952.633 1036.57,952.582 1038.25,943.432 1039.92,943.381 1041.6,943.329 1043.27,943.278 1044.95,943.226 1046.62,943.175 1048.3,943.124 1049.97,943.072 1051.65,943.021 1053.33,952.072 1055.01,942.918 1056.68,942.866 1058.36,942.815 1060.03,942.763 1061.71,942.712 1063.39,951.766 1065.07,942.609 1066.74,942.557 1068.42,942.506 1070.09,942.454 1071.77,942.403 1073.44,942.351 1075.12,942.3 1076.79,942.248 1078.47,942.197 1080.14,942.145 1081.82,942.094 1083.49,942.042 1085.17,941.991 1086.84,941.939 1088.52,941.888 1090.19,941.836 1091.87,941.784 1093.54,932.449 1095.23,932.396 1096.87,932.346 1098.56,932.293 1100.2,932.242 1101.87,932.19 1103.53,932.138 1105.19,922.627 1106.88,922.574 1108.51,922.523 1110.19,922.47 1111.85,931.88 1113.48,922.366 1115.17,922.314 1116.82,922.262 1118.48,922.21 1120.14,922.157 1121.79,922.105 1123.45,931.519 1125.12,931.467 1126.79,931.415 1128.45,921.897 1130.1,921.844 1131.76,921.792 1133.41,921.74 1135.07,921.688 1136.73,921.636 1138.38,911.938 1140.02,911.885 1141.67,911.833 1143.32,921.429 1144.97,911.728 1146.62,911.676 1148.27,921.273 1149.92,911.571 1151.57,911.519 1153.22,911.467 1154.86,911.414 1156.51,911.362 1158.16,911.31 1159.8,911.257 1161.45,901.372 1163.08,901.319 1164.73,911.101 1166.37,911.049 1168.02,910.996 1169.67,910.944 1171.31,910.892 1172.96,910.839 1174.61,910.787 1176.25,910.735 1177.9,910.682 1179.55,910.63 1181.19,910.578 1182.83,900.685 1184.47,900.632 1186.11,900.58 1187.75,900.527 1189.39,910.317 1191.03,900.422 1192.67,900.369 1194.3,900.317 1195.94,900.264 1197.58,900.211 1199.21,890.13 1200.84,900.106 1202.48,900.054 1204.12,900.001 1205.75,899.949 1207.39,899.896 1209.03,899.843 1210.67,899.791 1212.3,899.738 1213.94,899.685 1215.58,899.633 1217.22,899.58 1218.85,899.527 1220.52,899.474 1222.12,889.386 1223.75,899.37 1225.41,889.279 1227.02,889.227 1228.67,889.173 1230.3,889.12 1231.9,889.068 1233.55,889.014 1235.15,878.734 1236.8,888.909 1238.43,888.856 1240.05,888.803 1241.68,888.75 1243.31,888.697 1244.94,898.688 1246.58,898.635 1248.22,898.582 1249.85,898.53 1251.49,898.477 1253.13,898.424 1254.76,888.325 1256.39,888.272 1258.02,888.219 1259.64,888.166 1261.28,898.162 1262.91,898.109 1264.55,888.007 1266.17,887.954 1267.8,887.901 1269.43,887.848 1271.06,887.795 1272.69,887.742 1274.31,887.689 1275.94,887.636 1277.57,887.583 1279.2,887.53 1280.82,887.477 1282.45,887.424 1284.08,887.371 1285.71,887.318 1287.34,887.265 1288.96,887.212 1290.59,887.159 1292.22,887.106 1293.85,887.053 1295.47,876.752 1297.09,886.947 1298.72,886.894 1300.35,886.841 1301.98,886.788 1303.6,886.735 1305.23,886.682 1306.86,886.629 1308.49,886.575 1310.11,886.522 1311.74,886.469 1313.37,886.416 1314.99,876.11 1316.62,886.31 1318.24,886.257 1319.87,875.949 1321.49,875.896 1323.1,875.843 1324.72,875.789 1326.34,875.736 1327.96,875.683 1329.58,875.629 1331.2,885.835 1332.83,885.781 1334.45,875.469 1336.07,885.676 1337.72,875.361 1339.31,875.309 1340.93,875.255 1342.58,875.201 1344.17,875.149 1345.79,875.095 1347.43,875.041 1349.02,874.988 1350.67,874.934 1352.26,874.882 1353.91,874.827 1355.52,874.774 1357.12,874.722 1358.76,864.208 1360.37,864.155 1361.97,864.101 1363.58,864.047 1365.19,863.994 1366.8,863.94 1368.41,863.887 1370.02,863.833 1371.63,863.779 1373.24,863.726 1374.84,863.672 1376.45,863.618 1378.06,863.565 1379.67,863.511 1381.28,863.458 1382.89,863.404 1384.5,863.35 1386.11,863.297 1387.72,863.243 1389.33,873.658 1390.94,863.135 1392.55,863.082 1394.16,863.028 1395.77,862.974 1397.38,862.921 1398.99,862.867 1400.6,862.813 1402.21,873.233 1403.82,862.706 1405.43,862.652 1407.04,862.598 1408.64,851.873 1410.25,862.491 1411.86,862.437 1413.47,862.384 1415.07,862.33 1416.68,851.602 1418.28,851.548 1419.88,851.494 1421.48,851.441 1423.08,851.387 1424.68,862.009 1426.28,851.278 1427.89,861.902 1429.49,851.17 1431.1,861.795 1432.71,861.741 1434.31,861.687 1435.92,850.953 1437.52,861.58 1439.13,850.845 1440.73,850.791 1442.33,861.419 1443.94,861.366 1445.55,861.312 1447.16,861.258 1448.76,850.52 1450.36,850.466 1451.96,850.412 1453.59,861.043 1455.17,850.304 1456.77,850.25 1458.37,850.196 1459.97,850.142 1461.59,850.087 1463.16,850.034 1464.76,849.98 1466.39,839.034 1467.95,849.872 1469.58,849.817 1471.18,849.763 1472.75,849.71 1474.38,849.655 1475.98,849.601 1477.58,849.547 1479.18,849.493 1480.77,849.439 1482.37,849.385 1483.97,849.33 1485.58,859.973 1487.18,849.222 1488.78,849.168 1490.38,849.114 1491.98,849.06 1493.58,849.006 1495.18,848.952 1496.77,837.997 1498.36,837.943 1499.95,837.888 1501.54,837.834 1503.14,848.682 1504.73,837.725 1506.32,837.671 1507.91,837.617 1509.5,837.562 1511.09,837.508 1512.68,837.454 1514.27,837.399 1515.86,837.345 1517.45,837.291 1519.05,848.144 1520.64,837.182 1522.23,837.127 1523.82,837.073 1525.41,837.018 1527,836.964 1528.59,836.91 1530.18,836.855 1531.77,836.801 1533.36,836.747 1534.95,836.692 1536.54,836.638 1538.13,836.583 1539.72,836.529 1541.31,836.475 1542.9,836.42 1544.49,836.366 1546.08,836.311 1547.67,836.257 1549.26,836.203 1550.85,836.148 1552.44,836.094 1554.02,824.915 1555.61,835.985 1557.2,835.931 1558.78,824.751 1560.37,835.822 1561.96,835.768 1563.55,835.713 1565.14,835.659 1566.73,835.604 1568.32,835.55 1569.91,835.496 1571.5,835.441 1573.08,824.256 1574.66,824.202 1576.28,835.277 1577.83,824.092 1579.41,824.037 1581.02,823.982 1582.58,823.928 1584.18,823.872 1585.74,823.819 1587.32,823.764 1588.92,823.708 1590.48,823.654 1592.08,823.599 1593.67,823.544 1595.25,823.489 1596.83,823.435 1598.41,823.38 1599.99,834.464 1601.58,834.41 1603.17,834.355 1604.76,823.16 1606.34,834.247 1607.93,834.192 1609.52,822.995 1611.1,822.94 1612.68,834.029 1614.27,833.974 1615.86,822.775 1617.44,822.721 1619.02,822.666 1620.6,822.611 1622.18,822.556 1623.76,822.502 1625.34,822.447 1626.92,822.392 1628.5,822.337 1630.08,810.924 1631.65,822.228 1633.23,822.173 1634.81,822.118 1636.39,822.064 1637.97,822.009 1639.55,821.954 1641.14,821.899 1642.71,810.481 1644.29,821.79 1645.87,821.735 1647.44,810.316 1649.02,821.626 1650.59,810.205 1652.17,821.516 1653.75,821.461 1655.33,810.04 1656.9,809.984 1658.47,809.929 1660.04,809.874 1661.61,821.188 1663.19,809.764 1664.76,809.709 1666.33,809.654 1667.9,809.599 1669.47,809.544 1671.05,809.489 1672.62,809.433 1674.19,809.378 1675.76,809.323 1677.33,809.268 1678.9,809.213 1680.47,809.158 1682.04,809.103 1683.61,797.457 1685.17,808.993 1686.75,808.938 1688.31,797.291 1689.87,797.235 1691.43,797.18 1693.02,797.124 1694.56,797.069 1696.12,797.014 1697.71,796.958 1699.24,796.903 1700.8,796.848 1702.39,796.792 1703.93,796.737 1705.51,796.681 1707.08,796.626 1708.64,796.57 1710.2,796.515 1711.76,796.46 1713.32,796.404 1714.88,796.349 1716.44,784.473 1718,796.238 1719.56,796.183 1721.12,784.305 1722.67,796.073 1724.23,784.194 1725.78,784.138 1727.33,784.083 1728.88,784.027 1730.44,783.972 1731.99,783.916 1733.54,783.86 1735.09,783.805 1736.64,771.698 1738.19,783.694 1739.74,783.638 1741.29,783.583 1742.84,783.527 1744.4,783.472 1745.94,771.362 1747.49,771.306 1749.03,783.305 1750.58,771.194 1752.12,771.138 1753.67,783.139 1755.22,783.083 1756.77,770.97 1758.32,782.972 1759.87,782.917 1761.42,770.802 1762.96,770.746 1764.5,770.69 1766.04,770.634 1767.59,770.578 1769.13,770.522 1770.67,770.466 1772.21,770.411 1773.76,770.355 1775.3,770.299 1776.84,770.243 1778.38,770.187 1779.93,770.131 1781.47,770.075 1783.01,770.019 1784.55,769.963 1786.09,757.611 1787.63,769.852 1789.17,769.796 1790.72,769.74 1792.26,769.684 1793.8,769.628 1795.34,769.572 1796.88,757.216 1798.41,757.16 1799.94,744.569 1801.47,744.512 1802.99,744.456 1804.54,744.399 1806.04,744.344 1807.56,744.287 1809.11,744.23 1810.61,744.175 1812.13,744.118 1813.68,731.282 1815.2,744.005 1816.69,743.95 1818.24,731.112 1819.75,731.056 1821.27,730.999 1822.78,730.943 1824.29,730.886 1825.81,743.612 1827.31,743.557 1828.85,717.688 1830.36,717.631 1831.86,717.574 1833.37,717.518 1834.87,730.491 1836.38,717.404 1837.89,717.347 1839.4,730.322 1840.91,730.265 1842.43,730.209 1843.94,730.152 1845.46,730.096 1846.97,730.039 1848.48,729.982 1850,729.926 1851.51,729.869 1853.03,729.813 1854.54,729.756 1856.05,716.662 1857.55,716.605 "/>
<polyline clip-path="url(#clip202)" style="stroke:#c271d2; stroke-linecap:round; stroke-linejoin:round; stroke-width:4; stroke-opacity:1; fill:none" points="263.091,1320.42 283.584,1308.76 304.077,1297.31 324.57,1286.08 345.063,1275.06 365.556,1264.24 386.049,1253.61 406.542,1243.17 427.035,1232.92 447.528,1222.85 468.021,1212.96 488.514,1203.23 509.007,1193.68 529.5,1184.28 549.993,1175.05 570.485,1165.97 590.978,1157.04 611.471,1148.25 631.964,1139.61 652.457,1131.11 672.95,1122.75 693.443,1114.52 713.936,1106.42 734.429,1098.45 754.922,1090.6 775.415,1082.87 795.908,1075.26 816.401,1067.77 836.894,1060.39 857.387,1053.12 877.879,1045.96 898.372,1038.9 918.865,1031.95 939.358,1025.1 959.851,1018.34 980.344,1011.69 1000.84,1005.12 1021.33,998.656 1041.82,992.278 1062.32,985.989 1082.81,979.787 1103.3,973.671 1123.79,967.637 1144.29,961.686 1164.78,955.814 1185.27,950.022 1205.77,944.306 1226.26,938.665 1246.75,933.099 1267.25,927.605 1287.74,922.182 1308.23,916.829 1328.72,911.544 1349.22,906.327 1369.71,901.175 1390.2,896.087 1410.7,891.064 1431.19,886.102 1451.68,881.201 1472.17,876.361 1492.67,871.579 1513.16,866.855 1533.65,862.187 1554.15,857.576 1574.64,853.019 1595.13,848.516 1615.63,844.066 1636.12,839.667 1656.61,835.32 1677.1,831.022 1697.6,826.774 1718.09,822.575 1738.58,818.422 1759.08,814.317 1779.57,810.258 1800.06,806.244 1820.55,802.274 1841.05,798.348 1861.54,794.465 1882.03,790.625 1902.53,786.826 1923.02,783.068 1943.51,779.35 1964,775.672 1984.5,772.033 2004.99,768.432 2025.48,764.869 2045.98,761.343 2066.47,757.854 2086.96,754.401 2107.46,750.984 2127.95,747.601 2148.44,744.253 2168.93,740.939 2189.43,737.658 2209.92,734.41 2230.41,731.195 2250.91,728.011 2271.4,724.859 2291.89,721.738 "/>
<path clip-path="url(#clip200)" d="M1698.09 352.309 L2281.07 352.309 L2281.07 93.1086 L1698.09 93.1086  Z" fill="#ffffff" fill-rule="evenodd" fill-opacity="1"/>
<polyline clip-path="url(#clip200)" style="stroke:#000000; stroke-linecap:round; stroke-linejoin:round; stroke-width:4; stroke-opacity:1; fill:none" points="1698.09,352.309 2281.07,352.309 2281.07,93.1086 1698.09,93.1086 1698.09,352.309 "/>
<polyline clip-path="url(#clip200)" style="stroke:#009af9; stroke-linecap:round; stroke-linejoin:round; stroke-width:4; stroke-opacity:1; fill:none" points="1721.98,144.949 1865.35,144.949 "/>
<path clip-path="url(#clip200)" d="M1889.25 127.669 L1918.48 127.669 L1918.48 131.604 L1906.21 131.604 L1906.21 162.229 L1901.51 162.229 L1901.51 131.604 L1889.25 131.604 L1889.25 127.669 Z" fill="#000000" fill-rule="nonzero" fill-opacity="1" /><path clip-path="url(#clip200)" d="M1924.22 158.293 L1931.86 158.293 L1931.86 131.928 L1923.55 133.595 L1923.55 129.335 L1931.82 127.669 L1936.49 127.669 L1936.49 158.293 L1944.13 158.293 L1944.13 162.229 L1924.22 162.229 L1924.22 158.293 Z" fill="#000000" fill-rule="nonzero" fill-opacity="1" /><polyline clip-path="url(#clip200)" style="stroke:#e26f46; stroke-linecap:round; stroke-linejoin:round; stroke-width:4; stroke-opacity:1; fill:none" points="1721.98,196.789 1865.35,196.789 "/>
<path clip-path="url(#clip200)" d="M1889.25 179.509 L1918.48 179.509 L1918.48 183.444 L1906.21 183.444 L1906.21 214.069 L1901.51 214.069 L1901.51 183.444 L1889.25 183.444 L1889.25 179.509 Z" fill="#000000" fill-rule="nonzero" fill-opacity="1" /><path clip-path="url(#clip200)" d="M1927.44 210.133 L1943.76 210.133 L1943.76 214.069 L1921.82 214.069 L1921.82 210.133 Q1924.48 207.379 1929.06 202.749 Q1933.67 198.096 1934.85 196.754 Q1937.09 194.231 1937.97 192.495 Q1938.88 190.735 1938.88 189.046 Q1938.88 186.291 1936.93 184.555 Q1935.01 182.819 1931.91 182.819 Q1929.71 182.819 1927.26 183.583 Q1924.82 184.347 1922.05 185.897 L1922.05 181.175 Q1924.87 180.041 1927.32 179.462 Q1929.78 178.884 1931.82 178.884 Q1937.19 178.884 1940.38 181.569 Q1943.57 184.254 1943.57 188.745 Q1943.57 190.874 1942.76 192.796 Q1941.98 194.694 1939.87 197.286 Q1939.29 197.958 1936.19 201.175 Q1933.09 204.37 1927.44 210.133 Z" fill="#000000" fill-rule="nonzero" fill-opacity="1" /><polyline clip-path="url(#clip200)" style="stroke:#3da44d; stroke-linecap:round; stroke-linejoin:round; stroke-width:4; stroke-opacity:1; fill:none" points="1721.98,248.629 1865.35,248.629 "/>
<path clip-path="url(#clip200)" d="M1889.25 231.349 L1918.48 231.349 L1918.48 235.284 L1906.21 235.284 L1906.21 265.909 L1901.51 265.909 L1901.51 235.284 L1889.25 235.284 L1889.25 231.349 Z" fill="#000000" fill-rule="nonzero" fill-opacity="1" /><path clip-path="url(#clip200)" d="M1937.58 247.274 Q1940.94 247.992 1942.81 250.261 Q1944.71 252.529 1944.71 255.862 Q1944.71 260.978 1941.19 263.779 Q1937.67 266.58 1931.19 266.58 Q1929.01 266.58 1926.7 266.14 Q1924.41 265.723 1921.95 264.867 L1921.95 260.353 Q1923.9 261.487 1926.21 262.066 Q1928.53 262.645 1931.05 262.645 Q1935.45 262.645 1937.74 260.909 Q1940.06 259.173 1940.06 255.862 Q1940.06 252.807 1937.9 251.094 Q1935.77 249.358 1931.95 249.358 L1927.93 249.358 L1927.93 245.515 L1932.14 245.515 Q1935.59 245.515 1937.42 244.149 Q1939.25 242.761 1939.25 240.168 Q1939.25 237.506 1937.35 236.094 Q1935.47 234.659 1931.95 234.659 Q1930.03 234.659 1927.83 235.075 Q1925.64 235.492 1923 236.372 L1923 232.205 Q1925.66 231.464 1927.97 231.094 Q1930.31 230.724 1932.37 230.724 Q1937.7 230.724 1940.8 233.154 Q1943.9 235.562 1943.9 239.682 Q1943.9 242.552 1942.26 244.543 Q1940.61 246.511 1937.58 247.274 Z" fill="#000000" fill-rule="nonzero" fill-opacity="1" /><polyline clip-path="url(#clip200)" style="stroke:#c271d2; stroke-linecap:round; stroke-linejoin:round; stroke-width:4; stroke-opacity:1; fill:none" points="1721.98,300.469 1865.35,300.469 "/>
<path clip-path="url(#clip200)" d="M1893.92 281.626 L1893.92 308.501 L1899.57 308.501 Q1906.72 308.501 1910.03 305.26 Q1913.37 302.02 1913.37 295.029 Q1913.37 288.084 1910.03 284.867 Q1906.72 281.626 1899.57 281.626 L1893.92 281.626 M1889.25 277.784 L1898.85 277.784 Q1908.9 277.784 1913.6 281.973 Q1918.3 286.14 1918.3 295.029 Q1918.3 303.964 1913.58 308.154 Q1908.85 312.344 1898.85 312.344 L1889.25 312.344 L1889.25 277.784 Z" fill="#000000" fill-rule="nonzero" fill-opacity="1" /><path clip-path="url(#clip200)" d="M1925.57 286.418 L1929.82 286.418 L1929.82 312.344 L1925.57 312.344 L1925.57 286.418 M1925.57 276.325 L1929.82 276.325 L1929.82 281.719 L1925.57 281.719 L1925.57 276.325 Z" fill="#000000" fill-rule="nonzero" fill-opacity="1" /><path clip-path="url(#clip200)" d="M1953.76 290.399 Q1953.04 289.983 1952.19 289.797 Q1951.35 289.589 1950.33 289.589 Q1946.72 289.589 1944.78 291.95 Q1942.86 294.288 1942.86 298.686 L1942.86 312.344 L1938.57 312.344 L1938.57 286.418 L1942.86 286.418 L1942.86 290.446 Q1944.2 288.084 1946.35 286.95 Q1948.51 285.793 1951.58 285.793 Q1952.02 285.793 1952.56 285.862 Q1953.09 285.909 1953.74 286.024 L1953.76 290.399 Z" fill="#000000" fill-rule="nonzero" fill-opacity="1" /><path clip-path="url(#clip200)" d="M1979.36 298.316 L1979.36 300.399 L1959.78 300.399 Q1960.06 304.797 1962.42 307.112 Q1964.8 309.404 1969.04 309.404 Q1971.49 309.404 1973.78 308.802 Q1976.1 308.2 1978.37 306.996 L1978.37 311.024 Q1976.07 311.996 1973.67 312.506 Q1971.26 313.015 1968.78 313.015 Q1962.58 313.015 1958.95 309.404 Q1955.33 305.793 1955.33 299.635 Q1955.33 293.27 1958.76 289.543 Q1962.21 285.793 1968.04 285.793 Q1973.27 285.793 1976.31 289.172 Q1979.36 292.529 1979.36 298.316 M1975.1 297.066 Q1975.06 293.571 1973.13 291.487 Q1971.24 289.404 1968.09 289.404 Q1964.52 289.404 1962.37 291.418 Q1960.24 293.432 1959.92 297.089 L1975.1 297.066 Z" fill="#000000" fill-rule="nonzero" fill-opacity="1" /><path clip-path="url(#clip200)" d="M2005.01 287.413 L2005.01 291.395 Q2003.2 290.399 2001.38 289.913 Q1999.57 289.404 1997.72 289.404 Q1993.57 289.404 1991.28 292.043 Q1988.99 294.659 1988.99 299.404 Q1988.99 304.149 1991.28 306.788 Q1993.57 309.404 1997.72 309.404 Q1999.57 309.404 2001.38 308.918 Q2003.2 308.408 2005.01 307.413 L2005.01 311.348 Q2003.23 312.182 2001.31 312.598 Q1999.41 313.015 1997.26 313.015 Q1991.4 313.015 1987.95 309.334 Q1984.5 305.654 1984.5 299.404 Q1984.5 293.061 1987.97 289.427 Q1991.47 285.793 1997.53 285.793 Q1999.5 285.793 2001.38 286.21 Q2003.25 286.603 2005.01 287.413 Z" fill="#000000" fill-rule="nonzero" fill-opacity="1" /><path clip-path="url(#clip200)" d="M2016.63 279.057 L2016.63 286.418 L2025.4 286.418 L2025.4 289.728 L2016.63 289.728 L2016.63 303.802 Q2016.63 306.973 2017.49 307.876 Q2018.37 308.779 2021.03 308.779 L2025.4 308.779 L2025.4 312.344 L2021.03 312.344 Q2016.1 312.344 2014.22 310.515 Q2012.35 308.663 2012.35 303.802 L2012.35 289.728 L2009.22 289.728 L2009.22 286.418 L2012.35 286.418 L2012.35 279.057 L2016.63 279.057 Z" fill="#000000" fill-rule="nonzero" fill-opacity="1" /><path clip-path="url(#clip200)" d="M2059.2 276.325 L2059.2 279.867 L2055.13 279.867 Q2052.83 279.867 2051.93 280.793 Q2051.05 281.719 2051.05 284.126 L2051.05 286.418 L2058.07 286.418 L2058.07 289.728 L2051.05 289.728 L2051.05 312.344 L2046.77 312.344 L2046.77 289.728 L2042.69 289.728 L2042.69 286.418 L2046.77 286.418 L2046.77 284.612 Q2046.77 280.284 2048.78 278.316 Q2050.8 276.325 2055.17 276.325 L2059.2 276.325 Z" fill="#000000" fill-rule="nonzero" fill-opacity="1" /><path clip-path="url(#clip200)" d="M2062.76 286.418 L2067.02 286.418 L2067.02 312.344 L2062.76 312.344 L2062.76 286.418 M2062.76 276.325 L2067.02 276.325 L2067.02 281.719 L2062.76 281.719 L2062.76 276.325 Z" fill="#000000" fill-rule="nonzero" fill-opacity="1" /><path clip-path="url(#clip200)" d="M2080.15 279.057 L2080.15 286.418 L2088.92 286.418 L2088.92 289.728 L2080.15 289.728 L2080.15 303.802 Q2080.15 306.973 2081 307.876 Q2081.88 308.779 2084.55 308.779 L2088.92 308.779 L2088.92 312.344 L2084.55 312.344 Q2079.62 312.344 2077.74 310.515 Q2075.87 308.663 2075.87 303.802 L2075.87 289.728 L2072.74 289.728 L2072.74 286.418 L2075.87 286.418 L2075.87 279.057 L2080.15 279.057 Z" fill="#000000" fill-rule="nonzero" fill-opacity="1" /><path clip-path="url(#clip200)" d="M2113.81 279.057 L2113.81 286.418 L2122.58 286.418 L2122.58 289.728 L2113.81 289.728 L2113.81 303.802 Q2113.81 306.973 2114.66 307.876 Q2115.54 308.779 2118.2 308.779 L2122.58 308.779 L2122.58 312.344 L2118.2 312.344 Q2113.27 312.344 2111.4 310.515 Q2109.52 308.663 2109.52 303.802 L2109.52 289.728 L2106.4 289.728 L2106.4 286.418 L2109.52 286.418 L2109.52 279.057 L2113.81 279.057 Z" fill="#000000" fill-rule="nonzero" fill-opacity="1" /><path clip-path="url(#clip200)" d="M2138.23 289.404 Q2134.8 289.404 2132.81 292.089 Q2130.82 294.751 2130.82 299.404 Q2130.82 304.057 2132.79 306.742 Q2134.78 309.404 2138.23 309.404 Q2141.63 309.404 2143.62 306.719 Q2145.61 304.033 2145.61 299.404 Q2145.61 294.797 2143.62 292.112 Q2141.63 289.404 2138.23 289.404 M2138.23 285.793 Q2143.78 285.793 2146.95 289.404 Q2150.12 293.015 2150.12 299.404 Q2150.12 305.77 2146.95 309.404 Q2143.78 313.015 2138.23 313.015 Q2132.65 313.015 2129.48 309.404 Q2126.33 305.77 2126.33 299.404 Q2126.33 293.015 2129.48 289.404 Q2132.65 285.793 2138.23 285.793 Z" fill="#000000" fill-rule="nonzero" fill-opacity="1" /><path clip-path="url(#clip200)" d="M2200.41 280.395 Q2200.41 280.84 2200.32 281.215 L2199.01 289.554 Q2198.94 290.186 2198.8 290.42 Q2198.68 290.654 2198.31 290.654 Q2197.72 290.654 2197.72 290.045 Q2197.72 289.694 2197.86 289.132 Q2198.26 286.485 2198.26 285.291 Q2198.26 284.494 2198.1 283.909 Q2197.95 283.3 2197.72 282.878 Q2197.51 282.457 2197.02 282.176 Q2196.53 281.894 2196.06 281.73 Q2195.59 281.567 2194.75 281.496 Q2193.9 281.403 2193.18 281.379 Q2192.45 281.356 2191.26 281.356 Q2188.66 281.356 2188.23 281.449 Q2187.79 281.567 2187.56 281.918 Q2187.34 282.246 2187.11 283.23 L2180.74 308.69 L2180.55 309.697 Q2180.55 310.259 2180.9 310.446 Q2181.25 310.634 2182.33 310.751 Q2183.88 310.868 2185.4 310.868 Q2185.45 310.868 2185.54 310.868 Q2186.06 310.868 2186.27 310.891 Q2186.48 310.891 2186.69 310.938 Q2186.9 310.985 2186.95 311.102 Q2187.02 311.196 2187.02 311.383 Q2187.02 311.828 2186.83 312.063 Q2186.64 312.273 2186.45 312.32 Q2186.29 312.344 2185.96 312.344 Q2185.31 312.344 2183.9 312.297 Q2182.5 312.25 2181.79 312.25 L2177.81 312.203 L2173.74 312.25 Q2173.1 312.25 2171.77 312.297 Q2170.43 312.344 2169.8 312.344 Q2168.98 312.344 2168.98 311.758 Q2168.98 311.102 2169.29 310.985 Q2169.61 310.868 2171 310.868 Q2172.94 310.868 2173.99 310.774 Q2175.05 310.681 2175.61 310.353 Q2176.2 310.025 2176.36 309.697 Q2176.52 309.346 2176.71 308.549 L2183.15 282.948 Q2183.34 282.386 2183.34 281.941 Q2183.34 281.707 2183.27 281.613 Q2183.22 281.52 2182.92 281.449 Q2182.61 281.356 2181.98 281.356 L2180.11 281.356 Q2178.19 281.356 2176.99 281.449 Q2175.82 281.52 2174.7 281.871 Q2173.6 282.222 2172.94 282.714 Q2172.31 283.206 2171.6 284.213 Q2170.9 285.22 2170.39 286.438 Q2169.89 287.656 2169.19 289.647 Q2168.96 290.303 2168.82 290.49 Q2168.7 290.654 2168.37 290.654 Q2168.14 290.654 2167.95 290.514 Q2167.79 290.35 2167.79 290.139 Q2168.02 289.366 2168.07 289.273 L2170.95 280.817 Q2171.18 280.138 2171.39 280.021 Q2171.63 279.88 2172.49 279.88 L2199.1 279.88 Q2199.52 279.88 2199.66 279.88 Q2199.81 279.88 2200.04 279.927 Q2200.27 279.974 2200.34 280.091 Q2200.41 280.208 2200.41 280.395 Z" fill="#000000" fill-rule="nonzero" fill-opacity="1" /><path clip-path="url(#clip200)" d="M2205.51 300.351 Q2205.51 292.247 2208.53 285.712 Q2209.82 282.972 2211.62 280.676 Q2213.43 278.381 2214.62 277.374 Q2215.82 276.367 2216.14 276.367 Q2216.61 276.367 2216.64 276.835 Q2216.64 277.069 2216 277.655 Q2208.27 285.525 2208.3 300.351 Q2208.3 315.225 2215.82 322.79 Q2216.64 323.61 2216.64 323.867 Q2216.64 324.336 2216.14 324.336 Q2215.82 324.336 2214.67 323.376 Q2213.52 322.415 2211.74 320.214 Q2209.96 318.012 2208.67 315.318 Q2205.51 308.783 2205.51 300.351 Z" fill="#000000" fill-rule="nonzero" fill-opacity="1" /><path clip-path="url(#clip200)" d="M2235.01 292.2 Q2235.01 292.856 2234.71 293.02 Q2234.4 293.161 2233.56 293.161 L2229.06 293.161 L2225.5 307.308 Q2225.22 308.549 2225.22 309.603 Q2225.22 310.774 2225.57 311.29 Q2225.95 311.805 2226.72 311.805 Q2228.24 311.805 2229.88 310.423 Q2231.54 309.041 2232.95 305.668 Q2233.14 305.223 2233.23 305.13 Q2233.35 305.012 2233.65 305.012 Q2234.24 305.012 2234.24 305.481 Q2234.24 305.645 2233.91 306.394 Q2233.6 307.144 2232.93 308.245 Q2232.27 309.346 2231.4 310.376 Q2230.56 311.407 2229.27 312.156 Q2227.98 312.882 2226.6 312.882 Q2224.66 312.882 2223.42 311.641 Q2222.2 310.4 2222.2 308.455 Q2222.2 307.823 2222.69 305.809 Q2223.18 303.771 2225.85 293.161 L2221.61 293.161 Q2221.03 293.161 2220.79 293.137 Q2220.58 293.114 2220.42 292.997 Q2220.28 292.856 2220.28 292.575 Q2220.28 292.13 2220.46 291.943 Q2220.65 291.732 2220.89 291.708 Q2221.14 291.662 2221.73 291.662 L2226.23 291.662 L2228.1 284.049 Q2228.29 283.3 2228.76 282.878 Q2229.25 282.433 2229.53 282.386 Q2229.81 282.316 2230.02 282.316 Q2230.65 282.316 2231.03 282.667 Q2231.4 282.995 2231.4 283.604 Q2231.4 283.932 2229.44 291.662 L2233.65 291.662 Q2234.19 291.662 2234.4 291.685 Q2234.64 291.708 2234.82 291.826 Q2235.01 291.943 2235.01 292.2 Z" fill="#000000" fill-rule="nonzero" fill-opacity="1" /><path clip-path="url(#clip200)" d="M2238.76 323.867 Q2238.76 323.633 2239.37 323.048 Q2247.1 315.178 2247.1 300.351 Q2247.1 285.478 2239.67 277.959 Q2238.76 277.093 2238.76 276.835 Q2238.76 276.367 2239.23 276.367 Q2239.56 276.367 2240.71 277.327 Q2241.88 278.287 2243.63 280.489 Q2245.41 282.691 2246.72 285.384 Q2249.89 291.919 2249.89 300.351 Q2249.89 308.455 2246.87 314.99 Q2245.58 317.731 2243.77 320.026 Q2241.97 322.322 2240.78 323.329 Q2239.58 324.336 2239.23 324.336 Q2238.76 324.336 2238.76 323.867 Z" fill="#000000" fill-rule="nonzero" fill-opacity="1" /></svg>
