<?xml version="1.0" encoding="utf-8"?>
<svg xmlns="http://www.w3.org/2000/svg" xmlns:xlink="http://www.w3.org/1999/xlink" width="600" height="400" viewBox="0 0 2400 1600">
<defs>
  <clipPath id="clip760">
    <rect x="0" y="0" width="2400" height="1600"/>
  </clipPath>
</defs>
<path clip-path="url(#clip760)" d="M0 1600 L2400 1600 L2400 0 L0 0  Z" fill="#ffffff" fill-rule="evenodd" fill-opacity="1"/>
<defs>
  <clipPath id="clip761">
    <rect x="234" y="47" width="2120" height="1377"/>
  </clipPath>
</defs>
<path clip-path="url(#clip760)" d="M232.389 1423.18 L2352.76 1423.18 L2352.76 47.2441 L232.389 47.2441  Z" fill="#ffffff" fill-rule="evenodd" fill-opacity="1"/>
<defs>
  <clipPath id="clip762">
    <rect x="232" y="47" width="2121" height="1377"/>
  </clipPath>
</defs>
<polyline clip-path="url(#clip762)" style="stroke:#000000; stroke-linecap:round; stroke-linejoin:round; stroke-width:2; stroke-opacity:0.1; fill:none" points="292.4,1423.18 292.4,47.2441 "/>
<polyline clip-path="url(#clip762)" style="stroke:#000000; stroke-linecap:round; stroke-linejoin:round; stroke-width:2; stroke-opacity:0.1; fill:none" points="768.565,1423.18 768.565,47.2441 "/>
<polyline clip-path="url(#clip762)" style="stroke:#000000; stroke-linecap:round; stroke-linejoin:round; stroke-width:2; stroke-opacity:0.1; fill:none" points="1244.73,1423.18 1244.73,47.2441 "/>
<polyline clip-path="url(#clip762)" style="stroke:#000000; stroke-linecap:round; stroke-linejoin:round; stroke-width:2; stroke-opacity:0.1; fill:none" points="1720.9,1423.18 1720.9,47.2441 "/>
<polyline clip-path="url(#clip762)" style="stroke:#000000; stroke-linecap:round; stroke-linejoin:round; stroke-width:2; stroke-opacity:0.1; fill:none" points="2197.06,1423.18 2197.06,47.2441 "/>
<polyline clip-path="url(#clip762)" style="stroke:#000000; stroke-linecap:round; stroke-linejoin:round; stroke-width:2; stroke-opacity:0.1; fill:none" points="232.389,1296.53 2352.76,1296.53 "/>
<polyline clip-path="url(#clip762)" style="stroke:#000000; stroke-linecap:round; stroke-linejoin:round; stroke-width:2; stroke-opacity:0.1; fill:none" points="232.389,945.707 2352.76,945.707 "/>
<polyline clip-path="url(#clip762)" style="stroke:#000000; stroke-linecap:round; stroke-linejoin:round; stroke-width:2; stroke-opacity:0.1; fill:none" points="232.389,594.882 2352.76,594.882 "/>
<polyline clip-path="url(#clip762)" style="stroke:#000000; stroke-linecap:round; stroke-linejoin:round; stroke-width:2; stroke-opacity:0.1; fill:none" points="232.389,244.057 2352.76,244.057 "/>
<polyline clip-path="url(#clip760)" style="stroke:#000000; stroke-linecap:round; stroke-linejoin:round; stroke-width:4; stroke-opacity:1; fill:none" points="232.389,1423.18 2352.76,1423.18 "/>
<polyline clip-path="url(#clip760)" style="stroke:#000000; stroke-linecap:round; stroke-linejoin:round; stroke-width:4; stroke-opacity:1; fill:none" points="292.4,1423.18 292.4,1404.28 "/>
<polyline clip-path="url(#clip760)" style="stroke:#000000; stroke-linecap:round; stroke-linejoin:round; stroke-width:4; stroke-opacity:1; fill:none" points="768.565,1423.18 768.565,1404.28 "/>
<polyline clip-path="url(#clip760)" style="stroke:#000000; stroke-linecap:round; stroke-linejoin:round; stroke-width:4; stroke-opacity:1; fill:none" points="1244.73,1423.18 1244.73,1404.28 "/>
<polyline clip-path="url(#clip760)" style="stroke:#000000; stroke-linecap:round; stroke-linejoin:round; stroke-width:4; stroke-opacity:1; fill:none" points="1720.9,1423.18 1720.9,1404.28 "/>
<polyline clip-path="url(#clip760)" style="stroke:#000000; stroke-linecap:round; stroke-linejoin:round; stroke-width:4; stroke-opacity:1; fill:none" points="2197.06,1423.18 2197.06,1404.28 "/>
<path clip-path="url(#clip760)" d="M292.4 1454.1 Q288.789 1454.1 286.96 1457.66 Q285.154 1461.2 285.154 1468.33 Q285.154 1475.44 286.96 1479.01 Q288.789 1482.55 292.4 1482.55 Q296.034 1482.55 297.84 1479.01 Q299.668 1475.44 299.668 1468.33 Q299.668 1461.2 297.84 1457.66 Q296.034 1454.1 292.4 1454.1 M292.4 1450.39 Q298.21 1450.39 301.265 1455 Q304.344 1459.58 304.344 1468.33 Q304.344 1477.06 301.265 1481.67 Q298.21 1486.25 292.4 1486.25 Q286.59 1486.25 283.511 1481.67 Q280.455 1477.06 280.455 1468.33 Q280.455 1459.58 283.511 1455 Q286.59 1450.39 292.4 1450.39 Z" fill="#000000" fill-rule="nonzero" fill-opacity="1" /><path clip-path="url(#clip760)" d="M758.843 1451.02 L777.2 1451.02 L777.2 1454.96 L763.126 1454.96 L763.126 1463.43 Q764.144 1463.08 765.163 1462.92 Q766.181 1462.73 767.2 1462.73 Q772.987 1462.73 776.366 1465.9 Q779.746 1469.08 779.746 1474.49 Q779.746 1480.07 776.274 1483.17 Q772.802 1486.25 766.482 1486.25 Q764.306 1486.25 762.038 1485.88 Q759.792 1485.51 757.385 1484.77 L757.385 1480.07 Q759.468 1481.2 761.69 1481.76 Q763.913 1482.32 766.39 1482.32 Q770.394 1482.32 772.732 1480.21 Q775.07 1478.1 775.07 1474.49 Q775.07 1470.88 772.732 1468.77 Q770.394 1466.67 766.39 1466.67 Q764.515 1466.67 762.64 1467.08 Q760.788 1467.5 758.843 1468.38 L758.843 1451.02 Z" fill="#000000" fill-rule="nonzero" fill-opacity="1" /><path clip-path="url(#clip760)" d="M1219.42 1481.64 L1227.06 1481.64 L1227.06 1455.28 L1218.75 1456.95 L1218.75 1452.69 L1227.01 1451.02 L1231.69 1451.02 L1231.69 1481.64 L1239.33 1481.64 L1239.33 1485.58 L1219.42 1485.58 L1219.42 1481.64 Z" fill="#000000" fill-rule="nonzero" fill-opacity="1" /><path clip-path="url(#clip760)" d="M1258.77 1454.1 Q1255.16 1454.1 1253.33 1457.66 Q1251.53 1461.2 1251.53 1468.33 Q1251.53 1475.44 1253.33 1479.01 Q1255.16 1482.55 1258.77 1482.55 Q1262.4 1482.55 1264.21 1479.01 Q1266.04 1475.44 1266.04 1468.33 Q1266.04 1461.2 1264.21 1457.66 Q1262.4 1454.1 1258.77 1454.1 M1258.77 1450.39 Q1264.58 1450.39 1267.64 1455 Q1270.71 1459.58 1270.71 1468.33 Q1270.71 1477.06 1267.64 1481.67 Q1264.58 1486.25 1258.77 1486.25 Q1252.96 1486.25 1249.88 1481.67 Q1246.83 1477.06 1246.83 1468.33 Q1246.83 1459.58 1249.88 1455 Q1252.96 1450.39 1258.77 1450.39 Z" fill="#000000" fill-rule="nonzero" fill-opacity="1" /><path clip-path="url(#clip760)" d="M1696.08 1481.64 L1703.72 1481.64 L1703.72 1455.28 L1695.41 1456.95 L1695.41 1452.69 L1703.67 1451.02 L1708.35 1451.02 L1708.35 1481.64 L1715.99 1481.64 L1715.99 1485.58 L1696.08 1485.58 L1696.08 1481.64 Z" fill="#000000" fill-rule="nonzero" fill-opacity="1" /><path clip-path="url(#clip760)" d="M1725.48 1451.02 L1743.84 1451.02 L1743.84 1454.96 L1729.76 1454.96 L1729.76 1463.43 Q1730.78 1463.08 1731.8 1462.92 Q1732.82 1462.73 1733.84 1462.73 Q1739.62 1462.73 1743 1465.9 Q1746.38 1469.08 1746.38 1474.49 Q1746.38 1480.07 1742.91 1483.17 Q1739.44 1486.25 1733.12 1486.25 Q1730.94 1486.25 1728.67 1485.88 Q1726.43 1485.51 1724.02 1484.77 L1724.02 1480.07 Q1726.11 1481.2 1728.33 1481.76 Q1730.55 1482.32 1733.03 1482.32 Q1737.03 1482.32 1739.37 1480.21 Q1741.71 1478.1 1741.71 1474.49 Q1741.71 1470.88 1739.37 1468.77 Q1737.03 1466.67 1733.03 1466.67 Q1731.15 1466.67 1729.28 1467.08 Q1727.42 1467.5 1725.48 1468.38 L1725.48 1451.02 Z" fill="#000000" fill-rule="nonzero" fill-opacity="1" /><path clip-path="url(#clip760)" d="M2175.84 1481.64 L2192.16 1481.64 L2192.16 1485.58 L2170.21 1485.58 L2170.21 1481.64 Q2172.87 1478.89 2177.46 1474.26 Q2182.06 1469.61 2183.24 1468.27 Q2185.49 1465.74 2186.37 1464.01 Q2187.27 1462.25 2187.27 1460.56 Q2187.27 1457.8 2185.33 1456.07 Q2183.41 1454.33 2180.3 1454.33 Q2178.1 1454.33 2175.65 1455.09 Q2173.22 1455.86 2170.44 1457.41 L2170.44 1452.69 Q2173.27 1451.55 2175.72 1450.97 Q2178.17 1450.39 2180.21 1450.39 Q2185.58 1450.39 2188.78 1453.08 Q2191.97 1455.77 2191.97 1460.26 Q2191.97 1462.39 2191.16 1464.31 Q2190.37 1466.2 2188.27 1468.8 Q2187.69 1469.47 2184.59 1472.69 Q2181.48 1475.88 2175.84 1481.64 Z" fill="#000000" fill-rule="nonzero" fill-opacity="1" /><path clip-path="url(#clip760)" d="M2211.97 1454.1 Q2208.36 1454.1 2206.53 1457.66 Q2204.72 1461.2 2204.72 1468.33 Q2204.72 1475.44 2206.53 1479.01 Q2208.36 1482.55 2211.97 1482.55 Q2215.6 1482.55 2217.41 1479.01 Q2219.24 1475.44 2219.24 1468.33 Q2219.24 1461.2 2217.41 1457.66 Q2215.6 1454.1 2211.97 1454.1 M2211.97 1450.39 Q2217.78 1450.39 2220.84 1455 Q2223.91 1459.58 2223.91 1468.33 Q2223.91 1477.06 2220.84 1481.67 Q2217.78 1486.25 2211.97 1486.25 Q2206.16 1486.25 2203.08 1481.67 Q2200.03 1477.06 2200.03 1468.33 Q2200.03 1459.58 2203.08 1455 Q2206.16 1450.39 2211.97 1450.39 Z" fill="#000000" fill-rule="nonzero" fill-opacity="1" /><path clip-path="url(#clip760)" d="M1291.33 1546.53 L1291.33 1568.04 L1285.47 1568.04 L1285.47 1546.72 Q1285.47 1541.66 1283.5 1539.14 Q1281.53 1536.63 1277.58 1536.63 Q1272.84 1536.63 1270.1 1539.65 Q1267.36 1542.68 1267.36 1547.9 L1267.36 1568.04 L1261.48 1568.04 L1261.48 1518.52 L1267.36 1518.52 L1267.36 1537.93 Q1269.47 1534.72 1272.3 1533.13 Q1275.16 1531.54 1278.89 1531.54 Q1285.03 1531.54 1288.18 1535.36 Q1291.33 1539.14 1291.33 1546.53 Z" fill="#000000" fill-rule="nonzero" fill-opacity="1" /><path clip-path="url(#clip760)" d="M1323.67 1537.87 Q1322.68 1537.3 1321.5 1537.04 Q1320.36 1536.76 1318.96 1536.76 Q1313.99 1536.76 1311.32 1540 Q1308.68 1543.22 1308.68 1549.27 L1308.68 1568.04 L1302.79 1568.04 L1302.79 1532.4 L1308.68 1532.4 L1308.68 1537.93 Q1310.52 1534.69 1313.48 1533.13 Q1316.44 1531.54 1320.68 1531.54 Q1321.28 1531.54 1322.01 1531.63 Q1322.75 1531.7 1323.64 1531.85 L1323.67 1537.87 Z" fill="#000000" fill-rule="nonzero" fill-opacity="1" /><polyline clip-path="url(#clip760)" style="stroke:#000000; stroke-linecap:round; stroke-linejoin:round; stroke-width:4; stroke-opacity:1; fill:none" points="232.389,1423.18 232.389,47.2441 "/>
<polyline clip-path="url(#clip760)" style="stroke:#000000; stroke-linecap:round; stroke-linejoin:round; stroke-width:4; stroke-opacity:1; fill:none" points="232.389,1296.53 251.287,1296.53 "/>
<polyline clip-path="url(#clip760)" style="stroke:#000000; stroke-linecap:round; stroke-linejoin:round; stroke-width:4; stroke-opacity:1; fill:none" points="232.389,945.707 251.287,945.707 "/>
<polyline clip-path="url(#clip760)" style="stroke:#000000; stroke-linecap:round; stroke-linejoin:round; stroke-width:4; stroke-opacity:1; fill:none" points="232.389,594.882 251.287,594.882 "/>
<polyline clip-path="url(#clip760)" style="stroke:#000000; stroke-linecap:round; stroke-linejoin:round; stroke-width:4; stroke-opacity:1; fill:none" points="232.389,244.057 251.287,244.057 "/>
<path clip-path="url(#clip760)" d="M114.931 1309.88 L122.57 1309.88 L122.57 1283.51 L114.26 1285.18 L114.26 1280.92 L122.524 1279.25 L127.2 1279.25 L127.2 1309.88 L134.839 1309.88 L134.839 1313.81 L114.931 1313.81 L114.931 1309.88 Z" fill="#000000" fill-rule="nonzero" fill-opacity="1" /><path clip-path="url(#clip760)" d="M154.283 1282.33 Q150.672 1282.33 148.843 1285.9 Q147.038 1289.44 147.038 1296.57 Q147.038 1303.67 148.843 1307.24 Q150.672 1310.78 154.283 1310.78 Q157.917 1310.78 159.723 1307.24 Q161.552 1303.67 161.552 1296.57 Q161.552 1289.44 159.723 1285.9 Q157.917 1282.33 154.283 1282.33 M154.283 1278.63 Q160.093 1278.63 163.149 1283.23 Q166.227 1287.82 166.227 1296.57 Q166.227 1305.29 163.149 1309.9 Q160.093 1314.48 154.283 1314.48 Q148.473 1314.48 145.394 1309.9 Q142.339 1305.29 142.339 1296.57 Q142.339 1287.82 145.394 1283.23 Q148.473 1278.63 154.283 1278.63 Z" fill="#000000" fill-rule="nonzero" fill-opacity="1" /><path clip-path="url(#clip760)" d="M184.445 1282.33 Q180.834 1282.33 179.005 1285.9 Q177.2 1289.44 177.2 1296.57 Q177.2 1303.67 179.005 1307.24 Q180.834 1310.78 184.445 1310.78 Q188.079 1310.78 189.885 1307.24 Q191.713 1303.67 191.713 1296.57 Q191.713 1289.44 189.885 1285.9 Q188.079 1282.33 184.445 1282.33 M184.445 1278.63 Q190.255 1278.63 193.311 1283.23 Q196.389 1287.82 196.389 1296.57 Q196.389 1305.29 193.311 1309.9 Q190.255 1314.48 184.445 1314.48 Q178.635 1314.48 175.556 1309.9 Q172.501 1305.29 172.501 1296.57 Q172.501 1287.82 175.556 1283.23 Q178.635 1278.63 184.445 1278.63 Z" fill="#000000" fill-rule="nonzero" fill-opacity="1" /><path clip-path="url(#clip760)" d="M114.931 959.052 L122.57 959.052 L122.57 932.686 L114.26 934.353 L114.26 930.094 L122.524 928.427 L127.2 928.427 L127.2 959.052 L134.839 959.052 L134.839 962.987 L114.931 962.987 L114.931 959.052 Z" fill="#000000" fill-rule="nonzero" fill-opacity="1" /><path clip-path="url(#clip760)" d="M148.311 959.052 L164.63 959.052 L164.63 962.987 L142.686 962.987 L142.686 959.052 Q145.348 956.297 149.931 951.668 Q154.538 947.015 155.718 945.672 Q157.964 943.149 158.843 941.413 Q159.746 939.654 159.746 937.964 Q159.746 935.209 157.802 933.473 Q155.88 931.737 152.778 931.737 Q150.579 931.737 148.126 932.501 Q145.695 933.265 142.917 934.816 L142.917 930.094 Q145.741 928.959 148.195 928.381 Q150.649 927.802 152.686 927.802 Q158.056 927.802 161.251 930.487 Q164.445 933.172 164.445 937.663 Q164.445 939.793 163.635 941.714 Q162.848 943.612 160.741 946.205 Q160.163 946.876 157.061 950.094 Q153.959 953.288 148.311 959.052 Z" fill="#000000" fill-rule="nonzero" fill-opacity="1" /><path clip-path="url(#clip760)" d="M184.445 931.506 Q180.834 931.506 179.005 935.07 Q177.2 938.612 177.2 945.742 Q177.2 952.848 179.005 956.413 Q180.834 959.955 184.445 959.955 Q188.079 959.955 189.885 956.413 Q191.713 952.848 191.713 945.742 Q191.713 938.612 189.885 935.07 Q188.079 931.506 184.445 931.506 M184.445 927.802 Q190.255 927.802 193.311 932.408 Q196.389 936.992 196.389 945.742 Q196.389 954.469 193.311 959.075 Q190.255 963.658 184.445 963.658 Q178.635 963.658 175.556 959.075 Q172.501 954.469 172.501 945.742 Q172.501 936.992 175.556 932.408 Q178.635 927.802 184.445 927.802 Z" fill="#000000" fill-rule="nonzero" fill-opacity="1" /><path clip-path="url(#clip760)" d="M114.931 608.227 L122.57 608.227 L122.57 581.861 L114.26 583.528 L114.26 579.269 L122.524 577.602 L127.2 577.602 L127.2 608.227 L134.839 608.227 L134.839 612.162 L114.931 612.162 L114.931 608.227 Z" fill="#000000" fill-rule="nonzero" fill-opacity="1" /><path clip-path="url(#clip760)" d="M157.13 581.676 L145.325 600.125 L157.13 600.125 L157.13 581.676 M155.903 577.602 L161.783 577.602 L161.783 600.125 L166.714 600.125 L166.714 604.014 L161.783 604.014 L161.783 612.162 L157.13 612.162 L157.13 604.014 L141.529 604.014 L141.529 599.5 L155.903 577.602 Z" fill="#000000" fill-rule="nonzero" fill-opacity="1" /><path clip-path="url(#clip760)" d="M184.445 580.681 Q180.834 580.681 179.005 584.245 Q177.2 587.787 177.2 594.917 Q177.2 602.023 179.005 605.588 Q180.834 609.13 184.445 609.13 Q188.079 609.13 189.885 605.588 Q191.713 602.023 191.713 594.917 Q191.713 587.787 189.885 584.245 Q188.079 580.681 184.445 580.681 M184.445 576.977 Q190.255 576.977 193.311 581.583 Q196.389 586.167 196.389 594.917 Q196.389 603.643 193.311 608.25 Q190.255 612.833 184.445 612.833 Q178.635 612.833 175.556 608.25 Q172.501 603.643 172.501 594.917 Q172.501 586.167 175.556 581.583 Q178.635 576.977 184.445 576.977 Z" fill="#000000" fill-rule="nonzero" fill-opacity="1" /><path clip-path="url(#clip760)" d="M114.931 257.402 L122.57 257.402 L122.57 231.036 L114.26 232.703 L114.26 228.444 L122.524 226.777 L127.2 226.777 L127.2 257.402 L134.839 257.402 L134.839 261.337 L114.931 261.337 L114.931 257.402 Z" fill="#000000" fill-rule="nonzero" fill-opacity="1" /><path clip-path="url(#clip760)" d="M154.862 242.194 Q151.714 242.194 149.862 244.346 Q148.033 246.499 148.033 250.249 Q148.033 253.976 149.862 256.152 Q151.714 258.305 154.862 258.305 Q158.01 258.305 159.839 256.152 Q161.69 253.976 161.69 250.249 Q161.69 246.499 159.839 244.346 Q158.01 242.194 154.862 242.194 M164.144 227.541 L164.144 231.8 Q162.385 230.967 160.579 230.527 Q158.797 230.087 157.038 230.087 Q152.408 230.087 149.954 233.212 Q147.524 236.337 147.177 242.656 Q148.542 240.643 150.603 239.578 Q152.663 238.49 155.14 238.49 Q160.348 238.49 163.357 241.661 Q166.39 244.809 166.39 250.249 Q166.39 255.573 163.241 258.791 Q160.093 262.008 154.862 262.008 Q148.866 262.008 145.695 257.425 Q142.524 252.818 142.524 244.092 Q142.524 235.897 146.413 231.036 Q150.302 226.152 156.853 226.152 Q158.612 226.152 160.394 226.499 Q162.2 226.846 164.144 227.541 Z" fill="#000000" fill-rule="nonzero" fill-opacity="1" /><path clip-path="url(#clip760)" d="M184.445 229.856 Q180.834 229.856 179.005 233.42 Q177.2 236.962 177.2 244.092 Q177.2 251.198 179.005 254.763 Q180.834 258.305 184.445 258.305 Q188.079 258.305 189.885 254.763 Q191.713 251.198 191.713 244.092 Q191.713 236.962 189.885 233.42 Q188.079 229.856 184.445 229.856 M184.445 226.152 Q190.255 226.152 193.311 230.758 Q196.389 235.342 196.389 244.092 Q196.389 252.818 193.311 257.425 Q190.255 262.008 184.445 262.008 Q178.635 262.008 175.556 257.425 Q172.501 252.818 172.501 244.092 Q172.501 235.342 175.556 230.758 Q178.635 226.152 184.445 226.152 Z" fill="#000000" fill-rule="nonzero" fill-opacity="1" /><path clip-path="url(#clip760)" d="M21.7677 990.031 L39.6235 990.031 L39.6235 981.947 Q39.6235 977.459 37.3 975.008 Q34.9765 972.557 30.6797 972.557 Q26.4147 972.557 24.0912 975.008 Q21.7677 977.459 21.7677 981.947 L21.7677 990.031 M16.4842 996.461 L16.4842 981.947 Q16.4842 973.958 20.1126 969.884 Q23.7092 965.778 30.6797 965.778 Q37.7138 965.778 41.3104 969.884 Q44.907 973.958 44.907 981.947 L44.907 990.031 L64.0042 990.031 L64.0042 996.461 L16.4842 996.461 Z" fill="#000000" fill-rule="nonzero" fill-opacity="1" /><path clip-path="url(#clip760)" d="M33.8307 937.896 Q33.2578 938.883 33.0032 940.06 Q32.7167 941.206 32.7167 942.607 Q32.7167 947.572 35.9632 950.246 Q39.1779 952.887 45.2253 952.887 L64.0042 952.887 L64.0042 958.776 L28.3562 958.776 L28.3562 952.887 L33.8944 952.887 Q30.6479 951.041 29.0883 948.081 Q27.4968 945.121 27.4968 940.888 Q27.4968 940.283 27.5923 939.551 Q27.656 938.819 27.8151 937.928 L33.8307 937.896 Z" fill="#000000" fill-rule="nonzero" fill-opacity="1" /><path clip-path="url(#clip760)" d="M44.7161 902.694 L47.5806 902.694 L47.5806 929.621 Q53.6281 929.239 56.8109 925.992 Q59.9619 922.714 59.9619 916.889 Q59.9619 913.515 59.1344 910.364 Q58.3069 907.182 56.6518 904.062 L62.1899 904.062 Q63.5267 907.213 64.227 910.524 Q64.9272 913.834 64.9272 917.239 Q64.9272 925.769 59.9619 930.766 Q54.9967 935.732 46.5303 935.732 Q37.7774 935.732 32.6531 931.021 Q27.4968 926.279 27.4968 918.258 Q27.4968 911.065 32.1438 906.895 Q36.7589 902.694 44.7161 902.694 M42.9973 908.55 Q38.1912 908.614 35.3266 911.256 Q32.4621 913.866 32.4621 918.194 Q32.4621 923.096 35.2312 926.056 Q38.0002 928.984 43.0292 929.43 L42.9973 908.55 Z" fill="#000000" fill-rule="nonzero" fill-opacity="1" /><path clip-path="url(#clip760)" d="M29.4065 870.356 L34.9447 870.356 Q33.6716 872.839 33.035 875.512 Q32.3984 878.186 32.3984 881.05 Q32.3984 885.411 33.7352 887.607 Q35.072 889.771 37.7456 889.771 Q39.7826 889.771 40.9603 888.212 Q42.1061 886.652 43.1565 881.942 L43.6021 879.936 Q44.9389 873.698 47.3897 871.088 Q49.8086 868.446 54.1691 868.446 Q59.1344 868.446 62.0308 872.393 Q64.9272 876.308 64.9272 883.183 Q64.9272 886.047 64.3543 889.167 Q63.8132 892.254 62.6992 895.691 L56.6518 895.691 Q58.3387 892.445 59.198 889.294 Q60.0256 886.143 60.0256 883.056 Q60.0256 878.918 58.6251 876.69 Q57.1929 874.462 54.6147 874.462 Q52.2276 874.462 50.9545 876.085 Q49.6813 877.676 48.5037 883.119 L48.0262 885.156 Q46.8804 890.599 44.5251 893.018 Q42.138 895.437 38.0002 895.437 Q32.9713 895.437 30.2341 891.872 Q27.4968 888.307 27.4968 881.751 Q27.4968 878.504 27.9743 875.639 Q28.4517 872.775 29.4065 870.356 Z" fill="#000000" fill-rule="nonzero" fill-opacity="1" /><path clip-path="url(#clip760)" d="M29.4065 836.395 L34.9447 836.395 Q33.6716 838.878 33.035 841.551 Q32.3984 844.225 32.3984 847.089 Q32.3984 851.45 33.7352 853.646 Q35.072 855.81 37.7456 855.81 Q39.7826 855.81 40.9603 854.251 Q42.1061 852.691 43.1565 847.98 L43.6021 845.975 Q44.9389 839.737 47.3897 837.127 Q49.8086 834.485 54.1691 834.485 Q59.1344 834.485 62.0308 838.432 Q64.9272 842.347 64.9272 849.222 Q64.9272 852.086 64.3543 855.206 Q63.8132 858.293 62.6992 861.73 L56.6518 861.73 Q58.3387 858.484 59.198 855.333 Q60.0256 852.182 60.0256 849.094 Q60.0256 844.957 58.6251 842.729 Q57.1929 840.501 54.6147 840.501 Q52.2276 840.501 50.9545 842.124 Q49.6813 843.715 48.5037 849.158 L48.0262 851.195 Q46.8804 856.638 44.5251 859.057 Q42.138 861.476 38.0002 861.476 Q32.9713 861.476 30.2341 857.911 Q27.4968 854.346 27.4968 847.789 Q27.4968 844.543 27.9743 841.678 Q28.4517 838.814 29.4065 836.395 Z" fill="#000000" fill-rule="nonzero" fill-opacity="1" /><path clip-path="url(#clip760)" d="M49.9359 825.764 L28.3562 825.764 L28.3562 819.908 L49.7131 819.908 Q54.7739 819.908 57.3202 817.934 Q59.8346 815.961 59.8346 812.014 Q59.8346 807.272 56.8109 804.535 Q53.7872 801.765 48.5673 801.765 L28.3562 801.765 L28.3562 795.909 L64.0042 795.909 L64.0042 801.765 L58.5296 801.765 Q61.7762 803.898 63.3676 806.731 Q64.9272 809.532 64.9272 813.256 Q64.9272 819.398 61.1078 822.581 Q57.2883 825.764 49.9359 825.764 M27.4968 811.028 L27.4968 811.028 Z" fill="#000000" fill-rule="nonzero" fill-opacity="1" /><path clip-path="url(#clip760)" d="M33.8307 763.189 Q33.2578 764.176 33.0032 765.354 Q32.7167 766.499 32.7167 767.9 Q32.7167 772.865 35.9632 775.539 Q39.1779 778.18 45.2253 778.18 L64.0042 778.18 L64.0042 784.069 L28.3562 784.069 L28.3562 778.18 L33.8944 778.18 Q30.6479 776.334 29.0883 773.374 Q27.4968 770.414 27.4968 766.181 Q27.4968 765.576 27.5923 764.844 Q27.656 764.112 27.8151 763.221 L33.8307 763.189 Z" fill="#000000" fill-rule="nonzero" fill-opacity="1" /><path clip-path="url(#clip760)" d="M44.7161 727.987 L47.5806 727.987 L47.5806 754.914 Q53.6281 754.532 56.8109 751.285 Q59.9619 748.007 59.9619 742.182 Q59.9619 738.809 59.1344 735.658 Q58.3069 732.475 56.6518 729.356 L62.1899 729.356 Q63.5267 732.507 64.227 735.817 Q64.9272 739.127 64.9272 742.533 Q64.9272 751.063 59.9619 756.06 Q54.9967 761.025 46.5303 761.025 Q37.7774 761.025 32.6531 756.314 Q27.4968 751.572 27.4968 743.551 Q27.4968 736.358 32.1438 732.188 Q36.7589 727.987 44.7161 727.987 M42.9973 733.843 Q38.1912 733.907 35.3266 736.549 Q32.4621 739.159 32.4621 743.487 Q32.4621 748.389 35.2312 751.349 Q38.0002 754.277 43.0292 754.723 L42.9973 733.843 Z" fill="#000000" fill-rule="nonzero" fill-opacity="1" /><path clip-path="url(#clip760)" d="M14.5426 683.586 Q21.8632 687.851 29.0246 689.92 Q36.186 691.989 43.5384 691.989 Q50.8908 691.989 58.1159 689.92 Q65.3091 687.819 72.5979 683.586 L72.5979 688.679 Q65.1182 693.453 57.8931 695.84 Q50.668 698.195 43.5384 698.195 Q36.4406 698.195 29.2474 695.84 Q22.0542 693.485 14.5426 688.679 L14.5426 683.586 Z" fill="#000000" fill-rule="nonzero" fill-opacity="1" /><path clip-path="url(#clip760)" d="M35.1993 644.469 Q31.2526 642.273 29.3747 639.217 Q27.4968 636.162 27.4968 632.024 Q27.4968 626.454 31.4117 623.43 Q35.2948 620.406 42.4881 620.406 L64.0042 620.406 L64.0042 626.295 L42.679 626.295 Q37.5546 626.295 35.072 628.109 Q32.5894 629.923 32.5894 633.647 Q32.5894 638.199 35.6131 640.84 Q38.6368 643.482 43.8567 643.482 L64.0042 643.482 L64.0042 649.37 L42.679 649.37 Q37.5228 649.37 35.072 651.185 Q32.5894 652.999 32.5894 656.786 Q32.5894 661.274 35.6449 663.916 Q38.6686 666.558 43.8567 666.558 L64.0042 666.558 L64.0042 672.446 L28.3562 672.446 L28.3562 666.558 L33.8944 666.558 Q30.616 664.553 29.0564 661.752 Q27.4968 658.951 27.4968 655.1 Q27.4968 651.216 29.4702 648.511 Q31.4436 645.774 35.1993 644.469 Z" fill="#000000" fill-rule="nonzero" fill-opacity="1" /><path clip-path="url(#clip760)" d="M16.4842 615.059 L16.4842 574.86 L21.895 574.86 L21.895 591.729 L64.0042 591.729 L64.0042 598.19 L21.895 598.19 L21.895 615.059 L16.4842 615.059 Z" fill="#000000" fill-rule="nonzero" fill-opacity="1" /><path clip-path="url(#clip760)" d="M32.4621 566.171 Q32.4621 570.881 36.1542 573.619 Q39.8145 576.356 46.212 576.356 Q52.6095 576.356 56.3017 573.65 Q59.9619 570.913 59.9619 566.171 Q59.9619 561.492 56.2698 558.755 Q52.5777 556.017 46.212 556.017 Q39.8781 556.017 36.186 558.755 Q32.4621 561.492 32.4621 566.171 M27.4968 566.171 Q27.4968 558.532 32.4621 554.171 Q37.4273 549.811 46.212 549.811 Q54.9649 549.811 59.9619 554.171 Q64.9272 558.532 64.9272 566.171 Q64.9272 573.841 59.9619 578.202 Q54.9649 582.53 46.212 582.53 Q37.4273 582.53 32.4621 578.202 Q27.4968 573.841 27.4968 566.171 Z" fill="#000000" fill-rule="nonzero" fill-opacity="1" /><path clip-path="url(#clip760)" d="M33.8307 519.446 Q33.2578 520.433 33.0032 521.611 Q32.7167 522.757 32.7167 524.157 Q32.7167 529.122 35.9632 531.796 Q39.1779 534.438 45.2253 534.438 L64.0042 534.438 L64.0042 540.326 L28.3562 540.326 L28.3562 534.438 L33.8944 534.438 Q30.6479 532.592 29.0883 529.631 Q27.4968 526.671 27.4968 522.438 Q27.4968 521.833 27.5923 521.101 Q27.656 520.369 27.8151 519.478 L33.8307 519.446 Z" fill="#000000" fill-rule="nonzero" fill-opacity="1" /><path clip-path="url(#clip760)" d="M33.8307 493.793 Q33.2578 494.779 33.0032 495.957 Q32.7167 497.103 32.7167 498.503 Q32.7167 503.468 35.9632 506.142 Q39.1779 508.784 45.2253 508.784 L64.0042 508.784 L64.0042 514.672 L28.3562 514.672 L28.3562 508.784 L33.8944 508.784 Q30.6479 506.938 29.0883 503.978 Q27.4968 501.018 27.4968 496.784 Q27.4968 496.18 27.5923 495.448 Q27.656 494.716 27.8151 493.824 L33.8307 493.793 Z" fill="#000000" fill-rule="nonzero" fill-opacity="1" /><path clip-path="url(#clip760)" d="M14.5426 488.573 L14.5426 483.48 Q22.0542 478.706 29.2474 476.351 Q36.4406 473.963 43.5384 473.963 Q50.668 473.963 57.8931 476.351 Q65.1182 478.706 72.5979 483.48 L72.5979 488.573 Q65.3091 484.339 58.1159 482.271 Q50.8908 480.17 43.5384 480.17 Q36.186 480.17 29.0246 482.271 Q21.8632 484.339 14.5426 488.573 Z" fill="#000000" fill-rule="nonzero" fill-opacity="1" /><path clip-path="url(#clip762)" d="M292.4 228.057 L276.4 260.057 L308.4 260.057 L292.4 228.057 Z" fill="#009af9" fill-rule="evenodd" fill-opacity="1" stroke="#000000" stroke-opacity="1" stroke-width="3.2"/>
<path clip-path="url(#clip762)" d="M492.442 70.1857 L476.442 102.186 L508.442 102.186 L492.442 70.1857 Z" fill="#009af9" fill-rule="evenodd" fill-opacity="1" stroke="#000000" stroke-opacity="1" stroke-width="3.2"/>
<path clip-path="url(#clip762)" d="M692.458 70.1857 L676.458 102.186 L708.458 102.186 L692.458 70.1857 Z" fill="#009af9" fill-rule="evenodd" fill-opacity="1" stroke="#000000" stroke-opacity="1" stroke-width="3.2"/>
<path clip-path="url(#clip762)" d="M892.501 70.1857 L876.501 102.186 L908.501 102.186 L892.501 70.1857 Z" fill="#009af9" fill-rule="evenodd" fill-opacity="1" stroke="#000000" stroke-opacity="1" stroke-width="3.2"/>
<path clip-path="url(#clip762)" d="M1092.54 70.1857 L1076.54 102.186 L1108.54 102.186 L1092.54 70.1857 Z" fill="#009af9" fill-rule="evenodd" fill-opacity="1" stroke="#000000" stroke-opacity="1" stroke-width="3.2"/>
<path clip-path="url(#clip762)" d="M1292.56 70.1857 L1276.56 102.186 L1308.56 102.186 L1292.56 70.1857 Z" fill="#009af9" fill-rule="evenodd" fill-opacity="1" stroke="#000000" stroke-opacity="1" stroke-width="3.2"/>
<path clip-path="url(#clip762)" d="M1492.6 87.7269 L1476.6 119.727 L1508.6 119.727 L1492.6 87.7269 Z" fill="#009af9" fill-rule="evenodd" fill-opacity="1" stroke="#000000" stroke-opacity="1" stroke-width="3.2"/>
<path clip-path="url(#clip762)" d="M1692.64 70.1857 L1676.64 102.186 L1708.64 102.186 L1692.64 70.1857 Z" fill="#009af9" fill-rule="evenodd" fill-opacity="1" stroke="#000000" stroke-opacity="1" stroke-width="3.2"/>
<path clip-path="url(#clip762)" d="M1892.69 87.7269 L1876.69 119.727 L1908.69 119.727 L1892.69 87.7269 Z" fill="#009af9" fill-rule="evenodd" fill-opacity="1" stroke="#000000" stroke-opacity="1" stroke-width="3.2"/>
<path clip-path="url(#clip762)" d="M2092.7 245.598 L2076.7 277.598 L2108.7 277.598 L2092.7 245.598 Z" fill="#009af9" fill-rule="evenodd" fill-opacity="1" stroke="#000000" stroke-opacity="1" stroke-width="3.2"/>
<path clip-path="url(#clip762)" d="M2292.75 1175.28 L2276.75 1207.28 L2308.75 1207.28 L2292.75 1175.28 Z" fill="#009af9" fill-rule="evenodd" fill-opacity="1" stroke="#000000" stroke-opacity="1" stroke-width="3.2"/>
<path clip-path="url(#clip762)" d="M308.4 1368.24 L276.4 1368.24 L292.4 1400.24 L308.4 1368.24 Z" fill="#e26f46" fill-rule="evenodd" fill-opacity="1" stroke="#000000" stroke-opacity="1" stroke-width="3.2"/>
<path clip-path="url(#clip762)" d="M508.442 1280.53 L476.442 1280.53 L492.442 1312.53 L508.442 1280.53 Z" fill="#e26f46" fill-rule="evenodd" fill-opacity="1" stroke="#000000" stroke-opacity="1" stroke-width="3.2"/>
<path clip-path="url(#clip762)" d="M708.458 1280.53 L676.458 1280.53 L692.458 1312.53 L708.458 1280.53 Z" fill="#e26f46" fill-rule="evenodd" fill-opacity="1" stroke="#000000" stroke-opacity="1" stroke-width="3.2"/>
<path clip-path="url(#clip762)" d="M908.501 1280.53 L876.501 1280.53 L892.501 1312.53 L908.501 1280.53 Z" fill="#e26f46" fill-rule="evenodd" fill-opacity="1" stroke="#000000" stroke-opacity="1" stroke-width="3.2"/>
<path clip-path="url(#clip762)" d="M1108.54 1280.53 L1076.54 1280.53 L1092.54 1312.53 L1108.54 1280.53 Z" fill="#e26f46" fill-rule="evenodd" fill-opacity="1" stroke="#000000" stroke-opacity="1" stroke-width="3.2"/>
<path clip-path="url(#clip762)" d="M1308.56 1280.53 L1276.56 1280.53 L1292.56 1312.53 L1308.56 1280.53 Z" fill="#e26f46" fill-rule="evenodd" fill-opacity="1" stroke="#000000" stroke-opacity="1" stroke-width="3.2"/>
<path clip-path="url(#clip762)" d="M1508.6 1280.53 L1476.6 1280.53 L1492.6 1312.53 L1508.6 1280.53 Z" fill="#e26f46" fill-rule="evenodd" fill-opacity="1" stroke="#000000" stroke-opacity="1" stroke-width="3.2"/>
<path clip-path="url(#clip762)" d="M1708.64 1280.53 L1676.64 1280.53 L1692.64 1312.53 L1708.64 1280.53 Z" fill="#e26f46" fill-rule="evenodd" fill-opacity="1" stroke="#000000" stroke-opacity="1" stroke-width="3.2"/>
<path clip-path="url(#clip762)" d="M1908.69 1280.53 L1876.69 1280.53 L1892.69 1312.53 L1908.69 1280.53 Z" fill="#e26f46" fill-rule="evenodd" fill-opacity="1" stroke="#000000" stroke-opacity="1" stroke-width="3.2"/>
<path clip-path="url(#clip762)" d="M2108.7 1280.53 L2076.7 1280.53 L2092.7 1312.53 L2108.7 1280.53 Z" fill="#e26f46" fill-rule="evenodd" fill-opacity="1" stroke="#000000" stroke-opacity="1" stroke-width="3.2"/>
<path clip-path="url(#clip762)" d="M2308.75 1280.53 L2276.75 1280.53 L2292.75 1312.53 L2308.75 1280.53 Z" fill="#e26f46" fill-rule="evenodd" fill-opacity="1" stroke="#000000" stroke-opacity="1" stroke-width="3.2"/>
<polyline clip-path="url(#clip762)" style="stroke:#808080; stroke-linecap:round; stroke-linejoin:round; stroke-width:12; stroke-opacity:1; fill:none" stroke-dasharray="48, 30" points="2222.88,2799.12 2222.88,-1328.69 "/>
<path clip-path="url(#clip760)" d="M303.068 263.808 L737.223 263.808 L737.223 93.1086 L303.068 93.1086  Z" fill="#ffffff" fill-rule="evenodd" fill-opacity="1"/>
<polyline clip-path="url(#clip760)" style="stroke:#000000; stroke-linecap:round; stroke-linejoin:round; stroke-width:4; stroke-opacity:1; fill:none" points="303.068,263.808 737.223,263.808 737.223,93.1086 303.068,93.1086 303.068,263.808 "/>
<polyline clip-path="url(#clip760)" style="stroke:#009af9; stroke-linecap:round; stroke-linejoin:round; stroke-width:4; stroke-opacity:1; fill:none" points="326.628,150.008 467.986,150.008 "/>
<path clip-path="url(#clip760)" d="M397.307 130.134 L377.432 169.883 L417.181 169.883 L397.307 130.134 Z" fill="#009af9" fill-rule="evenodd" fill-opacity="1" stroke="#000000" stroke-opacity="1" stroke-width="4.55111"/>
<path clip-path="url(#clip760)" d="M516.607 140.989 Q516.607 144.409 514.874 147.711 Q513.164 151.014 510.471 153.052 Q507.777 155.066 505.037 155.066 Q503.397 155.066 502.296 154.176 Q501.219 153.262 500.633 151.974 Q500.188 153.567 499.228 157.385 Q498.268 161.203 498.268 161.577 Q498.268 161.788 498.314 161.882 Q498.361 161.976 498.572 162.093 Q498.783 162.233 499.298 162.28 Q499.813 162.35 500.68 162.35 Q501.125 162.35 501.289 162.35 Q501.476 162.374 501.64 162.491 Q501.828 162.608 501.828 162.866 Q501.828 163.826 500.961 163.826 Q500.188 163.826 498.595 163.756 Q497.003 163.685 496.206 163.685 Q495.527 163.685 494.169 163.756 Q492.81 163.826 492.178 163.826 Q491.545 163.826 491.545 163.264 Q491.545 162.936 491.639 162.725 Q491.709 162.538 491.897 162.444 Q492.084 162.374 492.248 162.35 Q492.388 162.35 492.67 162.35 Q493.747 162.35 494.215 162.163 Q494.684 161.999 494.848 161.648 Q495.035 161.32 495.246 160.383 L500.633 139.022 Q500.961 137.593 500.961 136.586 Q500.961 135.321 500.563 134.852 Q500.165 134.384 499.462 134.384 Q498.244 134.384 497.448 135.836 Q496.651 137.288 495.972 140.099 Q495.761 140.872 495.621 141.036 Q495.504 141.2 495.152 141.2 Q494.567 141.176 494.567 140.708 Q494.567 140.591 494.754 139.841 Q494.942 139.068 495.293 137.944 Q495.668 136.796 496.066 136.07 Q496.3 135.578 496.511 135.251 Q496.722 134.923 497.143 134.407 Q497.588 133.892 498.221 133.611 Q498.853 133.33 499.626 133.33 Q501.125 133.33 502.366 134.22 Q503.608 135.11 503.936 136.914 Q505.271 135.344 506.91 134.337 Q508.55 133.33 510.213 133.33 Q512.977 133.33 514.78 135.485 Q516.607 137.616 516.607 140.989 M513.141 138.881 Q513.141 136.75 512.321 135.578 Q511.525 134.384 510.072 134.384 Q508.269 134.384 506.184 136.211 Q504.123 137.944 503.702 139.56 L501.336 148.953 L501.195 149.726 Q501.195 149.866 501.266 150.288 Q501.359 150.686 501.617 151.342 Q501.898 151.998 502.273 152.583 Q502.671 153.145 503.374 153.567 Q504.1 153.988 504.99 153.988 Q506.419 153.988 507.964 152.724 Q509.534 151.459 510.705 149.07 Q511.431 147.524 512.274 144.198 Q513.141 140.849 513.141 138.881 Z" fill="#000000" fill-rule="nonzero" fill-opacity="1" /><path clip-path="url(#clip760)" d="M523.609 175.734 Q521.478 173.505 521.478 170.324 Q521.478 167.127 523.576 164.831 Q525.675 162.519 528.757 162.519 Q530.807 162.519 532.348 163.503 Q533.889 164.47 533.889 166.126 Q533.889 166.864 533.447 167.291 Q533.02 167.7 532.348 167.7 Q531.643 167.7 531.217 167.274 Q530.807 166.831 530.807 166.159 Q530.807 165.864 530.905 165.569 Q531.004 165.274 531.364 164.962 Q531.741 164.651 532.381 164.602 Q531.184 163.372 528.856 163.372 Q528.823 163.372 528.79 163.372 Q527.085 163.372 525.675 164.979 Q524.265 166.586 524.265 170.258 Q524.265 172.176 524.724 173.586 Q525.2 174.98 525.97 175.702 Q526.741 176.423 527.495 176.767 Q528.249 177.095 528.987 177.095 Q532.283 177.095 533.397 173.57 Q533.496 173.242 533.824 173.242 Q534.266 173.242 534.266 173.57 Q534.266 173.734 534.135 174.16 Q534.004 174.587 533.594 175.259 Q533.184 175.931 532.594 176.521 Q532.02 177.095 530.987 177.521 Q529.971 177.948 528.692 177.948 Q525.741 177.948 523.609 175.734 Z" fill="#000000" fill-rule="nonzero" fill-opacity="1" /><path clip-path="url(#clip760)" d="M535.879 177.571 L535.879 176.538 Q537.667 176.538 538.076 176.325 Q538.486 176.095 538.486 175.013 L538.486 157.551 Q538.486 156.305 538.044 155.994 Q537.617 155.682 535.879 155.682 L535.879 154.633 L540.7 154.272 L540.7 165.946 L540.733 165.946 Q541.274 164.733 542.487 163.733 Q543.7 162.733 545.569 162.733 Q548.094 162.733 549.094 163.979 Q549.832 164.815 549.98 165.749 Q550.144 166.684 550.144 169.11 L550.144 175.521 Q550.176 176.226 550.718 176.39 Q551.259 176.538 552.767 176.538 L552.767 177.571 Q549.34 177.472 548.996 177.472 Q548.734 177.472 545.209 177.571 L545.209 176.538 Q546.996 176.538 547.406 176.325 Q547.832 176.095 547.832 175.013 L547.832 167.192 Q547.832 165.487 547.307 164.487 Q546.783 163.47 545.34 163.47 Q543.602 163.47 542.208 164.93 Q540.815 166.389 540.815 168.848 L540.815 175.013 Q540.815 176.095 541.224 176.325 Q541.651 176.538 543.421 176.538 L543.421 177.571 Q539.995 177.472 539.667 177.472 Q539.404 177.472 535.879 177.571 Z" fill="#000000" fill-rule="nonzero" fill-opacity="1" /><path clip-path="url(#clip760)" d="M560.122 153.754 Q559.443 152.981 559.443 151.974 Q559.443 150.967 560.099 150.217 Q560.778 149.445 561.996 149.445 Q563.425 149.445 564.244 150.826 Q565.064 152.185 565.064 154.48 Q565.064 156.963 564.057 159.259 Q563.05 161.577 562.066 162.678 Q561.082 163.779 560.684 163.779 Q560.216 163.779 560.216 163.264 Q560.216 163.076 560.544 162.725 Q563.987 159.024 564.01 154.48 Q564.01 153.754 563.916 153.754 L563.799 153.848 Q562.98 154.527 561.996 154.527 Q560.801 154.527 560.122 153.754 Z" fill="#000000" fill-rule="nonzero" fill-opacity="1" /><path clip-path="url(#clip760)" d="M580.196 154.527 L580.196 153.052 L581.344 153.052 Q583.944 153.052 584.529 152.63 Q585.138 152.185 585.138 150.78 L585.138 125.507 Q585.138 124.125 584.529 123.703 Q583.92 123.258 581.344 123.258 L580.196 123.258 L580.196 121.759 L597.131 121.759 Q601.979 121.759 605.211 124.429 Q608.444 127.1 608.444 130.683 Q608.444 134.243 605.141 136.82 Q601.862 139.373 597.505 139.373 L589.401 139.373 L589.401 150.78 Q589.401 152.162 589.987 152.607 Q590.596 153.052 593.196 153.052 L594.343 153.052 L594.343 154.527 Q592.657 154.387 587.246 154.387 Q581.882 154.387 580.196 154.527 M589.261 138.132 L595.866 138.132 Q598.021 138.132 599.59 137.523 Q601.159 136.914 601.862 136.187 Q602.588 135.438 602.986 134.243 Q603.408 133.025 603.455 132.37 Q603.501 131.69 603.501 130.683 Q603.501 129.629 603.455 128.973 Q603.408 128.294 602.986 127.1 Q602.588 125.882 601.862 125.155 Q601.159 124.406 599.59 123.844 Q598.044 123.258 595.866 123.258 L591.603 123.258 Q589.963 123.258 589.612 123.586 Q589.261 123.914 589.261 125.179 L589.261 138.132 Z" fill="#000000" fill-rule="nonzero" fill-opacity="1" /><path clip-path="url(#clip760)" d="M617.857 154.527 L617.857 153.052 Q620.41 153.052 620.996 152.747 Q621.581 152.419 621.581 150.873 L621.581 137.968 Q621.581 136.187 620.972 135.766 Q620.387 135.344 618.045 135.344 L618.045 133.845 L624.743 133.33 L624.743 150.92 Q624.743 152.349 625.259 152.7 Q625.774 153.052 628.116 153.052 L628.116 154.527 Q623.221 154.387 623.127 154.387 Q622.471 154.387 617.857 154.527 M619.872 124.968 Q619.872 124.008 620.598 123.235 Q621.347 122.438 622.401 122.438 Q623.455 122.438 624.205 123.165 Q624.954 123.867 624.954 124.992 Q624.954 126.092 624.205 126.818 Q623.455 127.521 622.401 127.521 Q621.3 127.521 620.574 126.748 Q619.872 125.975 619.872 124.968 Z" fill="#000000" fill-rule="nonzero" fill-opacity="1" /><path clip-path="url(#clip760)" d="M631.392 154.527 L631.392 153.052 Q633.945 153.052 634.53 152.747 Q635.139 152.419 635.139 150.873 L635.139 138.014 Q635.139 136.234 634.507 135.789 Q633.898 135.344 631.392 135.344 L631.392 133.845 L638.067 133.33 L638.067 138.6 Q638.747 136.539 640.175 134.946 Q641.627 133.33 643.97 133.33 Q645.516 133.33 646.499 134.197 Q647.507 135.063 647.507 136.258 Q647.507 137.312 646.851 137.85 Q646.218 138.366 645.445 138.366 Q644.579 138.366 643.97 137.827 Q643.384 137.265 643.384 136.305 Q643.384 135.719 643.642 135.274 Q643.923 134.806 644.134 134.642 Q644.344 134.478 644.485 134.431 Q644.391 134.384 643.97 134.384 Q641.323 134.384 639.801 137.031 Q638.301 139.654 638.301 143.402 L638.301 150.78 Q638.301 152.162 638.864 152.607 Q639.449 153.052 641.955 153.052 L642.963 153.052 L642.963 154.527 Q641.042 154.387 636.873 154.387 Q636.287 154.387 635.374 154.41 Q634.46 154.434 633.266 154.48 Q632.071 154.527 631.392 154.527 Z" fill="#000000" fill-rule="nonzero" fill-opacity="1" /><path clip-path="url(#clip760)" d="M651.376 149.96 Q651.376 145.884 656.177 143.729 Q659.058 142.348 665.007 141.996 L665.007 140.24 Q665.007 137.265 663.438 135.696 Q661.892 134.103 659.925 134.103 Q656.411 134.103 654.725 136.305 Q656.154 136.351 656.669 137.077 Q657.184 137.78 657.184 138.506 Q657.184 139.467 656.575 140.099 Q655.99 140.708 654.983 140.708 Q654.022 140.708 653.39 140.122 Q652.757 139.513 652.757 138.459 Q652.757 136.117 654.865 134.571 Q656.997 133.025 660.018 133.025 Q663.953 133.025 666.577 135.672 Q667.397 136.492 667.795 137.546 Q668.216 138.6 668.263 139.303 Q668.31 139.982 668.31 141.34 L668.31 150.92 Q668.31 151.201 668.404 151.67 Q668.497 152.138 668.919 152.747 Q669.364 153.333 670.09 153.333 Q671.823 153.333 671.8 150.264 L671.8 147.571 L673.018 147.571 L673.018 150.264 Q673.018 152.817 671.659 153.825 Q670.324 154.808 669.083 154.808 Q667.49 154.808 666.483 153.637 Q665.476 152.466 665.335 150.873 Q664.609 152.7 662.946 153.895 Q661.307 155.066 659.058 155.066 Q657.325 155.066 655.685 154.621 Q654.069 154.199 652.711 153.005 Q651.376 151.787 651.376 149.96 M655.076 149.913 Q655.076 151.693 656.341 152.841 Q657.606 153.988 659.386 153.988 Q661.4 153.988 663.204 152.443 Q665.007 150.873 665.007 147.805 L665.007 143.003 Q659.691 143.191 657.372 145.322 Q655.076 147.43 655.076 149.913 Z" fill="#000000" fill-rule="nonzero" fill-opacity="1" /><path clip-path="url(#clip760)" d="M673.974 154.527 L673.974 153.052 Q676.527 153.052 677.112 152.747 Q677.698 152.419 677.698 150.873 L677.698 138.014 Q677.698 136.234 677.065 135.789 Q676.456 135.344 673.974 135.344 L673.974 133.845 L680.719 133.33 L680.719 138.366 Q682.968 133.33 687.816 133.33 Q691.423 133.33 692.852 135.11 Q693.906 136.305 694.117 137.64 Q694.351 138.975 694.351 142.441 L694.351 151.599 Q694.398 152.607 695.171 152.841 Q695.944 153.052 698.099 153.052 L698.099 154.527 Q693.203 154.387 692.712 154.387 Q692.337 154.387 687.301 154.527 L687.301 153.052 Q689.854 153.052 690.44 152.747 Q691.049 152.419 691.049 150.873 L691.049 139.701 Q691.049 137.265 690.299 135.836 Q689.549 134.384 687.488 134.384 Q685.006 134.384 683.015 136.469 Q681.024 138.553 681.024 142.066 L681.024 150.873 Q681.024 152.419 681.609 152.747 Q682.218 153.052 684.748 153.052 L684.748 154.527 Q679.853 154.387 679.384 154.387 Q679.009 154.387 673.974 154.527 Z" fill="#000000" fill-rule="nonzero" fill-opacity="1" /><path clip-path="url(#clip760)" d="M700.513 154.527 L700.513 153.052 Q703.066 153.052 703.652 152.747 Q704.237 152.419 704.237 150.873 L704.237 137.968 Q704.237 136.187 703.628 135.766 Q703.043 135.344 700.701 135.344 L700.701 133.845 L707.399 133.33 L707.399 150.92 Q707.399 152.349 707.915 152.7 Q708.43 153.052 710.772 153.052 L710.772 154.527 Q705.877 154.387 705.783 154.387 Q705.127 154.387 700.513 154.527 M702.528 124.968 Q702.528 124.008 703.254 123.235 Q704.003 122.438 705.057 122.438 Q706.111 122.438 706.861 123.165 Q707.61 123.867 707.61 124.992 Q707.61 126.092 706.861 126.818 Q706.111 127.521 705.057 127.521 Q703.956 127.521 703.23 126.748 Q702.528 125.975 702.528 124.968 Z" fill="#000000" fill-rule="nonzero" fill-opacity="1" /><polyline clip-path="url(#clip760)" style="stroke:#e26f46; stroke-linecap:round; stroke-linejoin:round; stroke-width:4; stroke-opacity:1; fill:none" points="326.628,206.908 467.986,206.908 "/>
<path clip-path="url(#clip760)" d="M417.181 187.033 L377.432 187.033 L397.307 226.783 L417.181 187.033 Z" fill="#e26f46" fill-rule="evenodd" fill-opacity="1" stroke="#000000" stroke-opacity="1" stroke-width="4.55111"/>
<path clip-path="url(#clip760)" d="M516.607 198.404 Q516.607 201.824 514.874 205.127 Q513.164 208.429 510.471 210.467 Q507.777 212.481 505.037 212.481 Q503.397 212.481 502.296 211.591 Q501.219 210.678 500.633 209.389 Q500.188 210.982 499.228 214.8 Q498.268 218.618 498.268 218.993 Q498.268 219.203 498.314 219.297 Q498.361 219.391 498.572 219.508 Q498.783 219.649 499.298 219.695 Q499.813 219.766 500.68 219.766 Q501.125 219.766 501.289 219.766 Q501.476 219.789 501.64 219.906 Q501.828 220.023 501.828 220.281 Q501.828 221.241 500.961 221.241 Q500.188 221.241 498.595 221.171 Q497.003 221.101 496.206 221.101 Q495.527 221.101 494.169 221.171 Q492.81 221.241 492.178 221.241 Q491.545 221.241 491.545 220.679 Q491.545 220.351 491.639 220.14 Q491.709 219.953 491.897 219.859 Q492.084 219.789 492.248 219.766 Q492.388 219.766 492.67 219.766 Q493.747 219.766 494.215 219.578 Q494.684 219.414 494.848 219.063 Q495.035 218.735 495.246 217.798 L500.633 196.437 Q500.961 195.008 500.961 194.001 Q500.961 192.736 500.563 192.268 Q500.165 191.799 499.462 191.799 Q498.244 191.799 497.448 193.251 Q496.651 194.704 495.972 197.514 Q495.761 198.287 495.621 198.451 Q495.504 198.615 495.152 198.615 Q494.567 198.592 494.567 198.123 Q494.567 198.006 494.754 197.257 Q494.942 196.484 495.293 195.359 Q495.668 194.212 496.066 193.486 Q496.3 192.994 496.511 192.666 Q496.722 192.338 497.143 191.823 Q497.588 191.307 498.221 191.026 Q498.853 190.745 499.626 190.745 Q501.125 190.745 502.366 191.635 Q503.608 192.525 503.936 194.329 Q505.271 192.76 506.91 191.752 Q508.55 190.745 510.213 190.745 Q512.977 190.745 514.78 192.9 Q516.607 195.032 516.607 198.404 M513.141 196.296 Q513.141 194.165 512.321 192.994 Q511.525 191.799 510.072 191.799 Q508.269 191.799 506.184 193.626 Q504.123 195.359 503.702 196.976 L501.336 206.368 L501.195 207.141 Q501.195 207.281 501.266 207.703 Q501.359 208.101 501.617 208.757 Q501.898 209.413 502.273 209.998 Q502.671 210.561 503.374 210.982 Q504.1 211.404 504.99 211.404 Q506.419 211.404 507.964 210.139 Q509.534 208.874 510.705 206.485 Q511.431 204.939 512.274 201.613 Q513.141 198.264 513.141 196.296 Z" fill="#000000" fill-rule="nonzero" fill-opacity="1" /><path clip-path="url(#clip760)" d="M523.609 233.15 Q521.478 230.92 521.478 227.739 Q521.478 224.542 523.576 222.246 Q525.675 219.935 528.757 219.935 Q530.807 219.935 532.348 220.918 Q533.889 221.886 533.889 223.542 Q533.889 224.28 533.447 224.706 Q533.02 225.116 532.348 225.116 Q531.643 225.116 531.217 224.689 Q530.807 224.247 530.807 223.575 Q530.807 223.279 530.905 222.984 Q531.004 222.689 531.364 222.378 Q531.741 222.066 532.381 222.017 Q531.184 220.787 528.856 220.787 Q528.823 220.787 528.79 220.787 Q527.085 220.787 525.675 222.394 Q524.265 224.001 524.265 227.673 Q524.265 229.592 524.724 231.002 Q525.2 232.395 525.97 233.117 Q526.741 233.838 527.495 234.183 Q528.249 234.51 528.987 234.51 Q532.283 234.51 533.397 230.985 Q533.496 230.657 533.824 230.657 Q534.266 230.657 534.266 230.985 Q534.266 231.149 534.135 231.576 Q534.004 232.002 533.594 232.674 Q533.184 233.346 532.594 233.937 Q532.02 234.51 530.987 234.937 Q529.971 235.363 528.692 235.363 Q525.741 235.363 523.609 233.15 Z" fill="#000000" fill-rule="nonzero" fill-opacity="1" /><path clip-path="url(#clip760)" d="M535.879 234.986 L535.879 233.953 Q537.667 233.953 538.076 233.74 Q538.486 233.51 538.486 232.428 L538.486 214.967 Q538.486 213.721 538.044 213.409 Q537.617 213.098 535.879 213.098 L535.879 212.048 L540.7 211.688 L540.7 223.361 L540.733 223.361 Q541.274 222.148 542.487 221.148 Q543.7 220.148 545.569 220.148 Q548.094 220.148 549.094 221.394 Q549.832 222.23 549.98 223.165 Q550.144 224.099 550.144 226.526 L550.144 232.936 Q550.176 233.642 550.718 233.805 Q551.259 233.953 552.767 233.953 L552.767 234.986 Q549.34 234.888 548.996 234.888 Q548.734 234.888 545.209 234.986 L545.209 233.953 Q546.996 233.953 547.406 233.74 Q547.832 233.51 547.832 232.428 L547.832 224.607 Q547.832 222.902 547.307 221.902 Q546.783 220.886 545.34 220.886 Q543.602 220.886 542.208 222.345 Q540.815 223.804 540.815 226.263 L540.815 232.428 Q540.815 233.51 541.224 233.74 Q541.651 233.953 543.421 233.953 L543.421 234.986 Q539.995 234.888 539.667 234.888 Q539.404 234.888 535.879 234.986 Z" fill="#000000" fill-rule="nonzero" fill-opacity="1" /><path clip-path="url(#clip760)" d="M560.122 211.17 Q559.443 210.397 559.443 209.389 Q559.443 208.382 560.099 207.633 Q560.778 206.86 561.996 206.86 Q563.425 206.86 564.244 208.242 Q565.064 209.6 565.064 211.896 Q565.064 214.378 564.057 216.674 Q563.05 218.993 562.066 220.094 Q561.082 221.194 560.684 221.194 Q560.216 221.194 560.216 220.679 Q560.216 220.492 560.544 220.14 Q563.987 216.44 564.01 211.896 Q564.01 211.17 563.916 211.17 L563.799 211.263 Q562.98 211.943 561.996 211.943 Q560.801 211.943 560.122 211.17 Z" fill="#000000" fill-rule="nonzero" fill-opacity="1" /><path clip-path="url(#clip760)" d="M580.196 195.547 Q580.196 188.309 585.138 183.227 Q590.08 178.121 596.873 178.121 Q598.981 178.121 600.855 178.893 Q602.728 179.666 603.595 180.346 Q604.462 181.001 605.703 182.243 L608.116 178.706 Q608.49 178.121 608.865 178.121 Q609.263 178.121 609.334 178.355 Q609.404 178.566 609.404 179.268 L609.404 190.652 Q609.404 191.424 609.31 191.612 Q609.216 191.799 608.631 191.799 Q608.162 191.799 608.045 191.659 Q607.952 191.518 607.858 190.979 Q607.132 185.803 604.251 182.711 Q601.393 179.62 597.412 179.62 Q596.264 179.62 594.976 179.877 Q593.711 180.135 591.86 181.119 Q590.034 182.102 588.605 183.742 Q587.199 185.358 586.169 188.45 Q585.138 191.518 585.138 195.594 Q585.138 199.622 586.169 202.714 Q587.199 205.806 588.605 207.422 Q590.034 209.015 591.86 209.998 Q593.711 210.982 594.999 211.263 Q596.311 211.521 597.458 211.521 Q601.581 211.521 604.743 208.593 Q607.905 205.665 608.209 200.723 Q608.256 200.489 608.256 200.395 Q608.256 200.278 608.303 200.161 Q608.35 200.044 608.467 199.997 Q608.584 199.95 608.771 199.95 Q609.404 199.95 609.404 200.77 Q609.404 205.337 605.89 209.179 Q602.401 212.997 596.873 212.997 Q590.057 212.997 585.115 207.937 Q580.196 202.878 580.196 195.547 Z" fill="#000000" fill-rule="nonzero" fill-opacity="1" /><path clip-path="url(#clip760)" d="M617.356 211.943 L617.356 210.467 Q619.089 210.467 620.19 210.139 Q621.291 209.788 621.689 209.155 Q622.111 208.499 622.204 208.078 Q622.298 207.633 622.298 206.907 L622.298 182.922 Q622.298 181.54 621.689 181.119 Q621.103 180.674 618.504 180.674 L617.356 180.674 L617.356 179.175 L625.46 179.175 Q626.327 179.175 626.561 179.338 Q626.795 179.479 627.146 180.229 L637.546 207.094 L648.039 180.088 Q648.273 179.409 648.484 179.292 Q648.719 179.175 649.632 179.175 L657.736 179.175 L657.736 180.674 L656.588 180.674 Q653.989 180.674 653.38 181.119 Q652.794 181.54 652.794 182.922 L652.794 208.195 Q652.794 209.577 653.38 210.022 Q653.989 210.467 656.588 210.467 L657.736 210.467 L657.736 211.943 Q655.956 211.802 650.873 211.802 Q645.744 211.802 643.964 211.943 L643.964 210.467 L645.135 210.467 Q647.735 210.467 648.32 210.045 Q648.906 209.6 648.906 208.195 L648.906 180.674 L648.859 180.674 L637.078 211.029 Q636.75 211.943 636.211 211.943 Q635.625 211.943 635.251 210.889 L623.68 181.048 L623.633 181.048 L623.633 206.907 Q623.633 207.633 623.727 208.078 Q623.82 208.499 624.219 209.155 Q624.64 209.788 625.741 210.139 Q626.842 210.467 628.575 210.467 L628.575 211.943 Q623.539 211.802 622.954 211.802 Q622.392 211.802 617.356 211.943 Z" fill="#000000" fill-rule="nonzero" fill-opacity="1" /></svg>
