<?xml version="1.0" encoding="utf-8"?>
<svg xmlns="http://www.w3.org/2000/svg" xmlns:xlink="http://www.w3.org/1999/xlink" width="600" height="400" viewBox="0 0 2400 1600">
<defs>
  <clipPath id="clip950">
    <rect x="0" y="0" width="2400" height="1600"/>
  </clipPath>
</defs>
<path clip-path="url(#clip950)" d="M0 1600 L2400 1600 L2400 0 L0 0  Z" fill="#ffffff" fill-rule="evenodd" fill-opacity="1"/>
<defs>
  <clipPath id="clip951">
    <rect x="232" y="47" width="2121" height="1377"/>
  </clipPath>
</defs>
<path clip-path="url(#clip950)" d="M242.135 1423.18 L2352.76 1423.18 L2352.76 47.2441 L242.135 47.2441  Z" fill="#ffffff" fill-rule="evenodd" fill-opacity="1"/>
<defs>
  <clipPath id="clip952">
    <rect x="242" y="47" width="2112" height="1377"/>
  </clipPath>
</defs>
<polyline clip-path="url(#clip952)" style="stroke:#000000; stroke-linecap:round; stroke-linejoin:round; stroke-width:2; stroke-opacity:0.1; fill:none" points="301.869,1423.18 301.869,47.2441 "/>
<polyline clip-path="url(#clip952)" style="stroke:#000000; stroke-linecap:round; stroke-linejoin:round; stroke-width:2; stroke-opacity:0.1; fill:none" points="716.597,1423.18 716.597,47.2441 "/>
<polyline clip-path="url(#clip952)" style="stroke:#000000; stroke-linecap:round; stroke-linejoin:round; stroke-width:2; stroke-opacity:0.1; fill:none" points="1131.32,1423.18 1131.32,47.2441 "/>
<polyline clip-path="url(#clip952)" style="stroke:#000000; stroke-linecap:round; stroke-linejoin:round; stroke-width:2; stroke-opacity:0.1; fill:none" points="1546.05,1423.18 1546.05,47.2441 "/>
<polyline clip-path="url(#clip952)" style="stroke:#000000; stroke-linecap:round; stroke-linejoin:round; stroke-width:2; stroke-opacity:0.1; fill:none" points="1960.78,1423.18 1960.78,47.2441 "/>
<polyline clip-path="url(#clip952)" style="stroke:#000000; stroke-linecap:round; stroke-linejoin:round; stroke-width:2; stroke-opacity:0.1; fill:none" points="242.135,1402.81 2352.76,1402.81 "/>
<polyline clip-path="url(#clip952)" style="stroke:#000000; stroke-linecap:round; stroke-linejoin:round; stroke-width:2; stroke-opacity:0.1; fill:none" points="242.135,1196.44 2352.76,1196.44 "/>
<polyline clip-path="url(#clip952)" style="stroke:#000000; stroke-linecap:round; stroke-linejoin:round; stroke-width:2; stroke-opacity:0.1; fill:none" points="242.135,990.076 2352.76,990.076 "/>
<polyline clip-path="url(#clip952)" style="stroke:#000000; stroke-linecap:round; stroke-linejoin:round; stroke-width:2; stroke-opacity:0.1; fill:none" points="242.135,783.708 2352.76,783.708 "/>
<polyline clip-path="url(#clip952)" style="stroke:#000000; stroke-linecap:round; stroke-linejoin:round; stroke-width:2; stroke-opacity:0.1; fill:none" points="242.135,577.341 2352.76,577.341 "/>
<polyline clip-path="url(#clip952)" style="stroke:#000000; stroke-linecap:round; stroke-linejoin:round; stroke-width:2; stroke-opacity:0.1; fill:none" points="242.135,370.973 2352.76,370.973 "/>
<polyline clip-path="url(#clip952)" style="stroke:#000000; stroke-linecap:round; stroke-linejoin:round; stroke-width:2; stroke-opacity:0.1; fill:none" points="242.135,164.605 2352.76,164.605 "/>
<polyline clip-path="url(#clip950)" style="stroke:#000000; stroke-linecap:round; stroke-linejoin:round; stroke-width:4; stroke-opacity:1; fill:none" points="242.135,1423.18 2352.76,1423.18 "/>
<polyline clip-path="url(#clip950)" style="stroke:#000000; stroke-linecap:round; stroke-linejoin:round; stroke-width:4; stroke-opacity:1; fill:none" points="301.869,1423.18 301.869,1404.28 "/>
<polyline clip-path="url(#clip950)" style="stroke:#000000; stroke-linecap:round; stroke-linejoin:round; stroke-width:4; stroke-opacity:1; fill:none" points="716.597,1423.18 716.597,1404.28 "/>
<polyline clip-path="url(#clip950)" style="stroke:#000000; stroke-linecap:round; stroke-linejoin:round; stroke-width:4; stroke-opacity:1; fill:none" points="1131.32,1423.18 1131.32,1404.28 "/>
<polyline clip-path="url(#clip950)" style="stroke:#000000; stroke-linecap:round; stroke-linejoin:round; stroke-width:4; stroke-opacity:1; fill:none" points="1546.05,1423.18 1546.05,1404.28 "/>
<polyline clip-path="url(#clip950)" style="stroke:#000000; stroke-linecap:round; stroke-linejoin:round; stroke-width:4; stroke-opacity:1; fill:none" points="1960.78,1423.18 1960.78,1404.28 "/>
<path clip-path="url(#clip950)" d="M301.869 1454.1 Q298.258 1454.1 296.429 1457.66 Q294.624 1461.2 294.624 1468.33 Q294.624 1475.44 296.429 1479.01 Q298.258 1482.55 301.869 1482.55 Q305.503 1482.55 307.309 1479.01 Q309.138 1475.44 309.138 1468.33 Q309.138 1461.2 307.309 1457.66 Q305.503 1454.1 301.869 1454.1 M301.869 1450.39 Q307.679 1450.39 310.735 1455 Q313.814 1459.58 313.814 1468.33 Q313.814 1477.06 310.735 1481.67 Q307.679 1486.25 301.869 1486.25 Q296.059 1486.25 292.98 1481.67 Q289.925 1477.06 289.925 1468.33 Q289.925 1459.58 292.98 1455 Q296.059 1450.39 301.869 1450.39 Z" fill="#000000" fill-rule="nonzero" fill-opacity="1" /><path clip-path="url(#clip950)" d="M691.284 1481.64 L698.923 1481.64 L698.923 1455.28 L690.613 1456.95 L690.613 1452.69 L698.877 1451.02 L703.553 1451.02 L703.553 1481.64 L711.192 1481.64 L711.192 1485.58 L691.284 1485.58 L691.284 1481.64 Z" fill="#000000" fill-rule="nonzero" fill-opacity="1" /><path clip-path="url(#clip950)" d="M730.636 1454.1 Q727.025 1454.1 725.196 1457.66 Q723.391 1461.2 723.391 1468.33 Q723.391 1475.44 725.196 1479.01 Q727.025 1482.55 730.636 1482.55 Q734.27 1482.55 736.076 1479.01 Q737.904 1475.44 737.904 1468.33 Q737.904 1461.2 736.076 1457.66 Q734.27 1454.1 730.636 1454.1 M730.636 1450.39 Q736.446 1450.39 739.502 1455 Q742.58 1459.58 742.58 1468.33 Q742.58 1477.06 739.502 1481.67 Q736.446 1486.25 730.636 1486.25 Q724.826 1486.25 721.747 1481.67 Q718.691 1477.06 718.691 1468.33 Q718.691 1459.58 721.747 1455 Q724.826 1450.39 730.636 1450.39 Z" fill="#000000" fill-rule="nonzero" fill-opacity="1" /><path clip-path="url(#clip950)" d="M1110.1 1481.64 L1126.42 1481.64 L1126.42 1485.58 L1104.47 1485.58 L1104.47 1481.64 Q1107.13 1478.89 1111.72 1474.26 Q1116.32 1469.61 1117.5 1468.27 Q1119.75 1465.74 1120.63 1464.01 Q1121.53 1462.25 1121.53 1460.56 Q1121.53 1457.8 1119.59 1456.07 Q1117.67 1454.33 1114.56 1454.33 Q1112.37 1454.33 1109.91 1455.09 Q1107.48 1455.86 1104.7 1457.41 L1104.7 1452.69 Q1107.53 1451.55 1109.98 1450.97 Q1112.44 1450.39 1114.47 1450.39 Q1119.84 1450.39 1123.04 1453.08 Q1126.23 1455.77 1126.23 1460.26 Q1126.23 1462.39 1125.42 1464.31 Q1124.63 1466.2 1122.53 1468.8 Q1121.95 1469.47 1118.85 1472.69 Q1115.75 1475.88 1110.1 1481.64 Z" fill="#000000" fill-rule="nonzero" fill-opacity="1" /><path clip-path="url(#clip950)" d="M1146.23 1454.1 Q1142.62 1454.1 1140.79 1457.66 Q1138.99 1461.2 1138.99 1468.33 Q1138.99 1475.44 1140.79 1479.01 Q1142.62 1482.55 1146.23 1482.55 Q1149.87 1482.55 1151.67 1479.01 Q1153.5 1475.44 1153.5 1468.33 Q1153.5 1461.2 1151.67 1457.66 Q1149.87 1454.1 1146.23 1454.1 M1146.23 1450.39 Q1152.04 1450.39 1155.1 1455 Q1158.18 1459.58 1158.18 1468.33 Q1158.18 1477.06 1155.1 1481.67 Q1152.04 1486.25 1146.23 1486.25 Q1140.42 1486.25 1137.34 1481.67 Q1134.29 1477.06 1134.29 1468.33 Q1134.29 1459.58 1137.34 1455 Q1140.42 1450.39 1146.23 1450.39 Z" fill="#000000" fill-rule="nonzero" fill-opacity="1" /><path clip-path="url(#clip950)" d="M1534.89 1466.95 Q1538.25 1467.66 1540.13 1469.93 Q1542.02 1472.2 1542.02 1475.53 Q1542.02 1480.65 1538.51 1483.45 Q1534.99 1486.25 1528.51 1486.25 Q1526.33 1486.25 1524.01 1485.81 Q1521.72 1485.39 1519.27 1484.54 L1519.27 1480.02 Q1521.21 1481.16 1523.53 1481.74 Q1525.84 1482.32 1528.37 1482.32 Q1532.76 1482.32 1535.06 1480.58 Q1537.37 1478.84 1537.37 1475.53 Q1537.37 1472.48 1535.22 1470.77 Q1533.09 1469.03 1529.27 1469.03 L1525.24 1469.03 L1525.24 1465.19 L1529.45 1465.19 Q1532.9 1465.19 1534.73 1463.82 Q1536.56 1462.43 1536.56 1459.84 Q1536.56 1457.18 1534.66 1455.77 Q1532.79 1454.33 1529.27 1454.33 Q1527.35 1454.33 1525.15 1454.75 Q1522.95 1455.16 1520.31 1456.04 L1520.31 1451.88 Q1522.97 1451.14 1525.29 1450.77 Q1527.63 1450.39 1529.69 1450.39 Q1535.01 1450.39 1538.11 1452.83 Q1541.21 1455.23 1541.21 1459.35 Q1541.21 1462.22 1539.57 1464.21 Q1537.93 1466.18 1534.89 1466.95 Z" fill="#000000" fill-rule="nonzero" fill-opacity="1" /><path clip-path="url(#clip950)" d="M1560.89 1454.1 Q1557.28 1454.1 1555.45 1457.66 Q1553.64 1461.2 1553.64 1468.33 Q1553.64 1475.44 1555.45 1479.01 Q1557.28 1482.55 1560.89 1482.55 Q1564.52 1482.55 1566.33 1479.01 Q1568.16 1475.44 1568.16 1468.33 Q1568.16 1461.2 1566.33 1457.66 Q1564.52 1454.1 1560.89 1454.1 M1560.89 1450.39 Q1566.7 1450.39 1569.75 1455 Q1572.83 1459.58 1572.83 1468.33 Q1572.83 1477.06 1569.75 1481.67 Q1566.7 1486.25 1560.89 1486.25 Q1555.08 1486.25 1552 1481.67 Q1548.94 1477.06 1548.94 1468.33 Q1548.94 1459.58 1552 1455 Q1555.08 1450.39 1560.89 1450.39 Z" fill="#000000" fill-rule="nonzero" fill-opacity="1" /><path clip-path="url(#clip950)" d="M1948.95 1455.09 L1937.14 1473.54 L1948.95 1473.54 L1948.95 1455.09 M1947.72 1451.02 L1953.6 1451.02 L1953.6 1473.54 L1958.53 1473.54 L1958.53 1477.43 L1953.6 1477.43 L1953.6 1485.58 L1948.95 1485.58 L1948.95 1477.43 L1933.35 1477.43 L1933.35 1472.92 L1947.72 1451.02 Z" fill="#000000" fill-rule="nonzero" fill-opacity="1" /><path clip-path="url(#clip950)" d="M1976.26 1454.1 Q1972.65 1454.1 1970.82 1457.66 Q1969.02 1461.2 1969.02 1468.33 Q1969.02 1475.44 1970.82 1479.01 Q1972.65 1482.55 1976.26 1482.55 Q1979.9 1482.55 1981.7 1479.01 Q1983.53 1475.44 1983.53 1468.33 Q1983.53 1461.2 1981.7 1457.66 Q1979.9 1454.1 1976.26 1454.1 M1976.26 1450.39 Q1982.07 1450.39 1985.13 1455 Q1988.21 1459.58 1988.21 1468.33 Q1988.21 1477.06 1985.13 1481.67 Q1982.07 1486.25 1976.26 1486.25 Q1970.45 1486.25 1967.38 1481.67 Q1964.32 1477.06 1964.32 1468.33 Q1964.32 1459.58 1967.38 1455 Q1970.45 1450.39 1976.26 1450.39 Z" fill="#000000" fill-rule="nonzero" fill-opacity="1" /><path clip-path="url(#clip950)" d="M1296.2 1546.53 L1296.2 1568.04 L1290.35 1568.04 L1290.35 1546.72 Q1290.35 1541.66 1288.37 1539.14 Q1286.4 1536.63 1282.45 1536.63 Q1277.71 1536.63 1274.97 1539.65 Q1272.24 1542.68 1272.24 1547.9 L1272.24 1568.04 L1266.35 1568.04 L1266.35 1518.52 L1272.24 1518.52 L1272.24 1537.93 Q1274.34 1534.72 1277.17 1533.13 Q1280.04 1531.54 1283.76 1531.54 Q1289.9 1531.54 1293.05 1535.36 Q1296.2 1539.14 1296.2 1546.53 Z" fill="#000000" fill-rule="nonzero" fill-opacity="1" /><path clip-path="url(#clip950)" d="M1328.54 1537.87 Q1327.56 1537.3 1326.38 1537.04 Q1325.23 1536.76 1323.83 1536.76 Q1318.87 1536.76 1316.19 1540 Q1313.55 1543.22 1313.55 1549.27 L1313.55 1568.04 L1307.66 1568.04 L1307.66 1532.4 L1313.55 1532.4 L1313.55 1537.93 Q1315.4 1534.69 1318.36 1533.13 Q1321.32 1531.54 1325.55 1531.54 Q1326.15 1531.54 1326.89 1531.63 Q1327.62 1531.7 1328.51 1531.85 L1328.54 1537.87 Z" fill="#000000" fill-rule="nonzero" fill-opacity="1" /><polyline clip-path="url(#clip950)" style="stroke:#000000; stroke-linecap:round; stroke-linejoin:round; stroke-width:4; stroke-opacity:1; fill:none" points="242.135,1423.18 242.135,47.2441 "/>
<polyline clip-path="url(#clip950)" style="stroke:#000000; stroke-linecap:round; stroke-linejoin:round; stroke-width:4; stroke-opacity:1; fill:none" points="242.135,1402.81 261.032,1402.81 "/>
<polyline clip-path="url(#clip950)" style="stroke:#000000; stroke-linecap:round; stroke-linejoin:round; stroke-width:4; stroke-opacity:1; fill:none" points="242.135,1196.44 261.032,1196.44 "/>
<polyline clip-path="url(#clip950)" style="stroke:#000000; stroke-linecap:round; stroke-linejoin:round; stroke-width:4; stroke-opacity:1; fill:none" points="242.135,990.076 261.032,990.076 "/>
<polyline clip-path="url(#clip950)" style="stroke:#000000; stroke-linecap:round; stroke-linejoin:round; stroke-width:4; stroke-opacity:1; fill:none" points="242.135,783.708 261.032,783.708 "/>
<polyline clip-path="url(#clip950)" style="stroke:#000000; stroke-linecap:round; stroke-linejoin:round; stroke-width:4; stroke-opacity:1; fill:none" points="242.135,577.341 261.032,577.341 "/>
<polyline clip-path="url(#clip950)" style="stroke:#000000; stroke-linecap:round; stroke-linejoin:round; stroke-width:4; stroke-opacity:1; fill:none" points="242.135,370.973 261.032,370.973 "/>
<polyline clip-path="url(#clip950)" style="stroke:#000000; stroke-linecap:round; stroke-linejoin:round; stroke-width:4; stroke-opacity:1; fill:none" points="242.135,164.605 261.032,164.605 "/>
<path clip-path="url(#clip950)" d="M114.26 1403.26 L143.936 1403.26 L143.936 1407.2 L114.26 1407.2 L114.26 1403.26 Z" fill="#000000" fill-rule="nonzero" fill-opacity="1" /><path clip-path="url(#clip950)" d="M166.876 1389.61 L155.07 1408.05 L166.876 1408.05 L166.876 1389.61 M165.649 1385.53 L171.528 1385.53 L171.528 1408.05 L176.459 1408.05 L176.459 1411.94 L171.528 1411.94 L171.528 1420.09 L166.876 1420.09 L166.876 1411.94 L151.274 1411.94 L151.274 1407.43 L165.649 1385.53 Z" fill="#000000" fill-rule="nonzero" fill-opacity="1" /><path clip-path="url(#clip950)" d="M194.19 1388.61 Q190.579 1388.61 188.75 1392.17 Q186.945 1395.72 186.945 1402.85 Q186.945 1409.95 188.75 1413.52 Q190.579 1417.06 194.19 1417.06 Q197.825 1417.06 199.63 1413.52 Q201.459 1409.95 201.459 1402.85 Q201.459 1395.72 199.63 1392.17 Q197.825 1388.61 194.19 1388.61 M194.19 1384.91 Q200 1384.91 203.056 1389.51 Q206.135 1394.1 206.135 1402.85 Q206.135 1411.57 203.056 1416.18 Q200 1420.76 194.19 1420.76 Q188.38 1420.76 185.301 1416.18 Q182.246 1411.57 182.246 1402.85 Q182.246 1394.1 185.301 1389.51 Q188.38 1384.91 194.19 1384.91 Z" fill="#000000" fill-rule="nonzero" fill-opacity="1" /><path clip-path="url(#clip950)" d="M114.26 1196.9 L143.936 1196.9 L143.936 1200.83 L114.26 1200.83 L114.26 1196.9 Z" fill="#000000" fill-rule="nonzero" fill-opacity="1" /><path clip-path="url(#clip950)" d="M168.195 1195.09 Q171.552 1195.81 173.427 1198.08 Q175.325 1200.34 175.325 1203.68 Q175.325 1208.79 171.806 1211.59 Q168.288 1214.39 161.806 1214.39 Q159.63 1214.39 157.315 1213.96 Q155.024 1213.54 152.57 1212.68 L152.57 1208.17 Q154.515 1209.3 156.829 1209.88 Q159.144 1210.46 161.667 1210.46 Q166.065 1210.46 168.357 1208.72 Q170.672 1206.99 170.672 1203.68 Q170.672 1200.62 168.519 1198.91 Q166.39 1197.17 162.57 1197.17 L158.542 1197.17 L158.542 1193.33 L162.755 1193.33 Q166.204 1193.33 168.033 1191.96 Q169.862 1190.58 169.862 1187.98 Q169.862 1185.32 167.964 1183.91 Q166.089 1182.47 162.57 1182.47 Q160.649 1182.47 158.45 1182.89 Q156.251 1183.31 153.612 1184.19 L153.612 1180.02 Q156.274 1179.28 158.589 1178.91 Q160.927 1178.54 162.987 1178.54 Q168.311 1178.54 171.413 1180.97 Q174.514 1183.38 174.514 1187.5 Q174.514 1190.37 172.871 1192.36 Q171.227 1194.33 168.195 1195.09 Z" fill="#000000" fill-rule="nonzero" fill-opacity="1" /><path clip-path="url(#clip950)" d="M194.19 1182.24 Q190.579 1182.24 188.75 1185.81 Q186.945 1189.35 186.945 1196.48 Q186.945 1203.58 188.75 1207.15 Q190.579 1210.69 194.19 1210.69 Q197.825 1210.69 199.63 1207.15 Q201.459 1203.58 201.459 1196.48 Q201.459 1189.35 199.63 1185.81 Q197.825 1182.24 194.19 1182.24 M194.19 1178.54 Q200 1178.54 203.056 1183.15 Q206.135 1187.73 206.135 1196.48 Q206.135 1205.21 203.056 1209.81 Q200 1214.39 194.19 1214.39 Q188.38 1214.39 185.301 1209.81 Q182.246 1205.21 182.246 1196.48 Q182.246 1187.73 185.301 1183.15 Q188.38 1178.54 194.19 1178.54 Z" fill="#000000" fill-rule="nonzero" fill-opacity="1" /><path clip-path="url(#clip950)" d="M114.26 990.527 L143.936 990.527 L143.936 994.463 L114.26 994.463 L114.26 990.527 Z" fill="#000000" fill-rule="nonzero" fill-opacity="1" /><path clip-path="url(#clip950)" d="M158.056 1003.42 L174.376 1003.42 L174.376 1007.36 L152.431 1007.36 L152.431 1003.42 Q155.093 1000.67 159.677 996.037 Q164.283 991.384 165.464 990.041 Q167.709 987.518 168.589 985.782 Q169.491 984.023 169.491 982.333 Q169.491 979.578 167.547 977.842 Q165.626 976.106 162.524 976.106 Q160.325 976.106 157.871 976.87 Q155.44 977.634 152.663 979.185 L152.663 974.463 Q155.487 973.328 157.94 972.75 Q160.394 972.171 162.431 972.171 Q167.802 972.171 170.996 974.856 Q174.19 977.541 174.19 982.032 Q174.19 984.162 173.38 986.083 Q172.593 987.981 170.487 990.574 Q169.908 991.245 166.806 994.463 Q163.704 997.657 158.056 1003.42 Z" fill="#000000" fill-rule="nonzero" fill-opacity="1" /><path clip-path="url(#clip950)" d="M194.19 975.875 Q190.579 975.875 188.75 979.44 Q186.945 982.981 186.945 990.111 Q186.945 997.217 188.75 1000.78 Q190.579 1004.32 194.19 1004.32 Q197.825 1004.32 199.63 1000.78 Q201.459 997.217 201.459 990.111 Q201.459 982.981 199.63 979.44 Q197.825 975.875 194.19 975.875 M194.19 972.171 Q200 972.171 203.056 976.777 Q206.135 981.361 206.135 990.111 Q206.135 998.838 203.056 1003.44 Q200 1008.03 194.19 1008.03 Q188.38 1008.03 185.301 1003.44 Q182.246 998.838 182.246 990.111 Q182.246 981.361 185.301 976.777 Q188.38 972.171 194.19 972.171 Z" fill="#000000" fill-rule="nonzero" fill-opacity="1" /><path clip-path="url(#clip950)" d="M114.26 784.16 L143.936 784.16 L143.936 788.095 L114.26 788.095 L114.26 784.16 Z" fill="#000000" fill-rule="nonzero" fill-opacity="1" /><path clip-path="url(#clip950)" d="M154.839 797.053 L162.477 797.053 L162.477 770.688 L154.167 772.354 L154.167 768.095 L162.431 766.428 L167.107 766.428 L167.107 797.053 L174.746 797.053 L174.746 800.988 L154.839 800.988 L154.839 797.053 Z" fill="#000000" fill-rule="nonzero" fill-opacity="1" /><path clip-path="url(#clip950)" d="M194.19 769.507 Q190.579 769.507 188.75 773.072 Q186.945 776.613 186.945 783.743 Q186.945 790.85 188.75 794.414 Q190.579 797.956 194.19 797.956 Q197.825 797.956 199.63 794.414 Q201.459 790.85 201.459 783.743 Q201.459 776.613 199.63 773.072 Q197.825 769.507 194.19 769.507 M194.19 765.803 Q200 765.803 203.056 770.41 Q206.135 774.993 206.135 783.743 Q206.135 792.47 203.056 797.076 Q200 801.66 194.19 801.66 Q188.38 801.66 185.301 797.076 Q182.246 792.47 182.246 783.743 Q182.246 774.993 185.301 770.41 Q188.38 765.803 194.19 765.803 Z" fill="#000000" fill-rule="nonzero" fill-opacity="1" /><path clip-path="url(#clip950)" d="M194.19 563.139 Q190.579 563.139 188.75 566.704 Q186.945 570.246 186.945 577.375 Q186.945 584.482 188.75 588.047 Q190.579 591.588 194.19 591.588 Q197.825 591.588 199.63 588.047 Q201.459 584.482 201.459 577.375 Q201.459 570.246 199.63 566.704 Q197.825 563.139 194.19 563.139 M194.19 559.436 Q200 559.436 203.056 564.042 Q206.135 568.625 206.135 577.375 Q206.135 586.102 203.056 590.709 Q200 595.292 194.19 595.292 Q188.38 595.292 185.301 590.709 Q182.246 586.102 182.246 577.375 Q182.246 568.625 185.301 564.042 Q188.38 559.436 194.19 559.436 Z" fill="#000000" fill-rule="nonzero" fill-opacity="1" /><path clip-path="url(#clip950)" d="M154.839 384.318 L162.477 384.318 L162.477 357.952 L154.167 359.619 L154.167 355.36 L162.431 353.693 L167.107 353.693 L167.107 384.318 L174.746 384.318 L174.746 388.253 L154.839 388.253 L154.839 384.318 Z" fill="#000000" fill-rule="nonzero" fill-opacity="1" /><path clip-path="url(#clip950)" d="M194.19 356.772 Q190.579 356.772 188.75 360.337 Q186.945 363.878 186.945 371.008 Q186.945 378.114 188.75 381.679 Q190.579 385.221 194.19 385.221 Q197.825 385.221 199.63 381.679 Q201.459 378.114 201.459 371.008 Q201.459 363.878 199.63 360.337 Q197.825 356.772 194.19 356.772 M194.19 353.068 Q200 353.068 203.056 357.675 Q206.135 362.258 206.135 371.008 Q206.135 379.735 203.056 384.341 Q200 388.924 194.19 388.924 Q188.38 388.924 185.301 384.341 Q182.246 379.735 182.246 371.008 Q182.246 362.258 185.301 357.675 Q188.38 353.068 194.19 353.068 Z" fill="#000000" fill-rule="nonzero" fill-opacity="1" /><path clip-path="url(#clip950)" d="M158.056 177.95 L174.376 177.95 L174.376 181.885 L152.431 181.885 L152.431 177.95 Q155.093 175.196 159.677 170.566 Q164.283 165.913 165.464 164.571 Q167.709 162.048 168.589 160.311 Q169.491 158.552 169.491 156.862 Q169.491 154.108 167.547 152.372 Q165.626 150.636 162.524 150.636 Q160.325 150.636 157.871 151.399 Q155.44 152.163 152.663 153.714 L152.663 148.992 Q155.487 147.858 157.94 147.279 Q160.394 146.7 162.431 146.7 Q167.802 146.7 170.996 149.386 Q174.19 152.071 174.19 156.561 Q174.19 158.691 173.38 160.612 Q172.593 162.51 170.487 165.103 Q169.908 165.774 166.806 168.992 Q163.704 172.186 158.056 177.95 Z" fill="#000000" fill-rule="nonzero" fill-opacity="1" /><path clip-path="url(#clip950)" d="M194.19 150.404 Q190.579 150.404 188.75 153.969 Q186.945 157.511 186.945 164.64 Q186.945 171.747 188.75 175.311 Q190.579 178.853 194.19 178.853 Q197.825 178.853 199.63 175.311 Q201.459 171.747 201.459 164.64 Q201.459 157.511 199.63 153.969 Q197.825 150.404 194.19 150.404 M194.19 146.7 Q200 146.7 203.056 151.307 Q206.135 155.89 206.135 164.64 Q206.135 173.367 203.056 177.973 Q200 182.557 194.19 182.557 Q188.38 182.557 185.301 177.973 Q182.246 173.367 182.246 164.64 Q182.246 155.89 185.301 151.307 Q188.38 146.7 194.19 146.7 Z" fill="#000000" fill-rule="nonzero" fill-opacity="1" /><path clip-path="url(#clip950)" d="M19.7307 759.306 Q19.7307 761.852 21.5131 763.603 Q23.2636 765.354 25.8099 765.354 Q28.3244 765.354 30.0749 763.603 Q31.7937 761.852 31.7937 759.306 Q31.7937 756.76 30.0749 755.009 Q28.3244 753.259 25.8099 753.259 Q23.2955 753.259 21.5131 755.041 Q19.7307 756.792 19.7307 759.306 M15.6248 759.306 Q15.6248 757.269 16.4205 755.391 Q17.1844 753.513 18.6485 752.145 Q20.0808 750.681 21.895 749.949 Q23.7092 749.217 25.8099 749.217 Q30.0113 749.217 32.9395 752.177 Q35.8359 755.105 35.8359 759.37 Q35.8359 763.667 32.9713 766.531 Q30.1068 769.396 25.8099 769.396 Q21.5449 769.396 18.5848 766.468 Q15.6248 763.539 15.6248 759.306 Z" fill="#000000" fill-rule="nonzero" fill-opacity="1" /><path clip-path="url(#clip950)" d="M20.1444 701.028 L26.9239 701.028 Q23.9002 704.275 22.4043 707.967 Q20.9083 711.627 20.9083 715.765 Q20.9083 723.913 25.9054 728.242 Q30.8707 732.57 40.2919 732.57 Q49.6813 732.57 54.6784 728.242 Q59.6436 723.913 59.6436 715.765 Q59.6436 711.627 58.1477 707.967 Q56.6518 704.275 53.6281 701.028 L60.3439 701.028 Q62.6355 704.402 63.7814 708.19 Q64.9272 711.945 64.9272 716.147 Q64.9272 726.937 58.3387 733.143 Q51.7183 739.35 40.2919 739.35 Q28.8336 739.35 22.2451 733.143 Q15.6248 726.937 15.6248 716.147 Q15.6248 711.882 16.7706 708.126 Q17.8846 704.338 20.1444 701.028 Z" fill="#000000" fill-rule="nonzero" fill-opacity="1" /><circle clip-path="url(#clip952)" cx="301.869" cy="470.03" r="14.4" fill="#07519c" fill-rule="evenodd" fill-opacity="1" stroke="#000000" stroke-opacity="1" stroke-width="3.2"/>
<circle clip-path="url(#clip952)" cx="351.66" cy="653.697" r="14.4" fill="#07519c" fill-rule="evenodd" fill-opacity="1" stroke="#000000" stroke-opacity="1" stroke-width="3.2"/>
<circle clip-path="url(#clip952)" cx="401.438" cy="674.334" r="14.4" fill="#07519c" fill-rule="evenodd" fill-opacity="1" stroke="#000000" stroke-opacity="1" stroke-width="3.2"/>
<circle clip-path="url(#clip952)" cx="451.217" cy="1369.79" r="14.4" fill="#07519c" fill-rule="evenodd" fill-opacity="1" stroke="#000000" stroke-opacity="1" stroke-width="3.2"/>
<circle clip-path="url(#clip952)" cx="500.996" cy="1233.59" r="14.4" fill="#07519c" fill-rule="evenodd" fill-opacity="1" stroke="#000000" stroke-opacity="1" stroke-width="3.2"/>
<circle clip-path="url(#clip952)" cx="550.775" cy="765.135" r="14.4" fill="#07519c" fill-rule="evenodd" fill-opacity="1" stroke="#000000" stroke-opacity="1" stroke-width="3.2"/>
<circle clip-path="url(#clip952)" cx="600.554" cy="810.536" r="14.4" fill="#07519c" fill-rule="evenodd" fill-opacity="1" stroke="#000000" stroke-opacity="1" stroke-width="3.2"/>
<circle clip-path="url(#clip952)" cx="650.332" cy="1371.86" r="14.4" fill="#07519c" fill-rule="evenodd" fill-opacity="1" stroke="#000000" stroke-opacity="1" stroke-width="3.2"/>
<circle clip-path="url(#clip952)" cx="700.111" cy="1260.42" r="14.4" fill="#07519c" fill-rule="evenodd" fill-opacity="1" stroke="#000000" stroke-opacity="1" stroke-width="3.2"/>
<circle clip-path="url(#clip952)" cx="749.878" cy="1210.89" r="14.4" fill="#07519c" fill-rule="evenodd" fill-opacity="1" stroke="#000000" stroke-opacity="1" stroke-width="3.2"/>
<circle clip-path="url(#clip952)" cx="799.669" cy="1186.13" r="14.4" fill="#07519c" fill-rule="evenodd" fill-opacity="1" stroke="#000000" stroke-opacity="1" stroke-width="3.2"/>
<circle clip-path="url(#clip952)" cx="849.448" cy="1165.49" r="14.4" fill="#07519c" fill-rule="evenodd" fill-opacity="1" stroke="#000000" stroke-opacity="1" stroke-width="3.2"/>
<circle clip-path="url(#clip952)" cx="899.226" cy="1153.11" r="14.4" fill="#07519c" fill-rule="evenodd" fill-opacity="1" stroke="#000000" stroke-opacity="1" stroke-width="3.2"/>
<circle clip-path="url(#clip952)" cx="949.005" cy="1146.92" r="14.4" fill="#07519c" fill-rule="evenodd" fill-opacity="1" stroke="#000000" stroke-opacity="1" stroke-width="3.2"/>
<circle clip-path="url(#clip952)" cx="998.772" cy="1138.66" r="14.4" fill="#07519c" fill-rule="evenodd" fill-opacity="1" stroke="#000000" stroke-opacity="1" stroke-width="3.2"/>
<circle clip-path="url(#clip952)" cx="1048.55" cy="1134.53" r="14.4" fill="#07519c" fill-rule="evenodd" fill-opacity="1" stroke="#000000" stroke-opacity="1" stroke-width="3.2"/>
<circle clip-path="url(#clip952)" cx="1098.33" cy="1128.34" r="14.4" fill="#07519c" fill-rule="evenodd" fill-opacity="1" stroke="#000000" stroke-opacity="1" stroke-width="3.2"/>
<circle clip-path="url(#clip952)" cx="1148.11" cy="1126.28" r="14.4" fill="#07519c" fill-rule="evenodd" fill-opacity="1" stroke="#000000" stroke-opacity="1" stroke-width="3.2"/>
<circle clip-path="url(#clip952)" cx="1197.89" cy="1124.22" r="14.4" fill="#07519c" fill-rule="evenodd" fill-opacity="1" stroke="#000000" stroke-opacity="1" stroke-width="3.2"/>
<circle clip-path="url(#clip952)" cx="1247.67" cy="1070.56" r="14.4" fill="#07519c" fill-rule="evenodd" fill-opacity="1" stroke="#000000" stroke-opacity="1" stroke-width="3.2"/>
<circle clip-path="url(#clip952)" cx="1297.45" cy="1031.35" r="14.4" fill="#07519c" fill-rule="evenodd" fill-opacity="1" stroke="#000000" stroke-opacity="1" stroke-width="3.2"/>
<circle clip-path="url(#clip952)" cx="1347.22" cy="882.765" r="14.4" fill="#07519c" fill-rule="evenodd" fill-opacity="1" stroke="#000000" stroke-opacity="1" stroke-width="3.2"/>
<circle clip-path="url(#clip952)" cx="1397" cy="785.772" r="14.4" fill="#07519c" fill-rule="evenodd" fill-opacity="1" stroke="#000000" stroke-opacity="1" stroke-width="3.2"/>
<circle clip-path="url(#clip952)" cx="1446.78" cy="738.307" r="14.4" fill="#07519c" fill-rule="evenodd" fill-opacity="1" stroke="#000000" stroke-opacity="1" stroke-width="3.2"/>
<circle clip-path="url(#clip952)" cx="1496.56" cy="692.907" r="14.4" fill="#07519c" fill-rule="evenodd" fill-opacity="1" stroke="#000000" stroke-opacity="1" stroke-width="3.2"/>
<circle clip-path="url(#clip952)" cx="1546.34" cy="622.742" r="14.4" fill="#07519c" fill-rule="evenodd" fill-opacity="1" stroke="#000000" stroke-opacity="1" stroke-width="3.2"/>
<circle clip-path="url(#clip952)" cx="1596.12" cy="133.65" r="14.4" fill="#07519c" fill-rule="evenodd" fill-opacity="1" stroke="#000000" stroke-opacity="1" stroke-width="3.2"/>
<circle clip-path="url(#clip952)" cx="1645.9" cy="86.1857" r="14.4" fill="#07519c" fill-rule="evenodd" fill-opacity="1" stroke="#000000" stroke-opacity="1" stroke-width="3.2"/>
<circle clip-path="url(#clip952)" cx="1695.68" cy="189.37" r="14.4" fill="#07519c" fill-rule="evenodd" fill-opacity="1" stroke="#000000" stroke-opacity="1" stroke-width="3.2"/>
<circle clip-path="url(#clip952)" cx="1745.45" cy="1016.9" r="14.4" fill="#07519c" fill-rule="evenodd" fill-opacity="1" stroke="#000000" stroke-opacity="1" stroke-width="3.2"/>
<circle clip-path="url(#clip952)" cx="1795.23" cy="1035.48" r="14.4" fill="#07519c" fill-rule="evenodd" fill-opacity="1" stroke="#000000" stroke-opacity="1" stroke-width="3.2"/>
<circle clip-path="url(#clip952)" cx="1845.01" cy="1039.6" r="14.4" fill="#07519c" fill-rule="evenodd" fill-opacity="1" stroke="#000000" stroke-opacity="1" stroke-width="3.2"/>
<circle clip-path="url(#clip952)" cx="1894.79" cy="1039.6" r="14.4" fill="#07519c" fill-rule="evenodd" fill-opacity="1" stroke="#000000" stroke-opacity="1" stroke-width="3.2"/>
<circle clip-path="url(#clip952)" cx="1944.57" cy="1041.67" r="14.4" fill="#07519c" fill-rule="evenodd" fill-opacity="1" stroke="#000000" stroke-opacity="1" stroke-width="3.2"/>
<circle clip-path="url(#clip952)" cx="1994.35" cy="1039.6" r="14.4" fill="#07519c" fill-rule="evenodd" fill-opacity="1" stroke="#000000" stroke-opacity="1" stroke-width="3.2"/>
<circle clip-path="url(#clip952)" cx="2044.13" cy="1039.6" r="14.4" fill="#07519c" fill-rule="evenodd" fill-opacity="1" stroke="#000000" stroke-opacity="1" stroke-width="3.2"/>
<circle clip-path="url(#clip952)" cx="2093.91" cy="1041.67" r="14.4" fill="#07519c" fill-rule="evenodd" fill-opacity="1" stroke="#000000" stroke-opacity="1" stroke-width="3.2"/>
<circle clip-path="url(#clip952)" cx="2143.68" cy="1041.67" r="14.4" fill="#07519c" fill-rule="evenodd" fill-opacity="1" stroke="#000000" stroke-opacity="1" stroke-width="3.2"/>
<circle clip-path="url(#clip952)" cx="2193.46" cy="1039.6" r="14.4" fill="#07519c" fill-rule="evenodd" fill-opacity="1" stroke="#000000" stroke-opacity="1" stroke-width="3.2"/>
<circle clip-path="url(#clip952)" cx="2243.24" cy="1039.6" r="14.4" fill="#07519c" fill-rule="evenodd" fill-opacity="1" stroke="#000000" stroke-opacity="1" stroke-width="3.2"/>
<circle clip-path="url(#clip952)" cx="2293.02" cy="1039.6" r="14.4" fill="#07519c" fill-rule="evenodd" fill-opacity="1" stroke="#000000" stroke-opacity="1" stroke-width="3.2"/>
<path clip-path="url(#clip952)" d="M310.764 571.659 L310.764 603.659 L342.764 603.659 L342.764 571.659 L310.764 571.659 Z" fill="#3082bc" fill-rule="evenodd" fill-opacity="1" stroke="#000000" stroke-opacity="1" stroke-width="3.2"/>
<path clip-path="url(#clip952)" d="M360.543 678.97 L360.543 710.97 L392.543 710.97 L392.543 678.97 L360.543 678.97 Z" fill="#3082bc" fill-rule="evenodd" fill-opacity="1" stroke="#000000" stroke-opacity="1" stroke-width="3.2"/>
<path clip-path="url(#clip952)" d="M410.322 1262.99 L410.322 1294.99 L442.322 1294.99 L442.322 1262.99 L410.322 1262.99 Z" fill="#3082bc" fill-rule="evenodd" fill-opacity="1" stroke="#000000" stroke-opacity="1" stroke-width="3.2"/>
<path clip-path="url(#clip952)" d="M460.101 1368.24 L460.101 1400.24 L492.101 1400.24 L492.101 1368.24 L460.101 1368.24 Z" fill="#3082bc" fill-rule="evenodd" fill-opacity="1" stroke="#000000" stroke-opacity="1" stroke-width="3.2"/>
<path clip-path="url(#clip952)" d="M509.88 788.345 L509.88 820.345 L541.88 820.345 L541.88 788.345 L509.88 788.345 Z" fill="#3082bc" fill-rule="evenodd" fill-opacity="1" stroke="#000000" stroke-opacity="1" stroke-width="3.2"/>
<path clip-path="url(#clip952)" d="M559.658 755.326 L559.658 787.326 L591.658 787.326 L591.658 755.326 L559.658 755.326 Z" fill="#3082bc" fill-rule="evenodd" fill-opacity="1" stroke="#000000" stroke-opacity="1" stroke-width="3.2"/>
<path clip-path="url(#clip952)" d="M609.437 1308.39 L609.437 1340.39 L641.437 1340.39 L641.437 1308.39 L609.437 1308.39 Z" fill="#3082bc" fill-rule="evenodd" fill-opacity="1" stroke="#000000" stroke-opacity="1" stroke-width="3.2"/>
<path clip-path="url(#clip952)" d="M659.216 1368.24 L659.216 1400.24 L691.216 1400.24 L691.216 1368.24 L659.216 1368.24 Z" fill="#3082bc" fill-rule="evenodd" fill-opacity="1" stroke="#000000" stroke-opacity="1" stroke-width="3.2"/>
<path clip-path="url(#clip952)" d="M708.995 1260.93 L708.995 1292.93 L740.995 1292.93 L740.995 1260.93 L708.995 1260.93 Z" fill="#3082bc" fill-rule="evenodd" fill-opacity="1" stroke="#000000" stroke-opacity="1" stroke-width="3.2"/>
<path clip-path="url(#clip952)" d="M758.774 1229.97 L758.774 1261.97 L790.774 1261.97 L790.774 1229.97 L758.774 1229.97 Z" fill="#3082bc" fill-rule="evenodd" fill-opacity="1" stroke="#000000" stroke-opacity="1" stroke-width="3.2"/>
<path clip-path="url(#clip952)" d="M808.552 1205.21 L808.552 1237.21 L840.552 1237.21 L840.552 1205.21 L808.552 1205.21 Z" fill="#3082bc" fill-rule="evenodd" fill-opacity="1" stroke="#000000" stroke-opacity="1" stroke-width="3.2"/>
<path clip-path="url(#clip952)" d="M858.331 1188.7 L858.331 1220.7 L890.331 1220.7 L890.331 1188.7 L858.331 1188.7 Z" fill="#3082bc" fill-rule="evenodd" fill-opacity="1" stroke="#000000" stroke-opacity="1" stroke-width="3.2"/>
<path clip-path="url(#clip952)" d="M908.11 1176.32 L908.11 1208.32 L940.11 1208.32 L940.11 1176.32 L908.11 1176.32 Z" fill="#3082bc" fill-rule="evenodd" fill-opacity="1" stroke="#000000" stroke-opacity="1" stroke-width="3.2"/>
<path clip-path="url(#clip952)" d="M957.889 1166 L957.889 1198 L989.889 1198 L989.889 1166 L957.889 1166 Z" fill="#3082bc" fill-rule="evenodd" fill-opacity="1" stroke="#000000" stroke-opacity="1" stroke-width="3.2"/>
<path clip-path="url(#clip952)" d="M1007.67 1155.68 L1007.67 1187.68 L1039.67 1187.68 L1039.67 1155.68 L1007.67 1155.68 Z" fill="#3082bc" fill-rule="evenodd" fill-opacity="1" stroke="#000000" stroke-opacity="1" stroke-width="3.2"/>
<path clip-path="url(#clip952)" d="M1057.45 1151.55 L1057.45 1183.55 L1089.45 1183.55 L1089.45 1151.55 L1057.45 1151.55 Z" fill="#3082bc" fill-rule="evenodd" fill-opacity="1" stroke="#000000" stroke-opacity="1" stroke-width="3.2"/>
<path clip-path="url(#clip952)" d="M1107.23 1145.36 L1107.23 1177.36 L1139.23 1177.36 L1139.23 1145.36 L1107.23 1145.36 Z" fill="#3082bc" fill-rule="evenodd" fill-opacity="1" stroke="#000000" stroke-opacity="1" stroke-width="3.2"/>
<path clip-path="url(#clip952)" d="M1157 1141.23 L1157 1173.23 L1189 1173.23 L1189 1141.23 L1157 1141.23 Z" fill="#3082bc" fill-rule="evenodd" fill-opacity="1" stroke="#000000" stroke-opacity="1" stroke-width="3.2"/>
<path clip-path="url(#clip952)" d="M1206.78 1135.04 L1206.78 1167.04 L1238.78 1167.04 L1238.78 1135.04 L1206.78 1135.04 Z" fill="#3082bc" fill-rule="evenodd" fill-opacity="1" stroke="#000000" stroke-opacity="1" stroke-width="3.2"/>
<path clip-path="url(#clip952)" d="M1256.56 1064.88 L1256.56 1096.88 L1288.56 1096.88 L1288.56 1064.88 L1256.56 1064.88 Z" fill="#3082bc" fill-rule="evenodd" fill-opacity="1" stroke="#000000" stroke-opacity="1" stroke-width="3.2"/>
<path clip-path="url(#clip952)" d="M1306.34 1000.9 L1306.34 1032.9 L1338.34 1032.9 L1338.34 1000.9 L1306.34 1000.9 Z" fill="#3082bc" fill-rule="evenodd" fill-opacity="1" stroke="#000000" stroke-opacity="1" stroke-width="3.2"/>
<path clip-path="url(#clip952)" d="M1356.12 924.548 L1356.12 956.548 L1388.12 956.548 L1388.12 924.548 L1356.12 924.548 Z" fill="#3082bc" fill-rule="evenodd" fill-opacity="1" stroke="#000000" stroke-opacity="1" stroke-width="3.2"/>
<path clip-path="url(#clip952)" d="M1405.9 833.746 L1405.9 865.746 L1437.9 865.746 L1437.9 833.746 L1405.9 833.746 Z" fill="#3082bc" fill-rule="evenodd" fill-opacity="1" stroke="#000000" stroke-opacity="1" stroke-width="3.2"/>
<path clip-path="url(#clip952)" d="M1455.68 683.098 L1455.68 715.098 L1487.68 715.098 L1487.68 683.098 L1455.68 683.098 Z" fill="#3082bc" fill-rule="evenodd" fill-opacity="1" stroke="#000000" stroke-opacity="1" stroke-width="3.2"/>
<path clip-path="url(#clip952)" d="M1505.46 648.015 L1505.46 680.015 L1537.46 680.015 L1537.46 648.015 L1505.46 648.015 Z" fill="#3082bc" fill-rule="evenodd" fill-opacity="1" stroke="#000000" stroke-opacity="1" stroke-width="3.2"/>
<path clip-path="url(#clip952)" d="M1555.23 361.164 L1555.23 393.164 L1587.23 393.164 L1587.23 361.164 L1555.23 361.164 Z" fill="#3082bc" fill-rule="evenodd" fill-opacity="1" stroke="#000000" stroke-opacity="1" stroke-width="3.2"/>
<path clip-path="url(#clip952)" d="M1605.01 280.681 L1605.01 312.681 L1637.01 312.681 L1637.01 280.681 L1605.01 280.681 Z" fill="#3082bc" fill-rule="evenodd" fill-opacity="1" stroke="#000000" stroke-opacity="1" stroke-width="3.2"/>
<path clip-path="url(#clip952)" d="M1654.79 268.299 L1654.79 300.299 L1686.79 300.299 L1686.79 268.299 L1654.79 268.299 Z" fill="#3082bc" fill-rule="evenodd" fill-opacity="1" stroke="#000000" stroke-opacity="1" stroke-width="3.2"/>
<path clip-path="url(#clip952)" d="M1704.57 957.567 L1704.57 989.567 L1736.57 989.567 L1736.57 957.567 L1704.57 957.567 Z" fill="#3082bc" fill-rule="evenodd" fill-opacity="1" stroke="#000000" stroke-opacity="1" stroke-width="3.2"/>
<path clip-path="url(#clip952)" d="M1754.35 1007.09 L1754.35 1039.09 L1786.35 1039.09 L1786.35 1007.09 L1754.35 1007.09 Z" fill="#3082bc" fill-rule="evenodd" fill-opacity="1" stroke="#000000" stroke-opacity="1" stroke-width="3.2"/>
<path clip-path="url(#clip952)" d="M1804.13 1013.29 L1804.13 1045.29 L1836.13 1045.29 L1836.13 1013.29 L1804.13 1013.29 Z" fill="#3082bc" fill-rule="evenodd" fill-opacity="1" stroke="#000000" stroke-opacity="1" stroke-width="3.2"/>
<path clip-path="url(#clip952)" d="M1853.91 1015.35 L1853.91 1047.35 L1885.91 1047.35 L1885.91 1015.35 L1853.91 1015.35 Z" fill="#3082bc" fill-rule="evenodd" fill-opacity="1" stroke="#000000" stroke-opacity="1" stroke-width="3.2"/>
<path clip-path="url(#clip952)" d="M1903.69 1015.35 L1903.69 1047.35 L1935.69 1047.35 L1935.69 1015.35 L1903.69 1015.35 Z" fill="#3082bc" fill-rule="evenodd" fill-opacity="1" stroke="#000000" stroke-opacity="1" stroke-width="3.2"/>
<path clip-path="url(#clip952)" d="M1953.46 1015.35 L1953.46 1047.35 L1985.46 1047.35 L1985.46 1015.35 L1953.46 1015.35 Z" fill="#3082bc" fill-rule="evenodd" fill-opacity="1" stroke="#000000" stroke-opacity="1" stroke-width="3.2"/>
<path clip-path="url(#clip952)" d="M2003.23 1015.35 L2003.23 1047.35 L2035.23 1047.35 L2035.23 1015.35 L2003.23 1015.35 Z" fill="#3082bc" fill-rule="evenodd" fill-opacity="1" stroke="#000000" stroke-opacity="1" stroke-width="3.2"/>
<path clip-path="url(#clip952)" d="M2053.02 1015.35 L2053.02 1047.35 L2085.02 1047.35 L2085.02 1015.35 L2053.02 1015.35 Z" fill="#3082bc" fill-rule="evenodd" fill-opacity="1" stroke="#000000" stroke-opacity="1" stroke-width="3.2"/>
<path clip-path="url(#clip952)" d="M2102.8 1015.35 L2102.8 1047.35 L2134.8 1047.35 L2134.8 1015.35 L2102.8 1015.35 Z" fill="#3082bc" fill-rule="evenodd" fill-opacity="1" stroke="#000000" stroke-opacity="1" stroke-width="3.2"/>
<path clip-path="url(#clip952)" d="M2152.57 1015.35 L2152.57 1047.35 L2184.57 1047.35 L2184.57 1015.35 L2152.57 1015.35 Z" fill="#3082bc" fill-rule="evenodd" fill-opacity="1" stroke="#000000" stroke-opacity="1" stroke-width="3.2"/>
<path clip-path="url(#clip952)" d="M2202.35 1015.35 L2202.35 1047.35 L2234.35 1047.35 L2234.35 1015.35 L2202.35 1015.35 Z" fill="#3082bc" fill-rule="evenodd" fill-opacity="1" stroke="#000000" stroke-opacity="1" stroke-width="3.2"/>
<path clip-path="url(#clip952)" d="M2252.13 1015.35 L2252.13 1047.35 L2284.13 1047.35 L2284.13 1015.35 L2252.13 1015.35 Z" fill="#3082bc" fill-rule="evenodd" fill-opacity="1" stroke="#000000" stroke-opacity="1" stroke-width="3.2"/>
<circle clip-path="url(#clip952)" cx="301.869" cy="538.131" r="14.4" fill="#ffffff" fill-rule="evenodd" fill-opacity="1" stroke="#07519c" stroke-opacity="1" stroke-width="4.8"/>
<circle clip-path="url(#clip952)" cx="368.249" cy="678.461" r="14.4" fill="#ffffff" fill-rule="evenodd" fill-opacity="1" stroke="#07519c" stroke-opacity="1" stroke-width="4.8"/>
<circle clip-path="url(#clip952)" cx="434.617" cy="1357.41" r="14.4" fill="#ffffff" fill-rule="evenodd" fill-opacity="1" stroke="#07519c" stroke-opacity="1" stroke-width="4.8"/>
<circle clip-path="url(#clip952)" cx="500.996" cy="1262.48" r="14.4" fill="#ffffff" fill-rule="evenodd" fill-opacity="1" stroke="#07519c" stroke-opacity="1" stroke-width="4.8"/>
<circle clip-path="url(#clip952)" cx="567.364" cy="771.326" r="14.4" fill="#ffffff" fill-rule="evenodd" fill-opacity="1" stroke="#07519c" stroke-opacity="1" stroke-width="4.8"/>
<circle clip-path="url(#clip952)" cx="633.732" cy="1363.6" r="14.4" fill="#ffffff" fill-rule="evenodd" fill-opacity="1" stroke="#07519c" stroke-opacity="1" stroke-width="4.8"/>
<circle clip-path="url(#clip952)" cx="700.111" cy="1256.29" r="14.4" fill="#ffffff" fill-rule="evenodd" fill-opacity="1" stroke="#07519c" stroke-opacity="1" stroke-width="4.8"/>
<circle clip-path="url(#clip952)" cx="766.479" cy="1208.83" r="14.4" fill="#ffffff" fill-rule="evenodd" fill-opacity="1" stroke="#07519c" stroke-opacity="1" stroke-width="4.8"/>
<circle clip-path="url(#clip952)" cx="832.847" cy="1179.93" r="14.4" fill="#ffffff" fill-rule="evenodd" fill-opacity="1" stroke="#07519c" stroke-opacity="1" stroke-width="4.8"/>
<circle clip-path="url(#clip952)" cx="899.226" cy="1161.36" r="14.4" fill="#ffffff" fill-rule="evenodd" fill-opacity="1" stroke="#07519c" stroke-opacity="1" stroke-width="4.8"/>
<circle clip-path="url(#clip952)" cx="965.594" cy="1151.04" r="14.4" fill="#ffffff" fill-rule="evenodd" fill-opacity="1" stroke="#07519c" stroke-opacity="1" stroke-width="4.8"/>
<circle clip-path="url(#clip952)" cx="1031.96" cy="1140.72" r="14.4" fill="#ffffff" fill-rule="evenodd" fill-opacity="1" stroke="#07519c" stroke-opacity="1" stroke-width="4.8"/>
<circle clip-path="url(#clip952)" cx="1098.33" cy="1136.6" r="14.4" fill="#ffffff" fill-rule="evenodd" fill-opacity="1" stroke="#07519c" stroke-opacity="1" stroke-width="4.8"/>
<circle clip-path="url(#clip952)" cx="1164.71" cy="1132.47" r="14.4" fill="#ffffff" fill-rule="evenodd" fill-opacity="1" stroke="#07519c" stroke-opacity="1" stroke-width="4.8"/>
<circle clip-path="url(#clip952)" cx="1231.08" cy="1126.28" r="14.4" fill="#ffffff" fill-rule="evenodd" fill-opacity="1" stroke="#07519c" stroke-opacity="1" stroke-width="4.8"/>
<circle clip-path="url(#clip952)" cx="1297.45" cy="1118.02" r="14.4" fill="#ffffff" fill-rule="evenodd" fill-opacity="1" stroke="#07519c" stroke-opacity="1" stroke-width="4.8"/>
<circle clip-path="url(#clip952)" cx="1363.82" cy="1045.8" r="14.4" fill="#ffffff" fill-rule="evenodd" fill-opacity="1" stroke="#07519c" stroke-opacity="1" stroke-width="4.8"/>
<circle clip-path="url(#clip952)" cx="1430.19" cy="802.281" r="14.4" fill="#ffffff" fill-rule="evenodd" fill-opacity="1" stroke="#07519c" stroke-opacity="1" stroke-width="4.8"/>
<circle clip-path="url(#clip952)" cx="1496.56" cy="723.862" r="14.4" fill="#ffffff" fill-rule="evenodd" fill-opacity="1" stroke="#07519c" stroke-opacity="1" stroke-width="4.8"/>
<circle clip-path="url(#clip952)" cx="1562.94" cy="414.31" r="14.4" fill="#ffffff" fill-rule="evenodd" fill-opacity="1" stroke="#07519c" stroke-opacity="1" stroke-width="4.8"/>
<circle clip-path="url(#clip952)" cx="1629.31" cy="238.898" r="14.4" fill="#ffffff" fill-rule="evenodd" fill-opacity="1" stroke="#07519c" stroke-opacity="1" stroke-width="4.8"/>
<circle clip-path="url(#clip952)" cx="1695.68" cy="276.044" r="14.4" fill="#ffffff" fill-rule="evenodd" fill-opacity="1" stroke="#07519c" stroke-opacity="1" stroke-width="4.8"/>
<circle clip-path="url(#clip952)" cx="1762.04" cy="1056.11" r="14.4" fill="#ffffff" fill-rule="evenodd" fill-opacity="1" stroke="#07519c" stroke-opacity="1" stroke-width="4.8"/>
<circle clip-path="url(#clip952)" cx="1828.42" cy="1060.24" r="14.4" fill="#ffffff" fill-rule="evenodd" fill-opacity="1" stroke="#07519c" stroke-opacity="1" stroke-width="4.8"/>
<circle clip-path="url(#clip952)" cx="1894.79" cy="1060.24" r="14.4" fill="#ffffff" fill-rule="evenodd" fill-opacity="1" stroke="#07519c" stroke-opacity="1" stroke-width="4.8"/>
<circle clip-path="url(#clip952)" cx="1961.16" cy="1062.3" r="14.4" fill="#ffffff" fill-rule="evenodd" fill-opacity="1" stroke="#07519c" stroke-opacity="1" stroke-width="4.8"/>
<circle clip-path="url(#clip952)" cx="2027.54" cy="1060.24" r="14.4" fill="#ffffff" fill-rule="evenodd" fill-opacity="1" stroke="#07519c" stroke-opacity="1" stroke-width="4.8"/>
<circle clip-path="url(#clip952)" cx="2093.91" cy="1060.24" r="14.4" fill="#ffffff" fill-rule="evenodd" fill-opacity="1" stroke="#07519c" stroke-opacity="1" stroke-width="4.8"/>
<circle clip-path="url(#clip952)" cx="2160.27" cy="1060.24" r="14.4" fill="#ffffff" fill-rule="evenodd" fill-opacity="1" stroke="#07519c" stroke-opacity="1" stroke-width="4.8"/>
<circle clip-path="url(#clip952)" cx="2226.64" cy="1062.3" r="14.4" fill="#ffffff" fill-rule="evenodd" fill-opacity="1" stroke="#07519c" stroke-opacity="1" stroke-width="4.8"/>
<circle clip-path="url(#clip952)" cx="2293.02" cy="1060.24" r="14.4" fill="#ffffff" fill-rule="evenodd" fill-opacity="1" stroke="#07519c" stroke-opacity="1" stroke-width="4.8"/>
<path clip-path="url(#clip950)" d="M1863.7 300.469 L2282.4 300.469 L2282.4 93.1086 L1863.7 93.1086  Z" fill="#ffffff" fill-rule="evenodd" fill-opacity="1"/>
<polyline clip-path="url(#clip950)" style="stroke:#000000; stroke-linecap:round; stroke-linejoin:round; stroke-width:4; stroke-opacity:1; fill:none" points="1863.7,300.469 2282.4,300.469 2282.4,93.1086 1863.7,93.1086 1863.7,300.469 "/>
<polyline clip-path="url(#clip950)" style="stroke:#07519c; stroke-linecap:round; stroke-linejoin:round; stroke-width:4; stroke-opacity:0.2; fill:none" points="1887.15,144.949 2027.86,144.949 "/>
<circle clip-path="url(#clip950)" cx="1957.51" cy="144.949" r="19.5428" fill="#07519c" fill-rule="evenodd" fill-opacity="1" stroke="#000000" stroke-opacity="1" stroke-width="4.55111"/>
<path clip-path="url(#clip950)" d="M2083.94 122.039 Q2083.94 122.484 2083.85 122.859 L2082.53 131.197 Q2082.46 131.83 2082.32 132.064 Q2082.21 132.298 2081.83 132.298 Q2081.25 132.298 2081.25 131.689 Q2081.25 131.338 2081.39 130.776 Q2081.78 128.129 2081.78 126.934 Q2081.78 126.138 2081.62 125.552 Q2081.48 124.943 2081.25 124.522 Q2081.03 124.1 2080.54 123.819 Q2080.05 123.538 2079.58 123.374 Q2079.11 123.21 2078.27 123.14 Q2077.43 123.046 2076.7 123.023 Q2075.98 122.999 2074.78 122.999 Q2072.18 122.999 2071.76 123.093 Q2071.31 123.21 2071.08 123.561 Q2070.87 123.889 2070.64 124.873 L2064.26 150.333 L2064.08 151.34 Q2064.08 151.903 2064.43 152.09 Q2064.78 152.277 2065.86 152.394 Q2067.4 152.512 2068.93 152.512 Q2068.97 152.512 2069.07 152.512 Q2069.58 152.512 2069.79 152.535 Q2070 152.535 2070.21 152.582 Q2070.42 152.629 2070.47 152.746 Q2070.54 152.84 2070.54 153.027 Q2070.54 153.472 2070.35 153.706 Q2070.17 153.917 2069.98 153.964 Q2069.82 153.987 2069.49 153.987 Q2068.83 153.987 2067.43 153.94 Q2066.02 153.894 2065.32 153.894 L2061.34 153.847 L2057.26 153.894 Q2056.63 153.894 2055.29 153.94 Q2053.96 153.987 2053.33 153.987 Q2052.51 153.987 2052.51 153.402 Q2052.51 152.746 2052.81 152.629 Q2053.14 152.512 2054.52 152.512 Q2056.46 152.512 2057.52 152.418 Q2058.57 152.324 2059.13 151.996 Q2059.72 151.668 2059.88 151.34 Q2060.05 150.989 2060.24 150.193 L2066.68 124.592 Q2066.86 124.03 2066.86 123.585 Q2066.86 123.351 2066.79 123.257 Q2066.75 123.163 2066.44 123.093 Q2066.14 122.999 2065.51 122.999 L2063.63 122.999 Q2061.71 122.999 2060.52 123.093 Q2059.35 123.163 2058.22 123.515 Q2057.12 123.866 2056.46 124.358 Q2055.83 124.85 2055.13 125.857 Q2054.43 126.864 2053.91 128.082 Q2053.42 129.3 2052.72 131.291 Q2052.48 131.947 2052.34 132.134 Q2052.23 132.298 2051.9 132.298 Q2051.66 132.298 2051.48 132.157 Q2051.31 131.994 2051.31 131.783 Q2051.55 131.01 2051.59 130.916 L2054.47 122.461 Q2054.71 121.781 2054.92 121.664 Q2055.15 121.524 2056.02 121.524 L2082.63 121.524 Q2083.05 121.524 2083.19 121.524 Q2083.33 121.524 2083.56 121.571 Q2083.8 121.617 2083.87 121.735 Q2083.94 121.852 2083.94 122.039 Z" fill="#000000" fill-rule="nonzero" fill-opacity="1" /><path clip-path="url(#clip950)" d="M2088.73 154.623 L2088.73 153.573 L2091.37 153.573 L2091.37 149.72 Q2091.37 147.228 2092.98 145.802 Q2094.6 144.375 2096.58 144.375 Q2097.89 144.375 2098.75 145.08 Q2099.6 145.785 2099.6 146.736 Q2099.6 147.376 2099.21 147.802 Q2098.83 148.212 2098.12 148.212 Q2097.45 148.212 2097.06 147.786 Q2096.68 147.359 2096.68 146.769 Q2096.68 145.687 2097.68 145.359 Q2097.17 145.129 2096.58 145.113 Q2095.37 145.113 2094.42 146.359 Q2093.48 147.605 2093.48 149.687 L2093.48 153.573 L2097.42 153.573 L2097.42 154.623 L2093.6 154.623 L2093.6 165.427 Q2093.6 166.395 2093.99 166.706 Q2094.4 167.018 2096.14 167.018 L2096.84 167.018 L2096.84 168.051 Q2095.5 167.952 2092.58 167.952 Q2092.17 167.952 2091.53 167.969 Q2090.91 167.985 2090.06 168.018 Q2089.22 168.051 2088.76 168.051 L2088.76 167.018 Q2090.55 167.018 2090.96 166.805 Q2091.37 166.575 2091.37 165.493 L2091.37 154.623 L2088.73 154.623 Z" fill="#000000" fill-rule="nonzero" fill-opacity="1" /><path clip-path="url(#clip950)" d="M2103.16 148.884 L2103.16 147.835 Q2107.19 147.835 2109.28 145.687 Q2109.85 145.687 2109.95 145.818 Q2110.05 145.949 2110.05 146.556 L2110.05 165.395 Q2110.05 166.395 2110.54 166.706 Q2111.03 167.018 2113.18 167.018 L2114.24 167.018 L2114.24 168.051 Q2113.06 167.952 2108.8 167.952 Q2104.54 167.952 2103.37 168.051 L2103.37 167.018 L2104.44 167.018 Q2106.55 167.018 2107.06 166.723 Q2107.57 166.411 2107.57 165.395 L2107.57 147.999 Q2105.82 148.884 2103.16 148.884 Z" fill="#000000" fill-rule="nonzero" fill-opacity="1" /><path clip-path="url(#clip950)" d="M2126.8 148.108 L2131.69 148.108 L2131.69 152.089 L2127.89 159.496 L2124.91 159.496 L2126.8 152.089 L2126.8 148.108 Z" fill="#000000" fill-rule="nonzero" fill-opacity="1" /><path clip-path="url(#clip950)" d="M2178.03 139.96 L2178.03 142.043 L2158.45 142.043 Q2158.72 146.441 2161.09 148.756 Q2163.47 151.047 2167.71 151.047 Q2170.16 151.047 2172.45 150.446 Q2174.77 149.844 2177.03 148.64 L2177.03 152.668 Q2174.74 153.64 2172.34 154.149 Q2169.93 154.659 2167.45 154.659 Q2161.25 154.659 2157.61 151.047 Q2154 147.436 2154 141.279 Q2154 134.913 2157.43 131.186 Q2160.88 127.436 2166.71 127.436 Q2171.94 127.436 2174.97 130.816 Q2178.03 134.173 2178.03 139.96 M2173.77 138.71 Q2173.72 135.214 2171.8 133.131 Q2169.91 131.048 2166.76 131.048 Q2163.19 131.048 2161.04 133.061 Q2158.91 135.075 2158.59 138.733 L2173.77 138.71 Z" fill="#000000" fill-rule="nonzero" fill-opacity="1" /><path clip-path="url(#clip950)" d="M2205.74 128.061 L2196.36 140.677 L2206.22 153.987 L2201.2 153.987 L2193.66 143.802 L2186.11 153.987 L2181.09 153.987 L2191.16 140.422 L2181.94 128.061 L2186.97 128.061 L2193.84 137.297 L2200.72 128.061 L2205.74 128.061 Z" fill="#000000" fill-rule="nonzero" fill-opacity="1" /><path clip-path="url(#clip950)" d="M2216.36 150.098 L2216.36 163.848 L2212.08 163.848 L2212.08 128.061 L2216.36 128.061 L2216.36 131.997 Q2217.71 129.682 2219.74 128.571 Q2221.8 127.436 2224.65 127.436 Q2229.37 127.436 2232.31 131.186 Q2235.28 134.936 2235.28 141.047 Q2235.28 147.159 2232.31 150.909 Q2229.37 154.659 2224.65 154.659 Q2221.8 154.659 2219.74 153.547 Q2217.71 152.413 2216.36 150.098 M2230.85 141.047 Q2230.85 136.348 2228.91 133.686 Q2226.99 131.001 2223.61 131.001 Q2220.23 131.001 2218.28 133.686 Q2216.36 136.348 2216.36 141.047 Q2216.36 145.747 2218.28 148.432 Q2220.23 151.094 2223.61 151.094 Q2226.99 151.094 2228.91 148.432 Q2230.85 145.747 2230.85 141.047 Z" fill="#000000" fill-rule="nonzero" fill-opacity="1" /><path clip-path="url(#clip950)" d="M2242.94 148.108 L2247.82 148.108 L2247.82 153.987 L2242.94 153.987 L2242.94 148.108 Z" fill="#000000" fill-rule="nonzero" fill-opacity="1" /><polyline clip-path="url(#clip950)" style="stroke:#3082bc; stroke-linecap:round; stroke-linejoin:round; stroke-width:4; stroke-opacity:0.2; fill:none" points="1887.15,196.789 2027.86,196.789 "/>
<path clip-path="url(#clip950)" d="M1935.79 175.074 L1935.79 218.503 L1979.22 218.503 L1979.22 175.074 L1935.79 175.074 Z" fill="#3082bc" fill-rule="evenodd" fill-opacity="1" stroke="#000000" stroke-opacity="1" stroke-width="4.55111"/>
<path clip-path="url(#clip950)" d="M2083.94 173.879 Q2083.94 174.324 2083.85 174.699 L2082.53 183.037 Q2082.46 183.67 2082.32 183.904 Q2082.21 184.138 2081.83 184.138 Q2081.25 184.138 2081.25 183.529 Q2081.25 183.178 2081.39 182.616 Q2081.78 179.969 2081.78 178.774 Q2081.78 177.978 2081.62 177.392 Q2081.48 176.783 2081.25 176.362 Q2081.03 175.94 2080.54 175.659 Q2080.05 175.378 2079.58 175.214 Q2079.11 175.05 2078.27 174.98 Q2077.43 174.886 2076.7 174.863 Q2075.98 174.839 2074.78 174.839 Q2072.18 174.839 2071.76 174.933 Q2071.31 175.05 2071.08 175.401 Q2070.87 175.729 2070.64 176.713 L2064.26 202.173 L2064.08 203.18 Q2064.08 203.743 2064.43 203.93 Q2064.78 204.117 2065.86 204.234 Q2067.4 204.352 2068.93 204.352 Q2068.97 204.352 2069.07 204.352 Q2069.58 204.352 2069.79 204.375 Q2070 204.375 2070.21 204.422 Q2070.42 204.469 2070.47 204.586 Q2070.54 204.68 2070.54 204.867 Q2070.54 205.312 2070.35 205.546 Q2070.17 205.757 2069.98 205.804 Q2069.82 205.827 2069.49 205.827 Q2068.83 205.827 2067.43 205.78 Q2066.02 205.734 2065.32 205.734 L2061.34 205.687 L2057.26 205.734 Q2056.63 205.734 2055.29 205.78 Q2053.96 205.827 2053.33 205.827 Q2052.51 205.827 2052.51 205.242 Q2052.51 204.586 2052.81 204.469 Q2053.14 204.352 2054.52 204.352 Q2056.46 204.352 2057.52 204.258 Q2058.57 204.164 2059.13 203.836 Q2059.72 203.508 2059.88 203.18 Q2060.05 202.829 2060.24 202.033 L2066.68 176.432 Q2066.86 175.87 2066.86 175.425 Q2066.86 175.191 2066.79 175.097 Q2066.75 175.003 2066.44 174.933 Q2066.14 174.839 2065.51 174.839 L2063.63 174.839 Q2061.71 174.839 2060.52 174.933 Q2059.35 175.003 2058.22 175.355 Q2057.12 175.706 2056.46 176.198 Q2055.83 176.69 2055.13 177.697 Q2054.43 178.704 2053.91 179.922 Q2053.42 181.14 2052.72 183.131 Q2052.48 183.787 2052.34 183.974 Q2052.23 184.138 2051.9 184.138 Q2051.66 184.138 2051.48 183.997 Q2051.31 183.834 2051.31 183.623 Q2051.55 182.85 2051.59 182.756 L2054.47 174.301 Q2054.71 173.621 2054.92 173.504 Q2055.15 173.364 2056.02 173.364 L2082.63 173.364 Q2083.05 173.364 2083.19 173.364 Q2083.33 173.364 2083.56 173.411 Q2083.8 173.457 2083.87 173.575 Q2083.94 173.692 2083.94 173.879 Z" fill="#000000" fill-rule="nonzero" fill-opacity="1" /><path clip-path="url(#clip950)" d="M2088.73 206.463 L2088.73 205.413 L2091.37 205.413 L2091.37 201.56 Q2091.37 199.068 2092.98 197.642 Q2094.6 196.215 2096.58 196.215 Q2097.89 196.215 2098.75 196.92 Q2099.6 197.625 2099.6 198.576 Q2099.6 199.216 2099.21 199.642 Q2098.83 200.052 2098.12 200.052 Q2097.45 200.052 2097.06 199.626 Q2096.68 199.199 2096.68 198.609 Q2096.68 197.527 2097.68 197.199 Q2097.17 196.969 2096.58 196.953 Q2095.37 196.953 2094.42 198.199 Q2093.48 199.445 2093.48 201.527 L2093.48 205.413 L2097.42 205.413 L2097.42 206.463 L2093.6 206.463 L2093.6 217.267 Q2093.6 218.235 2093.99 218.546 Q2094.4 218.858 2096.14 218.858 L2096.84 218.858 L2096.84 219.891 Q2095.5 219.792 2092.58 219.792 Q2092.17 219.792 2091.53 219.809 Q2090.91 219.825 2090.06 219.858 Q2089.22 219.891 2088.76 219.891 L2088.76 218.858 Q2090.55 218.858 2090.96 218.645 Q2091.37 218.415 2091.37 217.333 L2091.37 206.463 L2088.73 206.463 Z" fill="#000000" fill-rule="nonzero" fill-opacity="1" /><path clip-path="url(#clip950)" d="M2101.95 219.891 Q2101.95 219.284 2102 219.104 Q2102.07 218.923 2102.33 218.645 L2108.77 211.463 Q2112.3 207.495 2112.3 204.036 Q2112.3 201.79 2111.12 200.183 Q2109.95 198.576 2107.8 198.576 Q2106.33 198.576 2105.08 199.478 Q2103.84 200.38 2103.26 201.987 Q2103.36 201.954 2103.71 201.954 Q2104.54 201.954 2105 202.478 Q2105.48 203.003 2105.48 203.708 Q2105.48 204.61 2104.89 205.053 Q2104.31 205.479 2103.74 205.479 Q2103.51 205.479 2103.2 205.43 Q2102.9 205.38 2102.43 204.921 Q2101.95 204.446 2101.95 203.61 Q2101.95 201.265 2103.72 199.396 Q2105.51 197.527 2108.23 197.527 Q2111.31 197.527 2113.33 199.363 Q2115.36 201.183 2115.36 204.036 Q2115.36 205.036 2115.05 205.954 Q2114.76 206.856 2114.35 207.561 Q2113.95 208.266 2112.87 209.397 Q2111.79 210.529 2110.92 211.332 Q2110.05 212.135 2108.1 213.841 L2104.54 217.3 L2110.59 217.3 Q2113.54 217.3 2113.77 217.038 Q2114.1 216.562 2114.51 214.054 L2115.36 214.054 L2114.41 219.891 L2101.95 219.891 Z" fill="#000000" fill-rule="nonzero" fill-opacity="1" /><path clip-path="url(#clip950)" d="M2125.59 199.948 L2130.48 199.948 L2130.48 203.929 L2126.68 211.336 L2123.7 211.336 L2125.59 203.929 L2125.59 199.948 Z" fill="#000000" fill-rule="nonzero" fill-opacity="1" /><path clip-path="url(#clip950)" d="M2176.82 191.8 L2176.82 193.883 L2157.24 193.883 Q2157.52 198.281 2159.88 200.596 Q2162.26 202.887 2166.5 202.887 Q2168.95 202.887 2171.24 202.286 Q2173.56 201.684 2175.83 200.48 L2175.83 204.508 Q2173.53 205.48 2171.13 205.989 Q2168.72 206.499 2166.24 206.499 Q2160.04 206.499 2156.4 202.887 Q2152.79 199.276 2152.79 193.119 Q2152.79 186.753 2156.22 183.026 Q2159.67 179.276 2165.5 179.276 Q2170.73 179.276 2173.76 182.656 Q2176.82 186.013 2176.82 191.8 M2172.56 190.55 Q2172.51 187.054 2170.59 184.971 Q2168.7 182.888 2165.55 182.888 Q2161.98 182.888 2159.83 184.901 Q2157.7 186.915 2157.38 190.573 L2172.56 190.55 Z" fill="#000000" fill-rule="nonzero" fill-opacity="1" /><path clip-path="url(#clip950)" d="M2204.53 179.901 L2195.15 192.517 L2205.01 205.827 L2199.99 205.827 L2192.45 195.642 L2184.9 205.827 L2179.88 205.827 L2189.95 192.262 L2180.73 179.901 L2185.76 179.901 L2192.63 189.137 L2199.51 179.901 L2204.53 179.901 Z" fill="#000000" fill-rule="nonzero" fill-opacity="1" /><path clip-path="url(#clip950)" d="M2215.15 201.938 L2215.15 215.688 L2210.87 215.688 L2210.87 179.901 L2215.15 179.901 L2215.15 183.837 Q2216.5 181.522 2218.53 180.411 Q2220.59 179.276 2223.44 179.276 Q2228.16 179.276 2231.1 183.026 Q2234.07 186.776 2234.07 192.887 Q2234.07 198.999 2231.1 202.749 Q2228.16 206.499 2223.44 206.499 Q2220.59 206.499 2218.53 205.387 Q2216.5 204.253 2215.15 201.938 M2229.64 192.887 Q2229.64 188.188 2227.7 185.526 Q2225.78 182.841 2222.4 182.841 Q2219.02 182.841 2217.07 185.526 Q2215.15 188.188 2215.15 192.887 Q2215.15 197.587 2217.07 200.272 Q2219.02 202.934 2222.4 202.934 Q2225.78 202.934 2227.7 200.272 Q2229.64 197.587 2229.64 192.887 Z" fill="#000000" fill-rule="nonzero" fill-opacity="1" /><path clip-path="url(#clip950)" d="M2241.73 199.948 L2246.61 199.948 L2246.61 205.827 L2241.73 205.827 L2241.73 199.948 Z" fill="#000000" fill-rule="nonzero" fill-opacity="1" /><polyline clip-path="url(#clip950)" style="stroke:#07519c; stroke-linecap:round; stroke-linejoin:round; stroke-width:4; stroke-opacity:0.2; fill:none" stroke-dasharray="16, 10" points="1887.15,248.629 2027.86,248.629 "/>
<circle clip-path="url(#clip950)" cx="1957.51" cy="248.629" r="19.4021" fill="#ffffff" fill-rule="evenodd" fill-opacity="1" stroke="#07519c" stroke-opacity="1" stroke-width="6.46737"/>
<path clip-path="url(#clip950)" d="M2083.94 228.263 Q2083.94 228.708 2083.85 229.083 L2082.53 237.421 Q2082.46 238.054 2082.32 238.288 Q2082.21 238.522 2081.83 238.522 Q2081.25 238.522 2081.25 237.913 Q2081.25 237.562 2081.39 237 Q2081.78 234.353 2081.78 233.158 Q2081.78 232.362 2081.62 231.776 Q2081.48 231.167 2081.25 230.746 Q2081.03 230.324 2080.54 230.043 Q2080.05 229.762 2079.58 229.598 Q2079.11 229.434 2078.27 229.364 Q2077.43 229.27 2076.7 229.247 Q2075.98 229.223 2074.78 229.223 Q2072.18 229.223 2071.76 229.317 Q2071.31 229.434 2071.08 229.786 Q2070.87 230.113 2070.64 231.097 L2064.26 256.557 L2064.08 257.565 Q2064.08 258.127 2064.43 258.314 Q2064.78 258.501 2065.86 258.619 Q2067.4 258.736 2068.93 258.736 Q2068.97 258.736 2069.07 258.736 Q2069.58 258.736 2069.79 258.759 Q2070 258.759 2070.21 258.806 Q2070.42 258.853 2070.47 258.97 Q2070.54 259.064 2070.54 259.251 Q2070.54 259.696 2070.35 259.93 Q2070.17 260.141 2069.98 260.188 Q2069.82 260.211 2069.49 260.211 Q2068.83 260.211 2067.43 260.164 Q2066.02 260.118 2065.32 260.118 L2061.34 260.071 L2057.26 260.118 Q2056.63 260.118 2055.29 260.164 Q2053.96 260.211 2053.33 260.211 Q2052.51 260.211 2052.51 259.626 Q2052.51 258.97 2052.81 258.853 Q2053.14 258.736 2054.52 258.736 Q2056.46 258.736 2057.52 258.642 Q2058.57 258.548 2059.13 258.22 Q2059.72 257.892 2059.88 257.565 Q2060.05 257.213 2060.24 256.417 L2066.68 230.816 Q2066.86 230.254 2066.86 229.809 Q2066.86 229.575 2066.79 229.481 Q2066.75 229.387 2066.44 229.317 Q2066.14 229.223 2065.51 229.223 L2063.63 229.223 Q2061.71 229.223 2060.52 229.317 Q2059.35 229.387 2058.22 229.739 Q2057.12 230.09 2056.46 230.582 Q2055.83 231.074 2055.13 232.081 Q2054.43 233.088 2053.91 234.306 Q2053.42 235.524 2052.72 237.515 Q2052.48 238.171 2052.34 238.358 Q2052.23 238.522 2051.9 238.522 Q2051.66 238.522 2051.48 238.382 Q2051.31 238.218 2051.31 238.007 Q2051.55 237.234 2051.59 237.14 L2054.47 228.685 Q2054.71 228.005 2054.92 227.888 Q2055.15 227.748 2056.02 227.748 L2082.63 227.748 Q2083.05 227.748 2083.19 227.748 Q2083.33 227.748 2083.56 227.795 Q2083.8 227.841 2083.87 227.959 Q2083.94 228.076 2083.94 228.263 Z" fill="#000000" fill-rule="nonzero" fill-opacity="1" /><path clip-path="url(#clip950)" d="M2088.73 255.387 L2088.73 254.337 Q2090.24 254.436 2091.99 254.436 Q2092.63 254.436 2095.65 254.337 L2095.65 255.387 Q2093.73 255.387 2093.73 256.256 Q2093.73 256.387 2093.93 256.829 L2097.7 266.191 L2101.12 257.633 Q2101.32 257.059 2101.32 256.829 Q2101.32 256.256 2100.93 255.846 Q2100.55 255.419 2099.71 255.387 L2099.71 254.337 Q2101.42 254.436 2102.63 254.436 Q2104.01 254.436 2105.14 254.337 L2105.14 255.387 Q2104.14 255.387 2103.44 255.846 Q2102.73 256.288 2102.5 256.682 Q2102.29 257.059 2102.06 257.633 L2097.66 268.552 Q2097.4 269.192 2096.96 269.192 Q2096.66 269.192 2096.53 269.061 Q2096.42 268.946 2096.25 268.552 L2091.42 256.633 Q2091.09 255.797 2090.66 255.6 Q2090.24 255.387 2088.73 255.387 Z" fill="#000000" fill-rule="nonzero" fill-opacity="1" /><path clip-path="url(#clip950)" d="M2106.92 255.387 L2106.92 254.337 Q2108.74 254.436 2110.03 254.436 Q2110.67 254.436 2113.71 254.337 L2113.71 255.387 Q2111.72 255.387 2111.72 256.288 Q2111.72 256.485 2111.89 256.895 L2115.08 265.863 L2117.97 257.731 Q2117.36 256.092 2117.2 255.895 Q2116.79 255.387 2115.08 255.387 L2115.08 254.337 Q2116.59 254.436 2118.07 254.436 Q2118.64 254.436 2121.56 254.337 L2121.56 255.387 Q2119.58 255.387 2119.58 256.288 Q2119.58 256.42 2119.74 256.928 L2123.07 266.29 L2126.12 257.698 Q2126.28 257.256 2126.3 256.993 Q2126.3 256.256 2125.77 255.846 Q2125.25 255.419 2124.35 255.387 L2124.35 254.337 Q2126.27 254.436 2127.46 254.436 Q2128.81 254.436 2129.92 254.337 L2129.92 255.387 Q2127.84 255.452 2127.1 257.534 L2123.17 268.552 Q2122.79 269.159 2122.49 269.192 Q2122.05 269.192 2121.82 268.552 L2118.4 259.01 L2115 268.52 Q2114.87 268.929 2114.76 269.061 Q2114.64 269.192 2114.33 269.192 Q2114.03 269.192 2113.9 269.011 Q2113.77 268.848 2113.62 268.438 L2109.39 256.551 Q2109.1 255.78 2108.66 255.583 Q2108.23 255.387 2106.92 255.387 Z" fill="#000000" fill-rule="nonzero" fill-opacity="1" /><path clip-path="url(#clip950)" d="M2137.93 254.332 L2142.82 254.332 L2142.82 258.313 L2139.02 265.721 L2136.03 265.721 L2137.93 258.313 L2137.93 254.332 Z" fill="#000000" fill-rule="nonzero" fill-opacity="1" /><path clip-path="url(#clip950)" d="M2189.16 246.184 L2189.16 248.267 L2169.58 248.267 Q2169.85 252.665 2172.21 254.98 Q2174.6 257.271 2178.84 257.271 Q2181.29 257.271 2183.58 256.67 Q2185.9 256.068 2188.16 254.864 L2188.16 258.892 Q2185.87 259.864 2183.46 260.373 Q2181.06 260.883 2178.58 260.883 Q2172.38 260.883 2168.74 257.271 Q2165.13 253.66 2165.13 247.503 Q2165.13 241.137 2168.56 237.41 Q2172.01 233.66 2177.84 233.66 Q2183.07 233.66 2186.1 237.04 Q2189.16 240.397 2189.16 246.184 M2184.9 244.934 Q2184.85 241.438 2182.93 239.355 Q2181.03 237.272 2177.89 237.272 Q2174.32 237.272 2172.17 239.285 Q2170.04 241.299 2169.71 244.957 L2184.9 244.934 Z" fill="#000000" fill-rule="nonzero" fill-opacity="1" /><path clip-path="url(#clip950)" d="M2216.87 234.285 L2207.49 246.901 L2217.35 260.211 L2212.33 260.211 L2204.78 250.026 L2197.24 260.211 L2192.21 260.211 L2202.28 246.647 L2193.07 234.285 L2198.09 234.285 L2204.97 243.522 L2211.84 234.285 L2216.87 234.285 Z" fill="#000000" fill-rule="nonzero" fill-opacity="1" /><path clip-path="url(#clip950)" d="M2227.49 256.322 L2227.49 270.072 L2223.21 270.072 L2223.21 234.285 L2227.49 234.285 L2227.49 238.221 Q2228.83 235.906 2230.87 234.795 Q2232.93 233.66 2235.78 233.66 Q2240.5 233.66 2243.44 237.41 Q2246.4 241.16 2246.4 247.272 Q2246.4 253.383 2243.44 257.133 Q2240.5 260.883 2235.78 260.883 Q2232.93 260.883 2230.87 259.771 Q2228.83 258.637 2227.49 256.322 M2241.98 247.272 Q2241.98 242.572 2240.04 239.91 Q2238.12 237.225 2234.74 237.225 Q2231.36 237.225 2229.41 239.91 Q2227.49 242.572 2227.49 247.272 Q2227.49 251.971 2229.41 254.656 Q2231.36 257.318 2234.74 257.318 Q2238.12 257.318 2240.04 254.656 Q2241.98 251.971 2241.98 247.272 Z" fill="#000000" fill-rule="nonzero" fill-opacity="1" /><path clip-path="url(#clip950)" d="M2254.07 254.332 L2258.95 254.332 L2258.95 260.211 L2254.07 260.211 L2254.07 254.332 Z" fill="#000000" fill-rule="nonzero" fill-opacity="1" /></svg>
