<?xml version="1.0" encoding="utf-8"?>
<svg xmlns="http://www.w3.org/2000/svg" xmlns:xlink="http://www.w3.org/1999/xlink" width="600" height="400" viewBox="0 0 2400 1600">
<defs>
  <clipPath id="clip920">
    <rect x="0" y="0" width="2400" height="1600"/>
  </clipPath>
</defs>
<path clip-path="url(#clip920)" d="M0 1600 L2400 1600 L2400 0 L0 0  Z" fill="#ffffff" fill-rule="evenodd" fill-opacity="1"/>
<defs>
  <clipPath id="clip921">
    <rect x="232" y="47" width="2121" height="1377"/>
  </clipPath>
</defs>
<path clip-path="url(#clip920)" d="M232.389 1423.18 L2352.76 1423.18 L2352.76 47.2441 L232.389 47.2441  Z" fill="#ffffff" fill-rule="evenodd" fill-opacity="1"/>
<polyline clip-path="url(#clip921)" style="stroke:#000000; stroke-linecap:round; stroke-linejoin:round; stroke-width:2; stroke-opacity:0.1; fill:none" points="292.4,1423.18 292.4,47.2441 "/>
<polyline clip-path="url(#clip921)" style="stroke:#000000; stroke-linecap:round; stroke-linejoin:round; stroke-width:2; stroke-opacity:0.1; fill:none" points="768.565,1423.18 768.565,47.2441 "/>
<polyline clip-path="url(#clip921)" style="stroke:#000000; stroke-linecap:round; stroke-linejoin:round; stroke-width:2; stroke-opacity:0.1; fill:none" points="1244.73,1423.18 1244.73,47.2441 "/>
<polyline clip-path="url(#clip921)" style="stroke:#000000; stroke-linecap:round; stroke-linejoin:round; stroke-width:2; stroke-opacity:0.1; fill:none" points="1720.9,1423.18 1720.9,47.2441 "/>
<polyline clip-path="url(#clip921)" style="stroke:#000000; stroke-linecap:round; stroke-linejoin:round; stroke-width:2; stroke-opacity:0.1; fill:none" points="2197.06,1423.18 2197.06,47.2441 "/>
<polyline clip-path="url(#clip921)" style="stroke:#000000; stroke-linecap:round; stroke-linejoin:round; stroke-width:2; stroke-opacity:0.1; fill:none" points="232.389,1296.53 2352.76,1296.53 "/>
<polyline clip-path="url(#clip921)" style="stroke:#000000; stroke-linecap:round; stroke-linejoin:round; stroke-width:2; stroke-opacity:0.1; fill:none" points="232.389,945.707 2352.76,945.707 "/>
<polyline clip-path="url(#clip921)" style="stroke:#000000; stroke-linecap:round; stroke-linejoin:round; stroke-width:2; stroke-opacity:0.1; fill:none" points="232.389,594.882 2352.76,594.882 "/>
<polyline clip-path="url(#clip921)" style="stroke:#000000; stroke-linecap:round; stroke-linejoin:round; stroke-width:2; stroke-opacity:0.1; fill:none" points="232.389,244.057 2352.76,244.057 "/>
<polyline clip-path="url(#clip920)" style="stroke:#000000; stroke-linecap:round; stroke-linejoin:round; stroke-width:4; stroke-opacity:1; fill:none" points="232.389,1423.18 2352.76,1423.18 "/>
<polyline clip-path="url(#clip920)" style="stroke:#000000; stroke-linecap:round; stroke-linejoin:round; stroke-width:4; stroke-opacity:1; fill:none" points="292.4,1423.18 292.4,1404.28 "/>
<polyline clip-path="url(#clip920)" style="stroke:#000000; stroke-linecap:round; stroke-linejoin:round; stroke-width:4; stroke-opacity:1; fill:none" points="768.565,1423.18 768.565,1404.28 "/>
<polyline clip-path="url(#clip920)" style="stroke:#000000; stroke-linecap:round; stroke-linejoin:round; stroke-width:4; stroke-opacity:1; fill:none" points="1244.73,1423.18 1244.73,1404.28 "/>
<polyline clip-path="url(#clip920)" style="stroke:#000000; stroke-linecap:round; stroke-linejoin:round; stroke-width:4; stroke-opacity:1; fill:none" points="1720.9,1423.18 1720.9,1404.28 "/>
<polyline clip-path="url(#clip920)" style="stroke:#000000; stroke-linecap:round; stroke-linejoin:round; stroke-width:4; stroke-opacity:1; fill:none" points="2197.06,1423.18 2197.06,1404.28 "/>
<path clip-path="url(#clip920)" d="M292.4 1454.1 Q288.789 1454.1 286.96 1457.66 Q285.154 1461.2 285.154 1468.33 Q285.154 1475.44 286.96 1479.01 Q288.789 1482.55 292.4 1482.55 Q296.034 1482.55 297.84 1479.01 Q299.668 1475.44 299.668 1468.33 Q299.668 1461.2 297.84 1457.66 Q296.034 1454.1 292.4 1454.1 M292.4 1450.39 Q298.21 1450.39 301.265 1455 Q304.344 1459.58 304.344 1468.33 Q304.344 1477.06 301.265 1481.67 Q298.21 1486.25 292.4 1486.25 Q286.59 1486.25 283.511 1481.67 Q280.455 1477.06 280.455 1468.33 Q280.455 1459.58 283.511 1455 Q286.59 1450.39 292.4 1450.39 Z" fill="#000000" fill-rule="nonzero" fill-opacity="1" /><path clip-path="url(#clip920)" d="M758.843 1451.02 L777.2 1451.02 L777.2 1454.96 L763.126 1454.96 L763.126 1463.43 Q764.144 1463.08 765.163 1462.92 Q766.181 1462.73 767.2 1462.73 Q772.987 1462.73 776.366 1465.9 Q779.746 1469.08 779.746 1474.49 Q779.746 1480.07 776.274 1483.17 Q772.802 1486.25 766.482 1486.25 Q764.306 1486.25 762.038 1485.88 Q759.792 1485.51 757.385 1484.77 L757.385 1480.07 Q759.468 1481.2 761.69 1481.76 Q763.913 1482.32 766.39 1482.32 Q770.394 1482.32 772.732 1480.21 Q775.07 1478.1 775.07 1474.49 Q775.07 1470.88 772.732 1468.77 Q770.394 1466.67 766.39 1466.67 Q764.515 1466.67 762.64 1467.08 Q760.788 1467.5 758.843 1468.38 L758.843 1451.02 Z" fill="#000000" fill-rule="nonzero" fill-opacity="1" /><path clip-path="url(#clip920)" d="M1219.42 1481.64 L1227.06 1481.64 L1227.06 1455.28 L1218.75 1456.95 L1218.75 1452.69 L1227.01 1451.02 L1231.69 1451.02 L1231.69 1481.64 L1239.33 1481.64 L1239.33 1485.58 L1219.42 1485.58 L1219.42 1481.64 Z" fill="#000000" fill-rule="nonzero" fill-opacity="1" /><path clip-path="url(#clip920)" d="M1258.77 1454.1 Q1255.16 1454.1 1253.33 1457.66 Q1251.53 1461.2 1251.53 1468.33 Q1251.53 1475.44 1253.33 1479.01 Q1255.16 1482.55 1258.77 1482.55 Q1262.4 1482.55 1264.21 1479.01 Q1266.04 1475.44 1266.04 1468.33 Q1266.04 1461.2 1264.21 1457.66 Q1262.4 1454.1 1258.77 1454.1 M1258.77 1450.39 Q1264.58 1450.39 1267.64 1455 Q1270.71 1459.58 1270.71 1468.33 Q1270.71 1477.06 1267.64 1481.67 Q1264.58 1486.25 1258.77 1486.25 Q1252.96 1486.25 1249.88 1481.67 Q1246.83 1477.06 1246.83 1468.33 Q1246.83 1459.58 1249.88 1455 Q1252.96 1450.39 1258.77 1450.39 Z" fill="#000000" fill-rule="nonzero" fill-opacity="1" /><path clip-path="url(#clip920)" d="M1696.08 1481.64 L1703.72 1481.64 L1703.72 1455.28 L1695.41 1456.95 L1695.41 1452.69 L1703.67 1451.02 L1708.35 1451.02 L1708.35 1481.64 L1715.99 1481.64 L1715.99 1485.58 L1696.08 1485.58 L1696.08 1481.64 Z" fill="#000000" fill-rule="nonzero" fill-opacity="1" /><path clip-path="url(#clip920)" d="M1725.48 1451.02 L1743.84 1451.02 L1743.84 1454.96 L1729.76 1454.96 L1729.76 1463.43 Q1730.78 1463.08 1731.8 1462.92 Q1732.82 1462.73 1733.84 1462.73 Q1739.62 1462.73 1743 1465.9 Q1746.38 1469.08 1746.38 1474.49 Q1746.38 1480.07 1742.91 1483.17 Q1739.44 1486.25 1733.12 1486.25 Q1730.94 1486.25 1728.67 1485.88 Q1726.43 1485.51 1724.02 1484.77 L1724.02 1480.07 Q1726.11 1481.2 1728.33 1481.76 Q1730.55 1482.32 1733.03 1482.32 Q1737.03 1482.32 1739.37 1480.21 Q1741.71 1478.1 1741.71 1474.49 Q1741.71 1470.88 1739.37 1468.77 Q1737.03 1466.67 1733.03 1466.67 Q1731.15 1466.67 1729.28 1467.08 Q1727.42 1467.5 1725.48 1468.38 L1725.48 1451.02 Z" fill="#000000" fill-rule="nonzero" fill-opacity="1" /><path clip-path="url(#clip920)" d="M2175.84 1481.64 L2192.16 1481.64 L2192.16 1485.58 L2170.21 1485.58 L2170.21 1481.64 Q2172.87 1478.89 2177.46 1474.26 Q2182.06 1469.61 2183.24 1468.27 Q2185.49 1465.74 2186.37 1464.01 Q2187.27 1462.25 2187.27 1460.56 Q2187.27 1457.8 2185.33 1456.07 Q2183.41 1454.33 2180.3 1454.33 Q2178.1 1454.33 2175.65 1455.09 Q2173.22 1455.86 2170.44 1457.41 L2170.44 1452.69 Q2173.27 1451.55 2175.72 1450.97 Q2178.17 1450.39 2180.21 1450.39 Q2185.58 1450.39 2188.78 1453.08 Q2191.97 1455.77 2191.97 1460.26 Q2191.97 1462.39 2191.16 1464.31 Q2190.37 1466.2 2188.27 1468.8 Q2187.69 1469.47 2184.59 1472.69 Q2181.48 1475.88 2175.84 1481.64 Z" fill="#000000" fill-rule="nonzero" fill-opacity="1" /><path clip-path="url(#clip920)" d="M2211.97 1454.1 Q2208.36 1454.1 2206.53 1457.66 Q2204.72 1461.2 2204.72 1468.33 Q2204.72 1475.44 2206.53 1479.01 Q2208.36 1482.55 2211.97 1482.55 Q2215.6 1482.55 2217.41 1479.01 Q2219.24 1475.44 2219.24 1468.33 Q2219.24 1461.2 2217.41 1457.66 Q2215.6 1454.1 2211.97 1454.1 M2211.97 1450.39 Q2217.78 1450.39 2220.84 1455 Q2223.91 1459.58 2223.91 1468.33 Q2223.91 1477.06 2220.84 1481.67 Q2217.78 1486.25 2211.97 1486.25 Q2206.16 1486.25 2203.08 1481.67 Q2200.03 1477.06 2200.03 1468.33 Q2200.03 1459.58 2203.08 1455 Q2206.16 1450.39 2211.97 1450.39 Z" fill="#000000" fill-rule="nonzero" fill-opacity="1" /><path clip-path="url(#clip920)" d="M1291.33 1546.53 L1291.33 1568.04 L1285.47 1568.04 L1285.47 1546.72 Q1285.47 1541.66 1283.5 1539.14 Q1281.53 1536.63 1277.58 1536.63 Q1272.84 1536.63 1270.1 1539.65 Q1267.36 1542.68 1267.36 1547.9 L1267.36 1568.04 L1261.48 1568.04 L1261.48 1518.52 L1267.36 1518.52 L1267.36 1537.93 Q1269.47 1534.72 1272.3 1533.13 Q1275.16 1531.54 1278.89 1531.54 Q1285.03 1531.54 1288.18 1535.36 Q1291.33 1539.14 1291.33 1546.53 Z" fill="#000000" fill-rule="nonzero" fill-opacity="1" /><path clip-path="url(#clip920)" d="M1323.67 1537.87 Q1322.68 1537.3 1321.5 1537.04 Q1320.36 1536.76 1318.96 1536.76 Q1313.99 1536.76 1311.32 1540 Q1308.68 1543.22 1308.68 1549.27 L1308.68 1568.04 L1302.79 1568.04 L1302.79 1532.4 L1308.68 1532.4 L1308.68 1537.93 Q1310.52 1534.69 1313.48 1533.13 Q1316.44 1531.54 1320.68 1531.54 Q1321.28 1531.54 1322.01 1531.63 Q1322.75 1531.7 1323.64 1531.85 L1323.67 1537.87 Z" fill="#000000" fill-rule="nonzero" fill-opacity="1" /><polyline clip-path="url(#clip920)" style="stroke:#000000; stroke-linecap:round; stroke-linejoin:round; stroke-width:4; stroke-opacity:1; fill:none" points="232.389,1423.18 232.389,47.2441 "/>
<polyline clip-path="url(#clip920)" style="stroke:#000000; stroke-linecap:round; stroke-linejoin:round; stroke-width:4; stroke-opacity:1; fill:none" points="232.389,1296.53 251.287,1296.53 "/>
<polyline clip-path="url(#clip920)" style="stroke:#000000; stroke-linecap:round; stroke-linejoin:round; stroke-width:4; stroke-opacity:1; fill:none" points="232.389,945.707 251.287,945.707 "/>
<polyline clip-path="url(#clip920)" style="stroke:#000000; stroke-linecap:round; stroke-linejoin:round; stroke-width:4; stroke-opacity:1; fill:none" points="232.389,594.882 251.287,594.882 "/>
<polyline clip-path="url(#clip920)" style="stroke:#000000; stroke-linecap:round; stroke-linejoin:round; stroke-width:4; stroke-opacity:1; fill:none" points="232.389,244.057 251.287,244.057 "/>
<path clip-path="url(#clip920)" d="M114.931 1309.88 L122.57 1309.88 L122.57 1283.51 L114.26 1285.18 L114.26 1280.92 L122.524 1279.25 L127.2 1279.25 L127.2 1309.88 L134.839 1309.88 L134.839 1313.81 L114.931 1313.81 L114.931 1309.88 Z" fill="#000000" fill-rule="nonzero" fill-opacity="1" /><path clip-path="url(#clip920)" d="M154.283 1282.33 Q150.672 1282.33 148.843 1285.9 Q147.038 1289.44 147.038 1296.57 Q147.038 1303.67 148.843 1307.24 Q150.672 1310.78 154.283 1310.78 Q157.917 1310.78 159.723 1307.24 Q161.552 1303.67 161.552 1296.57 Q161.552 1289.44 159.723 1285.9 Q157.917 1282.33 154.283 1282.33 M154.283 1278.63 Q160.093 1278.63 163.149 1283.23 Q166.227 1287.82 166.227 1296.57 Q166.227 1305.29 163.149 1309.9 Q160.093 1314.48 154.283 1314.48 Q148.473 1314.48 145.394 1309.9 Q142.339 1305.29 142.339 1296.57 Q142.339 1287.82 145.394 1283.23 Q148.473 1278.63 154.283 1278.63 Z" fill="#000000" fill-rule="nonzero" fill-opacity="1" /><path clip-path="url(#clip920)" d="M184.445 1282.33 Q180.834 1282.33 179.005 1285.9 Q177.2 1289.44 177.2 1296.57 Q177.2 1303.67 179.005 1307.24 Q180.834 1310.78 184.445 1310.78 Q188.079 1310.78 189.885 1307.24 Q191.713 1303.67 191.713 1296.57 Q191.713 1289.44 189.885 1285.9 Q188.079 1282.33 184.445 1282.33 M184.445 1278.63 Q190.255 1278.63 193.311 1283.23 Q196.389 1287.82 196.389 1296.57 Q196.389 1305.29 193.311 1309.9 Q190.255 1314.48 184.445 1314.48 Q178.635 1314.48 175.556 1309.9 Q172.501 1305.29 172.501 1296.57 Q172.501 1287.82 175.556 1283.23 Q178.635 1278.63 184.445 1278.63 Z" fill="#000000" fill-rule="nonzero" fill-opacity="1" /><path clip-path="url(#clip920)" d="M114.931 959.052 L122.57 959.052 L122.57 932.686 L114.26 934.353 L114.26 930.094 L122.524 928.427 L127.2 928.427 L127.2 959.052 L134.839 959.052 L134.839 962.987 L114.931 962.987 L114.931 959.052 Z" fill="#000000" fill-rule="nonzero" fill-opacity="1" /><path clip-path="url(#clip920)" d="M148.311 959.052 L164.63 959.052 L164.63 962.987 L142.686 962.987 L142.686 959.052 Q145.348 956.297 149.931 951.668 Q154.538 947.015 155.718 945.672 Q157.964 943.149 158.843 941.413 Q159.746 939.654 159.746 937.964 Q159.746 935.209 157.802 933.473 Q155.88 931.737 152.778 931.737 Q150.579 931.737 148.126 932.501 Q145.695 933.265 142.917 934.816 L142.917 930.094 Q145.741 928.959 148.195 928.381 Q150.649 927.802 152.686 927.802 Q158.056 927.802 161.251 930.487 Q164.445 933.172 164.445 937.663 Q164.445 939.793 163.635 941.714 Q162.848 943.612 160.741 946.205 Q160.163 946.876 157.061 950.094 Q153.959 953.288 148.311 959.052 Z" fill="#000000" fill-rule="nonzero" fill-opacity="1" /><path clip-path="url(#clip920)" d="M184.445 931.506 Q180.834 931.506 179.005 935.07 Q177.2 938.612 177.2 945.742 Q177.2 952.848 179.005 956.413 Q180.834 959.955 184.445 959.955 Q188.079 959.955 189.885 956.413 Q191.713 952.848 191.713 945.742 Q191.713 938.612 189.885 935.07 Q188.079 931.506 184.445 931.506 M184.445 927.802 Q190.255 927.802 193.311 932.408 Q196.389 936.992 196.389 945.742 Q196.389 954.469 193.311 959.075 Q190.255 963.658 184.445 963.658 Q178.635 963.658 175.556 959.075 Q172.501 954.469 172.501 945.742 Q172.501 936.992 175.556 932.408 Q178.635 927.802 184.445 927.802 Z" fill="#000000" fill-rule="nonzero" fill-opacity="1" /><path clip-path="url(#clip920)" d="M114.931 608.227 L122.57 608.227 L122.57 581.861 L114.26 583.528 L114.26 579.269 L122.524 577.602 L127.2 577.602 L127.2 608.227 L134.839 608.227 L134.839 612.162 L114.931 612.162 L114.931 608.227 Z" fill="#000000" fill-rule="nonzero" fill-opacity="1" /><path clip-path="url(#clip920)" d="M157.13 581.676 L145.325 600.125 L157.13 600.125 L157.13 581.676 M155.903 577.602 L161.783 577.602 L161.783 600.125 L166.714 600.125 L166.714 604.014 L161.783 604.014 L161.783 612.162 L157.13 612.162 L157.13 604.014 L141.529 604.014 L141.529 599.5 L155.903 577.602 Z" fill="#000000" fill-rule="nonzero" fill-opacity="1" /><path clip-path="url(#clip920)" d="M184.445 580.681 Q180.834 580.681 179.005 584.245 Q177.2 587.787 177.2 594.917 Q177.2 602.023 179.005 605.588 Q180.834 609.13 184.445 609.13 Q188.079 609.13 189.885 605.588 Q191.713 602.023 191.713 594.917 Q191.713 587.787 189.885 584.245 Q188.079 580.681 184.445 580.681 M184.445 576.977 Q190.255 576.977 193.311 581.583 Q196.389 586.167 196.389 594.917 Q196.389 603.643 193.311 608.25 Q190.255 612.833 184.445 612.833 Q178.635 612.833 175.556 608.25 Q172.501 603.643 172.501 594.917 Q172.501 586.167 175.556 581.583 Q178.635 576.977 184.445 576.977 Z" fill="#000000" fill-rule="nonzero" fill-opacity="1" /><path clip-path="url(#clip920)" d="M114.931 257.402 L122.57 257.402 L122.57 231.036 L114.26 232.703 L114.26 228.444 L122.524 226.777 L127.2 226.777 L127.2 257.402 L134.839 257.402 L134.839 261.337 L114.931 261.337 L114.931 257.402 Z" fill="#000000" fill-rule="nonzero" fill-opacity="1" /><path clip-path="url(#clip920)" d="M154.862 242.194 Q151.714 242.194 149.862 244.346 Q148.033 246.499 148.033 250.249 Q148.033 253.976 149.862 256.152 Q151.714 258.305 154.862 258.305 Q158.01 258.305 159.839 256.152 Q161.69 253.976 161.69 250.249 Q161.69 246.499 159.839 244.346 Q158.01 242.194 154.862 242.194 M164.144 227.541 L164.144 231.8 Q162.385 230.967 160.579 230.527 Q158.797 230.087 157.038 230.087 Q152.408 230.087 149.954 233.212 Q147.524 236.337 147.177 242.656 Q148.542 240.643 150.603 239.578 Q152.663 238.49 155.14 238.49 Q160.348 238.49 163.357 241.661 Q166.39 244.809 166.39 250.249 Q166.39 255.573 163.241 258.791 Q160.093 262.008 154.862 262.008 Q148.866 262.008 145.695 257.425 Q142.524 252.818 142.524 244.092 Q142.524 235.897 146.413 231.036 Q150.302 226.152 156.853 226.152 Q158.612 226.152 160.394 226.499 Q162.2 226.846 164.144 227.541 Z" fill="#000000" fill-rule="nonzero" fill-opacity="1" /><path clip-path="url(#clip920)" d="M184.445 229.856 Q180.834 229.856 179.005 233.42 Q177.2 236.962 177.2 244.092 Q177.2 251.198 179.005 254.763 Q180.834 258.305 184.445 258.305 Q188.079 258.305 189.885 254.763 Q191.713 251.198 191.713 244.092 Q191.713 236.962 189.885 233.42 Q188.079 229.856 184.445 229.856 M184.445 226.152 Q190.255 226.152 193.311 230.758 Q196.389 235.342 196.389 244.092 Q196.389 252.818 193.311 257.425 Q190.255 262.008 184.445 262.008 Q178.635 262.008 175.556 257.425 Q172.501 252.818 172.501 244.092 Q172.501 235.342 175.556 230.758 Q178.635 226.152 184.445 226.152 Z" fill="#000000" fill-rule="nonzero" fill-opacity="1" /><path clip-path="url(#clip920)" d="M21.7677 990.031 L39.6235 990.031 L39.6235 981.947 Q39.6235 977.459 37.3 975.008 Q34.9765 972.557 30.6797 972.557 Q26.4147 972.557 24.0912 975.008 Q21.7677 977.459 21.7677 981.947 L21.7677 990.031 M16.4842 996.461 L16.4842 981.947 Q16.4842 973.958 20.1126 969.884 Q23.7092 965.778 30.6797 965.778 Q37.7138 965.778 41.3104 969.884 Q44.907 973.958 44.907 981.947 L44.907 990.031 L64.0042 990.031 L64.0042 996.461 L16.4842 996.461 Z" fill="#000000" fill-rule="nonzero" fill-opacity="1" /><path clip-path="url(#clip920)" d="M33.8307 937.896 Q33.2578 938.883 33.0032 940.06 Q32.7167 941.206 32.7167 942.607 Q32.7167 947.572 35.9632 950.246 Q39.1779 952.887 45.2253 952.887 L64.0042 952.887 L64.0042 958.776 L28.3562 958.776 L28.3562 952.887 L33.8944 952.887 Q30.6479 951.041 29.0883 948.081 Q27.4968 945.121 27.4968 940.888 Q27.4968 940.283 27.5923 939.551 Q27.656 938.819 27.8151 937.928 L33.8307 937.896 Z" fill="#000000" fill-rule="nonzero" fill-opacity="1" /><path clip-path="url(#clip920)" d="M44.7161 902.694 L47.5806 902.694 L47.5806 929.621 Q53.6281 929.239 56.8109 925.992 Q59.9619 922.714 59.9619 916.889 Q59.9619 913.515 59.1344 910.364 Q58.3069 907.182 56.6518 904.062 L62.1899 904.062 Q63.5267 907.213 64.227 910.524 Q64.9272 913.834 64.9272 917.239 Q64.9272 925.769 59.9619 930.766 Q54.9967 935.732 46.5303 935.732 Q37.7774 935.732 32.6531 931.021 Q27.4968 926.279 27.4968 918.258 Q27.4968 911.065 32.1438 906.895 Q36.7589 902.694 44.7161 902.694 M42.9973 908.55 Q38.1912 908.614 35.3266 911.256 Q32.4621 913.866 32.4621 918.194 Q32.4621 923.096 35.2312 926.056 Q38.0002 928.984 43.0292 929.43 L42.9973 908.55 Z" fill="#000000" fill-rule="nonzero" fill-opacity="1" /><path clip-path="url(#clip920)" d="M29.4065 870.356 L34.9447 870.356 Q33.6716 872.839 33.035 875.512 Q32.3984 878.186 32.3984 881.05 Q32.3984 885.411 33.7352 887.607 Q35.072 889.771 37.7456 889.771 Q39.7826 889.771 40.9603 888.212 Q42.1061 886.652 43.1565 881.942 L43.6021 879.936 Q44.9389 873.698 47.3897 871.088 Q49.8086 868.446 54.1691 868.446 Q59.1344 868.446 62.0308 872.393 Q64.9272 876.308 64.9272 883.183 Q64.9272 886.047 64.3543 889.167 Q63.8132 892.254 62.6992 895.691 L56.6518 895.691 Q58.3387 892.445 59.198 889.294 Q60.0256 886.143 60.0256 883.056 Q60.0256 878.918 58.6251 876.69 Q57.1929 874.462 54.6147 874.462 Q52.2276 874.462 50.9545 876.085 Q49.6813 877.676 48.5037 883.119 L48.0262 885.156 Q46.8804 890.599 44.5251 893.018 Q42.138 895.437 38.0002 895.437 Q32.9713 895.437 30.2341 891.872 Q27.4968 888.307 27.4968 881.751 Q27.4968 878.504 27.9743 875.639 Q28.4517 872.775 29.4065 870.356 Z" fill="#000000" fill-rule="nonzero" fill-opacity="1" /><path clip-path="url(#clip920)" d="M29.4065 836.395 L34.9447 836.395 Q33.6716 838.878 33.035 841.551 Q32.3984 844.225 32.3984 847.089 Q32.3984 851.45 33.7352 853.646 Q35.072 855.81 37.7456 855.81 Q39.7826 855.81 40.9603 854.251 Q42.1061 852.691 43.1565 847.98 L43.6021 845.975 Q44.9389 839.737 47.3897 837.127 Q49.8086 834.485 54.1691 834.485 Q59.1344 834.485 62.0308 838.432 Q64.9272 842.347 64.9272 849.222 Q64.9272 852.086 64.3543 855.206 Q63.8132 858.293 62.6992 861.73 L56.6518 861.73 Q58.3387 858.484 59.198 855.333 Q60.0256 852.182 60.0256 849.094 Q60.0256 844.957 58.6251 842.729 Q57.1929 840.501 54.6147 840.501 Q52.2276 840.501 50.9545 842.124 Q49.6813 843.715 48.5037 849.158 L48.0262 851.195 Q46.8804 856.638 44.5251 859.057 Q42.138 861.476 38.0002 861.476 Q32.9713 861.476 30.2341 857.911 Q27.4968 854.346 27.4968 847.789 Q27.4968 844.543 27.9743 841.678 Q28.4517 838.814 29.4065 836.395 Z" fill="#000000" fill-rule="nonzero" fill-opacity="1" /><path clip-path="url(#clip920)" d="M49.9359 825.764 L28.3562 825.764 L28.3562 819.908 L49.7131 819.908 Q54.7739 819.908 57.3202 817.934 Q59.8346 815.961 59.8346 812.014 Q59.8346 807.272 56.8109 804.535 Q53.7872 801.765 48.5673 801.765 L28.3562 801.765 L28.3562 795.909 L64.0042 795.909 L64.0042 801.765 L58.5296 801.765 Q61.7762 803.898 63.3676 806.731 Q64.9272 809.532 64.9272 813.256 Q64.9272 819.398 61.1078 822.581 Q57.2883 825.764 49.9359 825.764 M27.4968 811.028 L27.4968 811.028 Z" fill="#000000" fill-rule="nonzero" fill-opacity="1" /><path clip-path="url(#clip920)" d="M33.8307 763.189 Q33.2578 764.176 33.0032 765.354 Q32.7167 766.499 32.7167 767.9 Q32.7167 772.865 35.9632 775.539 Q39.1779 778.18 45.2253 778.18 L64.0042 778.18 L64.0042 784.069 L28.3562 784.069 L28.3562 778.18 L33.8944 778.18 Q30.6479 776.334 29.0883 773.374 Q27.4968 770.414 27.4968 766.181 Q27.4968 765.576 27.5923 764.844 Q27.656 764.112 27.8151 763.221 L33.8307 763.189 Z" fill="#000000" fill-rule="nonzero" fill-opacity="1" /><path clip-path="url(#clip920)" d="M44.7161 727.987 L47.5806 727.987 L47.5806 754.914 Q53.6281 754.532 56.8109 751.285 Q59.9619 748.007 59.9619 742.182 Q59.9619 738.809 59.1344 735.658 Q58.3069 732.475 56.6518 729.356 L62.1899 729.356 Q63.5267 732.507 64.227 735.817 Q64.9272 739.127 64.9272 742.533 Q64.9272 751.063 59.9619 756.06 Q54.9967 761.025 46.5303 761.025 Q37.7774 761.025 32.6531 756.314 Q27.4968 751.572 27.4968 743.551 Q27.4968 736.358 32.1438 732.188 Q36.7589 727.987 44.7161 727.987 M42.9973 733.843 Q38.1912 733.907 35.3266 736.549 Q32.4621 739.159 32.4621 743.487 Q32.4621 748.389 35.2312 751.349 Q38.0002 754.277 43.0292 754.723 L42.9973 733.843 Z" fill="#000000" fill-rule="nonzero" fill-opacity="1" /><path clip-path="url(#clip920)" d="M14.5426 683.586 Q21.8632 687.851 29.0246 689.92 Q36.186 691.989 43.5384 691.989 Q50.8908 691.989 58.1159 689.92 Q65.3091 687.819 72.5979 683.586 L72.5979 688.679 Q65.1182 693.453 57.8931 695.84 Q50.668 698.195 43.5384 698.195 Q36.4406 698.195 29.2474 695.84 Q22.0542 693.485 14.5426 688.679 L14.5426 683.586 Z" fill="#000000" fill-rule="nonzero" fill-opacity="1" /><path clip-path="url(#clip920)" d="M35.1993 644.469 Q31.2526 642.273 29.3747 639.217 Q27.4968 636.162 27.4968 632.024 Q27.4968 626.454 31.4117 623.43 Q35.2948 620.406 42.4881 620.406 L64.0042 620.406 L64.0042 626.295 L42.679 626.295 Q37.5546 626.295 35.072 628.109 Q32.5894 629.923 32.5894 633.647 Q32.5894 638.199 35.6131 640.84 Q38.6368 643.482 43.8567 643.482 L64.0042 643.482 L64.0042 649.37 L42.679 649.37 Q37.5228 649.37 35.072 651.185 Q32.5894 652.999 32.5894 656.786 Q32.5894 661.274 35.6449 663.916 Q38.6686 666.558 43.8567 666.558 L64.0042 666.558 L64.0042 672.446 L28.3562 672.446 L28.3562 666.558 L33.8944 666.558 Q30.616 664.553 29.0564 661.752 Q27.4968 658.951 27.4968 655.1 Q27.4968 651.216 29.4702 648.511 Q31.4436 645.774 35.1993 644.469 Z" fill="#000000" fill-rule="nonzero" fill-opacity="1" /><path clip-path="url(#clip920)" d="M16.4842 615.059 L16.4842 574.86 L21.895 574.86 L21.895 591.729 L64.0042 591.729 L64.0042 598.19 L21.895 598.19 L21.895 615.059 L16.4842 615.059 Z" fill="#000000" fill-rule="nonzero" fill-opacity="1" /><path clip-path="url(#clip920)" d="M32.4621 566.171 Q32.4621 570.881 36.1542 573.619 Q39.8145 576.356 46.212 576.356 Q52.6095 576.356 56.3017 573.65 Q59.9619 570.913 59.9619 566.171 Q59.9619 561.492 56.2698 558.755 Q52.5777 556.017 46.212 556.017 Q39.8781 556.017 36.186 558.755 Q32.4621 561.492 32.4621 566.171 M27.4968 566.171 Q27.4968 558.532 32.4621 554.171 Q37.4273 549.811 46.212 549.811 Q54.9649 549.811 59.9619 554.171 Q64.9272 558.532 64.9272 566.171 Q64.9272 573.841 59.9619 578.202 Q54.9649 582.53 46.212 582.53 Q37.4273 582.53 32.4621 578.202 Q27.4968 573.841 27.4968 566.171 Z" fill="#000000" fill-rule="nonzero" fill-opacity="1" /><path clip-path="url(#clip920)" d="M33.8307 519.446 Q33.2578 520.433 33.0032 521.611 Q32.7167 522.757 32.7167 524.157 Q32.7167 529.122 35.9632 531.796 Q39.1779 534.438 45.2253 534.438 L64.0042 534.438 L64.0042 540.326 L28.3562 540.326 L28.3562 534.438 L33.8944 534.438 Q30.6479 532.592 29.0883 529.631 Q27.4968 526.671 27.4968 522.438 Q27.4968 521.833 27.5923 521.101 Q27.656 520.369 27.8151 519.478 L33.8307 519.446 Z" fill="#000000" fill-rule="nonzero" fill-opacity="1" /><path clip-path="url(#clip920)" d="M33.8307 493.793 Q33.2578 494.779 33.0032 495.957 Q32.7167 497.103 32.7167 498.503 Q32.7167 503.468 35.9632 506.142 Q39.1779 508.784 45.2253 508.784 L64.0042 508.784 L64.0042 514.672 L28.3562 514.672 L28.3562 508.784 L33.8944 508.784 Q30.6479 506.938 29.0883 503.978 Q27.4968 501.018 27.4968 496.784 Q27.4968 496.18 27.5923 495.448 Q27.656 494.716 27.8151 493.824 L33.8307 493.793 Z" fill="#000000" fill-rule="nonzero" fill-opacity="1" /><path clip-path="url(#clip920)" d="M14.5426 488.573 L14.5426 483.48 Q22.0542 478.706 29.2474 476.351 Q36.4406 473.963 43.5384 473.963 Q50.668 473.963 57.8931 476.351 Q65.1182 478.706 72.5979 483.48 L72.5979 488.573 Q65.3091 484.339 58.1159 482.271 Q50.8908 480.17 43.5384 480.17 Q36.186 480.17 29.0246 482.271 Q21.8632 484.339 14.5426 488.573 Z" fill="#000000" fill-rule="nonzero" fill-opacity="1" /><path clip-path="url(#clip921)" d="M292.4 1368.24 L276.4 1400.24 L308.4 1400.24 L292.4 1368.24 Z" fill="#009af9" fill-rule="evenodd" fill-opacity="1" stroke="#000000" stroke-opacity="1" stroke-width="3.2"/>
<path clip-path="url(#clip921)" d="M492.442 1280.53 L476.442 1312.53 L508.442 1312.53 L492.442 1280.53 Z" fill="#009af9" fill-rule="evenodd" fill-opacity="1" stroke="#000000" stroke-opacity="1" stroke-width="3.2"/>
<path clip-path="url(#clip921)" d="M692.458 1280.53 L676.458 1312.53 L708.458 1312.53 L692.458 1280.53 Z" fill="#009af9" fill-rule="evenodd" fill-opacity="1" stroke="#000000" stroke-opacity="1" stroke-width="3.2"/>
<path clip-path="url(#clip921)" d="M892.501 1280.53 L876.501 1312.53 L908.501 1312.53 L892.501 1280.53 Z" fill="#009af9" fill-rule="evenodd" fill-opacity="1" stroke="#000000" stroke-opacity="1" stroke-width="3.2"/>
<path clip-path="url(#clip921)" d="M1092.54 1280.53 L1076.54 1312.53 L1108.54 1312.53 L1092.54 1280.53 Z" fill="#009af9" fill-rule="evenodd" fill-opacity="1" stroke="#000000" stroke-opacity="1" stroke-width="3.2"/>
<path clip-path="url(#clip921)" d="M1292.56 1280.53 L1276.56 1312.53 L1308.56 1312.53 L1292.56 1280.53 Z" fill="#009af9" fill-rule="evenodd" fill-opacity="1" stroke="#000000" stroke-opacity="1" stroke-width="3.2"/>
<path clip-path="url(#clip921)" d="M1492.6 1280.53 L1476.6 1312.53 L1508.6 1312.53 L1492.6 1280.53 Z" fill="#009af9" fill-rule="evenodd" fill-opacity="1" stroke="#000000" stroke-opacity="1" stroke-width="3.2"/>
<path clip-path="url(#clip921)" d="M1692.64 1280.53 L1676.64 1312.53 L1708.64 1312.53 L1692.64 1280.53 Z" fill="#009af9" fill-rule="evenodd" fill-opacity="1" stroke="#000000" stroke-opacity="1" stroke-width="3.2"/>
<path clip-path="url(#clip921)" d="M1892.69 1280.53 L1876.69 1312.53 L1908.69 1312.53 L1892.69 1280.53 Z" fill="#009af9" fill-rule="evenodd" fill-opacity="1" stroke="#000000" stroke-opacity="1" stroke-width="3.2"/>
<path clip-path="url(#clip921)" d="M2092.7 1280.53 L2076.7 1312.53 L2108.7 1312.53 L2092.7 1280.53 Z" fill="#009af9" fill-rule="evenodd" fill-opacity="1" stroke="#000000" stroke-opacity="1" stroke-width="3.2"/>
<path clip-path="url(#clip921)" d="M2292.75 1280.53 L2276.75 1312.53 L2308.75 1312.53 L2292.75 1280.53 Z" fill="#009af9" fill-rule="evenodd" fill-opacity="1" stroke="#000000" stroke-opacity="1" stroke-width="3.2"/>
<path clip-path="url(#clip921)" d="M308.4 228.057 L276.4 228.057 L292.4 260.057 L308.4 228.057 Z" fill="#e26f46" fill-rule="evenodd" fill-opacity="1" stroke="#000000" stroke-opacity="1" stroke-width="3.2"/>
<path clip-path="url(#clip921)" d="M508.442 70.1857 L476.442 70.1857 L492.442 102.186 L508.442 70.1857 Z" fill="#e26f46" fill-rule="evenodd" fill-opacity="1" stroke="#000000" stroke-opacity="1" stroke-width="3.2"/>
<path clip-path="url(#clip921)" d="M708.458 70.1857 L676.458 70.1857 L692.458 102.186 L708.458 70.1857 Z" fill="#e26f46" fill-rule="evenodd" fill-opacity="1" stroke="#000000" stroke-opacity="1" stroke-width="3.2"/>
<path clip-path="url(#clip921)" d="M908.501 70.1857 L876.501 70.1857 L892.501 102.186 L908.501 70.1857 Z" fill="#e26f46" fill-rule="evenodd" fill-opacity="1" stroke="#000000" stroke-opacity="1" stroke-width="3.2"/>
<path clip-path="url(#clip921)" d="M1108.54 70.1857 L1076.54 70.1857 L1092.54 102.186 L1108.54 70.1857 Z" fill="#e26f46" fill-rule="evenodd" fill-opacity="1" stroke="#000000" stroke-opacity="1" stroke-width="3.2"/>
<path clip-path="url(#clip921)" d="M1308.56 70.1857 L1276.56 70.1857 L1292.56 102.186 L1308.56 70.1857 Z" fill="#e26f46" fill-rule="evenodd" fill-opacity="1" stroke="#000000" stroke-opacity="1" stroke-width="3.2"/>
<path clip-path="url(#clip921)" d="M1508.6 87.7269 L1476.6 87.7269 L1492.6 119.727 L1508.6 87.7269 Z" fill="#e26f46" fill-rule="evenodd" fill-opacity="1" stroke="#000000" stroke-opacity="1" stroke-width="3.2"/>
<path clip-path="url(#clip921)" d="M1708.64 70.1857 L1676.64 70.1857 L1692.64 102.186 L1708.64 70.1857 Z" fill="#e26f46" fill-rule="evenodd" fill-opacity="1" stroke="#000000" stroke-opacity="1" stroke-width="3.2"/>
<path clip-path="url(#clip921)" d="M1908.69 87.7269 L1876.69 87.7269 L1892.69 119.727 L1908.69 87.7269 Z" fill="#e26f46" fill-rule="evenodd" fill-opacity="1" stroke="#000000" stroke-opacity="1" stroke-width="3.2"/>
<path clip-path="url(#clip921)" d="M2108.7 245.598 L2076.7 245.598 L2092.7 277.598 L2108.7 245.598 Z" fill="#e26f46" fill-rule="evenodd" fill-opacity="1" stroke="#000000" stroke-opacity="1" stroke-width="3.2"/>
<path clip-path="url(#clip921)" d="M2308.75 1175.28 L2276.75 1175.28 L2292.75 1207.28 L2308.75 1175.28 Z" fill="#e26f46" fill-rule="evenodd" fill-opacity="1" stroke="#000000" stroke-opacity="1" stroke-width="3.2"/>
<polyline clip-path="url(#clip921)" style="stroke:#808080; stroke-linecap:round; stroke-linejoin:round; stroke-width:12; stroke-opacity:1; fill:none" stroke-dasharray="48, 30" points="2069.47,2799.12 2069.47,-1328.69 "/>
<path clip-path="url(#clip920)" d="M303.068 263.808 L737.223 263.808 L737.223 93.1086 L303.068 93.1086  Z" fill="#ffffff" fill-rule="evenodd" fill-opacity="1"/>
<polyline clip-path="url(#clip920)" style="stroke:#000000; stroke-linecap:round; stroke-linejoin:round; stroke-width:4; stroke-opacity:1; fill:none" points="303.068,263.808 737.223,263.808 737.223,93.1086 303.068,93.1086 303.068,263.808 "/>
<polyline clip-path="url(#clip920)" style="stroke:#009af9; stroke-linecap:round; stroke-linejoin:round; stroke-width:4; stroke-opacity:1; fill:none" points="326.628,150.008 467.986,150.008 "/>
<path clip-path="url(#clip920)" d="M397.307 130.134 L377.432 169.883 L417.181 169.883 L397.307 130.134 Z" fill="#009af9" fill-rule="evenodd" fill-opacity="1" stroke="#000000" stroke-opacity="1" stroke-width="4.55111"/>
<path clip-path="url(#clip920)" d="M516.607 141.505 Q516.607 144.924 514.874 148.227 Q513.164 151.529 510.471 153.567 Q507.777 155.582 505.037 155.582 Q503.397 155.582 502.296 154.692 Q501.219 153.778 500.633 152.49 Q500.188 154.083 499.228 157.9 Q498.268 161.718 498.268 162.093 Q498.268 162.304 498.314 162.397 Q498.361 162.491 498.572 162.608 Q498.783 162.749 499.298 162.796 Q499.813 162.866 500.68 162.866 Q501.125 162.866 501.289 162.866 Q501.476 162.889 501.64 163.006 Q501.828 163.124 501.828 163.381 Q501.828 164.342 500.961 164.342 Q500.188 164.342 498.595 164.271 Q497.003 164.201 496.206 164.201 Q495.527 164.201 494.169 164.271 Q492.81 164.342 492.178 164.342 Q491.545 164.342 491.545 163.779 Q491.545 163.451 491.639 163.241 Q491.709 163.053 491.897 162.96 Q492.084 162.889 492.248 162.866 Q492.388 162.866 492.67 162.866 Q493.747 162.866 494.215 162.679 Q494.684 162.515 494.848 162.163 Q495.035 161.835 495.246 160.898 L500.633 139.537 Q500.961 138.108 500.961 137.101 Q500.961 135.836 500.563 135.368 Q500.165 134.9 499.462 134.9 Q498.244 134.9 497.448 136.352 Q496.651 137.804 495.972 140.615 Q495.761 141.388 495.621 141.552 Q495.504 141.715 495.152 141.715 Q494.567 141.692 494.567 141.224 Q494.567 141.106 494.754 140.357 Q494.942 139.584 495.293 138.46 Q495.668 137.312 496.066 136.586 Q496.3 136.094 496.511 135.766 Q496.722 135.438 497.143 134.923 Q497.588 134.408 498.221 134.127 Q498.853 133.846 499.626 133.846 Q501.125 133.846 502.366 134.736 Q503.608 135.626 503.936 137.429 Q505.271 135.86 506.91 134.853 Q508.55 133.846 510.213 133.846 Q512.977 133.846 514.78 136 Q516.607 138.132 516.607 141.505 M513.141 139.397 Q513.141 137.265 512.321 136.094 Q511.525 134.9 510.072 134.9 Q508.269 134.9 506.184 136.726 Q504.123 138.46 503.702 140.076 L501.336 149.468 L501.195 150.241 Q501.195 150.382 501.266 150.803 Q501.359 151.202 501.617 151.857 Q501.898 152.513 502.273 153.099 Q502.671 153.661 503.374 154.083 Q504.1 154.504 504.99 154.504 Q506.419 154.504 507.964 153.239 Q509.534 151.974 510.705 149.585 Q511.431 148.04 512.274 144.714 Q513.141 141.364 513.141 139.397 Z" fill="#000000" fill-rule="nonzero" fill-opacity="1" /><path clip-path="url(#clip920)" d="M523.609 176.25 Q521.478 174.02 521.478 170.839 Q521.478 167.642 523.576 165.347 Q525.675 163.035 528.757 163.035 Q530.807 163.035 532.348 164.019 Q533.889 164.986 533.889 166.642 Q533.889 167.38 533.447 167.806 Q533.02 168.216 532.348 168.216 Q531.643 168.216 531.217 167.79 Q530.807 167.347 530.807 166.675 Q530.807 166.38 530.905 166.085 Q531.004 165.789 531.364 165.478 Q531.741 165.166 532.381 165.117 Q531.184 163.888 528.856 163.888 Q528.823 163.888 528.79 163.888 Q527.085 163.888 525.675 165.494 Q524.265 167.101 524.265 170.774 Q524.265 172.692 524.724 174.102 Q525.2 175.496 525.97 176.217 Q526.741 176.939 527.495 177.283 Q528.249 177.611 528.987 177.611 Q532.283 177.611 533.397 174.086 Q533.496 173.758 533.824 173.758 Q534.266 173.758 534.266 174.086 Q534.266 174.25 534.135 174.676 Q534.004 175.102 533.594 175.774 Q533.184 176.447 532.594 177.037 Q532.02 177.611 530.987 178.037 Q529.971 178.463 528.692 178.463 Q525.741 178.463 523.609 176.25 Z" fill="#000000" fill-rule="nonzero" fill-opacity="1" /><path clip-path="url(#clip920)" d="M535.879 178.086 L535.879 177.053 Q537.667 177.053 538.076 176.84 Q538.486 176.611 538.486 175.529 L538.486 158.067 Q538.486 156.821 538.044 156.51 Q537.617 156.198 535.879 156.198 L535.879 155.149 L540.7 154.788 L540.7 166.462 L540.733 166.462 Q541.274 165.248 542.487 164.248 Q543.7 163.248 545.569 163.248 Q548.094 163.248 549.094 164.494 Q549.832 165.33 549.98 166.265 Q550.144 167.2 550.144 169.626 L550.144 176.037 Q550.176 176.742 550.718 176.906 Q551.259 177.053 552.767 177.053 L552.767 178.086 Q549.34 177.988 548.996 177.988 Q548.734 177.988 545.209 178.086 L545.209 177.053 Q546.996 177.053 547.406 176.84 Q547.832 176.611 547.832 175.529 L547.832 167.708 Q547.832 166.003 547.307 165.002 Q546.783 163.986 545.34 163.986 Q543.602 163.986 542.208 165.445 Q540.815 166.904 540.815 169.364 L540.815 175.529 Q540.815 176.611 541.224 176.84 Q541.651 177.053 543.421 177.053 L543.421 178.086 Q539.995 177.988 539.667 177.988 Q539.404 177.988 535.879 178.086 Z" fill="#000000" fill-rule="nonzero" fill-opacity="1" /><path clip-path="url(#clip920)" d="M560.122 154.27 Q559.443 153.497 559.443 152.49 Q559.443 151.483 560.099 150.733 Q560.778 149.96 561.996 149.96 Q563.425 149.96 564.244 151.342 Q565.064 152.701 565.064 154.996 Q565.064 157.479 564.057 159.774 Q563.05 162.093 562.066 163.194 Q561.082 164.295 560.684 164.295 Q560.216 164.295 560.216 163.779 Q560.216 163.592 560.544 163.241 Q563.987 159.54 564.01 154.996 Q564.01 154.27 563.916 154.27 L563.799 154.364 Q562.98 155.043 561.996 155.043 Q560.801 155.043 560.122 154.27 Z" fill="#000000" fill-rule="nonzero" fill-opacity="1" /><path clip-path="url(#clip920)" d="M580.196 138.647 Q580.196 131.41 585.138 126.327 Q590.08 121.221 596.873 121.221 Q598.981 121.221 600.855 121.994 Q602.728 122.767 603.595 123.446 Q604.462 124.102 605.703 125.343 L608.116 121.806 Q608.49 121.221 608.865 121.221 Q609.263 121.221 609.334 121.455 Q609.404 121.666 609.404 122.369 L609.404 133.752 Q609.404 134.525 609.31 134.712 Q609.216 134.9 608.631 134.9 Q608.162 134.9 608.045 134.759 Q607.952 134.618 607.858 134.08 Q607.132 128.903 604.251 125.812 Q601.393 122.72 597.412 122.72 Q596.264 122.72 594.976 122.978 Q593.711 123.235 591.86 124.219 Q590.034 125.203 588.605 126.842 Q587.199 128.458 586.169 131.55 Q585.138 134.618 585.138 138.694 Q585.138 142.723 586.169 145.814 Q587.199 148.906 588.605 150.522 Q590.034 152.115 591.86 153.099 Q593.711 154.083 594.999 154.364 Q596.311 154.621 597.458 154.621 Q601.581 154.621 604.743 151.693 Q607.905 148.766 608.209 143.823 Q608.256 143.589 608.256 143.496 Q608.256 143.378 608.303 143.261 Q608.35 143.144 608.467 143.097 Q608.584 143.051 608.771 143.051 Q609.404 143.051 609.404 143.87 Q609.404 148.438 605.89 152.279 Q602.401 156.097 596.873 156.097 Q590.057 156.097 585.115 151.038 Q580.196 145.978 580.196 138.647 Z" fill="#000000" fill-rule="nonzero" fill-opacity="1" /><path clip-path="url(#clip920)" d="M617.356 155.043 L617.356 153.567 Q619.089 153.567 620.19 153.239 Q621.291 152.888 621.689 152.256 Q622.111 151.6 622.204 151.178 Q622.298 150.733 622.298 150.007 L622.298 126.022 Q622.298 124.641 621.689 124.219 Q621.103 123.774 618.504 123.774 L617.356 123.774 L617.356 122.275 L625.46 122.275 Q626.327 122.275 626.561 122.439 Q626.795 122.579 627.146 123.329 L637.546 150.194 L648.039 123.188 Q648.273 122.509 648.484 122.392 Q648.719 122.275 649.632 122.275 L657.736 122.275 L657.736 123.774 L656.588 123.774 Q653.989 123.774 653.38 124.219 Q652.794 124.641 652.794 126.022 L652.794 151.295 Q652.794 152.677 653.38 153.122 Q653.989 153.567 656.588 153.567 L657.736 153.567 L657.736 155.043 Q655.956 154.902 650.873 154.902 Q645.744 154.902 643.964 155.043 L643.964 153.567 L645.135 153.567 Q647.735 153.567 648.32 153.146 Q648.906 152.701 648.906 151.295 L648.906 123.774 L648.859 123.774 L637.078 154.129 Q636.75 155.043 636.211 155.043 Q635.625 155.043 635.251 153.989 L623.68 124.149 L623.633 124.149 L623.633 150.007 Q623.633 150.733 623.727 151.178 Q623.82 151.6 624.219 152.256 Q624.64 152.888 625.741 153.239 Q626.842 153.567 628.575 153.567 L628.575 155.043 Q623.539 154.902 622.954 154.902 Q622.392 154.902 617.356 155.043 Z" fill="#000000" fill-rule="nonzero" fill-opacity="1" /><polyline clip-path="url(#clip920)" style="stroke:#e26f46; stroke-linecap:round; stroke-linejoin:round; stroke-width:4; stroke-opacity:1; fill:none" points="326.628,206.908 467.986,206.908 "/>
<path clip-path="url(#clip920)" d="M417.181 187.033 L377.432 187.033 L397.307 226.783 L417.181 187.033 Z" fill="#e26f46" fill-rule="evenodd" fill-opacity="1" stroke="#000000" stroke-opacity="1" stroke-width="4.55111"/>
<path clip-path="url(#clip920)" d="M516.607 197.889 Q516.607 201.308 514.874 204.611 Q513.164 207.914 510.471 209.951 Q507.777 211.966 505.037 211.966 Q503.397 211.966 502.296 211.076 Q501.219 210.162 500.633 208.874 Q500.188 210.467 499.228 214.284 Q498.268 218.102 498.268 218.477 Q498.268 218.688 498.314 218.782 Q498.361 218.875 498.572 218.992 Q498.783 219.133 499.298 219.18 Q499.813 219.25 500.68 219.25 Q501.125 219.25 501.289 219.25 Q501.476 219.273 501.64 219.391 Q501.828 219.508 501.828 219.765 Q501.828 220.726 500.961 220.726 Q500.188 220.726 498.595 220.655 Q497.003 220.585 496.206 220.585 Q495.527 220.585 494.169 220.655 Q492.81 220.726 492.178 220.726 Q491.545 220.726 491.545 220.163 Q491.545 219.836 491.639 219.625 Q491.709 219.437 491.897 219.344 Q492.084 219.273 492.248 219.25 Q492.388 219.25 492.67 219.25 Q493.747 219.25 494.215 219.063 Q494.684 218.899 494.848 218.547 Q495.035 218.219 495.246 217.283 L500.633 195.921 Q500.961 194.492 500.961 193.485 Q500.961 192.22 500.563 191.752 Q500.165 191.284 499.462 191.284 Q498.244 191.284 497.448 192.736 Q496.651 194.188 495.972 196.999 Q495.761 197.772 495.621 197.936 Q495.504 198.1 495.152 198.1 Q494.567 198.076 494.567 197.608 Q494.567 197.491 494.754 196.741 Q494.942 195.968 495.293 194.844 Q495.668 193.696 496.066 192.97 Q496.3 192.478 496.511 192.15 Q496.722 191.822 497.143 191.307 Q497.588 190.792 498.221 190.511 Q498.853 190.23 499.626 190.23 Q501.125 190.23 502.366 191.12 Q503.608 192.01 503.936 193.813 Q505.271 192.244 506.91 191.237 Q508.55 190.23 510.213 190.23 Q512.977 190.23 514.78 192.384 Q516.607 194.516 516.607 197.889 M513.141 195.781 Q513.141 193.649 512.321 192.478 Q511.525 191.284 510.072 191.284 Q508.269 191.284 506.184 193.111 Q504.123 194.844 503.702 196.46 L501.336 205.852 L501.195 206.625 Q501.195 206.766 501.266 207.187 Q501.359 207.586 501.617 208.241 Q501.898 208.897 502.273 209.483 Q502.671 210.045 503.374 210.467 Q504.1 210.888 504.99 210.888 Q506.419 210.888 507.964 209.623 Q509.534 208.359 510.705 205.969 Q511.431 204.424 512.274 201.098 Q513.141 197.748 513.141 195.781 Z" fill="#000000" fill-rule="nonzero" fill-opacity="1" /><path clip-path="url(#clip920)" d="M523.609 232.634 Q521.478 230.404 521.478 227.223 Q521.478 224.026 523.576 221.731 Q525.675 219.419 528.757 219.419 Q530.807 219.419 532.348 220.403 Q533.889 221.37 533.889 223.026 Q533.889 223.764 533.447 224.19 Q533.02 224.6 532.348 224.6 Q531.643 224.6 531.217 224.174 Q530.807 223.731 530.807 223.059 Q530.807 222.764 530.905 222.469 Q531.004 222.174 531.364 221.862 Q531.741 221.551 532.381 221.501 Q531.184 220.272 528.856 220.272 Q528.823 220.272 528.79 220.272 Q527.085 220.272 525.675 221.878 Q524.265 223.485 524.265 227.158 Q524.265 229.076 524.724 230.486 Q525.2 231.88 525.97 232.601 Q526.741 233.323 527.495 233.667 Q528.249 233.995 528.987 233.995 Q532.283 233.995 533.397 230.47 Q533.496 230.142 533.824 230.142 Q534.266 230.142 534.266 230.47 Q534.266 230.634 534.135 231.06 Q534.004 231.486 533.594 232.159 Q533.184 232.831 532.594 233.421 Q532.02 233.995 530.987 234.421 Q529.971 234.847 528.692 234.847 Q525.741 234.847 523.609 232.634 Z" fill="#000000" fill-rule="nonzero" fill-opacity="1" /><path clip-path="url(#clip920)" d="M535.879 234.47 L535.879 233.437 Q537.667 233.437 538.076 233.224 Q538.486 232.995 538.486 231.913 L538.486 214.451 Q538.486 213.205 538.044 212.894 Q537.617 212.582 535.879 212.582 L535.879 211.533 L540.7 211.172 L540.7 222.846 L540.733 222.846 Q541.274 221.632 542.487 220.632 Q543.7 219.632 545.569 219.632 Q548.094 219.632 549.094 220.878 Q549.832 221.714 549.98 222.649 Q550.144 223.584 550.144 226.01 L550.144 232.421 Q550.176 233.126 550.718 233.29 Q551.259 233.437 552.767 233.437 L552.767 234.47 Q549.34 234.372 548.996 234.372 Q548.734 234.372 545.209 234.47 L545.209 233.437 Q546.996 233.437 547.406 233.224 Q547.832 232.995 547.832 231.913 L547.832 224.092 Q547.832 222.387 547.307 221.387 Q546.783 220.37 545.34 220.37 Q543.602 220.37 542.208 221.829 Q540.815 223.288 540.815 225.748 L540.815 231.913 Q540.815 232.995 541.224 233.224 Q541.651 233.437 543.421 233.437 L543.421 234.47 Q539.995 234.372 539.667 234.372 Q539.404 234.372 535.879 234.47 Z" fill="#000000" fill-rule="nonzero" fill-opacity="1" /><path clip-path="url(#clip920)" d="M560.122 210.654 Q559.443 209.881 559.443 208.874 Q559.443 207.867 560.099 207.117 Q560.778 206.344 561.996 206.344 Q563.425 206.344 564.244 207.726 Q565.064 209.085 565.064 211.38 Q565.064 213.863 564.057 216.158 Q563.05 218.477 562.066 219.578 Q561.082 220.679 560.684 220.679 Q560.216 220.679 560.216 220.163 Q560.216 219.976 560.544 219.625 Q563.987 215.924 564.01 211.38 Q564.01 210.654 563.916 210.654 L563.799 210.748 Q562.98 211.427 561.996 211.427 Q560.801 211.427 560.122 210.654 Z" fill="#000000" fill-rule="nonzero" fill-opacity="1" /><path clip-path="url(#clip920)" d="M580.196 211.427 L580.196 209.951 L581.344 209.951 Q583.944 209.951 584.529 209.53 Q585.138 209.085 585.138 207.679 L585.138 182.406 Q585.138 181.025 584.529 180.603 Q583.92 180.158 581.344 180.158 L580.196 180.158 L580.196 178.659 L597.131 178.659 Q601.979 178.659 605.211 181.329 Q608.444 183.999 608.444 187.583 Q608.444 191.143 605.141 193.72 Q601.862 196.273 597.505 196.273 L589.401 196.273 L589.401 207.679 Q589.401 209.061 589.987 209.506 Q590.596 209.951 593.196 209.951 L594.343 209.951 L594.343 211.427 Q592.657 211.286 587.246 211.286 Q581.882 211.286 580.196 211.427 M589.261 195.031 L595.866 195.031 Q598.021 195.031 599.59 194.422 Q601.159 193.813 601.862 193.087 Q602.588 192.338 602.986 191.143 Q603.408 189.925 603.455 189.269 Q603.501 188.59 603.501 187.583 Q603.501 186.529 603.455 185.873 Q603.408 185.194 602.986 183.999 Q602.588 182.781 601.862 182.055 Q601.159 181.306 599.59 180.743 Q598.044 180.158 595.866 180.158 L591.603 180.158 Q589.963 180.158 589.612 180.486 Q589.261 180.814 589.261 182.079 L589.261 195.031 Z" fill="#000000" fill-rule="nonzero" fill-opacity="1" /><path clip-path="url(#clip920)" d="M617.857 211.427 L617.857 209.951 Q620.41 209.951 620.996 209.647 Q621.581 209.319 621.581 207.773 L621.581 194.867 Q621.581 193.087 620.972 192.666 Q620.387 192.244 618.045 192.244 L618.045 190.745 L624.743 190.23 L624.743 207.82 Q624.743 209.249 625.259 209.6 Q625.774 209.951 628.116 209.951 L628.116 211.427 Q623.221 211.286 623.127 211.286 Q622.471 211.286 617.857 211.427 M619.872 181.868 Q619.872 180.907 620.598 180.135 Q621.347 179.338 622.401 179.338 Q623.455 179.338 624.205 180.064 Q624.954 180.767 624.954 181.891 Q624.954 182.992 624.205 183.718 Q623.455 184.421 622.401 184.421 Q621.3 184.421 620.574 183.648 Q619.872 182.875 619.872 181.868 Z" fill="#000000" fill-rule="nonzero" fill-opacity="1" /><path clip-path="url(#clip920)" d="M631.392 211.427 L631.392 209.951 Q633.945 209.951 634.53 209.647 Q635.139 209.319 635.139 207.773 L635.139 194.914 Q635.139 193.134 634.507 192.689 Q633.898 192.244 631.392 192.244 L631.392 190.745 L638.067 190.23 L638.067 195.5 Q638.747 193.438 640.175 191.846 Q641.627 190.23 643.97 190.23 Q645.516 190.23 646.499 191.096 Q647.507 191.963 647.507 193.157 Q647.507 194.211 646.851 194.75 Q646.218 195.265 645.445 195.265 Q644.579 195.265 643.97 194.727 Q643.384 194.165 643.384 193.204 Q643.384 192.619 643.642 192.174 Q643.923 191.705 644.134 191.541 Q644.344 191.377 644.485 191.33 Q644.391 191.284 643.97 191.284 Q641.323 191.284 639.801 193.93 Q638.301 196.554 638.301 200.301 L638.301 207.679 Q638.301 209.061 638.864 209.506 Q639.449 209.951 641.955 209.951 L642.963 209.951 L642.963 211.427 Q641.042 211.286 636.873 211.286 Q636.287 211.286 635.374 211.31 Q634.46 211.333 633.266 211.38 Q632.071 211.427 631.392 211.427 Z" fill="#000000" fill-rule="nonzero" fill-opacity="1" /><path clip-path="url(#clip920)" d="M651.376 206.86 Q651.376 202.784 656.177 200.629 Q659.058 199.247 665.007 198.896 L665.007 197.139 Q665.007 194.165 663.438 192.595 Q661.892 191.003 659.925 191.003 Q656.411 191.003 654.725 193.204 Q656.154 193.251 656.669 193.977 Q657.184 194.68 657.184 195.406 Q657.184 196.366 656.575 196.999 Q655.99 197.608 654.983 197.608 Q654.022 197.608 653.39 197.022 Q652.757 196.413 652.757 195.359 Q652.757 193.017 654.865 191.471 Q656.997 189.925 660.018 189.925 Q663.953 189.925 666.577 192.572 Q667.397 193.392 667.795 194.446 Q668.216 195.5 668.263 196.202 Q668.31 196.882 668.31 198.24 L668.31 207.82 Q668.31 208.101 668.404 208.569 Q668.497 209.038 668.919 209.647 Q669.364 210.232 670.09 210.232 Q671.823 210.232 671.8 207.164 L671.8 204.47 L673.018 204.47 L673.018 207.164 Q673.018 209.717 671.659 210.724 Q670.324 211.708 669.083 211.708 Q667.49 211.708 666.483 210.537 Q665.476 209.366 665.335 207.773 Q664.609 209.6 662.946 210.794 Q661.307 211.966 659.058 211.966 Q657.325 211.966 655.685 211.521 Q654.069 211.099 652.711 209.904 Q651.376 208.686 651.376 206.86 M655.076 206.813 Q655.076 208.593 656.341 209.74 Q657.606 210.888 659.386 210.888 Q661.4 210.888 663.204 209.342 Q665.007 207.773 665.007 204.705 L665.007 199.903 Q659.691 200.09 657.372 202.222 Q655.076 204.33 655.076 206.813 Z" fill="#000000" fill-rule="nonzero" fill-opacity="1" /><path clip-path="url(#clip920)" d="M673.974 211.427 L673.974 209.951 Q676.527 209.951 677.112 209.647 Q677.698 209.319 677.698 207.773 L677.698 194.914 Q677.698 193.134 677.065 192.689 Q676.456 192.244 673.974 192.244 L673.974 190.745 L680.719 190.23 L680.719 195.265 Q682.968 190.23 687.816 190.23 Q691.423 190.23 692.852 192.01 Q693.906 193.204 694.117 194.539 Q694.351 195.874 694.351 199.341 L694.351 208.499 Q694.398 209.506 695.171 209.74 Q695.944 209.951 698.099 209.951 L698.099 211.427 Q693.203 211.286 692.712 211.286 Q692.337 211.286 687.301 211.427 L687.301 209.951 Q689.854 209.951 690.44 209.647 Q691.049 209.319 691.049 207.773 L691.049 196.6 Q691.049 194.165 690.299 192.736 Q689.549 191.284 687.488 191.284 Q685.006 191.284 683.015 193.368 Q681.024 195.453 681.024 198.966 L681.024 207.773 Q681.024 209.319 681.609 209.647 Q682.218 209.951 684.748 209.951 L684.748 211.427 Q679.853 211.286 679.384 211.286 Q679.009 211.286 673.974 211.427 Z" fill="#000000" fill-rule="nonzero" fill-opacity="1" /><path clip-path="url(#clip920)" d="M700.513 211.427 L700.513 209.951 Q703.066 209.951 703.652 209.647 Q704.237 209.319 704.237 207.773 L704.237 194.867 Q704.237 193.087 703.628 192.666 Q703.043 192.244 700.701 192.244 L700.701 190.745 L707.399 190.23 L707.399 207.82 Q707.399 209.249 707.915 209.6 Q708.43 209.951 710.772 209.951 L710.772 211.427 Q705.877 211.286 705.783 211.286 Q705.127 211.286 700.513 211.427 M702.528 181.868 Q702.528 180.907 703.254 180.135 Q704.003 179.338 705.057 179.338 Q706.111 179.338 706.861 180.064 Q707.61 180.767 707.61 181.891 Q707.61 182.992 706.861 183.718 Q706.111 184.421 705.057 184.421 Q703.956 184.421 703.23 183.648 Q702.528 182.875 702.528 181.868 Z" fill="#000000" fill-rule="nonzero" fill-opacity="1" /></svg>
