<?xml version="1.0" encoding="utf-8"?>
<svg xmlns="http://www.w3.org/2000/svg" xmlns:xlink="http://www.w3.org/1999/xlink" width="600" height="400" viewBox="0 0 2400 1600">
<defs>
  <clipPath id="clip890">
    <rect x="0" y="0" width="2400" height="1600"/>
  </clipPath>
</defs>
<path clip-path="url(#clip890)" d="M0 1600 L2400 1600 L2400 0 L0 0  Z" fill="#ffffff" fill-rule="evenodd" fill-opacity="1"/>
<defs>
  <clipPath id="clip891">
    <rect x="255" y="47" width="2098" height="1374"/>
  </clipPath>
</defs>
<path clip-path="url(#clip890)" d="M232.389 1423.18 L2352.76 1423.18 L2352.76 47.2441 L232.389 47.2441  Z" fill="#ffffff" fill-rule="evenodd" fill-opacity="1"/>
<defs>
  <clipPath id="clip892">
    <rect x="232" y="47" width="2121" height="1377"/>
  </clipPath>
</defs>
<polyline clip-path="url(#clip892)" style="stroke:#000000; stroke-linecap:round; stroke-linejoin:round; stroke-width:2; stroke-opacity:0.1; fill:none" points="292.4,1423.18 292.4,47.2441 "/>
<polyline clip-path="url(#clip892)" style="stroke:#000000; stroke-linecap:round; stroke-linejoin:round; stroke-width:2; stroke-opacity:0.1; fill:none" points="768.565,1423.18 768.565,47.2441 "/>
<polyline clip-path="url(#clip892)" style="stroke:#000000; stroke-linecap:round; stroke-linejoin:round; stroke-width:2; stroke-opacity:0.1; fill:none" points="1244.73,1423.18 1244.73,47.2441 "/>
<polyline clip-path="url(#clip892)" style="stroke:#000000; stroke-linecap:round; stroke-linejoin:round; stroke-width:2; stroke-opacity:0.1; fill:none" points="1720.9,1423.18 1720.9,47.2441 "/>
<polyline clip-path="url(#clip892)" style="stroke:#000000; stroke-linecap:round; stroke-linejoin:round; stroke-width:2; stroke-opacity:0.1; fill:none" points="2197.06,1423.18 2197.06,47.2441 "/>
<polyline clip-path="url(#clip892)" style="stroke:#000000; stroke-linecap:round; stroke-linejoin:round; stroke-width:2; stroke-opacity:0.1; fill:none" points="232.389,1296.53 2352.76,1296.53 "/>
<polyline clip-path="url(#clip892)" style="stroke:#000000; stroke-linecap:round; stroke-linejoin:round; stroke-width:2; stroke-opacity:0.1; fill:none" points="232.389,945.707 2352.76,945.707 "/>
<polyline clip-path="url(#clip892)" style="stroke:#000000; stroke-linecap:round; stroke-linejoin:round; stroke-width:2; stroke-opacity:0.1; fill:none" points="232.389,594.882 2352.76,594.882 "/>
<polyline clip-path="url(#clip892)" style="stroke:#000000; stroke-linecap:round; stroke-linejoin:round; stroke-width:2; stroke-opacity:0.1; fill:none" points="232.389,244.057 2352.76,244.057 "/>
<polyline clip-path="url(#clip890)" style="stroke:#000000; stroke-linecap:round; stroke-linejoin:round; stroke-width:4; stroke-opacity:1; fill:none" points="232.389,1423.18 2352.76,1423.18 "/>
<polyline clip-path="url(#clip890)" style="stroke:#000000; stroke-linecap:round; stroke-linejoin:round; stroke-width:4; stroke-opacity:1; fill:none" points="292.4,1423.18 292.4,1404.28 "/>
<polyline clip-path="url(#clip890)" style="stroke:#000000; stroke-linecap:round; stroke-linejoin:round; stroke-width:4; stroke-opacity:1; fill:none" points="768.565,1423.18 768.565,1404.28 "/>
<polyline clip-path="url(#clip890)" style="stroke:#000000; stroke-linecap:round; stroke-linejoin:round; stroke-width:4; stroke-opacity:1; fill:none" points="1244.73,1423.18 1244.73,1404.28 "/>
<polyline clip-path="url(#clip890)" style="stroke:#000000; stroke-linecap:round; stroke-linejoin:round; stroke-width:4; stroke-opacity:1; fill:none" points="1720.9,1423.18 1720.9,1404.28 "/>
<polyline clip-path="url(#clip890)" style="stroke:#000000; stroke-linecap:round; stroke-linejoin:round; stroke-width:4; stroke-opacity:1; fill:none" points="2197.06,1423.18 2197.06,1404.28 "/>
<path clip-path="url(#clip890)" d="M292.4 1454.1 Q288.789 1454.1 286.96 1457.66 Q285.154 1461.2 285.154 1468.33 Q285.154 1475.44 286.96 1479.01 Q288.789 1482.55 292.4 1482.55 Q296.034 1482.55 297.84 1479.01 Q299.668 1475.44 299.668 1468.33 Q299.668 1461.2 297.84 1457.66 Q296.034 1454.1 292.4 1454.1 M292.4 1450.39 Q298.21 1450.39 301.265 1455 Q304.344 1459.58 304.344 1468.33 Q304.344 1477.06 301.265 1481.67 Q298.21 1486.25 292.4 1486.25 Q286.59 1486.25 283.511 1481.67 Q280.455 1477.06 280.455 1468.33 Q280.455 1459.58 283.511 1455 Q286.59 1450.39 292.4 1450.39 Z" fill="#000000" fill-rule="nonzero" fill-opacity="1" /><path clip-path="url(#clip890)" d="M758.843 1451.02 L777.2 1451.02 L777.2 1454.96 L763.126 1454.96 L763.126 1463.43 Q764.144 1463.08 765.163 1462.92 Q766.181 1462.73 767.2 1462.73 Q772.987 1462.73 776.366 1465.9 Q779.746 1469.08 779.746 1474.49 Q779.746 1480.07 776.274 1483.17 Q772.802 1486.25 766.482 1486.25 Q764.306 1486.25 762.038 1485.88 Q759.792 1485.51 757.385 1484.77 L757.385 1480.07 Q759.468 1481.2 761.69 1481.76 Q763.913 1482.32 766.39 1482.32 Q770.394 1482.32 772.732 1480.21 Q775.07 1478.1 775.07 1474.49 Q775.07 1470.88 772.732 1468.77 Q770.394 1466.67 766.39 1466.67 Q764.515 1466.67 762.64 1467.08 Q760.788 1467.5 758.843 1468.38 L758.843 1451.02 Z" fill="#000000" fill-rule="nonzero" fill-opacity="1" /><path clip-path="url(#clip890)" d="M1219.42 1481.64 L1227.06 1481.64 L1227.06 1455.28 L1218.75 1456.95 L1218.75 1452.69 L1227.01 1451.02 L1231.69 1451.02 L1231.69 1481.64 L1239.33 1481.64 L1239.33 1485.58 L1219.42 1485.58 L1219.42 1481.64 Z" fill="#000000" fill-rule="nonzero" fill-opacity="1" /><path clip-path="url(#clip890)" d="M1258.77 1454.1 Q1255.16 1454.1 1253.33 1457.66 Q1251.53 1461.2 1251.53 1468.33 Q1251.53 1475.44 1253.33 1479.01 Q1255.16 1482.55 1258.77 1482.55 Q1262.4 1482.55 1264.21 1479.01 Q1266.04 1475.44 1266.04 1468.33 Q1266.04 1461.2 1264.21 1457.66 Q1262.4 1454.1 1258.77 1454.1 M1258.77 1450.39 Q1264.58 1450.39 1267.64 1455 Q1270.71 1459.58 1270.71 1468.33 Q1270.71 1477.06 1267.64 1481.67 Q1264.58 1486.25 1258.77 1486.25 Q1252.96 1486.25 1249.88 1481.67 Q1246.83 1477.06 1246.83 1468.33 Q1246.83 1459.58 1249.88 1455 Q1252.96 1450.39 1258.77 1450.39 Z" fill="#000000" fill-rule="nonzero" fill-opacity="1" /><path clip-path="url(#clip890)" d="M1696.08 1481.64 L1703.72 1481.64 L1703.72 1455.28 L1695.41 1456.95 L1695.41 1452.69 L1703.67 1451.02 L1708.35 1451.02 L1708.35 1481.64 L1715.99 1481.64 L1715.99 1485.58 L1696.08 1485.58 L1696.08 1481.64 Z" fill="#000000" fill-rule="nonzero" fill-opacity="1" /><path clip-path="url(#clip890)" d="M1725.48 1451.02 L1743.84 1451.02 L1743.84 1454.96 L1729.76 1454.96 L1729.76 1463.43 Q1730.78 1463.08 1731.8 1462.92 Q1732.82 1462.73 1733.84 1462.73 Q1739.62 1462.73 1743 1465.9 Q1746.38 1469.08 1746.38 1474.49 Q1746.38 1480.07 1742.91 1483.17 Q1739.44 1486.25 1733.12 1486.25 Q1730.94 1486.25 1728.67 1485.88 Q1726.43 1485.51 1724.02 1484.77 L1724.02 1480.07 Q1726.11 1481.2 1728.33 1481.76 Q1730.55 1482.32 1733.03 1482.32 Q1737.03 1482.32 1739.37 1480.21 Q1741.71 1478.1 1741.71 1474.49 Q1741.71 1470.88 1739.37 1468.77 Q1737.03 1466.67 1733.03 1466.67 Q1731.15 1466.67 1729.28 1467.08 Q1727.42 1467.5 1725.48 1468.38 L1725.48 1451.02 Z" fill="#000000" fill-rule="nonzero" fill-opacity="1" /><path clip-path="url(#clip890)" d="M2175.84 1481.64 L2192.16 1481.64 L2192.16 1485.58 L2170.21 1485.58 L2170.21 1481.64 Q2172.87 1478.89 2177.46 1474.26 Q2182.06 1469.61 2183.24 1468.27 Q2185.49 1465.74 2186.37 1464.01 Q2187.27 1462.25 2187.27 1460.56 Q2187.27 1457.8 2185.33 1456.07 Q2183.41 1454.33 2180.3 1454.33 Q2178.1 1454.33 2175.65 1455.09 Q2173.22 1455.86 2170.44 1457.41 L2170.44 1452.69 Q2173.27 1451.55 2175.72 1450.97 Q2178.17 1450.39 2180.21 1450.39 Q2185.58 1450.39 2188.78 1453.08 Q2191.97 1455.77 2191.97 1460.26 Q2191.97 1462.39 2191.16 1464.31 Q2190.37 1466.2 2188.27 1468.8 Q2187.69 1469.47 2184.59 1472.69 Q2181.48 1475.88 2175.84 1481.64 Z" fill="#000000" fill-rule="nonzero" fill-opacity="1" /><path clip-path="url(#clip890)" d="M2211.97 1454.1 Q2208.36 1454.1 2206.53 1457.66 Q2204.72 1461.2 2204.72 1468.33 Q2204.72 1475.44 2206.53 1479.01 Q2208.36 1482.55 2211.97 1482.55 Q2215.6 1482.55 2217.41 1479.01 Q2219.24 1475.44 2219.24 1468.33 Q2219.24 1461.2 2217.41 1457.66 Q2215.6 1454.1 2211.97 1454.1 M2211.97 1450.39 Q2217.78 1450.39 2220.84 1455 Q2223.91 1459.58 2223.91 1468.33 Q2223.91 1477.06 2220.84 1481.67 Q2217.78 1486.25 2211.97 1486.25 Q2206.16 1486.25 2203.08 1481.67 Q2200.03 1477.06 2200.03 1468.33 Q2200.03 1459.58 2203.08 1455 Q2206.16 1450.39 2211.97 1450.39 Z" fill="#000000" fill-rule="nonzero" fill-opacity="1" /><path clip-path="url(#clip890)" d="M1291.33 1546.53 L1291.33 1568.04 L1285.47 1568.04 L1285.47 1546.72 Q1285.47 1541.66 1283.5 1539.14 Q1281.53 1536.63 1277.58 1536.63 Q1272.84 1536.63 1270.1 1539.65 Q1267.36 1542.68 1267.36 1547.9 L1267.36 1568.04 L1261.48 1568.04 L1261.48 1518.52 L1267.36 1518.52 L1267.36 1537.93 Q1269.47 1534.72 1272.3 1533.13 Q1275.16 1531.54 1278.89 1531.54 Q1285.03 1531.54 1288.18 1535.36 Q1291.33 1539.14 1291.33 1546.53 Z" fill="#000000" fill-rule="nonzero" fill-opacity="1" /><path clip-path="url(#clip890)" d="M1323.67 1537.87 Q1322.68 1537.3 1321.5 1537.04 Q1320.36 1536.76 1318.96 1536.76 Q1313.99 1536.76 1311.32 1540 Q1308.68 1543.22 1308.68 1549.27 L1308.68 1568.04 L1302.79 1568.04 L1302.79 1532.4 L1308.68 1532.4 L1308.68 1537.93 Q1310.52 1534.69 1313.48 1533.13 Q1316.44 1531.54 1320.68 1531.54 Q1321.28 1531.54 1322.01 1531.63 Q1322.75 1531.7 1323.64 1531.85 L1323.67 1537.87 Z" fill="#000000" fill-rule="nonzero" fill-opacity="1" /><polyline clip-path="url(#clip890)" style="stroke:#000000; stroke-linecap:round; stroke-linejoin:round; stroke-width:4; stroke-opacity:1; fill:none" points="232.389,1423.18 232.389,47.2441 "/>
<polyline clip-path="url(#clip890)" style="stroke:#000000; stroke-linecap:round; stroke-linejoin:round; stroke-width:4; stroke-opacity:1; fill:none" points="232.389,1296.53 251.287,1296.53 "/>
<polyline clip-path="url(#clip890)" style="stroke:#000000; stroke-linecap:round; stroke-linejoin:round; stroke-width:4; stroke-opacity:1; fill:none" points="232.389,945.707 251.287,945.707 "/>
<polyline clip-path="url(#clip890)" style="stroke:#000000; stroke-linecap:round; stroke-linejoin:round; stroke-width:4; stroke-opacity:1; fill:none" points="232.389,594.882 251.287,594.882 "/>
<polyline clip-path="url(#clip890)" style="stroke:#000000; stroke-linecap:round; stroke-linejoin:round; stroke-width:4; stroke-opacity:1; fill:none" points="232.389,244.057 251.287,244.057 "/>
<path clip-path="url(#clip890)" d="M114.931 1309.88 L122.57 1309.88 L122.57 1283.51 L114.26 1285.18 L114.26 1280.92 L122.524 1279.25 L127.2 1279.25 L127.2 1309.88 L134.839 1309.88 L134.839 1313.81 L114.931 1313.81 L114.931 1309.88 Z" fill="#000000" fill-rule="nonzero" fill-opacity="1" /><path clip-path="url(#clip890)" d="M154.283 1282.33 Q150.672 1282.33 148.843 1285.9 Q147.038 1289.44 147.038 1296.57 Q147.038 1303.67 148.843 1307.24 Q150.672 1310.78 154.283 1310.78 Q157.917 1310.78 159.723 1307.24 Q161.552 1303.67 161.552 1296.57 Q161.552 1289.44 159.723 1285.9 Q157.917 1282.33 154.283 1282.33 M154.283 1278.63 Q160.093 1278.63 163.149 1283.23 Q166.227 1287.82 166.227 1296.57 Q166.227 1305.29 163.149 1309.9 Q160.093 1314.48 154.283 1314.48 Q148.473 1314.48 145.394 1309.9 Q142.339 1305.29 142.339 1296.57 Q142.339 1287.82 145.394 1283.23 Q148.473 1278.63 154.283 1278.63 Z" fill="#000000" fill-rule="nonzero" fill-opacity="1" /><path clip-path="url(#clip890)" d="M184.445 1282.33 Q180.834 1282.33 179.005 1285.9 Q177.2 1289.44 177.2 1296.57 Q177.2 1303.67 179.005 1307.24 Q180.834 1310.78 184.445 1310.78 Q188.079 1310.78 189.885 1307.24 Q191.713 1303.67 191.713 1296.57 Q191.713 1289.44 189.885 1285.9 Q188.079 1282.33 184.445 1282.33 M184.445 1278.63 Q190.255 1278.63 193.311 1283.23 Q196.389 1287.82 196.389 1296.57 Q196.389 1305.29 193.311 1309.9 Q190.255 1314.48 184.445 1314.48 Q178.635 1314.48 175.556 1309.9 Q172.501 1305.29 172.501 1296.57 Q172.501 1287.82 175.556 1283.23 Q178.635 1278.63 184.445 1278.63 Z" fill="#000000" fill-rule="nonzero" fill-opacity="1" /><path clip-path="url(#clip890)" d="M114.931 959.052 L122.57 959.052 L122.57 932.686 L114.26 934.353 L114.26 930.094 L122.524 928.427 L127.2 928.427 L127.2 959.052 L134.839 959.052 L134.839 962.987 L114.931 962.987 L114.931 959.052 Z" fill="#000000" fill-rule="nonzero" fill-opacity="1" /><path clip-path="url(#clip890)" d="M148.311 959.052 L164.63 959.052 L164.63 962.987 L142.686 962.987 L142.686 959.052 Q145.348 956.297 149.931 951.668 Q154.538 947.015 155.718 945.672 Q157.964 943.149 158.843 941.413 Q159.746 939.654 159.746 937.964 Q159.746 935.209 157.802 933.473 Q155.88 931.737 152.778 931.737 Q150.579 931.737 148.126 932.501 Q145.695 933.265 142.917 934.816 L142.917 930.094 Q145.741 928.959 148.195 928.381 Q150.649 927.802 152.686 927.802 Q158.056 927.802 161.251 930.487 Q164.445 933.172 164.445 937.663 Q164.445 939.793 163.635 941.714 Q162.848 943.612 160.741 946.205 Q160.163 946.876 157.061 950.094 Q153.959 953.288 148.311 959.052 Z" fill="#000000" fill-rule="nonzero" fill-opacity="1" /><path clip-path="url(#clip890)" d="M184.445 931.506 Q180.834 931.506 179.005 935.07 Q177.2 938.612 177.2 945.742 Q177.2 952.848 179.005 956.413 Q180.834 959.955 184.445 959.955 Q188.079 959.955 189.885 956.413 Q191.713 952.848 191.713 945.742 Q191.713 938.612 189.885 935.07 Q188.079 931.506 184.445 931.506 M184.445 927.802 Q190.255 927.802 193.311 932.408 Q196.389 936.992 196.389 945.742 Q196.389 954.469 193.311 959.075 Q190.255 963.658 184.445 963.658 Q178.635 963.658 175.556 959.075 Q172.501 954.469 172.501 945.742 Q172.501 936.992 175.556 932.408 Q178.635 927.802 184.445 927.802 Z" fill="#000000" fill-rule="nonzero" fill-opacity="1" /><path clip-path="url(#clip890)" d="M114.931 608.227 L122.57 608.227 L122.57 581.861 L114.26 583.528 L114.26 579.269 L122.524 577.602 L127.2 577.602 L127.2 608.227 L134.839 608.227 L134.839 612.162 L114.931 612.162 L114.931 608.227 Z" fill="#000000" fill-rule="nonzero" fill-opacity="1" /><path clip-path="url(#clip890)" d="M157.13 581.676 L145.325 600.125 L157.13 600.125 L157.13 581.676 M155.903 577.602 L161.783 577.602 L161.783 600.125 L166.714 600.125 L166.714 604.014 L161.783 604.014 L161.783 612.162 L157.13 612.162 L157.13 604.014 L141.529 604.014 L141.529 599.5 L155.903 577.602 Z" fill="#000000" fill-rule="nonzero" fill-opacity="1" /><path clip-path="url(#clip890)" d="M184.445 580.681 Q180.834 580.681 179.005 584.245 Q177.2 587.787 177.2 594.917 Q177.2 602.023 179.005 605.588 Q180.834 609.13 184.445 609.13 Q188.079 609.13 189.885 605.588 Q191.713 602.023 191.713 594.917 Q191.713 587.787 189.885 584.245 Q188.079 580.681 184.445 580.681 M184.445 576.977 Q190.255 576.977 193.311 581.583 Q196.389 586.167 196.389 594.917 Q196.389 603.643 193.311 608.25 Q190.255 612.833 184.445 612.833 Q178.635 612.833 175.556 608.25 Q172.501 603.643 172.501 594.917 Q172.501 586.167 175.556 581.583 Q178.635 576.977 184.445 576.977 Z" fill="#000000" fill-rule="nonzero" fill-opacity="1" /><path clip-path="url(#clip890)" d="M114.931 257.402 L122.57 257.402 L122.57 231.036 L114.26 232.703 L114.26 228.444 L122.524 226.777 L127.2 226.777 L127.2 257.402 L134.839 257.402 L134.839 261.337 L114.931 261.337 L114.931 257.402 Z" fill="#000000" fill-rule="nonzero" fill-opacity="1" /><path clip-path="url(#clip890)" d="M154.862 242.194 Q151.714 242.194 149.862 244.346 Q148.033 246.499 148.033 250.249 Q148.033 253.976 149.862 256.152 Q151.714 258.305 154.862 258.305 Q158.01 258.305 159.839 256.152 Q161.69 253.976 161.69 250.249 Q161.69 246.499 159.839 244.346 Q158.01 242.194 154.862 242.194 M164.144 227.541 L164.144 231.8 Q162.385 230.967 160.579 230.527 Q158.797 230.087 157.038 230.087 Q152.408 230.087 149.954 233.212 Q147.524 236.337 147.177 242.656 Q148.542 240.643 150.603 239.578 Q152.663 238.49 155.14 238.49 Q160.348 238.49 163.357 241.661 Q166.39 244.809 166.39 250.249 Q166.39 255.573 163.241 258.791 Q160.093 262.008 154.862 262.008 Q148.866 262.008 145.695 257.425 Q142.524 252.818 142.524 244.092 Q142.524 235.897 146.413 231.036 Q150.302 226.152 156.853 226.152 Q158.612 226.152 160.394 226.499 Q162.2 226.846 164.144 227.541 Z" fill="#000000" fill-rule="nonzero" fill-opacity="1" /><path clip-path="url(#clip890)" d="M184.445 229.856 Q180.834 229.856 179.005 233.42 Q177.2 236.962 177.2 244.092 Q177.2 251.198 179.005 254.763 Q180.834 258.305 184.445 258.305 Q188.079 258.305 189.885 254.763 Q191.713 251.198 191.713 244.092 Q191.713 236.962 189.885 233.42 Q188.079 229.856 184.445 229.856 M184.445 226.152 Q190.255 226.152 193.311 230.758 Q196.389 235.342 196.389 244.092 Q196.389 252.818 193.311 257.425 Q190.255 262.008 184.445 262.008 Q178.635 262.008 175.556 257.425 Q172.501 252.818 172.501 244.092 Q172.501 235.342 175.556 230.758 Q178.635 226.152 184.445 226.152 Z" fill="#000000" fill-rule="nonzero" fill-opacity="1" /><path clip-path="url(#clip890)" d="M21.7677 990.031 L39.6235 990.031 L39.6235 981.947 Q39.6235 977.459 37.3 975.008 Q34.9765 972.557 30.6797 972.557 Q26.4147 972.557 24.0912 975.008 Q21.7677 977.459 21.7677 981.947 L21.7677 990.031 M16.4842 996.461 L16.4842 981.947 Q16.4842 973.958 20.1126 969.884 Q23.7092 965.778 30.6797 965.778 Q37.7138 965.778 41.3104 969.884 Q44.907 973.958 44.907 981.947 L44.907 990.031 L64.0042 990.031 L64.0042 996.461 L16.4842 996.461 Z" fill="#000000" fill-rule="nonzero" fill-opacity="1" /><path clip-path="url(#clip890)" d="M33.8307 937.896 Q33.2578 938.883 33.0032 940.06 Q32.7167 941.206 32.7167 942.607 Q32.7167 947.572 35.9632 950.246 Q39.1779 952.887 45.2253 952.887 L64.0042 952.887 L64.0042 958.776 L28.3562 958.776 L28.3562 952.887 L33.8944 952.887 Q30.6479 951.041 29.0883 948.081 Q27.4968 945.121 27.4968 940.888 Q27.4968 940.283 27.5923 939.551 Q27.656 938.819 27.8151 937.928 L33.8307 937.896 Z" fill="#000000" fill-rule="nonzero" fill-opacity="1" /><path clip-path="url(#clip890)" d="M44.7161 902.694 L47.5806 902.694 L47.5806 929.621 Q53.6281 929.239 56.8109 925.992 Q59.9619 922.714 59.9619 916.889 Q59.9619 913.515 59.1344 910.364 Q58.3069 907.182 56.6518 904.062 L62.1899 904.062 Q63.5267 907.213 64.227 910.524 Q64.9272 913.834 64.9272 917.239 Q64.9272 925.769 59.9619 930.766 Q54.9967 935.732 46.5303 935.732 Q37.7774 935.732 32.6531 931.021 Q27.4968 926.279 27.4968 918.258 Q27.4968 911.065 32.1438 906.895 Q36.7589 902.694 44.7161 902.694 M42.9973 908.55 Q38.1912 908.614 35.3266 911.256 Q32.4621 913.866 32.4621 918.194 Q32.4621 923.096 35.2312 926.056 Q38.0002 928.984 43.0292 929.43 L42.9973 908.55 Z" fill="#000000" fill-rule="nonzero" fill-opacity="1" /><path clip-path="url(#clip890)" d="M29.4065 870.356 L34.9447 870.356 Q33.6716 872.839 33.035 875.512 Q32.3984 878.186 32.3984 881.05 Q32.3984 885.411 33.7352 887.607 Q35.072 889.771 37.7456 889.771 Q39.7826 889.771 40.9603 888.212 Q42.1061 886.652 43.1565 881.942 L43.6021 879.936 Q44.9389 873.698 47.3897 871.088 Q49.8086 868.446 54.1691 868.446 Q59.1344 868.446 62.0308 872.393 Q64.9272 876.308 64.9272 883.183 Q64.9272 886.047 64.3543 889.167 Q63.8132 892.254 62.6992 895.691 L56.6518 895.691 Q58.3387 892.445 59.198 889.294 Q60.0256 886.143 60.0256 883.056 Q60.0256 878.918 58.6251 876.69 Q57.1929 874.462 54.6147 874.462 Q52.2276 874.462 50.9545 876.085 Q49.6813 877.676 48.5037 883.119 L48.0262 885.156 Q46.8804 890.599 44.5251 893.018 Q42.138 895.437 38.0002 895.437 Q32.9713 895.437 30.2341 891.872 Q27.4968 888.307 27.4968 881.751 Q27.4968 878.504 27.9743 875.639 Q28.4517 872.775 29.4065 870.356 Z" fill="#000000" fill-rule="nonzero" fill-opacity="1" /><path clip-path="url(#clip890)" d="M29.4065 836.395 L34.9447 836.395 Q33.6716 838.878 33.035 841.551 Q32.3984 844.225 32.3984 847.089 Q32.3984 851.45 33.7352 853.646 Q35.072 855.81 37.7456 855.81 Q39.7826 855.81 40.9603 854.251 Q42.1061 852.691 43.1565 847.98 L43.6021 845.975 Q44.9389 839.737 47.3897 837.127 Q49.8086 834.485 54.1691 834.485 Q59.1344 834.485 62.0308 838.432 Q64.9272 842.347 64.9272 849.222 Q64.9272 852.086 64.3543 855.206 Q63.8132 858.293 62.6992 861.73 L56.6518 861.73 Q58.3387 858.484 59.198 855.333 Q60.0256 852.182 60.0256 849.094 Q60.0256 844.957 58.6251 842.729 Q57.1929 840.501 54.6147 840.501 Q52.2276 840.501 50.9545 842.124 Q49.6813 843.715 48.5037 849.158 L48.0262 851.195 Q46.8804 856.638 44.5251 859.057 Q42.138 861.476 38.0002 861.476 Q32.9713 861.476 30.2341 857.911 Q27.4968 854.346 27.4968 847.789 Q27.4968 844.543 27.9743 841.678 Q28.4517 838.814 29.4065 836.395 Z" fill="#000000" fill-rule="nonzero" fill-opacity="1" /><path clip-path="url(#clip890)" d="M49.9359 825.764 L28.3562 825.764 L28.3562 819.908 L49.7131 819.908 Q54.7739 819.908 57.3202 817.934 Q59.8346 815.961 59.8346 812.014 Q59.8346 807.272 56.8109 804.535 Q53.7872 801.765 48.5673 801.765 L28.3562 801.765 L28.3562 795.909 L64.0042 795.909 L64.0042 801.765 L58.5296 801.765 Q61.7762 803.898 63.3676 806.731 Q64.9272 809.532 64.9272 813.256 Q64.9272 819.398 61.1078 822.581 Q57.2883 825.764 49.9359 825.764 M27.4968 811.028 L27.4968 811.028 Z" fill="#000000" fill-rule="nonzero" fill-opacity="1" /><path clip-path="url(#clip890)" d="M33.8307 763.189 Q33.2578 764.176 33.0032 765.354 Q32.7167 766.499 32.7167 767.9 Q32.7167 772.865 35.9632 775.539 Q39.1779 778.18 45.2253 778.18 L64.0042 778.18 L64.0042 784.069 L28.3562 784.069 L28.3562 778.18 L33.8944 778.18 Q30.6479 776.334 29.0883 773.374 Q27.4968 770.414 27.4968 766.181 Q27.4968 765.576 27.5923 764.844 Q27.656 764.112 27.8151 763.221 L33.8307 763.189 Z" fill="#000000" fill-rule="nonzero" fill-opacity="1" /><path clip-path="url(#clip890)" d="M44.7161 727.987 L47.5806 727.987 L47.5806 754.914 Q53.6281 754.532 56.8109 751.285 Q59.9619 748.007 59.9619 742.182 Q59.9619 738.809 59.1344 735.658 Q58.3069 732.475 56.6518 729.356 L62.1899 729.356 Q63.5267 732.507 64.227 735.817 Q64.9272 739.127 64.9272 742.533 Q64.9272 751.063 59.9619 756.06 Q54.9967 761.025 46.5303 761.025 Q37.7774 761.025 32.6531 756.314 Q27.4968 751.572 27.4968 743.551 Q27.4968 736.358 32.1438 732.188 Q36.7589 727.987 44.7161 727.987 M42.9973 733.843 Q38.1912 733.907 35.3266 736.549 Q32.4621 739.159 32.4621 743.487 Q32.4621 748.389 35.2312 751.349 Q38.0002 754.277 43.0292 754.723 L42.9973 733.843 Z" fill="#000000" fill-rule="nonzero" fill-opacity="1" /><path clip-path="url(#clip890)" d="M14.5426 683.586 Q21.8632 687.851 29.0246 689.92 Q36.186 691.989 43.5384 691.989 Q50.8908 691.989 58.1159 689.92 Q65.3091 687.819 72.5979 683.586 L72.5979 688.679 Q65.1182 693.453 57.8931 695.84 Q50.668 698.195 43.5384 698.195 Q36.4406 698.195 29.2474 695.84 Q22.0542 693.485 14.5426 688.679 L14.5426 683.586 Z" fill="#000000" fill-rule="nonzero" fill-opacity="1" /><path clip-path="url(#clip890)" d="M35.1993 644.469 Q31.2526 642.273 29.3747 639.217 Q27.4968 636.162 27.4968 632.024 Q27.4968 626.454 31.4117 623.43 Q35.2948 620.406 42.4881 620.406 L64.0042 620.406 L64.0042 626.295 L42.679 626.295 Q37.5546 626.295 35.072 628.109 Q32.5894 629.923 32.5894 633.647 Q32.5894 638.199 35.6131 640.84 Q38.6368 643.482 43.8567 643.482 L64.0042 643.482 L64.0042 649.37 L42.679 649.37 Q37.5228 649.37 35.072 651.185 Q32.5894 652.999 32.5894 656.786 Q32.5894 661.274 35.6449 663.916 Q38.6686 666.558 43.8567 666.558 L64.0042 666.558 L64.0042 672.446 L28.3562 672.446 L28.3562 666.558 L33.8944 666.558 Q30.616 664.553 29.0564 661.752 Q27.4968 658.951 27.4968 655.1 Q27.4968 651.216 29.4702 648.511 Q31.4436 645.774 35.1993 644.469 Z" fill="#000000" fill-rule="nonzero" fill-opacity="1" /><path clip-path="url(#clip890)" d="M16.4842 615.059 L16.4842 574.86 L21.895 574.86 L21.895 591.729 L64.0042 591.729 L64.0042 598.19 L21.895 598.19 L21.895 615.059 L16.4842 615.059 Z" fill="#000000" fill-rule="nonzero" fill-opacity="1" /><path clip-path="url(#clip890)" d="M32.4621 566.171 Q32.4621 570.881 36.1542 573.619 Q39.8145 576.356 46.212 576.356 Q52.6095 576.356 56.3017 573.65 Q59.9619 570.913 59.9619 566.171 Q59.9619 561.492 56.2698 558.755 Q52.5777 556.017 46.212 556.017 Q39.8781 556.017 36.186 558.755 Q32.4621 561.492 32.4621 566.171 M27.4968 566.171 Q27.4968 558.532 32.4621 554.171 Q37.4273 549.811 46.212 549.811 Q54.9649 549.811 59.9619 554.171 Q64.9272 558.532 64.9272 566.171 Q64.9272 573.841 59.9619 578.202 Q54.9649 582.53 46.212 582.53 Q37.4273 582.53 32.4621 578.202 Q27.4968 573.841 27.4968 566.171 Z" fill="#000000" fill-rule="nonzero" fill-opacity="1" /><path clip-path="url(#clip890)" d="M33.8307 519.446 Q33.2578 520.433 33.0032 521.611 Q32.7167 522.757 32.7167 524.157 Q32.7167 529.122 35.9632 531.796 Q39.1779 534.438 45.2253 534.438 L64.0042 534.438 L64.0042 540.326 L28.3562 540.326 L28.3562 534.438 L33.8944 534.438 Q30.6479 532.592 29.0883 529.631 Q27.4968 526.671 27.4968 522.438 Q27.4968 521.833 27.5923 521.101 Q27.656 520.369 27.8151 519.478 L33.8307 519.446 Z" fill="#000000" fill-rule="nonzero" fill-opacity="1" /><path clip-path="url(#clip890)" d="M33.8307 493.793 Q33.2578 494.779 33.0032 495.957 Q32.7167 497.103 32.7167 498.503 Q32.7167 503.468 35.9632 506.142 Q39.1779 508.784 45.2253 508.784 L64.0042 508.784 L64.0042 514.672 L28.3562 514.672 L28.3562 508.784 L33.8944 508.784 Q30.6479 506.938 29.0883 503.978 Q27.4968 501.018 27.4968 496.784 Q27.4968 496.18 27.5923 495.448 Q27.656 494.716 27.8151 493.824 L33.8307 493.793 Z" fill="#000000" fill-rule="nonzero" fill-opacity="1" /><path clip-path="url(#clip890)" d="M14.5426 488.573 L14.5426 483.48 Q22.0542 478.706 29.2474 476.351 Q36.4406 473.963 43.5384 473.963 Q50.668 473.963 57.8931 476.351 Q65.1182 478.706 72.5979 483.48 L72.5979 488.573 Q65.3091 484.339 58.1159 482.271 Q50.8908 480.17 43.5384 480.17 Q36.186 480.17 29.0246 482.271 Q21.8632 484.339 14.5426 488.573 Z" fill="#000000" fill-rule="nonzero" fill-opacity="1" /><path clip-path="url(#clip892)" d="M292.4 228.057 L276.4 260.057 L308.4 260.057 L292.4 228.057 Z" fill="#009af9" fill-rule="evenodd" fill-opacity="1" stroke="#000000" stroke-opacity="1" stroke-width="3.2"/>
<path clip-path="url(#clip892)" d="M492.442 70.1857 L476.442 102.186 L508.442 102.186 L492.442 70.1857 Z" fill="#009af9" fill-rule="evenodd" fill-opacity="1" stroke="#000000" stroke-opacity="1" stroke-width="3.2"/>
<path clip-path="url(#clip892)" d="M692.458 70.1857 L676.458 102.186 L708.458 102.186 L692.458 70.1857 Z" fill="#009af9" fill-rule="evenodd" fill-opacity="1" stroke="#000000" stroke-opacity="1" stroke-width="3.2"/>
<path clip-path="url(#clip892)" d="M892.501 70.1857 L876.501 102.186 L908.501 102.186 L892.501 70.1857 Z" fill="#009af9" fill-rule="evenodd" fill-opacity="1" stroke="#000000" stroke-opacity="1" stroke-width="3.2"/>
<path clip-path="url(#clip892)" d="M1092.54 70.1857 L1076.54 102.186 L1108.54 102.186 L1092.54 70.1857 Z" fill="#009af9" fill-rule="evenodd" fill-opacity="1" stroke="#000000" stroke-opacity="1" stroke-width="3.2"/>
<path clip-path="url(#clip892)" d="M1292.56 70.1857 L1276.56 102.186 L1308.56 102.186 L1292.56 70.1857 Z" fill="#009af9" fill-rule="evenodd" fill-opacity="1" stroke="#000000" stroke-opacity="1" stroke-width="3.2"/>
<path clip-path="url(#clip892)" d="M1492.6 87.7269 L1476.6 119.727 L1508.6 119.727 L1492.6 87.7269 Z" fill="#009af9" fill-rule="evenodd" fill-opacity="1" stroke="#000000" stroke-opacity="1" stroke-width="3.2"/>
<path clip-path="url(#clip892)" d="M1692.64 70.1857 L1676.64 102.186 L1708.64 102.186 L1692.64 70.1857 Z" fill="#009af9" fill-rule="evenodd" fill-opacity="1" stroke="#000000" stroke-opacity="1" stroke-width="3.2"/>
<path clip-path="url(#clip892)" d="M1892.69 87.7269 L1876.69 119.727 L1908.69 119.727 L1892.69 87.7269 Z" fill="#009af9" fill-rule="evenodd" fill-opacity="1" stroke="#000000" stroke-opacity="1" stroke-width="3.2"/>
<path clip-path="url(#clip892)" d="M2092.7 245.598 L2076.7 277.598 L2108.7 277.598 L2092.7 245.598 Z" fill="#009af9" fill-rule="evenodd" fill-opacity="1" stroke="#000000" stroke-opacity="1" stroke-width="3.2"/>
<path clip-path="url(#clip892)" d="M2292.75 1175.28 L2276.75 1207.28 L2308.75 1207.28 L2292.75 1175.28 Z" fill="#009af9" fill-rule="evenodd" fill-opacity="1" stroke="#000000" stroke-opacity="1" stroke-width="3.2"/>
<path clip-path="url(#clip892)" d="M308.4 1368.24 L276.4 1368.24 L292.4 1400.24 L308.4 1368.24 Z" fill="#e26f46" fill-rule="evenodd" fill-opacity="1" stroke="#000000" stroke-opacity="1" stroke-width="3.2"/>
<path clip-path="url(#clip892)" d="M508.442 1280.53 L476.442 1280.53 L492.442 1312.53 L508.442 1280.53 Z" fill="#e26f46" fill-rule="evenodd" fill-opacity="1" stroke="#000000" stroke-opacity="1" stroke-width="3.2"/>
<path clip-path="url(#clip892)" d="M708.458 1280.53 L676.458 1280.53 L692.458 1312.53 L708.458 1280.53 Z" fill="#e26f46" fill-rule="evenodd" fill-opacity="1" stroke="#000000" stroke-opacity="1" stroke-width="3.2"/>
<path clip-path="url(#clip892)" d="M908.501 1280.53 L876.501 1280.53 L892.501 1312.53 L908.501 1280.53 Z" fill="#e26f46" fill-rule="evenodd" fill-opacity="1" stroke="#000000" stroke-opacity="1" stroke-width="3.2"/>
<path clip-path="url(#clip892)" d="M1108.54 1280.53 L1076.54 1280.53 L1092.54 1312.53 L1108.54 1280.53 Z" fill="#e26f46" fill-rule="evenodd" fill-opacity="1" stroke="#000000" stroke-opacity="1" stroke-width="3.2"/>
<path clip-path="url(#clip892)" d="M1308.56 1280.53 L1276.56 1280.53 L1292.56 1312.53 L1308.56 1280.53 Z" fill="#e26f46" fill-rule="evenodd" fill-opacity="1" stroke="#000000" stroke-opacity="1" stroke-width="3.2"/>
<path clip-path="url(#clip892)" d="M1508.6 1280.53 L1476.6 1280.53 L1492.6 1312.53 L1508.6 1280.53 Z" fill="#e26f46" fill-rule="evenodd" fill-opacity="1" stroke="#000000" stroke-opacity="1" stroke-width="3.2"/>
<path clip-path="url(#clip892)" d="M1708.64 1280.53 L1676.64 1280.53 L1692.64 1312.53 L1708.64 1280.53 Z" fill="#e26f46" fill-rule="evenodd" fill-opacity="1" stroke="#000000" stroke-opacity="1" stroke-width="3.2"/>
<path clip-path="url(#clip892)" d="M1908.69 1280.53 L1876.69 1280.53 L1892.69 1312.53 L1908.69 1280.53 Z" fill="#e26f46" fill-rule="evenodd" fill-opacity="1" stroke="#000000" stroke-opacity="1" stroke-width="3.2"/>
<path clip-path="url(#clip892)" d="M2108.7 1280.53 L2076.7 1280.53 L2092.7 1312.53 L2108.7 1280.53 Z" fill="#e26f46" fill-rule="evenodd" fill-opacity="1" stroke="#000000" stroke-opacity="1" stroke-width="3.2"/>
<path clip-path="url(#clip892)" d="M2308.75 1280.53 L2276.75 1280.53 L2292.75 1312.53 L2308.75 1280.53 Z" fill="#e26f46" fill-rule="evenodd" fill-opacity="1" stroke="#000000" stroke-opacity="1" stroke-width="3.2"/>
<path clip-path="url(#clip892)" d="M2069.47 2799.12 L2069.47 -1328.69 L2254.64 -1328.69 L2254.64 2799.12 L2069.47 2799.12  Z" fill="#808080" fill-rule="evenodd" fill-opacity="0.3"/>
<polyline clip-path="url(#clip892)" style="stroke:#000000; stroke-linecap:round; stroke-linejoin:round; stroke-width:4; stroke-opacity:0.3; fill:none" points="2069.47,2799.12 2069.47,-1328.69 2254.64,-1328.69 2254.64,2799.12 2069.47,2799.12 "/>
<path clip-path="url(#clip890)" d="M1847.92 263.808 L2282.08 263.808 L2282.08 93.1086 L1847.92 93.1086  Z" fill="#ffffff" fill-rule="evenodd" fill-opacity="1"/>
<polyline clip-path="url(#clip890)" style="stroke:#000000; stroke-linecap:round; stroke-linejoin:round; stroke-width:4; stroke-opacity:1; fill:none" points="1847.92,263.808 2282.08,263.808 2282.08,93.1086 1847.92,93.1086 1847.92,263.808 "/>
<polyline clip-path="url(#clip890)" style="stroke:#009af9; stroke-linecap:round; stroke-linejoin:round; stroke-width:4; stroke-opacity:1; fill:none" points="1871.48,150.008 2012.84,150.008 "/>
<path clip-path="url(#clip890)" d="M1942.16 130.134 L1922.29 169.883 L1962.03 169.883 L1942.16 130.134 Z" fill="#009af9" fill-rule="evenodd" fill-opacity="1" stroke="#000000" stroke-opacity="1" stroke-width="4.55111"/>
<path clip-path="url(#clip890)" d="M2061.46 140.989 Q2061.46 144.409 2059.73 147.711 Q2058.02 151.014 2055.32 153.052 Q2052.63 155.066 2049.89 155.066 Q2048.25 155.066 2047.15 154.176 Q2046.07 153.262 2045.49 151.974 Q2045.04 153.567 2044.08 157.385 Q2043.12 161.203 2043.12 161.577 Q2043.12 161.788 2043.17 161.882 Q2043.21 161.976 2043.43 162.093 Q2043.64 162.233 2044.15 162.28 Q2044.67 162.35 2045.53 162.35 Q2045.98 162.35 2046.14 162.35 Q2046.33 162.374 2046.49 162.491 Q2046.68 162.608 2046.68 162.866 Q2046.68 163.826 2045.81 163.826 Q2045.04 163.826 2043.45 163.756 Q2041.86 163.685 2041.06 163.685 Q2040.38 163.685 2039.02 163.756 Q2037.66 163.826 2037.03 163.826 Q2036.4 163.826 2036.4 163.264 Q2036.4 162.936 2036.49 162.725 Q2036.56 162.538 2036.75 162.444 Q2036.94 162.374 2037.1 162.35 Q2037.24 162.35 2037.52 162.35 Q2038.6 162.35 2039.07 162.163 Q2039.54 161.999 2039.7 161.648 Q2039.89 161.32 2040.1 160.383 L2045.49 139.022 Q2045.81 137.593 2045.81 136.586 Q2045.81 135.321 2045.42 134.852 Q2045.02 134.384 2044.32 134.384 Q2043.1 134.384 2042.3 135.836 Q2041.5 137.288 2040.83 140.099 Q2040.61 140.872 2040.47 141.036 Q2040.36 141.2 2040.01 141.2 Q2039.42 141.176 2039.42 140.708 Q2039.42 140.591 2039.61 139.841 Q2039.8 139.068 2040.15 137.944 Q2040.52 136.796 2040.92 136.07 Q2041.15 135.578 2041.36 135.251 Q2041.58 134.923 2042 134.407 Q2042.44 133.892 2043.07 133.611 Q2043.71 133.33 2044.48 133.33 Q2045.98 133.33 2047.22 134.22 Q2048.46 135.11 2048.79 136.914 Q2050.12 135.344 2051.76 134.337 Q2053.4 133.33 2055.07 133.33 Q2057.83 133.33 2059.63 135.485 Q2061.46 137.616 2061.46 140.989 M2057.99 138.881 Q2057.99 136.75 2057.17 135.578 Q2056.38 134.384 2054.93 134.384 Q2053.12 134.384 2051.04 136.211 Q2048.98 137.944 2048.56 139.56 L2046.19 148.953 L2046.05 149.726 Q2046.05 149.866 2046.12 150.288 Q2046.21 150.686 2046.47 151.342 Q2046.75 151.998 2047.13 152.583 Q2047.52 153.145 2048.23 153.567 Q2048.95 153.988 2049.84 153.988 Q2051.27 153.988 2052.82 152.724 Q2054.39 151.459 2055.56 149.07 Q2056.28 147.524 2057.13 144.198 Q2057.99 140.849 2057.99 138.881 Z" fill="#000000" fill-rule="nonzero" fill-opacity="1" /><path clip-path="url(#clip890)" d="M2068.46 175.734 Q2066.33 173.505 2066.33 170.324 Q2066.33 167.127 2068.43 164.831 Q2070.53 162.519 2073.61 162.519 Q2075.66 162.519 2077.2 163.503 Q2078.74 164.47 2078.74 166.126 Q2078.74 166.864 2078.3 167.291 Q2077.87 167.7 2077.2 167.7 Q2076.5 167.7 2076.07 167.274 Q2075.66 166.831 2075.66 166.159 Q2075.66 165.864 2075.76 165.569 Q2075.86 165.274 2076.22 164.962 Q2076.6 164.651 2077.23 164.602 Q2076.04 163.372 2073.71 163.372 Q2073.68 163.372 2073.64 163.372 Q2071.94 163.372 2070.53 164.979 Q2069.12 166.586 2069.12 170.258 Q2069.12 172.176 2069.58 173.586 Q2070.05 174.98 2070.82 175.702 Q2071.59 176.423 2072.35 176.767 Q2073.1 177.095 2073.84 177.095 Q2077.14 177.095 2078.25 173.57 Q2078.35 173.242 2078.68 173.242 Q2079.12 173.242 2079.12 173.57 Q2079.12 173.734 2078.99 174.16 Q2078.86 174.587 2078.45 175.259 Q2078.04 175.931 2077.45 176.521 Q2076.87 177.095 2075.84 177.521 Q2074.82 177.948 2073.55 177.948 Q2070.59 177.948 2068.46 175.734 Z" fill="#000000" fill-rule="nonzero" fill-opacity="1" /><path clip-path="url(#clip890)" d="M2080.73 177.571 L2080.73 176.538 Q2082.52 176.538 2082.93 176.325 Q2083.34 176.095 2083.34 175.013 L2083.34 157.551 Q2083.34 156.305 2082.9 155.994 Q2082.47 155.682 2080.73 155.682 L2080.73 154.633 L2085.55 154.272 L2085.55 165.946 L2085.59 165.946 Q2086.13 164.733 2087.34 163.733 Q2088.55 162.733 2090.42 162.733 Q2092.95 162.733 2093.95 163.979 Q2094.69 164.815 2094.83 165.749 Q2095 166.684 2095 169.11 L2095 175.521 Q2095.03 176.226 2095.57 176.39 Q2096.11 176.538 2097.62 176.538 L2097.62 177.571 Q2094.19 177.472 2093.85 177.472 Q2093.59 177.472 2090.06 177.571 L2090.06 176.538 Q2091.85 176.538 2092.26 176.325 Q2092.69 176.095 2092.69 175.013 L2092.69 167.192 Q2092.69 165.487 2092.16 164.487 Q2091.64 163.47 2090.19 163.47 Q2088.46 163.47 2087.06 164.93 Q2085.67 166.389 2085.67 168.848 L2085.67 175.013 Q2085.67 176.095 2086.08 176.325 Q2086.5 176.538 2088.27 176.538 L2088.27 177.571 Q2084.85 177.472 2084.52 177.472 Q2084.26 177.472 2080.73 177.571 Z" fill="#000000" fill-rule="nonzero" fill-opacity="1" /><path clip-path="url(#clip890)" d="M2104.98 153.754 Q2104.3 152.981 2104.3 151.974 Q2104.3 150.967 2104.95 150.217 Q2105.63 149.445 2106.85 149.445 Q2108.28 149.445 2109.1 150.826 Q2109.92 152.185 2109.92 154.48 Q2109.92 156.963 2108.91 159.259 Q2107.9 161.577 2106.92 162.678 Q2105.94 163.779 2105.54 163.779 Q2105.07 163.779 2105.07 163.264 Q2105.07 163.076 2105.4 162.725 Q2108.84 159.024 2108.86 154.48 Q2108.86 153.754 2108.77 153.754 L2108.65 153.848 Q2107.83 154.527 2106.85 154.527 Q2105.65 154.527 2104.98 153.754 Z" fill="#000000" fill-rule="nonzero" fill-opacity="1" /><path clip-path="url(#clip890)" d="M2125.05 154.527 L2125.05 153.052 L2126.2 153.052 Q2128.8 153.052 2129.38 152.63 Q2129.99 152.185 2129.99 150.78 L2129.99 125.507 Q2129.99 124.125 2129.38 123.703 Q2128.77 123.258 2126.2 123.258 L2125.05 123.258 L2125.05 121.759 L2141.98 121.759 Q2146.83 121.759 2150.06 124.429 Q2153.3 127.1 2153.3 130.683 Q2153.3 134.243 2149.99 136.82 Q2146.72 139.373 2142.36 139.373 L2134.25 139.373 L2134.25 150.78 Q2134.25 152.162 2134.84 152.607 Q2135.45 153.052 2138.05 153.052 L2139.2 153.052 L2139.2 154.527 Q2137.51 154.387 2132.1 154.387 Q2126.74 154.387 2125.05 154.527 M2134.11 138.132 L2140.72 138.132 Q2142.87 138.132 2144.44 137.523 Q2146.01 136.914 2146.72 136.187 Q2147.44 135.438 2147.84 134.243 Q2148.26 133.025 2148.31 132.37 Q2148.35 131.69 2148.35 130.683 Q2148.35 129.629 2148.31 128.973 Q2148.26 128.294 2147.84 127.1 Q2147.44 125.882 2146.72 125.155 Q2146.01 124.406 2144.44 123.844 Q2142.9 123.258 2140.72 123.258 L2136.46 123.258 Q2134.82 123.258 2134.47 123.586 Q2134.11 123.914 2134.11 125.179 L2134.11 138.132 Z" fill="#000000" fill-rule="nonzero" fill-opacity="1" /><path clip-path="url(#clip890)" d="M2162.71 154.527 L2162.71 153.052 Q2165.26 153.052 2165.85 152.747 Q2166.43 152.419 2166.43 150.873 L2166.43 137.968 Q2166.43 136.187 2165.83 135.766 Q2165.24 135.344 2162.9 135.344 L2162.9 133.845 L2169.6 133.33 L2169.6 150.92 Q2169.6 152.349 2170.11 152.7 Q2170.63 153.052 2172.97 153.052 L2172.97 154.527 Q2168.07 154.387 2167.98 154.387 Q2167.32 154.387 2162.71 154.527 M2164.73 124.968 Q2164.73 124.008 2165.45 123.235 Q2166.2 122.438 2167.25 122.438 Q2168.31 122.438 2169.06 123.165 Q2169.81 123.867 2169.81 124.992 Q2169.81 126.092 2169.06 126.818 Q2168.31 127.521 2167.25 127.521 Q2166.15 127.521 2165.43 126.748 Q2164.73 125.975 2164.73 124.968 Z" fill="#000000" fill-rule="nonzero" fill-opacity="1" /><path clip-path="url(#clip890)" d="M2176.25 154.527 L2176.25 153.052 Q2178.8 153.052 2179.38 152.747 Q2179.99 152.419 2179.99 150.873 L2179.99 138.014 Q2179.99 136.234 2179.36 135.789 Q2178.75 135.344 2176.25 135.344 L2176.25 133.845 L2182.92 133.33 L2182.92 138.6 Q2183.6 136.539 2185.03 134.946 Q2186.48 133.33 2188.82 133.33 Q2190.37 133.33 2191.35 134.197 Q2192.36 135.063 2192.36 136.258 Q2192.36 137.312 2191.7 137.85 Q2191.07 138.366 2190.3 138.366 Q2189.43 138.366 2188.82 137.827 Q2188.24 137.265 2188.24 136.305 Q2188.24 135.719 2188.5 135.274 Q2188.78 134.806 2188.99 134.642 Q2189.2 134.478 2189.34 134.431 Q2189.24 134.384 2188.82 134.384 Q2186.18 134.384 2184.65 137.031 Q2183.16 139.654 2183.16 143.402 L2183.16 150.78 Q2183.16 152.162 2183.72 152.607 Q2184.3 153.052 2186.81 153.052 L2187.82 153.052 L2187.82 154.527 Q2185.9 154.387 2181.73 154.387 Q2181.14 154.387 2180.23 154.41 Q2179.31 154.434 2178.12 154.48 Q2176.92 154.527 2176.25 154.527 Z" fill="#000000" fill-rule="nonzero" fill-opacity="1" /><path clip-path="url(#clip890)" d="M2196.23 149.96 Q2196.23 145.884 2201.03 143.729 Q2203.91 142.348 2209.86 141.996 L2209.86 140.24 Q2209.86 137.265 2208.29 135.696 Q2206.75 134.103 2204.78 134.103 Q2201.26 134.103 2199.58 136.305 Q2201.01 136.351 2201.52 137.077 Q2202.04 137.78 2202.04 138.506 Q2202.04 139.467 2201.43 140.099 Q2200.84 140.708 2199.84 140.708 Q2198.88 140.708 2198.24 140.122 Q2197.61 139.513 2197.61 138.459 Q2197.61 136.117 2199.72 134.571 Q2201.85 133.025 2204.87 133.025 Q2208.81 133.025 2211.43 135.672 Q2212.25 136.492 2212.65 137.546 Q2213.07 138.6 2213.12 139.303 Q2213.16 139.982 2213.16 141.34 L2213.16 150.92 Q2213.16 151.201 2213.26 151.67 Q2213.35 152.138 2213.77 152.747 Q2214.22 153.333 2214.94 153.333 Q2216.68 153.333 2216.65 150.264 L2216.65 147.571 L2217.87 147.571 L2217.87 150.264 Q2217.87 152.817 2216.51 153.825 Q2215.18 154.808 2213.94 154.808 Q2212.34 154.808 2211.34 153.637 Q2210.33 152.466 2210.19 150.873 Q2209.46 152.7 2207.8 153.895 Q2206.16 155.066 2203.91 155.066 Q2202.18 155.066 2200.54 154.621 Q2198.92 154.199 2197.56 153.005 Q2196.23 151.787 2196.23 149.96 M2199.93 149.913 Q2199.93 151.693 2201.19 152.841 Q2202.46 153.988 2204.24 153.988 Q2206.25 153.988 2208.06 152.443 Q2209.86 150.873 2209.86 147.805 L2209.86 143.003 Q2204.54 143.191 2202.23 145.322 Q2199.93 147.43 2199.93 149.913 Z" fill="#000000" fill-rule="nonzero" fill-opacity="1" /><path clip-path="url(#clip890)" d="M2218.83 154.527 L2218.83 153.052 Q2221.38 153.052 2221.97 152.747 Q2222.55 152.419 2222.55 150.873 L2222.55 138.014 Q2222.55 136.234 2221.92 135.789 Q2221.31 135.344 2218.83 135.344 L2218.83 133.845 L2225.57 133.33 L2225.57 138.366 Q2227.82 133.33 2232.67 133.33 Q2236.28 133.33 2237.71 135.11 Q2238.76 136.305 2238.97 137.64 Q2239.2 138.975 2239.2 142.441 L2239.2 151.599 Q2239.25 152.607 2240.02 152.841 Q2240.8 153.052 2242.95 153.052 L2242.95 154.527 Q2238.06 154.387 2237.57 154.387 Q2237.19 154.387 2232.15 154.527 L2232.15 153.052 Q2234.71 153.052 2235.29 152.747 Q2235.9 152.419 2235.9 150.873 L2235.9 139.701 Q2235.9 137.265 2235.15 135.836 Q2234.4 134.384 2232.34 134.384 Q2229.86 134.384 2227.87 136.469 Q2225.88 138.553 2225.88 142.066 L2225.88 150.873 Q2225.88 152.419 2226.46 152.747 Q2227.07 153.052 2229.6 153.052 L2229.6 154.527 Q2224.71 154.387 2224.24 154.387 Q2223.86 154.387 2218.83 154.527 Z" fill="#000000" fill-rule="nonzero" fill-opacity="1" /><path clip-path="url(#clip890)" d="M2245.37 154.527 L2245.37 153.052 Q2247.92 153.052 2248.51 152.747 Q2249.09 152.419 2249.09 150.873 L2249.09 137.968 Q2249.09 136.187 2248.48 135.766 Q2247.9 135.344 2245.55 135.344 L2245.55 133.845 L2252.25 133.33 L2252.25 150.92 Q2252.25 152.349 2252.77 152.7 Q2253.28 153.052 2255.63 153.052 L2255.63 154.527 Q2250.73 154.387 2250.64 154.387 Q2249.98 154.387 2245.37 154.527 M2247.38 124.968 Q2247.38 124.008 2248.11 123.235 Q2248.86 122.438 2249.91 122.438 Q2250.96 122.438 2251.71 123.165 Q2252.46 123.867 2252.46 124.992 Q2252.46 126.092 2251.71 126.818 Q2250.96 127.521 2249.91 127.521 Q2248.81 127.521 2248.08 126.748 Q2247.38 125.975 2247.38 124.968 Z" fill="#000000" fill-rule="nonzero" fill-opacity="1" /><polyline clip-path="url(#clip890)" style="stroke:#e26f46; stroke-linecap:round; stroke-linejoin:round; stroke-width:4; stroke-opacity:1; fill:none" points="1871.48,206.908 2012.84,206.908 "/>
<path clip-path="url(#clip890)" d="M1962.03 187.033 L1922.29 187.033 L1942.16 226.783 L1962.03 187.033 Z" fill="#e26f46" fill-rule="evenodd" fill-opacity="1" stroke="#000000" stroke-opacity="1" stroke-width="4.55111"/>
<path clip-path="url(#clip890)" d="M2061.46 198.404 Q2061.46 201.824 2059.73 205.127 Q2058.02 208.429 2055.32 210.467 Q2052.63 212.481 2049.89 212.481 Q2048.25 212.481 2047.15 211.591 Q2046.07 210.678 2045.49 209.389 Q2045.04 210.982 2044.08 214.8 Q2043.12 218.618 2043.12 218.993 Q2043.12 219.203 2043.17 219.297 Q2043.21 219.391 2043.43 219.508 Q2043.64 219.649 2044.15 219.695 Q2044.67 219.766 2045.53 219.766 Q2045.98 219.766 2046.14 219.766 Q2046.33 219.789 2046.49 219.906 Q2046.68 220.023 2046.68 220.281 Q2046.68 221.241 2045.81 221.241 Q2045.04 221.241 2043.45 221.171 Q2041.86 221.101 2041.06 221.101 Q2040.38 221.101 2039.02 221.171 Q2037.66 221.241 2037.03 221.241 Q2036.4 221.241 2036.4 220.679 Q2036.4 220.351 2036.49 220.14 Q2036.56 219.953 2036.75 219.859 Q2036.94 219.789 2037.1 219.766 Q2037.24 219.766 2037.52 219.766 Q2038.6 219.766 2039.07 219.578 Q2039.54 219.414 2039.7 219.063 Q2039.89 218.735 2040.1 217.798 L2045.49 196.437 Q2045.81 195.008 2045.81 194.001 Q2045.81 192.736 2045.42 192.268 Q2045.02 191.799 2044.32 191.799 Q2043.1 191.799 2042.3 193.251 Q2041.5 194.704 2040.83 197.514 Q2040.61 198.287 2040.47 198.451 Q2040.36 198.615 2040.01 198.615 Q2039.42 198.592 2039.42 198.123 Q2039.42 198.006 2039.61 197.257 Q2039.8 196.484 2040.15 195.359 Q2040.52 194.212 2040.92 193.486 Q2041.15 192.994 2041.36 192.666 Q2041.58 192.338 2042 191.823 Q2042.44 191.307 2043.07 191.026 Q2043.71 190.745 2044.48 190.745 Q2045.98 190.745 2047.22 191.635 Q2048.46 192.525 2048.79 194.329 Q2050.12 192.76 2051.76 191.752 Q2053.4 190.745 2055.07 190.745 Q2057.83 190.745 2059.63 192.9 Q2061.46 195.032 2061.46 198.404 M2057.99 196.296 Q2057.99 194.165 2057.17 192.994 Q2056.38 191.799 2054.93 191.799 Q2053.12 191.799 2051.04 193.626 Q2048.98 195.359 2048.56 196.976 L2046.19 206.368 L2046.05 207.141 Q2046.05 207.281 2046.12 207.703 Q2046.21 208.101 2046.47 208.757 Q2046.75 209.413 2047.13 209.998 Q2047.52 210.561 2048.23 210.982 Q2048.95 211.404 2049.84 211.404 Q2051.27 211.404 2052.82 210.139 Q2054.39 208.874 2055.56 206.485 Q2056.28 204.939 2057.13 201.613 Q2057.99 198.264 2057.99 196.296 Z" fill="#000000" fill-rule="nonzero" fill-opacity="1" /><path clip-path="url(#clip890)" d="M2068.46 233.15 Q2066.33 230.92 2066.33 227.739 Q2066.33 224.542 2068.43 222.246 Q2070.53 219.935 2073.61 219.935 Q2075.66 219.935 2077.2 220.918 Q2078.74 221.886 2078.74 223.542 Q2078.74 224.28 2078.3 224.706 Q2077.87 225.116 2077.2 225.116 Q2076.5 225.116 2076.07 224.689 Q2075.66 224.247 2075.66 223.575 Q2075.66 223.279 2075.76 222.984 Q2075.86 222.689 2076.22 222.378 Q2076.6 222.066 2077.23 222.017 Q2076.04 220.787 2073.71 220.787 Q2073.68 220.787 2073.64 220.787 Q2071.94 220.787 2070.53 222.394 Q2069.12 224.001 2069.12 227.673 Q2069.12 229.592 2069.58 231.002 Q2070.05 232.395 2070.82 233.117 Q2071.59 233.838 2072.35 234.183 Q2073.1 234.51 2073.84 234.51 Q2077.14 234.51 2078.25 230.985 Q2078.35 230.657 2078.68 230.657 Q2079.12 230.657 2079.12 230.985 Q2079.12 231.149 2078.99 231.576 Q2078.86 232.002 2078.45 232.674 Q2078.04 233.346 2077.45 233.937 Q2076.87 234.51 2075.84 234.937 Q2074.82 235.363 2073.55 235.363 Q2070.59 235.363 2068.46 233.15 Z" fill="#000000" fill-rule="nonzero" fill-opacity="1" /><path clip-path="url(#clip890)" d="M2080.73 234.986 L2080.73 233.953 Q2082.52 233.953 2082.93 233.74 Q2083.34 233.51 2083.34 232.428 L2083.34 214.967 Q2083.34 213.721 2082.9 213.409 Q2082.47 213.098 2080.73 213.098 L2080.73 212.048 L2085.55 211.688 L2085.55 223.361 L2085.59 223.361 Q2086.13 222.148 2087.34 221.148 Q2088.55 220.148 2090.42 220.148 Q2092.95 220.148 2093.95 221.394 Q2094.69 222.23 2094.83 223.165 Q2095 224.099 2095 226.526 L2095 232.936 Q2095.03 233.642 2095.57 233.805 Q2096.11 233.953 2097.62 233.953 L2097.62 234.986 Q2094.19 234.888 2093.85 234.888 Q2093.59 234.888 2090.06 234.986 L2090.06 233.953 Q2091.85 233.953 2092.26 233.74 Q2092.69 233.51 2092.69 232.428 L2092.69 224.607 Q2092.69 222.902 2092.16 221.902 Q2091.64 220.886 2090.19 220.886 Q2088.46 220.886 2087.06 222.345 Q2085.67 223.804 2085.67 226.263 L2085.67 232.428 Q2085.67 233.51 2086.08 233.74 Q2086.5 233.953 2088.27 233.953 L2088.27 234.986 Q2084.85 234.888 2084.52 234.888 Q2084.26 234.888 2080.73 234.986 Z" fill="#000000" fill-rule="nonzero" fill-opacity="1" /><path clip-path="url(#clip890)" d="M2104.98 211.17 Q2104.3 210.397 2104.3 209.389 Q2104.3 208.382 2104.95 207.633 Q2105.63 206.86 2106.85 206.86 Q2108.28 206.86 2109.1 208.242 Q2109.92 209.6 2109.92 211.896 Q2109.92 214.378 2108.91 216.674 Q2107.9 218.993 2106.92 220.094 Q2105.94 221.194 2105.54 221.194 Q2105.07 221.194 2105.07 220.679 Q2105.07 220.492 2105.4 220.14 Q2108.84 216.44 2108.86 211.896 Q2108.86 211.17 2108.77 211.17 L2108.65 211.263 Q2107.83 211.943 2106.85 211.943 Q2105.65 211.943 2104.98 211.17 Z" fill="#000000" fill-rule="nonzero" fill-opacity="1" /><path clip-path="url(#clip890)" d="M2125.05 195.547 Q2125.05 188.309 2129.99 183.227 Q2134.93 178.121 2141.73 178.121 Q2143.83 178.121 2145.71 178.893 Q2147.58 179.666 2148.45 180.346 Q2149.32 181.001 2150.56 182.243 L2152.97 178.706 Q2153.34 178.121 2153.72 178.121 Q2154.12 178.121 2154.19 178.355 Q2154.26 178.566 2154.26 179.268 L2154.26 190.652 Q2154.26 191.424 2154.16 191.612 Q2154.07 191.799 2153.48 191.799 Q2153.02 191.799 2152.9 191.659 Q2152.81 191.518 2152.71 190.979 Q2151.99 185.803 2149.1 182.711 Q2146.25 179.62 2142.27 179.62 Q2141.12 179.62 2139.83 179.877 Q2138.56 180.135 2136.71 181.119 Q2134.89 182.102 2133.46 183.742 Q2132.05 185.358 2131.02 188.45 Q2129.99 191.518 2129.99 195.594 Q2129.99 199.622 2131.02 202.714 Q2132.05 205.806 2133.46 207.422 Q2134.89 209.015 2136.71 209.998 Q2138.56 210.982 2139.85 211.263 Q2141.16 211.521 2142.31 211.521 Q2146.43 211.521 2149.6 208.593 Q2152.76 205.665 2153.06 200.723 Q2153.11 200.489 2153.11 200.395 Q2153.11 200.278 2153.16 200.161 Q2153.2 200.044 2153.32 199.997 Q2153.44 199.95 2153.63 199.95 Q2154.26 199.95 2154.26 200.77 Q2154.26 205.337 2150.74 209.179 Q2147.25 212.997 2141.73 212.997 Q2134.91 212.997 2129.97 207.937 Q2125.05 202.878 2125.05 195.547 Z" fill="#000000" fill-rule="nonzero" fill-opacity="1" /><path clip-path="url(#clip890)" d="M2162.21 211.943 L2162.21 210.467 Q2163.94 210.467 2165.04 210.139 Q2166.14 209.788 2166.54 209.155 Q2166.96 208.499 2167.06 208.078 Q2167.15 207.633 2167.15 206.907 L2167.15 182.922 Q2167.15 181.54 2166.54 181.119 Q2165.96 180.674 2163.36 180.674 L2162.21 180.674 L2162.21 179.175 L2170.31 179.175 Q2171.18 179.175 2171.41 179.338 Q2171.65 179.479 2172 180.229 L2182.4 207.094 L2192.89 180.088 Q2193.13 179.409 2193.34 179.292 Q2193.57 179.175 2194.49 179.175 L2202.59 179.175 L2202.59 180.674 L2201.44 180.674 Q2198.84 180.674 2198.23 181.119 Q2197.65 181.54 2197.65 182.922 L2197.65 208.195 Q2197.65 209.577 2198.23 210.022 Q2198.84 210.467 2201.44 210.467 L2202.59 210.467 L2202.59 211.943 Q2200.81 211.802 2195.73 211.802 Q2190.6 211.802 2188.82 211.943 L2188.82 210.467 L2189.99 210.467 Q2192.59 210.467 2193.17 210.045 Q2193.76 209.6 2193.76 208.195 L2193.76 180.674 L2193.71 180.674 L2181.93 211.029 Q2181.6 211.943 2181.06 211.943 Q2180.48 211.943 2180.1 210.889 L2168.53 181.048 L2168.49 181.048 L2168.49 206.907 Q2168.49 207.633 2168.58 208.078 Q2168.67 208.499 2169.07 209.155 Q2169.49 209.788 2170.59 210.139 Q2171.7 210.467 2173.43 210.467 L2173.43 211.943 Q2168.39 211.802 2167.81 211.802 Q2167.25 211.802 2162.21 211.943 Z" fill="#000000" fill-rule="nonzero" fill-opacity="1" /></svg>
