<?xml version="1.0" encoding="utf-8"?>
<svg xmlns="http://www.w3.org/2000/svg" xmlns:xlink="http://www.w3.org/1999/xlink" width="600" height="400" viewBox="0 0 2400 1600">
<defs>
  <clipPath id="clip010">
    <rect x="0" y="0" width="2400" height="1600"/>
  </clipPath>
</defs>
<path clip-path="url(#clip010)" d="M0 1600 L2400 1600 L2400 0 L0 0  Z" fill="#ffffff" fill-rule="evenodd" fill-opacity="1"/>
<defs>
  <clipPath id="clip011">
    <rect x="232" y="47" width="2121" height="1377"/>
  </clipPath>
</defs>
<path clip-path="url(#clip010)" d="M232.389 1423.18 L2352.76 1423.18 L2352.76 47.2441 L232.389 47.2441  Z" fill="#ffffff" fill-rule="evenodd" fill-opacity="1"/>
<polyline clip-path="url(#clip011)" style="stroke:#000000; stroke-linecap:round; stroke-linejoin:round; stroke-width:2; stroke-opacity:0.1; fill:none" points="292.4,1423.18 292.4,47.2441 "/>
<polyline clip-path="url(#clip011)" style="stroke:#000000; stroke-linecap:round; stroke-linejoin:round; stroke-width:2; stroke-opacity:0.1; fill:none" points="596.25,1423.18 596.25,47.2441 "/>
<polyline clip-path="url(#clip011)" style="stroke:#000000; stroke-linecap:round; stroke-linejoin:round; stroke-width:2; stroke-opacity:0.1; fill:none" points="900.1,1423.18 900.1,47.2441 "/>
<polyline clip-path="url(#clip011)" style="stroke:#000000; stroke-linecap:round; stroke-linejoin:round; stroke-width:2; stroke-opacity:0.1; fill:none" points="1203.95,1423.18 1203.95,47.2441 "/>
<polyline clip-path="url(#clip011)" style="stroke:#000000; stroke-linecap:round; stroke-linejoin:round; stroke-width:2; stroke-opacity:0.1; fill:none" points="1507.8,1423.18 1507.8,47.2441 "/>
<polyline clip-path="url(#clip011)" style="stroke:#000000; stroke-linecap:round; stroke-linejoin:round; stroke-width:2; stroke-opacity:0.1; fill:none" points="1811.65,1423.18 1811.65,47.2441 "/>
<polyline clip-path="url(#clip011)" style="stroke:#000000; stroke-linecap:round; stroke-linejoin:round; stroke-width:2; stroke-opacity:0.1; fill:none" points="2115.5,1423.18 2115.5,47.2441 "/>
<polyline clip-path="url(#clip011)" style="stroke:#000000; stroke-linecap:round; stroke-linejoin:round; stroke-width:2; stroke-opacity:0.1; fill:none" points="232.389,1416.29 2352.76,1416.29 "/>
<polyline clip-path="url(#clip011)" style="stroke:#000000; stroke-linecap:round; stroke-linejoin:round; stroke-width:2; stroke-opacity:0.1; fill:none" points="232.389,1095.78 2352.76,1095.78 "/>
<polyline clip-path="url(#clip011)" style="stroke:#000000; stroke-linecap:round; stroke-linejoin:round; stroke-width:2; stroke-opacity:0.1; fill:none" points="232.389,775.275 2352.76,775.275 "/>
<polyline clip-path="url(#clip011)" style="stroke:#000000; stroke-linecap:round; stroke-linejoin:round; stroke-width:2; stroke-opacity:0.1; fill:none" points="232.389,454.769 2352.76,454.769 "/>
<polyline clip-path="url(#clip011)" style="stroke:#000000; stroke-linecap:round; stroke-linejoin:round; stroke-width:2; stroke-opacity:0.1; fill:none" points="232.389,134.262 2352.76,134.262 "/>
<polyline clip-path="url(#clip010)" style="stroke:#000000; stroke-linecap:round; stroke-linejoin:round; stroke-width:4; stroke-opacity:1; fill:none" points="232.389,1423.18 2352.76,1423.18 "/>
<polyline clip-path="url(#clip010)" style="stroke:#000000; stroke-linecap:round; stroke-linejoin:round; stroke-width:4; stroke-opacity:1; fill:none" points="292.4,1423.18 292.4,1404.28 "/>
<polyline clip-path="url(#clip010)" style="stroke:#000000; stroke-linecap:round; stroke-linejoin:round; stroke-width:4; stroke-opacity:1; fill:none" points="596.25,1423.18 596.25,1404.28 "/>
<polyline clip-path="url(#clip010)" style="stroke:#000000; stroke-linecap:round; stroke-linejoin:round; stroke-width:4; stroke-opacity:1; fill:none" points="900.1,1423.18 900.1,1404.28 "/>
<polyline clip-path="url(#clip010)" style="stroke:#000000; stroke-linecap:round; stroke-linejoin:round; stroke-width:4; stroke-opacity:1; fill:none" points="1203.95,1423.18 1203.95,1404.28 "/>
<polyline clip-path="url(#clip010)" style="stroke:#000000; stroke-linecap:round; stroke-linejoin:round; stroke-width:4; stroke-opacity:1; fill:none" points="1507.8,1423.18 1507.8,1404.28 "/>
<polyline clip-path="url(#clip010)" style="stroke:#000000; stroke-linecap:round; stroke-linejoin:round; stroke-width:4; stroke-opacity:1; fill:none" points="1811.65,1423.18 1811.65,1404.28 "/>
<polyline clip-path="url(#clip010)" style="stroke:#000000; stroke-linecap:round; stroke-linejoin:round; stroke-width:4; stroke-opacity:1; fill:none" points="2115.5,1423.18 2115.5,1404.28 "/>
<path clip-path="url(#clip010)" d="M292.4 1454.1 Q288.789 1454.1 286.96 1457.66 Q285.154 1461.2 285.154 1468.33 Q285.154 1475.44 286.96 1479.01 Q288.789 1482.55 292.4 1482.55 Q296.034 1482.55 297.84 1479.01 Q299.668 1475.44 299.668 1468.33 Q299.668 1461.2 297.84 1457.66 Q296.034 1454.1 292.4 1454.1 M292.4 1450.39 Q298.21 1450.39 301.265 1455 Q304.344 1459.58 304.344 1468.33 Q304.344 1477.06 301.265 1481.67 Q298.21 1486.25 292.4 1486.25 Q286.59 1486.25 283.511 1481.67 Q280.455 1477.06 280.455 1468.33 Q280.455 1459.58 283.511 1455 Q286.59 1450.39 292.4 1450.39 Z" fill="#000000" fill-rule="nonzero" fill-opacity="1" /><path clip-path="url(#clip010)" d="M590.903 1481.64 L607.222 1481.64 L607.222 1485.58 L585.278 1485.58 L585.278 1481.64 Q587.94 1478.89 592.523 1474.26 Q597.129 1469.61 598.31 1468.27 Q600.555 1465.74 601.435 1464.01 Q602.338 1462.25 602.338 1460.56 Q602.338 1457.8 600.393 1456.07 Q598.472 1454.33 595.37 1454.33 Q593.171 1454.33 590.717 1455.09 Q588.287 1455.86 585.509 1457.41 L585.509 1452.69 Q588.333 1451.55 590.787 1450.97 Q593.24 1450.39 595.278 1450.39 Q600.648 1450.39 603.842 1453.08 Q607.037 1455.77 607.037 1460.26 Q607.037 1462.39 606.227 1464.31 Q605.439 1466.2 603.333 1468.8 Q602.754 1469.47 599.652 1472.69 Q596.551 1475.88 590.903 1481.64 Z" fill="#000000" fill-rule="nonzero" fill-opacity="1" /><path clip-path="url(#clip010)" d="M903.109 1455.09 L891.303 1473.54 L903.109 1473.54 L903.109 1455.09 M901.882 1451.02 L907.762 1451.02 L907.762 1473.54 L912.692 1473.54 L912.692 1477.43 L907.762 1477.43 L907.762 1485.58 L903.109 1485.58 L903.109 1477.43 L887.507 1477.43 L887.507 1472.92 L901.882 1451.02 Z" fill="#000000" fill-rule="nonzero" fill-opacity="1" /><path clip-path="url(#clip010)" d="M1204.35 1466.44 Q1201.21 1466.44 1199.35 1468.59 Q1197.53 1470.74 1197.53 1474.49 Q1197.53 1478.22 1199.35 1480.39 Q1201.21 1482.55 1204.35 1482.55 Q1207.5 1482.55 1209.33 1480.39 Q1211.18 1478.22 1211.18 1474.49 Q1211.18 1470.74 1209.33 1468.59 Q1207.5 1466.44 1204.35 1466.44 M1213.64 1451.78 L1213.64 1456.04 Q1211.88 1455.21 1210.07 1454.77 Q1208.29 1454.33 1206.53 1454.33 Q1201.9 1454.33 1199.45 1457.45 Q1197.02 1460.58 1196.67 1466.9 Q1198.04 1464.89 1200.1 1463.82 Q1202.16 1462.73 1204.63 1462.73 Q1209.84 1462.73 1212.85 1465.9 Q1215.88 1469.05 1215.88 1474.49 Q1215.88 1479.82 1212.73 1483.03 Q1209.59 1486.25 1204.35 1486.25 Q1198.36 1486.25 1195.19 1481.67 Q1192.02 1477.06 1192.02 1468.33 Q1192.02 1460.14 1195.91 1455.28 Q1199.79 1450.39 1206.35 1450.39 Q1208.1 1450.39 1209.89 1450.74 Q1211.69 1451.09 1213.64 1451.78 Z" fill="#000000" fill-rule="nonzero" fill-opacity="1" /><path clip-path="url(#clip010)" d="M1507.8 1469.17 Q1504.47 1469.17 1502.55 1470.95 Q1500.65 1472.73 1500.65 1475.86 Q1500.65 1478.98 1502.55 1480.77 Q1504.47 1482.55 1507.8 1482.55 Q1511.13 1482.55 1513.05 1480.77 Q1514.98 1478.96 1514.98 1475.86 Q1514.98 1472.73 1513.05 1470.95 Q1511.16 1469.17 1507.8 1469.17 M1503.12 1467.18 Q1500.11 1466.44 1498.42 1464.38 Q1496.76 1462.32 1496.76 1459.35 Q1496.76 1455.21 1499.7 1452.8 Q1502.66 1450.39 1507.8 1450.39 Q1512.96 1450.39 1515.9 1452.8 Q1518.84 1455.21 1518.84 1459.35 Q1518.84 1462.32 1517.15 1464.38 Q1515.48 1466.44 1512.5 1467.18 Q1515.88 1467.96 1517.75 1470.26 Q1519.65 1472.55 1519.65 1475.86 Q1519.65 1480.88 1516.57 1483.57 Q1513.52 1486.25 1507.8 1486.25 Q1502.08 1486.25 1499 1483.57 Q1495.95 1480.88 1495.95 1475.86 Q1495.95 1472.55 1497.85 1470.26 Q1499.74 1467.96 1503.12 1467.18 M1501.41 1459.79 Q1501.41 1462.48 1503.08 1463.98 Q1504.77 1465.49 1507.8 1465.49 Q1510.81 1465.49 1512.5 1463.98 Q1514.21 1462.48 1514.21 1459.79 Q1514.21 1457.11 1512.5 1455.6 Q1510.81 1454.1 1507.8 1454.1 Q1504.77 1454.1 1503.08 1455.6 Q1501.41 1457.11 1501.41 1459.79 Z" fill="#000000" fill-rule="nonzero" fill-opacity="1" /><path clip-path="url(#clip010)" d="M1786.34 1481.64 L1793.98 1481.64 L1793.98 1455.28 L1785.67 1456.95 L1785.67 1452.69 L1793.93 1451.02 L1798.61 1451.02 L1798.61 1481.64 L1806.24 1481.64 L1806.24 1485.58 L1786.34 1485.58 L1786.34 1481.64 Z" fill="#000000" fill-rule="nonzero" fill-opacity="1" /><path clip-path="url(#clip010)" d="M1825.69 1454.1 Q1822.08 1454.1 1820.25 1457.66 Q1818.44 1461.2 1818.44 1468.33 Q1818.44 1475.44 1820.25 1479.01 Q1822.08 1482.55 1825.69 1482.55 Q1829.32 1482.55 1831.13 1479.01 Q1832.96 1475.44 1832.96 1468.33 Q1832.96 1461.2 1831.13 1457.66 Q1829.32 1454.1 1825.69 1454.1 M1825.69 1450.39 Q1831.5 1450.39 1834.55 1455 Q1837.63 1459.58 1837.63 1468.33 Q1837.63 1477.06 1834.55 1481.67 Q1831.5 1486.25 1825.69 1486.25 Q1819.88 1486.25 1816.8 1481.67 Q1813.74 1477.06 1813.74 1468.33 Q1813.74 1459.58 1816.8 1455 Q1819.88 1450.39 1825.69 1450.39 Z" fill="#000000" fill-rule="nonzero" fill-opacity="1" /><path clip-path="url(#clip010)" d="M2090.99 1481.64 L2098.62 1481.64 L2098.62 1455.28 L2090.31 1456.95 L2090.31 1452.69 L2098.58 1451.02 L2103.25 1451.02 L2103.25 1481.64 L2110.89 1481.64 L2110.89 1485.58 L2090.99 1485.58 L2090.99 1481.64 Z" fill="#000000" fill-rule="nonzero" fill-opacity="1" /><path clip-path="url(#clip010)" d="M2124.37 1481.64 L2140.68 1481.64 L2140.68 1485.58 L2118.74 1485.58 L2118.74 1481.64 Q2121.4 1478.89 2125.99 1474.26 Q2130.59 1469.61 2131.77 1468.27 Q2134.02 1465.74 2134.9 1464.01 Q2135.8 1462.25 2135.8 1460.56 Q2135.8 1457.8 2133.86 1456.07 Q2131.93 1454.33 2128.83 1454.33 Q2126.63 1454.33 2124.18 1455.09 Q2121.75 1455.86 2118.97 1457.41 L2118.97 1452.69 Q2121.8 1451.55 2124.25 1450.97 Q2126.7 1450.39 2128.74 1450.39 Q2134.11 1450.39 2137.31 1453.08 Q2140.5 1455.77 2140.5 1460.26 Q2140.5 1462.39 2139.69 1464.31 Q2138.9 1466.2 2136.8 1468.8 Q2136.22 1469.47 2133.12 1472.69 Q2130.01 1475.88 2124.37 1481.64 Z" fill="#000000" fill-rule="nonzero" fill-opacity="1" /><path clip-path="url(#clip010)" d="M1291.33 1546.53 L1291.33 1568.04 L1285.47 1568.04 L1285.47 1546.72 Q1285.47 1541.66 1283.5 1539.14 Q1281.53 1536.63 1277.58 1536.63 Q1272.84 1536.63 1270.1 1539.65 Q1267.36 1542.68 1267.36 1547.9 L1267.36 1568.04 L1261.48 1568.04 L1261.48 1518.52 L1267.36 1518.52 L1267.36 1537.93 Q1269.47 1534.72 1272.3 1533.13 Q1275.16 1531.54 1278.89 1531.54 Q1285.03 1531.54 1288.18 1535.36 Q1291.33 1539.14 1291.33 1546.53 Z" fill="#000000" fill-rule="nonzero" fill-opacity="1" /><path clip-path="url(#clip010)" d="M1323.67 1537.87 Q1322.68 1537.3 1321.5 1537.04 Q1320.36 1536.76 1318.96 1536.76 Q1313.99 1536.76 1311.32 1540 Q1308.68 1543.22 1308.68 1549.27 L1308.68 1568.04 L1302.79 1568.04 L1302.79 1532.4 L1308.68 1532.4 L1308.68 1537.93 Q1310.52 1534.69 1313.48 1533.13 Q1316.44 1531.54 1320.68 1531.54 Q1321.28 1531.54 1322.01 1531.63 Q1322.75 1531.7 1323.64 1531.85 L1323.67 1537.87 Z" fill="#000000" fill-rule="nonzero" fill-opacity="1" /><polyline clip-path="url(#clip010)" style="stroke:#000000; stroke-linecap:round; stroke-linejoin:round; stroke-width:4; stroke-opacity:1; fill:none" points="232.389,1423.18 232.389,47.2441 "/>
<polyline clip-path="url(#clip010)" style="stroke:#000000; stroke-linecap:round; stroke-linejoin:round; stroke-width:4; stroke-opacity:1; fill:none" points="232.389,1416.29 251.287,1416.29 "/>
<polyline clip-path="url(#clip010)" style="stroke:#000000; stroke-linecap:round; stroke-linejoin:round; stroke-width:4; stroke-opacity:1; fill:none" points="232.389,1095.78 251.287,1095.78 "/>
<polyline clip-path="url(#clip010)" style="stroke:#000000; stroke-linecap:round; stroke-linejoin:round; stroke-width:4; stroke-opacity:1; fill:none" points="232.389,775.275 251.287,775.275 "/>
<polyline clip-path="url(#clip010)" style="stroke:#000000; stroke-linecap:round; stroke-linejoin:round; stroke-width:4; stroke-opacity:1; fill:none" points="232.389,454.769 251.287,454.769 "/>
<polyline clip-path="url(#clip010)" style="stroke:#000000; stroke-linecap:round; stroke-linejoin:round; stroke-width:4; stroke-opacity:1; fill:none" points="232.389,134.262 251.287,134.262 "/>
<path clip-path="url(#clip010)" d="M114.931 1429.63 L122.57 1429.63 L122.57 1403.27 L114.26 1404.93 L114.26 1400.68 L122.524 1399.01 L127.2 1399.01 L127.2 1429.63 L134.839 1429.63 L134.839 1433.57 L114.931 1433.57 L114.931 1429.63 Z" fill="#000000" fill-rule="nonzero" fill-opacity="1" /><path clip-path="url(#clip010)" d="M154.283 1402.09 Q150.672 1402.09 148.843 1405.65 Q147.038 1409.19 147.038 1416.32 Q147.038 1423.43 148.843 1426.99 Q150.672 1430.54 154.283 1430.54 Q157.917 1430.54 159.723 1426.99 Q161.552 1423.43 161.552 1416.32 Q161.552 1409.19 159.723 1405.65 Q157.917 1402.09 154.283 1402.09 M154.283 1398.38 Q160.093 1398.38 163.149 1402.99 Q166.227 1407.57 166.227 1416.32 Q166.227 1425.05 163.149 1429.66 Q160.093 1434.24 154.283 1434.24 Q148.473 1434.24 145.394 1429.66 Q142.339 1425.05 142.339 1416.32 Q142.339 1407.57 145.394 1402.99 Q148.473 1398.38 154.283 1398.38 Z" fill="#000000" fill-rule="nonzero" fill-opacity="1" /><path clip-path="url(#clip010)" d="M184.445 1402.09 Q180.834 1402.09 179.005 1405.65 Q177.2 1409.19 177.2 1416.32 Q177.2 1423.43 179.005 1426.99 Q180.834 1430.54 184.445 1430.54 Q188.079 1430.54 189.885 1426.99 Q191.713 1423.43 191.713 1416.32 Q191.713 1409.19 189.885 1405.65 Q188.079 1402.09 184.445 1402.09 M184.445 1398.38 Q190.255 1398.38 193.311 1402.99 Q196.389 1407.57 196.389 1416.32 Q196.389 1425.05 193.311 1429.66 Q190.255 1434.24 184.445 1434.24 Q178.635 1434.24 175.556 1429.66 Q172.501 1425.05 172.501 1416.32 Q172.501 1407.57 175.556 1402.99 Q178.635 1398.38 184.445 1398.38 Z" fill="#000000" fill-rule="nonzero" fill-opacity="1" /><path clip-path="url(#clip010)" d="M114.931 1109.13 L122.57 1109.13 L122.57 1082.76 L114.26 1084.43 L114.26 1080.17 L122.524 1078.5 L127.2 1078.5 L127.2 1109.13 L134.839 1109.13 L134.839 1113.06 L114.931 1113.06 L114.931 1109.13 Z" fill="#000000" fill-rule="nonzero" fill-opacity="1" /><path clip-path="url(#clip010)" d="M148.311 1109.13 L164.63 1109.13 L164.63 1113.06 L142.686 1113.06 L142.686 1109.13 Q145.348 1106.37 149.931 1101.74 Q154.538 1097.09 155.718 1095.75 Q157.964 1093.22 158.843 1091.49 Q159.746 1089.73 159.746 1088.04 Q159.746 1085.28 157.802 1083.55 Q155.88 1081.81 152.778 1081.81 Q150.579 1081.81 148.126 1082.58 Q145.695 1083.34 142.917 1084.89 L142.917 1080.17 Q145.741 1079.03 148.195 1078.46 Q150.649 1077.88 152.686 1077.88 Q158.056 1077.88 161.251 1080.56 Q164.445 1083.25 164.445 1087.74 Q164.445 1089.87 163.635 1091.79 Q162.848 1093.69 160.741 1096.28 Q160.163 1096.95 157.061 1100.17 Q153.959 1103.36 148.311 1109.13 Z" fill="#000000" fill-rule="nonzero" fill-opacity="1" /><path clip-path="url(#clip010)" d="M184.445 1081.58 Q180.834 1081.58 179.005 1085.15 Q177.2 1088.69 177.2 1095.82 Q177.2 1102.92 179.005 1106.49 Q180.834 1110.03 184.445 1110.03 Q188.079 1110.03 189.885 1106.49 Q191.713 1102.92 191.713 1095.82 Q191.713 1088.69 189.885 1085.15 Q188.079 1081.58 184.445 1081.58 M184.445 1077.88 Q190.255 1077.88 193.311 1082.48 Q196.389 1087.07 196.389 1095.82 Q196.389 1104.54 193.311 1109.15 Q190.255 1113.73 184.445 1113.73 Q178.635 1113.73 175.556 1109.15 Q172.501 1104.54 172.501 1095.82 Q172.501 1087.07 175.556 1082.48 Q178.635 1077.88 184.445 1077.88 Z" fill="#000000" fill-rule="nonzero" fill-opacity="1" /><path clip-path="url(#clip010)" d="M114.931 788.62 L122.57 788.62 L122.57 762.255 L114.26 763.921 L114.26 759.662 L122.524 757.995 L127.2 757.995 L127.2 788.62 L134.839 788.62 L134.839 792.555 L114.931 792.555 L114.931 788.62 Z" fill="#000000" fill-rule="nonzero" fill-opacity="1" /><path clip-path="url(#clip010)" d="M157.13 762.069 L145.325 780.518 L157.13 780.518 L157.13 762.069 M155.903 757.995 L161.783 757.995 L161.783 780.518 L166.714 780.518 L166.714 784.407 L161.783 784.407 L161.783 792.555 L157.13 792.555 L157.13 784.407 L141.529 784.407 L141.529 779.893 L155.903 757.995 Z" fill="#000000" fill-rule="nonzero" fill-opacity="1" /><path clip-path="url(#clip010)" d="M184.445 761.074 Q180.834 761.074 179.005 764.639 Q177.2 768.18 177.2 775.31 Q177.2 782.416 179.005 785.981 Q180.834 789.523 184.445 789.523 Q188.079 789.523 189.885 785.981 Q191.713 782.416 191.713 775.31 Q191.713 768.18 189.885 764.639 Q188.079 761.074 184.445 761.074 M184.445 757.37 Q190.255 757.37 193.311 761.977 Q196.389 766.56 196.389 775.31 Q196.389 784.037 193.311 788.643 Q190.255 793.227 184.445 793.227 Q178.635 793.227 175.556 788.643 Q172.501 784.037 172.501 775.31 Q172.501 766.56 175.556 761.977 Q178.635 757.37 184.445 757.37 Z" fill="#000000" fill-rule="nonzero" fill-opacity="1" /><path clip-path="url(#clip010)" d="M114.931 468.113 L122.57 468.113 L122.57 441.748 L114.26 443.414 L114.26 439.155 L122.524 437.489 L127.2 437.489 L127.2 468.113 L134.839 468.113 L134.839 472.049 L114.931 472.049 L114.931 468.113 Z" fill="#000000" fill-rule="nonzero" fill-opacity="1" /><path clip-path="url(#clip010)" d="M154.862 452.905 Q151.714 452.905 149.862 455.058 Q148.033 457.211 148.033 460.961 Q148.033 464.687 149.862 466.863 Q151.714 469.016 154.862 469.016 Q158.01 469.016 159.839 466.863 Q161.69 464.687 161.69 460.961 Q161.69 457.211 159.839 455.058 Q158.01 452.905 154.862 452.905 M164.144 438.252 L164.144 442.512 Q162.385 441.678 160.579 441.238 Q158.797 440.799 157.038 440.799 Q152.408 440.799 149.954 443.924 Q147.524 447.049 147.177 453.368 Q148.542 451.354 150.603 450.289 Q152.663 449.201 155.14 449.201 Q160.348 449.201 163.357 452.373 Q166.39 455.521 166.39 460.961 Q166.39 466.285 163.241 469.502 Q160.093 472.72 154.862 472.72 Q148.866 472.72 145.695 468.136 Q142.524 463.53 142.524 454.803 Q142.524 446.609 146.413 441.748 Q150.302 436.864 156.853 436.864 Q158.612 436.864 160.394 437.211 Q162.2 437.558 164.144 438.252 Z" fill="#000000" fill-rule="nonzero" fill-opacity="1" /><path clip-path="url(#clip010)" d="M184.445 440.567 Q180.834 440.567 179.005 444.132 Q177.2 447.674 177.2 454.803 Q177.2 461.91 179.005 465.474 Q180.834 469.016 184.445 469.016 Q188.079 469.016 189.885 465.474 Q191.713 461.91 191.713 454.803 Q191.713 447.674 189.885 444.132 Q188.079 440.567 184.445 440.567 M184.445 436.864 Q190.255 436.864 193.311 441.47 Q196.389 446.053 196.389 454.803 Q196.389 463.53 193.311 468.136 Q190.255 472.72 184.445 472.72 Q178.635 472.72 175.556 468.136 Q172.501 463.53 172.501 454.803 Q172.501 446.053 175.556 441.47 Q178.635 436.864 184.445 436.864 Z" fill="#000000" fill-rule="nonzero" fill-opacity="1" /><path clip-path="url(#clip010)" d="M114.931 147.607 L122.57 147.607 L122.57 121.241 L114.26 122.908 L114.26 118.648 L122.524 116.982 L127.2 116.982 L127.2 147.607 L134.839 147.607 L134.839 151.542 L114.931 151.542 L114.931 147.607 Z" fill="#000000" fill-rule="nonzero" fill-opacity="1" /><path clip-path="url(#clip010)" d="M154.283 135.13 Q150.95 135.13 149.028 136.912 Q147.13 138.695 147.13 141.82 Q147.13 144.945 149.028 146.727 Q150.95 148.509 154.283 148.509 Q157.616 148.509 159.538 146.727 Q161.459 144.921 161.459 141.82 Q161.459 138.695 159.538 136.912 Q157.64 135.13 154.283 135.13 M149.607 133.139 Q146.598 132.398 144.908 130.338 Q143.241 128.278 143.241 125.315 Q143.241 121.171 146.181 118.764 Q149.144 116.357 154.283 116.357 Q159.445 116.357 162.385 118.764 Q165.325 121.171 165.325 125.315 Q165.325 128.278 163.635 130.338 Q161.968 132.398 158.982 133.139 Q162.362 133.926 164.237 136.218 Q166.135 138.509 166.135 141.82 Q166.135 146.843 163.056 149.528 Q160.001 152.213 154.283 152.213 Q148.566 152.213 145.487 149.528 Q142.431 146.843 142.431 141.82 Q142.431 138.509 144.329 136.218 Q146.228 133.926 149.607 133.139 M147.894 125.755 Q147.894 128.44 149.561 129.945 Q151.251 131.449 154.283 131.449 Q157.292 131.449 158.982 129.945 Q160.695 128.44 160.695 125.755 Q160.695 123.07 158.982 121.565 Q157.292 120.06 154.283 120.06 Q151.251 120.06 149.561 121.565 Q147.894 123.07 147.894 125.755 Z" fill="#000000" fill-rule="nonzero" fill-opacity="1" /><path clip-path="url(#clip010)" d="M184.445 120.06 Q180.834 120.06 179.005 123.625 Q177.2 127.167 177.2 134.296 Q177.2 141.403 179.005 144.968 Q180.834 148.509 184.445 148.509 Q188.079 148.509 189.885 144.968 Q191.713 141.403 191.713 134.296 Q191.713 127.167 189.885 123.625 Q188.079 120.06 184.445 120.06 M184.445 116.357 Q190.255 116.357 193.311 120.963 Q196.389 125.546 196.389 134.296 Q196.389 143.023 193.311 147.63 Q190.255 152.213 184.445 152.213 Q178.635 152.213 175.556 147.63 Q172.501 143.023 172.501 134.296 Q172.501 125.546 175.556 120.963 Q178.635 116.357 184.445 116.357 Z" fill="#000000" fill-rule="nonzero" fill-opacity="1" /><path clip-path="url(#clip010)" d="M35.1993 796.561 Q31.2526 794.365 29.3747 791.31 Q27.4968 788.254 27.4968 784.117 Q27.4968 778.547 31.4117 775.523 Q35.2948 772.499 42.4881 772.499 L64.0042 772.499 L64.0042 778.387 L42.679 778.387 Q37.5546 778.387 35.072 780.202 Q32.5894 782.016 32.5894 785.74 Q32.5894 790.291 35.6131 792.933 Q38.6368 795.575 43.8567 795.575 L64.0042 795.575 L64.0042 801.463 L42.679 801.463 Q37.5228 801.463 35.072 803.277 Q32.5894 805.092 32.5894 808.879 Q32.5894 813.367 35.6449 816.009 Q38.6686 818.65 43.8567 818.65 L64.0042 818.65 L64.0042 824.539 L28.3562 824.539 L28.3562 818.65 L33.8944 818.65 Q30.616 816.645 29.0564 813.844 Q27.4968 811.043 27.4968 807.192 Q27.4968 803.309 29.4702 800.604 Q31.4436 797.866 35.1993 796.561 Z" fill="#000000" fill-rule="nonzero" fill-opacity="1" /><path clip-path="url(#clip010)" d="M16.4842 767.152 L16.4842 726.952 L21.895 726.952 L21.895 743.822 L64.0042 743.822 L64.0042 750.283 L21.895 750.283 L21.895 767.152 L16.4842 767.152 Z" fill="#000000" fill-rule="nonzero" fill-opacity="1" /><path clip-path="url(#clip010)" d="M32.4621 718.263 Q32.4621 722.974 36.1542 725.711 Q39.8145 728.448 46.212 728.448 Q52.6095 728.448 56.3017 725.743 Q59.9619 723.006 59.9619 718.263 Q59.9619 713.584 56.2698 710.847 Q52.5777 708.11 46.212 708.11 Q39.8781 708.11 36.186 710.847 Q32.4621 713.584 32.4621 718.263 M27.4968 718.263 Q27.4968 710.624 32.4621 706.264 Q37.4273 701.903 46.212 701.903 Q54.9649 701.903 59.9619 706.264 Q64.9272 710.624 64.9272 718.263 Q64.9272 725.934 59.9619 730.294 Q54.9649 734.623 46.212 734.623 Q37.4273 734.623 32.4621 730.294 Q27.4968 725.934 27.4968 718.263 Z" fill="#000000" fill-rule="nonzero" fill-opacity="1" /><path clip-path="url(#clip010)" d="M33.8307 671.539 Q33.2578 672.526 33.0032 673.703 Q32.7167 674.849 32.7167 676.25 Q32.7167 681.215 35.9632 683.888 Q39.1779 686.53 45.2253 686.53 L64.0042 686.53 L64.0042 692.419 L28.3562 692.419 L28.3562 686.53 L33.8944 686.53 Q30.6479 684.684 29.0883 681.724 Q27.4968 678.764 27.4968 674.531 Q27.4968 673.926 27.5923 673.194 Q27.656 672.462 27.8151 671.571 L33.8307 671.539 Z" fill="#000000" fill-rule="nonzero" fill-opacity="1" /><path clip-path="url(#clip010)" d="M33.8307 645.885 Q33.2578 646.872 33.0032 648.05 Q32.7167 649.195 32.7167 650.596 Q32.7167 655.561 35.9632 658.235 Q39.1779 660.876 45.2253 660.876 L64.0042 660.876 L64.0042 666.765 L28.3562 666.765 L28.3562 660.876 L33.8944 660.876 Q30.6479 659.03 29.0883 656.07 Q27.4968 653.11 27.4968 648.877 Q27.4968 648.272 27.5923 647.54 Q27.656 646.808 27.8151 645.917 L33.8307 645.885 Z" fill="#000000" fill-rule="nonzero" fill-opacity="1" /><polyline clip-path="url(#clip011)" style="stroke:#009af9; stroke-linecap:round; stroke-linejoin:round; stroke-width:4; stroke-opacity:1; fill:none" points="292.4,422.718 294.932,470.794 297.464,486.819 299.996,550.921 302.528,550.921 305.06,550.921 307.592,534.895 310.124,534.895 312.656,518.87 315.188,518.87 317.721,518.87 320.253,518.87 322.785,486.819 325.317,486.819 327.849,518.87 330.381,502.845 332.913,470.794 335.445,454.769 337.977,486.819 340.509,502.845 343.041,486.819 345.573,486.819 348.106,486.819 350.638,502.845 353.17,454.769 355.702,86.1857 358.234,486.819 360.766,438.743 363.298,502.845 365.83,454.769 368.362,454.769 370.894,486.819 373.426,438.743 375.958,502.845 378.491,438.743 381.023,486.819 383.555,470.794 386.087,486.819 388.619,534.895 391.151,454.769 393.683,470.794 396.215,486.819 398.747,486.819 401.279,470.794 403.811,422.718 406.343,470.794 408.876,486.819 411.408,502.845 413.94,486.819 416.472,438.743 419.004,454.769 421.536,486.819 424.068,502.845 426.6,470.794 429.132,454.769 431.664,502.845 434.196,518.87 436.728,502.845 439.261,486.819 441.793,422.718 444.325,454.769 446.857,438.743 449.389,470.794 451.921,470.794 454.453,486.819 456.985,454.769 459.517,454.769 462.049,454.769 464.581,486.819 467.113,438.743 469.646,454.769 472.178,438.743 474.71,454.769 477.242,502.845 479.774,486.819 482.306,518.87 484.838,502.845 487.37,470.794 489.902,502.845 492.434,454.769 494.966,438.743 497.498,454.769 500.031,454.769 502.563,502.845 505.095,454.769 507.627,454.769 510.159,438.743 512.691,438.743 515.223,454.769 517.755,470.794 520.287,438.743 522.819,470.794 525.351,486.819 527.883,486.819 530.416,438.743 532.948,470.794 535.48,470.794 538.012,470.794 540.544,454.769 543.076,438.743 545.608,470.794 548.14,486.819 550.672,502.845 553.204,486.819 555.736,454.769 558.268,422.718 560.801,438.743 563.333,438.743 565.865,518.87 568.397,470.794 570.929,502.845 573.461,470.794 575.993,502.845 578.525,438.743 581.057,470.794 583.589,486.819 586.121,454.769 588.653,454.769 591.186,454.769 593.718,454.769 596.25,470.794 598.782,486.819 601.314,502.845 603.846,518.87 606.378,470.794 608.91,502.845 611.442,470.794 613.974,454.769 616.506,470.794 619.038,470.794 621.571,502.845 624.103,502.845 626.635,470.794 629.167,454.769 631.699,438.743 634.231,486.819 636.763,454.769 639.295,422.718 641.827,454.769 644.359,422.718 646.891,470.794 649.423,438.743 651.956,454.769 654.488,518.87 657.02,454.769 659.552,486.819 662.084,486.819 664.616,438.743 667.148,454.769 669.68,438.743 672.212,438.743 674.744,486.819 677.276,502.845 679.808,454.769 682.341,502.845 684.873,470.794 687.405,486.819 689.937,438.743 692.469,438.743 695.001,438.743 697.533,454.769 700.065,438.743 702.597,438.743 705.129,470.794 707.661,454.769 710.193,470.794 712.726,470.794 715.258,454.769 717.79,422.718 720.322,470.794 722.854,470.794 725.386,486.819 727.918,422.718 730.45,470.794 732.982,470.794 735.514,470.794 738.046,502.845 740.578,470.794 743.111,438.743 745.643,438.743 748.175,438.743 750.707,454.769 753.239,438.743 755.771,470.794 758.303,454.769 760.835,454.769 763.367,454.769 765.899,438.743 768.431,438.743 770.963,438.743 773.496,422.718 776.028,438.743 778.56,422.718 781.092,438.743 783.624,470.794 786.156,470.794 788.688,470.794 791.22,470.794 793.752,486.819 796.284,438.743 798.816,454.769 801.348,470.794 803.881,470.794 806.413,502.845 808.945,470.794 811.477,486.819 814.009,486.819 816.541,470.794 819.073,502.845 821.605,502.845 824.137,486.819 826.669,438.743 829.201,438.743 831.733,454.769 834.266,486.819 836.798,438.743 839.33,454.769 841.862,438.743 844.394,502.845 846.926,502.845 849.458,454.769 851.99,470.794 854.522,502.845 857.054,454.769 859.586,438.743 862.118,486.819 864.651,454.769 867.183,470.794 869.715,438.743 872.247,438.743 874.779,438.743 877.311,454.769 879.843,438.743 882.375,470.794 884.907,470.794 887.439,422.718 889.971,438.743 892.503,518.87 895.036,470.794 897.568,438.743 900.1,454.769 902.632,438.743 905.164,438.743 907.696,470.794 910.228,438.743 912.76,454.769 915.292,454.769 917.824,454.769 920.356,454.769 922.888,486.819 925.421,486.819 927.953,486.819 930.485,470.794 933.017,470.794 935.549,486.819 938.081,486.819 940.613,470.794 943.145,470.794 945.677,486.819 948.209,470.794 950.741,486.819 953.273,486.819 955.806,470.794 958.338,454.769 960.87,470.794 963.402,454.769 965.934,454.769 968.466,454.769 970.998,470.794 973.53,486.819 976.062,454.769 978.594,438.743 981.126,438.743 983.658,438.743 986.191,438.743 988.723,438.743 991.255,486.819 993.787,454.769 996.319,470.794 998.851,470.794 1001.38,470.794 1003.92,470.794 1006.45,470.794 1008.98,454.769 1011.51,438.743 1014.04,438.743 1016.58,454.769 1019.11,518.87 1021.64,470.794 1024.17,470.794 1026.7,454.769 1029.24,470.794 1031.77,470.794 1034.3,454.769 1036.83,470.794 1039.36,454.769 1041.9,486.819 1044.43,486.819 1046.96,486.819 1049.49,470.794 1052.02,438.743 1054.56,486.819 1057.09,502.845 1059.62,486.819 1062.15,518.87 1064.69,486.819 1067.22,470.794 1069.75,486.819 1072.28,470.794 1074.81,486.819 1077.35,486.819 1079.88,486.819 1082.41,470.794 1084.94,502.845 1087.47,470.794 1090.01,438.743 1092.54,454.769 1095.07,502.845 1097.6,486.819 1100.13,454.769 1102.67,454.769 1105.2,438.743 1107.73,470.794 1110.26,470.794 1112.79,470.794 1115.33,502.845 1117.86,486.819 1120.39,454.769 1122.92,438.743 1125.46,438.743 1127.99,454.769 1130.52,502.845 1133.05,438.743 1135.58,438.743 1138.12,454.769 1140.65,470.794 1143.18,470.794 1145.71,486.819 1148.24,470.794 1150.78,470.794 1153.31,438.743 1155.84,438.743 1158.37,454.769 1160.9,486.819 1163.44,454.769 1165.97,486.819 1168.5,438.743 1171.03,422.718 1173.56,438.743 1176.1,438.743 1178.63,438.743 1181.16,470.794 1183.69,502.845 1186.23,486.819 1188.76,454.769 1191.29,454.769 1193.82,438.743 1196.35,454.769 1198.89,470.794 1201.42,470.794 1203.95,486.819 1206.48,454.769 1209.01,438.743 1211.55,470.794 1214.08,438.743 1216.61,422.718 1219.14,438.743 1221.67,438.743 1224.21,422.718 1226.74,422.718 1229.27,438.743 1231.8,438.743 1234.33,454.769 1236.87,438.743 1239.4,454.769 1241.93,438.743 1244.46,454.769 1247,438.743 1249.53,518.87 1252.06,486.819 1254.59,470.794 1257.12,470.794 1259.66,486.819 1262.19,470.794 1264.72,470.794 1267.25,470.794 1269.78,486.819 1272.32,438.743 1274.85,454.769 1277.38,454.769 1279.91,486.819 1282.44,502.845 1284.98,454.769 1287.51,454.769 1290.04,454.769 1292.57,422.718 1295.1,438.743 1297.64,438.743 1300.17,438.743 1302.7,438.743 1305.23,438.743 1307.77,438.743 1310.3,470.794 1312.83,470.794 1315.36,470.794 1317.89,486.819 1320.43,454.769 1322.96,454.769 1325.49,438.743 1328.02,454.769 1330.55,454.769 1333.09,438.743 1335.62,454.769 1338.15,438.743 1340.68,438.743 1343.21,438.743 1345.75,438.743 1348.28,422.718 1350.81,470.794 1353.34,454.769 1355.87,470.794 1358.41,438.743 1360.94,486.819 1363.47,486.819 1366,486.819 1368.54,454.769 1371.07,454.769 1373.6,486.819 1376.13,518.87 1378.66,502.845 1381.2,470.794 1383.73,454.769 1386.26,486.819 1388.79,486.819 1391.32,438.743 1393.86,454.769 1396.39,454.769 1398.92,470.794 1401.45,470.794 1403.98,454.769 1406.52,454.769 1409.05,454.769 1411.58,454.769 1414.11,454.769 1416.64,438.743 1419.18,438.743 1421.71,470.794 1424.24,470.794 1426.77,438.743 1429.31,486.819 1431.84,486.819 1434.37,454.769 1436.9,470.794 1439.43,454.769 1441.97,454.769 1444.5,438.743 1447.03,438.743 1449.56,486.819 1452.09,470.794 1454.63,518.87 1457.16,502.845 1459.69,470.794 1462.22,454.769 1464.75,438.743 1467.29,486.819 1469.82,470.794 1472.35,470.794 1474.88,486.819 1477.41,454.769 1479.95,470.794 1482.48,438.743 1485.01,486.819 1487.54,486.819 1490.08,486.819 1492.61,422.718 1495.14,454.769 1497.67,454.769 1500.2,502.845 1502.74,454.769 1505.27,454.769 1507.8,486.819 1510.33,438.743 1512.86,470.794 1515.4,470.794 1517.93,470.794 1520.46,454.769 1522.99,454.769 1525.52,422.718 1528.06,502.845 1530.59,486.819 1533.12,454.769 1535.65,454.769 1538.18,454.769 1540.72,502.845 1543.25,470.794 1545.78,470.794 1548.31,438.743 1550.85,470.794 1553.38,502.845 1555.91,454.769 1558.44,486.819 1560.97,454.769 1563.51,438.743 1566.04,470.794 1568.57,502.845 1571.1,438.743 1573.63,470.794 1576.17,502.845 1578.7,454.769 1581.23,438.743 1583.76,454.769 1586.29,518.87 1588.83,486.819 1591.36,486.819 1593.89,454.769 1596.42,454.769 1598.95,502.845 1601.49,486.819 1604.02,454.769 1606.55,486.819 1609.08,502.845 1611.62,470.794 1614.15,518.87 1616.68,438.743 1619.21,470.794 1621.74,486.819 1624.28,454.769 1626.81,486.819 1629.34,486.819 1631.87,518.87 1634.4,486.819 1636.94,454.769 1639.47,486.819 1642,454.769 1644.53,518.87 1647.06,454.769 1649.6,502.845 1652.13,502.845 1654.66,470.794 1657.19,470.794 1659.72,454.769 1662.26,454.769 1664.79,502.845 1667.32,454.769 1669.85,486.819 1672.39,454.769 1674.92,470.794 1677.45,502.845 1679.98,454.769 1682.51,502.845 1685.05,486.819 1687.58,454.769 1690.11,502.845 1692.64,486.819 1695.17,454.769 1697.71,454.769 1700.24,486.819 1702.77,470.794 1705.3,502.845 1707.83,486.819 1710.37,486.819 1712.9,454.769 1715.43,486.819 1717.96,486.819 1720.49,470.794 1723.03,518.87 1725.56,486.819 1728.09,454.769 1730.62,486.819 1733.16,470.794 1735.69,502.845 1738.22,454.769 1740.75,454.769 1743.28,486.819 1745.82,534.895 1748.35,470.794 1750.88,486.819 1753.41,486.819 1755.94,470.794 1758.48,486.819 1761.01,502.845 1763.54,470.794 1766.07,518.87 1768.6,470.794 1771.14,518.87 1773.67,518.87 1776.2,486.819 1778.73,486.819 1781.26,534.895 1783.8,470.794 1786.33,486.819 1788.86,470.794 1791.39,518.87 1793.93,550.921 1796.46,486.819 1798.99,486.819 1801.52,502.845 1804.05,486.819 1806.59,502.845 1809.12,502.845 1811.65,486.819 1814.18,486.819 1816.71,486.819 1819.25,518.87 1821.78,486.819 1824.31,502.845 1826.84,518.87 1829.37,502.845 1831.91,502.845 1834.44,534.895 1836.97,518.87 1839.5,518.87 1842.03,518.87 1844.57,502.845 1847.1,550.921 1849.63,518.87 1852.16,518.87 1854.7,518.87 1857.23,550.921 1859.76,518.87 1862.29,550.921 1864.82,550.921 1867.36,518.87 1869.89,566.946 1872.42,566.946 1874.95,550.921 1877.48,550.921 1880.02,550.921 1882.55,550.921 1885.08,534.895 1887.61,566.946 1890.14,582.971 1892.68,550.921 1895.21,550.921 1897.74,566.946 1900.27,582.971 1902.8,582.971 1905.34,582.971 1907.87,582.971 1910.4,598.997 1912.93,582.971 1915.47,598.997 1918,598.997 1920.53,598.997 1923.06,615.022 1925.59,615.022 1928.13,631.047 1930.66,631.047 1933.19,631.047 1935.72,631.047 1938.25,647.073 1940.79,647.073 1943.32,647.073 1945.85,663.098 1948.38,679.123 1950.91,679.123 1953.45,679.123 1955.98,695.149 1958.51,711.174 1961.04,711.174 1963.57,711.174 1966.11,727.199 1968.64,743.225 1971.17,743.225 1973.7,743.225 1976.24,759.25 1978.77,775.275 1981.3,775.275 1983.83,791.301 1986.36,791.301 1988.9,791.301 1991.43,807.326 1993.96,807.326 1996.49,839.377 1999.02,839.377 2001.56,855.402 2004.09,871.427 2006.62,871.427 2009.15,903.478 2011.68,903.478 2014.22,903.478 2016.75,919.503 2019.28,919.503 2021.81,951.554 2024.34,951.554 2026.88,967.579 2029.41,967.579 2031.94,983.605 2034.47,999.63 2037.01,999.63 2039.54,1015.66 2042.07,1031.68 2044.6,1031.68 2047.13,1047.71 2049.67,1047.71 2052.2,1063.73 2054.73,1079.76 2057.26,1095.78 2059.79,1095.78 2062.33,1095.78 2064.86,1111.81 2067.39,1111.81 2069.92,1127.83 2072.45,1127.83 2074.99,1159.88 2077.52,1159.88 2080.05,1159.88 2082.58,1175.91 2085.11,1175.91 2087.65,1191.93 2090.18,1207.96 2092.71,1207.96 2095.24,1207.96 2097.78,1207.96 2100.31,1223.98 2102.84,1223.98 2105.37,1223.98 2107.9,1223.98 2110.44,1223.98 2112.97,1223.98 2115.5,1240.01 2118.03,1256.04 2120.56,1256.04 2123.1,1256.04 2125.63,1256.04 2128.16,1272.06 2130.69,1288.09 2133.22,1288.09 2135.76,1288.09 2138.29,1288.09 2140.82,1288.09 2143.35,1304.11 2145.88,1320.14 2148.42,1304.11 2150.95,1320.14 2153.48,1320.14 2156.01,1320.14 2158.55,1320.14 2161.08,1336.16 2163.61,1336.16 2166.14,1336.16 2168.67,1336.16 2171.21,1336.16 2173.74,1336.16 2176.27,1352.19 2178.8,1352.19 2181.33,1336.16 2183.87,1352.19 2186.4,1336.16 2188.93,1336.16 2191.46,1352.19 2193.99,1336.16 2196.53,1352.19 2199.06,1352.19 2201.59,1352.19 2204.12,1352.19 2206.65,1352.19 2209.19,1352.19 2211.72,1368.21 2214.25,1352.19 2216.78,1368.21 2219.32,1368.21 2221.85,1368.21 2224.38,1368.21 2226.91,1352.19 2229.44,1352.19 2231.98,1352.19 2234.51,1368.21 2237.04,1368.21 2239.57,1352.19 2242.1,1368.21 2244.64,1352.19 2247.17,1368.21 2249.7,1368.21 2252.23,1368.21 2254.76,1368.21 2257.3,1368.21 2259.83,1368.21 2262.36,1384.24 2264.89,1368.21 2267.42,1368.21 2269.96,1368.21 2272.49,1368.21 2275.02,1368.21 2277.55,1384.24 2280.09,1368.21 2282.62,1368.21 2285.15,1368.21 2287.68,1368.21 2290.21,1368.21 2292.75,1368.21 "/>
<polyline clip-path="url(#clip011)" style="stroke:#808080; stroke-linecap:round; stroke-linejoin:round; stroke-width:12; stroke-opacity:1; fill:none" stroke-dasharray="48, 30" points="2097.78,2799.12 2097.78,-1328.69 "/>
<path clip-path="url(#clip010)" d="M303.068 1377.32 L567.535 1377.32 L567.535 1273.64 L303.068 1273.64  Z" fill="#ffffff" fill-rule="evenodd" fill-opacity="1"/>
<polyline clip-path="url(#clip010)" style="stroke:#000000; stroke-linecap:round; stroke-linejoin:round; stroke-width:4; stroke-opacity:1; fill:none" points="303.068,1377.32 567.535,1377.32 567.535,1273.64 303.068,1273.64 303.068,1377.32 "/>
<polyline clip-path="url(#clip010)" style="stroke:#009af9; stroke-linecap:round; stroke-linejoin:round; stroke-width:4; stroke-opacity:1; fill:none" points="326.628,1325.48 467.986,1325.48 "/>
<path clip-path="url(#clip010)" d="M505.388 1345.16 Q503.582 1349.79 501.869 1351.2 Q500.156 1352.62 497.286 1352.62 L493.883 1352.62 L493.883 1349.05 L496.383 1349.05 Q498.142 1349.05 499.115 1348.22 Q500.087 1347.38 501.267 1344.28 L502.031 1342.34 L491.545 1316.83 L496.059 1316.83 L504.161 1337.11 L512.263 1316.83 L516.777 1316.83 L505.388 1345.16 Z" fill="#000000" fill-rule="nonzero" fill-opacity="1" /><path clip-path="url(#clip010)" d="M524.068 1338.82 L531.707 1338.82 L531.707 1312.45 L523.397 1314.12 L523.397 1309.86 L531.661 1308.2 L536.337 1308.2 L536.337 1338.82 L543.976 1338.82 L543.976 1342.76 L524.068 1342.76 L524.068 1338.82 Z" fill="#000000" fill-rule="nonzero" fill-opacity="1" /></svg>
