<?xml version="1.0" encoding="utf-8"?>
<svg xmlns="http://www.w3.org/2000/svg" xmlns:xlink="http://www.w3.org/1999/xlink" width="600" height="400" viewBox="0 0 2400 1600">
<defs>
  <clipPath id="clip040">
    <rect x="0" y="0" width="2400" height="1600"/>
  </clipPath>
</defs>
<path clip-path="url(#clip040)" d="M0 1600 L2400 1600 L2400 0 L0 0  Z" fill="#ffffff" fill-rule="evenodd" fill-opacity="1"/>
<defs>
  <clipPath id="clip041">
    <rect x="262" y="47" width="2091" height="1377"/>
  </clipPath>
</defs>
<path clip-path="url(#clip040)" d="M262.551 1423.18 L2352.76 1423.18 L2352.76 47.2441 L262.551 47.2441  Z" fill="#ffffff" fill-rule="evenodd" fill-opacity="1"/>
<polyline clip-path="url(#clip041)" style="stroke:#000000; stroke-linecap:round; stroke-linejoin:round; stroke-width:2; stroke-opacity:0.1; fill:none" points="321.708,1423.18 321.708,47.2441 "/>
<polyline clip-path="url(#clip041)" style="stroke:#000000; stroke-linecap:round; stroke-linejoin:round; stroke-width:2; stroke-opacity:0.1; fill:none" points="982.271,1423.18 982.271,47.2441 "/>
<polyline clip-path="url(#clip041)" style="stroke:#000000; stroke-linecap:round; stroke-linejoin:round; stroke-width:2; stroke-opacity:0.1; fill:none" points="1642.83,1423.18 1642.83,47.2441 "/>
<polyline clip-path="url(#clip041)" style="stroke:#000000; stroke-linecap:round; stroke-linejoin:round; stroke-width:2; stroke-opacity:0.1; fill:none" points="2303.4,1423.18 2303.4,47.2441 "/>
<polyline clip-path="url(#clip041)" style="stroke:#000000; stroke-linecap:round; stroke-linejoin:round; stroke-width:2; stroke-opacity:0.1; fill:none" points="262.551,1335.35 2352.76,1335.35 "/>
<polyline clip-path="url(#clip041)" style="stroke:#000000; stroke-linecap:round; stroke-linejoin:round; stroke-width:2; stroke-opacity:0.1; fill:none" points="262.551,1022.74 2352.76,1022.74 "/>
<polyline clip-path="url(#clip041)" style="stroke:#000000; stroke-linecap:round; stroke-linejoin:round; stroke-width:2; stroke-opacity:0.1; fill:none" points="262.551,710.141 2352.76,710.141 "/>
<polyline clip-path="url(#clip041)" style="stroke:#000000; stroke-linecap:round; stroke-linejoin:round; stroke-width:2; stroke-opacity:0.1; fill:none" points="262.551,397.538 2352.76,397.538 "/>
<polyline clip-path="url(#clip041)" style="stroke:#000000; stroke-linecap:round; stroke-linejoin:round; stroke-width:2; stroke-opacity:0.1; fill:none" points="262.551,84.9353 2352.76,84.9353 "/>
<polyline clip-path="url(#clip040)" style="stroke:#000000; stroke-linecap:round; stroke-linejoin:round; stroke-width:4; stroke-opacity:1; fill:none" points="262.551,1423.18 2352.76,1423.18 "/>
<polyline clip-path="url(#clip040)" style="stroke:#000000; stroke-linecap:round; stroke-linejoin:round; stroke-width:4; stroke-opacity:1; fill:none" points="321.708,1423.18 321.708,1404.28 "/>
<polyline clip-path="url(#clip040)" style="stroke:#000000; stroke-linecap:round; stroke-linejoin:round; stroke-width:4; stroke-opacity:1; fill:none" points="982.271,1423.18 982.271,1404.28 "/>
<polyline clip-path="url(#clip040)" style="stroke:#000000; stroke-linecap:round; stroke-linejoin:round; stroke-width:4; stroke-opacity:1; fill:none" points="1642.83,1423.18 1642.83,1404.28 "/>
<polyline clip-path="url(#clip040)" style="stroke:#000000; stroke-linecap:round; stroke-linejoin:round; stroke-width:4; stroke-opacity:1; fill:none" points="2303.4,1423.18 2303.4,1404.28 "/>
<path clip-path="url(#clip040)" d="M321.708 1454.1 Q318.097 1454.1 316.268 1457.66 Q314.463 1461.2 314.463 1468.33 Q314.463 1475.44 316.268 1479.01 Q318.097 1482.55 321.708 1482.55 Q325.342 1482.55 327.148 1479.01 Q328.976 1475.44 328.976 1468.33 Q328.976 1461.2 327.148 1457.66 Q325.342 1454.1 321.708 1454.1 M321.708 1450.39 Q327.518 1450.39 330.574 1455 Q333.652 1459.58 333.652 1468.33 Q333.652 1477.06 330.574 1481.67 Q327.518 1486.25 321.708 1486.25 Q315.898 1486.25 312.819 1481.67 Q309.764 1477.06 309.764 1468.33 Q309.764 1459.58 312.819 1455 Q315.898 1450.39 321.708 1450.39 Z" fill="#000000" fill-rule="nonzero" fill-opacity="1" /><path clip-path="url(#clip040)" d="M972.549 1451.02 L990.906 1451.02 L990.906 1454.96 L976.832 1454.96 L976.832 1463.43 Q977.85 1463.08 978.869 1462.92 Q979.887 1462.73 980.906 1462.73 Q986.693 1462.73 990.072 1465.9 Q993.452 1469.08 993.452 1474.49 Q993.452 1480.07 989.98 1483.17 Q986.508 1486.25 980.188 1486.25 Q978.012 1486.25 975.744 1485.88 Q973.498 1485.51 971.091 1484.77 L971.091 1480.07 Q973.174 1481.2 975.396 1481.76 Q977.619 1482.32 980.096 1482.32 Q984.1 1482.32 986.438 1480.21 Q988.776 1478.1 988.776 1474.49 Q988.776 1470.88 986.438 1468.77 Q984.1 1466.67 980.096 1466.67 Q978.221 1466.67 976.346 1467.08 Q974.494 1467.5 972.549 1468.38 L972.549 1451.02 Z" fill="#000000" fill-rule="nonzero" fill-opacity="1" /><path clip-path="url(#clip040)" d="M1617.52 1481.64 L1625.16 1481.64 L1625.16 1455.28 L1616.85 1456.95 L1616.85 1452.69 L1625.12 1451.02 L1629.79 1451.02 L1629.79 1481.64 L1637.43 1481.64 L1637.43 1485.58 L1617.52 1485.58 L1617.52 1481.64 Z" fill="#000000" fill-rule="nonzero" fill-opacity="1" /><path clip-path="url(#clip040)" d="M1656.87 1454.1 Q1653.26 1454.1 1651.43 1457.66 Q1649.63 1461.2 1649.63 1468.33 Q1649.63 1475.44 1651.43 1479.01 Q1653.26 1482.55 1656.87 1482.55 Q1660.51 1482.55 1662.31 1479.01 Q1664.14 1475.44 1664.14 1468.33 Q1664.14 1461.2 1662.31 1457.66 Q1660.51 1454.1 1656.87 1454.1 M1656.87 1450.39 Q1662.68 1450.39 1665.74 1455 Q1668.82 1459.58 1668.82 1468.33 Q1668.82 1477.06 1665.74 1481.67 Q1662.68 1486.25 1656.87 1486.25 Q1651.06 1486.25 1647.99 1481.67 Q1644.93 1477.06 1644.93 1468.33 Q1644.93 1459.58 1647.99 1455 Q1651.06 1450.39 1656.87 1450.39 Z" fill="#000000" fill-rule="nonzero" fill-opacity="1" /><path clip-path="url(#clip040)" d="M2278.58 1481.64 L2286.22 1481.64 L2286.22 1455.28 L2277.91 1456.95 L2277.91 1452.69 L2286.18 1451.02 L2290.85 1451.02 L2290.85 1481.64 L2298.49 1481.64 L2298.49 1485.58 L2278.58 1485.58 L2278.58 1481.64 Z" fill="#000000" fill-rule="nonzero" fill-opacity="1" /><path clip-path="url(#clip040)" d="M2307.98 1451.02 L2326.34 1451.02 L2326.34 1454.96 L2312.26 1454.96 L2312.26 1463.43 Q2313.28 1463.08 2314.3 1462.92 Q2315.32 1462.73 2316.34 1462.73 Q2322.13 1462.73 2325.5 1465.9 Q2328.88 1469.08 2328.88 1474.49 Q2328.88 1480.07 2325.41 1483.17 Q2321.94 1486.25 2315.62 1486.25 Q2313.44 1486.25 2311.18 1485.88 Q2308.93 1485.51 2306.52 1484.77 L2306.52 1480.07 Q2308.61 1481.2 2310.83 1481.76 Q2313.05 1482.32 2315.53 1482.32 Q2319.53 1482.32 2321.87 1480.21 Q2324.21 1478.1 2324.21 1474.49 Q2324.21 1470.88 2321.87 1468.77 Q2319.53 1466.67 2315.53 1466.67 Q2313.65 1466.67 2311.78 1467.08 Q2309.93 1467.5 2307.98 1468.38 L2307.98 1451.02 Z" fill="#000000" fill-rule="nonzero" fill-opacity="1" /><path clip-path="url(#clip040)" d="M1306.41 1546.53 L1306.41 1568.04 L1300.56 1568.04 L1300.56 1546.72 Q1300.56 1541.66 1298.58 1539.14 Q1296.61 1536.63 1292.66 1536.63 Q1287.92 1536.63 1285.18 1539.65 Q1282.45 1542.68 1282.45 1547.9 L1282.45 1568.04 L1276.56 1568.04 L1276.56 1518.52 L1282.45 1518.52 L1282.45 1537.93 Q1284.55 1534.72 1287.38 1533.13 Q1290.24 1531.54 1293.97 1531.54 Q1300.11 1531.54 1303.26 1535.36 Q1306.41 1539.14 1306.41 1546.53 Z" fill="#000000" fill-rule="nonzero" fill-opacity="1" /><path clip-path="url(#clip040)" d="M1338.75 1537.87 Q1337.76 1537.3 1336.59 1537.04 Q1335.44 1536.76 1334.04 1536.76 Q1329.07 1536.76 1326.4 1540 Q1323.76 1543.22 1323.76 1549.27 L1323.76 1568.04 L1317.87 1568.04 L1317.87 1532.4 L1323.76 1532.4 L1323.76 1537.93 Q1325.6 1534.69 1328.56 1533.13 Q1331.52 1531.54 1335.76 1531.54 Q1336.36 1531.54 1337.09 1531.63 Q1337.83 1531.7 1338.72 1531.85 L1338.75 1537.87 Z" fill="#000000" fill-rule="nonzero" fill-opacity="1" /><polyline clip-path="url(#clip040)" style="stroke:#000000; stroke-linecap:round; stroke-linejoin:round; stroke-width:4; stroke-opacity:1; fill:none" points="262.551,1423.18 262.551,47.2441 "/>
<polyline clip-path="url(#clip040)" style="stroke:#000000; stroke-linecap:round; stroke-linejoin:round; stroke-width:4; stroke-opacity:1; fill:none" points="262.551,1335.35 281.449,1335.35 "/>
<polyline clip-path="url(#clip040)" style="stroke:#000000; stroke-linecap:round; stroke-linejoin:round; stroke-width:4; stroke-opacity:1; fill:none" points="262.551,1022.74 281.449,1022.74 "/>
<polyline clip-path="url(#clip040)" style="stroke:#000000; stroke-linecap:round; stroke-linejoin:round; stroke-width:4; stroke-opacity:1; fill:none" points="262.551,710.141 281.449,710.141 "/>
<polyline clip-path="url(#clip040)" style="stroke:#000000; stroke-linecap:round; stroke-linejoin:round; stroke-width:4; stroke-opacity:1; fill:none" points="262.551,397.538 281.449,397.538 "/>
<polyline clip-path="url(#clip040)" style="stroke:#000000; stroke-linecap:round; stroke-linejoin:round; stroke-width:4; stroke-opacity:1; fill:none" points="262.551,84.9353 281.449,84.9353 "/>
<path clip-path="url(#clip040)" d="M214.607 1321.15 Q210.996 1321.15 209.167 1324.71 Q207.362 1328.25 207.362 1335.38 Q207.362 1342.49 209.167 1346.05 Q210.996 1349.59 214.607 1349.59 Q218.241 1349.59 220.047 1346.05 Q221.875 1342.49 221.875 1335.38 Q221.875 1328.25 220.047 1324.71 Q218.241 1321.15 214.607 1321.15 M214.607 1317.44 Q220.417 1317.44 223.473 1322.05 Q226.551 1326.63 226.551 1335.38 Q226.551 1344.11 223.473 1348.72 Q220.417 1353.3 214.607 1353.3 Q208.797 1353.3 205.718 1348.72 Q202.662 1344.11 202.662 1335.38 Q202.662 1326.63 205.718 1322.05 Q208.797 1317.44 214.607 1317.44 Z" fill="#000000" fill-rule="nonzero" fill-opacity="1" /><path clip-path="url(#clip040)" d="M148.311 1036.09 L164.63 1036.09 L164.63 1040.02 L142.686 1040.02 L142.686 1036.09 Q145.348 1033.33 149.931 1028.7 Q154.538 1024.05 155.718 1022.71 Q157.964 1020.19 158.843 1018.45 Q159.746 1016.69 159.746 1015 Q159.746 1012.25 157.802 1010.51 Q155.88 1008.77 152.778 1008.77 Q150.579 1008.77 148.126 1009.54 Q145.695 1010.3 142.917 1011.85 L142.917 1007.13 Q145.741 1006 148.195 1005.42 Q150.649 1004.84 152.686 1004.84 Q158.056 1004.84 161.251 1007.52 Q164.445 1010.21 164.445 1014.7 Q164.445 1016.83 163.635 1018.75 Q162.848 1020.65 160.741 1023.24 Q160.163 1023.91 157.061 1027.13 Q153.959 1030.33 148.311 1036.09 Z" fill="#000000" fill-rule="nonzero" fill-opacity="1" /><path clip-path="url(#clip040)" d="M174.491 1005.46 L192.848 1005.46 L192.848 1009.4 L178.774 1009.4 L178.774 1017.87 Q179.792 1017.52 180.811 1017.36 Q181.829 1017.18 182.848 1017.18 Q188.635 1017.18 192.014 1020.35 Q195.394 1023.52 195.394 1028.94 Q195.394 1034.51 191.922 1037.62 Q188.45 1040.7 182.13 1040.7 Q179.954 1040.7 177.686 1040.33 Q175.44 1039.95 173.033 1039.21 L173.033 1034.51 Q175.116 1035.65 177.339 1036.2 Q179.561 1036.76 182.038 1036.76 Q186.042 1036.76 188.38 1034.65 Q190.718 1032.55 190.718 1028.94 Q190.718 1025.33 188.38 1023.22 Q186.042 1021.11 182.038 1021.11 Q180.163 1021.11 178.288 1021.53 Q176.436 1021.95 174.491 1022.83 L174.491 1005.46 Z" fill="#000000" fill-rule="nonzero" fill-opacity="1" /><path clip-path="url(#clip040)" d="M214.607 1008.54 Q210.996 1008.54 209.167 1012.11 Q207.362 1015.65 207.362 1022.78 Q207.362 1029.89 209.167 1033.45 Q210.996 1036.99 214.607 1036.99 Q218.241 1036.99 220.047 1033.45 Q221.875 1029.89 221.875 1022.78 Q221.875 1015.65 220.047 1012.11 Q218.241 1008.54 214.607 1008.54 M214.607 1004.84 Q220.417 1004.84 223.473 1009.45 Q226.551 1014.03 226.551 1022.78 Q226.551 1031.51 223.473 1036.11 Q220.417 1040.7 214.607 1040.7 Q208.797 1040.7 205.718 1036.11 Q202.662 1031.51 202.662 1022.78 Q202.662 1014.03 205.718 1009.45 Q208.797 1004.84 214.607 1004.84 Z" fill="#000000" fill-rule="nonzero" fill-opacity="1" /><path clip-path="url(#clip040)" d="M144.329 692.861 L162.686 692.861 L162.686 696.796 L148.612 696.796 L148.612 705.269 Q149.63 704.921 150.649 704.759 Q151.667 704.574 152.686 704.574 Q158.473 704.574 161.852 707.745 Q165.232 710.917 165.232 716.333 Q165.232 721.912 161.76 725.014 Q158.288 728.093 151.968 728.093 Q149.792 728.093 147.524 727.722 Q145.279 727.352 142.871 726.611 L142.871 721.912 Q144.954 723.046 147.177 723.602 Q149.399 724.157 151.876 724.157 Q155.88 724.157 158.218 722.051 Q160.556 719.944 160.556 716.333 Q160.556 712.722 158.218 710.616 Q155.88 708.509 151.876 708.509 Q150.001 708.509 148.126 708.926 Q146.274 709.343 144.329 710.222 L144.329 692.861 Z" fill="#000000" fill-rule="nonzero" fill-opacity="1" /><path clip-path="url(#clip040)" d="M184.445 695.94 Q180.834 695.94 179.005 699.505 Q177.2 703.046 177.2 710.176 Q177.2 717.282 179.005 720.847 Q180.834 724.389 184.445 724.389 Q188.079 724.389 189.885 720.847 Q191.713 717.282 191.713 710.176 Q191.713 703.046 189.885 699.505 Q188.079 695.94 184.445 695.94 M184.445 692.236 Q190.255 692.236 193.311 696.843 Q196.389 701.426 196.389 710.176 Q196.389 718.903 193.311 723.509 Q190.255 728.093 184.445 728.093 Q178.635 728.093 175.556 723.509 Q172.501 718.903 172.501 710.176 Q172.501 701.426 175.556 696.843 Q178.635 692.236 184.445 692.236 Z" fill="#000000" fill-rule="nonzero" fill-opacity="1" /><path clip-path="url(#clip040)" d="M214.607 695.94 Q210.996 695.94 209.167 699.505 Q207.362 703.046 207.362 710.176 Q207.362 717.282 209.167 720.847 Q210.996 724.389 214.607 724.389 Q218.241 724.389 220.047 720.847 Q221.875 717.282 221.875 710.176 Q221.875 703.046 220.047 699.505 Q218.241 695.94 214.607 695.94 M214.607 692.236 Q220.417 692.236 223.473 696.843 Q226.551 701.426 226.551 710.176 Q226.551 718.903 223.473 723.509 Q220.417 728.093 214.607 728.093 Q208.797 728.093 205.718 723.509 Q202.662 718.903 202.662 710.176 Q202.662 701.426 205.718 696.843 Q208.797 692.236 214.607 692.236 Z" fill="#000000" fill-rule="nonzero" fill-opacity="1" /><path clip-path="url(#clip040)" d="M143.103 380.258 L165.325 380.258 L165.325 382.249 L152.778 414.818 L147.894 414.818 L159.7 384.193 L143.103 384.193 L143.103 380.258 Z" fill="#000000" fill-rule="nonzero" fill-opacity="1" /><path clip-path="url(#clip040)" d="M174.491 380.258 L192.848 380.258 L192.848 384.193 L178.774 384.193 L178.774 392.666 Q179.792 392.318 180.811 392.156 Q181.829 391.971 182.848 391.971 Q188.635 391.971 192.014 395.142 Q195.394 398.314 195.394 403.73 Q195.394 409.309 191.922 412.411 Q188.45 415.49 182.13 415.49 Q179.954 415.49 177.686 415.119 Q175.44 414.749 173.033 414.008 L173.033 409.309 Q175.116 410.443 177.339 410.999 Q179.561 411.554 182.038 411.554 Q186.042 411.554 188.38 409.448 Q190.718 407.341 190.718 403.73 Q190.718 400.119 188.38 398.013 Q186.042 395.906 182.038 395.906 Q180.163 395.906 178.288 396.323 Q176.436 396.74 174.491 397.619 L174.491 380.258 Z" fill="#000000" fill-rule="nonzero" fill-opacity="1" /><path clip-path="url(#clip040)" d="M214.607 383.337 Q210.996 383.337 209.167 386.902 Q207.362 390.443 207.362 397.573 Q207.362 404.679 209.167 408.244 Q210.996 411.786 214.607 411.786 Q218.241 411.786 220.047 408.244 Q221.875 404.679 221.875 397.573 Q221.875 390.443 220.047 386.902 Q218.241 383.337 214.607 383.337 M214.607 379.633 Q220.417 379.633 223.473 384.24 Q226.551 388.823 226.551 397.573 Q226.551 406.3 223.473 410.906 Q220.417 415.49 214.607 415.49 Q208.797 415.49 205.718 410.906 Q202.662 406.3 202.662 397.573 Q202.662 388.823 205.718 384.24 Q208.797 379.633 214.607 379.633 Z" fill="#000000" fill-rule="nonzero" fill-opacity="1" /><path clip-path="url(#clip040)" d="M114.931 98.2801 L122.57 98.2801 L122.57 71.9145 L114.26 73.5812 L114.26 69.3219 L122.524 67.6553 L127.2 67.6553 L127.2 98.2801 L134.839 98.2801 L134.839 102.215 L114.931 102.215 L114.931 98.2801 Z" fill="#000000" fill-rule="nonzero" fill-opacity="1" /><path clip-path="url(#clip040)" d="M154.283 70.7339 Q150.672 70.7339 148.843 74.2987 Q147.038 77.8404 147.038 84.97 Q147.038 92.0764 148.843 95.6412 Q150.672 99.1829 154.283 99.1829 Q157.917 99.1829 159.723 95.6412 Q161.552 92.0764 161.552 84.97 Q161.552 77.8404 159.723 74.2987 Q157.917 70.7339 154.283 70.7339 M154.283 67.0303 Q160.093 67.0303 163.149 71.6367 Q166.227 76.22 166.227 84.97 Q166.227 93.6968 163.149 98.3032 Q160.093 102.887 154.283 102.887 Q148.473 102.887 145.394 98.3032 Q142.339 93.6968 142.339 84.97 Q142.339 76.22 145.394 71.6367 Q148.473 67.0303 154.283 67.0303 Z" fill="#000000" fill-rule="nonzero" fill-opacity="1" /><path clip-path="url(#clip040)" d="M184.445 70.7339 Q180.834 70.7339 179.005 74.2987 Q177.2 77.8404 177.2 84.97 Q177.2 92.0764 179.005 95.6412 Q180.834 99.1829 184.445 99.1829 Q188.079 99.1829 189.885 95.6412 Q191.713 92.0764 191.713 84.97 Q191.713 77.8404 189.885 74.2987 Q188.079 70.7339 184.445 70.7339 M184.445 67.0303 Q190.255 67.0303 193.311 71.6367 Q196.389 76.22 196.389 84.97 Q196.389 93.6968 193.311 98.3032 Q190.255 102.887 184.445 102.887 Q178.635 102.887 175.556 98.3032 Q172.501 93.6968 172.501 84.97 Q172.501 76.22 175.556 71.6367 Q178.635 67.0303 184.445 67.0303 Z" fill="#000000" fill-rule="nonzero" fill-opacity="1" /><path clip-path="url(#clip040)" d="M214.607 70.7339 Q210.996 70.7339 209.167 74.2987 Q207.362 77.8404 207.362 84.97 Q207.362 92.0764 209.167 95.6412 Q210.996 99.1829 214.607 99.1829 Q218.241 99.1829 220.047 95.6412 Q221.875 92.0764 221.875 84.97 Q221.875 77.8404 220.047 74.2987 Q218.241 70.7339 214.607 70.7339 M214.607 67.0303 Q220.417 67.0303 223.473 71.6367 Q226.551 76.22 226.551 84.97 Q226.551 93.6968 223.473 98.3032 Q220.417 102.887 214.607 102.887 Q208.797 102.887 205.718 98.3032 Q202.662 93.6968 202.662 84.97 Q202.662 76.22 205.718 71.6367 Q208.797 67.0303 214.607 67.0303 Z" fill="#000000" fill-rule="nonzero" fill-opacity="1" /><path clip-path="url(#clip040)" d="M19.7307 759.306 Q19.7307 761.852 21.5131 763.603 Q23.2636 765.354 25.8099 765.354 Q28.3244 765.354 30.0749 763.603 Q31.7937 761.852 31.7937 759.306 Q31.7937 756.76 30.0749 755.009 Q28.3244 753.259 25.8099 753.259 Q23.2955 753.259 21.5131 755.041 Q19.7307 756.792 19.7307 759.306 M15.6248 759.306 Q15.6248 757.269 16.4205 755.391 Q17.1844 753.513 18.6485 752.145 Q20.0808 750.681 21.895 749.949 Q23.7092 749.217 25.8099 749.217 Q30.0113 749.217 32.9395 752.177 Q35.8359 755.105 35.8359 759.37 Q35.8359 763.667 32.9713 766.531 Q30.1068 769.396 25.8099 769.396 Q21.5449 769.396 18.5848 766.468 Q15.6248 763.539 15.6248 759.306 Z" fill="#000000" fill-rule="nonzero" fill-opacity="1" /><path clip-path="url(#clip040)" d="M20.1444 701.028 L26.9239 701.028 Q23.9002 704.275 22.4043 707.967 Q20.9083 711.627 20.9083 715.765 Q20.9083 723.913 25.9054 728.242 Q30.8707 732.57 40.2919 732.57 Q49.6813 732.57 54.6784 728.242 Q59.6436 723.913 59.6436 715.765 Q59.6436 711.627 58.1477 707.967 Q56.6518 704.275 53.6281 701.028 L60.3439 701.028 Q62.6355 704.402 63.7814 708.19 Q64.9272 711.945 64.9272 716.147 Q64.9272 726.937 58.3387 733.143 Q51.7183 739.35 40.2919 739.35 Q28.8336 739.35 22.2451 733.143 Q15.6248 726.937 15.6248 716.147 Q15.6248 711.882 16.7706 708.126 Q17.8846 704.338 20.1444 701.028 Z" fill="#000000" fill-rule="nonzero" fill-opacity="1" /><circle clip-path="url(#clip041)" cx="321.708" cy="1383.99" r="14.4" fill="#07519c" fill-rule="evenodd" fill-opacity="1" stroke="#000000" stroke-opacity="1" stroke-width="3.2"/>
<circle clip-path="url(#clip041)" cx="371.001" cy="1378.86" r="14.4" fill="#07519c" fill-rule="evenodd" fill-opacity="1" stroke="#000000" stroke-opacity="1" stroke-width="3.2"/>
<circle clip-path="url(#clip041)" cx="420.299" cy="1368.61" r="14.4" fill="#07519c" fill-rule="evenodd" fill-opacity="1" stroke="#000000" stroke-opacity="1" stroke-width="3.2"/>
<circle clip-path="url(#clip041)" cx="469.613" cy="1363.36" r="14.4" fill="#07519c" fill-rule="evenodd" fill-opacity="1" stroke="#000000" stroke-opacity="1" stroke-width="3.2"/>
<circle clip-path="url(#clip041)" cx="518.907" cy="1357.35" r="14.4" fill="#07519c" fill-rule="evenodd" fill-opacity="1" stroke="#000000" stroke-opacity="1" stroke-width="3.2"/>
<circle clip-path="url(#clip041)" cx="568.21" cy="1351.73" r="14.4" fill="#07519c" fill-rule="evenodd" fill-opacity="1" stroke="#000000" stroke-opacity="1" stroke-width="3.2"/>
<circle clip-path="url(#clip041)" cx="617.504" cy="1349.1" r="14.4" fill="#07519c" fill-rule="evenodd" fill-opacity="1" stroke="#000000" stroke-opacity="1" stroke-width="3.2"/>
<circle clip-path="url(#clip041)" cx="666.802" cy="1347.48" r="14.4" fill="#07519c" fill-rule="evenodd" fill-opacity="1" stroke="#000000" stroke-opacity="1" stroke-width="3.2"/>
<circle clip-path="url(#clip041)" cx="716.1" cy="1345.73" r="14.4" fill="#07519c" fill-rule="evenodd" fill-opacity="1" stroke="#000000" stroke-opacity="1" stroke-width="3.2"/>
<circle clip-path="url(#clip041)" cx="765.399" cy="1345.1" r="14.4" fill="#07519c" fill-rule="evenodd" fill-opacity="1" stroke="#000000" stroke-opacity="1" stroke-width="3.2"/>
<circle clip-path="url(#clip041)" cx="814.692" cy="1343.98" r="14.4" fill="#07519c" fill-rule="evenodd" fill-opacity="1" stroke="#000000" stroke-opacity="1" stroke-width="3.2"/>
<circle clip-path="url(#clip041)" cx="863.984" cy="1343.35" r="14.4" fill="#07519c" fill-rule="evenodd" fill-opacity="1" stroke="#000000" stroke-opacity="1" stroke-width="3.2"/>
<circle clip-path="url(#clip041)" cx="913.273" cy="1343.6" r="14.4" fill="#07519c" fill-rule="evenodd" fill-opacity="1" stroke="#000000" stroke-opacity="1" stroke-width="3.2"/>
<circle clip-path="url(#clip041)" cx="962.574" cy="1344.35" r="14.4" fill="#07519c" fill-rule="evenodd" fill-opacity="1" stroke="#000000" stroke-opacity="1" stroke-width="3.2"/>
<circle clip-path="url(#clip041)" cx="1011.86" cy="1344.1" r="14.4" fill="#07519c" fill-rule="evenodd" fill-opacity="1" stroke="#000000" stroke-opacity="1" stroke-width="3.2"/>
<circle clip-path="url(#clip041)" cx="1061.16" cy="1344.98" r="14.4" fill="#07519c" fill-rule="evenodd" fill-opacity="1" stroke="#000000" stroke-opacity="1" stroke-width="3.2"/>
<circle clip-path="url(#clip041)" cx="1110.46" cy="1344.35" r="14.4" fill="#07519c" fill-rule="evenodd" fill-opacity="1" stroke="#000000" stroke-opacity="1" stroke-width="3.2"/>
<circle clip-path="url(#clip041)" cx="1159.75" cy="1343.98" r="14.4" fill="#07519c" fill-rule="evenodd" fill-opacity="1" stroke="#000000" stroke-opacity="1" stroke-width="3.2"/>
<circle clip-path="url(#clip041)" cx="1209.04" cy="1343.98" r="14.4" fill="#07519c" fill-rule="evenodd" fill-opacity="1" stroke="#000000" stroke-opacity="1" stroke-width="3.2"/>
<circle clip-path="url(#clip041)" cx="1258.35" cy="1344.35" r="14.4" fill="#07519c" fill-rule="evenodd" fill-opacity="1" stroke="#000000" stroke-opacity="1" stroke-width="3.2"/>
<circle clip-path="url(#clip041)" cx="1307.65" cy="1343.47" r="14.4" fill="#07519c" fill-rule="evenodd" fill-opacity="1" stroke="#000000" stroke-opacity="1" stroke-width="3.2"/>
<circle clip-path="url(#clip041)" cx="1356.95" cy="1344.85" r="14.4" fill="#07519c" fill-rule="evenodd" fill-opacity="1" stroke="#000000" stroke-opacity="1" stroke-width="3.2"/>
<circle clip-path="url(#clip041)" cx="1406.24" cy="1346.1" r="14.4" fill="#07519c" fill-rule="evenodd" fill-opacity="1" stroke="#000000" stroke-opacity="1" stroke-width="3.2"/>
<circle clip-path="url(#clip041)" cx="1455.53" cy="1346.73" r="14.4" fill="#07519c" fill-rule="evenodd" fill-opacity="1" stroke="#000000" stroke-opacity="1" stroke-width="3.2"/>
<circle clip-path="url(#clip041)" cx="1504.83" cy="1347.23" r="14.4" fill="#07519c" fill-rule="evenodd" fill-opacity="1" stroke="#000000" stroke-opacity="1" stroke-width="3.2"/>
<circle clip-path="url(#clip041)" cx="1554.13" cy="1348.23" r="14.4" fill="#07519c" fill-rule="evenodd" fill-opacity="1" stroke="#000000" stroke-opacity="1" stroke-width="3.2"/>
<circle clip-path="url(#clip041)" cx="1603.43" cy="1350.23" r="14.4" fill="#07519c" fill-rule="evenodd" fill-opacity="1" stroke="#000000" stroke-opacity="1" stroke-width="3.2"/>
<circle clip-path="url(#clip041)" cx="1652.72" cy="1352.85" r="14.4" fill="#07519c" fill-rule="evenodd" fill-opacity="1" stroke="#000000" stroke-opacity="1" stroke-width="3.2"/>
<circle clip-path="url(#clip041)" cx="1702.02" cy="1354.48" r="14.4" fill="#07519c" fill-rule="evenodd" fill-opacity="1" stroke="#000000" stroke-opacity="1" stroke-width="3.2"/>
<circle clip-path="url(#clip041)" cx="1751.32" cy="1355.48" r="14.4" fill="#07519c" fill-rule="evenodd" fill-opacity="1" stroke="#000000" stroke-opacity="1" stroke-width="3.2"/>
<circle clip-path="url(#clip041)" cx="1800.62" cy="1355.73" r="14.4" fill="#07519c" fill-rule="evenodd" fill-opacity="1" stroke="#000000" stroke-opacity="1" stroke-width="3.2"/>
<circle clip-path="url(#clip041)" cx="1849.91" cy="1341.97" r="14.4" fill="#07519c" fill-rule="evenodd" fill-opacity="1" stroke="#000000" stroke-opacity="1" stroke-width="3.2"/>
<circle clip-path="url(#clip041)" cx="1899.22" cy="1302.46" r="14.4" fill="#07519c" fill-rule="evenodd" fill-opacity="1" stroke="#000000" stroke-opacity="1" stroke-width="3.2"/>
<circle clip-path="url(#clip041)" cx="1948.52" cy="1277.7" r="14.4" fill="#07519c" fill-rule="evenodd" fill-opacity="1" stroke="#000000" stroke-opacity="1" stroke-width="3.2"/>
<circle clip-path="url(#clip041)" cx="1997.81" cy="1306.34" r="14.4" fill="#07519c" fill-rule="evenodd" fill-opacity="1" stroke="#000000" stroke-opacity="1" stroke-width="3.2"/>
<circle clip-path="url(#clip041)" cx="2047.11" cy="1316.09" r="14.4" fill="#07519c" fill-rule="evenodd" fill-opacity="1" stroke="#000000" stroke-opacity="1" stroke-width="3.2"/>
<circle clip-path="url(#clip041)" cx="2096.41" cy="1319.34" r="14.4" fill="#07519c" fill-rule="evenodd" fill-opacity="1" stroke="#000000" stroke-opacity="1" stroke-width="3.2"/>
<circle clip-path="url(#clip041)" cx="2145.71" cy="1320.72" r="14.4" fill="#07519c" fill-rule="evenodd" fill-opacity="1" stroke="#000000" stroke-opacity="1" stroke-width="3.2"/>
<circle clip-path="url(#clip041)" cx="2195" cy="1321.09" r="14.4" fill="#07519c" fill-rule="evenodd" fill-opacity="1" stroke="#000000" stroke-opacity="1" stroke-width="3.2"/>
<circle clip-path="url(#clip041)" cx="2244.3" cy="1322.34" r="14.4" fill="#07519c" fill-rule="evenodd" fill-opacity="1" stroke="#000000" stroke-opacity="1" stroke-width="3.2"/>
<circle clip-path="url(#clip041)" cx="2293.6" cy="1308.96" r="14.4" fill="#07519c" fill-rule="evenodd" fill-opacity="1" stroke="#000000" stroke-opacity="1" stroke-width="3.2"/>
<path clip-path="url(#clip041)" d="M317.847 70.1857 L317.847 102.186 L349.847 102.186 L349.847 70.1857 L317.847 70.1857 Z" fill="#3082bc" fill-rule="evenodd" fill-opacity="1" stroke="#000000" stroke-opacity="1" stroke-width="3.2"/>
<path clip-path="url(#clip041)" d="M367.142 70.1857 L367.142 102.186 L399.142 102.186 L399.142 70.1857 L367.142 70.1857 Z" fill="#3082bc" fill-rule="evenodd" fill-opacity="1" stroke="#000000" stroke-opacity="1" stroke-width="3.2"/>
<path clip-path="url(#clip041)" d="M416.453 70.1857 L416.453 102.186 L448.453 102.186 L448.453 70.1857 L416.453 70.1857 Z" fill="#3082bc" fill-rule="evenodd" fill-opacity="1" stroke="#000000" stroke-opacity="1" stroke-width="3.2"/>
<path clip-path="url(#clip041)" d="M465.751 70.1857 L465.751 102.186 L497.751 102.186 L497.751 70.1857 L465.751 70.1857 Z" fill="#3082bc" fill-rule="evenodd" fill-opacity="1" stroke="#000000" stroke-opacity="1" stroke-width="3.2"/>
<path clip-path="url(#clip041)" d="M515.051 70.1857 L515.051 102.186 L547.051 102.186 L547.051 70.1857 L515.051 70.1857 Z" fill="#3082bc" fill-rule="evenodd" fill-opacity="1" stroke="#000000" stroke-opacity="1" stroke-width="3.2"/>
<path clip-path="url(#clip041)" d="M564.347 70.1857 L564.347 102.186 L596.347 102.186 L596.347 70.1857 L564.347 70.1857 Z" fill="#3082bc" fill-rule="evenodd" fill-opacity="1" stroke="#000000" stroke-opacity="1" stroke-width="3.2"/>
<path clip-path="url(#clip041)" d="M613.647 70.1857 L613.647 102.186 L645.647 102.186 L645.647 70.1857 L613.647 70.1857 Z" fill="#3082bc" fill-rule="evenodd" fill-opacity="1" stroke="#000000" stroke-opacity="1" stroke-width="3.2"/>
<path clip-path="url(#clip041)" d="M662.945 70.1857 L662.945 102.186 L694.945 102.186 L694.945 70.1857 L662.945 70.1857 Z" fill="#3082bc" fill-rule="evenodd" fill-opacity="1" stroke="#000000" stroke-opacity="1" stroke-width="3.2"/>
<path clip-path="url(#clip041)" d="M712.246 70.1857 L712.246 102.186 L744.246 102.186 L744.246 70.1857 L712.246 70.1857 Z" fill="#3082bc" fill-rule="evenodd" fill-opacity="1" stroke="#000000" stroke-opacity="1" stroke-width="3.2"/>
<path clip-path="url(#clip041)" d="M761.537 70.1857 L761.537 102.186 L793.537 102.186 L793.537 70.1857 L761.537 70.1857 Z" fill="#3082bc" fill-rule="evenodd" fill-opacity="1" stroke="#000000" stroke-opacity="1" stroke-width="3.2"/>
<path clip-path="url(#clip041)" d="M810.828 70.1857 L810.828 102.186 L842.828 102.186 L842.828 70.1857 L810.828 70.1857 Z" fill="#3082bc" fill-rule="evenodd" fill-opacity="1" stroke="#000000" stroke-opacity="1" stroke-width="3.2"/>
<path clip-path="url(#clip041)" d="M860.118 70.1857 L860.118 102.186 L892.118 102.186 L892.118 70.1857 L860.118 70.1857 Z" fill="#3082bc" fill-rule="evenodd" fill-opacity="1" stroke="#000000" stroke-opacity="1" stroke-width="3.2"/>
<path clip-path="url(#clip041)" d="M909.418 70.1857 L909.418 102.186 L941.418 102.186 L941.418 70.1857 L909.418 70.1857 Z" fill="#3082bc" fill-rule="evenodd" fill-opacity="1" stroke="#000000" stroke-opacity="1" stroke-width="3.2"/>
<path clip-path="url(#clip041)" d="M958.713 70.1857 L958.713 102.186 L990.713 102.186 L990.713 70.1857 L958.713 70.1857 Z" fill="#3082bc" fill-rule="evenodd" fill-opacity="1" stroke="#000000" stroke-opacity="1" stroke-width="3.2"/>
<path clip-path="url(#clip041)" d="M1008.01 70.1857 L1008.01 102.186 L1040.01 102.186 L1040.01 70.1857 L1008.01 70.1857 Z" fill="#3082bc" fill-rule="evenodd" fill-opacity="1" stroke="#000000" stroke-opacity="1" stroke-width="3.2"/>
<path clip-path="url(#clip041)" d="M1057.31 70.1857 L1057.31 102.186 L1089.31 102.186 L1089.31 70.1857 L1057.31 70.1857 Z" fill="#3082bc" fill-rule="evenodd" fill-opacity="1" stroke="#000000" stroke-opacity="1" stroke-width="3.2"/>
<path clip-path="url(#clip041)" d="M1106.6 70.1857 L1106.6 102.186 L1138.6 102.186 L1138.6 70.1857 L1106.6 70.1857 Z" fill="#3082bc" fill-rule="evenodd" fill-opacity="1" stroke="#000000" stroke-opacity="1" stroke-width="3.2"/>
<path clip-path="url(#clip041)" d="M1155.89 70.1857 L1155.89 102.186 L1187.89 102.186 L1187.89 70.1857 L1155.89 70.1857 Z" fill="#3082bc" fill-rule="evenodd" fill-opacity="1" stroke="#000000" stroke-opacity="1" stroke-width="3.2"/>
<path clip-path="url(#clip041)" d="M1205.2 70.1857 L1205.2 102.186 L1237.2 102.186 L1237.2 70.1857 L1205.2 70.1857 Z" fill="#3082bc" fill-rule="evenodd" fill-opacity="1" stroke="#000000" stroke-opacity="1" stroke-width="3.2"/>
<path clip-path="url(#clip041)" d="M1254.5 70.1857 L1254.5 102.186 L1286.5 102.186 L1286.5 70.1857 L1254.5 70.1857 Z" fill="#3082bc" fill-rule="evenodd" fill-opacity="1" stroke="#000000" stroke-opacity="1" stroke-width="3.2"/>
<path clip-path="url(#clip041)" d="M1303.79 70.1857 L1303.79 102.186 L1335.79 102.186 L1335.79 70.1857 L1303.79 70.1857 Z" fill="#3082bc" fill-rule="evenodd" fill-opacity="1" stroke="#000000" stroke-opacity="1" stroke-width="3.2"/>
<path clip-path="url(#clip041)" d="M1353.09 70.1857 L1353.09 102.186 L1385.09 102.186 L1385.09 70.1857 L1353.09 70.1857 Z" fill="#3082bc" fill-rule="evenodd" fill-opacity="1" stroke="#000000" stroke-opacity="1" stroke-width="3.2"/>
<path clip-path="url(#clip041)" d="M1402.38 70.1857 L1402.38 102.186 L1434.38 102.186 L1434.38 70.1857 L1402.38 70.1857 Z" fill="#3082bc" fill-rule="evenodd" fill-opacity="1" stroke="#000000" stroke-opacity="1" stroke-width="3.2"/>
<path clip-path="url(#clip041)" d="M1451.67 70.1857 L1451.67 102.186 L1483.67 102.186 L1483.67 70.1857 L1451.67 70.1857 Z" fill="#3082bc" fill-rule="evenodd" fill-opacity="1" stroke="#000000" stroke-opacity="1" stroke-width="3.2"/>
<path clip-path="url(#clip041)" d="M1500.97 70.1857 L1500.97 102.186 L1532.97 102.186 L1532.97 70.1857 L1500.97 70.1857 Z" fill="#3082bc" fill-rule="evenodd" fill-opacity="1" stroke="#000000" stroke-opacity="1" stroke-width="3.2"/>
<path clip-path="url(#clip041)" d="M1550.27 70.1857 L1550.27 102.186 L1582.27 102.186 L1582.27 70.1857 L1550.27 70.1857 Z" fill="#3082bc" fill-rule="evenodd" fill-opacity="1" stroke="#000000" stroke-opacity="1" stroke-width="3.2"/>
<path clip-path="url(#clip041)" d="M1599.57 70.1857 L1599.57 102.186 L1631.57 102.186 L1631.57 70.1857 L1599.57 70.1857 Z" fill="#3082bc" fill-rule="evenodd" fill-opacity="1" stroke="#000000" stroke-opacity="1" stroke-width="3.2"/>
<path clip-path="url(#clip041)" d="M1648.87 70.1857 L1648.87 102.186 L1680.87 102.186 L1680.87 70.1857 L1648.87 70.1857 Z" fill="#3082bc" fill-rule="evenodd" fill-opacity="1" stroke="#000000" stroke-opacity="1" stroke-width="3.2"/>
<path clip-path="url(#clip041)" d="M1698.16 70.1857 L1698.16 102.186 L1730.16 102.186 L1730.16 70.1857 L1698.16 70.1857 Z" fill="#3082bc" fill-rule="evenodd" fill-opacity="1" stroke="#000000" stroke-opacity="1" stroke-width="3.2"/>
<path clip-path="url(#clip041)" d="M1747.46 70.1857 L1747.46 102.186 L1779.46 102.186 L1779.46 70.1857 L1747.46 70.1857 Z" fill="#3082bc" fill-rule="evenodd" fill-opacity="1" stroke="#000000" stroke-opacity="1" stroke-width="3.2"/>
<path clip-path="url(#clip041)" d="M1796.76 70.1857 L1796.76 102.186 L1828.76 102.186 L1828.76 70.1857 L1796.76 70.1857 Z" fill="#3082bc" fill-rule="evenodd" fill-opacity="1" stroke="#000000" stroke-opacity="1" stroke-width="3.2"/>
<path clip-path="url(#clip041)" d="M1846.05 70.1857 L1846.05 102.186 L1878.05 102.186 L1878.05 70.1857 L1846.05 70.1857 Z" fill="#3082bc" fill-rule="evenodd" fill-opacity="1" stroke="#000000" stroke-opacity="1" stroke-width="3.2"/>
<path clip-path="url(#clip041)" d="M1895.36 70.1857 L1895.36 102.186 L1927.36 102.186 L1927.36 70.1857 L1895.36 70.1857 Z" fill="#3082bc" fill-rule="evenodd" fill-opacity="1" stroke="#000000" stroke-opacity="1" stroke-width="3.2"/>
<path clip-path="url(#clip041)" d="M1944.65 70.1857 L1944.65 102.186 L1976.65 102.186 L1976.65 70.1857 L1944.65 70.1857 Z" fill="#3082bc" fill-rule="evenodd" fill-opacity="1" stroke="#000000" stroke-opacity="1" stroke-width="3.2"/>
<path clip-path="url(#clip041)" d="M1993.95 70.1857 L1993.95 102.186 L2025.95 102.186 L2025.95 70.1857 L1993.95 70.1857 Z" fill="#3082bc" fill-rule="evenodd" fill-opacity="1" stroke="#000000" stroke-opacity="1" stroke-width="3.2"/>
<path clip-path="url(#clip041)" d="M2043.25 70.1857 L2043.25 102.186 L2075.25 102.186 L2075.25 70.1857 L2043.25 70.1857 Z" fill="#3082bc" fill-rule="evenodd" fill-opacity="1" stroke="#000000" stroke-opacity="1" stroke-width="3.2"/>
<path clip-path="url(#clip041)" d="M2092.55 70.1857 L2092.55 102.186 L2124.55 102.186 L2124.55 70.1857 L2092.55 70.1857 Z" fill="#3082bc" fill-rule="evenodd" fill-opacity="1" stroke="#000000" stroke-opacity="1" stroke-width="3.2"/>
<path clip-path="url(#clip041)" d="M2141.85 70.1857 L2141.85 102.186 L2173.85 102.186 L2173.85 70.1857 L2141.85 70.1857 Z" fill="#3082bc" fill-rule="evenodd" fill-opacity="1" stroke="#000000" stroke-opacity="1" stroke-width="3.2"/>
<path clip-path="url(#clip041)" d="M2191.14 70.1857 L2191.14 102.186 L2223.14 102.186 L2223.14 70.1857 L2191.14 70.1857 Z" fill="#3082bc" fill-rule="evenodd" fill-opacity="1" stroke="#000000" stroke-opacity="1" stroke-width="3.2"/>
<path clip-path="url(#clip041)" d="M2240.44 70.1857 L2240.44 102.186 L2272.44 102.186 L2272.44 70.1857 L2240.44 70.1857 Z" fill="#3082bc" fill-rule="evenodd" fill-opacity="1" stroke="#000000" stroke-opacity="1" stroke-width="3.2"/>
<path clip-path="url(#clip041)" d="M345.986 1367.24 L329.986 1383.24 L345.986 1399.24 L361.986 1383.24 L345.986 1367.24 Z" fill="#6badd5" fill-rule="evenodd" fill-opacity="1" stroke="#000000" stroke-opacity="1" stroke-width="3.2"/>
<path clip-path="url(#clip041)" d="M395.283 1352.23 L379.283 1368.23 L395.283 1384.23 L411.283 1368.23 L395.283 1352.23 Z" fill="#6badd5" fill-rule="evenodd" fill-opacity="1" stroke="#000000" stroke-opacity="1" stroke-width="3.2"/>
<path clip-path="url(#clip041)" d="M444.594 1344.48 L428.594 1360.48 L444.594 1376.48 L460.594 1360.48 L444.594 1344.48 Z" fill="#6badd5" fill-rule="evenodd" fill-opacity="1" stroke="#000000" stroke-opacity="1" stroke-width="3.2"/>
<path clip-path="url(#clip041)" d="M493.893 1338.73 L477.893 1354.73 L493.893 1370.73 L509.893 1354.73 L493.893 1338.73 Z" fill="#6badd5" fill-rule="evenodd" fill-opacity="1" stroke="#000000" stroke-opacity="1" stroke-width="3.2"/>
<path clip-path="url(#clip041)" d="M543.191 1332.98 L527.191 1348.98 L543.191 1364.98 L559.191 1348.98 L543.191 1332.98 Z" fill="#6badd5" fill-rule="evenodd" fill-opacity="1" stroke="#000000" stroke-opacity="1" stroke-width="3.2"/>
<path clip-path="url(#clip041)" d="M592.49 1328.73 L576.49 1344.73 L592.49 1360.73 L608.49 1344.73 L592.49 1328.73 Z" fill="#6badd5" fill-rule="evenodd" fill-opacity="1" stroke="#000000" stroke-opacity="1" stroke-width="3.2"/>
<path clip-path="url(#clip041)" d="M641.789 1326.97 L625.789 1342.97 L641.789 1358.97 L657.789 1342.97 L641.789 1326.97 Z" fill="#6badd5" fill-rule="evenodd" fill-opacity="1" stroke="#000000" stroke-opacity="1" stroke-width="3.2"/>
<path clip-path="url(#clip041)" d="M691.087 1325.35 L675.087 1341.35 L691.087 1357.35 L707.087 1341.35 L691.087 1325.35 Z" fill="#6badd5" fill-rule="evenodd" fill-opacity="1" stroke="#000000" stroke-opacity="1" stroke-width="3.2"/>
<path clip-path="url(#clip041)" d="M740.384 1324.1 L724.384 1340.1 L740.384 1356.1 L756.384 1340.1 L740.384 1324.1 Z" fill="#6badd5" fill-rule="evenodd" fill-opacity="1" stroke="#000000" stroke-opacity="1" stroke-width="3.2"/>
<path clip-path="url(#clip041)" d="M789.676 1322.72 L773.676 1338.72 L789.676 1354.72 L805.676 1338.72 L789.676 1322.72 Z" fill="#6badd5" fill-rule="evenodd" fill-opacity="1" stroke="#000000" stroke-opacity="1" stroke-width="3.2"/>
<path clip-path="url(#clip041)" d="M838.969 1321.6 L822.969 1337.6 L838.969 1353.6 L854.969 1337.6 L838.969 1321.6 Z" fill="#6badd5" fill-rule="evenodd" fill-opacity="1" stroke="#000000" stroke-opacity="1" stroke-width="3.2"/>
<path clip-path="url(#clip041)" d="M888.258 1320.35 L872.258 1336.35 L888.258 1352.35 L904.258 1336.35 L888.258 1320.35 Z" fill="#6badd5" fill-rule="evenodd" fill-opacity="1" stroke="#000000" stroke-opacity="1" stroke-width="3.2"/>
<path clip-path="url(#clip041)" d="M937.56 1317.97 L921.56 1333.97 L937.56 1349.97 L953.56 1333.97 L937.56 1317.97 Z" fill="#6badd5" fill-rule="evenodd" fill-opacity="1" stroke="#000000" stroke-opacity="1" stroke-width="3.2"/>
<path clip-path="url(#clip041)" d="M986.85 1315.6 L970.85 1331.6 L986.85 1347.6 L1002.85 1331.6 L986.85 1315.6 Z" fill="#6badd5" fill-rule="evenodd" fill-opacity="1" stroke="#000000" stroke-opacity="1" stroke-width="3.2"/>
<path clip-path="url(#clip041)" d="M1036.15 1312.97 L1020.15 1328.97 L1036.15 1344.97 L1052.15 1328.97 L1036.15 1312.97 Z" fill="#6badd5" fill-rule="evenodd" fill-opacity="1" stroke="#000000" stroke-opacity="1" stroke-width="3.2"/>
<path clip-path="url(#clip041)" d="M1085.44 1311.34 L1069.44 1327.34 L1085.44 1343.34 L1101.44 1327.34 L1085.44 1311.34 Z" fill="#6badd5" fill-rule="evenodd" fill-opacity="1" stroke="#000000" stroke-opacity="1" stroke-width="3.2"/>
<path clip-path="url(#clip041)" d="M1134.74 1310.59 L1118.74 1326.59 L1134.74 1342.59 L1150.74 1326.59 L1134.74 1310.59 Z" fill="#6badd5" fill-rule="evenodd" fill-opacity="1" stroke="#000000" stroke-opacity="1" stroke-width="3.2"/>
<path clip-path="url(#clip041)" d="M1184.03 1308.34 L1168.03 1324.34 L1184.03 1340.34 L1200.03 1324.34 L1184.03 1308.34 Z" fill="#6badd5" fill-rule="evenodd" fill-opacity="1" stroke="#000000" stroke-opacity="1" stroke-width="3.2"/>
<path clip-path="url(#clip041)" d="M1233.34 1306.22 L1217.34 1322.22 L1233.34 1338.22 L1249.34 1322.22 L1233.34 1306.22 Z" fill="#6badd5" fill-rule="evenodd" fill-opacity="1" stroke="#000000" stroke-opacity="1" stroke-width="3.2"/>
<path clip-path="url(#clip041)" d="M1282.63 1304.34 L1266.63 1320.34 L1282.63 1336.34 L1298.63 1320.34 L1282.63 1304.34 Z" fill="#6badd5" fill-rule="evenodd" fill-opacity="1" stroke="#000000" stroke-opacity="1" stroke-width="3.2"/>
<path clip-path="url(#clip041)" d="M1331.93 1302.47 L1315.93 1318.47 L1331.93 1334.47 L1347.93 1318.47 L1331.93 1302.47 Z" fill="#6badd5" fill-rule="evenodd" fill-opacity="1" stroke="#000000" stroke-opacity="1" stroke-width="3.2"/>
<path clip-path="url(#clip041)" d="M1381.23 1297.34 L1365.23 1313.34 L1381.23 1329.34 L1397.23 1313.34 L1381.23 1297.34 Z" fill="#6badd5" fill-rule="evenodd" fill-opacity="1" stroke="#000000" stroke-opacity="1" stroke-width="3.2"/>
<path clip-path="url(#clip041)" d="M1430.52 1296.46 L1414.52 1312.46 L1430.52 1328.46 L1446.52 1312.46 L1430.52 1296.46 Z" fill="#6badd5" fill-rule="evenodd" fill-opacity="1" stroke="#000000" stroke-opacity="1" stroke-width="3.2"/>
<path clip-path="url(#clip041)" d="M1479.82 1297.72 L1463.82 1313.72 L1479.82 1329.72 L1495.82 1313.72 L1479.82 1297.72 Z" fill="#6badd5" fill-rule="evenodd" fill-opacity="1" stroke="#000000" stroke-opacity="1" stroke-width="3.2"/>
<path clip-path="url(#clip041)" d="M1529.12 1295.34 L1513.12 1311.34 L1529.12 1327.34 L1545.12 1311.34 L1529.12 1295.34 Z" fill="#6badd5" fill-rule="evenodd" fill-opacity="1" stroke="#000000" stroke-opacity="1" stroke-width="3.2"/>
<path clip-path="url(#clip041)" d="M1578.41 1292.21 L1562.41 1308.21 L1578.41 1324.21 L1594.41 1308.21 L1578.41 1292.21 Z" fill="#6badd5" fill-rule="evenodd" fill-opacity="1" stroke="#000000" stroke-opacity="1" stroke-width="3.2"/>
<path clip-path="url(#clip041)" d="M1627.71 1290.84 L1611.71 1306.84 L1627.71 1322.84 L1643.71 1306.84 L1627.71 1290.84 Z" fill="#6badd5" fill-rule="evenodd" fill-opacity="1" stroke="#000000" stroke-opacity="1" stroke-width="3.2"/>
<path clip-path="url(#clip041)" d="M1677.01 1288.71 L1661.01 1304.71 L1677.01 1320.71 L1693.01 1304.71 L1677.01 1288.71 Z" fill="#6badd5" fill-rule="evenodd" fill-opacity="1" stroke="#000000" stroke-opacity="1" stroke-width="3.2"/>
<path clip-path="url(#clip041)" d="M1726.3 1285.59 L1710.3 1301.59 L1726.3 1317.59 L1742.3 1301.59 L1726.3 1285.59 Z" fill="#6badd5" fill-rule="evenodd" fill-opacity="1" stroke="#000000" stroke-opacity="1" stroke-width="3.2"/>
<path clip-path="url(#clip041)" d="M1775.6 1280.71 L1759.6 1296.71 L1775.6 1312.71 L1791.6 1296.71 L1775.6 1280.71 Z" fill="#6badd5" fill-rule="evenodd" fill-opacity="1" stroke="#000000" stroke-opacity="1" stroke-width="3.2"/>
<path clip-path="url(#clip041)" d="M1824.9 1277.71 L1808.9 1293.71 L1824.9 1309.71 L1840.9 1293.71 L1824.9 1277.71 Z" fill="#6badd5" fill-rule="evenodd" fill-opacity="1" stroke="#000000" stroke-opacity="1" stroke-width="3.2"/>
<path clip-path="url(#clip041)" d="M1874.2 1275.08 L1858.2 1291.08 L1874.2 1307.08 L1890.2 1291.08 L1874.2 1275.08 Z" fill="#6badd5" fill-rule="evenodd" fill-opacity="1" stroke="#000000" stroke-opacity="1" stroke-width="3.2"/>
<path clip-path="url(#clip041)" d="M1923.5 1272.83 L1907.5 1288.83 L1923.5 1304.83 L1939.5 1288.83 L1923.5 1272.83 Z" fill="#6badd5" fill-rule="evenodd" fill-opacity="1" stroke="#000000" stroke-opacity="1" stroke-width="3.2"/>
<path clip-path="url(#clip041)" d="M1972.79 1290.96 L1956.79 1306.96 L1972.79 1322.96 L1988.79 1306.96 L1972.79 1290.96 Z" fill="#6badd5" fill-rule="evenodd" fill-opacity="1" stroke="#000000" stroke-opacity="1" stroke-width="3.2"/>
<path clip-path="url(#clip041)" d="M2022.1 1299.84 L2006.1 1315.84 L2022.1 1331.84 L2038.1 1315.84 L2022.1 1299.84 Z" fill="#6badd5" fill-rule="evenodd" fill-opacity="1" stroke="#000000" stroke-opacity="1" stroke-width="3.2"/>
<path clip-path="url(#clip041)" d="M2071.39 1302.59 L2055.39 1318.59 L2071.39 1334.59 L2087.39 1318.59 L2071.39 1302.59 Z" fill="#6badd5" fill-rule="evenodd" fill-opacity="1" stroke="#000000" stroke-opacity="1" stroke-width="3.2"/>
<path clip-path="url(#clip041)" d="M2120.69 1303.72 L2104.69 1319.72 L2120.69 1335.72 L2136.69 1319.72 L2120.69 1303.72 Z" fill="#6badd5" fill-rule="evenodd" fill-opacity="1" stroke="#000000" stroke-opacity="1" stroke-width="3.2"/>
<path clip-path="url(#clip041)" d="M2169.99 1304.59 L2153.99 1320.59 L2169.99 1336.59 L2185.99 1320.59 L2169.99 1304.59 Z" fill="#6badd5" fill-rule="evenodd" fill-opacity="1" stroke="#000000" stroke-opacity="1" stroke-width="3.2"/>
<path clip-path="url(#clip041)" d="M2219.28 1304.84 L2203.28 1320.84 L2219.28 1336.84 L2235.28 1320.84 L2219.28 1304.84 Z" fill="#6badd5" fill-rule="evenodd" fill-opacity="1" stroke="#000000" stroke-opacity="1" stroke-width="3.2"/>
<path clip-path="url(#clip041)" d="M2268.59 1304.59 L2252.59 1320.59 L2268.59 1336.59 L2284.59 1320.59 L2268.59 1304.59 Z" fill="#6badd5" fill-rule="evenodd" fill-opacity="1" stroke="#000000" stroke-opacity="1" stroke-width="3.2"/>
<path clip-path="url(#clip041)" d="M358.126 1400.24 L344.27 1392.24 L344.27 1376.24 L358.126 1368.24 L371.982 1376.24 L371.982 1392.24 Z" fill="#bcd6e7" fill-rule="evenodd" fill-opacity="1" stroke="#000000" stroke-opacity="1" stroke-width="3.2"/>
<path clip-path="url(#clip041)" d="M407.421 1382.23 L393.565 1374.23 L393.565 1358.23 L407.421 1350.23 L421.277 1358.23 L421.277 1374.23 Z" fill="#bcd6e7" fill-rule="evenodd" fill-opacity="1" stroke="#000000" stroke-opacity="1" stroke-width="3.2"/>
<path clip-path="url(#clip041)" d="M456.737 1376.48 L442.881 1368.48 L442.881 1352.48 L456.737 1344.48 L470.593 1352.48 L470.593 1368.48 Z" fill="#bcd6e7" fill-rule="evenodd" fill-opacity="1" stroke="#000000" stroke-opacity="1" stroke-width="3.2"/>
<path clip-path="url(#clip041)" d="M506.03 1371.73 L492.174 1363.73 L492.174 1347.73 L506.03 1339.73 L519.886 1347.73 L519.886 1363.73 Z" fill="#bcd6e7" fill-rule="evenodd" fill-opacity="1" stroke="#000000" stroke-opacity="1" stroke-width="3.2"/>
<path clip-path="url(#clip041)" d="M555.333 1367.98 L541.477 1359.98 L541.477 1343.98 L555.333 1335.98 L569.189 1343.98 L569.189 1359.98 Z" fill="#bcd6e7" fill-rule="evenodd" fill-opacity="1" stroke="#000000" stroke-opacity="1" stroke-width="3.2"/>
<path clip-path="url(#clip041)" d="M604.632 1365.1 L590.776 1357.1 L590.776 1341.1 L604.632 1333.1 L618.488 1341.1 L618.488 1357.1 Z" fill="#bcd6e7" fill-rule="evenodd" fill-opacity="1" stroke="#000000" stroke-opacity="1" stroke-width="3.2"/>
<path clip-path="url(#clip041)" d="M653.925 1363.85 L640.069 1355.85 L640.069 1339.85 L653.925 1331.85 L667.781 1339.85 L667.781 1355.85 Z" fill="#bcd6e7" fill-rule="evenodd" fill-opacity="1" stroke="#000000" stroke-opacity="1" stroke-width="3.2"/>
<path clip-path="url(#clip041)" d="M703.225 1362.48 L689.369 1354.48 L689.369 1338.48 L703.225 1330.48 L717.081 1338.48 L717.081 1354.48 Z" fill="#bcd6e7" fill-rule="evenodd" fill-opacity="1" stroke="#000000" stroke-opacity="1" stroke-width="3.2"/>
<path clip-path="url(#clip041)" d="M752.525 1361.6 L738.669 1353.6 L738.669 1337.6 L752.525 1329.6 L766.381 1337.6 L766.381 1353.6 Z" fill="#bcd6e7" fill-rule="evenodd" fill-opacity="1" stroke="#000000" stroke-opacity="1" stroke-width="3.2"/>
<path clip-path="url(#clip041)" d="M801.815 1361.23 L787.959 1353.23 L787.959 1337.23 L801.815 1329.23 L815.671 1337.23 L815.671 1353.23 Z" fill="#bcd6e7" fill-rule="evenodd" fill-opacity="1" stroke="#000000" stroke-opacity="1" stroke-width="3.2"/>
<path clip-path="url(#clip041)" d="M851.105 1360.73 L837.249 1352.73 L837.249 1336.73 L851.105 1328.73 L864.961 1336.73 L864.961 1352.73 Z" fill="#bcd6e7" fill-rule="evenodd" fill-opacity="1" stroke="#000000" stroke-opacity="1" stroke-width="3.2"/>
<path clip-path="url(#clip041)" d="M900.396 1360.23 L886.54 1352.23 L886.54 1336.23 L900.396 1328.23 L914.252 1336.23 L914.252 1352.23 Z" fill="#bcd6e7" fill-rule="evenodd" fill-opacity="1" stroke="#000000" stroke-opacity="1" stroke-width="3.2"/>
<path clip-path="url(#clip041)" d="M949.699 1359.98 L935.843 1351.98 L935.843 1335.98 L949.699 1327.98 L963.555 1335.98 L963.555 1351.98 Z" fill="#bcd6e7" fill-rule="evenodd" fill-opacity="1" stroke="#000000" stroke-opacity="1" stroke-width="3.2"/>
<path clip-path="url(#clip041)" d="M998.989 1358.72 L985.133 1350.72 L985.133 1334.72 L998.989 1326.72 L1012.84 1334.72 L1012.84 1350.72 Z" fill="#bcd6e7" fill-rule="evenodd" fill-opacity="1" stroke="#000000" stroke-opacity="1" stroke-width="3.2"/>
<path clip-path="url(#clip041)" d="M1048.29 1359.72 L1034.43 1351.72 L1034.43 1335.72 L1048.29 1327.72 L1062.15 1335.72 L1062.15 1351.72 Z" fill="#bcd6e7" fill-rule="evenodd" fill-opacity="1" stroke="#000000" stroke-opacity="1" stroke-width="3.2"/>
<path clip-path="url(#clip041)" d="M1097.58 1360.85 L1083.73 1352.85 L1083.73 1336.85 L1097.58 1328.85 L1111.44 1336.85 L1111.44 1352.85 Z" fill="#bcd6e7" fill-rule="evenodd" fill-opacity="1" stroke="#000000" stroke-opacity="1" stroke-width="3.2"/>
<path clip-path="url(#clip041)" d="M1146.88 1361.6 L1133.02 1353.6 L1133.02 1337.6 L1146.88 1329.6 L1160.73 1337.6 L1160.73 1353.6 Z" fill="#bcd6e7" fill-rule="evenodd" fill-opacity="1" stroke="#000000" stroke-opacity="1" stroke-width="3.2"/>
<path clip-path="url(#clip041)" d="M1196.17 1361.6 L1182.31 1353.6 L1182.31 1337.6 L1196.17 1329.6 L1210.02 1337.6 L1210.02 1353.6 Z" fill="#bcd6e7" fill-rule="evenodd" fill-opacity="1" stroke="#000000" stroke-opacity="1" stroke-width="3.2"/>
<path clip-path="url(#clip041)" d="M1245.48 1360.85 L1231.62 1352.85 L1231.62 1336.85 L1245.48 1328.85 L1259.34 1336.85 L1259.34 1352.85 Z" fill="#bcd6e7" fill-rule="evenodd" fill-opacity="1" stroke="#000000" stroke-opacity="1" stroke-width="3.2"/>
<path clip-path="url(#clip041)" d="M1294.77 1361.48 L1280.92 1353.48 L1280.92 1337.48 L1294.77 1329.48 L1308.63 1337.48 L1308.63 1353.48 Z" fill="#bcd6e7" fill-rule="evenodd" fill-opacity="1" stroke="#000000" stroke-opacity="1" stroke-width="3.2"/>
<path clip-path="url(#clip041)" d="M1344.07 1361.98 L1330.21 1353.98 L1330.21 1337.98 L1344.07 1329.98 L1357.93 1337.98 L1357.93 1353.98 Z" fill="#bcd6e7" fill-rule="evenodd" fill-opacity="1" stroke="#000000" stroke-opacity="1" stroke-width="3.2"/>
<path clip-path="url(#clip041)" d="M1393.37 1360.98 L1379.51 1352.98 L1379.51 1336.98 L1393.37 1328.98 L1407.22 1336.98 L1407.22 1352.98 Z" fill="#bcd6e7" fill-rule="evenodd" fill-opacity="1" stroke="#000000" stroke-opacity="1" stroke-width="3.2"/>
<path clip-path="url(#clip041)" d="M1442.66 1362.6 L1428.8 1354.6 L1428.8 1338.6 L1442.66 1330.6 L1456.51 1338.6 L1456.51 1354.6 Z" fill="#bcd6e7" fill-rule="evenodd" fill-opacity="1" stroke="#000000" stroke-opacity="1" stroke-width="3.2"/>
<path clip-path="url(#clip041)" d="M1491.96 1364.6 L1478.1 1356.6 L1478.1 1340.6 L1491.96 1332.6 L1505.81 1340.6 L1505.81 1356.6 Z" fill="#bcd6e7" fill-rule="evenodd" fill-opacity="1" stroke="#000000" stroke-opacity="1" stroke-width="3.2"/>
<path clip-path="url(#clip041)" d="M1541.25 1365.6 L1527.4 1357.6 L1527.4 1341.6 L1541.25 1333.6 L1555.11 1341.6 L1555.11 1357.6 Z" fill="#bcd6e7" fill-rule="evenodd" fill-opacity="1" stroke="#000000" stroke-opacity="1" stroke-width="3.2"/>
<path clip-path="url(#clip041)" d="M1590.55 1366.35 L1576.7 1358.35 L1576.7 1342.35 L1590.55 1334.35 L1604.41 1342.35 L1604.41 1358.35 Z" fill="#bcd6e7" fill-rule="evenodd" fill-opacity="1" stroke="#000000" stroke-opacity="1" stroke-width="3.2"/>
<path clip-path="url(#clip041)" d="M1639.85 1367.1 L1625.99 1359.1 L1625.99 1343.1 L1639.85 1335.1 L1653.7 1343.1 L1653.7 1359.1 Z" fill="#bcd6e7" fill-rule="evenodd" fill-opacity="1" stroke="#000000" stroke-opacity="1" stroke-width="3.2"/>
<path clip-path="url(#clip041)" d="M1689.15 1367.85 L1675.29 1359.85 L1675.29 1343.85 L1689.15 1335.85 L1703 1343.85 L1703 1359.85 Z" fill="#bcd6e7" fill-rule="evenodd" fill-opacity="1" stroke="#000000" stroke-opacity="1" stroke-width="3.2"/>
<path clip-path="url(#clip041)" d="M1738.44 1367.23 L1724.59 1359.23 L1724.59 1343.23 L1738.44 1335.23 L1752.3 1343.23 L1752.3 1359.23 Z" fill="#bcd6e7" fill-rule="evenodd" fill-opacity="1" stroke="#000000" stroke-opacity="1" stroke-width="3.2"/>
<path clip-path="url(#clip041)" d="M1787.75 1365.6 L1773.89 1357.6 L1773.89 1341.6 L1787.75 1333.6 L1801.6 1341.6 L1801.6 1357.6 Z" fill="#bcd6e7" fill-rule="evenodd" fill-opacity="1" stroke="#000000" stroke-opacity="1" stroke-width="3.2"/>
<path clip-path="url(#clip041)" d="M1837.04 1353.85 L1823.18 1345.85 L1823.18 1329.85 L1837.04 1321.85 L1850.89 1329.85 L1850.89 1345.85 Z" fill="#bcd6e7" fill-rule="evenodd" fill-opacity="1" stroke="#000000" stroke-opacity="1" stroke-width="3.2"/>
<path clip-path="url(#clip041)" d="M1886.34 1327.84 L1872.49 1319.84 L1872.49 1303.84 L1886.34 1295.84 L1900.2 1303.84 L1900.2 1319.84 Z" fill="#bcd6e7" fill-rule="evenodd" fill-opacity="1" stroke="#000000" stroke-opacity="1" stroke-width="3.2"/>
<path clip-path="url(#clip041)" d="M1935.64 1313.58 L1921.78 1305.58 L1921.78 1289.58 L1935.64 1281.58 L1949.49 1289.58 L1949.49 1305.58 Z" fill="#bcd6e7" fill-rule="evenodd" fill-opacity="1" stroke="#000000" stroke-opacity="1" stroke-width="3.2"/>
<path clip-path="url(#clip041)" d="M1984.93 1328.59 L1971.08 1320.59 L1971.08 1304.59 L1984.93 1296.59 L1998.79 1304.59 L1998.79 1320.59 Z" fill="#bcd6e7" fill-rule="evenodd" fill-opacity="1" stroke="#000000" stroke-opacity="1" stroke-width="3.2"/>
<path clip-path="url(#clip041)" d="M2034.24 1333.47 L2020.38 1325.47 L2020.38 1309.47 L2034.24 1301.47 L2048.1 1309.47 L2048.1 1325.47 Z" fill="#bcd6e7" fill-rule="evenodd" fill-opacity="1" stroke="#000000" stroke-opacity="1" stroke-width="3.2"/>
<path clip-path="url(#clip041)" d="M2083.54 1335.97 L2069.68 1327.97 L2069.68 1311.97 L2083.54 1303.97 L2097.39 1311.97 L2097.39 1327.97 Z" fill="#bcd6e7" fill-rule="evenodd" fill-opacity="1" stroke="#000000" stroke-opacity="1" stroke-width="3.2"/>
<path clip-path="url(#clip041)" d="M2132.83 1337.22 L2118.98 1329.22 L2118.98 1313.22 L2132.83 1305.22 L2146.69 1313.22 L2146.69 1329.22 Z" fill="#bcd6e7" fill-rule="evenodd" fill-opacity="1" stroke="#000000" stroke-opacity="1" stroke-width="3.2"/>
<path clip-path="url(#clip041)" d="M2182.13 1337.84 L2168.27 1329.84 L2168.27 1313.84 L2182.13 1305.84 L2195.98 1313.84 L2195.98 1329.84 Z" fill="#bcd6e7" fill-rule="evenodd" fill-opacity="1" stroke="#000000" stroke-opacity="1" stroke-width="3.2"/>
<path clip-path="url(#clip041)" d="M2231.42 1338.22 L2217.57 1330.22 L2217.57 1314.22 L2231.42 1306.22 L2245.28 1314.22 L2245.28 1330.22 Z" fill="#bcd6e7" fill-rule="evenodd" fill-opacity="1" stroke="#000000" stroke-opacity="1" stroke-width="3.2"/>
<path clip-path="url(#clip041)" d="M2280.72 1337.59 L2266.86 1329.59 L2266.86 1313.59 L2280.72 1305.59 L2294.58 1313.59 L2294.58 1329.59 Z" fill="#bcd6e7" fill-rule="evenodd" fill-opacity="1" stroke="#000000" stroke-opacity="1" stroke-width="3.2"/>
<path clip-path="url(#clip040)" d="M1877.55 352.309 L2283.08 352.309 L2283.08 93.1086 L1877.55 93.1086  Z" fill="#ffffff" fill-rule="evenodd" fill-opacity="1"/>
<polyline clip-path="url(#clip040)" style="stroke:#000000; stroke-linecap:round; stroke-linejoin:round; stroke-width:4; stroke-opacity:1; fill:none" points="1877.55,352.309 2283.08,352.309 2283.08,93.1086 1877.55,93.1086 1877.55,352.309 "/>
<circle clip-path="url(#clip040)" cx="1970.45" cy="144.949" r="20.48" fill="#07519c" fill-rule="evenodd" fill-opacity="1" stroke="#000000" stroke-opacity="1" stroke-width="4.55111"/>
<path clip-path="url(#clip040)" d="M2095.98 122.039 Q2095.98 122.484 2095.88 122.859 L2094.57 131.197 Q2094.5 131.83 2094.36 132.064 Q2094.24 132.298 2093.87 132.298 Q2093.28 132.298 2093.28 131.689 Q2093.28 131.338 2093.42 130.776 Q2093.82 128.129 2093.82 126.934 Q2093.82 126.138 2093.66 125.552 Q2093.52 124.943 2093.28 124.522 Q2093.07 124.1 2092.58 123.819 Q2092.09 123.538 2091.62 123.374 Q2091.15 123.21 2090.31 123.14 Q2089.46 123.046 2088.74 123.023 Q2088.01 122.999 2086.82 122.999 Q2084.22 122.999 2083.8 123.093 Q2083.35 123.21 2083.12 123.561 Q2082.91 123.889 2082.67 124.873 L2076.3 150.333 L2076.11 151.34 Q2076.11 151.903 2076.46 152.09 Q2076.82 152.277 2077.89 152.394 Q2079.44 152.512 2080.96 152.512 Q2081.01 152.512 2081.1 152.512 Q2081.62 152.512 2081.83 152.535 Q2082.04 152.535 2082.25 152.582 Q2082.46 152.629 2082.51 152.746 Q2082.58 152.84 2082.58 153.027 Q2082.58 153.472 2082.39 153.706 Q2082.2 153.917 2082.02 153.964 Q2081.85 153.987 2081.52 153.987 Q2080.87 153.987 2079.46 153.94 Q2078.06 153.894 2077.35 153.894 L2073.37 153.847 L2069.3 153.894 Q2068.67 153.894 2067.33 153.94 Q2066 153.987 2065.36 153.987 Q2064.54 153.987 2064.54 153.402 Q2064.54 152.746 2064.85 152.629 Q2065.18 152.512 2066.56 152.512 Q2068.5 152.512 2069.56 152.418 Q2070.61 152.324 2071.17 151.996 Q2071.76 151.668 2071.92 151.34 Q2072.08 150.989 2072.27 150.193 L2078.71 124.592 Q2078.9 124.03 2078.9 123.585 Q2078.9 123.351 2078.83 123.257 Q2078.78 123.163 2078.48 123.093 Q2078.17 122.999 2077.54 122.999 L2075.67 122.999 Q2073.75 122.999 2072.55 123.093 Q2071.38 123.163 2070.26 123.515 Q2069.16 123.866 2068.5 124.358 Q2067.87 124.85 2067.17 125.857 Q2066.46 126.864 2065.95 128.082 Q2065.46 129.3 2064.75 131.291 Q2064.52 131.947 2064.38 132.134 Q2064.26 132.298 2063.93 132.298 Q2063.7 132.298 2063.51 132.157 Q2063.35 131.994 2063.35 131.783 Q2063.58 131.01 2063.63 130.916 L2066.51 122.461 Q2066.74 121.781 2066.96 121.664 Q2067.19 121.524 2068.06 121.524 L2094.66 121.524 Q2095.09 121.524 2095.23 121.524 Q2095.37 121.524 2095.6 121.571 Q2095.84 121.617 2095.91 121.735 Q2095.98 121.852 2095.98 122.039 Z" fill="#000000" fill-rule="nonzero" fill-opacity="1" /><path clip-path="url(#clip040)" d="M2100.77 154.623 L2100.77 153.573 L2103.4 153.573 L2103.4 149.72 Q2103.4 147.228 2105.01 145.802 Q2106.63 144.375 2108.62 144.375 Q2109.93 144.375 2110.78 145.08 Q2111.64 145.785 2111.64 146.736 Q2111.64 147.376 2111.24 147.802 Q2110.87 148.212 2110.16 148.212 Q2109.49 148.212 2109.09 147.786 Q2108.72 147.359 2108.72 146.769 Q2108.72 145.687 2109.72 145.359 Q2109.21 145.129 2108.62 145.113 Q2107.41 145.113 2106.45 146.359 Q2105.52 147.605 2105.52 149.687 L2105.52 153.573 L2109.45 153.573 L2109.45 154.623 L2105.63 154.623 L2105.63 165.427 Q2105.63 166.395 2106.03 166.706 Q2106.44 167.018 2108.18 167.018 L2108.88 167.018 L2108.88 168.051 Q2107.54 167.952 2104.62 167.952 Q2104.21 167.952 2103.57 167.969 Q2102.95 167.985 2102.09 168.018 Q2101.26 168.051 2100.8 168.051 L2100.8 167.018 Q2102.59 167.018 2103 166.805 Q2103.4 166.575 2103.4 165.493 L2103.4 154.623 L2100.77 154.623 Z" fill="#000000" fill-rule="nonzero" fill-opacity="1" /><path clip-path="url(#clip040)" d="M2115.2 148.884 L2115.2 147.835 Q2119.23 147.835 2121.31 145.687 Q2121.89 145.687 2121.98 145.818 Q2122.08 145.949 2122.08 146.556 L2122.08 165.395 Q2122.08 166.395 2122.57 166.706 Q2123.07 167.018 2125.21 167.018 L2126.28 167.018 L2126.28 168.051 Q2125.1 167.952 2120.84 167.952 Q2116.57 167.952 2115.41 168.051 L2115.41 167.018 L2116.48 167.018 Q2118.59 167.018 2119.1 166.723 Q2119.61 166.411 2119.61 165.395 L2119.61 147.999 Q2117.85 148.884 2115.2 148.884 Z" fill="#000000" fill-rule="nonzero" fill-opacity="1" /><path clip-path="url(#clip040)" d="M2138.84 148.108 L2143.72 148.108 L2143.72 152.089 L2139.93 159.496 L2136.94 159.496 L2138.84 152.089 L2138.84 148.108 Z" fill="#000000" fill-rule="nonzero" fill-opacity="1" /><path clip-path="url(#clip040)" d="M2190.07 139.96 L2190.07 142.043 L2170.48 142.043 Q2170.76 146.441 2173.12 148.756 Q2175.51 151.047 2179.74 151.047 Q2182.2 151.047 2184.49 150.446 Q2186.8 149.844 2189.07 148.64 L2189.07 152.668 Q2186.78 153.64 2184.37 154.149 Q2181.96 154.659 2179.49 154.659 Q2173.28 154.659 2169.65 151.047 Q2166.04 147.436 2166.04 141.279 Q2166.04 134.913 2169.46 131.186 Q2172.91 127.436 2178.75 127.436 Q2183.98 127.436 2187.01 130.816 Q2190.07 134.173 2190.07 139.96 M2185.81 138.71 Q2185.76 135.214 2183.84 133.131 Q2181.94 131.048 2178.79 131.048 Q2175.23 131.048 2173.08 133.061 Q2170.95 135.075 2170.62 138.733 L2185.81 138.71 Z" fill="#000000" fill-rule="nonzero" fill-opacity="1" /><path clip-path="url(#clip040)" d="M2217.77 128.061 L2208.4 140.677 L2218.26 153.987 L2213.24 153.987 L2205.69 143.802 L2198.15 153.987 L2193.12 153.987 L2203.19 140.422 L2193.98 128.061 L2199 128.061 L2205.88 137.297 L2212.75 128.061 L2217.77 128.061 Z" fill="#000000" fill-rule="nonzero" fill-opacity="1" /><path clip-path="url(#clip040)" d="M2228.4 150.098 L2228.4 163.848 L2224.12 163.848 L2224.12 128.061 L2228.4 128.061 L2228.4 131.997 Q2229.74 129.682 2231.78 128.571 Q2233.84 127.436 2236.69 127.436 Q2241.41 127.436 2244.35 131.186 Q2247.31 134.936 2247.31 141.047 Q2247.31 147.159 2244.35 150.909 Q2241.41 154.659 2236.69 154.659 Q2233.84 154.659 2231.78 153.547 Q2229.74 152.413 2228.4 150.098 M2242.89 141.047 Q2242.89 136.348 2240.95 133.686 Q2239.02 131.001 2235.65 131.001 Q2232.27 131.001 2230.32 133.686 Q2228.4 136.348 2228.4 141.047 Q2228.4 145.747 2230.32 148.432 Q2232.27 151.094 2235.65 151.094 Q2239.02 151.094 2240.95 148.432 Q2242.89 145.747 2242.89 141.047 Z" fill="#000000" fill-rule="nonzero" fill-opacity="1" /><path clip-path="url(#clip040)" d="M2254.97 148.108 L2259.86 148.108 L2259.86 153.987 L2254.97 153.987 L2254.97 148.108 Z" fill="#000000" fill-rule="nonzero" fill-opacity="1" /><path clip-path="url(#clip040)" d="M1947.69 174.033 L1947.69 219.544 L1993.21 219.544 L1993.21 174.033 L1947.69 174.033 Z" fill="#3082bc" fill-rule="evenodd" fill-opacity="1" stroke="#000000" stroke-opacity="1" stroke-width="4.55111"/>
<path clip-path="url(#clip040)" d="M2095.98 173.879 Q2095.98 174.324 2095.88 174.699 L2094.57 183.037 Q2094.5 183.67 2094.36 183.904 Q2094.24 184.138 2093.87 184.138 Q2093.28 184.138 2093.28 183.529 Q2093.28 183.178 2093.42 182.616 Q2093.82 179.969 2093.82 178.774 Q2093.82 177.978 2093.66 177.392 Q2093.52 176.783 2093.28 176.362 Q2093.07 175.94 2092.58 175.659 Q2092.09 175.378 2091.62 175.214 Q2091.15 175.05 2090.31 174.98 Q2089.46 174.886 2088.74 174.863 Q2088.01 174.839 2086.82 174.839 Q2084.22 174.839 2083.8 174.933 Q2083.35 175.05 2083.12 175.401 Q2082.91 175.729 2082.67 176.713 L2076.3 202.173 L2076.11 203.18 Q2076.11 203.743 2076.46 203.93 Q2076.82 204.117 2077.89 204.234 Q2079.44 204.352 2080.96 204.352 Q2081.01 204.352 2081.1 204.352 Q2081.62 204.352 2081.83 204.375 Q2082.04 204.375 2082.25 204.422 Q2082.46 204.469 2082.51 204.586 Q2082.58 204.68 2082.58 204.867 Q2082.58 205.312 2082.39 205.546 Q2082.2 205.757 2082.02 205.804 Q2081.85 205.827 2081.52 205.827 Q2080.87 205.827 2079.46 205.78 Q2078.06 205.734 2077.35 205.734 L2073.37 205.687 L2069.3 205.734 Q2068.67 205.734 2067.33 205.78 Q2066 205.827 2065.36 205.827 Q2064.54 205.827 2064.54 205.242 Q2064.54 204.586 2064.85 204.469 Q2065.18 204.352 2066.56 204.352 Q2068.5 204.352 2069.56 204.258 Q2070.61 204.164 2071.17 203.836 Q2071.76 203.508 2071.92 203.18 Q2072.08 202.829 2072.27 202.033 L2078.71 176.432 Q2078.9 175.87 2078.9 175.425 Q2078.9 175.191 2078.83 175.097 Q2078.78 175.003 2078.48 174.933 Q2078.17 174.839 2077.54 174.839 L2075.67 174.839 Q2073.75 174.839 2072.55 174.933 Q2071.38 175.003 2070.26 175.355 Q2069.16 175.706 2068.5 176.198 Q2067.87 176.69 2067.17 177.697 Q2066.46 178.704 2065.95 179.922 Q2065.46 181.14 2064.75 183.131 Q2064.52 183.787 2064.38 183.974 Q2064.26 184.138 2063.93 184.138 Q2063.7 184.138 2063.51 183.997 Q2063.35 183.834 2063.35 183.623 Q2063.58 182.85 2063.63 182.756 L2066.51 174.301 Q2066.74 173.621 2066.96 173.504 Q2067.19 173.364 2068.06 173.364 L2094.66 173.364 Q2095.09 173.364 2095.23 173.364 Q2095.37 173.364 2095.6 173.411 Q2095.84 173.457 2095.91 173.575 Q2095.98 173.692 2095.98 173.879 Z" fill="#000000" fill-rule="nonzero" fill-opacity="1" /><path clip-path="url(#clip040)" d="M2100.77 206.463 L2100.77 205.413 L2103.4 205.413 L2103.4 201.56 Q2103.4 199.068 2105.01 197.642 Q2106.63 196.215 2108.62 196.215 Q2109.93 196.215 2110.78 196.92 Q2111.64 197.625 2111.64 198.576 Q2111.64 199.216 2111.24 199.642 Q2110.87 200.052 2110.16 200.052 Q2109.49 200.052 2109.09 199.626 Q2108.72 199.199 2108.72 198.609 Q2108.72 197.527 2109.72 197.199 Q2109.21 196.969 2108.62 196.953 Q2107.41 196.953 2106.45 198.199 Q2105.52 199.445 2105.52 201.527 L2105.52 205.413 L2109.45 205.413 L2109.45 206.463 L2105.63 206.463 L2105.63 217.267 Q2105.63 218.235 2106.03 218.546 Q2106.44 218.858 2108.18 218.858 L2108.88 218.858 L2108.88 219.891 Q2107.54 219.792 2104.62 219.792 Q2104.21 219.792 2103.57 219.809 Q2102.95 219.825 2102.09 219.858 Q2101.26 219.891 2100.8 219.891 L2100.8 218.858 Q2102.59 218.858 2103 218.645 Q2103.4 218.415 2103.4 217.333 L2103.4 206.463 L2100.77 206.463 Z" fill="#000000" fill-rule="nonzero" fill-opacity="1" /><path clip-path="url(#clip040)" d="M2113.99 219.891 Q2113.99 219.284 2114.04 219.104 Q2114.1 218.923 2114.36 218.645 L2120.81 211.463 Q2124.33 207.495 2124.33 204.036 Q2124.33 201.79 2123.15 200.183 Q2121.99 198.576 2119.84 198.576 Q2118.36 198.576 2117.12 199.478 Q2115.87 200.38 2115.3 201.987 Q2115.4 201.954 2115.74 201.954 Q2116.58 201.954 2117.04 202.478 Q2117.51 203.003 2117.51 203.708 Q2117.51 204.61 2116.92 205.053 Q2116.35 205.479 2115.77 205.479 Q2115.54 205.479 2115.23 205.43 Q2114.94 205.38 2114.46 204.921 Q2113.99 204.446 2113.99 203.61 Q2113.99 201.265 2115.76 199.396 Q2117.55 197.527 2120.27 197.527 Q2123.35 197.527 2125.37 199.363 Q2127.4 201.183 2127.4 204.036 Q2127.4 205.036 2127.09 205.954 Q2126.79 206.856 2126.38 207.561 Q2125.99 208.266 2124.91 209.397 Q2123.82 210.529 2122.96 211.332 Q2122.09 212.135 2120.14 213.841 L2116.58 217.3 L2122.63 217.3 Q2125.58 217.3 2125.81 217.038 Q2126.14 216.562 2126.55 214.054 L2127.4 214.054 L2126.45 219.891 L2113.99 219.891 Z" fill="#000000" fill-rule="nonzero" fill-opacity="1" /><path clip-path="url(#clip040)" d="M2137.63 199.948 L2142.51 199.948 L2142.51 203.929 L2138.72 211.336 L2135.73 211.336 L2137.63 203.929 L2137.63 199.948 Z" fill="#000000" fill-rule="nonzero" fill-opacity="1" /><path clip-path="url(#clip040)" d="M2188.86 191.8 L2188.86 193.883 L2169.27 193.883 Q2169.55 198.281 2171.91 200.596 Q2174.3 202.887 2178.53 202.887 Q2180.99 202.887 2183.28 202.286 Q2185.59 201.684 2187.86 200.48 L2187.86 204.508 Q2185.57 205.48 2183.16 205.989 Q2180.76 206.499 2178.28 206.499 Q2172.07 206.499 2168.44 202.887 Q2164.83 199.276 2164.83 193.119 Q2164.83 186.753 2168.26 183.026 Q2171.7 179.276 2177.54 179.276 Q2182.77 179.276 2185.8 182.656 Q2188.86 186.013 2188.86 191.8 M2184.6 190.55 Q2184.55 187.054 2182.63 184.971 Q2180.73 182.888 2177.58 182.888 Q2174.02 182.888 2171.87 184.901 Q2169.74 186.915 2169.41 190.573 L2184.6 190.55 Z" fill="#000000" fill-rule="nonzero" fill-opacity="1" /><path clip-path="url(#clip040)" d="M2216.57 179.901 L2207.19 192.517 L2217.05 205.827 L2212.03 205.827 L2204.48 195.642 L2196.94 205.827 L2191.91 205.827 L2201.98 192.262 L2192.77 179.901 L2197.79 179.901 L2204.67 189.137 L2211.54 179.901 L2216.57 179.901 Z" fill="#000000" fill-rule="nonzero" fill-opacity="1" /><path clip-path="url(#clip040)" d="M2227.19 201.938 L2227.19 215.688 L2222.91 215.688 L2222.91 179.901 L2227.19 179.901 L2227.19 183.837 Q2228.53 181.522 2230.57 180.411 Q2232.63 179.276 2235.48 179.276 Q2240.2 179.276 2243.14 183.026 Q2246.1 186.776 2246.1 192.887 Q2246.1 198.999 2243.14 202.749 Q2240.2 206.499 2235.48 206.499 Q2232.63 206.499 2230.57 205.387 Q2228.53 204.253 2227.19 201.938 M2241.68 192.887 Q2241.68 188.188 2239.74 185.526 Q2237.82 182.841 2234.44 182.841 Q2231.06 182.841 2229.11 185.526 Q2227.19 188.188 2227.19 192.887 Q2227.19 197.587 2229.11 200.272 Q2231.06 202.934 2234.44 202.934 Q2237.82 202.934 2239.74 200.272 Q2241.68 197.587 2241.68 192.887 Z" fill="#000000" fill-rule="nonzero" fill-opacity="1" /><path clip-path="url(#clip040)" d="M2253.76 199.948 L2258.65 199.948 L2258.65 205.827 L2253.76 205.827 L2253.76 199.948 Z" fill="#000000" fill-rule="nonzero" fill-opacity="1" /><path clip-path="url(#clip040)" d="M1970.45 225.873 L1947.69 248.629 L1970.45 271.384 L1993.21 248.629 L1970.45 225.873 Z" fill="#6badd5" fill-rule="evenodd" fill-opacity="1" stroke="#000000" stroke-opacity="1" stroke-width="4.55111"/>
<path clip-path="url(#clip040)" d="M2095.98 225.353 Q2095.98 225.798 2095.88 226.172 L2094.57 234.511 Q2094.5 235.143 2094.36 235.377 Q2094.24 235.612 2093.87 235.612 Q2093.28 235.612 2093.28 235.003 Q2093.28 234.651 2093.42 234.089 Q2093.82 231.442 2093.82 230.248 Q2093.82 229.452 2093.66 228.866 Q2093.52 228.257 2093.28 227.835 Q2093.07 227.414 2092.58 227.133 Q2092.09 226.852 2091.62 226.688 Q2091.15 226.524 2090.31 226.453 Q2089.46 226.36 2088.74 226.336 Q2088.01 226.313 2086.82 226.313 Q2084.22 226.313 2083.8 226.407 Q2083.35 226.524 2083.12 226.875 Q2082.91 227.203 2082.67 228.187 L2076.3 253.647 L2076.11 254.654 Q2076.11 255.216 2076.46 255.404 Q2076.82 255.591 2077.89 255.708 Q2079.44 255.825 2080.96 255.825 Q2081.01 255.825 2081.1 255.825 Q2081.62 255.825 2081.83 255.849 Q2082.04 255.849 2082.25 255.895 Q2082.46 255.942 2082.51 256.059 Q2082.58 256.153 2082.58 256.34 Q2082.58 256.786 2082.39 257.02 Q2082.2 257.231 2082.02 257.277 Q2081.85 257.301 2081.52 257.301 Q2080.87 257.301 2079.46 257.254 Q2078.06 257.207 2077.35 257.207 L2073.37 257.16 L2069.3 257.207 Q2068.67 257.207 2067.33 257.254 Q2066 257.301 2065.36 257.301 Q2064.54 257.301 2064.54 256.715 Q2064.54 256.059 2064.85 255.942 Q2065.18 255.825 2066.56 255.825 Q2068.5 255.825 2069.56 255.732 Q2070.61 255.638 2071.17 255.31 Q2071.76 254.982 2071.92 254.654 Q2072.08 254.303 2072.27 253.506 L2078.71 227.906 Q2078.9 227.344 2078.9 226.898 Q2078.9 226.664 2078.83 226.571 Q2078.78 226.477 2078.48 226.407 Q2078.17 226.313 2077.54 226.313 L2075.67 226.313 Q2073.75 226.313 2072.55 226.407 Q2071.38 226.477 2070.26 226.828 Q2069.16 227.18 2068.5 227.671 Q2067.87 228.163 2067.17 229.17 Q2066.46 230.178 2065.95 231.396 Q2065.46 232.614 2064.75 234.604 Q2064.52 235.26 2064.38 235.448 Q2064.26 235.612 2063.93 235.612 Q2063.7 235.612 2063.51 235.471 Q2063.35 235.307 2063.35 235.096 Q2063.58 234.323 2063.63 234.23 L2066.51 225.774 Q2066.74 225.095 2066.96 224.978 Q2067.19 224.837 2068.06 224.837 L2094.66 224.837 Q2095.09 224.837 2095.23 224.837 Q2095.37 224.837 2095.6 224.884 Q2095.84 224.931 2095.91 225.048 Q2095.98 225.165 2095.98 225.353 Z" fill="#000000" fill-rule="nonzero" fill-opacity="1" /><path clip-path="url(#clip040)" d="M2100.77 257.936 L2100.77 256.887 L2103.4 256.887 L2103.4 253.034 Q2103.4 250.542 2105.01 249.115 Q2106.63 247.689 2108.62 247.689 Q2109.93 247.689 2110.78 248.394 Q2111.64 249.099 2111.64 250.05 Q2111.64 250.689 2111.24 251.116 Q2110.87 251.525 2110.16 251.525 Q2109.49 251.525 2109.09 251.099 Q2108.72 250.673 2108.72 250.083 Q2108.72 249 2109.72 248.673 Q2109.21 248.443 2108.62 248.427 Q2107.41 248.427 2106.45 249.673 Q2105.52 250.919 2105.52 253.001 L2105.52 256.887 L2109.45 256.887 L2109.45 257.936 L2105.63 257.936 L2105.63 268.741 Q2105.63 269.708 2106.03 270.02 Q2106.44 270.331 2108.18 270.331 L2108.88 270.331 L2108.88 271.364 Q2107.54 271.266 2104.62 271.266 Q2104.21 271.266 2103.57 271.282 Q2102.95 271.299 2102.09 271.331 Q2101.26 271.364 2100.8 271.364 L2100.8 270.331 Q2102.59 270.331 2103 270.118 Q2103.4 269.889 2103.4 268.807 L2103.4 257.936 L2100.77 257.936 Z" fill="#000000" fill-rule="nonzero" fill-opacity="1" /><path clip-path="url(#clip040)" d="M2113.99 266.839 Q2113.99 265.839 2114.56 265.363 Q2115.14 264.888 2115.87 264.888 Q2116.64 264.888 2117.18 265.396 Q2117.74 265.888 2117.74 266.757 Q2117.74 267.692 2117.09 268.216 Q2116.45 268.741 2115.53 268.61 Q2116.33 269.954 2117.81 270.561 Q2119.3 271.167 2120.68 271.167 Q2122.12 271.167 2123.28 269.921 Q2124.46 268.675 2124.46 265.626 Q2124.46 263.035 2123.45 261.543 Q2122.45 260.051 2120.46 260.051 L2118.99 260.051 Q2118.48 260.051 2118.33 260.002 Q2118.18 259.953 2118.18 259.674 Q2118.18 259.346 2118.69 259.281 Q2119.2 259.281 2120 259.182 Q2121.96 259.117 2122.99 257.428 Q2123.92 255.854 2123.92 253.608 Q2123.92 251.558 2122.94 250.706 Q2121.97 249.837 2120.71 249.837 Q2119.53 249.837 2118.23 250.329 Q2116.94 250.82 2116.23 251.919 Q2118.32 251.919 2118.32 253.608 Q2118.32 254.345 2117.84 254.837 Q2117.38 255.313 2116.61 255.313 Q2115.87 255.313 2115.38 254.854 Q2114.89 254.378 2114.89 253.575 Q2114.89 251.657 2116.59 250.329 Q2118.32 249 2120.84 249 Q2123.33 249 2125.17 250.312 Q2127.02 251.624 2127.02 253.64 Q2127.02 255.624 2125.71 257.248 Q2124.4 258.871 2122.32 259.543 Q2124.87 260.051 2126.4 261.789 Q2127.92 263.511 2127.92 265.626 Q2127.92 268.249 2125.86 270.184 Q2123.79 272.102 2120.78 272.102 Q2117.99 272.102 2115.99 270.594 Q2113.99 269.085 2113.99 266.839 Z" fill="#000000" fill-rule="nonzero" fill-opacity="1" /><path clip-path="url(#clip040)" d="M2137.63 251.421 L2142.51 251.421 L2142.51 255.403 L2138.72 262.81 L2135.73 262.81 L2137.63 255.403 L2137.63 251.421 Z" fill="#000000" fill-rule="nonzero" fill-opacity="1" /><path clip-path="url(#clip040)" d="M2188.86 243.273 L2188.86 245.356 L2169.27 245.356 Q2169.55 249.755 2171.91 252.069 Q2174.3 254.361 2178.53 254.361 Q2180.99 254.361 2183.28 253.759 Q2185.59 253.157 2187.86 251.954 L2187.86 255.981 Q2185.57 256.954 2183.16 257.463 Q2180.76 257.972 2178.28 257.972 Q2172.07 257.972 2168.44 254.361 Q2164.83 250.75 2164.83 244.593 Q2164.83 238.227 2168.26 234.5 Q2171.7 230.75 2177.54 230.75 Q2182.77 230.75 2185.8 234.13 Q2188.86 237.486 2188.86 243.273 M2184.6 242.023 Q2184.55 238.528 2182.63 236.444 Q2180.73 234.361 2177.58 234.361 Q2174.02 234.361 2171.87 236.375 Q2169.74 238.389 2169.41 242.046 L2184.6 242.023 Z" fill="#000000" fill-rule="nonzero" fill-opacity="1" /><path clip-path="url(#clip040)" d="M2216.57 231.375 L2207.19 243.991 L2217.05 257.301 L2212.03 257.301 L2204.48 247.116 L2196.94 257.301 L2191.91 257.301 L2201.98 243.736 L2192.77 231.375 L2197.79 231.375 L2204.67 240.611 L2211.54 231.375 L2216.57 231.375 Z" fill="#000000" fill-rule="nonzero" fill-opacity="1" /><path clip-path="url(#clip040)" d="M2227.19 253.412 L2227.19 267.162 L2222.91 267.162 L2222.91 231.375 L2227.19 231.375 L2227.19 235.31 Q2228.53 232.995 2230.57 231.884 Q2232.63 230.75 2235.48 230.75 Q2240.2 230.75 2243.14 234.5 Q2246.1 238.25 2246.1 244.361 Q2246.1 250.472 2243.14 254.222 Q2240.2 257.972 2235.48 257.972 Q2232.63 257.972 2230.57 256.861 Q2228.53 255.727 2227.19 253.412 M2241.68 244.361 Q2241.68 239.662 2239.74 237 Q2237.82 234.315 2234.44 234.315 Q2231.06 234.315 2229.11 237 Q2227.19 239.662 2227.19 244.361 Q2227.19 249.06 2229.11 251.745 Q2231.06 254.407 2234.44 254.407 Q2237.82 254.407 2239.74 251.745 Q2241.68 249.06 2241.68 244.361 Z" fill="#000000" fill-rule="nonzero" fill-opacity="1" /><path clip-path="url(#clip040)" d="M2253.76 251.421 L2258.65 251.421 L2258.65 257.301 L2253.76 257.301 L2253.76 251.421 Z" fill="#000000" fill-rule="nonzero" fill-opacity="1" /><path clip-path="url(#clip040)" d="M1970.45 323.224 L1950.74 311.846 L1950.74 289.091 L1970.45 277.713 L1990.16 289.091 L1990.16 311.846 Z" fill="#bcd6e7" fill-rule="evenodd" fill-opacity="1" stroke="#000000" stroke-opacity="1" stroke-width="4.55111"/>
<path clip-path="url(#clip040)" d="M2095.98 277.559 Q2095.98 278.004 2095.88 278.379 L2094.57 286.717 Q2094.5 287.35 2094.36 287.584 Q2094.24 287.818 2093.87 287.818 Q2093.28 287.818 2093.28 287.209 Q2093.28 286.858 2093.42 286.296 Q2093.82 283.649 2093.82 282.454 Q2093.82 281.658 2093.66 281.072 Q2093.52 280.463 2093.28 280.042 Q2093.07 279.62 2092.58 279.339 Q2092.09 279.058 2091.62 278.894 Q2091.15 278.73 2090.31 278.66 Q2089.46 278.566 2088.74 278.543 Q2088.01 278.519 2086.82 278.519 Q2084.22 278.519 2083.8 278.613 Q2083.35 278.73 2083.12 279.081 Q2082.91 279.409 2082.67 280.393 L2076.3 305.853 L2076.11 306.86 Q2076.11 307.423 2076.46 307.61 Q2076.82 307.797 2077.89 307.914 Q2079.44 308.032 2080.96 308.032 Q2081.01 308.032 2081.1 308.032 Q2081.62 308.032 2081.83 308.055 Q2082.04 308.055 2082.25 308.102 Q2082.46 308.149 2082.51 308.266 Q2082.58 308.36 2082.58 308.547 Q2082.58 308.992 2082.39 309.226 Q2082.2 309.437 2082.02 309.484 Q2081.85 309.507 2081.52 309.507 Q2080.87 309.507 2079.46 309.46 Q2078.06 309.414 2077.35 309.414 L2073.37 309.367 L2069.3 309.414 Q2068.67 309.414 2067.33 309.46 Q2066 309.507 2065.36 309.507 Q2064.54 309.507 2064.54 308.922 Q2064.54 308.266 2064.85 308.149 Q2065.18 308.032 2066.56 308.032 Q2068.5 308.032 2069.56 307.938 Q2070.61 307.844 2071.17 307.516 Q2071.76 307.188 2071.92 306.86 Q2072.08 306.509 2072.27 305.713 L2078.71 280.112 Q2078.9 279.55 2078.9 279.105 Q2078.9 278.871 2078.83 278.777 Q2078.78 278.683 2078.48 278.613 Q2078.17 278.519 2077.54 278.519 L2075.67 278.519 Q2073.75 278.519 2072.55 278.613 Q2071.38 278.683 2070.26 279.035 Q2069.16 279.386 2068.5 279.878 Q2067.87 280.37 2067.17 281.377 Q2066.46 282.384 2065.95 283.602 Q2065.46 284.82 2064.75 286.811 Q2064.52 287.467 2064.38 287.654 Q2064.26 287.818 2063.93 287.818 Q2063.7 287.818 2063.51 287.677 Q2063.35 287.514 2063.35 287.303 Q2063.58 286.53 2063.63 286.436 L2066.51 277.981 Q2066.74 277.301 2066.96 277.184 Q2067.19 277.044 2068.06 277.044 L2094.66 277.044 Q2095.09 277.044 2095.23 277.044 Q2095.37 277.044 2095.6 277.091 Q2095.84 277.137 2095.91 277.255 Q2095.98 277.372 2095.98 277.559 Z" fill="#000000" fill-rule="nonzero" fill-opacity="1" /><path clip-path="url(#clip040)" d="M2100.77 310.143 L2100.77 309.093 L2103.4 309.093 L2103.4 305.24 Q2103.4 302.748 2105.01 301.322 Q2106.63 299.895 2108.62 299.895 Q2109.93 299.895 2110.78 300.6 Q2111.64 301.305 2111.64 302.256 Q2111.64 302.896 2111.24 303.322 Q2110.87 303.732 2110.16 303.732 Q2109.49 303.732 2109.09 303.306 Q2108.72 302.879 2108.72 302.289 Q2108.72 301.207 2109.72 300.879 Q2109.21 300.649 2108.62 300.633 Q2107.41 300.633 2106.45 301.879 Q2105.52 303.125 2105.52 305.207 L2105.52 309.093 L2109.45 309.093 L2109.45 310.143 L2105.63 310.143 L2105.63 320.947 Q2105.63 321.915 2106.03 322.226 Q2106.44 322.538 2108.18 322.538 L2108.88 322.538 L2108.88 323.571 Q2107.54 323.472 2104.62 323.472 Q2104.21 323.472 2103.57 323.489 Q2102.95 323.505 2102.09 323.538 Q2101.26 323.571 2100.8 323.571 L2100.8 322.538 Q2102.59 322.538 2103 322.325 Q2103.4 322.095 2103.4 321.013 L2103.4 310.143 L2100.77 310.143 Z" fill="#000000" fill-rule="nonzero" fill-opacity="1" /><path clip-path="url(#clip040)" d="M2113.32 318.029 L2113.32 316.996 L2123.63 301.24 Q2123.89 300.83 2124.3 300.846 Q2124.68 300.846 2124.76 300.994 Q2124.84 301.141 2124.84 301.715 L2124.84 316.996 L2128.2 316.996 L2128.2 318.029 L2124.84 318.029 L2124.84 320.947 Q2124.84 321.915 2125.23 322.226 Q2125.64 322.538 2127.38 322.538 L2128.09 322.538 L2128.09 323.571 Q2126.71 323.472 2123.53 323.472 Q2120.37 323.472 2118.99 323.571 L2118.99 322.538 L2119.69 322.538 Q2121.43 322.538 2121.84 322.243 Q2122.25 321.931 2122.25 320.947 L2122.25 318.029 L2113.32 318.029 M2114.27 316.996 L2122.45 316.996 L2122.45 304.47 L2114.27 316.996 Z" fill="#000000" fill-rule="nonzero" fill-opacity="1" /><path clip-path="url(#clip040)" d="M2136.96 303.628 L2141.84 303.628 L2141.84 307.609 L2138.05 315.016 L2135.06 315.016 L2136.96 307.609 L2136.96 303.628 Z" fill="#000000" fill-rule="nonzero" fill-opacity="1" /><path clip-path="url(#clip040)" d="M2188.19 295.48 L2188.19 297.563 L2168.6 297.563 Q2168.88 301.961 2171.24 304.276 Q2173.62 306.567 2177.86 306.567 Q2180.31 306.567 2182.61 305.966 Q2184.92 305.364 2187.19 304.16 L2187.19 308.188 Q2184.9 309.16 2182.49 309.669 Q2180.08 310.179 2177.61 310.179 Q2171.4 310.179 2167.77 306.567 Q2164.16 302.956 2164.16 296.799 Q2164.16 290.433 2167.58 286.706 Q2171.03 282.956 2176.87 282.956 Q2182.1 282.956 2185.13 286.336 Q2188.19 289.693 2188.19 295.48 M2183.93 294.23 Q2183.88 290.734 2181.96 288.651 Q2180.06 286.568 2176.91 286.568 Q2173.35 286.568 2171.19 288.581 Q2169.06 290.595 2168.74 294.253 L2183.93 294.23 Z" fill="#000000" fill-rule="nonzero" fill-opacity="1" /><path clip-path="url(#clip040)" d="M2215.89 283.581 L2206.52 296.197 L2216.38 309.507 L2211.36 309.507 L2203.81 299.322 L2196.26 309.507 L2191.24 309.507 L2201.31 295.942 L2192.1 283.581 L2197.12 283.581 L2204 292.817 L2210.87 283.581 L2215.89 283.581 Z" fill="#000000" fill-rule="nonzero" fill-opacity="1" /><path clip-path="url(#clip040)" d="M2226.52 305.618 L2226.52 319.368 L2222.24 319.368 L2222.24 283.581 L2226.52 283.581 L2226.52 287.517 Q2227.86 285.202 2229.9 284.091 Q2231.96 282.956 2234.81 282.956 Q2239.53 282.956 2242.47 286.706 Q2245.43 290.456 2245.43 296.567 Q2245.43 302.679 2242.47 306.429 Q2239.53 310.179 2234.81 310.179 Q2231.96 310.179 2229.9 309.067 Q2227.86 307.933 2226.52 305.618 M2241.01 296.567 Q2241.01 291.868 2239.06 289.206 Q2237.14 286.521 2233.76 286.521 Q2230.38 286.521 2228.44 289.206 Q2226.52 291.868 2226.52 296.567 Q2226.52 301.267 2228.44 303.952 Q2230.38 306.614 2233.76 306.614 Q2237.14 306.614 2239.06 303.952 Q2241.01 301.267 2241.01 296.567 Z" fill="#000000" fill-rule="nonzero" fill-opacity="1" /><path clip-path="url(#clip040)" d="M2253.09 303.628 L2257.98 303.628 L2257.98 309.507 L2253.09 309.507 L2253.09 303.628 Z" fill="#000000" fill-rule="nonzero" fill-opacity="1" /></svg>
