<?xml version="1.0" encoding="utf-8"?>
<svg xmlns="http://www.w3.org/2000/svg" xmlns:xlink="http://www.w3.org/1999/xlink" width="600" height="400" viewBox="0 0 2400 1600">
<defs>
  <clipPath id="clip620">
    <rect x="0" y="0" width="2400" height="1600"/>
  </clipPath>
</defs>
<path clip-path="url(#clip620)" d="M0 1600 L2400 1600 L2400 0 L0 0  Z" fill="#ffffff" fill-rule="evenodd" fill-opacity="1"/>
<defs>
  <clipPath id="clip621">
    <rect x="480" y="0" width="1681" height="1600"/>
  </clipPath>
</defs>
<path clip-path="url(#clip620)" d="M307.782 1486.45 L2352.76 1486.45 L2352.76 47.2441 L307.782 47.2441  Z" fill="#ffffff" fill-rule="evenodd" fill-opacity="1"/>
<defs>
  <clipPath id="clip622">
    <rect x="307" y="47" width="2046" height="1440"/>
  </clipPath>
</defs>
<polyline clip-path="url(#clip622)" style="stroke:#000000; stroke-linecap:round; stroke-linejoin:round; stroke-width:2; stroke-opacity:0.1; fill:none" points="307.782,1486.45 307.782,47.2441 "/>
<polyline clip-path="url(#clip622)" style="stroke:#000000; stroke-linecap:round; stroke-linejoin:round; stroke-width:2; stroke-opacity:0.1; fill:none" points="819.026,1486.45 819.026,47.2441 "/>
<polyline clip-path="url(#clip622)" style="stroke:#000000; stroke-linecap:round; stroke-linejoin:round; stroke-width:2; stroke-opacity:0.1; fill:none" points="1330.27,1486.45 1330.27,47.2441 "/>
<polyline clip-path="url(#clip622)" style="stroke:#000000; stroke-linecap:round; stroke-linejoin:round; stroke-width:2; stroke-opacity:0.1; fill:none" points="1841.51,1486.45 1841.51,47.2441 "/>
<polyline clip-path="url(#clip622)" style="stroke:#000000; stroke-linecap:round; stroke-linejoin:round; stroke-width:2; stroke-opacity:0.1; fill:none" points="2352.76,1486.45 2352.76,47.2441 "/>
<polyline clip-path="url(#clip622)" style="stroke:#000000; stroke-linecap:round; stroke-linejoin:round; stroke-width:2; stroke-opacity:0.1; fill:none" points="307.782,1486.45 2352.76,1486.45 "/>
<polyline clip-path="url(#clip622)" style="stroke:#000000; stroke-linecap:round; stroke-linejoin:round; stroke-width:2; stroke-opacity:0.1; fill:none" points="307.782,1126.65 2352.76,1126.65 "/>
<polyline clip-path="url(#clip622)" style="stroke:#000000; stroke-linecap:round; stroke-linejoin:round; stroke-width:2; stroke-opacity:0.1; fill:none" points="307.782,766.846 2352.76,766.846 "/>
<polyline clip-path="url(#clip622)" style="stroke:#000000; stroke-linecap:round; stroke-linejoin:round; stroke-width:2; stroke-opacity:0.1; fill:none" points="307.782,407.045 2352.76,407.045 "/>
<polyline clip-path="url(#clip622)" style="stroke:#000000; stroke-linecap:round; stroke-linejoin:round; stroke-width:2; stroke-opacity:0.1; fill:none" points="307.782,47.2441 2352.76,47.2441 "/>
<polyline clip-path="url(#clip620)" style="stroke:#000000; stroke-linecap:round; stroke-linejoin:round; stroke-width:4; stroke-opacity:1; fill:none" points="307.782,1486.45 2352.76,1486.45 "/>
<polyline clip-path="url(#clip620)" style="stroke:#000000; stroke-linecap:round; stroke-linejoin:round; stroke-width:4; stroke-opacity:1; fill:none" points="307.782,1486.45 307.782,1467.55 "/>
<polyline clip-path="url(#clip620)" style="stroke:#000000; stroke-linecap:round; stroke-linejoin:round; stroke-width:4; stroke-opacity:1; fill:none" points="819.026,1486.45 819.026,1467.55 "/>
<polyline clip-path="url(#clip620)" style="stroke:#000000; stroke-linecap:round; stroke-linejoin:round; stroke-width:4; stroke-opacity:1; fill:none" points="1330.27,1486.45 1330.27,1467.55 "/>
<polyline clip-path="url(#clip620)" style="stroke:#000000; stroke-linecap:round; stroke-linejoin:round; stroke-width:4; stroke-opacity:1; fill:none" points="1841.51,1486.45 1841.51,1467.55 "/>
<polyline clip-path="url(#clip620)" style="stroke:#000000; stroke-linecap:round; stroke-linejoin:round; stroke-width:4; stroke-opacity:1; fill:none" points="2352.76,1486.45 2352.76,1467.55 "/>
<path clip-path="url(#clip620)" d="M259.854 1544.91 L267.493 1544.91 L267.493 1518.55 L259.183 1520.21 L259.183 1515.95 L267.447 1514.29 L272.123 1514.29 L272.123 1544.91 L279.762 1544.91 L279.762 1548.85 L259.854 1548.85 L259.854 1544.91 Z" fill="#000000" fill-rule="nonzero" fill-opacity="1" /><path clip-path="url(#clip620)" d="M289.206 1542.97 L294.09 1542.97 L294.09 1548.85 L289.206 1548.85 L289.206 1542.97 Z" fill="#000000" fill-rule="nonzero" fill-opacity="1" /><path clip-path="url(#clip620)" d="M314.275 1517.37 Q310.664 1517.37 308.836 1520.93 Q307.03 1524.47 307.03 1531.6 Q307.03 1538.71 308.836 1542.27 Q310.664 1545.82 314.275 1545.82 Q317.91 1545.82 319.715 1542.27 Q321.544 1538.71 321.544 1531.6 Q321.544 1524.47 319.715 1520.93 Q317.91 1517.37 314.275 1517.37 M314.275 1513.66 Q320.086 1513.66 323.141 1518.27 Q326.22 1522.85 326.22 1531.6 Q326.22 1540.33 323.141 1544.94 Q320.086 1549.52 314.275 1549.52 Q308.465 1549.52 305.387 1544.94 Q302.331 1540.33 302.331 1531.6 Q302.331 1522.85 305.387 1518.27 Q308.465 1513.66 314.275 1513.66 Z" fill="#000000" fill-rule="nonzero" fill-opacity="1" /><path clip-path="url(#clip620)" d="M344.437 1517.37 Q340.826 1517.37 338.998 1520.93 Q337.192 1524.47 337.192 1531.6 Q337.192 1538.71 338.998 1542.27 Q340.826 1545.82 344.437 1545.82 Q348.072 1545.82 349.877 1542.27 Q351.706 1538.71 351.706 1531.6 Q351.706 1524.47 349.877 1520.93 Q348.072 1517.37 344.437 1517.37 M344.437 1513.66 Q350.248 1513.66 353.303 1518.27 Q356.382 1522.85 356.382 1531.6 Q356.382 1540.33 353.303 1544.94 Q350.248 1549.52 344.437 1549.52 Q338.627 1549.52 335.549 1544.94 Q332.493 1540.33 332.493 1531.6 Q332.493 1522.85 335.549 1518.27 Q338.627 1513.66 344.437 1513.66 Z" fill="#000000" fill-rule="nonzero" fill-opacity="1" /><path clip-path="url(#clip620)" d="M771.596 1544.91 L779.234 1544.91 L779.234 1518.55 L770.924 1520.21 L770.924 1515.95 L779.188 1514.29 L783.864 1514.29 L783.864 1544.91 L791.503 1544.91 L791.503 1548.85 L771.596 1548.85 L771.596 1544.91 Z" fill="#000000" fill-rule="nonzero" fill-opacity="1" /><path clip-path="url(#clip620)" d="M800.947 1542.97 L805.831 1542.97 L805.831 1548.85 L800.947 1548.85 L800.947 1542.97 Z" fill="#000000" fill-rule="nonzero" fill-opacity="1" /><path clip-path="url(#clip620)" d="M820.044 1544.91 L836.364 1544.91 L836.364 1548.85 L814.419 1548.85 L814.419 1544.91 Q817.081 1542.16 821.665 1537.53 Q826.271 1532.88 827.452 1531.53 Q829.697 1529.01 830.577 1527.27 Q831.479 1525.51 831.479 1523.82 Q831.479 1521.07 829.535 1519.33 Q827.614 1517.6 824.512 1517.6 Q822.313 1517.6 819.859 1518.36 Q817.429 1519.13 814.651 1520.68 L814.651 1515.95 Q817.475 1514.82 819.929 1514.24 Q822.382 1513.66 824.419 1513.66 Q829.79 1513.66 832.984 1516.35 Q836.179 1519.03 836.179 1523.52 Q836.179 1525.65 835.368 1527.57 Q834.581 1529.47 832.475 1532.07 Q831.896 1532.74 828.794 1535.95 Q825.692 1539.15 820.044 1544.91 Z" fill="#000000" fill-rule="nonzero" fill-opacity="1" /><path clip-path="url(#clip620)" d="M846.225 1514.29 L864.581 1514.29 L864.581 1518.22 L850.507 1518.22 L850.507 1526.7 Q851.526 1526.35 852.544 1526.19 Q853.563 1526 854.581 1526 Q860.368 1526 863.748 1529.17 Q867.127 1532.34 867.127 1537.76 Q867.127 1543.34 863.655 1546.44 Q860.183 1549.52 853.864 1549.52 Q851.688 1549.52 849.419 1549.15 Q847.174 1548.78 844.766 1548.04 L844.766 1543.34 Q846.85 1544.47 849.072 1545.03 Q851.294 1545.58 853.771 1545.58 Q857.776 1545.58 860.114 1543.48 Q862.452 1541.37 862.452 1537.76 Q862.452 1534.15 860.114 1532.04 Q857.776 1529.94 853.771 1529.94 Q851.896 1529.94 850.021 1530.35 Q848.169 1530.77 846.225 1531.65 L846.225 1514.29 Z" fill="#000000" fill-rule="nonzero" fill-opacity="1" /><path clip-path="url(#clip620)" d="M1282.34 1544.91 L1289.98 1544.91 L1289.98 1518.55 L1281.67 1520.21 L1281.67 1515.95 L1289.93 1514.29 L1294.61 1514.29 L1294.61 1544.91 L1302.25 1544.91 L1302.25 1548.85 L1282.34 1548.85 L1282.34 1544.91 Z" fill="#000000" fill-rule="nonzero" fill-opacity="1" /><path clip-path="url(#clip620)" d="M1311.69 1542.97 L1316.58 1542.97 L1316.58 1548.85 L1311.69 1548.85 L1311.69 1542.97 Z" fill="#000000" fill-rule="nonzero" fill-opacity="1" /><path clip-path="url(#clip620)" d="M1326.81 1514.29 L1345.16 1514.29 L1345.16 1518.22 L1331.09 1518.22 L1331.09 1526.7 Q1332.11 1526.35 1333.13 1526.19 Q1334.15 1526 1335.16 1526 Q1340.95 1526 1344.33 1529.17 Q1347.71 1532.34 1347.71 1537.76 Q1347.71 1543.34 1344.24 1546.44 Q1340.77 1549.52 1334.45 1549.52 Q1332.27 1549.52 1330 1549.15 Q1327.76 1548.78 1325.35 1548.04 L1325.35 1543.34 Q1327.43 1544.47 1329.66 1545.03 Q1331.88 1545.58 1334.35 1545.58 Q1338.36 1545.58 1340.7 1543.48 Q1343.04 1541.37 1343.04 1537.76 Q1343.04 1534.15 1340.7 1532.04 Q1338.36 1529.94 1334.35 1529.94 Q1332.48 1529.94 1330.6 1530.35 Q1328.75 1530.77 1326.81 1531.65 L1326.81 1514.29 Z" fill="#000000" fill-rule="nonzero" fill-opacity="1" /><path clip-path="url(#clip620)" d="M1366.92 1517.37 Q1363.31 1517.37 1361.48 1520.93 Q1359.68 1524.47 1359.68 1531.6 Q1359.68 1538.71 1361.48 1542.27 Q1363.31 1545.82 1366.92 1545.82 Q1370.56 1545.82 1372.36 1542.27 Q1374.19 1538.71 1374.19 1531.6 Q1374.19 1524.47 1372.36 1520.93 Q1370.56 1517.37 1366.92 1517.37 M1366.92 1513.66 Q1372.73 1513.66 1375.79 1518.27 Q1378.87 1522.85 1378.87 1531.6 Q1378.87 1540.33 1375.79 1544.94 Q1372.73 1549.52 1366.92 1549.52 Q1361.11 1549.52 1358.04 1544.94 Q1354.98 1540.33 1354.98 1531.6 Q1354.98 1522.85 1358.04 1518.27 Q1361.11 1513.66 1366.92 1513.66 Z" fill="#000000" fill-rule="nonzero" fill-opacity="1" /><path clip-path="url(#clip620)" d="M1794.08 1544.91 L1801.72 1544.91 L1801.72 1518.55 L1793.41 1520.21 L1793.41 1515.95 L1801.67 1514.29 L1806.35 1514.29 L1806.35 1544.91 L1813.99 1544.91 L1813.99 1548.85 L1794.08 1548.85 L1794.08 1544.91 Z" fill="#000000" fill-rule="nonzero" fill-opacity="1" /><path clip-path="url(#clip620)" d="M1823.43 1542.97 L1828.32 1542.97 L1828.32 1548.85 L1823.43 1548.85 L1823.43 1542.97 Z" fill="#000000" fill-rule="nonzero" fill-opacity="1" /><path clip-path="url(#clip620)" d="M1837.32 1514.29 L1859.54 1514.29 L1859.54 1516.28 L1847 1548.85 L1842.11 1548.85 L1853.92 1518.22 L1837.32 1518.22 L1837.32 1514.29 Z" fill="#000000" fill-rule="nonzero" fill-opacity="1" /><path clip-path="url(#clip620)" d="M1868.71 1514.29 L1887.07 1514.29 L1887.07 1518.22 L1872.99 1518.22 L1872.99 1526.7 Q1874.01 1526.35 1875.03 1526.19 Q1876.05 1526 1877.07 1526 Q1882.85 1526 1886.23 1529.17 Q1889.61 1532.34 1889.61 1537.76 Q1889.61 1543.34 1886.14 1546.44 Q1882.67 1549.52 1876.35 1549.52 Q1874.17 1549.52 1871.91 1549.15 Q1869.66 1548.78 1867.25 1548.04 L1867.25 1543.34 Q1869.34 1544.47 1871.56 1545.03 Q1873.78 1545.58 1876.26 1545.58 Q1880.26 1545.58 1882.6 1543.48 Q1884.94 1541.37 1884.94 1537.76 Q1884.94 1534.15 1882.6 1532.04 Q1880.26 1529.94 1876.26 1529.94 Q1874.38 1529.94 1872.51 1530.35 Q1870.66 1530.77 1868.71 1531.65 L1868.71 1514.29 Z" fill="#000000" fill-rule="nonzero" fill-opacity="1" /><path clip-path="url(#clip620)" d="M2308.91 1544.91 L2325.23 1544.91 L2325.23 1548.85 L2303.29 1548.85 L2303.29 1544.91 Q2305.95 1542.16 2310.53 1537.53 Q2315.14 1532.88 2316.32 1531.53 Q2318.57 1529.01 2319.45 1527.27 Q2320.35 1525.51 2320.35 1523.82 Q2320.35 1521.07 2318.4 1519.33 Q2316.48 1517.6 2313.38 1517.6 Q2311.18 1517.6 2308.73 1518.36 Q2306.3 1519.13 2303.52 1520.68 L2303.52 1515.95 Q2306.34 1514.82 2308.8 1514.24 Q2311.25 1513.66 2313.29 1513.66 Q2318.66 1513.66 2321.85 1516.35 Q2325.05 1519.03 2325.05 1523.52 Q2325.05 1525.65 2324.24 1527.57 Q2323.45 1529.47 2321.34 1532.07 Q2320.77 1532.74 2317.66 1535.95 Q2314.56 1539.15 2308.91 1544.91 Z" fill="#000000" fill-rule="nonzero" fill-opacity="1" /><path clip-path="url(#clip620)" d="M2335.05 1542.97 L2339.93 1542.97 L2339.93 1548.85 L2335.05 1548.85 L2335.05 1542.97 Z" fill="#000000" fill-rule="nonzero" fill-opacity="1" /><path clip-path="url(#clip620)" d="M2360.12 1517.37 Q2356.51 1517.37 2354.68 1520.93 Q2352.87 1524.47 2352.87 1531.6 Q2352.87 1538.71 2354.68 1542.27 Q2356.51 1545.82 2360.12 1545.82 Q2363.75 1545.82 2365.56 1542.27 Q2367.39 1538.71 2367.39 1531.6 Q2367.39 1524.47 2365.56 1520.93 Q2363.75 1517.37 2360.12 1517.37 M2360.12 1513.66 Q2365.93 1513.66 2368.98 1518.27 Q2372.06 1522.85 2372.06 1531.6 Q2372.06 1540.33 2368.98 1544.94 Q2365.93 1549.52 2360.12 1549.52 Q2354.31 1549.52 2351.23 1544.94 Q2348.17 1540.33 2348.17 1531.6 Q2348.17 1522.85 2351.23 1518.27 Q2354.31 1513.66 2360.12 1513.66 Z" fill="#000000" fill-rule="nonzero" fill-opacity="1" /><path clip-path="url(#clip620)" d="M2390.28 1517.37 Q2386.67 1517.37 2384.84 1520.93 Q2383.03 1524.47 2383.03 1531.6 Q2383.03 1538.71 2384.84 1542.27 Q2386.67 1545.82 2390.28 1545.82 Q2393.91 1545.82 2395.72 1542.27 Q2397.55 1538.71 2397.55 1531.6 Q2397.55 1524.47 2395.72 1520.93 Q2393.91 1517.37 2390.28 1517.37 M2390.28 1513.66 Q2396.09 1513.66 2399.14 1518.27 Q2402.22 1522.85 2402.22 1531.6 Q2402.22 1540.33 2399.14 1544.94 Q2396.09 1549.52 2390.28 1549.52 Q2384.47 1549.52 2381.39 1544.94 Q2378.33 1540.33 2378.33 1531.6 Q2378.33 1522.85 2381.39 1518.27 Q2384.47 1513.66 2390.28 1513.66 Z" fill="#000000" fill-rule="nonzero" fill-opacity="1" /><polyline clip-path="url(#clip620)" style="stroke:#000000; stroke-linecap:round; stroke-linejoin:round; stroke-width:4; stroke-opacity:1; fill:none" points="307.782,1486.45 307.782,47.2441 "/>
<polyline clip-path="url(#clip620)" style="stroke:#000000; stroke-linecap:round; stroke-linejoin:round; stroke-width:4; stroke-opacity:1; fill:none" points="307.782,1486.45 326.68,1486.45 "/>
<polyline clip-path="url(#clip620)" style="stroke:#000000; stroke-linecap:round; stroke-linejoin:round; stroke-width:4; stroke-opacity:1; fill:none" points="307.782,1126.65 326.68,1126.65 "/>
<polyline clip-path="url(#clip620)" style="stroke:#000000; stroke-linecap:round; stroke-linejoin:round; stroke-width:4; stroke-opacity:1; fill:none" points="307.782,766.846 326.68,766.846 "/>
<polyline clip-path="url(#clip620)" style="stroke:#000000; stroke-linecap:round; stroke-linejoin:round; stroke-width:4; stroke-opacity:1; fill:none" points="307.782,407.045 326.68,407.045 "/>
<polyline clip-path="url(#clip620)" style="stroke:#000000; stroke-linecap:round; stroke-linejoin:round; stroke-width:4; stroke-opacity:1; fill:none" points="307.782,47.2441 326.68,47.2441 "/>
<path clip-path="url(#clip620)" d="M114.931 1499.79 L122.57 1499.79 L122.57 1473.43 L114.26 1475.09 L114.26 1470.83 L122.524 1469.17 L127.2 1469.17 L127.2 1499.79 L134.839 1499.79 L134.839 1503.73 L114.931 1503.73 L114.931 1499.79 Z" fill="#000000" fill-rule="nonzero" fill-opacity="1" /><path clip-path="url(#clip620)" d="M154.283 1472.25 Q150.672 1472.25 148.843 1475.81 Q147.038 1479.35 147.038 1486.48 Q147.038 1493.59 148.843 1497.15 Q150.672 1500.7 154.283 1500.7 Q157.917 1500.7 159.723 1497.15 Q161.552 1493.59 161.552 1486.48 Q161.552 1479.35 159.723 1475.81 Q157.917 1472.25 154.283 1472.25 M154.283 1468.54 Q160.093 1468.54 163.149 1473.15 Q166.227 1477.73 166.227 1486.48 Q166.227 1495.21 163.149 1499.82 Q160.093 1504.4 154.283 1504.4 Q148.473 1504.4 145.394 1499.82 Q142.339 1495.21 142.339 1486.48 Q142.339 1477.73 145.394 1473.15 Q148.473 1468.54 154.283 1468.54 Z" fill="#000000" fill-rule="nonzero" fill-opacity="1" /><path clip-path="url(#clip620)" d="M184.445 1472.25 Q180.834 1472.25 179.005 1475.81 Q177.2 1479.35 177.2 1486.48 Q177.2 1493.59 179.005 1497.15 Q180.834 1500.7 184.445 1500.7 Q188.079 1500.7 189.885 1497.15 Q191.713 1493.59 191.713 1486.48 Q191.713 1479.35 189.885 1475.81 Q188.079 1472.25 184.445 1472.25 M184.445 1468.54 Q190.255 1468.54 193.311 1473.15 Q196.389 1477.73 196.389 1486.48 Q196.389 1495.21 193.311 1499.82 Q190.255 1504.4 184.445 1504.4 Q178.635 1504.4 175.556 1499.82 Q172.501 1495.21 172.501 1486.48 Q172.501 1477.73 175.556 1473.15 Q178.635 1468.54 184.445 1468.54 Z" fill="#000000" fill-rule="nonzero" fill-opacity="1" /><path clip-path="url(#clip620)" d="M204.607 1497.85 L209.491 1497.85 L209.491 1503.73 L204.607 1503.73 L204.607 1497.85 Z" fill="#000000" fill-rule="nonzero" fill-opacity="1" /><path clip-path="url(#clip620)" d="M229.676 1472.25 Q226.065 1472.25 224.236 1475.81 Q222.431 1479.35 222.431 1486.48 Q222.431 1493.59 224.236 1497.15 Q226.065 1500.7 229.676 1500.7 Q233.31 1500.7 235.116 1497.15 Q236.945 1493.59 236.945 1486.48 Q236.945 1479.35 235.116 1475.81 Q233.31 1472.25 229.676 1472.25 M229.676 1468.54 Q235.486 1468.54 238.542 1473.15 Q241.621 1477.73 241.621 1486.48 Q241.621 1495.21 238.542 1499.82 Q235.486 1504.4 229.676 1504.4 Q223.866 1504.4 220.787 1499.82 Q217.732 1495.21 217.732 1486.48 Q217.732 1477.73 220.787 1473.15 Q223.866 1468.54 229.676 1468.54 Z" fill="#000000" fill-rule="nonzero" fill-opacity="1" /><path clip-path="url(#clip620)" d="M259.838 1472.25 Q256.227 1472.25 254.398 1475.81 Q252.593 1479.35 252.593 1486.48 Q252.593 1493.59 254.398 1497.15 Q256.227 1500.7 259.838 1500.7 Q263.472 1500.7 265.278 1497.15 Q267.107 1493.59 267.107 1486.48 Q267.107 1479.35 265.278 1475.81 Q263.472 1472.25 259.838 1472.25 M259.838 1468.54 Q265.648 1468.54 268.704 1473.15 Q271.782 1477.73 271.782 1486.48 Q271.782 1495.21 268.704 1499.82 Q265.648 1504.4 259.838 1504.4 Q254.028 1504.4 250.949 1499.82 Q247.894 1495.21 247.894 1486.48 Q247.894 1477.73 250.949 1473.15 Q254.028 1468.54 259.838 1468.54 Z" fill="#000000" fill-rule="nonzero" fill-opacity="1" /><path clip-path="url(#clip620)" d="M115.927 1139.99 L123.566 1139.99 L123.566 1113.63 L115.256 1115.29 L115.256 1111.03 L123.519 1109.37 L128.195 1109.37 L128.195 1139.99 L135.834 1139.99 L135.834 1143.93 L115.927 1143.93 L115.927 1139.99 Z" fill="#000000" fill-rule="nonzero" fill-opacity="1" /><path clip-path="url(#clip620)" d="M155.278 1112.45 Q151.667 1112.45 149.839 1116.01 Q148.033 1119.55 148.033 1126.68 Q148.033 1133.79 149.839 1137.35 Q151.667 1140.89 155.278 1140.89 Q158.913 1140.89 160.718 1137.35 Q162.547 1133.79 162.547 1126.68 Q162.547 1119.55 160.718 1116.01 Q158.913 1112.45 155.278 1112.45 M155.278 1108.74 Q161.089 1108.74 164.144 1113.35 Q167.223 1117.93 167.223 1126.68 Q167.223 1135.41 164.144 1140.01 Q161.089 1144.6 155.278 1144.6 Q149.468 1144.6 146.39 1140.01 Q143.334 1135.41 143.334 1126.68 Q143.334 1117.93 146.39 1113.35 Q149.468 1108.74 155.278 1108.74 Z" fill="#000000" fill-rule="nonzero" fill-opacity="1" /><path clip-path="url(#clip620)" d="M185.44 1112.45 Q181.829 1112.45 180.001 1116.01 Q178.195 1119.55 178.195 1126.68 Q178.195 1133.79 180.001 1137.35 Q181.829 1140.89 185.44 1140.89 Q189.075 1140.89 190.88 1137.35 Q192.709 1133.79 192.709 1126.68 Q192.709 1119.55 190.88 1116.01 Q189.075 1112.45 185.44 1112.45 M185.44 1108.74 Q191.25 1108.74 194.306 1113.35 Q197.385 1117.93 197.385 1126.68 Q197.385 1135.41 194.306 1140.01 Q191.25 1144.6 185.44 1144.6 Q179.63 1144.6 176.551 1140.01 Q173.496 1135.41 173.496 1126.68 Q173.496 1117.93 176.551 1113.35 Q179.63 1108.74 185.44 1108.74 Z" fill="#000000" fill-rule="nonzero" fill-opacity="1" /><path clip-path="url(#clip620)" d="M205.602 1138.05 L210.486 1138.05 L210.486 1143.93 L205.602 1143.93 L205.602 1138.05 Z" fill="#000000" fill-rule="nonzero" fill-opacity="1" /><path clip-path="url(#clip620)" d="M224.699 1139.99 L241.019 1139.99 L241.019 1143.93 L219.074 1143.93 L219.074 1139.99 Q221.736 1137.24 226.32 1132.61 Q230.926 1127.95 232.107 1126.61 Q234.352 1124.09 235.232 1122.35 Q236.135 1120.59 236.135 1118.9 Q236.135 1116.15 234.19 1114.41 Q232.269 1112.68 229.167 1112.68 Q226.968 1112.68 224.514 1113.44 Q222.084 1114.2 219.306 1115.76 L219.306 1111.03 Q222.13 1109.9 224.584 1109.32 Q227.037 1108.74 229.074 1108.74 Q234.445 1108.74 237.639 1111.43 Q240.834 1114.11 240.834 1118.6 Q240.834 1120.73 240.023 1122.65 Q239.236 1124.55 237.13 1127.14 Q236.551 1127.82 233.449 1131.03 Q230.347 1134.23 224.699 1139.99 Z" fill="#000000" fill-rule="nonzero" fill-opacity="1" /><path clip-path="url(#clip620)" d="M250.88 1109.37 L269.236 1109.37 L269.236 1113.3 L255.162 1113.3 L255.162 1121.77 Q256.181 1121.43 257.199 1121.27 Q258.218 1121.08 259.236 1121.08 Q265.023 1121.08 268.403 1124.25 Q271.782 1127.42 271.782 1132.84 Q271.782 1138.42 268.31 1141.52 Q264.838 1144.6 258.519 1144.6 Q256.343 1144.6 254.074 1144.23 Q251.829 1143.86 249.421 1143.12 L249.421 1138.42 Q251.505 1139.55 253.727 1140.11 Q255.949 1140.66 258.426 1140.66 Q262.431 1140.66 264.769 1138.56 Q267.107 1136.45 267.107 1132.84 Q267.107 1129.23 264.769 1127.12 Q262.431 1125.01 258.426 1125.01 Q256.551 1125.01 254.676 1125.43 Q252.824 1125.85 250.88 1126.73 L250.88 1109.37 Z" fill="#000000" fill-rule="nonzero" fill-opacity="1" /><path clip-path="url(#clip620)" d="M114.931 780.191 L122.57 780.191 L122.57 753.825 L114.26 755.492 L114.26 751.233 L122.524 749.566 L127.2 749.566 L127.2 780.191 L134.839 780.191 L134.839 784.126 L114.931 784.126 L114.931 780.191 Z" fill="#000000" fill-rule="nonzero" fill-opacity="1" /><path clip-path="url(#clip620)" d="M154.283 752.645 Q150.672 752.645 148.843 756.209 Q147.038 759.751 147.038 766.881 Q147.038 773.987 148.843 777.552 Q150.672 781.094 154.283 781.094 Q157.917 781.094 159.723 777.552 Q161.552 773.987 161.552 766.881 Q161.552 759.751 159.723 756.209 Q157.917 752.645 154.283 752.645 M154.283 748.941 Q160.093 748.941 163.149 753.547 Q166.227 758.131 166.227 766.881 Q166.227 775.608 163.149 780.214 Q160.093 784.797 154.283 784.797 Q148.473 784.797 145.394 780.214 Q142.339 775.608 142.339 766.881 Q142.339 758.131 145.394 753.547 Q148.473 748.941 154.283 748.941 Z" fill="#000000" fill-rule="nonzero" fill-opacity="1" /><path clip-path="url(#clip620)" d="M184.445 752.645 Q180.834 752.645 179.005 756.209 Q177.2 759.751 177.2 766.881 Q177.2 773.987 179.005 777.552 Q180.834 781.094 184.445 781.094 Q188.079 781.094 189.885 777.552 Q191.713 773.987 191.713 766.881 Q191.713 759.751 189.885 756.209 Q188.079 752.645 184.445 752.645 M184.445 748.941 Q190.255 748.941 193.311 753.547 Q196.389 758.131 196.389 766.881 Q196.389 775.608 193.311 780.214 Q190.255 784.797 184.445 784.797 Q178.635 784.797 175.556 780.214 Q172.501 775.608 172.501 766.881 Q172.501 758.131 175.556 753.547 Q178.635 748.941 184.445 748.941 Z" fill="#000000" fill-rule="nonzero" fill-opacity="1" /><path clip-path="url(#clip620)" d="M204.607 778.246 L209.491 778.246 L209.491 784.126 L204.607 784.126 L204.607 778.246 Z" fill="#000000" fill-rule="nonzero" fill-opacity="1" /><path clip-path="url(#clip620)" d="M219.723 749.566 L238.079 749.566 L238.079 753.501 L224.005 753.501 L224.005 761.973 Q225.023 761.626 226.042 761.464 Q227.06 761.279 228.079 761.279 Q233.866 761.279 237.246 764.45 Q240.625 767.621 240.625 773.038 Q240.625 778.617 237.153 781.719 Q233.681 784.797 227.361 784.797 Q225.185 784.797 222.917 784.427 Q220.672 784.057 218.264 783.316 L218.264 778.617 Q220.348 779.751 222.57 780.307 Q224.792 780.862 227.269 780.862 Q231.273 780.862 233.611 778.756 Q235.949 776.649 235.949 773.038 Q235.949 769.427 233.611 767.321 Q231.273 765.214 227.269 765.214 Q225.394 765.214 223.519 765.631 Q221.667 766.047 219.723 766.927 L219.723 749.566 Z" fill="#000000" fill-rule="nonzero" fill-opacity="1" /><path clip-path="url(#clip620)" d="M259.838 752.645 Q256.227 752.645 254.398 756.209 Q252.593 759.751 252.593 766.881 Q252.593 773.987 254.398 777.552 Q256.227 781.094 259.838 781.094 Q263.472 781.094 265.278 777.552 Q267.107 773.987 267.107 766.881 Q267.107 759.751 265.278 756.209 Q263.472 752.645 259.838 752.645 M259.838 748.941 Q265.648 748.941 268.704 753.547 Q271.782 758.131 271.782 766.881 Q271.782 775.608 268.704 780.214 Q265.648 784.797 259.838 784.797 Q254.028 784.797 250.949 780.214 Q247.894 775.608 247.894 766.881 Q247.894 758.131 250.949 753.547 Q254.028 748.941 259.838 748.941 Z" fill="#000000" fill-rule="nonzero" fill-opacity="1" /><path clip-path="url(#clip620)" d="M115.927 420.39 L123.566 420.39 L123.566 394.024 L115.256 395.691 L115.256 391.432 L123.519 389.765 L128.195 389.765 L128.195 420.39 L135.834 420.39 L135.834 424.325 L115.927 424.325 L115.927 420.39 Z" fill="#000000" fill-rule="nonzero" fill-opacity="1" /><path clip-path="url(#clip620)" d="M155.278 392.844 Q151.667 392.844 149.839 396.409 Q148.033 399.95 148.033 407.08 Q148.033 414.186 149.839 417.751 Q151.667 421.293 155.278 421.293 Q158.913 421.293 160.718 417.751 Q162.547 414.186 162.547 407.08 Q162.547 399.95 160.718 396.409 Q158.913 392.844 155.278 392.844 M155.278 389.14 Q161.089 389.14 164.144 393.746 Q167.223 398.33 167.223 407.08 Q167.223 415.807 164.144 420.413 Q161.089 424.996 155.278 424.996 Q149.468 424.996 146.39 420.413 Q143.334 415.807 143.334 407.08 Q143.334 398.33 146.39 393.746 Q149.468 389.14 155.278 389.14 Z" fill="#000000" fill-rule="nonzero" fill-opacity="1" /><path clip-path="url(#clip620)" d="M185.44 392.844 Q181.829 392.844 180.001 396.409 Q178.195 399.95 178.195 407.08 Q178.195 414.186 180.001 417.751 Q181.829 421.293 185.44 421.293 Q189.075 421.293 190.88 417.751 Q192.709 414.186 192.709 407.08 Q192.709 399.95 190.88 396.409 Q189.075 392.844 185.44 392.844 M185.44 389.14 Q191.25 389.14 194.306 393.746 Q197.385 398.33 197.385 407.08 Q197.385 415.807 194.306 420.413 Q191.25 424.996 185.44 424.996 Q179.63 424.996 176.551 420.413 Q173.496 415.807 173.496 407.08 Q173.496 398.33 176.551 393.746 Q179.63 389.14 185.44 389.14 Z" fill="#000000" fill-rule="nonzero" fill-opacity="1" /><path clip-path="url(#clip620)" d="M205.602 418.445 L210.486 418.445 L210.486 424.325 L205.602 424.325 L205.602 418.445 Z" fill="#000000" fill-rule="nonzero" fill-opacity="1" /><path clip-path="url(#clip620)" d="M219.491 389.765 L241.713 389.765 L241.713 391.756 L229.167 424.325 L224.283 424.325 L236.088 393.7 L219.491 393.7 L219.491 389.765 Z" fill="#000000" fill-rule="nonzero" fill-opacity="1" /><path clip-path="url(#clip620)" d="M250.88 389.765 L269.236 389.765 L269.236 393.7 L255.162 393.7 L255.162 402.172 Q256.181 401.825 257.199 401.663 Q258.218 401.478 259.236 401.478 Q265.023 401.478 268.403 404.649 Q271.782 407.82 271.782 413.237 Q271.782 418.816 268.31 421.918 Q264.838 424.996 258.519 424.996 Q256.343 424.996 254.074 424.626 Q251.829 424.256 249.421 423.515 L249.421 418.816 Q251.505 419.95 253.727 420.506 Q255.949 421.061 258.426 421.061 Q262.431 421.061 264.769 418.955 Q267.107 416.848 267.107 413.237 Q267.107 409.626 264.769 407.52 Q262.431 405.413 258.426 405.413 Q256.551 405.413 254.676 405.83 Q252.824 406.246 250.88 407.126 L250.88 389.765 Z" fill="#000000" fill-rule="nonzero" fill-opacity="1" /><path clip-path="url(#clip620)" d="M114.931 60.5889 L122.57 60.5889 L122.57 34.2233 L114.26 35.89 L114.26 31.6308 L122.524 29.9641 L127.2 29.9641 L127.2 60.5889 L134.839 60.5889 L134.839 64.5241 L114.931 64.5241 L114.931 60.5889 Z" fill="#000000" fill-rule="nonzero" fill-opacity="1" /><path clip-path="url(#clip620)" d="M154.283 33.0428 Q150.672 33.0428 148.843 36.6076 Q147.038 40.1492 147.038 47.2788 Q147.038 54.3853 148.843 57.9501 Q150.672 61.4917 154.283 61.4917 Q157.917 61.4917 159.723 57.9501 Q161.552 54.3853 161.552 47.2788 Q161.552 40.1492 159.723 36.6076 Q157.917 33.0428 154.283 33.0428 M154.283 29.3391 Q160.093 29.3391 163.149 33.9456 Q166.227 38.5289 166.227 47.2788 Q166.227 56.0056 163.149 60.6121 Q160.093 65.1954 154.283 65.1954 Q148.473 65.1954 145.394 60.6121 Q142.339 56.0056 142.339 47.2788 Q142.339 38.5289 145.394 33.9456 Q148.473 29.3391 154.283 29.3391 Z" fill="#000000" fill-rule="nonzero" fill-opacity="1" /><path clip-path="url(#clip620)" d="M175.255 60.5889 L182.894 60.5889 L182.894 34.2233 L174.584 35.89 L174.584 31.6308 L182.848 29.9641 L187.524 29.9641 L187.524 60.5889 L195.163 60.5889 L195.163 64.5241 L175.255 64.5241 L175.255 60.5889 Z" fill="#000000" fill-rule="nonzero" fill-opacity="1" /><path clip-path="url(#clip620)" d="M204.607 58.6445 L209.491 58.6445 L209.491 64.5241 L204.607 64.5241 L204.607 58.6445 Z" fill="#000000" fill-rule="nonzero" fill-opacity="1" /><path clip-path="url(#clip620)" d="M229.676 33.0428 Q226.065 33.0428 224.236 36.6076 Q222.431 40.1492 222.431 47.2788 Q222.431 54.3853 224.236 57.9501 Q226.065 61.4917 229.676 61.4917 Q233.31 61.4917 235.116 57.9501 Q236.945 54.3853 236.945 47.2788 Q236.945 40.1492 235.116 36.6076 Q233.31 33.0428 229.676 33.0428 M229.676 29.3391 Q235.486 29.3391 238.542 33.9456 Q241.621 38.5289 241.621 47.2788 Q241.621 56.0056 238.542 60.6121 Q235.486 65.1954 229.676 65.1954 Q223.866 65.1954 220.787 60.6121 Q217.732 56.0056 217.732 47.2788 Q217.732 38.5289 220.787 33.9456 Q223.866 29.3391 229.676 29.3391 Z" fill="#000000" fill-rule="nonzero" fill-opacity="1" /><path clip-path="url(#clip620)" d="M259.838 33.0428 Q256.227 33.0428 254.398 36.6076 Q252.593 40.1492 252.593 47.2788 Q252.593 54.3853 254.398 57.9501 Q256.227 61.4917 259.838 61.4917 Q263.472 61.4917 265.278 57.9501 Q267.107 54.3853 267.107 47.2788 Q267.107 40.1492 265.278 36.6076 Q263.472 33.0428 259.838 33.0428 M259.838 29.3391 Q265.648 29.3391 268.704 33.9456 Q271.782 38.5289 271.782 47.2788 Q271.782 56.0056 268.704 60.6121 Q265.648 65.1954 259.838 65.1954 Q254.028 65.1954 250.949 60.6121 Q247.894 56.0056 247.894 47.2788 Q247.894 38.5289 250.949 33.9456 Q254.028 29.3391 259.838 29.3391 Z" fill="#000000" fill-rule="nonzero" fill-opacity="1" /><path clip-path="url(#clip620)" d="M35.1993 828.195 Q31.2526 825.999 29.3747 822.944 Q27.4968 819.888 27.4968 815.751 Q27.4968 810.181 31.4117 807.157 Q35.2948 804.133 42.4881 804.133 L64.0042 804.133 L64.0042 810.021 L42.679 810.021 Q37.5546 810.021 35.072 811.836 Q32.5894 813.65 32.5894 817.374 Q32.5894 821.925 35.6131 824.567 Q38.6368 827.209 43.8567 827.209 L64.0042 827.209 L64.0042 833.097 L42.679 833.097 Q37.5228 833.097 35.072 834.911 Q32.5894 836.726 32.5894 840.513 Q32.5894 845.001 35.6449 847.643 Q38.6686 850.284 43.8567 850.284 L64.0042 850.284 L64.0042 856.173 L28.3562 856.173 L28.3562 850.284 L33.8944 850.284 Q30.616 848.279 29.0564 845.478 Q27.4968 842.677 27.4968 838.826 Q27.4968 834.943 29.4702 832.238 Q31.4436 829.5 35.1993 828.195 Z" fill="#000000" fill-rule="nonzero" fill-opacity="1" /><path clip-path="url(#clip620)" d="M16.4842 798.786 L16.4842 758.586 L21.895 758.586 L21.895 775.456 L64.0042 775.456 L64.0042 781.917 L21.895 781.917 L21.895 798.786 L16.4842 798.786 Z" fill="#000000" fill-rule="nonzero" fill-opacity="1" /><path clip-path="url(#clip620)" d="M32.4621 749.897 Q32.4621 754.608 36.1542 757.345 Q39.8145 760.082 46.212 760.082 Q52.6095 760.082 56.3017 757.377 Q59.9619 754.64 59.9619 749.897 Q59.9619 745.218 56.2698 742.481 Q52.5777 739.744 46.212 739.744 Q39.8781 739.744 36.186 742.481 Q32.4621 745.218 32.4621 749.897 M27.4968 749.897 Q27.4968 742.258 32.4621 737.898 Q37.4273 733.537 46.212 733.537 Q54.9649 733.537 59.9619 737.898 Q64.9272 742.258 64.9272 749.897 Q64.9272 757.568 59.9619 761.928 Q54.9649 766.257 46.212 766.257 Q37.4273 766.257 32.4621 761.928 Q27.4968 757.568 27.4968 749.897 Z" fill="#000000" fill-rule="nonzero" fill-opacity="1" /><path clip-path="url(#clip620)" d="M33.8307 703.173 Q33.2578 704.16 33.0032 705.337 Q32.7167 706.483 32.7167 707.884 Q32.7167 712.849 35.9632 715.522 Q39.1779 718.164 45.2253 718.164 L64.0042 718.164 L64.0042 724.053 L28.3562 724.053 L28.3562 718.164 L33.8944 718.164 Q30.6479 716.318 29.0883 713.358 Q27.4968 710.398 27.4968 706.165 Q27.4968 705.56 27.5923 704.828 Q27.656 704.096 27.8151 703.205 L33.8307 703.173 Z" fill="#000000" fill-rule="nonzero" fill-opacity="1" /><path clip-path="url(#clip620)" d="M33.8307 677.519 Q33.2578 678.506 33.0032 679.684 Q32.7167 680.829 32.7167 682.23 Q32.7167 687.195 35.9632 689.869 Q39.1779 692.51 45.2253 692.51 L64.0042 692.51 L64.0042 698.399 L28.3562 698.399 L28.3562 692.51 L33.8944 692.51 Q30.6479 690.664 29.0883 687.704 Q27.4968 684.744 27.4968 680.511 Q27.4968 679.906 27.5923 679.174 Q27.656 678.442 27.8151 677.551 L33.8307 677.519 Z" fill="#000000" fill-rule="nonzero" fill-opacity="1" /><polyline clip-path="url(#clip622)" style="stroke:#009af9; stroke-linecap:round; stroke-linejoin:round; stroke-width:4; stroke-opacity:1; fill:none" points="-1737.19,1486.45 4397.73,1486.45 "/>
<path clip-path="url(#clip620)" d="M2027.66 198.898 L2284.59 198.898 L2284.59 95.2176 L2027.66 95.2176  Z" fill="#ffffff" fill-rule="evenodd" fill-opacity="1"/>
<polyline clip-path="url(#clip620)" style="stroke:#000000; stroke-linecap:round; stroke-linejoin:round; stroke-width:4; stroke-opacity:1; fill:none" points="2027.66,198.898 2284.59,198.898 2284.59,95.2176 2027.66,95.2176 2027.66,198.898 "/>
<polyline clip-path="url(#clip620)" style="stroke:#009af9; stroke-linecap:round; stroke-linejoin:round; stroke-width:4; stroke-opacity:1; fill:none" points="2050.38,147.058 2186.72,147.058 "/>
<path clip-path="url(#clip620)" d="M2223.28 166.745 Q2221.47 171.375 2219.76 172.787 Q2218.05 174.199 2215.18 174.199 L2211.78 174.199 L2211.78 170.634 L2214.28 170.634 Q2216.04 170.634 2217.01 169.8 Q2217.98 168.967 2219.16 165.865 L2219.92 163.921 L2209.44 138.412 L2213.95 138.412 L2222.05 158.689 L2230.16 138.412 L2234.67 138.412 L2223.28 166.745 Z" fill="#000000" fill-rule="nonzero" fill-opacity="1" /><path clip-path="url(#clip620)" d="M2241.96 160.402 L2249.6 160.402 L2249.6 134.037 L2241.29 135.703 L2241.29 131.444 L2249.55 129.778 L2254.23 129.778 L2254.23 160.402 L2261.87 160.402 L2261.87 164.338 L2241.96 164.338 L2241.96 160.402 Z" fill="#000000" fill-rule="nonzero" fill-opacity="1" /></svg>
