<?xml version="1.0" encoding="utf-8"?>
<svg xmlns="http://www.w3.org/2000/svg" xmlns:xlink="http://www.w3.org/1999/xlink" width="600" height="400" viewBox="0 0 2400 1600">
<defs>
  <clipPath id="clip950">
    <rect x="0" y="0" width="2400" height="1600"/>
  </clipPath>
</defs>
<path clip-path="url(#clip950)" d="M0 1600 L2400 1600 L2400 0 L0 0  Z" fill="#ffffff" fill-rule="evenodd" fill-opacity="1"/>
<defs>
  <clipPath id="clip951">
    <rect x="234" y="47" width="2119" height="1377"/>
  </clipPath>
</defs>
<path clip-path="url(#clip950)" d="M234.125 1423.18 L2352.76 1423.18 L2352.76 47.2441 L234.125 47.2441  Z" fill="#ffffff" fill-rule="evenodd" fill-opacity="1"/>
<defs>
  <clipPath id="clip952">
    <rect x="234" y="47" width="2120" height="1377"/>
  </clipPath>
</defs>
<polyline clip-path="url(#clip952)" style="stroke:#000000; stroke-linecap:round; stroke-linejoin:round; stroke-width:2; stroke-opacity:0.1; fill:none" points="294.087,1423.18 294.087,47.2441 "/>
<polyline clip-path="url(#clip952)" style="stroke:#000000; stroke-linecap:round; stroke-linejoin:round; stroke-width:2; stroke-opacity:0.1; fill:none" points="595.564,1423.18 595.564,47.2441 "/>
<polyline clip-path="url(#clip952)" style="stroke:#000000; stroke-linecap:round; stroke-linejoin:round; stroke-width:2; stroke-opacity:0.1; fill:none" points="897.042,1423.18 897.042,47.2441 "/>
<polyline clip-path="url(#clip952)" style="stroke:#000000; stroke-linecap:round; stroke-linejoin:round; stroke-width:2; stroke-opacity:0.1; fill:none" points="1198.52,1423.18 1198.52,47.2441 "/>
<polyline clip-path="url(#clip952)" style="stroke:#000000; stroke-linecap:round; stroke-linejoin:round; stroke-width:2; stroke-opacity:0.1; fill:none" points="1500,1423.18 1500,47.2441 "/>
<polyline clip-path="url(#clip952)" style="stroke:#000000; stroke-linecap:round; stroke-linejoin:round; stroke-width:2; stroke-opacity:0.1; fill:none" points="1801.48,1423.18 1801.48,47.2441 "/>
<polyline clip-path="url(#clip952)" style="stroke:#000000; stroke-linecap:round; stroke-linejoin:round; stroke-width:2; stroke-opacity:0.1; fill:none" points="2102.95,1423.18 2102.95,47.2441 "/>
<polyline clip-path="url(#clip952)" style="stroke:#000000; stroke-linecap:round; stroke-linejoin:round; stroke-width:2; stroke-opacity:0.1; fill:none" points="234.125,1193.01 2352.76,1193.01 "/>
<polyline clip-path="url(#clip952)" style="stroke:#000000; stroke-linecap:round; stroke-linejoin:round; stroke-width:2; stroke-opacity:0.1; fill:none" points="234.125,909.28 2352.76,909.28 "/>
<polyline clip-path="url(#clip952)" style="stroke:#000000; stroke-linecap:round; stroke-linejoin:round; stroke-width:2; stroke-opacity:0.1; fill:none" points="234.125,625.553 2352.76,625.553 "/>
<polyline clip-path="url(#clip952)" style="stroke:#000000; stroke-linecap:round; stroke-linejoin:round; stroke-width:2; stroke-opacity:0.1; fill:none" points="234.125,341.826 2352.76,341.826 "/>
<polyline clip-path="url(#clip952)" style="stroke:#000000; stroke-linecap:round; stroke-linejoin:round; stroke-width:2; stroke-opacity:0.1; fill:none" points="234.125,58.0996 2352.76,58.0996 "/>
<polyline clip-path="url(#clip950)" style="stroke:#000000; stroke-linecap:round; stroke-linejoin:round; stroke-width:4; stroke-opacity:1; fill:none" points="234.125,1423.18 2352.76,1423.18 "/>
<polyline clip-path="url(#clip950)" style="stroke:#000000; stroke-linecap:round; stroke-linejoin:round; stroke-width:4; stroke-opacity:1; fill:none" points="294.087,1423.18 294.087,1404.28 "/>
<polyline clip-path="url(#clip950)" style="stroke:#000000; stroke-linecap:round; stroke-linejoin:round; stroke-width:4; stroke-opacity:1; fill:none" points="595.564,1423.18 595.564,1404.28 "/>
<polyline clip-path="url(#clip950)" style="stroke:#000000; stroke-linecap:round; stroke-linejoin:round; stroke-width:4; stroke-opacity:1; fill:none" points="897.042,1423.18 897.042,1404.28 "/>
<polyline clip-path="url(#clip950)" style="stroke:#000000; stroke-linecap:round; stroke-linejoin:round; stroke-width:4; stroke-opacity:1; fill:none" points="1198.52,1423.18 1198.52,1404.28 "/>
<polyline clip-path="url(#clip950)" style="stroke:#000000; stroke-linecap:round; stroke-linejoin:round; stroke-width:4; stroke-opacity:1; fill:none" points="1500,1423.18 1500,1404.28 "/>
<polyline clip-path="url(#clip950)" style="stroke:#000000; stroke-linecap:round; stroke-linejoin:round; stroke-width:4; stroke-opacity:1; fill:none" points="1801.48,1423.18 1801.48,1404.28 "/>
<polyline clip-path="url(#clip950)" style="stroke:#000000; stroke-linecap:round; stroke-linejoin:round; stroke-width:4; stroke-opacity:1; fill:none" points="2102.95,1423.18 2102.95,1404.28 "/>
<path clip-path="url(#clip950)" d="M294.087 1454.1 Q290.476 1454.1 288.647 1457.66 Q286.841 1461.2 286.841 1468.33 Q286.841 1475.44 288.647 1479.01 Q290.476 1482.55 294.087 1482.55 Q297.721 1482.55 299.526 1479.01 Q301.355 1475.44 301.355 1468.33 Q301.355 1461.2 299.526 1457.66 Q297.721 1454.1 294.087 1454.1 M294.087 1450.39 Q299.897 1450.39 302.952 1455 Q306.031 1459.58 306.031 1468.33 Q306.031 1477.06 302.952 1481.67 Q299.897 1486.25 294.087 1486.25 Q288.277 1486.25 285.198 1481.67 Q282.142 1477.06 282.142 1468.33 Q282.142 1459.58 285.198 1455 Q288.277 1450.39 294.087 1450.39 Z" fill="#000000" fill-rule="nonzero" fill-opacity="1" /><path clip-path="url(#clip950)" d="M590.217 1481.64 L606.537 1481.64 L606.537 1485.58 L584.592 1485.58 L584.592 1481.64 Q587.254 1478.89 591.838 1474.26 Q596.444 1469.61 597.625 1468.27 Q599.87 1465.74 600.75 1464.01 Q601.652 1462.25 601.652 1460.56 Q601.652 1457.8 599.708 1456.07 Q597.787 1454.33 594.685 1454.33 Q592.486 1454.33 590.032 1455.09 Q587.601 1455.86 584.824 1457.41 L584.824 1452.69 Q587.648 1451.55 590.101 1450.97 Q592.555 1450.39 594.592 1450.39 Q599.962 1450.39 603.157 1453.08 Q606.351 1455.77 606.351 1460.26 Q606.351 1462.39 605.541 1464.31 Q604.754 1466.2 602.648 1468.8 Q602.069 1469.47 598.967 1472.69 Q595.865 1475.88 590.217 1481.64 Z" fill="#000000" fill-rule="nonzero" fill-opacity="1" /><path clip-path="url(#clip950)" d="M900.051 1455.09 L888.246 1473.54 L900.051 1473.54 L900.051 1455.09 M898.824 1451.02 L904.704 1451.02 L904.704 1473.54 L909.635 1473.54 L909.635 1477.43 L904.704 1477.43 L904.704 1485.58 L900.051 1485.58 L900.051 1477.43 L884.45 1477.43 L884.45 1472.92 L898.824 1451.02 Z" fill="#000000" fill-rule="nonzero" fill-opacity="1" /><path clip-path="url(#clip950)" d="M1198.92 1466.44 Q1195.78 1466.44 1193.92 1468.59 Q1192.1 1470.74 1192.1 1474.49 Q1192.1 1478.22 1193.92 1480.39 Q1195.78 1482.55 1198.92 1482.55 Q1202.07 1482.55 1203.9 1480.39 Q1205.75 1478.22 1205.75 1474.49 Q1205.75 1470.74 1203.9 1468.59 Q1202.07 1466.44 1198.92 1466.44 M1208.21 1451.78 L1208.21 1456.04 Q1206.45 1455.21 1204.64 1454.77 Q1202.86 1454.33 1201.1 1454.33 Q1196.47 1454.33 1194.02 1457.45 Q1191.59 1460.58 1191.24 1466.9 Q1192.61 1464.89 1194.67 1463.82 Q1196.73 1462.73 1199.2 1462.73 Q1204.41 1462.73 1207.42 1465.9 Q1210.45 1469.05 1210.45 1474.49 Q1210.45 1479.82 1207.3 1483.03 Q1204.16 1486.25 1198.92 1486.25 Q1192.93 1486.25 1189.76 1481.67 Q1186.59 1477.06 1186.59 1468.33 Q1186.59 1460.14 1190.48 1455.28 Q1194.36 1450.39 1200.92 1450.39 Q1202.67 1450.39 1204.46 1450.74 Q1206.26 1451.09 1208.21 1451.78 Z" fill="#000000" fill-rule="nonzero" fill-opacity="1" /><path clip-path="url(#clip950)" d="M1500 1469.17 Q1496.66 1469.17 1494.74 1470.95 Q1492.84 1472.73 1492.84 1475.86 Q1492.84 1478.98 1494.74 1480.77 Q1496.66 1482.55 1500 1482.55 Q1503.33 1482.55 1505.25 1480.77 Q1507.17 1478.96 1507.17 1475.86 Q1507.17 1472.73 1505.25 1470.95 Q1503.35 1469.17 1500 1469.17 M1495.32 1467.18 Q1492.31 1466.44 1490.62 1464.38 Q1488.96 1462.32 1488.96 1459.35 Q1488.96 1455.21 1491.9 1452.8 Q1494.86 1450.39 1500 1450.39 Q1505.16 1450.39 1508.1 1452.8 Q1511.04 1455.21 1511.04 1459.35 Q1511.04 1462.32 1509.35 1464.38 Q1507.68 1466.44 1504.7 1467.18 Q1508.08 1467.96 1509.95 1470.26 Q1511.85 1472.55 1511.85 1475.86 Q1511.85 1480.88 1508.77 1483.57 Q1505.71 1486.25 1500 1486.25 Q1494.28 1486.25 1491.2 1483.57 Q1488.15 1480.88 1488.15 1475.86 Q1488.15 1472.55 1490.04 1470.26 Q1491.94 1467.96 1495.32 1467.18 M1493.61 1459.79 Q1493.61 1462.48 1495.28 1463.98 Q1496.97 1465.49 1500 1465.49 Q1503.01 1465.49 1504.7 1463.98 Q1506.41 1462.48 1506.41 1459.79 Q1506.41 1457.11 1504.7 1455.6 Q1503.01 1454.1 1500 1454.1 Q1496.97 1454.1 1495.28 1455.6 Q1493.61 1457.11 1493.61 1459.79 Z" fill="#000000" fill-rule="nonzero" fill-opacity="1" /><path clip-path="url(#clip950)" d="M1776.16 1481.64 L1783.8 1481.64 L1783.8 1455.28 L1775.49 1456.95 L1775.49 1452.69 L1783.76 1451.02 L1788.43 1451.02 L1788.43 1481.64 L1796.07 1481.64 L1796.07 1485.58 L1776.16 1485.58 L1776.16 1481.64 Z" fill="#000000" fill-rule="nonzero" fill-opacity="1" /><path clip-path="url(#clip950)" d="M1815.51 1454.1 Q1811.9 1454.1 1810.07 1457.66 Q1808.27 1461.2 1808.27 1468.33 Q1808.27 1475.44 1810.07 1479.01 Q1811.9 1482.55 1815.51 1482.55 Q1819.15 1482.55 1820.95 1479.01 Q1822.78 1475.44 1822.78 1468.33 Q1822.78 1461.2 1820.95 1457.66 Q1819.15 1454.1 1815.51 1454.1 M1815.51 1450.39 Q1821.32 1450.39 1824.38 1455 Q1827.46 1459.58 1827.46 1468.33 Q1827.46 1477.06 1824.38 1481.67 Q1821.32 1486.25 1815.51 1486.25 Q1809.7 1486.25 1806.63 1481.67 Q1803.57 1477.06 1803.57 1468.33 Q1803.57 1459.58 1806.63 1455 Q1809.7 1450.39 1815.51 1450.39 Z" fill="#000000" fill-rule="nonzero" fill-opacity="1" /><path clip-path="url(#clip950)" d="M2078.44 1481.64 L2086.08 1481.64 L2086.08 1455.28 L2077.77 1456.95 L2077.77 1452.69 L2086.03 1451.02 L2090.71 1451.02 L2090.71 1481.64 L2098.35 1481.64 L2098.35 1485.58 L2078.44 1485.58 L2078.44 1481.64 Z" fill="#000000" fill-rule="nonzero" fill-opacity="1" /><path clip-path="url(#clip950)" d="M2111.82 1481.64 L2128.14 1481.64 L2128.14 1485.58 L2106.19 1485.58 L2106.19 1481.64 Q2108.86 1478.89 2113.44 1474.26 Q2118.05 1469.61 2119.23 1468.27 Q2121.47 1465.74 2122.35 1464.01 Q2123.25 1462.25 2123.25 1460.56 Q2123.25 1457.8 2121.31 1456.07 Q2119.39 1454.33 2116.29 1454.33 Q2114.09 1454.33 2111.63 1455.09 Q2109.2 1455.86 2106.42 1457.41 L2106.42 1452.69 Q2109.25 1451.55 2111.7 1450.97 Q2114.16 1450.39 2116.19 1450.39 Q2121.56 1450.39 2124.76 1453.08 Q2127.95 1455.77 2127.95 1460.26 Q2127.95 1462.39 2127.14 1464.31 Q2126.36 1466.2 2124.25 1468.8 Q2123.67 1469.47 2120.57 1472.69 Q2117.47 1475.88 2111.82 1481.64 Z" fill="#000000" fill-rule="nonzero" fill-opacity="1" /><path clip-path="url(#clip950)" d="M1292.2 1546.53 L1292.2 1568.04 L1286.34 1568.04 L1286.34 1546.72 Q1286.34 1541.66 1284.37 1539.14 Q1282.4 1536.63 1278.45 1536.63 Q1273.71 1536.63 1270.97 1539.65 Q1268.23 1542.68 1268.23 1547.9 L1268.23 1568.04 L1262.34 1568.04 L1262.34 1518.52 L1268.23 1518.52 L1268.23 1537.93 Q1270.33 1534.72 1273.17 1533.13 Q1276.03 1531.54 1279.75 1531.54 Q1285.9 1531.54 1289.05 1535.36 Q1292.2 1539.14 1292.2 1546.53 Z" fill="#000000" fill-rule="nonzero" fill-opacity="1" /><path clip-path="url(#clip950)" d="M1324.54 1537.87 Q1323.55 1537.3 1322.37 1537.04 Q1321.23 1536.76 1319.83 1536.76 Q1314.86 1536.76 1312.19 1540 Q1309.55 1543.22 1309.55 1549.27 L1309.55 1568.04 L1303.66 1568.04 L1303.66 1532.4 L1309.55 1532.4 L1309.55 1537.93 Q1311.39 1534.69 1314.35 1533.13 Q1317.31 1531.54 1321.55 1531.54 Q1322.15 1531.54 1322.88 1531.63 Q1323.61 1531.7 1324.51 1531.85 L1324.54 1537.87 Z" fill="#000000" fill-rule="nonzero" fill-opacity="1" /><polyline clip-path="url(#clip950)" style="stroke:#000000; stroke-linecap:round; stroke-linejoin:round; stroke-width:4; stroke-opacity:1; fill:none" points="234.125,1423.18 234.125,47.2441 "/>
<polyline clip-path="url(#clip950)" style="stroke:#000000; stroke-linecap:round; stroke-linejoin:round; stroke-width:4; stroke-opacity:1; fill:none" points="234.125,1193.01 253.023,1193.01 "/>
<polyline clip-path="url(#clip950)" style="stroke:#000000; stroke-linecap:round; stroke-linejoin:round; stroke-width:4; stroke-opacity:1; fill:none" points="234.125,909.28 253.023,909.28 "/>
<polyline clip-path="url(#clip950)" style="stroke:#000000; stroke-linecap:round; stroke-linejoin:round; stroke-width:4; stroke-opacity:1; fill:none" points="234.125,625.553 253.023,625.553 "/>
<polyline clip-path="url(#clip950)" style="stroke:#000000; stroke-linecap:round; stroke-linejoin:round; stroke-width:4; stroke-opacity:1; fill:none" points="234.125,341.826 253.023,341.826 "/>
<polyline clip-path="url(#clip950)" style="stroke:#000000; stroke-linecap:round; stroke-linejoin:round; stroke-width:4; stroke-opacity:1; fill:none" points="234.125,58.0996 253.023,58.0996 "/>
<path clip-path="url(#clip950)" d="M119.885 1206.35 L136.204 1206.35 L136.204 1210.29 L114.26 1210.29 L114.26 1206.35 Q116.922 1203.6 121.505 1198.97 Q126.112 1194.31 127.292 1192.97 Q129.538 1190.45 130.417 1188.71 Q131.32 1186.95 131.32 1185.26 Q131.32 1182.51 129.376 1180.77 Q127.455 1179.04 124.353 1179.04 Q122.154 1179.04 119.7 1179.8 Q117.269 1180.56 114.492 1182.12 L114.492 1177.39 Q117.316 1176.26 119.769 1175.68 Q122.223 1175.1 124.26 1175.1 Q129.63 1175.1 132.825 1177.79 Q136.019 1180.47 136.019 1184.96 Q136.019 1187.09 135.209 1189.01 Q134.422 1190.91 132.316 1193.5 Q131.737 1194.18 128.635 1197.39 Q125.533 1200.59 119.885 1206.35 Z" fill="#000000" fill-rule="nonzero" fill-opacity="1" /><path clip-path="url(#clip950)" d="M146.066 1175.73 L164.422 1175.73 L164.422 1179.66 L150.348 1179.66 L150.348 1188.13 Q151.366 1187.79 152.385 1187.62 Q153.403 1187.44 154.422 1187.44 Q160.209 1187.44 163.589 1190.61 Q166.968 1193.78 166.968 1199.2 Q166.968 1204.78 163.496 1207.88 Q160.024 1210.96 153.704 1210.96 Q151.528 1210.96 149.26 1210.59 Q147.015 1210.22 144.607 1209.48 L144.607 1204.78 Q146.691 1205.91 148.913 1206.47 Q151.135 1207.02 153.612 1207.02 Q157.616 1207.02 159.954 1204.92 Q162.292 1202.81 162.292 1199.2 Q162.292 1195.59 159.954 1193.48 Q157.616 1191.37 153.612 1191.37 Q151.737 1191.37 149.862 1191.79 Q148.01 1192.21 146.066 1193.09 L146.066 1175.73 Z" fill="#000000" fill-rule="nonzero" fill-opacity="1" /><path clip-path="url(#clip950)" d="M186.181 1178.81 Q182.57 1178.81 180.741 1182.37 Q178.936 1185.91 178.936 1193.04 Q178.936 1200.15 180.741 1203.71 Q182.57 1207.25 186.181 1207.25 Q189.815 1207.25 191.621 1203.71 Q193.45 1200.15 193.45 1193.04 Q193.45 1185.91 191.621 1182.37 Q189.815 1178.81 186.181 1178.81 M186.181 1175.1 Q191.991 1175.1 195.047 1179.71 Q198.125 1184.29 198.125 1193.04 Q198.125 1201.77 195.047 1206.37 Q191.991 1210.96 186.181 1210.96 Q180.371 1210.96 177.292 1206.37 Q174.237 1201.77 174.237 1193.04 Q174.237 1184.29 177.292 1179.71 Q180.371 1175.1 186.181 1175.1 Z" fill="#000000" fill-rule="nonzero" fill-opacity="1" /><path clip-path="url(#clip950)" d="M120.88 922.625 L137.2 922.625 L137.2 926.56 L115.256 926.56 L115.256 922.625 Q117.918 919.87 122.501 915.24 Q127.107 910.588 128.288 909.245 Q130.533 906.722 131.413 904.986 Q132.316 903.227 132.316 901.537 Q132.316 898.782 130.371 897.046 Q128.45 895.31 125.348 895.31 Q123.149 895.31 120.695 896.074 Q118.265 896.838 115.487 898.389 L115.487 893.666 Q118.311 892.532 120.765 891.953 Q123.218 891.375 125.255 891.375 Q130.626 891.375 133.82 894.06 Q137.015 896.745 137.015 901.236 Q137.015 903.365 136.204 905.287 Q135.417 907.185 133.311 909.777 Q132.732 910.449 129.63 913.666 Q126.529 916.861 120.88 922.625 Z" fill="#000000" fill-rule="nonzero" fill-opacity="1" /><path clip-path="url(#clip950)" d="M145.834 892 L168.056 892 L168.056 893.99 L155.51 926.56 L150.626 926.56 L162.431 895.935 L145.834 895.935 L145.834 892 Z" fill="#000000" fill-rule="nonzero" fill-opacity="1" /><path clip-path="url(#clip950)" d="M177.223 892 L195.579 892 L195.579 895.935 L181.505 895.935 L181.505 904.407 Q182.524 904.06 183.542 903.898 Q184.561 903.713 185.579 903.713 Q191.366 903.713 194.746 906.884 Q198.125 910.055 198.125 915.472 Q198.125 921.051 194.653 924.152 Q191.181 927.231 184.862 927.231 Q182.686 927.231 180.417 926.861 Q178.172 926.49 175.764 925.75 L175.764 921.051 Q177.848 922.185 180.07 922.74 Q182.292 923.296 184.769 923.296 Q188.774 923.296 191.112 921.189 Q193.45 919.083 193.45 915.472 Q193.45 911.861 191.112 909.754 Q188.774 907.648 184.769 907.648 Q182.894 907.648 181.019 908.064 Q179.167 908.481 177.223 909.361 L177.223 892 Z" fill="#000000" fill-rule="nonzero" fill-opacity="1" /><path clip-path="url(#clip950)" d="M130.024 624.199 Q133.38 624.916 135.255 627.185 Q137.154 629.453 137.154 632.787 Q137.154 637.903 133.635 640.703 Q130.117 643.504 123.635 643.504 Q121.459 643.504 119.144 643.065 Q116.853 642.648 114.399 641.791 L114.399 637.278 Q116.343 638.412 118.658 638.99 Q120.973 639.569 123.496 639.569 Q127.894 639.569 130.186 637.833 Q132.501 636.097 132.501 632.787 Q132.501 629.731 130.348 628.018 Q128.218 626.282 124.399 626.282 L120.371 626.282 L120.371 622.44 L124.584 622.44 Q128.033 622.44 129.862 621.074 Q131.691 619.685 131.691 617.092 Q131.691 614.43 129.792 613.018 Q127.917 611.583 124.399 611.583 Q122.478 611.583 120.279 612 Q118.08 612.417 115.441 613.296 L115.441 609.13 Q118.103 608.389 120.418 608.018 Q122.755 607.648 124.816 607.648 Q130.14 607.648 133.242 610.079 Q136.343 612.486 136.343 616.606 Q136.343 619.477 134.7 621.467 Q133.056 623.435 130.024 624.199 Z" fill="#000000" fill-rule="nonzero" fill-opacity="1" /><path clip-path="url(#clip950)" d="M156.019 611.352 Q152.408 611.352 150.579 614.917 Q148.774 618.458 148.774 625.588 Q148.774 632.694 150.579 636.259 Q152.408 639.801 156.019 639.801 Q159.653 639.801 161.459 636.259 Q163.288 632.694 163.288 625.588 Q163.288 618.458 161.459 614.917 Q159.653 611.352 156.019 611.352 M156.019 607.648 Q161.829 607.648 164.885 612.254 Q167.964 616.838 167.964 625.588 Q167.964 634.315 164.885 638.921 Q161.829 643.504 156.019 643.504 Q150.209 643.504 147.13 638.921 Q144.075 634.315 144.075 625.588 Q144.075 616.838 147.13 612.254 Q150.209 607.648 156.019 607.648 Z" fill="#000000" fill-rule="nonzero" fill-opacity="1" /><path clip-path="url(#clip950)" d="M186.181 611.352 Q182.57 611.352 180.741 614.917 Q178.936 618.458 178.936 625.588 Q178.936 632.694 180.741 636.259 Q182.57 639.801 186.181 639.801 Q189.815 639.801 191.621 636.259 Q193.45 632.694 193.45 625.588 Q193.45 618.458 191.621 614.917 Q189.815 611.352 186.181 611.352 M186.181 607.648 Q191.991 607.648 195.047 612.254 Q198.125 616.838 198.125 625.588 Q198.125 634.315 195.047 638.921 Q191.991 643.504 186.181 643.504 Q180.371 643.504 177.292 638.921 Q174.237 634.315 174.237 625.588 Q174.237 616.838 177.292 612.254 Q180.371 607.648 186.181 607.648 Z" fill="#000000" fill-rule="nonzero" fill-opacity="1" /><path clip-path="url(#clip950)" d="M131.019 340.472 Q134.376 341.19 136.251 343.458 Q138.149 345.727 138.149 349.06 Q138.149 354.176 134.63 356.977 Q131.112 359.778 124.63 359.778 Q122.455 359.778 120.14 359.338 Q117.848 358.921 115.394 358.065 L115.394 353.551 Q117.339 354.685 119.654 355.264 Q121.968 355.842 124.492 355.842 Q128.89 355.842 131.181 354.106 Q133.496 352.37 133.496 349.06 Q133.496 346.005 131.343 344.292 Q129.214 342.555 125.394 342.555 L121.367 342.555 L121.367 338.713 L125.58 338.713 Q129.029 338.713 130.857 337.347 Q132.686 335.958 132.686 333.366 Q132.686 330.704 130.788 329.292 Q128.913 327.856 125.394 327.856 Q123.473 327.856 121.274 328.273 Q119.075 328.69 116.436 329.569 L116.436 325.403 Q119.098 324.662 121.413 324.292 Q123.751 323.921 125.811 323.921 Q131.135 323.921 134.237 326.352 Q137.339 328.759 137.339 332.88 Q137.339 335.75 135.695 337.741 Q134.052 339.708 131.019 340.472 Z" fill="#000000" fill-rule="nonzero" fill-opacity="1" /><path clip-path="url(#clip950)" d="M151.042 355.171 L167.362 355.171 L167.362 359.106 L145.417 359.106 L145.417 355.171 Q148.079 352.417 152.663 347.787 Q157.269 343.134 158.45 341.792 Q160.695 339.268 161.575 337.532 Q162.477 335.773 162.477 334.083 Q162.477 331.329 160.533 329.593 Q158.612 327.856 155.51 327.856 Q153.311 327.856 150.857 328.62 Q148.427 329.384 145.649 330.935 L145.649 326.213 Q148.473 325.079 150.927 324.5 Q153.38 323.921 155.417 323.921 Q160.788 323.921 163.982 326.606 Q167.177 329.292 167.177 333.782 Q167.177 335.912 166.366 337.833 Q165.579 339.731 163.473 342.324 Q162.894 342.995 159.792 346.213 Q156.69 349.407 151.042 355.171 Z" fill="#000000" fill-rule="nonzero" fill-opacity="1" /><path clip-path="url(#clip950)" d="M177.223 324.546 L195.579 324.546 L195.579 328.481 L181.505 328.481 L181.505 336.954 Q182.524 336.606 183.542 336.444 Q184.561 336.259 185.579 336.259 Q191.366 336.259 194.746 339.431 Q198.125 342.602 198.125 348.018 Q198.125 353.597 194.653 356.699 Q191.181 359.778 184.862 359.778 Q182.686 359.778 180.417 359.407 Q178.172 359.037 175.764 358.296 L175.764 353.597 Q177.848 354.731 180.07 355.287 Q182.292 355.842 184.769 355.842 Q188.774 355.842 191.112 353.736 Q193.45 351.63 193.45 348.018 Q193.45 344.407 191.112 342.301 Q188.774 340.194 184.769 340.194 Q182.894 340.194 181.019 340.611 Q179.167 341.028 177.223 341.907 L177.223 324.546 Z" fill="#000000" fill-rule="nonzero" fill-opacity="1" /><path clip-path="url(#clip950)" d="M130.024 56.7455 Q133.38 57.463 135.255 59.7315 Q137.154 62.0001 137.154 65.3334 Q137.154 70.4491 133.635 73.25 Q130.117 76.0509 123.635 76.0509 Q121.459 76.0509 119.144 75.6111 Q116.853 75.1944 114.399 74.3379 L114.399 69.8241 Q116.343 70.9583 118.658 71.537 Q120.973 72.1157 123.496 72.1157 Q127.894 72.1157 130.186 70.3796 Q132.501 68.6435 132.501 65.3334 Q132.501 62.2778 130.348 60.5649 Q128.218 58.8288 124.399 58.8288 L120.371 58.8288 L120.371 54.9862 L124.584 54.9862 Q128.033 54.9862 129.862 53.6205 Q131.691 52.2316 131.691 49.639 Q131.691 46.977 129.792 45.565 Q127.917 44.1298 124.399 44.1298 Q122.478 44.1298 120.279 44.5464 Q118.08 44.9631 115.441 45.8427 L115.441 41.6761 Q118.103 40.9353 120.418 40.565 Q122.755 40.1946 124.816 40.1946 Q130.14 40.1946 133.242 42.6252 Q136.343 45.0325 136.343 49.1529 Q136.343 52.0233 134.7 54.014 Q133.056 55.9816 130.024 56.7455 Z" fill="#000000" fill-rule="nonzero" fill-opacity="1" /><path clip-path="url(#clip950)" d="M146.066 40.8196 L164.422 40.8196 L164.422 44.7548 L150.348 44.7548 L150.348 53.227 Q151.366 52.8797 152.385 52.7177 Q153.403 52.5325 154.422 52.5325 Q160.209 52.5325 163.589 55.7038 Q166.968 58.8751 166.968 64.2917 Q166.968 69.8704 163.496 72.9722 Q160.024 76.0509 153.704 76.0509 Q151.528 76.0509 149.26 75.6805 Q147.015 75.3102 144.607 74.5694 L144.607 69.8704 Q146.691 71.0046 148.913 71.5602 Q151.135 72.1157 153.612 72.1157 Q157.616 72.1157 159.954 70.0093 Q162.292 67.9028 162.292 64.2917 Q162.292 60.6806 159.954 58.5741 Q157.616 56.4677 153.612 56.4677 Q151.737 56.4677 149.862 56.8843 Q148.01 57.301 146.066 58.1806 L146.066 40.8196 Z" fill="#000000" fill-rule="nonzero" fill-opacity="1" /><path clip-path="url(#clip950)" d="M186.181 43.8983 Q182.57 43.8983 180.741 47.4631 Q178.936 51.0047 178.936 58.1343 Q178.936 65.2408 180.741 68.8056 Q182.57 72.3472 186.181 72.3472 Q189.815 72.3472 191.621 68.8056 Q193.45 65.2408 193.45 58.1343 Q193.45 51.0047 191.621 47.4631 Q189.815 43.8983 186.181 43.8983 M186.181 40.1946 Q191.991 40.1946 195.047 44.8011 Q198.125 49.3844 198.125 58.1343 Q198.125 66.8611 195.047 71.4676 Q191.991 76.0509 186.181 76.0509 Q180.371 76.0509 177.292 71.4676 Q174.237 66.8611 174.237 58.1343 Q174.237 49.3844 177.292 44.8011 Q180.371 40.1946 186.181 40.1946 Z" fill="#000000" fill-rule="nonzero" fill-opacity="1" /><path clip-path="url(#clip950)" d="M16.4842 754.07 L16.4842 747.641 L36.568 747.641 L16.4842 726.316 L16.4842 718.04 L38.6368 741.625 L64.0042 716.354 L64.0042 724.82 L41.1194 747.641 L64.0042 747.641 L64.0042 754.07 L16.4842 754.07 Z" fill="#000000" fill-rule="nonzero" fill-opacity="1" /><polyline clip-path="url(#clip952)" style="stroke:#e6540d; stroke-linecap:round; stroke-linejoin:round; stroke-width:4; stroke-opacity:1; fill:none" points="294.087,1384.24 360.71,1324.34 427.334,1282.66 493.957,1282.93 560.581,1265.81 627.205,1255.35 693.828,1246.37 760.452,1233.75 827.075,1230.83 893.699,1224.04 960.323,1221.43 1026.95,1216.48 1093.57,1215.34 1160.19,1211.26 1226.82,1209.76 1293.44,1207.77 1360.06,1205.68 1426.69,1205.07 1493.31,1203.47 1559.94,1202.35 1626.56,1201.7 1693.18,1201.21 1759.81,1200.64 1826.43,1200.07 1893.05,1201.05 1959.68,1200.69 2026.3,1200.59 2092.92,1202.96 2159.55,1199.59 2226.17,1199.23 2292.79,1199.34 "/>
<path clip-path="url(#clip952)" d="M310.087 1368.24 L278.087 1368.24 L294.087 1400.24 L310.087 1368.24 Z" fill="#e6540d" fill-rule="evenodd" fill-opacity="1" stroke="#000000" stroke-opacity="1" stroke-width="3.2"/>
<path clip-path="url(#clip952)" d="M709.828 1230.37 L677.828 1230.37 L693.828 1262.37 L709.828 1230.37 Z" fill="#e6540d" fill-rule="evenodd" fill-opacity="1" stroke="#000000" stroke-opacity="1" stroke-width="3.2"/>
<path clip-path="url(#clip952)" d="M1109.57 1199.34 L1077.57 1199.34 L1093.57 1231.34 L1109.57 1199.34 Z" fill="#e6540d" fill-rule="evenodd" fill-opacity="1" stroke="#000000" stroke-opacity="1" stroke-width="3.2"/>
<path clip-path="url(#clip952)" d="M1509.31 1187.47 L1477.31 1187.47 L1493.31 1219.47 L1509.31 1187.47 Z" fill="#e6540d" fill-rule="evenodd" fill-opacity="1" stroke="#000000" stroke-opacity="1" stroke-width="3.2"/>
<path clip-path="url(#clip952)" d="M1909.05 1185.05 L1877.05 1185.05 L1893.05 1217.05 L1909.05 1185.05 Z" fill="#e6540d" fill-rule="evenodd" fill-opacity="1" stroke="#000000" stroke-opacity="1" stroke-width="3.2"/>
<path clip-path="url(#clip952)" d="M2308.79 1183.34 L2276.79 1183.34 L2292.79 1215.34 L2308.79 1183.34 Z" fill="#e6540d" fill-rule="evenodd" fill-opacity="1" stroke="#000000" stroke-opacity="1" stroke-width="3.2"/>
<polyline clip-path="url(#clip952)" style="stroke:#e6540d; stroke-linecap:round; stroke-linejoin:round; stroke-width:4; stroke-opacity:1; fill:none" stroke-dasharray="16, 10" points="294.087,1384.24 360.71,943.334 427.334,794.493 493.957,768.092 560.581,658.009 627.205,602.2 693.828,556.908 760.452,494.861 827.075,482.226 893.699,448.933 960.323,435.495 1026.95,408.203 1093.57,402.089 1160.19,373.53 1226.82,364.283 1293.44,345.152 1360.06,324.123 1426.69,321.773 1493.31,294.318 1559.94,276.6 1626.56,271.061 1693.18,244.199 1759.81,228.251 1826.43,219.866 1893.05,192.926 1959.68,178.401 2026.3,165.588 2092.92,139.323 2159.55,134.601 2226.17,118.052 2292.79,86.1857 "/>
<path clip-path="url(#clip952)" d="M310.087 1368.24 L278.087 1368.24 L294.087 1400.24 L310.087 1368.24 Z" fill="#ffffff" fill-rule="evenodd" fill-opacity="1" stroke="#e6540d" stroke-opacity="1" stroke-width="3.2"/>
<path clip-path="url(#clip952)" d="M709.828 540.908 L677.828 540.908 L693.828 572.908 L709.828 540.908 Z" fill="#ffffff" fill-rule="evenodd" fill-opacity="1" stroke="#e6540d" stroke-opacity="1" stroke-width="3.2"/>
<path clip-path="url(#clip952)" d="M1109.57 386.089 L1077.57 386.089 L1093.57 418.089 L1109.57 386.089 Z" fill="#ffffff" fill-rule="evenodd" fill-opacity="1" stroke="#e6540d" stroke-opacity="1" stroke-width="3.2"/>
<path clip-path="url(#clip952)" d="M1509.31 278.318 L1477.31 278.318 L1493.31 310.318 L1509.31 278.318 Z" fill="#ffffff" fill-rule="evenodd" fill-opacity="1" stroke="#e6540d" stroke-opacity="1" stroke-width="3.2"/>
<path clip-path="url(#clip952)" d="M1909.05 176.926 L1877.05 176.926 L1893.05 208.926 L1909.05 176.926 Z" fill="#ffffff" fill-rule="evenodd" fill-opacity="1" stroke="#e6540d" stroke-opacity="1" stroke-width="3.2"/>
<path clip-path="url(#clip952)" d="M2308.79 70.1857 L2276.79 70.1857 L2292.79 102.186 L2308.79 70.1857 Z" fill="#ffffff" fill-rule="evenodd" fill-opacity="1" stroke="#e6540d" stroke-opacity="1" stroke-width="3.2"/>
<path clip-path="url(#clip950)" d="M304.746 248.629 L770.984 248.629 L770.984 93.1086 L304.746 93.1086  Z" fill="#ffffff" fill-rule="evenodd" fill-opacity="1"/>
<polyline clip-path="url(#clip950)" style="stroke:#000000; stroke-linecap:round; stroke-linejoin:round; stroke-width:4; stroke-opacity:1; fill:none" points="304.746,248.629 770.984,248.629 770.984,93.1086 304.746,93.1086 304.746,248.629 "/>
<polyline clip-path="url(#clip950)" style="stroke:#e6540d; stroke-linecap:round; stroke-linejoin:round; stroke-width:4; stroke-opacity:1; fill:none" points="328.287,144.949 469.529,144.949 "/>
<path clip-path="url(#clip950)" d="M420.704 123.152 L377.111 123.152 L398.908 166.745 L420.704 123.152 Z" fill="#e6540d" fill-rule="evenodd" fill-opacity="1" stroke="#000000" stroke-opacity="1" stroke-width="4.55111"/>
<path clip-path="url(#clip950)" d="M525.697 122.039 Q525.697 122.484 525.603 122.859 L524.291 131.197 Q524.221 131.83 524.08 132.064 Q523.963 132.298 523.589 132.298 Q523.003 132.298 523.003 131.689 Q523.003 131.338 523.144 130.776 Q523.542 128.129 523.542 126.934 Q523.542 126.138 523.378 125.552 Q523.237 124.943 523.003 124.522 Q522.792 124.1 522.3 123.819 Q521.809 123.538 521.34 123.374 Q520.872 123.21 520.028 123.14 Q519.185 123.046 518.459 123.023 Q517.733 122.999 516.538 122.999 Q513.939 122.999 513.517 123.093 Q513.072 123.21 512.838 123.561 Q512.627 123.889 512.393 124.873 L506.022 150.333 L505.834 151.34 Q505.834 151.903 506.186 152.09 Q506.537 152.277 507.615 152.394 Q509.16 152.512 510.683 152.512 Q510.73 152.512 510.823 152.512 Q511.339 152.512 511.549 152.535 Q511.76 152.535 511.971 152.582 Q512.182 152.629 512.229 152.746 Q512.299 152.84 512.299 153.027 Q512.299 153.472 512.112 153.706 Q511.924 153.917 511.737 153.964 Q511.573 153.987 511.245 153.987 Q510.589 153.987 509.184 153.94 Q507.778 153.894 507.076 153.894 L503.094 153.847 L499.018 153.894 Q498.386 153.894 497.051 153.94 Q495.716 153.987 495.084 153.987 Q494.264 153.987 494.264 153.402 Q494.264 152.746 494.568 152.629 Q494.896 152.512 496.278 152.512 Q498.222 152.512 499.276 152.418 Q500.33 152.324 500.892 151.996 Q501.478 151.668 501.642 151.34 Q501.806 150.989 501.993 150.193 L508.434 124.592 Q508.622 124.03 508.622 123.585 Q508.622 123.351 508.551 123.257 Q508.505 123.163 508.2 123.093 Q507.896 122.999 507.263 122.999 L505.389 122.999 Q503.469 122.999 502.274 123.093 Q501.103 123.163 499.979 123.515 Q498.878 123.866 498.222 124.358 Q497.59 124.85 496.887 125.857 Q496.184 126.864 495.669 128.082 Q495.177 129.3 494.475 131.291 Q494.24 131.947 494.1 132.134 Q493.983 132.298 493.655 132.298 Q493.421 132.298 493.233 132.157 Q493.069 131.994 493.069 131.783 Q493.303 131.01 493.35 130.916 L496.231 122.461 Q496.465 121.781 496.676 121.664 Q496.91 121.524 497.777 121.524 L524.385 121.524 Q524.807 121.524 524.947 121.524 Q525.088 121.524 525.322 121.571 Q525.556 121.617 525.626 121.735 Q525.697 121.852 525.697 122.039 Z" fill="#000000" fill-rule="nonzero" fill-opacity="1" /><path clip-path="url(#clip950)" d="M530.486 154.623 L530.486 153.573 L533.126 153.573 L533.126 149.72 Q533.126 147.228 534.733 145.802 Q536.356 144.375 538.34 144.375 Q539.651 144.375 540.504 145.08 Q541.356 145.785 541.356 146.736 Q541.356 147.376 540.963 147.802 Q540.586 148.212 539.881 148.212 Q539.209 148.212 538.815 147.786 Q538.438 147.359 538.438 146.769 Q538.438 145.687 539.438 145.359 Q538.93 145.129 538.34 145.113 Q537.126 145.113 536.175 146.359 Q535.241 147.605 535.241 149.687 L535.241 153.573 L539.176 153.573 L539.176 154.623 L535.356 154.623 L535.356 165.427 Q535.356 166.395 535.749 166.706 Q536.159 167.018 537.897 167.018 L538.602 167.018 L538.602 168.051 Q537.257 167.952 534.339 167.952 Q533.929 167.952 533.29 167.969 Q532.667 167.985 531.814 168.018 Q530.978 168.051 530.519 168.051 L530.519 167.018 Q532.306 167.018 532.716 166.805 Q533.126 166.575 533.126 165.493 L533.126 154.623 L530.486 154.623 Z" fill="#000000" fill-rule="nonzero" fill-opacity="1" /><path clip-path="url(#clip950)" d="M547.635 148.108 L552.519 148.108 L552.519 152.089 L548.723 159.496 L545.737 159.496 L547.635 152.089 L547.635 148.108 Z" fill="#000000" fill-rule="nonzero" fill-opacity="1" /><path clip-path="url(#clip950)" d="M596.871 133.038 Q598.468 130.168 600.69 128.802 Q602.913 127.436 605.922 127.436 Q609.973 127.436 612.172 130.284 Q614.371 133.108 614.371 138.339 L614.371 153.987 L610.088 153.987 L610.088 138.478 Q610.088 134.751 608.769 132.946 Q607.45 131.14 604.741 131.14 Q601.431 131.14 599.51 133.339 Q597.588 135.538 597.588 139.335 L597.588 153.987 L593.306 153.987 L593.306 138.478 Q593.306 134.728 591.987 132.946 Q590.667 131.14 587.913 131.14 Q584.649 131.14 582.727 133.362 Q580.806 135.561 580.806 139.335 L580.806 153.987 L576.524 153.987 L576.524 128.061 L580.806 128.061 L580.806 132.089 Q582.264 129.705 584.302 128.571 Q586.339 127.436 589.139 127.436 Q591.964 127.436 593.931 128.872 Q595.922 130.307 596.871 133.038 Z" fill="#000000" fill-rule="nonzero" fill-opacity="1" /><path clip-path="url(#clip950)" d="M632.912 131.048 Q629.486 131.048 627.496 133.733 Q625.505 136.395 625.505 141.047 Q625.505 145.7 627.473 148.385 Q629.463 151.047 632.912 151.047 Q636.315 151.047 638.306 148.362 Q640.297 145.677 640.297 141.047 Q640.297 136.441 638.306 133.756 Q636.315 131.048 632.912 131.048 M632.912 127.436 Q638.468 127.436 641.639 131.048 Q644.81 134.659 644.81 141.047 Q644.81 147.413 641.639 151.047 Q638.468 154.659 632.912 154.659 Q627.334 154.659 624.162 151.047 Q621.014 147.413 621.014 141.047 Q621.014 134.659 624.162 131.048 Q627.334 127.436 632.912 127.436 Z" fill="#000000" fill-rule="nonzero" fill-opacity="1" /><path clip-path="url(#clip950)" d="M668.931 131.997 L668.931 117.969 L673.19 117.969 L673.19 153.987 L668.931 153.987 L668.931 150.098 Q667.588 152.413 665.528 153.547 Q663.491 154.659 660.621 154.659 Q655.922 154.659 652.959 150.909 Q650.019 147.159 650.019 141.047 Q650.019 134.936 652.959 131.186 Q655.922 127.436 660.621 127.436 Q663.491 127.436 665.528 128.571 Q667.588 129.682 668.931 131.997 M654.417 141.047 Q654.417 145.747 656.338 148.432 Q658.283 151.094 661.662 151.094 Q665.042 151.094 666.986 148.432 Q668.931 145.747 668.931 141.047 Q668.931 136.348 666.986 133.686 Q665.042 131.001 661.662 131.001 Q658.283 131.001 656.338 133.686 Q654.417 136.348 654.417 141.047 Z" fill="#000000" fill-rule="nonzero" fill-opacity="1" /><path clip-path="url(#clip950)" d="M704.139 139.96 L704.139 142.043 L684.556 142.043 Q684.833 146.441 687.194 148.756 Q689.579 151.047 693.815 151.047 Q696.269 151.047 698.56 150.446 Q700.875 149.844 703.143 148.64 L703.143 152.668 Q700.852 153.64 698.444 154.149 Q696.037 154.659 693.56 154.659 Q687.357 154.659 683.722 151.047 Q680.111 147.436 680.111 141.279 Q680.111 134.913 683.537 131.186 Q686.986 127.436 692.819 127.436 Q698.051 127.436 701.083 130.816 Q704.139 134.173 704.139 139.96 M699.88 138.71 Q699.833 135.214 697.912 133.131 Q696.014 131.048 692.866 131.048 Q689.301 131.048 687.148 133.061 Q685.019 135.075 684.694 138.733 L699.88 138.71 Z" fill="#000000" fill-rule="nonzero" fill-opacity="1" /><path clip-path="url(#clip950)" d="M711.13 117.969 L715.389 117.969 L715.389 153.987 L711.13 153.987 L711.13 117.969 Z" fill="#000000" fill-rule="nonzero" fill-opacity="1" /><polyline clip-path="url(#clip950)" style="stroke:#e6540d; stroke-linecap:round; stroke-linejoin:round; stroke-width:4; stroke-opacity:1; fill:none" stroke-dasharray="16, 10" points="328.287,196.789 469.529,196.789 "/>
<path clip-path="url(#clip950)" d="M420.704 174.992 L377.111 174.992 L398.908 218.585 L420.704 174.992 Z" fill="#ffffff" fill-rule="evenodd" fill-opacity="1" stroke="#e6540d" stroke-opacity="1" stroke-width="4.55111"/>
<path clip-path="url(#clip950)" d="M525.697 176.423 Q525.697 176.868 525.603 177.243 L524.291 185.581 Q524.221 186.214 524.08 186.448 Q523.963 186.682 523.589 186.682 Q523.003 186.682 523.003 186.073 Q523.003 185.722 523.144 185.16 Q523.542 182.513 523.542 181.318 Q523.542 180.522 523.378 179.936 Q523.237 179.327 523.003 178.906 Q522.792 178.484 522.3 178.203 Q521.809 177.922 521.34 177.758 Q520.872 177.594 520.028 177.524 Q519.185 177.43 518.459 177.407 Q517.733 177.383 516.538 177.383 Q513.939 177.383 513.517 177.477 Q513.072 177.594 512.838 177.946 Q512.627 178.273 512.393 179.257 L506.022 204.717 L505.834 205.725 Q505.834 206.287 506.186 206.474 Q506.537 206.661 507.615 206.779 Q509.16 206.896 510.683 206.896 Q510.73 206.896 510.823 206.896 Q511.339 206.896 511.549 206.919 Q511.76 206.919 511.971 206.966 Q512.182 207.013 512.229 207.13 Q512.299 207.224 512.299 207.411 Q512.299 207.856 512.112 208.09 Q511.924 208.301 511.737 208.348 Q511.573 208.371 511.245 208.371 Q510.589 208.371 509.184 208.324 Q507.778 208.278 507.076 208.278 L503.094 208.231 L499.018 208.278 Q498.386 208.278 497.051 208.324 Q495.716 208.371 495.084 208.371 Q494.264 208.371 494.264 207.786 Q494.264 207.13 494.568 207.013 Q494.896 206.896 496.278 206.896 Q498.222 206.896 499.276 206.802 Q500.33 206.708 500.892 206.38 Q501.478 206.052 501.642 205.725 Q501.806 205.373 501.993 204.577 L508.434 178.976 Q508.622 178.414 508.622 177.969 Q508.622 177.735 508.551 177.641 Q508.505 177.547 508.2 177.477 Q507.896 177.383 507.263 177.383 L505.389 177.383 Q503.469 177.383 502.274 177.477 Q501.103 177.547 499.979 177.899 Q498.878 178.25 498.222 178.742 Q497.59 179.234 496.887 180.241 Q496.184 181.248 495.669 182.466 Q495.177 183.684 494.475 185.675 Q494.24 186.331 494.1 186.518 Q493.983 186.682 493.655 186.682 Q493.421 186.682 493.233 186.542 Q493.069 186.378 493.069 186.167 Q493.303 185.394 493.35 185.3 L496.231 176.845 Q496.465 176.165 496.676 176.048 Q496.91 175.908 497.777 175.908 L524.385 175.908 Q524.807 175.908 524.947 175.908 Q525.088 175.908 525.322 175.955 Q525.556 176.001 525.626 176.119 Q525.697 176.236 525.697 176.423 Z" fill="#000000" fill-rule="nonzero" fill-opacity="1" /><path clip-path="url(#clip950)" d="M530.486 203.547 L530.486 202.497 Q531.994 202.596 533.749 202.596 Q534.388 202.596 537.405 202.497 L537.405 203.547 Q535.487 203.547 535.487 204.416 Q535.487 204.547 535.683 204.989 L539.455 214.351 L542.881 205.793 Q543.078 205.219 543.078 204.989 Q543.078 204.416 542.684 204.006 Q542.307 203.579 541.471 203.547 L541.471 202.497 Q543.176 202.596 544.39 202.596 Q545.767 202.596 546.898 202.497 L546.898 203.547 Q545.898 203.547 545.193 204.006 Q544.488 204.448 544.258 204.842 Q544.045 205.219 543.816 205.793 L539.422 216.712 Q539.159 217.352 538.717 217.352 Q538.422 217.352 538.29 217.221 Q538.176 217.106 538.012 216.712 L533.175 204.793 Q532.847 203.957 532.421 203.76 Q531.994 203.547 530.486 203.547 Z" fill="#000000" fill-rule="nonzero" fill-opacity="1" /><path clip-path="url(#clip950)" d="M548.676 203.547 L548.676 202.497 Q550.496 202.596 551.791 202.596 Q552.431 202.596 555.464 202.497 L555.464 203.547 Q553.48 203.547 553.48 204.448 Q553.48 204.645 553.644 205.055 L556.841 214.023 L559.727 205.891 Q559.12 204.252 558.956 204.055 Q558.546 203.547 556.841 203.547 L556.841 202.497 Q558.349 202.596 559.825 202.596 Q560.399 202.596 563.317 202.497 L563.317 203.547 Q561.333 203.547 561.333 204.448 Q561.333 204.58 561.497 205.088 L564.826 214.45 L567.875 205.858 Q568.039 205.416 568.056 205.153 Q568.056 204.416 567.531 204.006 Q567.006 203.579 566.105 203.547 L566.105 202.497 Q568.023 202.596 569.22 202.596 Q570.564 202.596 571.679 202.497 L571.679 203.547 Q569.597 203.612 568.859 205.694 L564.924 216.712 Q564.547 217.319 564.252 217.352 Q563.809 217.352 563.58 216.712 L560.153 207.17 L556.759 216.68 Q556.628 217.089 556.513 217.221 Q556.398 217.352 556.087 217.352 Q555.792 217.352 555.661 217.171 Q555.529 217.008 555.382 216.598 L551.152 204.711 Q550.857 203.94 550.414 203.743 Q549.988 203.547 548.676 203.547 Z" fill="#000000" fill-rule="nonzero" fill-opacity="1" /><path clip-path="url(#clip950)" d="M579.69 202.492 L584.574 202.492 L584.574 206.473 L580.778 213.881 L577.792 213.881 L579.69 206.473 L579.69 202.492 Z" fill="#000000" fill-rule="nonzero" fill-opacity="1" /><path clip-path="url(#clip950)" d="M628.926 187.422 Q630.523 184.552 632.745 183.186 Q634.967 181.82 637.977 181.82 Q642.028 181.82 644.227 184.668 Q646.426 187.492 646.426 192.723 L646.426 208.371 L642.143 208.371 L642.143 192.862 Q642.143 189.135 640.824 187.33 Q639.504 185.524 636.796 185.524 Q633.486 185.524 631.565 187.723 Q629.643 189.922 629.643 193.719 L629.643 208.371 L625.361 208.371 L625.361 192.862 Q625.361 189.112 624.042 187.33 Q622.722 185.524 619.968 185.524 Q616.704 185.524 614.782 187.746 Q612.861 189.945 612.861 193.719 L612.861 208.371 L608.579 208.371 L608.579 182.445 L612.861 182.445 L612.861 186.473 Q614.319 184.089 616.356 182.955 Q618.393 181.82 621.194 181.82 Q624.018 181.82 625.986 183.256 Q627.977 184.691 628.926 187.422 Z" fill="#000000" fill-rule="nonzero" fill-opacity="1" /><path clip-path="url(#clip950)" d="M664.967 185.432 Q661.541 185.432 659.551 188.117 Q657.56 190.779 657.56 195.432 Q657.56 200.084 659.528 202.769 Q661.518 205.431 664.967 205.431 Q668.37 205.431 670.361 202.746 Q672.352 200.061 672.352 195.432 Q672.352 190.825 670.361 188.14 Q668.37 185.432 664.967 185.432 M664.967 181.82 Q670.523 181.82 673.694 185.432 Q676.865 189.043 676.865 195.432 Q676.865 201.797 673.694 205.431 Q670.523 209.043 664.967 209.043 Q659.389 209.043 656.217 205.431 Q653.069 201.797 653.069 195.432 Q653.069 189.043 656.217 185.432 Q659.389 181.82 664.967 181.82 Z" fill="#000000" fill-rule="nonzero" fill-opacity="1" /><path clip-path="url(#clip950)" d="M700.986 186.381 L700.986 172.353 L705.245 172.353 L705.245 208.371 L700.986 208.371 L700.986 204.482 Q699.643 206.797 697.583 207.931 Q695.546 209.043 692.675 209.043 Q687.976 209.043 685.013 205.293 Q682.074 201.543 682.074 195.432 Q682.074 189.32 685.013 185.57 Q687.976 181.82 692.675 181.82 Q695.546 181.82 697.583 182.955 Q699.643 184.066 700.986 186.381 M686.472 195.432 Q686.472 200.131 688.393 202.816 Q690.338 205.478 693.717 205.478 Q697.097 205.478 699.041 202.816 Q700.986 200.131 700.986 195.432 Q700.986 190.732 699.041 188.07 Q697.097 185.385 693.717 185.385 Q690.338 185.385 688.393 188.07 Q686.472 190.732 686.472 195.432 Z" fill="#000000" fill-rule="nonzero" fill-opacity="1" /><path clip-path="url(#clip950)" d="M736.194 194.344 L736.194 196.427 L716.611 196.427 Q716.888 200.825 719.249 203.14 Q721.634 205.431 725.87 205.431 Q728.323 205.431 730.615 204.83 Q732.93 204.228 735.198 203.024 L735.198 207.052 Q732.907 208.024 730.499 208.533 Q728.092 209.043 725.615 209.043 Q719.411 209.043 715.777 205.431 Q712.166 201.82 712.166 195.663 Q712.166 189.297 715.592 185.57 Q719.041 181.82 724.874 181.82 Q730.106 181.82 733.138 185.2 Q736.194 188.557 736.194 194.344 M731.935 193.094 Q731.888 189.598 729.967 187.515 Q728.069 185.432 724.921 185.432 Q721.356 185.432 719.203 187.445 Q717.074 189.459 716.749 193.117 L731.935 193.094 Z" fill="#000000" fill-rule="nonzero" fill-opacity="1" /><path clip-path="url(#clip950)" d="M743.184 172.353 L747.444 172.353 L747.444 208.371 L743.184 208.371 L743.184 172.353 Z" fill="#000000" fill-rule="nonzero" fill-opacity="1" /></svg>
