<?xml version="1.0" encoding="utf-8"?>
<svg xmlns="http://www.w3.org/2000/svg" xmlns:xlink="http://www.w3.org/1999/xlink" width="600" height="400" viewBox="0 0 2400 1600">
<defs>
  <clipPath id="clip510">
    <rect x="0" y="0" width="2400" height="1600"/>
  </clipPath>
</defs>
<path clip-path="url(#clip510)" d="M0 1600 L2400 1600 L2400 0 L0 0  Z" fill="#ffffff" fill-rule="evenodd" fill-opacity="1"/>
<defs>
  <clipPath id="clip511">
    <rect x="286" y="47" width="2067" height="1377"/>
  </clipPath>
</defs>
<path clip-path="url(#clip510)" d="M287.366 1423.18 L2352.76 1423.18 L2352.76 47.2441 L287.366 47.2441  Z" fill="#ffffff" fill-rule="evenodd" fill-opacity="1"/>
<defs>
  <clipPath id="clip512">
    <rect x="287" y="47" width="2066" height="1377"/>
  </clipPath>
</defs>
<polyline clip-path="url(#clip512)" style="stroke:#000000; stroke-linecap:round; stroke-linejoin:round; stroke-width:2; stroke-opacity:0.1; fill:none" points="345.82,1423.18 345.82,47.2441 "/>
<polyline clip-path="url(#clip512)" style="stroke:#000000; stroke-linecap:round; stroke-linejoin:round; stroke-width:2; stroke-opacity:0.1; fill:none" points="811.013,1423.18 811.013,47.2441 "/>
<polyline clip-path="url(#clip512)" style="stroke:#000000; stroke-linecap:round; stroke-linejoin:round; stroke-width:2; stroke-opacity:0.1; fill:none" points="1276.21,1423.18 1276.21,47.2441 "/>
<polyline clip-path="url(#clip512)" style="stroke:#000000; stroke-linecap:round; stroke-linejoin:round; stroke-width:2; stroke-opacity:0.1; fill:none" points="1741.4,1423.18 1741.4,47.2441 "/>
<polyline clip-path="url(#clip512)" style="stroke:#000000; stroke-linecap:round; stroke-linejoin:round; stroke-width:2; stroke-opacity:0.1; fill:none" points="2206.59,1423.18 2206.59,47.2441 "/>
<polyline clip-path="url(#clip512)" style="stroke:#000000; stroke-linecap:round; stroke-linejoin:round; stroke-width:2; stroke-opacity:0.1; fill:none" points="287.366,1256.76 2352.76,1256.76 "/>
<polyline clip-path="url(#clip512)" style="stroke:#000000; stroke-linecap:round; stroke-linejoin:round; stroke-width:2; stroke-opacity:0.1; fill:none" points="287.366,981.77 2352.76,981.77 "/>
<polyline clip-path="url(#clip512)" style="stroke:#000000; stroke-linecap:round; stroke-linejoin:round; stroke-width:2; stroke-opacity:0.1; fill:none" points="287.366,706.776 2352.76,706.776 "/>
<polyline clip-path="url(#clip512)" style="stroke:#000000; stroke-linecap:round; stroke-linejoin:round; stroke-width:2; stroke-opacity:0.1; fill:none" points="287.366,431.781 2352.76,431.781 "/>
<polyline clip-path="url(#clip512)" style="stroke:#000000; stroke-linecap:round; stroke-linejoin:round; stroke-width:2; stroke-opacity:0.1; fill:none" points="287.366,156.787 2352.76,156.787 "/>
<polyline clip-path="url(#clip510)" style="stroke:#000000; stroke-linecap:round; stroke-linejoin:round; stroke-width:4; stroke-opacity:1; fill:none" points="287.366,1423.18 2352.76,1423.18 "/>
<polyline clip-path="url(#clip510)" style="stroke:#000000; stroke-linecap:round; stroke-linejoin:round; stroke-width:4; stroke-opacity:1; fill:none" points="345.82,1423.18 345.82,1404.28 "/>
<polyline clip-path="url(#clip510)" style="stroke:#000000; stroke-linecap:round; stroke-linejoin:round; stroke-width:4; stroke-opacity:1; fill:none" points="811.013,1423.18 811.013,1404.28 "/>
<polyline clip-path="url(#clip510)" style="stroke:#000000; stroke-linecap:round; stroke-linejoin:round; stroke-width:4; stroke-opacity:1; fill:none" points="1276.21,1423.18 1276.21,1404.28 "/>
<polyline clip-path="url(#clip510)" style="stroke:#000000; stroke-linecap:round; stroke-linejoin:round; stroke-width:4; stroke-opacity:1; fill:none" points="1741.4,1423.18 1741.4,1404.28 "/>
<polyline clip-path="url(#clip510)" style="stroke:#000000; stroke-linecap:round; stroke-linejoin:round; stroke-width:4; stroke-opacity:1; fill:none" points="2206.59,1423.18 2206.59,1404.28 "/>
<path clip-path="url(#clip510)" d="M345.82 1454.1 Q342.209 1454.1 340.381 1457.66 Q338.575 1461.2 338.575 1468.33 Q338.575 1475.44 340.381 1479.01 Q342.209 1482.55 345.82 1482.55 Q349.455 1482.55 351.26 1479.01 Q353.089 1475.44 353.089 1468.33 Q353.089 1461.2 351.26 1457.66 Q349.455 1454.1 345.82 1454.1 M345.82 1450.39 Q351.63 1450.39 354.686 1455 Q357.765 1459.58 357.765 1468.33 Q357.765 1477.06 354.686 1481.67 Q351.63 1486.25 345.82 1486.25 Q340.01 1486.25 336.931 1481.67 Q333.876 1477.06 333.876 1468.33 Q333.876 1459.58 336.931 1455 Q340.01 1450.39 345.82 1450.39 Z" fill="#000000" fill-rule="nonzero" fill-opacity="1" /><path clip-path="url(#clip510)" d="M785.701 1481.64 L793.34 1481.64 L793.34 1455.28 L785.03 1456.95 L785.03 1452.69 L793.294 1451.02 L797.969 1451.02 L797.969 1481.64 L805.608 1481.64 L805.608 1485.58 L785.701 1485.58 L785.701 1481.64 Z" fill="#000000" fill-rule="nonzero" fill-opacity="1" /><path clip-path="url(#clip510)" d="M825.053 1454.1 Q821.442 1454.1 819.613 1457.66 Q817.807 1461.2 817.807 1468.33 Q817.807 1475.44 819.613 1479.01 Q821.442 1482.55 825.053 1482.55 Q828.687 1482.55 830.492 1479.01 Q832.321 1475.44 832.321 1468.33 Q832.321 1461.2 830.492 1457.66 Q828.687 1454.1 825.053 1454.1 M825.053 1450.39 Q830.863 1450.39 833.918 1455 Q836.997 1459.58 836.997 1468.33 Q836.997 1477.06 833.918 1481.67 Q830.863 1486.25 825.053 1486.25 Q819.243 1486.25 816.164 1481.67 Q813.108 1477.06 813.108 1468.33 Q813.108 1459.58 816.164 1455 Q819.243 1450.39 825.053 1450.39 Z" fill="#000000" fill-rule="nonzero" fill-opacity="1" /><path clip-path="url(#clip510)" d="M1254.98 1481.64 L1271.3 1481.64 L1271.3 1485.58 L1249.35 1485.58 L1249.35 1481.64 Q1252.02 1478.89 1256.6 1474.26 Q1261.21 1469.61 1262.39 1468.27 Q1264.63 1465.74 1265.51 1464.01 Q1266.41 1462.25 1266.41 1460.56 Q1266.41 1457.8 1264.47 1456.07 Q1262.55 1454.33 1259.45 1454.33 Q1257.25 1454.33 1254.79 1455.09 Q1252.36 1455.86 1249.59 1457.41 L1249.59 1452.69 Q1252.41 1451.55 1254.86 1450.97 Q1257.32 1450.39 1259.35 1450.39 Q1264.73 1450.39 1267.92 1453.08 Q1271.11 1455.77 1271.11 1460.26 Q1271.11 1462.39 1270.3 1464.31 Q1269.52 1466.2 1267.41 1468.8 Q1266.83 1469.47 1263.73 1472.69 Q1260.63 1475.88 1254.98 1481.64 Z" fill="#000000" fill-rule="nonzero" fill-opacity="1" /><path clip-path="url(#clip510)" d="M1291.11 1454.1 Q1287.5 1454.1 1285.67 1457.66 Q1283.87 1461.2 1283.87 1468.33 Q1283.87 1475.44 1285.67 1479.01 Q1287.5 1482.55 1291.11 1482.55 Q1294.75 1482.55 1296.55 1479.01 Q1298.38 1475.44 1298.38 1468.33 Q1298.38 1461.2 1296.55 1457.66 Q1294.75 1454.1 1291.11 1454.1 M1291.11 1450.39 Q1296.92 1450.39 1299.98 1455 Q1303.06 1459.58 1303.06 1468.33 Q1303.06 1477.06 1299.98 1481.67 Q1296.92 1486.25 1291.11 1486.25 Q1285.3 1486.25 1282.22 1481.67 Q1279.17 1477.06 1279.17 1468.33 Q1279.17 1459.58 1282.22 1455 Q1285.3 1450.39 1291.11 1450.39 Z" fill="#000000" fill-rule="nonzero" fill-opacity="1" /><path clip-path="url(#clip510)" d="M1730.24 1466.95 Q1733.6 1467.66 1735.47 1469.93 Q1737.37 1472.2 1737.37 1475.53 Q1737.37 1480.65 1733.85 1483.45 Q1730.33 1486.25 1723.85 1486.25 Q1721.68 1486.25 1719.36 1485.81 Q1717.07 1485.39 1714.62 1484.54 L1714.62 1480.02 Q1716.56 1481.16 1718.88 1481.74 Q1721.19 1482.32 1723.71 1482.32 Q1728.11 1482.32 1730.4 1480.58 Q1732.72 1478.84 1732.72 1475.53 Q1732.72 1472.48 1730.57 1470.77 Q1728.44 1469.03 1724.62 1469.03 L1720.59 1469.03 L1720.59 1465.19 L1724.8 1465.19 Q1728.25 1465.19 1730.08 1463.82 Q1731.91 1462.43 1731.91 1459.84 Q1731.91 1457.18 1730.01 1455.77 Q1728.14 1454.33 1724.62 1454.33 Q1722.7 1454.33 1720.5 1454.75 Q1718.3 1455.16 1715.66 1456.04 L1715.66 1451.88 Q1718.32 1451.14 1720.64 1450.77 Q1722.97 1450.39 1725.03 1450.39 Q1730.36 1450.39 1733.46 1452.83 Q1736.56 1455.23 1736.56 1459.35 Q1736.56 1462.22 1734.92 1464.21 Q1733.27 1466.18 1730.24 1466.95 Z" fill="#000000" fill-rule="nonzero" fill-opacity="1" /><path clip-path="url(#clip510)" d="M1756.24 1454.1 Q1752.63 1454.1 1750.8 1457.66 Q1748.99 1461.2 1748.99 1468.33 Q1748.99 1475.44 1750.8 1479.01 Q1752.63 1482.55 1756.24 1482.55 Q1759.87 1482.55 1761.68 1479.01 Q1763.51 1475.44 1763.51 1468.33 Q1763.51 1461.2 1761.68 1457.66 Q1759.87 1454.1 1756.24 1454.1 M1756.24 1450.39 Q1762.05 1450.39 1765.1 1455 Q1768.18 1459.58 1768.18 1468.33 Q1768.18 1477.06 1765.1 1481.67 Q1762.05 1486.25 1756.24 1486.25 Q1750.43 1486.25 1747.35 1481.67 Q1744.29 1477.06 1744.29 1468.33 Q1744.29 1459.58 1747.35 1455 Q1750.43 1450.39 1756.24 1450.39 Z" fill="#000000" fill-rule="nonzero" fill-opacity="1" /><path clip-path="url(#clip510)" d="M2194.76 1455.09 L2182.96 1473.54 L2194.76 1473.54 L2194.76 1455.09 M2193.54 1451.02 L2199.42 1451.02 L2199.42 1473.54 L2204.35 1473.54 L2204.35 1477.43 L2199.42 1477.43 L2199.42 1485.58 L2194.76 1485.58 L2194.76 1477.43 L2179.16 1477.43 L2179.16 1472.92 L2193.54 1451.02 Z" fill="#000000" fill-rule="nonzero" fill-opacity="1" /><path clip-path="url(#clip510)" d="M2222.08 1454.1 Q2218.47 1454.1 2216.64 1457.66 Q2214.83 1461.2 2214.83 1468.33 Q2214.83 1475.44 2216.64 1479.01 Q2218.47 1482.55 2222.08 1482.55 Q2225.71 1482.55 2227.52 1479.01 Q2229.35 1475.44 2229.35 1468.33 Q2229.35 1461.2 2227.52 1457.66 Q2225.71 1454.1 2222.08 1454.1 M2222.08 1450.39 Q2227.89 1450.39 2230.94 1455 Q2234.02 1459.58 2234.02 1468.33 Q2234.02 1477.06 2230.94 1481.67 Q2227.89 1486.25 2222.08 1486.25 Q2216.27 1486.25 2213.19 1481.67 Q2210.13 1477.06 2210.13 1468.33 Q2210.13 1459.58 2213.19 1455 Q2216.27 1450.39 2222.08 1450.39 Z" fill="#000000" fill-rule="nonzero" fill-opacity="1" /><path clip-path="url(#clip510)" d="M1318.82 1546.53 L1318.82 1568.04 L1312.96 1568.04 L1312.96 1546.72 Q1312.96 1541.66 1310.99 1539.14 Q1309.02 1536.63 1305.07 1536.63 Q1300.33 1536.63 1297.59 1539.65 Q1294.85 1542.68 1294.85 1547.9 L1294.85 1568.04 L1288.96 1568.04 L1288.96 1518.52 L1294.85 1518.52 L1294.85 1537.93 Q1296.95 1534.72 1299.79 1533.13 Q1302.65 1531.54 1306.37 1531.54 Q1312.52 1531.54 1315.67 1535.36 Q1318.82 1539.14 1318.82 1546.53 Z" fill="#000000" fill-rule="nonzero" fill-opacity="1" /><path clip-path="url(#clip510)" d="M1351.16 1537.87 Q1350.17 1537.3 1348.99 1537.04 Q1347.85 1536.76 1346.45 1536.76 Q1341.48 1536.76 1338.81 1540 Q1336.17 1543.22 1336.17 1549.27 L1336.17 1568.04 L1330.28 1568.04 L1330.28 1532.4 L1336.17 1532.4 L1336.17 1537.93 Q1338.01 1534.69 1340.97 1533.13 Q1343.93 1531.54 1348.17 1531.54 Q1348.77 1531.54 1349.5 1531.63 Q1350.23 1531.7 1351.13 1531.85 L1351.16 1537.87 Z" fill="#000000" fill-rule="nonzero" fill-opacity="1" /><polyline clip-path="url(#clip510)" style="stroke:#000000; stroke-linecap:round; stroke-linejoin:round; stroke-width:4; stroke-opacity:1; fill:none" points="287.366,1423.18 287.366,47.2441 "/>
<polyline clip-path="url(#clip510)" style="stroke:#000000; stroke-linecap:round; stroke-linejoin:round; stroke-width:4; stroke-opacity:1; fill:none" points="287.366,1256.76 306.264,1256.76 "/>
<polyline clip-path="url(#clip510)" style="stroke:#000000; stroke-linecap:round; stroke-linejoin:round; stroke-width:4; stroke-opacity:1; fill:none" points="287.366,981.77 306.264,981.77 "/>
<polyline clip-path="url(#clip510)" style="stroke:#000000; stroke-linecap:round; stroke-linejoin:round; stroke-width:4; stroke-opacity:1; fill:none" points="287.366,706.776 306.264,706.776 "/>
<polyline clip-path="url(#clip510)" style="stroke:#000000; stroke-linecap:round; stroke-linejoin:round; stroke-width:4; stroke-opacity:1; fill:none" points="287.366,431.781 306.264,431.781 "/>
<polyline clip-path="url(#clip510)" style="stroke:#000000; stroke-linecap:round; stroke-linejoin:round; stroke-width:4; stroke-opacity:1; fill:none" points="287.366,156.787 306.264,156.787 "/>
<path clip-path="url(#clip510)" d="M115.256 1257.22 L144.931 1257.22 L144.931 1261.15 L115.256 1261.15 L115.256 1257.22 Z" fill="#000000" fill-rule="nonzero" fill-opacity="1" /><path clip-path="url(#clip510)" d="M167.871 1243.56 L156.065 1262.01 L167.871 1262.01 L167.871 1243.56 M166.644 1239.48 L172.524 1239.48 L172.524 1262.01 L177.454 1262.01 L177.454 1265.9 L172.524 1265.9 L172.524 1274.04 L167.871 1274.04 L167.871 1265.9 L152.269 1265.9 L152.269 1261.38 L166.644 1239.48 Z" fill="#000000" fill-rule="nonzero" fill-opacity="1" /><path clip-path="url(#clip510)" d="M189.213 1270.11 L205.533 1270.11 L205.533 1274.04 L183.588 1274.04 L183.588 1270.11 Q186.251 1267.35 190.834 1262.72 Q195.44 1258.07 196.621 1256.73 Q198.866 1254.21 199.746 1252.47 Q200.649 1250.71 200.649 1249.02 Q200.649 1246.27 198.704 1244.53 Q196.783 1242.79 193.681 1242.79 Q191.482 1242.79 189.028 1243.56 Q186.598 1244.32 183.82 1245.87 L183.82 1241.15 Q186.644 1240.02 189.098 1239.44 Q191.551 1238.86 193.588 1238.86 Q198.959 1238.86 202.153 1241.54 Q205.348 1244.23 205.348 1248.72 Q205.348 1250.85 204.537 1252.77 Q203.75 1254.67 201.644 1257.26 Q201.065 1257.93 197.963 1261.15 Q194.862 1264.35 189.213 1270.11 Z" fill="#000000" fill-rule="nonzero" fill-opacity="1" /><path clip-path="url(#clip510)" d="M215.348 1268.16 L220.232 1268.16 L220.232 1274.04 L215.348 1274.04 L215.348 1268.16 Z" fill="#000000" fill-rule="nonzero" fill-opacity="1" /><path clip-path="url(#clip510)" d="M230.463 1239.48 L248.82 1239.48 L248.82 1243.42 L234.746 1243.42 L234.746 1251.89 Q235.764 1251.54 236.783 1251.38 Q237.801 1251.2 238.82 1251.2 Q244.607 1251.2 247.986 1254.37 Q251.366 1257.54 251.366 1262.96 Q251.366 1268.53 247.894 1271.64 Q244.421 1274.72 238.102 1274.72 Q235.926 1274.72 233.658 1274.35 Q231.412 1273.97 229.005 1273.23 L229.005 1268.53 Q231.088 1269.67 233.31 1270.22 Q235.533 1270.78 238.009 1270.78 Q242.014 1270.78 244.352 1268.67 Q246.69 1266.57 246.69 1262.96 Q246.69 1259.35 244.352 1257.24 Q242.014 1255.13 238.009 1255.13 Q236.135 1255.13 234.26 1255.55 Q232.408 1255.97 230.463 1256.85 L230.463 1239.48 Z" fill="#000000" fill-rule="nonzero" fill-opacity="1" /><path clip-path="url(#clip510)" d="M114.26 982.221 L143.936 982.221 L143.936 986.156 L114.26 986.156 L114.26 982.221 Z" fill="#000000" fill-rule="nonzero" fill-opacity="1" /><path clip-path="url(#clip510)" d="M166.876 968.564 L155.07 987.013 L166.876 987.013 L166.876 968.564 M165.649 964.49 L171.528 964.49 L171.528 987.013 L176.459 987.013 L176.459 990.902 L171.528 990.902 L171.528 999.05 L166.876 999.05 L166.876 990.902 L151.274 990.902 L151.274 986.388 L165.649 964.49 Z" fill="#000000" fill-rule="nonzero" fill-opacity="1" /><path clip-path="url(#clip510)" d="M194.19 967.569 Q190.579 967.569 188.75 971.133 Q186.945 974.675 186.945 981.805 Q186.945 988.911 188.75 992.476 Q190.579 996.018 194.19 996.018 Q197.825 996.018 199.63 992.476 Q201.459 988.911 201.459 981.805 Q201.459 974.675 199.63 971.133 Q197.825 967.569 194.19 967.569 M194.19 963.865 Q200 963.865 203.056 968.471 Q206.135 973.055 206.135 981.805 Q206.135 990.531 203.056 995.138 Q200 999.721 194.19 999.721 Q188.38 999.721 185.301 995.138 Q182.246 990.531 182.246 981.805 Q182.246 973.055 185.301 968.471 Q188.38 963.865 194.19 963.865 Z" fill="#000000" fill-rule="nonzero" fill-opacity="1" /><path clip-path="url(#clip510)" d="M214.352 993.17 L219.236 993.17 L219.236 999.05 L214.352 999.05 L214.352 993.17 Z" fill="#000000" fill-rule="nonzero" fill-opacity="1" /><path clip-path="url(#clip510)" d="M239.422 967.569 Q235.81 967.569 233.982 971.133 Q232.176 974.675 232.176 981.805 Q232.176 988.911 233.982 992.476 Q235.81 996.018 239.422 996.018 Q243.056 996.018 244.861 992.476 Q246.69 988.911 246.69 981.805 Q246.69 974.675 244.861 971.133 Q243.056 967.569 239.422 967.569 M239.422 963.865 Q245.232 963.865 248.287 968.471 Q251.366 973.055 251.366 981.805 Q251.366 990.531 248.287 995.138 Q245.232 999.721 239.422 999.721 Q233.611 999.721 230.533 995.138 Q227.477 990.531 227.477 981.805 Q227.477 973.055 230.533 968.471 Q233.611 963.865 239.422 963.865 Z" fill="#000000" fill-rule="nonzero" fill-opacity="1" /><path clip-path="url(#clip510)" d="M115.256 707.227 L144.931 707.227 L144.931 711.162 L115.256 711.162 L115.256 707.227 Z" fill="#000000" fill-rule="nonzero" fill-opacity="1" /><path clip-path="url(#clip510)" d="M169.19 705.421 Q172.547 706.139 174.422 708.408 Q176.32 710.676 176.32 714.009 Q176.32 719.125 172.802 721.926 Q169.283 724.727 162.802 724.727 Q160.626 724.727 158.311 724.287 Q156.019 723.87 153.566 723.014 L153.566 718.5 Q155.51 719.634 157.825 720.213 Q160.14 720.792 162.663 720.792 Q167.061 720.792 169.352 719.056 Q171.667 717.32 171.667 714.009 Q171.667 710.954 169.514 709.241 Q167.385 707.505 163.565 707.505 L159.538 707.505 L159.538 703.662 L163.751 703.662 Q167.2 703.662 169.028 702.297 Q170.857 700.908 170.857 698.315 Q170.857 695.653 168.959 694.241 Q167.084 692.806 163.565 692.806 Q161.644 692.806 159.445 693.222 Q157.246 693.639 154.607 694.519 L154.607 690.352 Q157.269 689.611 159.584 689.241 Q161.922 688.871 163.982 688.871 Q169.306 688.871 172.408 691.301 Q175.51 693.709 175.51 697.829 Q175.51 700.699 173.866 702.69 Q172.223 704.658 169.19 705.421 Z" fill="#000000" fill-rule="nonzero" fill-opacity="1" /><path clip-path="url(#clip510)" d="M184.005 689.496 L206.227 689.496 L206.227 691.486 L193.681 724.056 L188.797 724.056 L200.602 693.431 L184.005 693.431 L184.005 689.496 Z" fill="#000000" fill-rule="nonzero" fill-opacity="1" /><path clip-path="url(#clip510)" d="M215.348 718.176 L220.232 718.176 L220.232 724.056 L215.348 724.056 L215.348 718.176 Z" fill="#000000" fill-rule="nonzero" fill-opacity="1" /><path clip-path="url(#clip510)" d="M230.463 689.496 L248.82 689.496 L248.82 693.431 L234.746 693.431 L234.746 701.903 Q235.764 701.556 236.783 701.394 Q237.801 701.209 238.82 701.209 Q244.607 701.209 247.986 704.38 Q251.366 707.551 251.366 712.968 Q251.366 718.546 247.894 721.648 Q244.421 724.727 238.102 724.727 Q235.926 724.727 233.658 724.357 Q231.412 723.986 229.005 723.245 L229.005 718.546 Q231.088 719.681 233.31 720.236 Q235.533 720.792 238.009 720.792 Q242.014 720.792 244.352 718.685 Q246.69 716.579 246.69 712.968 Q246.69 709.357 244.352 707.25 Q242.014 705.144 238.009 705.144 Q236.135 705.144 234.26 705.56 Q232.408 705.977 230.463 706.857 L230.463 689.496 Z" fill="#000000" fill-rule="nonzero" fill-opacity="1" /><path clip-path="url(#clip510)" d="M114.26 432.233 L143.936 432.233 L143.936 436.168 L114.26 436.168 L114.26 432.233 Z" fill="#000000" fill-rule="nonzero" fill-opacity="1" /><path clip-path="url(#clip510)" d="M168.195 430.427 Q171.552 431.145 173.427 433.413 Q175.325 435.682 175.325 439.015 Q175.325 444.131 171.806 446.932 Q168.288 449.733 161.806 449.733 Q159.63 449.733 157.315 449.293 Q155.024 448.876 152.57 448.02 L152.57 443.506 Q154.515 444.64 156.829 445.219 Q159.144 445.798 161.667 445.798 Q166.065 445.798 168.357 444.061 Q170.672 442.325 170.672 439.015 Q170.672 435.96 168.519 434.247 Q166.39 432.511 162.57 432.511 L158.542 432.511 L158.542 428.668 L162.755 428.668 Q166.204 428.668 168.033 427.302 Q169.862 425.913 169.862 423.321 Q169.862 420.659 167.964 419.247 Q166.089 417.812 162.57 417.812 Q160.649 417.812 158.45 418.228 Q156.251 418.645 153.612 419.525 L153.612 415.358 Q156.274 414.617 158.589 414.247 Q160.927 413.876 162.987 413.876 Q168.311 413.876 171.413 416.307 Q174.514 418.714 174.514 422.835 Q174.514 425.705 172.871 427.696 Q171.227 429.663 168.195 430.427 Z" fill="#000000" fill-rule="nonzero" fill-opacity="1" /><path clip-path="url(#clip510)" d="M184.237 414.501 L202.593 414.501 L202.593 418.437 L188.519 418.437 L188.519 426.909 Q189.538 426.562 190.556 426.399 Q191.575 426.214 192.593 426.214 Q198.38 426.214 201.76 429.386 Q205.139 432.557 205.139 437.973 Q205.139 443.552 201.667 446.654 Q198.195 449.733 191.875 449.733 Q189.7 449.733 187.431 449.362 Q185.186 448.992 182.778 448.251 L182.778 443.552 Q184.862 444.686 187.084 445.242 Q189.306 445.798 191.783 445.798 Q195.787 445.798 198.125 443.691 Q200.463 441.585 200.463 437.973 Q200.463 434.362 198.125 432.256 Q195.787 430.149 191.783 430.149 Q189.908 430.149 188.033 430.566 Q186.181 430.983 184.237 431.862 L184.237 414.501 Z" fill="#000000" fill-rule="nonzero" fill-opacity="1" /><path clip-path="url(#clip510)" d="M214.352 443.182 L219.236 443.182 L219.236 449.061 L214.352 449.061 L214.352 443.182 Z" fill="#000000" fill-rule="nonzero" fill-opacity="1" /><path clip-path="url(#clip510)" d="M239.422 417.58 Q235.81 417.58 233.982 421.145 Q232.176 424.687 232.176 431.816 Q232.176 438.923 233.982 442.487 Q235.81 446.029 239.422 446.029 Q243.056 446.029 244.861 442.487 Q246.69 438.923 246.69 431.816 Q246.69 424.687 244.861 421.145 Q243.056 417.58 239.422 417.58 M239.422 413.876 Q245.232 413.876 248.287 418.483 Q251.366 423.066 251.366 431.816 Q251.366 440.543 248.287 445.149 Q245.232 449.733 239.422 449.733 Q233.611 449.733 230.533 445.149 Q227.477 440.543 227.477 431.816 Q227.477 423.066 230.533 418.483 Q233.611 413.876 239.422 413.876 Z" fill="#000000" fill-rule="nonzero" fill-opacity="1" /><path clip-path="url(#clip510)" d="M115.256 157.239 L144.931 157.239 L144.931 161.174 L115.256 161.174 L115.256 157.239 Z" fill="#000000" fill-rule="nonzero" fill-opacity="1" /><path clip-path="url(#clip510)" d="M169.19 155.433 Q172.547 156.151 174.422 158.419 Q176.32 160.688 176.32 164.021 Q176.32 169.137 172.802 171.938 Q169.283 174.738 162.802 174.738 Q160.626 174.738 158.311 174.299 Q156.019 173.882 153.566 173.025 L153.566 168.512 Q155.51 169.646 157.825 170.225 Q160.14 170.803 162.663 170.803 Q167.061 170.803 169.352 169.067 Q171.667 167.331 171.667 164.021 Q171.667 160.965 169.514 159.252 Q167.385 157.516 163.565 157.516 L159.538 157.516 L159.538 153.674 L163.751 153.674 Q167.2 153.674 169.028 152.308 Q170.857 150.919 170.857 148.327 Q170.857 145.664 168.959 144.252 Q167.084 142.817 163.565 142.817 Q161.644 142.817 159.445 143.234 Q157.246 143.651 154.607 144.53 L154.607 140.364 Q157.269 139.623 159.584 139.252 Q161.922 138.882 163.982 138.882 Q169.306 138.882 172.408 141.313 Q175.51 143.72 175.51 147.84 Q175.51 150.711 173.866 152.701 Q172.223 154.669 169.19 155.433 Z" fill="#000000" fill-rule="nonzero" fill-opacity="1" /><path clip-path="url(#clip510)" d="M189.213 170.132 L205.533 170.132 L205.533 174.067 L183.588 174.067 L183.588 170.132 Q186.251 167.377 190.834 162.748 Q195.44 158.095 196.621 156.752 Q198.866 154.229 199.746 152.493 Q200.649 150.734 200.649 149.044 Q200.649 146.289 198.704 144.553 Q196.783 142.817 193.681 142.817 Q191.482 142.817 189.028 143.581 Q186.598 144.345 183.82 145.896 L183.82 141.174 Q186.644 140.04 189.098 139.461 Q191.551 138.882 193.588 138.882 Q198.959 138.882 202.153 141.567 Q205.348 144.252 205.348 148.743 Q205.348 150.873 204.537 152.794 Q203.75 154.692 201.644 157.285 Q201.065 157.956 197.963 161.174 Q194.862 164.368 189.213 170.132 Z" fill="#000000" fill-rule="nonzero" fill-opacity="1" /><path clip-path="url(#clip510)" d="M215.348 168.188 L220.232 168.188 L220.232 174.067 L215.348 174.067 L215.348 168.188 Z" fill="#000000" fill-rule="nonzero" fill-opacity="1" /><path clip-path="url(#clip510)" d="M230.463 139.507 L248.82 139.507 L248.82 143.442 L234.746 143.442 L234.746 151.914 Q235.764 151.567 236.783 151.405 Q237.801 151.22 238.82 151.22 Q244.607 151.22 247.986 154.391 Q251.366 157.563 251.366 162.979 Q251.366 168.558 247.894 171.66 Q244.421 174.738 238.102 174.738 Q235.926 174.738 233.658 174.368 Q231.412 173.998 229.005 173.257 L229.005 168.558 Q231.088 169.692 233.31 170.248 Q235.533 170.803 238.009 170.803 Q242.014 170.803 244.352 168.697 Q246.69 166.59 246.69 162.979 Q246.69 159.368 244.352 157.262 Q242.014 155.155 238.009 155.155 Q236.135 155.155 234.26 155.572 Q232.408 155.989 230.463 156.868 L230.463 139.507 Z" fill="#000000" fill-rule="nonzero" fill-opacity="1" /><path clip-path="url(#clip510)" d="M19.7307 759.306 Q19.7307 761.852 21.5131 763.603 Q23.2636 765.354 25.8099 765.354 Q28.3244 765.354 30.0749 763.603 Q31.7937 761.852 31.7937 759.306 Q31.7937 756.76 30.0749 755.009 Q28.3244 753.259 25.8099 753.259 Q23.2955 753.259 21.5131 755.041 Q19.7307 756.792 19.7307 759.306 M15.6248 759.306 Q15.6248 757.269 16.4205 755.391 Q17.1844 753.513 18.6485 752.145 Q20.0808 750.681 21.895 749.949 Q23.7092 749.217 25.8099 749.217 Q30.0113 749.217 32.9395 752.177 Q35.8359 755.105 35.8359 759.37 Q35.8359 763.667 32.9713 766.531 Q30.1068 769.396 25.8099 769.396 Q21.5449 769.396 18.5848 766.468 Q15.6248 763.539 15.6248 759.306 Z" fill="#000000" fill-rule="nonzero" fill-opacity="1" /><path clip-path="url(#clip510)" d="M20.1444 701.028 L26.9239 701.028 Q23.9002 704.275 22.4043 707.967 Q20.9083 711.627 20.9083 715.765 Q20.9083 723.913 25.9054 728.242 Q30.8707 732.57 40.2919 732.57 Q49.6813 732.57 54.6784 728.242 Q59.6436 723.913 59.6436 715.765 Q59.6436 711.627 58.1477 707.967 Q56.6518 704.275 53.6281 701.028 L60.3439 701.028 Q62.6355 704.402 63.7814 708.19 Q64.9272 711.945 64.9272 716.147 Q64.9272 726.937 58.3387 733.143 Q51.7183 739.35 40.2919 739.35 Q28.8336 739.35 22.2451 733.143 Q15.6248 726.937 15.6248 716.147 Q15.6248 711.882 16.7706 708.126 Q17.8846 704.338 20.1444 701.028 Z" fill="#000000" fill-rule="nonzero" fill-opacity="1" /><circle clip-path="url(#clip512)" cx="345.82" cy="1384.24" r="14.4" fill="#0000ff" fill-rule="evenodd" fill-opacity="1" stroke="#000000" stroke-opacity="1" stroke-width="3.2"/>
<circle clip-path="url(#clip512)" cx="369.08" cy="820.558" r="14.4" fill="#0000ff" fill-rule="evenodd" fill-opacity="1" stroke="#000000" stroke-opacity="1" stroke-width="3.2"/>
<circle clip-path="url(#clip512)" cx="392.34" cy="695.71" r="14.4" fill="#0000ff" fill-rule="evenodd" fill-opacity="1" stroke="#000000" stroke-opacity="1" stroke-width="3.2"/>
<circle clip-path="url(#clip512)" cx="415.599" cy="673.429" r="14.4" fill="#0000ff" fill-rule="evenodd" fill-opacity="1" stroke="#000000" stroke-opacity="1" stroke-width="3.2"/>
<circle clip-path="url(#clip512)" cx="438.859" cy="652.465" r="14.4" fill="#0000ff" fill-rule="evenodd" fill-opacity="1" stroke="#000000" stroke-opacity="1" stroke-width="3.2"/>
<circle clip-path="url(#clip512)" cx="462.119" cy="632.997" r="14.4" fill="#0000ff" fill-rule="evenodd" fill-opacity="1" stroke="#000000" stroke-opacity="1" stroke-width="3.2"/>
<circle clip-path="url(#clip512)" cx="485.378" cy="614.08" r="14.4" fill="#0000ff" fill-rule="evenodd" fill-opacity="1" stroke="#000000" stroke-opacity="1" stroke-width="3.2"/>
<circle clip-path="url(#clip512)" cx="508.638" cy="596.424" r="14.4" fill="#0000ff" fill-rule="evenodd" fill-opacity="1" stroke="#000000" stroke-opacity="1" stroke-width="3.2"/>
<circle clip-path="url(#clip512)" cx="531.898" cy="580.148" r="14.4" fill="#0000ff" fill-rule="evenodd" fill-opacity="1" stroke="#000000" stroke-opacity="1" stroke-width="3.2"/>
<circle clip-path="url(#clip512)" cx="555.157" cy="564.793" r="14.4" fill="#0000ff" fill-rule="evenodd" fill-opacity="1" stroke="#000000" stroke-opacity="1" stroke-width="3.2"/>
<circle clip-path="url(#clip512)" cx="578.417" cy="549.9" r="14.4" fill="#0000ff" fill-rule="evenodd" fill-opacity="1" stroke="#000000" stroke-opacity="1" stroke-width="3.2"/>
<circle clip-path="url(#clip512)" cx="601.677" cy="535.173" r="14.4" fill="#0000ff" fill-rule="evenodd" fill-opacity="1" stroke="#000000" stroke-opacity="1" stroke-width="3.2"/>
<circle clip-path="url(#clip512)" cx="624.936" cy="521.401" r="14.4" fill="#0000ff" fill-rule="evenodd" fill-opacity="1" stroke="#000000" stroke-opacity="1" stroke-width="3.2"/>
<circle clip-path="url(#clip512)" cx="648.196" cy="508.534" r="14.4" fill="#0000ff" fill-rule="evenodd" fill-opacity="1" stroke="#000000" stroke-opacity="1" stroke-width="3.2"/>
<circle clip-path="url(#clip512)" cx="671.455" cy="496.357" r="14.4" fill="#0000ff" fill-rule="evenodd" fill-opacity="1" stroke="#000000" stroke-opacity="1" stroke-width="3.2"/>
<circle clip-path="url(#clip512)" cx="694.715" cy="484.652" r="14.4" fill="#0000ff" fill-rule="evenodd" fill-opacity="1" stroke="#000000" stroke-opacity="1" stroke-width="3.2"/>
<circle clip-path="url(#clip512)" cx="717.975" cy="473.203" r="14.4" fill="#0000ff" fill-rule="evenodd" fill-opacity="1" stroke="#000000" stroke-opacity="1" stroke-width="3.2"/>
<circle clip-path="url(#clip512)" cx="741.234" cy="461.882" r="14.4" fill="#0000ff" fill-rule="evenodd" fill-opacity="1" stroke="#000000" stroke-opacity="1" stroke-width="3.2"/>
<circle clip-path="url(#clip512)" cx="764.494" cy="451.152" r="14.4" fill="#0000ff" fill-rule="evenodd" fill-opacity="1" stroke="#000000" stroke-opacity="1" stroke-width="3.2"/>
<circle clip-path="url(#clip512)" cx="787.754" cy="441.038" r="14.4" fill="#0000ff" fill-rule="evenodd" fill-opacity="1" stroke="#000000" stroke-opacity="1" stroke-width="3.2"/>
<circle clip-path="url(#clip512)" cx="811.013" cy="431.441" r="14.4" fill="#0000ff" fill-rule="evenodd" fill-opacity="1" stroke="#000000" stroke-opacity="1" stroke-width="3.2"/>
<circle clip-path="url(#clip512)" cx="834.273" cy="422.262" r="14.4" fill="#0000ff" fill-rule="evenodd" fill-opacity="1" stroke="#000000" stroke-opacity="1" stroke-width="3.2"/>
<circle clip-path="url(#clip512)" cx="857.533" cy="413.403" r="14.4" fill="#0000ff" fill-rule="evenodd" fill-opacity="1" stroke="#000000" stroke-opacity="1" stroke-width="3.2"/>
<circle clip-path="url(#clip512)" cx="880.792" cy="404.764" r="14.4" fill="#0000ff" fill-rule="evenodd" fill-opacity="1" stroke="#000000" stroke-opacity="1" stroke-width="3.2"/>
<circle clip-path="url(#clip512)" cx="904.052" cy="396.247" r="14.4" fill="#0000ff" fill-rule="evenodd" fill-opacity="1" stroke="#000000" stroke-opacity="1" stroke-width="3.2"/>
<circle clip-path="url(#clip512)" cx="927.312" cy="387.781" r="14.4" fill="#0000ff" fill-rule="evenodd" fill-opacity="1" stroke="#000000" stroke-opacity="1" stroke-width="3.2"/>
<circle clip-path="url(#clip512)" cx="950.571" cy="379.655" r="14.4" fill="#0000ff" fill-rule="evenodd" fill-opacity="1" stroke="#000000" stroke-opacity="1" stroke-width="3.2"/>
<circle clip-path="url(#clip512)" cx="973.831" cy="371.926" r="14.4" fill="#0000ff" fill-rule="evenodd" fill-opacity="1" stroke="#000000" stroke-opacity="1" stroke-width="3.2"/>
<circle clip-path="url(#clip512)" cx="997.091" cy="364.55" r="14.4" fill="#0000ff" fill-rule="evenodd" fill-opacity="1" stroke="#000000" stroke-opacity="1" stroke-width="3.2"/>
<circle clip-path="url(#clip512)" cx="1020.35" cy="357.48" r="14.4" fill="#0000ff" fill-rule="evenodd" fill-opacity="1" stroke="#000000" stroke-opacity="1" stroke-width="3.2"/>
<circle clip-path="url(#clip512)" cx="1043.61" cy="350.672" r="14.4" fill="#0000ff" fill-rule="evenodd" fill-opacity="1" stroke="#000000" stroke-opacity="1" stroke-width="3.2"/>
<circle clip-path="url(#clip512)" cx="1066.87" cy="344.081" r="14.4" fill="#0000ff" fill-rule="evenodd" fill-opacity="1" stroke="#000000" stroke-opacity="1" stroke-width="3.2"/>
<circle clip-path="url(#clip512)" cx="1090.13" cy="337.662" r="14.4" fill="#0000ff" fill-rule="evenodd" fill-opacity="1" stroke="#000000" stroke-opacity="1" stroke-width="3.2"/>
<circle clip-path="url(#clip512)" cx="1113.39" cy="331.37" r="14.4" fill="#0000ff" fill-rule="evenodd" fill-opacity="1" stroke="#000000" stroke-opacity="1" stroke-width="3.2"/>
<circle clip-path="url(#clip512)" cx="1136.65" cy="325.16" r="14.4" fill="#0000ff" fill-rule="evenodd" fill-opacity="1" stroke="#000000" stroke-opacity="1" stroke-width="3.2"/>
<circle clip-path="url(#clip512)" cx="1159.91" cy="318.988" r="14.4" fill="#0000ff" fill-rule="evenodd" fill-opacity="1" stroke="#000000" stroke-opacity="1" stroke-width="3.2"/>
<circle clip-path="url(#clip512)" cx="1183.17" cy="312.904" r="14.4" fill="#0000ff" fill-rule="evenodd" fill-opacity="1" stroke="#000000" stroke-opacity="1" stroke-width="3.2"/>
<circle clip-path="url(#clip512)" cx="1206.43" cy="307.071" r="14.4" fill="#0000ff" fill-rule="evenodd" fill-opacity="1" stroke="#000000" stroke-opacity="1" stroke-width="3.2"/>
<circle clip-path="url(#clip512)" cx="1229.69" cy="301.469" r="14.4" fill="#0000ff" fill-rule="evenodd" fill-opacity="1" stroke="#000000" stroke-opacity="1" stroke-width="3.2"/>
<circle clip-path="url(#clip512)" cx="1252.95" cy="296.078" r="14.4" fill="#0000ff" fill-rule="evenodd" fill-opacity="1" stroke="#000000" stroke-opacity="1" stroke-width="3.2"/>
<circle clip-path="url(#clip512)" cx="1276.21" cy="290.878" r="14.4" fill="#0000ff" fill-rule="evenodd" fill-opacity="1" stroke="#000000" stroke-opacity="1" stroke-width="3.2"/>
<circle clip-path="url(#clip512)" cx="1299.47" cy="285.848" r="14.4" fill="#0000ff" fill-rule="evenodd" fill-opacity="1" stroke="#000000" stroke-opacity="1" stroke-width="3.2"/>
<circle clip-path="url(#clip512)" cx="1322.73" cy="280.969" r="14.4" fill="#0000ff" fill-rule="evenodd" fill-opacity="1" stroke="#000000" stroke-opacity="1" stroke-width="3.2"/>
<circle clip-path="url(#clip512)" cx="1345.99" cy="276.22" r="14.4" fill="#0000ff" fill-rule="evenodd" fill-opacity="1" stroke="#000000" stroke-opacity="1" stroke-width="3.2"/>
<circle clip-path="url(#clip512)" cx="1369.25" cy="271.582" r="14.4" fill="#0000ff" fill-rule="evenodd" fill-opacity="1" stroke="#000000" stroke-opacity="1" stroke-width="3.2"/>
<circle clip-path="url(#clip512)" cx="1392.5" cy="267.035" r="14.4" fill="#0000ff" fill-rule="evenodd" fill-opacity="1" stroke="#000000" stroke-opacity="1" stroke-width="3.2"/>
<circle clip-path="url(#clip512)" cx="1415.76" cy="262.557" r="14.4" fill="#0000ff" fill-rule="evenodd" fill-opacity="1" stroke="#000000" stroke-opacity="1" stroke-width="3.2"/>
<circle clip-path="url(#clip512)" cx="1439.02" cy="258.13" r="14.4" fill="#0000ff" fill-rule="evenodd" fill-opacity="1" stroke="#000000" stroke-opacity="1" stroke-width="3.2"/>
<circle clip-path="url(#clip512)" cx="1462.28" cy="253.734" r="14.4" fill="#0000ff" fill-rule="evenodd" fill-opacity="1" stroke="#000000" stroke-opacity="1" stroke-width="3.2"/>
<circle clip-path="url(#clip512)" cx="1485.54" cy="249.351" r="14.4" fill="#0000ff" fill-rule="evenodd" fill-opacity="1" stroke="#000000" stroke-opacity="1" stroke-width="3.2"/>
<circle clip-path="url(#clip512)" cx="1508.8" cy="245.099" r="14.4" fill="#0000ff" fill-rule="evenodd" fill-opacity="1" stroke="#000000" stroke-opacity="1" stroke-width="3.2"/>
<circle clip-path="url(#clip512)" cx="1532.06" cy="240.989" r="14.4" fill="#0000ff" fill-rule="evenodd" fill-opacity="1" stroke="#000000" stroke-opacity="1" stroke-width="3.2"/>
<polyline clip-path="url(#clip512)" style="stroke:#0000ff; stroke-linecap:round; stroke-linejoin:round; stroke-width:12; stroke-opacity:1; fill:none" stroke-dasharray="48, 30" points="2294.3,2799.12 2294.3,-1328.69 "/>
<circle clip-path="url(#clip512)" cx="345.82" cy="276.456" r="14.4" fill="#ff0000" fill-rule="evenodd" fill-opacity="1" stroke="#000000" stroke-opacity="1" stroke-width="3.2"/>
<circle clip-path="url(#clip512)" cx="369.08" cy="757.932" r="14.4" fill="#ff0000" fill-rule="evenodd" fill-opacity="1" stroke="#000000" stroke-opacity="1" stroke-width="3.2"/>
<circle clip-path="url(#clip512)" cx="392.34" cy="589.682" r="14.4" fill="#ff0000" fill-rule="evenodd" fill-opacity="1" stroke="#000000" stroke-opacity="1" stroke-width="3.2"/>
<circle clip-path="url(#clip512)" cx="415.599" cy="580.671" r="14.4" fill="#ff0000" fill-rule="evenodd" fill-opacity="1" stroke="#000000" stroke-opacity="1" stroke-width="3.2"/>
<circle clip-path="url(#clip512)" cx="438.859" cy="571.852" r="14.4" fill="#ff0000" fill-rule="evenodd" fill-opacity="1" stroke="#000000" stroke-opacity="1" stroke-width="3.2"/>
<circle clip-path="url(#clip512)" cx="462.119" cy="563.36" r="14.4" fill="#ff0000" fill-rule="evenodd" fill-opacity="1" stroke="#000000" stroke-opacity="1" stroke-width="3.2"/>
<circle clip-path="url(#clip512)" cx="485.378" cy="555.153" r="14.4" fill="#ff0000" fill-rule="evenodd" fill-opacity="1" stroke="#000000" stroke-opacity="1" stroke-width="3.2"/>
<circle clip-path="url(#clip512)" cx="508.638" cy="547.167" r="14.4" fill="#ff0000" fill-rule="evenodd" fill-opacity="1" stroke="#000000" stroke-opacity="1" stroke-width="3.2"/>
<circle clip-path="url(#clip512)" cx="531.898" cy="539.339" r="14.4" fill="#ff0000" fill-rule="evenodd" fill-opacity="1" stroke="#000000" stroke-opacity="1" stroke-width="3.2"/>
<circle clip-path="url(#clip512)" cx="555.157" cy="531.603" r="14.4" fill="#ff0000" fill-rule="evenodd" fill-opacity="1" stroke="#000000" stroke-opacity="1" stroke-width="3.2"/>
<circle clip-path="url(#clip512)" cx="578.417" cy="524.097" r="14.4" fill="#ff0000" fill-rule="evenodd" fill-opacity="1" stroke="#000000" stroke-opacity="1" stroke-width="3.2"/>
<circle clip-path="url(#clip512)" cx="601.677" cy="516.868" r="14.4" fill="#ff0000" fill-rule="evenodd" fill-opacity="1" stroke="#000000" stroke-opacity="1" stroke-width="3.2"/>
<circle clip-path="url(#clip512)" cx="624.936" cy="509.879" r="14.4" fill="#ff0000" fill-rule="evenodd" fill-opacity="1" stroke="#000000" stroke-opacity="1" stroke-width="3.2"/>
<circle clip-path="url(#clip512)" cx="648.196" cy="503.093" r="14.4" fill="#ff0000" fill-rule="evenodd" fill-opacity="1" stroke="#000000" stroke-opacity="1" stroke-width="3.2"/>
<circle clip-path="url(#clip512)" cx="671.455" cy="496.473" r="14.4" fill="#ff0000" fill-rule="evenodd" fill-opacity="1" stroke="#000000" stroke-opacity="1" stroke-width="3.2"/>
<circle clip-path="url(#clip512)" cx="694.715" cy="489.982" r="14.4" fill="#ff0000" fill-rule="evenodd" fill-opacity="1" stroke="#000000" stroke-opacity="1" stroke-width="3.2"/>
<circle clip-path="url(#clip512)" cx="717.975" cy="483.583" r="14.4" fill="#ff0000" fill-rule="evenodd" fill-opacity="1" stroke="#000000" stroke-opacity="1" stroke-width="3.2"/>
<circle clip-path="url(#clip512)" cx="741.234" cy="477.24" r="14.4" fill="#ff0000" fill-rule="evenodd" fill-opacity="1" stroke="#000000" stroke-opacity="1" stroke-width="3.2"/>
<circle clip-path="url(#clip512)" cx="764.494" cy="470.997" r="14.4" fill="#ff0000" fill-rule="evenodd" fill-opacity="1" stroke="#000000" stroke-opacity="1" stroke-width="3.2"/>
<circle clip-path="url(#clip512)" cx="787.754" cy="464.967" r="14.4" fill="#ff0000" fill-rule="evenodd" fill-opacity="1" stroke="#000000" stroke-opacity="1" stroke-width="3.2"/>
<circle clip-path="url(#clip512)" cx="811.013" cy="459.13" r="14.4" fill="#ff0000" fill-rule="evenodd" fill-opacity="1" stroke="#000000" stroke-opacity="1" stroke-width="3.2"/>
<circle clip-path="url(#clip512)" cx="834.273" cy="453.468" r="14.4" fill="#ff0000" fill-rule="evenodd" fill-opacity="1" stroke="#000000" stroke-opacity="1" stroke-width="3.2"/>
<circle clip-path="url(#clip512)" cx="857.533" cy="447.96" r="14.4" fill="#ff0000" fill-rule="evenodd" fill-opacity="1" stroke="#000000" stroke-opacity="1" stroke-width="3.2"/>
<circle clip-path="url(#clip512)" cx="880.792" cy="442.586" r="14.4" fill="#ff0000" fill-rule="evenodd" fill-opacity="1" stroke="#000000" stroke-opacity="1" stroke-width="3.2"/>
<circle clip-path="url(#clip512)" cx="904.052" cy="437.327" r="14.4" fill="#ff0000" fill-rule="evenodd" fill-opacity="1" stroke="#000000" stroke-opacity="1" stroke-width="3.2"/>
<circle clip-path="url(#clip512)" cx="927.312" cy="432.162" r="14.4" fill="#ff0000" fill-rule="evenodd" fill-opacity="1" stroke="#000000" stroke-opacity="1" stroke-width="3.2"/>
<circle clip-path="url(#clip512)" cx="950.571" cy="427.071" r="14.4" fill="#ff0000" fill-rule="evenodd" fill-opacity="1" stroke="#000000" stroke-opacity="1" stroke-width="3.2"/>
<circle clip-path="url(#clip512)" cx="973.831" cy="422.034" r="14.4" fill="#ff0000" fill-rule="evenodd" fill-opacity="1" stroke="#000000" stroke-opacity="1" stroke-width="3.2"/>
<circle clip-path="url(#clip512)" cx="997.091" cy="417.031" r="14.4" fill="#ff0000" fill-rule="evenodd" fill-opacity="1" stroke="#000000" stroke-opacity="1" stroke-width="3.2"/>
<circle clip-path="url(#clip512)" cx="1020.35" cy="412.071" r="14.4" fill="#ff0000" fill-rule="evenodd" fill-opacity="1" stroke="#000000" stroke-opacity="1" stroke-width="3.2"/>
<circle clip-path="url(#clip512)" cx="1043.61" cy="407.25" r="14.4" fill="#ff0000" fill-rule="evenodd" fill-opacity="1" stroke="#000000" stroke-opacity="1" stroke-width="3.2"/>
<circle clip-path="url(#clip512)" cx="1066.87" cy="402.568" r="14.4" fill="#ff0000" fill-rule="evenodd" fill-opacity="1" stroke="#000000" stroke-opacity="1" stroke-width="3.2"/>
<circle clip-path="url(#clip512)" cx="1090.13" cy="398.017" r="14.4" fill="#ff0000" fill-rule="evenodd" fill-opacity="1" stroke="#000000" stroke-opacity="1" stroke-width="3.2"/>
<circle clip-path="url(#clip512)" cx="1113.39" cy="393.584" r="14.4" fill="#ff0000" fill-rule="evenodd" fill-opacity="1" stroke="#000000" stroke-opacity="1" stroke-width="3.2"/>
<circle clip-path="url(#clip512)" cx="1136.65" cy="389.262" r="14.4" fill="#ff0000" fill-rule="evenodd" fill-opacity="1" stroke="#000000" stroke-opacity="1" stroke-width="3.2"/>
<circle clip-path="url(#clip512)" cx="1159.91" cy="385.038" r="14.4" fill="#ff0000" fill-rule="evenodd" fill-opacity="1" stroke="#000000" stroke-opacity="1" stroke-width="3.2"/>
<circle clip-path="url(#clip512)" cx="1183.17" cy="380.903" r="14.4" fill="#ff0000" fill-rule="evenodd" fill-opacity="1" stroke="#000000" stroke-opacity="1" stroke-width="3.2"/>
<circle clip-path="url(#clip512)" cx="1206.43" cy="376.847" r="14.4" fill="#ff0000" fill-rule="evenodd" fill-opacity="1" stroke="#000000" stroke-opacity="1" stroke-width="3.2"/>
<circle clip-path="url(#clip512)" cx="1229.69" cy="372.859" r="14.4" fill="#ff0000" fill-rule="evenodd" fill-opacity="1" stroke="#000000" stroke-opacity="1" stroke-width="3.2"/>
<circle clip-path="url(#clip512)" cx="1252.95" cy="368.929" r="14.4" fill="#ff0000" fill-rule="evenodd" fill-opacity="1" stroke="#000000" stroke-opacity="1" stroke-width="3.2"/>
<circle clip-path="url(#clip512)" cx="1276.21" cy="365.047" r="14.4" fill="#ff0000" fill-rule="evenodd" fill-opacity="1" stroke="#000000" stroke-opacity="1" stroke-width="3.2"/>
<circle clip-path="url(#clip512)" cx="1299.47" cy="361.203" r="14.4" fill="#ff0000" fill-rule="evenodd" fill-opacity="1" stroke="#000000" stroke-opacity="1" stroke-width="3.2"/>
<circle clip-path="url(#clip512)" cx="1322.73" cy="357.386" r="14.4" fill="#ff0000" fill-rule="evenodd" fill-opacity="1" stroke="#000000" stroke-opacity="1" stroke-width="3.2"/>
<circle clip-path="url(#clip512)" cx="1345.99" cy="353.586" r="14.4" fill="#ff0000" fill-rule="evenodd" fill-opacity="1" stroke="#000000" stroke-opacity="1" stroke-width="3.2"/>
<circle clip-path="url(#clip512)" cx="1369.25" cy="349.816" r="14.4" fill="#ff0000" fill-rule="evenodd" fill-opacity="1" stroke="#000000" stroke-opacity="1" stroke-width="3.2"/>
<circle clip-path="url(#clip512)" cx="1392.5" cy="346.14" r="14.4" fill="#ff0000" fill-rule="evenodd" fill-opacity="1" stroke="#000000" stroke-opacity="1" stroke-width="3.2"/>
<circle clip-path="url(#clip512)" cx="1415.76" cy="342.555" r="14.4" fill="#ff0000" fill-rule="evenodd" fill-opacity="1" stroke="#000000" stroke-opacity="1" stroke-width="3.2"/>
<circle clip-path="url(#clip512)" cx="1439.02" cy="339.057" r="14.4" fill="#ff0000" fill-rule="evenodd" fill-opacity="1" stroke="#000000" stroke-opacity="1" stroke-width="3.2"/>
<circle clip-path="url(#clip512)" cx="1462.28" cy="335.64" r="14.4" fill="#ff0000" fill-rule="evenodd" fill-opacity="1" stroke="#000000" stroke-opacity="1" stroke-width="3.2"/>
<circle clip-path="url(#clip512)" cx="1485.54" cy="332.299" r="14.4" fill="#ff0000" fill-rule="evenodd" fill-opacity="1" stroke="#000000" stroke-opacity="1" stroke-width="3.2"/>
<circle clip-path="url(#clip512)" cx="1508.8" cy="329.029" r="14.4" fill="#ff0000" fill-rule="evenodd" fill-opacity="1" stroke="#000000" stroke-opacity="1" stroke-width="3.2"/>
<circle clip-path="url(#clip512)" cx="1532.06" cy="325.826" r="14.4" fill="#ff0000" fill-rule="evenodd" fill-opacity="1" stroke="#000000" stroke-opacity="1" stroke-width="3.2"/>
<polyline clip-path="url(#clip512)" style="stroke:#ff0000; stroke-linecap:round; stroke-linejoin:round; stroke-width:12; stroke-opacity:1; fill:none" stroke-dasharray="48, 30" points="2254.1,2799.12 2254.1,-1328.69 "/>
<circle clip-path="url(#clip512)" cx="345.82" cy="1107.04" r="14.4" fill="#008000" fill-rule="evenodd" fill-opacity="1" stroke="#000000" stroke-opacity="1" stroke-width="3.2"/>
<circle clip-path="url(#clip512)" cx="369.08" cy="761.981" r="14.4" fill="#008000" fill-rule="evenodd" fill-opacity="1" stroke="#000000" stroke-opacity="1" stroke-width="3.2"/>
<circle clip-path="url(#clip512)" cx="392.34" cy="670.762" r="14.4" fill="#008000" fill-rule="evenodd" fill-opacity="1" stroke="#000000" stroke-opacity="1" stroke-width="3.2"/>
<circle clip-path="url(#clip512)" cx="415.599" cy="617.334" r="14.4" fill="#008000" fill-rule="evenodd" fill-opacity="1" stroke="#000000" stroke-opacity="1" stroke-width="3.2"/>
<circle clip-path="url(#clip512)" cx="438.859" cy="571.111" r="14.4" fill="#008000" fill-rule="evenodd" fill-opacity="1" stroke="#000000" stroke-opacity="1" stroke-width="3.2"/>
<circle clip-path="url(#clip512)" cx="462.119" cy="531.786" r="14.4" fill="#008000" fill-rule="evenodd" fill-opacity="1" stroke="#000000" stroke-opacity="1" stroke-width="3.2"/>
<circle clip-path="url(#clip512)" cx="485.378" cy="496.37" r="14.4" fill="#008000" fill-rule="evenodd" fill-opacity="1" stroke="#000000" stroke-opacity="1" stroke-width="3.2"/>
<circle clip-path="url(#clip512)" cx="508.638" cy="466.244" r="14.4" fill="#008000" fill-rule="evenodd" fill-opacity="1" stroke="#000000" stroke-opacity="1" stroke-width="3.2"/>
<circle clip-path="url(#clip512)" cx="531.898" cy="438.002" r="14.4" fill="#008000" fill-rule="evenodd" fill-opacity="1" stroke="#000000" stroke-opacity="1" stroke-width="3.2"/>
<circle clip-path="url(#clip512)" cx="555.157" cy="413.23" r="14.4" fill="#008000" fill-rule="evenodd" fill-opacity="1" stroke="#000000" stroke-opacity="1" stroke-width="3.2"/>
<circle clip-path="url(#clip512)" cx="578.417" cy="391.346" r="14.4" fill="#008000" fill-rule="evenodd" fill-opacity="1" stroke="#000000" stroke-opacity="1" stroke-width="3.2"/>
<circle clip-path="url(#clip512)" cx="601.677" cy="370.676" r="14.4" fill="#008000" fill-rule="evenodd" fill-opacity="1" stroke="#000000" stroke-opacity="1" stroke-width="3.2"/>
<circle clip-path="url(#clip512)" cx="624.936" cy="351.439" r="14.4" fill="#008000" fill-rule="evenodd" fill-opacity="1" stroke="#000000" stroke-opacity="1" stroke-width="3.2"/>
<circle clip-path="url(#clip512)" cx="648.196" cy="334.46" r="14.4" fill="#008000" fill-rule="evenodd" fill-opacity="1" stroke="#000000" stroke-opacity="1" stroke-width="3.2"/>
<circle clip-path="url(#clip512)" cx="671.455" cy="319.027" r="14.4" fill="#008000" fill-rule="evenodd" fill-opacity="1" stroke="#000000" stroke-opacity="1" stroke-width="3.2"/>
<circle clip-path="url(#clip512)" cx="694.715" cy="304.434" r="14.4" fill="#008000" fill-rule="evenodd" fill-opacity="1" stroke="#000000" stroke-opacity="1" stroke-width="3.2"/>
<circle clip-path="url(#clip512)" cx="717.975" cy="290.234" r="14.4" fill="#008000" fill-rule="evenodd" fill-opacity="1" stroke="#000000" stroke-opacity="1" stroke-width="3.2"/>
<circle clip-path="url(#clip512)" cx="741.234" cy="277.334" r="14.4" fill="#008000" fill-rule="evenodd" fill-opacity="1" stroke="#000000" stroke-opacity="1" stroke-width="3.2"/>
<circle clip-path="url(#clip512)" cx="764.494" cy="265.636" r="14.4" fill="#008000" fill-rule="evenodd" fill-opacity="1" stroke="#000000" stroke-opacity="1" stroke-width="3.2"/>
<circle clip-path="url(#clip512)" cx="787.754" cy="254.847" r="14.4" fill="#008000" fill-rule="evenodd" fill-opacity="1" stroke="#000000" stroke-opacity="1" stroke-width="3.2"/>
<circle clip-path="url(#clip512)" cx="811.013" cy="244.672" r="14.4" fill="#008000" fill-rule="evenodd" fill-opacity="1" stroke="#000000" stroke-opacity="1" stroke-width="3.2"/>
<circle clip-path="url(#clip512)" cx="834.273" cy="234.819" r="14.4" fill="#008000" fill-rule="evenodd" fill-opacity="1" stroke="#000000" stroke-opacity="1" stroke-width="3.2"/>
<circle clip-path="url(#clip512)" cx="857.533" cy="225.171" r="14.4" fill="#008000" fill-rule="evenodd" fill-opacity="1" stroke="#000000" stroke-opacity="1" stroke-width="3.2"/>
<circle clip-path="url(#clip512)" cx="880.792" cy="216.277" r="14.4" fill="#008000" fill-rule="evenodd" fill-opacity="1" stroke="#000000" stroke-opacity="1" stroke-width="3.2"/>
<circle clip-path="url(#clip512)" cx="904.052" cy="208.085" r="14.4" fill="#008000" fill-rule="evenodd" fill-opacity="1" stroke="#000000" stroke-opacity="1" stroke-width="3.2"/>
<circle clip-path="url(#clip512)" cx="927.312" cy="200.474" r="14.4" fill="#008000" fill-rule="evenodd" fill-opacity="1" stroke="#000000" stroke-opacity="1" stroke-width="3.2"/>
<circle clip-path="url(#clip512)" cx="950.571" cy="193.325" r="14.4" fill="#008000" fill-rule="evenodd" fill-opacity="1" stroke="#000000" stroke-opacity="1" stroke-width="3.2"/>
<circle clip-path="url(#clip512)" cx="973.831" cy="186.517" r="14.4" fill="#008000" fill-rule="evenodd" fill-opacity="1" stroke="#000000" stroke-opacity="1" stroke-width="3.2"/>
<circle clip-path="url(#clip512)" cx="997.091" cy="179.931" r="14.4" fill="#008000" fill-rule="evenodd" fill-opacity="1" stroke="#000000" stroke-opacity="1" stroke-width="3.2"/>
<circle clip-path="url(#clip512)" cx="1020.35" cy="173.446" r="14.4" fill="#008000" fill-rule="evenodd" fill-opacity="1" stroke="#000000" stroke-opacity="1" stroke-width="3.2"/>
<circle clip-path="url(#clip512)" cx="1043.61" cy="167.139" r="14.4" fill="#008000" fill-rule="evenodd" fill-opacity="1" stroke="#000000" stroke-opacity="1" stroke-width="3.2"/>
<circle clip-path="url(#clip512)" cx="1066.87" cy="161.272" r="14.4" fill="#008000" fill-rule="evenodd" fill-opacity="1" stroke="#000000" stroke-opacity="1" stroke-width="3.2"/>
<circle clip-path="url(#clip512)" cx="1090.13" cy="155.787" r="14.4" fill="#008000" fill-rule="evenodd" fill-opacity="1" stroke="#000000" stroke-opacity="1" stroke-width="3.2"/>
<circle clip-path="url(#clip512)" cx="1113.39" cy="150.636" r="14.4" fill="#008000" fill-rule="evenodd" fill-opacity="1" stroke="#000000" stroke-opacity="1" stroke-width="3.2"/>
<circle clip-path="url(#clip512)" cx="1136.65" cy="145.77" r="14.4" fill="#008000" fill-rule="evenodd" fill-opacity="1" stroke="#000000" stroke-opacity="1" stroke-width="3.2"/>
<circle clip-path="url(#clip512)" cx="1159.91" cy="141.139" r="14.4" fill="#008000" fill-rule="evenodd" fill-opacity="1" stroke="#000000" stroke-opacity="1" stroke-width="3.2"/>
<circle clip-path="url(#clip512)" cx="1183.17" cy="136.694" r="14.4" fill="#008000" fill-rule="evenodd" fill-opacity="1" stroke="#000000" stroke-opacity="1" stroke-width="3.2"/>
<circle clip-path="url(#clip512)" cx="1206.43" cy="132.387" r="14.4" fill="#008000" fill-rule="evenodd" fill-opacity="1" stroke="#000000" stroke-opacity="1" stroke-width="3.2"/>
<circle clip-path="url(#clip512)" cx="1229.69" cy="128.167" r="14.4" fill="#008000" fill-rule="evenodd" fill-opacity="1" stroke="#000000" stroke-opacity="1" stroke-width="3.2"/>
<circle clip-path="url(#clip512)" cx="1252.95" cy="123.987" r="14.4" fill="#008000" fill-rule="evenodd" fill-opacity="1" stroke="#000000" stroke-opacity="1" stroke-width="3.2"/>
<circle clip-path="url(#clip512)" cx="1276.21" cy="119.937" r="14.4" fill="#008000" fill-rule="evenodd" fill-opacity="1" stroke="#000000" stroke-opacity="1" stroke-width="3.2"/>
<circle clip-path="url(#clip512)" cx="1299.47" cy="116.131" r="14.4" fill="#008000" fill-rule="evenodd" fill-opacity="1" stroke="#000000" stroke-opacity="1" stroke-width="3.2"/>
<circle clip-path="url(#clip512)" cx="1322.73" cy="112.533" r="14.4" fill="#008000" fill-rule="evenodd" fill-opacity="1" stroke="#000000" stroke-opacity="1" stroke-width="3.2"/>
<circle clip-path="url(#clip512)" cx="1345.99" cy="109.123" r="14.4" fill="#008000" fill-rule="evenodd" fill-opacity="1" stroke="#000000" stroke-opacity="1" stroke-width="3.2"/>
<circle clip-path="url(#clip512)" cx="1369.25" cy="105.882" r="14.4" fill="#008000" fill-rule="evenodd" fill-opacity="1" stroke="#000000" stroke-opacity="1" stroke-width="3.2"/>
<circle clip-path="url(#clip512)" cx="1392.5" cy="102.788" r="14.4" fill="#008000" fill-rule="evenodd" fill-opacity="1" stroke="#000000" stroke-opacity="1" stroke-width="3.2"/>
<circle clip-path="url(#clip512)" cx="1415.76" cy="99.8221" r="14.4" fill="#008000" fill-rule="evenodd" fill-opacity="1" stroke="#000000" stroke-opacity="1" stroke-width="3.2"/>
<circle clip-path="url(#clip512)" cx="1439.02" cy="96.9626" r="14.4" fill="#008000" fill-rule="evenodd" fill-opacity="1" stroke="#000000" stroke-opacity="1" stroke-width="3.2"/>
<circle clip-path="url(#clip512)" cx="1462.28" cy="94.1896" r="14.4" fill="#008000" fill-rule="evenodd" fill-opacity="1" stroke="#000000" stroke-opacity="1" stroke-width="3.2"/>
<circle clip-path="url(#clip512)" cx="1485.54" cy="91.4827" r="14.4" fill="#008000" fill-rule="evenodd" fill-opacity="1" stroke="#000000" stroke-opacity="1" stroke-width="3.2"/>
<circle clip-path="url(#clip512)" cx="1508.8" cy="88.8215" r="14.4" fill="#008000" fill-rule="evenodd" fill-opacity="1" stroke="#000000" stroke-opacity="1" stroke-width="3.2"/>
<circle clip-path="url(#clip512)" cx="1532.06" cy="86.1857" r="14.4" fill="#008000" fill-rule="evenodd" fill-opacity="1" stroke="#000000" stroke-opacity="1" stroke-width="3.2"/>
<polyline clip-path="url(#clip512)" style="stroke:#008000; stroke-linecap:round; stroke-linejoin:round; stroke-width:12; stroke-opacity:1; fill:none" stroke-dasharray="48, 30" points="2017.47,2799.12 2017.47,-1328.69 "/>
<path clip-path="url(#clip510)" d="M2045.7 1377.32 L2283.91 1377.32 L2283.91 1014.44 L2045.7 1014.44  Z" fill="#ffffff" fill-rule="evenodd" fill-opacity="1"/>
<polyline clip-path="url(#clip510)" style="stroke:#000000; stroke-linecap:round; stroke-linejoin:round; stroke-width:4; stroke-opacity:1; fill:none" points="2045.7,1377.32 2283.91,1377.32 2283.91,1014.44 2045.7,1014.44 2045.7,1377.32 "/>
<circle clip-path="url(#clip510)" cx="2137.5" cy="1066.28" r="20.48" fill="#0000ff" fill-rule="evenodd" fill-opacity="1" stroke="#000000" stroke-opacity="1" stroke-width="4.55111"/>
<path clip-path="url(#clip510)" d="M2245.13 1053.6 L2238.78 1070.8 L2251.49 1070.8 L2245.13 1053.6 M2242.49 1049 L2247.79 1049 L2260.96 1083.56 L2256.1 1083.56 L2252.95 1074.69 L2237.37 1074.69 L2234.22 1083.56 L2229.29 1083.56 L2242.49 1049 Z" fill="#000000" fill-rule="nonzero" fill-opacity="1" /><polyline clip-path="url(#clip510)" style="stroke:#0000ff; stroke-linecap:round; stroke-linejoin:round; stroke-width:12; stroke-opacity:1; fill:none" stroke-dasharray="48, 30" points="2068.65,1118.12 2206.35,1118.12 "/>
<path clip-path="url(#clip510)" d="M2245.13 1105.44 L2238.78 1122.64 L2251.49 1122.64 L2245.13 1105.44 M2242.49 1100.84 L2247.79 1100.84 L2260.96 1135.4 L2256.1 1135.4 L2252.95 1126.53 L2237.37 1126.53 L2234.22 1135.4 L2229.29 1135.4 L2242.49 1100.84 Z" fill="#000000" fill-rule="nonzero" fill-opacity="1" /><circle clip-path="url(#clip510)" cx="2137.5" cy="1169.96" r="20.48" fill="#ff0000" fill-rule="evenodd" fill-opacity="1" stroke="#000000" stroke-opacity="1" stroke-width="4.55111"/>
<path clip-path="url(#clip510)" d="M2233.97 1170.73 L2233.97 1183.39 L2241.47 1183.39 Q2245.24 1183.39 2247.05 1181.84 Q2248.88 1180.27 2248.88 1177.05 Q2248.88 1173.81 2247.05 1172.28 Q2245.24 1170.73 2241.47 1170.73 L2233.97 1170.73 M2233.97 1156.52 L2233.97 1166.93 L2240.89 1166.93 Q2244.32 1166.93 2245.98 1165.66 Q2247.67 1164.37 2247.67 1161.73 Q2247.67 1159.11 2245.98 1157.81 Q2244.32 1156.52 2240.89 1156.52 L2233.97 1156.52 M2229.29 1152.68 L2241.24 1152.68 Q2246.59 1152.68 2249.48 1154.9 Q2252.37 1157.12 2252.37 1161.22 Q2252.37 1164.39 2250.89 1166.26 Q2249.41 1168.14 2246.54 1168.6 Q2249.99 1169.34 2251.89 1171.7 Q2253.81 1174.04 2253.81 1177.56 Q2253.81 1182.19 2250.66 1184.71 Q2247.51 1187.24 2241.7 1187.24 L2229.29 1187.24 L2229.29 1152.68 Z" fill="#000000" fill-rule="nonzero" fill-opacity="1" /><polyline clip-path="url(#clip510)" style="stroke:#ff0000; stroke-linecap:round; stroke-linejoin:round; stroke-width:12; stroke-opacity:1; fill:none" stroke-dasharray="48, 30" points="2068.65,1221.8 2206.35,1221.8 "/>
<path clip-path="url(#clip510)" d="M2233.97 1222.57 L2233.97 1235.23 L2241.47 1235.23 Q2245.24 1235.23 2247.05 1233.68 Q2248.88 1232.11 2248.88 1228.89 Q2248.88 1225.65 2247.05 1224.12 Q2245.24 1222.57 2241.47 1222.57 L2233.97 1222.57 M2233.97 1208.36 L2233.97 1218.77 L2240.89 1218.77 Q2244.32 1218.77 2245.98 1217.5 Q2247.67 1216.21 2247.67 1213.57 Q2247.67 1210.95 2245.98 1209.65 Q2244.32 1208.36 2240.89 1208.36 L2233.97 1208.36 M2229.29 1204.52 L2241.24 1204.52 Q2246.59 1204.52 2249.48 1206.74 Q2252.37 1208.96 2252.37 1213.06 Q2252.37 1216.23 2250.89 1218.1 Q2249.41 1219.98 2246.54 1220.44 Q2249.99 1221.18 2251.89 1223.54 Q2253.81 1225.88 2253.81 1229.4 Q2253.81 1234.03 2250.66 1236.55 Q2247.51 1239.08 2241.7 1239.08 L2229.29 1239.08 L2229.29 1204.52 Z" fill="#000000" fill-rule="nonzero" fill-opacity="1" /><circle clip-path="url(#clip510)" cx="2137.5" cy="1273.64" r="20.48" fill="#008000" fill-rule="evenodd" fill-opacity="1" stroke="#000000" stroke-opacity="1" stroke-width="4.55111"/>
<path clip-path="url(#clip510)" d="M2257.16 1259.02 L2257.16 1263.95 Q2254.8 1261.75 2252.12 1260.66 Q2249.46 1259.57 2246.45 1259.57 Q2240.52 1259.57 2237.37 1263.21 Q2234.22 1266.82 2234.22 1273.67 Q2234.22 1280.5 2237.37 1284.13 Q2240.52 1287.74 2246.45 1287.74 Q2249.46 1287.74 2252.12 1286.66 Q2254.8 1285.57 2257.16 1283.37 L2257.16 1288.25 Q2254.71 1289.92 2251.96 1290.75 Q2249.22 1291.59 2246.17 1291.59 Q2238.32 1291.59 2233.81 1286.79 Q2229.29 1281.98 2229.29 1273.67 Q2229.29 1265.34 2233.81 1260.55 Q2238.32 1255.73 2246.17 1255.73 Q2249.27 1255.73 2252 1256.56 Q2254.76 1257.37 2257.16 1259.02 Z" fill="#000000" fill-rule="nonzero" fill-opacity="1" /><polyline clip-path="url(#clip510)" style="stroke:#008000; stroke-linecap:round; stroke-linejoin:round; stroke-width:12; stroke-opacity:1; fill:none" stroke-dasharray="48, 30" points="2068.65,1325.48 2206.35,1325.48 "/>
<path clip-path="url(#clip510)" d="M2257.16 1310.86 L2257.16 1315.79 Q2254.8 1313.59 2252.12 1312.5 Q2249.46 1311.41 2246.45 1311.41 Q2240.52 1311.41 2237.37 1315.05 Q2234.22 1318.66 2234.22 1325.51 Q2234.22 1332.34 2237.37 1335.97 Q2240.52 1339.58 2246.45 1339.58 Q2249.46 1339.58 2252.12 1338.5 Q2254.8 1337.41 2257.16 1335.21 L2257.16 1340.09 Q2254.71 1341.76 2251.96 1342.59 Q2249.22 1343.43 2246.17 1343.43 Q2238.32 1343.43 2233.81 1338.63 Q2229.29 1333.82 2229.29 1325.51 Q2229.29 1317.18 2233.81 1312.39 Q2238.32 1307.57 2246.17 1307.57 Q2249.27 1307.57 2252 1308.4 Q2254.76 1309.21 2257.16 1310.86 Z" fill="#000000" fill-rule="nonzero" fill-opacity="1" /></svg>
