<?xml version="1.0" encoding="utf-8"?>
<svg xmlns="http://www.w3.org/2000/svg" xmlns:xlink="http://www.w3.org/1999/xlink" width="600" height="400" viewBox="0 0 2400 1600">
<defs>
  <clipPath id="clip120">
    <rect x="0" y="0" width="2400" height="1600"/>
  </clipPath>
</defs>
<path clip-path="url(#clip120)" d="M0 1600 L2400 1600 L2400 0 L0 0  Z" fill="#ffffff" fill-rule="evenodd" fill-opacity="1"/>
<defs>
  <clipPath id="clip121">
    <rect x="234" y="47" width="2120" height="1377"/>
  </clipPath>
</defs>
<path clip-path="url(#clip120)" d="M232.389 1423.18 L2352.76 1423.18 L2352.76 47.2441 L232.389 47.2441  Z" fill="#ffffff" fill-rule="evenodd" fill-opacity="1"/>
<defs>
  <clipPath id="clip122">
    <rect x="232" y="47" width="2121" height="1377"/>
  </clipPath>
</defs>
<polyline clip-path="url(#clip122)" style="stroke:#000000; stroke-linecap:round; stroke-linejoin:round; stroke-width:2; stroke-opacity:0.1; fill:none" points="292.4,1423.18 292.4,47.2441 "/>
<polyline clip-path="url(#clip122)" style="stroke:#000000; stroke-linecap:round; stroke-linejoin:round; stroke-width:2; stroke-opacity:0.1; fill:none" points="765.935,1423.18 765.935,47.2441 "/>
<polyline clip-path="url(#clip122)" style="stroke:#000000; stroke-linecap:round; stroke-linejoin:round; stroke-width:2; stroke-opacity:0.1; fill:none" points="1239.47,1423.18 1239.47,47.2441 "/>
<polyline clip-path="url(#clip122)" style="stroke:#000000; stroke-linecap:round; stroke-linejoin:round; stroke-width:2; stroke-opacity:0.1; fill:none" points="1713.01,1423.18 1713.01,47.2441 "/>
<polyline clip-path="url(#clip122)" style="stroke:#000000; stroke-linecap:round; stroke-linejoin:round; stroke-width:2; stroke-opacity:0.1; fill:none" points="2186.54,1423.18 2186.54,47.2441 "/>
<polyline clip-path="url(#clip122)" style="stroke:#000000; stroke-linecap:round; stroke-linejoin:round; stroke-width:2; stroke-opacity:0.1; fill:none" points="232.389,1240.01 2352.76,1240.01 "/>
<polyline clip-path="url(#clip122)" style="stroke:#000000; stroke-linecap:round; stroke-linejoin:round; stroke-width:2; stroke-opacity:0.1; fill:none" points="232.389,919.503 2352.76,919.503 "/>
<polyline clip-path="url(#clip122)" style="stroke:#000000; stroke-linecap:round; stroke-linejoin:round; stroke-width:2; stroke-opacity:0.1; fill:none" points="232.389,598.997 2352.76,598.997 "/>
<polyline clip-path="url(#clip122)" style="stroke:#000000; stroke-linecap:round; stroke-linejoin:round; stroke-width:2; stroke-opacity:0.1; fill:none" points="232.389,278.49 2352.76,278.49 "/>
<polyline clip-path="url(#clip120)" style="stroke:#000000; stroke-linecap:round; stroke-linejoin:round; stroke-width:4; stroke-opacity:1; fill:none" points="232.389,1423.18 2352.76,1423.18 "/>
<polyline clip-path="url(#clip120)" style="stroke:#000000; stroke-linecap:round; stroke-linejoin:round; stroke-width:4; stroke-opacity:1; fill:none" points="292.4,1423.18 292.4,1404.28 "/>
<polyline clip-path="url(#clip120)" style="stroke:#000000; stroke-linecap:round; stroke-linejoin:round; stroke-width:4; stroke-opacity:1; fill:none" points="765.935,1423.18 765.935,1404.28 "/>
<polyline clip-path="url(#clip120)" style="stroke:#000000; stroke-linecap:round; stroke-linejoin:round; stroke-width:4; stroke-opacity:1; fill:none" points="1239.47,1423.18 1239.47,1404.28 "/>
<polyline clip-path="url(#clip120)" style="stroke:#000000; stroke-linecap:round; stroke-linejoin:round; stroke-width:4; stroke-opacity:1; fill:none" points="1713.01,1423.18 1713.01,1404.28 "/>
<polyline clip-path="url(#clip120)" style="stroke:#000000; stroke-linecap:round; stroke-linejoin:round; stroke-width:4; stroke-opacity:1; fill:none" points="2186.54,1423.18 2186.54,1404.28 "/>
<path clip-path="url(#clip120)" d="M292.4 1454.1 Q288.789 1454.1 286.96 1457.66 Q285.154 1461.2 285.154 1468.33 Q285.154 1475.44 286.96 1479.01 Q288.789 1482.55 292.4 1482.55 Q296.034 1482.55 297.84 1479.01 Q299.668 1475.44 299.668 1468.33 Q299.668 1461.2 297.84 1457.66 Q296.034 1454.1 292.4 1454.1 M292.4 1450.39 Q298.21 1450.39 301.265 1455 Q304.344 1459.58 304.344 1468.33 Q304.344 1477.06 301.265 1481.67 Q298.21 1486.25 292.4 1486.25 Q286.59 1486.25 283.511 1481.67 Q280.455 1477.06 280.455 1468.33 Q280.455 1459.58 283.511 1455 Q286.59 1450.39 292.4 1450.39 Z" fill="#000000" fill-rule="nonzero" fill-opacity="1" /><path clip-path="url(#clip120)" d="M756.213 1451.02 L774.57 1451.02 L774.57 1454.96 L760.496 1454.96 L760.496 1463.43 Q761.514 1463.08 762.533 1462.92 Q763.551 1462.73 764.57 1462.73 Q770.357 1462.73 773.736 1465.9 Q777.116 1469.08 777.116 1474.49 Q777.116 1480.07 773.644 1483.17 Q770.171 1486.25 763.852 1486.25 Q761.676 1486.25 759.408 1485.88 Q757.162 1485.51 754.755 1484.77 L754.755 1480.07 Q756.838 1481.2 759.06 1481.76 Q761.283 1482.32 763.759 1482.32 Q767.764 1482.32 770.102 1480.21 Q772.44 1478.1 772.44 1474.49 Q772.44 1470.88 770.102 1468.77 Q767.764 1466.67 763.759 1466.67 Q761.884 1466.67 760.009 1467.08 Q758.158 1467.5 756.213 1468.38 L756.213 1451.02 Z" fill="#000000" fill-rule="nonzero" fill-opacity="1" /><path clip-path="url(#clip120)" d="M1214.16 1481.64 L1221.8 1481.64 L1221.8 1455.28 L1213.49 1456.95 L1213.49 1452.69 L1221.75 1451.02 L1226.43 1451.02 L1226.43 1481.64 L1234.07 1481.64 L1234.07 1485.58 L1214.16 1485.58 L1214.16 1481.64 Z" fill="#000000" fill-rule="nonzero" fill-opacity="1" /><path clip-path="url(#clip120)" d="M1253.51 1454.1 Q1249.9 1454.1 1248.07 1457.66 Q1246.26 1461.2 1246.26 1468.33 Q1246.26 1475.44 1248.07 1479.01 Q1249.9 1482.55 1253.51 1482.55 Q1257.14 1482.55 1258.95 1479.01 Q1260.78 1475.44 1260.78 1468.33 Q1260.78 1461.2 1258.95 1457.66 Q1257.14 1454.1 1253.51 1454.1 M1253.51 1450.39 Q1259.32 1450.39 1262.38 1455 Q1265.45 1459.58 1265.45 1468.33 Q1265.45 1477.06 1262.38 1481.67 Q1259.32 1486.25 1253.51 1486.25 Q1247.7 1486.25 1244.62 1481.67 Q1241.57 1477.06 1241.57 1468.33 Q1241.57 1459.58 1244.62 1455 Q1247.7 1450.39 1253.51 1450.39 Z" fill="#000000" fill-rule="nonzero" fill-opacity="1" /><path clip-path="url(#clip120)" d="M1688.19 1481.64 L1695.83 1481.64 L1695.83 1455.28 L1687.52 1456.95 L1687.52 1452.69 L1695.78 1451.02 L1700.46 1451.02 L1700.46 1481.64 L1708.1 1481.64 L1708.1 1485.58 L1688.19 1485.58 L1688.19 1481.64 Z" fill="#000000" fill-rule="nonzero" fill-opacity="1" /><path clip-path="url(#clip120)" d="M1717.59 1451.02 L1735.95 1451.02 L1735.95 1454.96 L1721.87 1454.96 L1721.87 1463.43 Q1722.89 1463.08 1723.91 1462.92 Q1724.93 1462.73 1725.95 1462.73 Q1731.73 1462.73 1735.11 1465.9 Q1738.49 1469.08 1738.49 1474.49 Q1738.49 1480.07 1735.02 1483.17 Q1731.55 1486.25 1725.23 1486.25 Q1723.05 1486.25 1720.78 1485.88 Q1718.54 1485.51 1716.13 1484.77 L1716.13 1480.07 Q1718.21 1481.2 1720.44 1481.76 Q1722.66 1482.32 1725.14 1482.32 Q1729.14 1482.32 1731.48 1480.21 Q1733.82 1478.1 1733.82 1474.49 Q1733.82 1470.88 1731.48 1468.77 Q1729.14 1466.67 1725.14 1466.67 Q1723.26 1466.67 1721.39 1467.08 Q1719.53 1467.5 1717.59 1468.38 L1717.59 1451.02 Z" fill="#000000" fill-rule="nonzero" fill-opacity="1" /><path clip-path="url(#clip120)" d="M2165.32 1481.64 L2181.63 1481.64 L2181.63 1485.58 L2159.69 1485.58 L2159.69 1481.64 Q2162.35 1478.89 2166.94 1474.26 Q2171.54 1469.61 2172.72 1468.27 Q2174.97 1465.74 2175.85 1464.01 Q2176.75 1462.25 2176.75 1460.56 Q2176.75 1457.8 2174.81 1456.07 Q2172.88 1454.33 2169.78 1454.33 Q2167.58 1454.33 2165.13 1455.09 Q2162.7 1455.86 2159.92 1457.41 L2159.92 1452.69 Q2162.75 1451.55 2165.2 1450.97 Q2167.65 1450.39 2169.69 1450.39 Q2175.06 1450.39 2178.26 1453.08 Q2181.45 1455.77 2181.45 1460.26 Q2181.45 1462.39 2180.64 1464.31 Q2179.85 1466.2 2177.75 1468.8 Q2177.17 1469.47 2174.07 1472.69 Q2170.96 1475.88 2165.32 1481.64 Z" fill="#000000" fill-rule="nonzero" fill-opacity="1" /><path clip-path="url(#clip120)" d="M2201.45 1454.1 Q2197.84 1454.1 2196.01 1457.66 Q2194.2 1461.2 2194.2 1468.33 Q2194.2 1475.44 2196.01 1479.01 Q2197.84 1482.55 2201.45 1482.55 Q2205.08 1482.55 2206.89 1479.01 Q2208.72 1475.44 2208.72 1468.33 Q2208.72 1461.2 2206.89 1457.66 Q2205.08 1454.1 2201.45 1454.1 M2201.45 1450.39 Q2207.26 1450.39 2210.32 1455 Q2213.39 1459.58 2213.39 1468.33 Q2213.39 1477.06 2210.32 1481.67 Q2207.26 1486.25 2201.45 1486.25 Q2195.64 1486.25 2192.56 1481.67 Q2189.5 1477.06 2189.5 1468.33 Q2189.5 1459.58 2192.56 1455 Q2195.64 1450.39 2201.45 1450.39 Z" fill="#000000" fill-rule="nonzero" fill-opacity="1" /><path clip-path="url(#clip120)" d="M1291.33 1546.53 L1291.33 1568.04 L1285.47 1568.04 L1285.47 1546.72 Q1285.47 1541.66 1283.5 1539.14 Q1281.53 1536.63 1277.58 1536.63 Q1272.84 1536.63 1270.1 1539.65 Q1267.36 1542.68 1267.36 1547.9 L1267.36 1568.04 L1261.48 1568.04 L1261.48 1518.52 L1267.36 1518.52 L1267.36 1537.93 Q1269.47 1534.72 1272.3 1533.13 Q1275.16 1531.54 1278.89 1531.54 Q1285.03 1531.54 1288.18 1535.36 Q1291.33 1539.14 1291.33 1546.53 Z" fill="#000000" fill-rule="nonzero" fill-opacity="1" /><path clip-path="url(#clip120)" d="M1323.67 1537.87 Q1322.68 1537.3 1321.5 1537.04 Q1320.36 1536.76 1318.96 1536.76 Q1313.99 1536.76 1311.32 1540 Q1308.68 1543.22 1308.68 1549.27 L1308.68 1568.04 L1302.79 1568.04 L1302.79 1532.4 L1308.68 1532.4 L1308.68 1537.93 Q1310.52 1534.69 1313.48 1533.13 Q1316.44 1531.54 1320.68 1531.54 Q1321.28 1531.54 1322.01 1531.63 Q1322.75 1531.7 1323.64 1531.85 L1323.67 1537.87 Z" fill="#000000" fill-rule="nonzero" fill-opacity="1" /><polyline clip-path="url(#clip120)" style="stroke:#000000; stroke-linecap:round; stroke-linejoin:round; stroke-width:4; stroke-opacity:1; fill:none" points="232.389,1423.18 232.389,47.2441 "/>
<polyline clip-path="url(#clip120)" style="stroke:#000000; stroke-linecap:round; stroke-linejoin:round; stroke-width:4; stroke-opacity:1; fill:none" points="232.389,1240.01 251.287,1240.01 "/>
<polyline clip-path="url(#clip120)" style="stroke:#000000; stroke-linecap:round; stroke-linejoin:round; stroke-width:4; stroke-opacity:1; fill:none" points="232.389,919.503 251.287,919.503 "/>
<polyline clip-path="url(#clip120)" style="stroke:#000000; stroke-linecap:round; stroke-linejoin:round; stroke-width:4; stroke-opacity:1; fill:none" points="232.389,598.997 251.287,598.997 "/>
<polyline clip-path="url(#clip120)" style="stroke:#000000; stroke-linecap:round; stroke-linejoin:round; stroke-width:4; stroke-opacity:1; fill:none" points="232.389,278.49 251.287,278.49 "/>
<path clip-path="url(#clip120)" d="M114.931 1253.36 L122.57 1253.36 L122.57 1226.99 L114.26 1228.66 L114.26 1224.4 L122.524 1222.73 L127.2 1222.73 L127.2 1253.36 L134.839 1253.36 L134.839 1257.29 L114.931 1257.29 L114.931 1253.36 Z" fill="#000000" fill-rule="nonzero" fill-opacity="1" /><path clip-path="url(#clip120)" d="M154.283 1225.81 Q150.672 1225.81 148.843 1229.37 Q147.038 1232.92 147.038 1240.04 Q147.038 1247.15 148.843 1250.72 Q150.672 1254.26 154.283 1254.26 Q157.917 1254.26 159.723 1250.72 Q161.552 1247.15 161.552 1240.04 Q161.552 1232.92 159.723 1229.37 Q157.917 1225.81 154.283 1225.81 M154.283 1222.11 Q160.093 1222.11 163.149 1226.71 Q166.227 1231.29 166.227 1240.04 Q166.227 1248.77 163.149 1253.38 Q160.093 1257.96 154.283 1257.96 Q148.473 1257.96 145.394 1253.38 Q142.339 1248.77 142.339 1240.04 Q142.339 1231.29 145.394 1226.71 Q148.473 1222.11 154.283 1222.11 Z" fill="#000000" fill-rule="nonzero" fill-opacity="1" /><path clip-path="url(#clip120)" d="M184.445 1225.81 Q180.834 1225.81 179.005 1229.37 Q177.2 1232.92 177.2 1240.04 Q177.2 1247.15 179.005 1250.72 Q180.834 1254.26 184.445 1254.26 Q188.079 1254.26 189.885 1250.72 Q191.713 1247.15 191.713 1240.04 Q191.713 1232.92 189.885 1229.37 Q188.079 1225.81 184.445 1225.81 M184.445 1222.11 Q190.255 1222.11 193.311 1226.71 Q196.389 1231.29 196.389 1240.04 Q196.389 1248.77 193.311 1253.38 Q190.255 1257.96 184.445 1257.96 Q178.635 1257.96 175.556 1253.38 Q172.501 1248.77 172.501 1240.04 Q172.501 1231.29 175.556 1226.71 Q178.635 1222.11 184.445 1222.11 Z" fill="#000000" fill-rule="nonzero" fill-opacity="1" /><path clip-path="url(#clip120)" d="M114.931 932.848 L122.57 932.848 L122.57 906.483 L114.26 908.149 L114.26 903.89 L122.524 902.223 L127.2 902.223 L127.2 932.848 L134.839 932.848 L134.839 936.783 L114.931 936.783 L114.931 932.848 Z" fill="#000000" fill-rule="nonzero" fill-opacity="1" /><path clip-path="url(#clip120)" d="M148.311 932.848 L164.63 932.848 L164.63 936.783 L142.686 936.783 L142.686 932.848 Q145.348 930.094 149.931 925.464 Q154.538 920.811 155.718 919.469 Q157.964 916.946 158.843 915.209 Q159.746 913.45 159.746 911.76 Q159.746 909.006 157.802 907.27 Q155.88 905.534 152.778 905.534 Q150.579 905.534 148.126 906.297 Q145.695 907.061 142.917 908.612 L142.917 903.89 Q145.741 902.756 148.195 902.177 Q150.649 901.598 152.686 901.598 Q158.056 901.598 161.251 904.284 Q164.445 906.969 164.445 911.459 Q164.445 913.589 163.635 915.51 Q162.848 917.408 160.741 920.001 Q160.163 920.672 157.061 923.89 Q153.959 927.084 148.311 932.848 Z" fill="#000000" fill-rule="nonzero" fill-opacity="1" /><path clip-path="url(#clip120)" d="M184.445 905.302 Q180.834 905.302 179.005 908.867 Q177.2 912.409 177.2 919.538 Q177.2 926.645 179.005 930.209 Q180.834 933.751 184.445 933.751 Q188.079 933.751 189.885 930.209 Q191.713 926.645 191.713 919.538 Q191.713 912.409 189.885 908.867 Q188.079 905.302 184.445 905.302 M184.445 901.598 Q190.255 901.598 193.311 906.205 Q196.389 910.788 196.389 919.538 Q196.389 928.265 193.311 932.871 Q190.255 937.455 184.445 937.455 Q178.635 937.455 175.556 932.871 Q172.501 928.265 172.501 919.538 Q172.501 910.788 175.556 906.205 Q178.635 901.598 184.445 901.598 Z" fill="#000000" fill-rule="nonzero" fill-opacity="1" /><path clip-path="url(#clip120)" d="M114.931 612.341 L122.57 612.341 L122.57 585.976 L114.26 587.642 L114.26 583.383 L122.524 581.717 L127.2 581.717 L127.2 612.341 L134.839 612.341 L134.839 616.277 L114.931 616.277 L114.931 612.341 Z" fill="#000000" fill-rule="nonzero" fill-opacity="1" /><path clip-path="url(#clip120)" d="M157.13 585.791 L145.325 604.24 L157.13 604.24 L157.13 585.791 M155.903 581.717 L161.783 581.717 L161.783 604.24 L166.714 604.24 L166.714 608.128 L161.783 608.128 L161.783 616.277 L157.13 616.277 L157.13 608.128 L141.529 608.128 L141.529 603.615 L155.903 581.717 Z" fill="#000000" fill-rule="nonzero" fill-opacity="1" /><path clip-path="url(#clip120)" d="M184.445 584.795 Q180.834 584.795 179.005 588.36 Q177.2 591.902 177.2 599.031 Q177.2 606.138 179.005 609.703 Q180.834 613.244 184.445 613.244 Q188.079 613.244 189.885 609.703 Q191.713 606.138 191.713 599.031 Q191.713 591.902 189.885 588.36 Q188.079 584.795 184.445 584.795 M184.445 581.092 Q190.255 581.092 193.311 585.698 Q196.389 590.281 196.389 599.031 Q196.389 607.758 193.311 612.365 Q190.255 616.948 184.445 616.948 Q178.635 616.948 175.556 612.365 Q172.501 607.758 172.501 599.031 Q172.501 590.281 175.556 585.698 Q178.635 581.092 184.445 581.092 Z" fill="#000000" fill-rule="nonzero" fill-opacity="1" /><path clip-path="url(#clip120)" d="M114.931 291.835 L122.57 291.835 L122.57 265.469 L114.26 267.136 L114.26 262.876 L122.524 261.21 L127.2 261.21 L127.2 291.835 L134.839 291.835 L134.839 295.77 L114.931 295.77 L114.931 291.835 Z" fill="#000000" fill-rule="nonzero" fill-opacity="1" /><path clip-path="url(#clip120)" d="M154.862 276.626 Q151.714 276.626 149.862 278.779 Q148.033 280.932 148.033 284.682 Q148.033 288.409 149.862 290.585 Q151.714 292.737 154.862 292.737 Q158.01 292.737 159.839 290.585 Q161.69 288.409 161.69 284.682 Q161.69 280.932 159.839 278.779 Q158.01 276.626 154.862 276.626 M164.144 261.974 L164.144 266.233 Q162.385 265.4 160.579 264.96 Q158.797 264.52 157.038 264.52 Q152.408 264.52 149.954 267.645 Q147.524 270.77 147.177 277.089 Q148.542 275.075 150.603 274.011 Q152.663 272.923 155.14 272.923 Q160.348 272.923 163.357 276.094 Q166.39 279.242 166.39 284.682 Q166.39 290.006 163.241 293.223 Q160.093 296.441 154.862 296.441 Q148.866 296.441 145.695 291.858 Q142.524 287.251 142.524 278.524 Q142.524 270.33 146.413 265.469 Q150.302 260.585 156.853 260.585 Q158.612 260.585 160.394 260.932 Q162.2 261.279 164.144 261.974 Z" fill="#000000" fill-rule="nonzero" fill-opacity="1" /><path clip-path="url(#clip120)" d="M184.445 264.288 Q180.834 264.288 179.005 267.853 Q177.2 271.395 177.2 278.524 Q177.2 285.631 179.005 289.196 Q180.834 292.737 184.445 292.737 Q188.079 292.737 189.885 289.196 Q191.713 285.631 191.713 278.524 Q191.713 271.395 189.885 267.853 Q188.079 264.288 184.445 264.288 M184.445 260.585 Q190.255 260.585 193.311 265.191 Q196.389 269.775 196.389 278.524 Q196.389 287.251 193.311 291.858 Q190.255 296.441 184.445 296.441 Q178.635 296.441 175.556 291.858 Q172.501 287.251 172.501 278.524 Q172.501 269.775 175.556 265.191 Q178.635 260.585 184.445 260.585 Z" fill="#000000" fill-rule="nonzero" fill-opacity="1" /><path clip-path="url(#clip120)" d="M21.7677 990.031 L39.6235 990.031 L39.6235 981.947 Q39.6235 977.459 37.3 975.008 Q34.9765 972.557 30.6797 972.557 Q26.4147 972.557 24.0912 975.008 Q21.7677 977.459 21.7677 981.947 L21.7677 990.031 M16.4842 996.461 L16.4842 981.947 Q16.4842 973.958 20.1126 969.884 Q23.7092 965.778 30.6797 965.778 Q37.7138 965.778 41.3104 969.884 Q44.907 973.958 44.907 981.947 L44.907 990.031 L64.0042 990.031 L64.0042 996.461 L16.4842 996.461 Z" fill="#000000" fill-rule="nonzero" fill-opacity="1" /><path clip-path="url(#clip120)" d="M33.8307 937.896 Q33.2578 938.883 33.0032 940.06 Q32.7167 941.206 32.7167 942.607 Q32.7167 947.572 35.9632 950.246 Q39.1779 952.887 45.2253 952.887 L64.0042 952.887 L64.0042 958.776 L28.3562 958.776 L28.3562 952.887 L33.8944 952.887 Q30.6479 951.041 29.0883 948.081 Q27.4968 945.121 27.4968 940.888 Q27.4968 940.283 27.5923 939.551 Q27.656 938.819 27.8151 937.928 L33.8307 937.896 Z" fill="#000000" fill-rule="nonzero" fill-opacity="1" /><path clip-path="url(#clip120)" d="M44.7161 902.694 L47.5806 902.694 L47.5806 929.621 Q53.6281 929.239 56.8109 925.992 Q59.9619 922.714 59.9619 916.889 Q59.9619 913.515 59.1344 910.364 Q58.3069 907.182 56.6518 904.062 L62.1899 904.062 Q63.5267 907.213 64.227 910.524 Q64.9272 913.834 64.9272 917.239 Q64.9272 925.769 59.9619 930.766 Q54.9967 935.732 46.5303 935.732 Q37.7774 935.732 32.6531 931.021 Q27.4968 926.279 27.4968 918.258 Q27.4968 911.065 32.1438 906.895 Q36.7589 902.694 44.7161 902.694 M42.9973 908.55 Q38.1912 908.614 35.3266 911.256 Q32.4621 913.866 32.4621 918.194 Q32.4621 923.096 35.2312 926.056 Q38.0002 928.984 43.0292 929.43 L42.9973 908.55 Z" fill="#000000" fill-rule="nonzero" fill-opacity="1" /><path clip-path="url(#clip120)" d="M29.4065 870.356 L34.9447 870.356 Q33.6716 872.839 33.035 875.512 Q32.3984 878.186 32.3984 881.05 Q32.3984 885.411 33.7352 887.607 Q35.072 889.771 37.7456 889.771 Q39.7826 889.771 40.9603 888.212 Q42.1061 886.652 43.1565 881.942 L43.6021 879.936 Q44.9389 873.698 47.3897 871.088 Q49.8086 868.446 54.1691 868.446 Q59.1344 868.446 62.0308 872.393 Q64.9272 876.308 64.9272 883.183 Q64.9272 886.047 64.3543 889.167 Q63.8132 892.254 62.6992 895.691 L56.6518 895.691 Q58.3387 892.445 59.198 889.294 Q60.0256 886.143 60.0256 883.056 Q60.0256 878.918 58.6251 876.69 Q57.1929 874.462 54.6147 874.462 Q52.2276 874.462 50.9545 876.085 Q49.6813 877.676 48.5037 883.119 L48.0262 885.156 Q46.8804 890.599 44.5251 893.018 Q42.138 895.437 38.0002 895.437 Q32.9713 895.437 30.2341 891.872 Q27.4968 888.307 27.4968 881.751 Q27.4968 878.504 27.9743 875.639 Q28.4517 872.775 29.4065 870.356 Z" fill="#000000" fill-rule="nonzero" fill-opacity="1" /><path clip-path="url(#clip120)" d="M29.4065 836.395 L34.9447 836.395 Q33.6716 838.878 33.035 841.551 Q32.3984 844.225 32.3984 847.089 Q32.3984 851.45 33.7352 853.646 Q35.072 855.81 37.7456 855.81 Q39.7826 855.81 40.9603 854.251 Q42.1061 852.691 43.1565 847.98 L43.6021 845.975 Q44.9389 839.737 47.3897 837.127 Q49.8086 834.485 54.1691 834.485 Q59.1344 834.485 62.0308 838.432 Q64.9272 842.347 64.9272 849.222 Q64.9272 852.086 64.3543 855.206 Q63.8132 858.293 62.6992 861.73 L56.6518 861.73 Q58.3387 858.484 59.198 855.333 Q60.0256 852.182 60.0256 849.094 Q60.0256 844.957 58.6251 842.729 Q57.1929 840.501 54.6147 840.501 Q52.2276 840.501 50.9545 842.124 Q49.6813 843.715 48.5037 849.158 L48.0262 851.195 Q46.8804 856.638 44.5251 859.057 Q42.138 861.476 38.0002 861.476 Q32.9713 861.476 30.2341 857.911 Q27.4968 854.346 27.4968 847.789 Q27.4968 844.543 27.9743 841.678 Q28.4517 838.814 29.4065 836.395 Z" fill="#000000" fill-rule="nonzero" fill-opacity="1" /><path clip-path="url(#clip120)" d="M49.9359 825.764 L28.3562 825.764 L28.3562 819.908 L49.7131 819.908 Q54.7739 819.908 57.3202 817.934 Q59.8346 815.961 59.8346 812.014 Q59.8346 807.272 56.8109 804.535 Q53.7872 801.765 48.5673 801.765 L28.3562 801.765 L28.3562 795.909 L64.0042 795.909 L64.0042 801.765 L58.5296 801.765 Q61.7762 803.898 63.3676 806.731 Q64.9272 809.532 64.9272 813.256 Q64.9272 819.398 61.1078 822.581 Q57.2883 825.764 49.9359 825.764 M27.4968 811.028 L27.4968 811.028 Z" fill="#000000" fill-rule="nonzero" fill-opacity="1" /><path clip-path="url(#clip120)" d="M33.8307 763.189 Q33.2578 764.176 33.0032 765.354 Q32.7167 766.499 32.7167 767.9 Q32.7167 772.865 35.9632 775.539 Q39.1779 778.18 45.2253 778.18 L64.0042 778.18 L64.0042 784.069 L28.3562 784.069 L28.3562 778.18 L33.8944 778.18 Q30.6479 776.334 29.0883 773.374 Q27.4968 770.414 27.4968 766.181 Q27.4968 765.576 27.5923 764.844 Q27.656 764.112 27.8151 763.221 L33.8307 763.189 Z" fill="#000000" fill-rule="nonzero" fill-opacity="1" /><path clip-path="url(#clip120)" d="M44.7161 727.987 L47.5806 727.987 L47.5806 754.914 Q53.6281 754.532 56.8109 751.285 Q59.9619 748.007 59.9619 742.182 Q59.9619 738.809 59.1344 735.658 Q58.3069 732.475 56.6518 729.356 L62.1899 729.356 Q63.5267 732.507 64.227 735.817 Q64.9272 739.127 64.9272 742.533 Q64.9272 751.063 59.9619 756.06 Q54.9967 761.025 46.5303 761.025 Q37.7774 761.025 32.6531 756.314 Q27.4968 751.572 27.4968 743.551 Q27.4968 736.358 32.1438 732.188 Q36.7589 727.987 44.7161 727.987 M42.9973 733.843 Q38.1912 733.907 35.3266 736.549 Q32.4621 739.159 32.4621 743.487 Q32.4621 748.389 35.2312 751.349 Q38.0002 754.277 43.0292 754.723 L42.9973 733.843 Z" fill="#000000" fill-rule="nonzero" fill-opacity="1" /><path clip-path="url(#clip120)" d="M14.5426 683.586 Q21.8632 687.851 29.0246 689.92 Q36.186 691.989 43.5384 691.989 Q50.8908 691.989 58.1159 689.92 Q65.3091 687.819 72.5979 683.586 L72.5979 688.679 Q65.1182 693.453 57.8931 695.84 Q50.668 698.195 43.5384 698.195 Q36.4406 698.195 29.2474 695.84 Q22.0542 693.485 14.5426 688.679 L14.5426 683.586 Z" fill="#000000" fill-rule="nonzero" fill-opacity="1" /><path clip-path="url(#clip120)" d="M35.1993 644.469 Q31.2526 642.273 29.3747 639.217 Q27.4968 636.162 27.4968 632.024 Q27.4968 626.454 31.4117 623.43 Q35.2948 620.406 42.4881 620.406 L64.0042 620.406 L64.0042 626.295 L42.679 626.295 Q37.5546 626.295 35.072 628.109 Q32.5894 629.923 32.5894 633.647 Q32.5894 638.199 35.6131 640.84 Q38.6368 643.482 43.8567 643.482 L64.0042 643.482 L64.0042 649.37 L42.679 649.37 Q37.5228 649.37 35.072 651.185 Q32.5894 652.999 32.5894 656.786 Q32.5894 661.274 35.6449 663.916 Q38.6686 666.558 43.8567 666.558 L64.0042 666.558 L64.0042 672.446 L28.3562 672.446 L28.3562 666.558 L33.8944 666.558 Q30.616 664.553 29.0564 661.752 Q27.4968 658.951 27.4968 655.1 Q27.4968 651.216 29.4702 648.511 Q31.4436 645.774 35.1993 644.469 Z" fill="#000000" fill-rule="nonzero" fill-opacity="1" /><path clip-path="url(#clip120)" d="M16.4842 615.059 L16.4842 574.86 L21.895 574.86 L21.895 591.729 L64.0042 591.729 L64.0042 598.19 L21.895 598.19 L21.895 615.059 L16.4842 615.059 Z" fill="#000000" fill-rule="nonzero" fill-opacity="1" /><path clip-path="url(#clip120)" d="M32.4621 566.171 Q32.4621 570.881 36.1542 573.619 Q39.8145 576.356 46.212 576.356 Q52.6095 576.356 56.3017 573.65 Q59.9619 570.913 59.9619 566.171 Q59.9619 561.492 56.2698 558.755 Q52.5777 556.017 46.212 556.017 Q39.8781 556.017 36.186 558.755 Q32.4621 561.492 32.4621 566.171 M27.4968 566.171 Q27.4968 558.532 32.4621 554.171 Q37.4273 549.811 46.212 549.811 Q54.9649 549.811 59.9619 554.171 Q64.9272 558.532 64.9272 566.171 Q64.9272 573.841 59.9619 578.202 Q54.9649 582.53 46.212 582.53 Q37.4273 582.53 32.4621 578.202 Q27.4968 573.841 27.4968 566.171 Z" fill="#000000" fill-rule="nonzero" fill-opacity="1" /><path clip-path="url(#clip120)" d="M33.8307 519.446 Q33.2578 520.433 33.0032 521.611 Q32.7167 522.757 32.7167 524.157 Q32.7167 529.122 35.9632 531.796 Q39.1779 534.438 45.2253 534.438 L64.0042 534.438 L64.0042 540.326 L28.3562 540.326 L28.3562 534.438 L33.8944 534.438 Q30.6479 532.592 29.0883 529.631 Q27.4968 526.671 27.4968 522.438 Q27.4968 521.833 27.5923 521.101 Q27.656 520.369 27.8151 519.478 L33.8307 519.446 Z" fill="#000000" fill-rule="nonzero" fill-opacity="1" /><path clip-path="url(#clip120)" d="M33.8307 493.793 Q33.2578 494.779 33.0032 495.957 Q32.7167 497.103 32.7167 498.503 Q32.7167 503.468 35.9632 506.142 Q39.1779 508.784 45.2253 508.784 L64.0042 508.784 L64.0042 514.672 L28.3562 514.672 L28.3562 508.784 L33.8944 508.784 Q30.6479 506.938 29.0883 503.978 Q27.4968 501.018 27.4968 496.784 Q27.4968 496.18 27.5923 495.448 Q27.656 494.716 27.8151 493.824 L33.8307 493.793 Z" fill="#000000" fill-rule="nonzero" fill-opacity="1" /><path clip-path="url(#clip120)" d="M14.5426 488.573 L14.5426 483.48 Q22.0542 478.706 29.2474 476.351 Q36.4406 473.963 43.5384 473.963 Q50.668 473.963 57.8931 476.351 Q65.1182 478.706 72.5979 483.48 L72.5979 488.573 Q65.3091 484.339 58.1159 482.271 Q50.8908 480.17 43.5384 480.17 Q36.186 480.17 29.0246 482.271 Q21.8632 484.339 14.5426 488.573 Z" fill="#000000" fill-rule="nonzero" fill-opacity="1" /><polyline clip-path="url(#clip122)" style="stroke:#009af9; stroke-linecap:round; stroke-linejoin:round; stroke-width:4; stroke-opacity:1; fill:none" points="292.4,278.49 293.978,390.667 295.557,198.363 297.135,246.439 298.714,278.49 300.292,310.54 301.87,326.566 303.449,326.566 305.027,326.566 306.606,326.566 308.184,326.566 309.763,326.566 311.341,310.54 312.92,310.54 314.498,294.515 316.077,294.515 317.655,294.515 319.233,278.49 320.812,262.464 322.39,246.439 323.969,246.439 325.547,214.388 327.126,198.363 328.704,198.363 330.283,166.312 331.861,150.287 333.439,134.262 335.018,134.262 336.596,118.236 338.175,102.211 339.753,118.236 341.332,118.236 342.91,118.236 344.489,118.236 346.067,134.262 347.646,118.236 349.224,134.262 350.802,118.236 352.381,118.236 353.959,134.262 355.564,118.236 357.116,134.262 358.695,118.236 360.299,134.262 361.852,118.236 363.456,118.236 365.009,118.236 366.587,118.236 368.192,118.236 369.744,134.262 371.349,134.262 372.927,118.236 374.479,134.262 376.084,134.262 377.662,118.236 379.241,118.236 380.819,134.262 382.398,134.262 383.976,134.262 385.555,134.262 387.133,118.236 388.712,118.236 390.29,118.236 391.868,118.236 393.447,134.262 395.025,134.262 396.604,118.236 398.182,134.262 399.761,118.236 401.339,118.236 402.918,134.262 404.496,134.262 406.075,118.236 407.653,134.262 409.231,134.262 410.81,134.262 412.388,134.262 413.967,134.262 415.545,118.236 417.124,118.236 418.702,134.262 420.281,134.262 421.859,134.262 423.438,134.262 425.016,134.262 426.594,134.262 428.173,118.236 429.751,118.236 431.33,118.236 432.908,134.262 434.487,118.236 436.065,134.262 437.644,134.262 439.222,150.287 440.801,150.287 442.379,134.262 443.957,134.262 445.536,134.262 447.114,118.236 448.693,134.262 450.271,134.262 451.85,118.236 453.428,134.262 455.007,118.236 456.585,134.262 458.163,134.262 459.742,134.262 461.32,118.236 462.899,134.262 464.477,134.262 466.056,134.262 467.634,134.262 469.213,134.262 470.791,134.262 472.37,134.262 473.948,134.262 475.526,150.287 477.105,118.236 478.71,150.287 480.262,134.262 481.867,134.262 483.419,134.262 484.997,118.236 486.602,118.236 488.154,118.236 489.759,118.236 491.337,134.262 492.889,118.236 494.494,134.262 496.073,134.262 497.651,134.262 499.23,118.236 500.808,118.236 502.386,134.262 503.965,134.262 505.543,118.236 507.122,134.262 508.7,118.236 510.279,134.262 511.857,134.262 513.436,150.287 515.014,134.262 516.593,134.262 518.171,134.262 519.749,134.262 521.328,118.236 522.906,134.262 524.485,134.262 526.063,134.262 527.642,134.262 529.22,134.262 530.799,118.236 532.377,134.262 533.955,134.262 535.534,150.287 537.112,134.262 538.691,134.262 540.269,134.262 541.848,134.262 543.426,134.262 545.005,134.262 546.583,134.262 548.162,134.262 549.74,134.262 551.318,118.236 552.897,118.236 554.475,134.262 556.054,134.262 557.632,134.262 559.211,150.287 560.789,118.236 562.368,134.262 563.946,134.262 565.525,134.262 567.103,150.287 568.681,150.287 570.26,134.262 571.838,134.262 573.417,118.236 574.995,118.236 576.574,134.262 578.152,134.262 579.731,134.262 581.309,134.262 582.887,134.262 584.466,118.236 586.044,118.236 587.623,118.236 589.201,118.236 590.78,134.262 592.358,118.236 593.963,118.236 595.515,102.211 597.094,118.236 598.698,134.262 600.25,134.262 601.855,134.262 603.434,134.262 605.012,134.262 606.591,134.262 608.169,134.262 609.747,118.236 611.326,134.262 612.904,134.262 614.483,134.262 616.061,134.262 617.64,134.262 619.218,134.262 620.797,118.236 622.375,134.262 623.954,134.262 625.532,134.262 627.11,134.262 628.689,134.262 630.267,134.262 631.846,150.287 633.424,134.262 635.003,134.262 636.581,118.236 638.16,134.262 639.738,118.236 641.317,134.262 642.895,150.287 644.473,118.236 646.052,134.262 647.63,118.236 649.209,118.236 650.787,118.236 652.366,118.236 653.944,134.262 655.523,118.236 657.101,134.262 658.679,134.262 660.258,134.262 661.836,134.262 663.415,134.262 664.993,118.236 666.572,118.236 668.15,134.262 669.729,134.262 671.307,134.262 672.886,134.262 674.464,134.262 676.042,118.236 677.621,134.262 679.199,134.262 680.778,134.262 682.356,150.287 683.935,134.262 685.513,134.262 687.092,118.236 688.67,134.262 690.249,134.262 691.827,134.262 693.405,134.262 694.984,134.262 696.562,118.236 698.141,150.287 699.719,150.287 701.298,134.262 702.876,134.262 704.455,118.236 706.033,134.262 707.638,134.262 709.19,134.262 710.768,118.236 712.373,134.262 713.925,118.236 715.53,134.262 717.082,134.262 718.687,134.262 720.265,134.262 721.844,134.262 723.422,134.262 724.974,134.262 726.579,134.262 728.158,150.287 729.736,150.287 731.315,134.262 732.893,134.262 734.471,134.262 736.05,134.262 737.628,134.262 739.207,134.262 740.785,134.262 742.364,134.262 743.942,134.262 745.521,134.262 747.099,134.262 748.678,134.262 750.256,134.262 751.834,150.287 753.413,134.262 754.991,134.262 756.57,134.262 758.148,134.262 759.727,134.262 761.305,134.262 762.884,134.262 764.462,134.262 766.041,150.287 767.619,134.262 769.197,150.287 770.776,134.262 772.354,118.236 773.933,118.236 775.511,118.236 777.09,134.262 778.668,134.262 780.247,134.262 781.825,150.287 783.403,134.262 784.982,150.287 786.56,134.262 788.139,134.262 789.717,150.287 791.296,118.236 792.874,118.236 794.453,150.287 796.031,134.262 797.61,134.262 799.188,134.262 800.766,134.262 802.345,134.262 803.923,118.236 805.502,134.262 807.08,134.262 808.659,134.262 810.237,134.262 811.816,134.262 813.394,134.262 814.973,134.262 816.551,134.262 818.129,118.236 819.708,134.262 821.313,134.262 822.865,134.262 824.443,118.236 826.022,134.262 827.6,134.262 829.205,134.262 830.757,134.262 832.336,134.262 833.94,134.262 835.492,118.236 837.097,134.262 838.649,134.262 840.254,118.236 841.833,134.262 843.385,134.262 844.989,134.262 846.568,134.262 848.146,134.262 849.725,134.262 851.303,134.262 852.882,134.262 854.46,134.262 856.039,134.262 857.617,118.236 859.195,134.262 860.774,118.236 862.352,134.262 863.931,134.262 865.509,134.262 867.088,134.262 868.666,134.262 870.245,134.262 871.823,134.262 873.402,134.262 874.98,134.262 876.558,134.262 878.137,134.262 879.715,134.262 881.294,134.262 882.872,134.262 884.451,134.262 886.029,134.262 887.608,134.262 889.186,134.262 890.765,134.262 892.343,134.262 893.921,118.236 895.5,134.262 897.078,134.262 898.657,118.236 900.235,134.262 901.814,134.262 903.392,134.262 904.971,134.262 906.549,150.287 908.128,134.262 909.706,134.262 911.284,134.262 912.863,134.262 914.441,134.262 916.02,118.236 917.598,134.262 919.177,134.262 920.755,134.262 922.334,134.262 923.912,134.262 925.49,118.236 927.069,134.262 928.647,134.262 930.226,150.287 931.804,134.262 933.383,134.262 934.961,134.262 936.566,134.262 938.118,134.262 939.697,118.236 941.275,134.262 942.853,134.262 944.458,134.262 946.01,134.262 947.615,118.236 949.194,134.262 950.746,134.262 952.35,150.287 953.929,134.262 955.507,134.262 957.086,134.262 958.638,134.262 960.243,134.262 961.821,134.262 963.4,134.262 964.978,134.262 966.557,134.262 968.135,134.262 969.713,134.262 971.292,118.236 972.87,134.262 974.449,118.236 976.027,134.262 977.606,134.262 979.184,134.262 980.763,150.287 982.341,134.262 983.92,150.287 985.498,134.262 987.076,150.287 988.655,150.287 990.233,134.262 991.812,150.287 993.39,150.287 994.969,118.236 996.547,134.262 998.126,134.262 999.704,134.262 1001.28,150.287 1002.86,134.262 1004.44,150.287 1006.02,118.236 1007.6,134.262 1009.17,134.262 1010.75,134.262 1012.33,134.262 1013.91,134.262 1015.49,134.262 1017.07,150.287 1018.65,134.262 1020.22,134.262 1021.8,134.262 1023.38,134.262 1024.96,134.262 1026.54,118.236 1028.12,150.287 1029.69,134.262 1031.27,134.262 1032.85,118.236 1034.43,134.262 1036.01,150.287 1037.59,150.287 1039.17,134.262 1040.74,118.236 1042.32,150.287 1043.9,134.262 1045.48,134.262 1047.06,134.262 1048.64,134.262 1050.21,134.262 1051.82,118.236 1053.37,134.262 1054.98,134.262 1056.53,134.262 1058.11,134.262 1059.69,134.262 1061.26,150.287 1062.87,150.287 1064.42,134.262 1066.03,118.236 1067.6,134.262 1069.16,134.262 1070.76,134.262 1072.34,134.262 1073.92,118.236 1075.5,134.262 1077.07,150.287 1078.65,118.236 1080.23,134.262 1081.81,134.262 1083.39,134.262 1084.97,134.262 1086.55,134.262 1088.12,134.262 1089.7,134.262 1091.28,134.262 1092.86,134.262 1094.44,150.287 1096.02,134.262 1097.59,134.262 1099.17,134.262 1100.75,150.287 1102.33,134.262 1103.91,150.287 1105.49,134.262 1107.07,134.262 1108.64,134.262 1110.22,150.287 1111.8,134.262 1113.38,134.262 1114.96,134.262 1116.54,134.262 1118.11,118.236 1119.69,134.262 1121.27,134.262 1122.85,166.312 1124.43,134.262 1126.01,134.262 1127.58,134.262 1129.16,134.262 1130.74,118.236 1132.32,118.236 1133.9,134.262 1135.48,134.262 1137.06,134.262 1138.63,134.262 1140.21,118.236 1141.79,134.262 1143.37,118.236 1144.95,134.262 1146.53,134.262 1148.1,150.287 1149.68,134.262 1151.26,134.262 1152.84,118.236 1154.42,134.262 1156,134.262 1157.58,134.262 1159.15,134.262 1160.73,134.262 1162.31,150.287 1163.89,134.262 1165.47,150.287 1167.05,150.287 1168.62,134.262 1170.2,150.287 1171.81,134.262 1173.36,134.262 1174.94,134.262 1176.54,118.236 1178.1,134.262 1179.7,134.262 1181.28,134.262 1182.83,134.262 1184.44,134.262 1185.99,150.287 1187.59,134.262 1189.17,150.287 1190.75,134.262 1192.33,134.262 1193.91,134.262 1195.48,118.236 1197.06,134.262 1198.64,134.262 1200.22,134.262 1201.8,134.262 1203.38,134.262 1204.96,118.236 1206.53,150.287 1208.11,134.262 1209.69,134.262 1211.27,150.287 1212.85,134.262 1214.43,134.262 1216,134.262 1217.58,134.262 1219.16,134.262 1220.74,150.287 1222.32,134.262 1223.9,134.262 1225.48,134.262 1227.05,134.262 1228.63,134.262 1230.21,150.287 1231.79,118.236 1233.37,118.236 1234.95,134.262 1236.52,134.262 1238.1,134.262 1239.68,134.262 1241.26,134.262 1242.84,134.262 1244.42,134.262 1246,150.287 1247.57,150.287 1249.15,134.262 1250.73,134.262 1252.31,134.262 1253.89,134.262 1255.47,150.287 1257.04,134.262 1258.62,134.262 1260.2,134.262 1261.78,134.262 1263.36,118.236 1264.94,134.262 1266.52,134.262 1268.09,150.287 1269.67,134.262 1271.25,134.262 1272.83,134.262 1274.41,134.262 1275.99,134.262 1277.56,150.287 1279.14,150.287 1280.72,134.262 1282.3,134.262 1283.88,150.287 1285.48,118.236 1287.03,134.262 1288.61,134.262 1290.22,134.262 1291.77,118.236 1293.35,134.262 1294.95,134.262 1296.51,150.287 1298.11,150.287 1299.66,150.287 1301.27,134.262 1302.85,134.262 1304.4,134.262 1306,118.236 1307.58,134.262 1309.16,134.262 1310.74,150.287 1312.32,118.236 1313.89,134.262 1315.47,118.236 1317.05,134.262 1318.63,134.262 1320.21,134.262 1321.79,134.262 1323.37,134.262 1324.94,134.262 1326.52,134.262 1328.1,134.262 1329.68,118.236 1331.26,134.262 1332.84,134.262 1334.41,134.262 1335.99,150.287 1337.57,134.262 1339.15,134.262 1340.73,134.262 1342.31,134.262 1343.89,134.262 1345.46,134.262 1347.04,86.1857 1348.62,118.236 1350.2,134.262 1351.78,134.262 1353.36,134.262 1354.93,134.262 1356.51,134.262 1358.09,134.262 1359.67,134.262 1361.25,150.287 1362.83,134.262 1364.41,134.262 1365.98,118.236 1367.56,134.262 1369.14,134.262 1370.72,150.287 1372.3,118.236 1373.88,134.262 1375.45,150.287 1377.03,150.287 1378.61,118.236 1380.19,134.262 1381.77,134.262 1383.35,134.262 1384.93,134.262 1386.5,134.262 1388.08,134.262 1389.66,134.262 1391.24,150.287 1392.82,134.262 1394.4,134.262 1395.97,150.287 1397.55,150.287 1399.16,150.287 1400.71,150.287 1402.29,134.262 1403.87,134.262 1405.45,134.262 1407.05,134.262 1408.6,166.312 1410.18,134.262 1411.79,134.262 1413.34,134.262 1414.94,134.262 1416.52,134.262 1418.07,134.262 1419.68,134.262 1421.26,134.262 1422.83,134.262 1424.41,134.262 1425.99,134.262 1427.57,150.287 1429.15,134.262 1430.73,118.236 1432.31,134.262 1433.88,134.262 1435.46,134.262 1437.04,134.262 1438.62,134.262 1440.2,134.262 1441.78,134.262 1443.35,134.262 1444.93,134.262 1446.51,150.287 1448.09,150.287 1449.67,118.236 1451.25,118.236 1452.82,134.262 1454.4,134.262 1455.98,134.262 1457.56,150.287 1459.14,150.287 1460.72,134.262 1462.3,150.287 1463.87,134.262 1465.45,118.236 1467.03,134.262 1468.61,150.287 1470.19,150.287 1471.77,134.262 1473.34,150.287 1474.92,150.287 1476.5,134.262 1478.08,134.262 1479.66,134.262 1481.24,134.262 1482.82,134.262 1484.39,134.262 1485.97,150.287 1487.55,150.287 1489.13,118.236 1490.71,134.262 1492.29,134.262 1493.86,134.262 1495.44,134.262 1497.02,134.262 1498.6,118.236 1500.18,134.262 1501.76,134.262 1503.34,134.262 1504.91,134.262 1506.49,134.262 1508.07,150.287 1509.65,150.287 1511.23,134.262 1512.81,118.236 1514.38,150.287 1515.96,150.287 1517.54,150.287 1519.12,134.262 1520.72,134.262 1522.28,118.236 1523.86,134.262 1525.46,134.262 1527.01,150.287 1528.62,150.287 1530.17,134.262 1531.75,118.236 1533.35,150.287 1534.9,134.262 1536.51,134.262 1538.09,134.262 1539.67,134.262 1541.24,150.287 1542.82,134.262 1544.4,134.262 1545.98,118.236 1547.56,134.262 1549.14,134.262 1550.72,134.262 1552.29,118.236 1553.87,134.262 1555.45,150.287 1557.03,134.262 1558.61,134.262 1560.19,134.262 1561.76,150.287 1563.34,134.262 1564.92,134.262 1566.5,150.287 1568.08,134.262 1569.66,134.262 1571.24,150.287 1572.81,150.287 1574.39,150.287 1575.97,134.262 1577.55,134.262 1579.13,150.287 1580.71,150.287 1582.28,134.262 1583.86,150.287 1585.44,134.262 1587.02,150.287 1588.6,150.287 1590.18,150.287 1591.76,134.262 1593.33,118.236 1594.91,134.262 1596.49,134.262 1598.07,134.262 1599.65,134.262 1601.23,150.287 1602.8,134.262 1604.38,134.262 1605.96,134.262 1607.54,134.262 1609.12,134.262 1610.7,150.287 1612.27,150.287 1613.85,134.262 1615.43,134.262 1617.01,134.262 1618.59,134.262 1620.17,134.262 1621.75,134.262 1623.32,150.287 1624.9,150.287 1626.48,134.262 1628.06,134.262 1629.64,150.287 1631.22,134.262 1632.79,134.262 1634.37,134.262 1635.95,134.262 1637.56,150.287 1639.11,150.287 1640.69,150.287 1642.29,118.236 1643.84,134.262 1645.42,150.287 1647.03,134.262 1648.58,134.262 1650.18,134.262 1651.76,150.287 1653.34,134.262 1654.92,134.262 1656.5,134.262 1658.08,134.262 1659.65,134.262 1661.23,134.262 1662.81,134.262 1664.39,134.262 1665.97,134.262 1667.55,118.236 1669.13,134.262 1670.7,134.262 1672.28,166.312 1673.86,150.287 1675.44,118.236 1677.02,118.236 1678.6,134.262 1680.17,134.262 1681.75,134.262 1683.33,134.262 1684.91,134.262 1686.49,150.287 1688.07,134.262 1689.65,134.262 1691.22,134.262 1692.8,134.262 1694.38,150.287 1695.96,150.287 1697.54,134.262 1699.12,134.262 1700.69,134.262 1702.27,134.262 1703.85,134.262 1705.43,134.262 1707.01,150.287 1708.59,150.287 1710.17,150.287 1711.74,134.262 1713.32,134.262 1714.9,118.236 1716.48,134.262 1718.06,134.262 1719.64,150.287 1721.21,150.287 1722.79,134.262 1724.37,150.287 1725.95,150.287 1727.53,134.262 1729.11,150.287 1730.69,134.262 1732.26,150.287 1733.84,134.262 1735.42,134.262 1737,150.287 1738.58,134.262 1740.16,134.262 1741.73,150.287 1743.31,134.262 1744.89,134.262 1746.47,134.262 1748.05,134.262 1749.63,150.287 1751.23,134.262 1752.78,134.262 1754.36,134.262 1755.97,134.262 1757.52,150.287 1759.1,150.287 1760.7,150.287 1762.28,150.287 1763.83,150.287 1765.44,134.262 1767.02,150.287 1768.59,134.262 1770.17,134.262 1771.75,150.287 1773.33,150.287 1774.88,134.262 1776.49,118.236 1778.06,134.262 1779.64,134.262 1781.22,134.262 1782.8,134.262 1784.38,134.262 1785.96,150.287 1787.54,150.287 1789.11,150.287 1790.69,150.287 1792.27,150.287 1793.85,134.262 1795.43,150.287 1797.01,134.262 1798.58,134.262 1800.16,134.262 1801.74,134.262 1803.32,134.262 1804.9,134.262 1806.48,134.262 1808.06,134.262 1809.63,134.262 1811.21,134.262 1812.79,134.262 1814.37,150.287 1815.95,134.262 1817.53,134.262 1819.1,134.262 1820.68,150.287 1822.26,150.287 1823.84,150.287 1825.42,134.262 1827,150.287 1828.58,150.287 1830.15,150.287 1831.73,134.262 1833.31,150.287 1834.89,134.262 1836.47,166.312 1838.05,134.262 1839.62,150.287 1841.2,134.262 1842.78,150.287 1844.36,134.262 1845.94,118.236 1847.52,150.287 1849.1,150.287 1850.67,150.287 1852.25,150.287 1853.83,150.287 1855.41,150.287 1856.99,150.287 1858.57,150.287 1860.14,150.287 1861.72,134.262 1863.3,150.287 1864.91,150.287 1866.46,134.262 1868.04,150.287 1869.64,150.287 1871.19,150.287 1872.77,150.287 1874.38,134.262 1875.93,134.262 1877.51,150.287 1879.11,150.287 1880.69,150.287 1882.24,134.262 1883.85,150.287 1885.43,150.287 1886.98,134.262 1888.58,150.287 1890.16,166.312 1891.74,134.262 1893.32,150.287 1894.9,150.287 1896.48,150.287 1898.05,150.287 1899.63,150.287 1901.21,150.287 1902.79,150.287 1904.37,150.287 1905.95,134.262 1907.52,166.312 1909.1,150.287 1910.68,150.287 1912.26,150.287 1913.84,150.287 1915.42,134.262 1917,150.287 1918.57,150.287 1920.15,150.287 1921.73,150.287 1923.31,166.312 1924.89,150.287 1926.47,166.312 1928.04,150.287 1929.62,150.287 1931.2,150.287 1932.78,150.287 1934.36,166.312 1935.94,150.287 1937.51,150.287 1939.09,166.312 1940.67,166.312 1942.25,166.312 1943.83,166.312 1945.41,150.287 1946.99,150.287 1948.56,166.312 1950.14,150.287 1951.72,150.287 1953.3,166.312 1954.88,166.312 1956.46,150.287 1958.03,166.312 1959.61,166.312 1961.19,166.312 1962.77,166.312 1964.35,166.312 1965.93,182.338 1967.51,166.312 1969.08,182.338 1970.66,182.338 1972.24,166.312 1973.82,166.312 1975.4,166.312 1976.98,166.312 1978.55,166.312 1980.13,182.338 1981.71,182.338 1983.29,182.338 1984.87,182.338 1986.45,166.312 1988.03,182.338 1989.63,182.338 1991.18,182.338 1992.76,182.338 1994.37,182.338 1995.92,182.338 1997.5,182.338 1999.1,182.338 2000.65,198.363 2002.26,182.338 2003.84,198.363 2005.41,198.363 2006.99,198.363 2008.57,198.363 2010.15,182.338 2011.73,198.363 2013.31,198.363 2014.89,198.363 2016.46,182.338 2018.04,214.388 2019.62,198.363 2021.2,214.388 2022.78,198.363 2024.36,198.363 2025.93,198.363 2027.51,214.388 2029.09,246.439 2030.67,214.388 2032.25,198.363 2033.83,230.414 2035.41,214.388 2036.98,214.388 2038.56,214.388 2040.14,230.414 2041.72,230.414 2043.3,214.388 2044.88,214.388 2046.45,214.388 2048.03,230.414 2049.61,214.388 2051.19,230.414 2052.77,230.414 2054.35,230.414 2055.93,246.439 2057.5,246.439 2059.08,246.439 2060.66,246.439 2062.24,246.439 2063.82,262.464 2065.4,262.464 2066.97,262.464 2068.55,262.464 2070.13,262.464 2071.71,246.439 2073.29,278.49 2074.87,278.49 2076.45,278.49 2078.02,278.49 2079.6,278.49 2081.18,278.49 2082.76,294.515 2084.34,294.515 2085.92,294.515 2087.49,310.54 2089.07,310.54 2090.65,326.566 2092.23,294.515 2093.81,310.54 2095.39,326.566 2096.96,342.591 2098.54,342.591 2100.15,342.591 2101.7,358.616 2103.28,358.616 2104.86,374.642 2106.46,374.642 2108.01,390.667 2109.59,406.692 2111.2,406.692 2112.78,422.718 2114.33,438.743 2115.91,454.769 2117.51,454.769 2119.09,470.794 2120.64,470.794 2122.25,486.819 2123.82,502.845 2125.4,502.845 2126.98,518.87 2128.56,534.895 2130.14,534.895 2131.72,534.895 2133.3,550.921 2134.87,566.946 2136.45,582.971 2138.03,582.971 2139.61,598.997 2141.19,598.997 2142.77,598.997 2144.34,615.022 2145.92,615.022 2147.5,615.022 2149.08,631.047 2150.66,631.047 2152.24,647.073 2153.82,647.073 2155.39,647.073 2156.97,663.098 2158.55,663.098 2160.13,679.123 2161.71,695.149 2163.29,695.149 2164.86,695.149 2166.44,711.174 2168.02,727.199 2169.6,727.199 2171.18,743.225 2172.76,759.25 2174.34,759.25 2175.91,759.25 2177.49,775.275 2179.07,775.275 2180.65,791.301 2182.23,823.351 2183.81,839.377 2185.38,839.377 2186.96,839.377 2188.54,839.377 2190.12,839.377 2191.7,855.402 2193.28,855.402 2194.86,871.427 2196.43,871.427 2198.01,887.453 2199.59,887.453 2201.17,887.453 2202.75,903.478 2204.33,903.478 2205.9,903.478 2207.48,903.478 2209.06,935.529 2210.64,935.529 2212.22,935.529 2213.8,935.529 2215.38,951.554 2216.95,951.554 2218.53,951.554 2220.14,967.579 2221.69,983.605 2223.27,983.605 2224.85,999.63 2226.45,999.63 2228.03,1015.66 2229.58,1015.66 2231.19,1031.68 2232.76,1031.68 2234.34,1047.71 2235.89,1047.71 2237.5,1047.71 2239.08,1047.71 2240.66,1047.71 2242.24,1047.71 2243.81,1063.73 2245.39,1063.73 2246.97,1063.73 2248.55,1079.76 2250.13,1063.73 2251.71,1079.76 2253.28,1079.76 2254.86,1079.76 2256.44,1079.76 2258.02,1079.76 2259.6,1095.78 2261.18,1095.78 2262.75,1095.78 2264.33,1095.78 2265.91,1095.78 2267.49,1095.78 2269.07,1111.81 2270.65,1111.81 2272.23,1095.78 2273.8,1111.81 2275.38,1111.81 2276.96,1127.83 2278.54,1127.83 2280.12,1127.83 2281.7,1143.86 2283.27,1143.86 2284.85,1159.88 2286.43,1175.91 2288.01,1175.91 2289.59,1175.91 2291.17,1175.91 2292.75,1175.91 "/>
<path clip-path="url(#clip122)" d="M292.4 262.49 L276.4 294.49 L308.4 294.49 L292.4 262.49 Z" fill="#009af9" fill-rule="evenodd" fill-opacity="1" stroke="#000000" stroke-opacity="1" stroke-width="3.2"/>
<path clip-path="url(#clip122)" d="M491.337 118.262 L475.337 150.262 L507.337 150.262 L491.337 118.262 Z" fill="#009af9" fill-rule="evenodd" fill-opacity="1" stroke="#000000" stroke-opacity="1" stroke-width="3.2"/>
<path clip-path="url(#clip122)" d="M690.249 118.262 L674.249 150.262 L706.249 150.262 L690.249 118.262 Z" fill="#009af9" fill-rule="evenodd" fill-opacity="1" stroke="#000000" stroke-opacity="1" stroke-width="3.2"/>
<path clip-path="url(#clip122)" d="M889.186 118.262 L873.186 150.262 L905.186 150.262 L889.186 118.262 Z" fill="#009af9" fill-rule="evenodd" fill-opacity="1" stroke="#000000" stroke-opacity="1" stroke-width="3.2"/>
<path clip-path="url(#clip122)" d="M1088.12 118.262 L1072.12 150.262 L1104.12 150.262 L1088.12 118.262 Z" fill="#009af9" fill-rule="evenodd" fill-opacity="1" stroke="#000000" stroke-opacity="1" stroke-width="3.2"/>
<path clip-path="url(#clip122)" d="M1287.03 118.262 L1271.03 150.262 L1303.03 150.262 L1287.03 118.262 Z" fill="#009af9" fill-rule="evenodd" fill-opacity="1" stroke="#000000" stroke-opacity="1" stroke-width="3.2"/>
<path clip-path="url(#clip122)" d="M1485.97 134.287 L1469.97 166.287 L1501.97 166.287 L1485.97 134.287 Z" fill="#009af9" fill-rule="evenodd" fill-opacity="1" stroke="#000000" stroke-opacity="1" stroke-width="3.2"/>
<path clip-path="url(#clip122)" d="M1684.91 118.262 L1668.91 150.262 L1700.91 150.262 L1684.91 118.262 Z" fill="#009af9" fill-rule="evenodd" fill-opacity="1" stroke="#000000" stroke-opacity="1" stroke-width="3.2"/>
<path clip-path="url(#clip122)" d="M1883.85 134.287 L1867.85 166.287 L1899.85 166.287 L1883.85 134.287 Z" fill="#009af9" fill-rule="evenodd" fill-opacity="1" stroke="#000000" stroke-opacity="1" stroke-width="3.2"/>
<path clip-path="url(#clip122)" d="M2082.76 278.515 L2066.76 310.515 L2098.76 310.515 L2082.76 278.515 Z" fill="#009af9" fill-rule="evenodd" fill-opacity="1" stroke="#000000" stroke-opacity="1" stroke-width="3.2"/>
<path clip-path="url(#clip122)" d="M2281.7 1127.86 L2265.7 1159.86 L2297.7 1159.86 L2281.7 1127.86 Z" fill="#009af9" fill-rule="evenodd" fill-opacity="1" stroke="#000000" stroke-opacity="1" stroke-width="3.2"/>
<polyline clip-path="url(#clip122)" style="stroke:#e26f46; stroke-linecap:round; stroke-linejoin:round; stroke-width:4; stroke-opacity:1; fill:none" points="292.4,1320.14 293.978,1384.24 295.557,1240.01 297.135,1240.01 298.714,1240.01 300.292,1240.01 301.87,1240.01 303.449,1240.01 305.027,1240.01 306.606,1240.01 308.184,1240.01 309.763,1240.01 311.341,1240.01 312.92,1240.01 314.498,1240.01 316.077,1240.01 317.655,1256.04 319.233,1240.01 320.812,1240.01 322.39,1240.01 323.969,1256.04 325.547,1240.01 327.126,1240.01 328.704,1240.01 330.283,1240.01 331.861,1240.01 333.439,1240.01 335.018,1240.01 336.596,1240.01 338.175,1223.98 339.753,1240.01 341.332,1240.01 342.91,1240.01 344.489,1240.01 346.067,1240.01 347.646,1240.01 349.224,1240.01 350.802,1240.01 352.381,1240.01 353.959,1240.01 355.564,1240.01 357.116,1240.01 358.695,1240.01 360.299,1240.01 361.852,1240.01 363.456,1240.01 365.009,1223.98 366.587,1240.01 368.192,1240.01 369.744,1240.01 371.349,1240.01 372.927,1240.01 374.479,1240.01 376.084,1240.01 377.662,1240.01 379.241,1240.01 380.819,1240.01 382.398,1240.01 383.976,1240.01 385.555,1240.01 387.133,1240.01 388.712,1240.01 390.29,1240.01 391.868,1223.98 393.447,1240.01 395.025,1240.01 396.604,1240.01 398.182,1240.01 399.761,1240.01 401.339,1223.98 402.918,1240.01 404.496,1240.01 406.075,1240.01 407.653,1240.01 409.231,1240.01 410.81,1240.01 412.388,1240.01 413.967,1240.01 415.545,1240.01 417.124,1240.01 418.702,1240.01 420.281,1240.01 421.859,1240.01 423.438,1240.01 425.016,1240.01 426.594,1240.01 428.173,1240.01 429.751,1240.01 431.33,1240.01 432.908,1240.01 434.487,1240.01 436.065,1240.01 437.644,1240.01 439.222,1256.04 440.801,1256.04 442.379,1240.01 443.957,1240.01 445.536,1240.01 447.114,1240.01 448.693,1240.01 450.271,1240.01 451.85,1240.01 453.428,1240.01 455.007,1240.01 456.585,1240.01 458.163,1240.01 459.742,1240.01 461.32,1240.01 462.899,1240.01 464.477,1240.01 466.056,1240.01 467.634,1240.01 469.213,1240.01 470.791,1240.01 472.37,1240.01 473.948,1256.04 475.526,1240.01 477.105,1240.01 478.71,1256.04 480.262,1240.01 481.867,1240.01 483.419,1240.01 484.997,1240.01 486.602,1240.01 488.154,1240.01 489.759,1240.01 491.337,1240.01 492.889,1240.01 494.494,1240.01 496.073,1240.01 497.651,1240.01 499.23,1240.01 500.808,1240.01 502.386,1240.01 503.965,1240.01 505.543,1240.01 507.122,1240.01 508.7,1240.01 510.279,1240.01 511.857,1240.01 513.436,1256.04 515.014,1240.01 516.593,1240.01 518.171,1240.01 519.749,1240.01 521.328,1240.01 522.906,1240.01 524.485,1240.01 526.063,1240.01 527.642,1240.01 529.22,1240.01 530.799,1240.01 532.377,1240.01 533.955,1240.01 535.534,1240.01 537.112,1240.01 538.691,1240.01 540.269,1240.01 541.848,1240.01 543.426,1240.01 545.005,1240.01 546.583,1240.01 548.162,1240.01 549.74,1240.01 551.318,1240.01 552.897,1240.01 554.475,1240.01 556.054,1240.01 557.632,1240.01 559.211,1256.04 560.789,1240.01 562.368,1240.01 563.946,1240.01 565.525,1240.01 567.103,1240.01 568.681,1256.04 570.26,1240.01 571.838,1240.01 573.417,1240.01 574.995,1240.01 576.574,1240.01 578.152,1240.01 579.731,1240.01 581.309,1240.01 582.887,1240.01 584.466,1223.98 586.044,1240.01 587.623,1240.01 589.201,1223.98 590.78,1240.01 592.358,1240.01 593.963,1240.01 595.515,1223.98 597.094,1240.01 598.698,1240.01 600.25,1240.01 601.855,1240.01 603.434,1240.01 605.012,1240.01 606.591,1240.01 608.169,1240.01 609.747,1240.01 611.326,1240.01 612.904,1240.01 614.483,1240.01 616.061,1240.01 617.64,1240.01 619.218,1240.01 620.797,1240.01 622.375,1240.01 623.954,1240.01 625.532,1240.01 627.11,1240.01 628.689,1240.01 630.267,1240.01 631.846,1240.01 633.424,1240.01 635.003,1240.01 636.581,1240.01 638.16,1240.01 639.738,1223.98 641.317,1240.01 642.895,1240.01 644.473,1240.01 646.052,1240.01 647.63,1240.01 649.209,1240.01 650.787,1240.01 652.366,1240.01 653.944,1240.01 655.523,1240.01 657.101,1240.01 658.679,1240.01 660.258,1240.01 661.836,1240.01 663.415,1240.01 664.993,1240.01 666.572,1240.01 668.15,1240.01 669.729,1240.01 671.307,1240.01 672.886,1240.01 674.464,1240.01 676.042,1240.01 677.621,1240.01 679.199,1240.01 680.778,1240.01 682.356,1256.04 683.935,1240.01 685.513,1240.01 687.092,1240.01 688.67,1240.01 690.249,1240.01 691.827,1240.01 693.405,1240.01 694.984,1240.01 696.562,1240.01 698.141,1240.01 699.719,1256.04 701.298,1240.01 702.876,1240.01 704.455,1223.98 706.033,1240.01 707.638,1240.01 709.19,1240.01 710.768,1240.01 712.373,1240.01 713.925,1240.01 715.53,1240.01 717.082,1240.01 718.687,1240.01 720.265,1240.01 721.844,1240.01 723.422,1240.01 724.974,1240.01 726.579,1240.01 728.158,1256.04 729.736,1240.01 731.315,1240.01 732.893,1240.01 734.471,1240.01 736.05,1240.01 737.628,1240.01 739.207,1240.01 740.785,1240.01 742.364,1240.01 743.942,1240.01 745.521,1240.01 747.099,1240.01 748.678,1240.01 750.256,1240.01 751.834,1240.01 753.413,1240.01 754.991,1240.01 756.57,1240.01 758.148,1240.01 759.727,1240.01 761.305,1240.01 762.884,1240.01 764.462,1240.01 766.041,1256.04 767.619,1240.01 769.197,1240.01 770.776,1240.01 772.354,1240.01 773.933,1223.98 775.511,1240.01 777.09,1240.01 778.668,1240.01 780.247,1240.01 781.825,1240.01 783.403,1240.01 784.982,1240.01 786.56,1240.01 788.139,1240.01 789.717,1256.04 791.296,1223.98 792.874,1240.01 794.453,1256.04 796.031,1240.01 797.61,1240.01 799.188,1240.01 800.766,1240.01 802.345,1240.01 803.923,1223.98 805.502,1240.01 807.08,1240.01 808.659,1240.01 810.237,1240.01 811.816,1240.01 813.394,1240.01 814.973,1240.01 816.551,1240.01 818.129,1240.01 819.708,1240.01 821.313,1240.01 822.865,1240.01 824.443,1223.98 826.022,1240.01 827.6,1240.01 829.205,1240.01 830.757,1240.01 832.336,1240.01 833.94,1240.01 835.492,1240.01 837.097,1240.01 838.649,1240.01 840.254,1240.01 841.833,1240.01 843.385,1240.01 844.989,1240.01 846.568,1240.01 848.146,1240.01 849.725,1240.01 851.303,1240.01 852.882,1240.01 854.46,1240.01 856.039,1240.01 857.617,1240.01 859.195,1240.01 860.774,1240.01 862.352,1240.01 863.931,1240.01 865.509,1240.01 867.088,1240.01 868.666,1240.01 870.245,1240.01 871.823,1240.01 873.402,1240.01 874.98,1240.01 876.558,1240.01 878.137,1240.01 879.715,1240.01 881.294,1240.01 882.872,1240.01 884.451,1240.01 886.029,1240.01 887.608,1240.01 889.186,1240.01 890.765,1240.01 892.343,1240.01 893.921,1240.01 895.5,1240.01 897.078,1240.01 898.657,1223.98 900.235,1240.01 901.814,1240.01 903.392,1240.01 904.971,1240.01 906.549,1240.01 908.128,1240.01 909.706,1240.01 911.284,1240.01 912.863,1240.01 914.441,1240.01 916.02,1240.01 917.598,1240.01 919.177,1240.01 920.755,1240.01 922.334,1240.01 923.912,1240.01 925.49,1240.01 927.069,1240.01 928.647,1240.01 930.226,1240.01 931.804,1240.01 933.383,1240.01 934.961,1240.01 936.566,1240.01 938.118,1240.01 939.697,1240.01 941.275,1240.01 942.853,1240.01 944.458,1240.01 946.01,1240.01 947.615,1240.01 949.194,1240.01 950.746,1240.01 952.35,1240.01 953.929,1240.01 955.507,1240.01 957.086,1240.01 958.638,1240.01 960.243,1240.01 961.821,1240.01 963.4,1240.01 964.978,1240.01 966.557,1240.01 968.135,1240.01 969.713,1240.01 971.292,1240.01 972.87,1240.01 974.449,1223.98 976.027,1240.01 977.606,1240.01 979.184,1240.01 980.763,1256.04 982.341,1240.01 983.92,1240.01 985.498,1240.01 987.076,1240.01 988.655,1240.01 990.233,1240.01 991.812,1240.01 993.39,1240.01 994.969,1240.01 996.547,1240.01 998.126,1240.01 999.704,1240.01 1001.28,1240.01 1002.86,1240.01 1004.44,1240.01 1006.02,1240.01 1007.6,1240.01 1009.17,1240.01 1010.75,1240.01 1012.33,1240.01 1013.91,1240.01 1015.49,1240.01 1017.07,1240.01 1018.65,1240.01 1020.22,1240.01 1021.8,1240.01 1023.38,1240.01 1024.96,1240.01 1026.54,1240.01 1028.12,1240.01 1029.69,1240.01 1031.27,1240.01 1032.85,1240.01 1034.43,1240.01 1036.01,1240.01 1037.59,1240.01 1039.17,1240.01 1040.74,1223.98 1042.32,1256.04 1043.9,1240.01 1045.48,1240.01 1047.06,1240.01 1048.64,1240.01 1050.21,1240.01 1051.82,1240.01 1053.37,1240.01 1054.98,1240.01 1056.53,1240.01 1058.11,1240.01 1059.69,1240.01 1061.26,1240.01 1062.87,1240.01 1064.42,1240.01 1066.03,1223.98 1067.6,1240.01 1069.16,1240.01 1070.76,1240.01 1072.34,1240.01 1073.92,1223.98 1075.5,1240.01 1077.07,1240.01 1078.65,1240.01 1080.23,1240.01 1081.81,1240.01 1083.39,1240.01 1084.97,1240.01 1086.55,1240.01 1088.12,1240.01 1089.7,1240.01 1091.28,1240.01 1092.86,1240.01 1094.44,1240.01 1096.02,1240.01 1097.59,1240.01 1099.17,1240.01 1100.75,1240.01 1102.33,1240.01 1103.91,1256.04 1105.49,1240.01 1107.07,1240.01 1108.64,1240.01 1110.22,1240.01 1111.8,1240.01 1113.38,1240.01 1114.96,1240.01 1116.54,1240.01 1118.11,1240.01 1119.69,1240.01 1121.27,1240.01 1122.85,1256.04 1124.43,1240.01 1126.01,1240.01 1127.58,1240.01 1129.16,1240.01 1130.74,1240.01 1132.32,1240.01 1133.9,1240.01 1135.48,1240.01 1137.06,1240.01 1138.63,1240.01 1140.21,1240.01 1141.79,1240.01 1143.37,1240.01 1144.95,1240.01 1146.53,1240.01 1148.1,1240.01 1149.68,1240.01 1151.26,1240.01 1152.84,1240.01 1154.42,1240.01 1156,1240.01 1157.58,1240.01 1159.15,1240.01 1160.73,1240.01 1162.31,1256.04 1163.89,1240.01 1165.47,1240.01 1167.05,1240.01 1168.62,1240.01 1170.2,1240.01 1171.81,1240.01 1173.36,1240.01 1174.94,1240.01 1176.54,1240.01 1178.1,1240.01 1179.7,1240.01 1181.28,1240.01 1182.83,1240.01 1184.44,1240.01 1185.99,1240.01 1187.59,1240.01 1189.17,1240.01 1190.75,1240.01 1192.33,1240.01 1193.91,1240.01 1195.48,1240.01 1197.06,1240.01 1198.64,1240.01 1200.22,1240.01 1201.8,1240.01 1203.38,1240.01 1204.96,1223.98 1206.53,1240.01 1208.11,1240.01 1209.69,1240.01 1211.27,1240.01 1212.85,1240.01 1214.43,1240.01 1216,1240.01 1217.58,1240.01 1219.16,1240.01 1220.74,1240.01 1222.32,1240.01 1223.9,1240.01 1225.48,1240.01 1227.05,1240.01 1228.63,1240.01 1230.21,1240.01 1231.79,1240.01 1233.37,1240.01 1234.95,1240.01 1236.52,1240.01 1238.1,1240.01 1239.68,1240.01 1241.26,1240.01 1242.84,1240.01 1244.42,1240.01 1246,1240.01 1247.57,1240.01 1249.15,1240.01 1250.73,1240.01 1252.31,1240.01 1253.89,1240.01 1255.47,1240.01 1257.04,1240.01 1258.62,1240.01 1260.2,1240.01 1261.78,1240.01 1263.36,1223.98 1264.94,1240.01 1266.52,1240.01 1268.09,1240.01 1269.67,1240.01 1271.25,1240.01 1272.83,1240.01 1274.41,1240.01 1275.99,1240.01 1277.56,1256.04 1279.14,1256.04 1280.72,1240.01 1282.3,1240.01 1283.88,1256.04 1285.48,1223.98 1287.03,1240.01 1288.61,1240.01 1290.22,1240.01 1291.77,1240.01 1293.35,1240.01 1294.95,1240.01 1296.51,1240.01 1298.11,1256.04 1299.66,1240.01 1301.27,1240.01 1302.85,1240.01 1304.4,1240.01 1306,1223.98 1307.58,1240.01 1309.16,1240.01 1310.74,1240.01 1312.32,1240.01 1313.89,1240.01 1315.47,1240.01 1317.05,1240.01 1318.63,1240.01 1320.21,1240.01 1321.79,1240.01 1323.37,1240.01 1324.94,1240.01 1326.52,1240.01 1328.1,1240.01 1329.68,1240.01 1331.26,1240.01 1332.84,1240.01 1334.41,1240.01 1335.99,1240.01 1337.57,1240.01 1339.15,1240.01 1340.73,1240.01 1342.31,1240.01 1343.89,1240.01 1345.46,1240.01 1347.04,1207.96 1348.62,1223.98 1350.2,1240.01 1351.78,1240.01 1353.36,1240.01 1354.93,1240.01 1356.51,1240.01 1358.09,1240.01 1359.67,1240.01 1361.25,1256.04 1362.83,1240.01 1364.41,1240.01 1365.98,1223.98 1367.56,1240.01 1369.14,1240.01 1370.72,1240.01 1372.3,1223.98 1373.88,1240.01 1375.45,1256.04 1377.03,1240.01 1378.61,1240.01 1380.19,1240.01 1381.77,1240.01 1383.35,1240.01 1384.93,1240.01 1386.5,1240.01 1388.08,1240.01 1389.66,1240.01 1391.24,1240.01 1392.82,1240.01 1394.4,1240.01 1395.97,1240.01 1397.55,1240.01 1399.16,1240.01 1400.71,1240.01 1402.29,1240.01 1403.87,1240.01 1405.45,1240.01 1407.05,1240.01 1408.6,1256.04 1410.18,1240.01 1411.79,1240.01 1413.34,1240.01 1414.94,1240.01 1416.52,1240.01 1418.07,1240.01 1419.68,1240.01 1421.26,1240.01 1422.83,1240.01 1424.41,1240.01 1425.99,1240.01 1427.57,1256.04 1429.15,1240.01 1430.73,1240.01 1432.31,1240.01 1433.88,1240.01 1435.46,1240.01 1437.04,1240.01 1438.62,1240.01 1440.2,1240.01 1441.78,1240.01 1443.35,1240.01 1444.93,1240.01 1446.51,1240.01 1448.09,1240.01 1449.67,1240.01 1451.25,1223.98 1452.82,1240.01 1454.4,1240.01 1455.98,1240.01 1457.56,1256.04 1459.14,1240.01 1460.72,1240.01 1462.3,1240.01 1463.87,1240.01 1465.45,1240.01 1467.03,1240.01 1468.61,1240.01 1470.19,1240.01 1471.77,1240.01 1473.34,1240.01 1474.92,1240.01 1476.5,1240.01 1478.08,1240.01 1479.66,1240.01 1481.24,1240.01 1482.82,1240.01 1484.39,1240.01 1485.97,1240.01 1487.55,1240.01 1489.13,1240.01 1490.71,1240.01 1492.29,1240.01 1493.86,1240.01 1495.44,1240.01 1497.02,1240.01 1498.6,1240.01 1500.18,1240.01 1501.76,1240.01 1503.34,1240.01 1504.91,1240.01 1506.49,1240.01 1508.07,1240.01 1509.65,1240.01 1511.23,1240.01 1512.81,1223.98 1514.38,1240.01 1515.96,1240.01 1517.54,1240.01 1519.12,1240.01 1520.72,1240.01 1522.28,1240.01 1523.86,1240.01 1525.46,1240.01 1527.01,1240.01 1528.62,1240.01 1530.17,1240.01 1531.75,1240.01 1533.35,1240.01 1534.9,1240.01 1536.51,1240.01 1538.09,1240.01 1539.67,1240.01 1541.24,1240.01 1542.82,1240.01 1544.4,1240.01 1545.98,1240.01 1547.56,1240.01 1549.14,1240.01 1550.72,1240.01 1552.29,1240.01 1553.87,1240.01 1555.45,1240.01 1557.03,1240.01 1558.61,1240.01 1560.19,1240.01 1561.76,1240.01 1563.34,1240.01 1564.92,1240.01 1566.5,1240.01 1568.08,1240.01 1569.66,1240.01 1571.24,1240.01 1572.81,1240.01 1574.39,1256.04 1575.97,1240.01 1577.55,1240.01 1579.13,1240.01 1580.71,1240.01 1582.28,1240.01 1583.86,1240.01 1585.44,1240.01 1587.02,1240.01 1588.6,1240.01 1590.18,1240.01 1591.76,1240.01 1593.33,1240.01 1594.91,1240.01 1596.49,1240.01 1598.07,1240.01 1599.65,1240.01 1601.23,1256.04 1602.8,1240.01 1604.38,1240.01 1605.96,1240.01 1607.54,1240.01 1609.12,1240.01 1610.7,1240.01 1612.27,1240.01 1613.85,1240.01 1615.43,1240.01 1617.01,1240.01 1618.59,1240.01 1620.17,1240.01 1621.75,1240.01 1623.32,1240.01 1624.9,1256.04 1626.48,1240.01 1628.06,1240.01 1629.64,1240.01 1631.22,1240.01 1632.79,1240.01 1634.37,1240.01 1635.95,1240.01 1637.56,1240.01 1639.11,1240.01 1640.69,1256.04 1642.29,1240.01 1643.84,1240.01 1645.42,1240.01 1647.03,1240.01 1648.58,1240.01 1650.18,1240.01 1651.76,1240.01 1653.34,1240.01 1654.92,1240.01 1656.5,1240.01 1658.08,1240.01 1659.65,1240.01 1661.23,1240.01 1662.81,1240.01 1664.39,1240.01 1665.97,1240.01 1667.55,1240.01 1669.13,1240.01 1670.7,1240.01 1672.28,1256.04 1673.86,1240.01 1675.44,1240.01 1677.02,1240.01 1678.6,1240.01 1680.17,1240.01 1681.75,1240.01 1683.33,1240.01 1684.91,1240.01 1686.49,1240.01 1688.07,1240.01 1689.65,1240.01 1691.22,1240.01 1692.8,1240.01 1694.38,1240.01 1695.96,1240.01 1697.54,1240.01 1699.12,1240.01 1700.69,1240.01 1702.27,1240.01 1703.85,1240.01 1705.43,1240.01 1707.01,1240.01 1708.59,1240.01 1710.17,1240.01 1711.74,1240.01 1713.32,1240.01 1714.9,1223.98 1716.48,1240.01 1718.06,1240.01 1719.64,1240.01 1721.21,1240.01 1722.79,1240.01 1724.37,1256.04 1725.95,1240.01 1727.53,1240.01 1729.11,1240.01 1730.69,1240.01 1732.26,1240.01 1733.84,1240.01 1735.42,1240.01 1737,1240.01 1738.58,1240.01 1740.16,1240.01 1741.73,1240.01 1743.31,1240.01 1744.89,1240.01 1746.47,1240.01 1748.05,1240.01 1749.63,1256.04 1751.23,1240.01 1752.78,1240.01 1754.36,1240.01 1755.97,1240.01 1757.52,1240.01 1759.1,1240.01 1760.7,1240.01 1762.28,1240.01 1763.83,1240.01 1765.44,1240.01 1767.02,1240.01 1768.59,1240.01 1770.17,1240.01 1771.75,1240.01 1773.33,1240.01 1774.88,1240.01 1776.49,1223.98 1778.06,1240.01 1779.64,1240.01 1781.22,1240.01 1782.8,1240.01 1784.38,1240.01 1785.96,1240.01 1787.54,1240.01 1789.11,1240.01 1790.69,1240.01 1792.27,1240.01 1793.85,1240.01 1795.43,1240.01 1797.01,1240.01 1798.58,1240.01 1800.16,1240.01 1801.74,1240.01 1803.32,1240.01 1804.9,1240.01 1806.48,1240.01 1808.06,1240.01 1809.63,1240.01 1811.21,1240.01 1812.79,1240.01 1814.37,1240.01 1815.95,1240.01 1817.53,1240.01 1819.1,1240.01 1820.68,1240.01 1822.26,1240.01 1823.84,1240.01 1825.42,1240.01 1827,1240.01 1828.58,1240.01 1830.15,1256.04 1831.73,1240.01 1833.31,1240.01 1834.89,1240.01 1836.47,1256.04 1838.05,1240.01 1839.62,1240.01 1841.2,1240.01 1842.78,1240.01 1844.36,1240.01 1845.94,1223.98 1847.52,1240.01 1849.1,1240.01 1850.67,1240.01 1852.25,1240.01 1853.83,1240.01 1855.41,1240.01 1856.99,1240.01 1858.57,1240.01 1860.14,1240.01 1861.72,1240.01 1863.3,1240.01 1864.91,1240.01 1866.46,1240.01 1868.04,1240.01 1869.64,1240.01 1871.19,1240.01 1872.77,1240.01 1874.38,1240.01 1875.93,1240.01 1877.51,1240.01 1879.11,1240.01 1880.69,1240.01 1882.24,1240.01 1883.85,1240.01 1885.43,1240.01 1886.98,1240.01 1888.58,1240.01 1890.16,1256.04 1891.74,1240.01 1893.32,1240.01 1894.9,1240.01 1896.48,1240.01 1898.05,1240.01 1899.63,1240.01 1901.21,1240.01 1902.79,1240.01 1904.37,1240.01 1905.95,1223.98 1907.52,1256.04 1909.1,1240.01 1910.68,1240.01 1912.26,1240.01 1913.84,1240.01 1915.42,1223.98 1917,1240.01 1918.57,1240.01 1920.15,1240.01 1921.73,1240.01 1923.31,1240.01 1924.89,1240.01 1926.47,1240.01 1928.04,1240.01 1929.62,1240.01 1931.2,1240.01 1932.78,1240.01 1934.36,1240.01 1935.94,1240.01 1937.51,1240.01 1939.09,1240.01 1940.67,1240.01 1942.25,1240.01 1943.83,1256.04 1945.41,1240.01 1946.99,1240.01 1948.56,1240.01 1950.14,1240.01 1951.72,1240.01 1953.3,1240.01 1954.88,1240.01 1956.46,1240.01 1958.03,1240.01 1959.61,1240.01 1961.19,1240.01 1962.77,1240.01 1964.35,1240.01 1965.93,1240.01 1967.51,1240.01 1969.08,1240.01 1970.66,1240.01 1972.24,1240.01 1973.82,1240.01 1975.4,1240.01 1976.98,1240.01 1978.55,1223.98 1980.13,1240.01 1981.71,1240.01 1983.29,1240.01 1984.87,1240.01 1986.45,1240.01 1988.03,1240.01 1989.63,1240.01 1991.18,1240.01 1992.76,1240.01 1994.37,1240.01 1995.92,1240.01 1997.5,1240.01 1999.1,1240.01 2000.65,1240.01 2002.26,1240.01 2003.84,1240.01 2005.41,1240.01 2006.99,1240.01 2008.57,1240.01 2010.15,1240.01 2011.73,1240.01 2013.31,1240.01 2014.89,1240.01 2016.46,1240.01 2018.04,1240.01 2019.62,1240.01 2021.2,1240.01 2022.78,1240.01 2024.36,1240.01 2025.93,1240.01 2027.51,1240.01 2029.09,1256.04 2030.67,1240.01 2032.25,1240.01 2033.83,1240.01 2035.41,1240.01 2036.98,1240.01 2038.56,1240.01 2040.14,1240.01 2041.72,1240.01 2043.3,1240.01 2044.88,1240.01 2046.45,1240.01 2048.03,1240.01 2049.61,1223.98 2051.19,1240.01 2052.77,1240.01 2054.35,1240.01 2055.93,1240.01 2057.5,1240.01 2059.08,1223.98 2060.66,1240.01 2062.24,1240.01 2063.82,1240.01 2065.4,1240.01 2066.97,1240.01 2068.55,1240.01 2070.13,1240.01 2071.71,1240.01 2073.29,1240.01 2074.87,1240.01 2076.45,1240.01 2078.02,1240.01 2079.6,1240.01 2081.18,1240.01 2082.76,1240.01 2084.34,1240.01 2085.92,1240.01 2087.49,1240.01 2089.07,1240.01 2090.65,1240.01 2092.23,1223.98 2093.81,1223.98 2095.39,1240.01 2096.96,1240.01 2098.54,1240.01 2100.15,1240.01 2101.7,1240.01 2103.28,1240.01 2104.86,1240.01 2106.46,1240.01 2108.01,1240.01 2109.59,1240.01 2111.2,1240.01 2112.78,1240.01 2114.33,1240.01 2115.91,1240.01 2117.51,1240.01 2119.09,1240.01 2120.64,1240.01 2122.25,1240.01 2123.82,1240.01 2125.4,1240.01 2126.98,1240.01 2128.56,1240.01 2130.14,1240.01 2131.72,1240.01 2133.3,1240.01 2134.87,1240.01 2136.45,1240.01 2138.03,1240.01 2139.61,1240.01 2141.19,1240.01 2142.77,1240.01 2144.34,1240.01 2145.92,1240.01 2147.5,1240.01 2149.08,1240.01 2150.66,1240.01 2152.24,1240.01 2153.82,1240.01 2155.39,1240.01 2156.97,1240.01 2158.55,1240.01 2160.13,1240.01 2161.71,1240.01 2163.29,1240.01 2164.86,1240.01 2166.44,1240.01 2168.02,1240.01 2169.6,1240.01 2171.18,1240.01 2172.76,1240.01 2174.34,1240.01 2175.91,1240.01 2177.49,1240.01 2179.07,1240.01 2180.65,1240.01 2182.23,1240.01 2183.81,1240.01 2185.38,1240.01 2186.96,1240.01 2188.54,1240.01 2190.12,1240.01 2191.7,1240.01 2193.28,1240.01 2194.86,1240.01 2196.43,1240.01 2198.01,1240.01 2199.59,1240.01 2201.17,1240.01 2202.75,1240.01 2204.33,1240.01 2205.9,1223.98 2207.48,1223.98 2209.06,1256.04 2210.64,1240.01 2212.22,1240.01 2213.8,1240.01 2215.38,1240.01 2216.95,1240.01 2218.53,1240.01 2220.14,1240.01 2221.69,1240.01 2223.27,1240.01 2224.85,1240.01 2226.45,1240.01 2228.03,1240.01 2229.58,1240.01 2231.19,1240.01 2232.76,1240.01 2234.34,1240.01 2235.89,1240.01 2237.5,1240.01 2239.08,1240.01 2240.66,1240.01 2242.24,1240.01 2243.81,1240.01 2245.39,1240.01 2246.97,1240.01 2248.55,1240.01 2250.13,1240.01 2251.71,1240.01 2253.28,1240.01 2254.86,1240.01 2256.44,1240.01 2258.02,1240.01 2259.6,1240.01 2261.18,1240.01 2262.75,1256.04 2264.33,1240.01 2265.91,1240.01 2267.49,1240.01 2269.07,1240.01 2270.65,1240.01 2272.23,1223.98 2273.8,1240.01 2275.38,1240.01 2276.96,1240.01 2278.54,1240.01 2280.12,1240.01 2281.7,1240.01 2283.27,1240.01 2284.85,1240.01 2286.43,1240.01 2288.01,1240.01 2289.59,1240.01 2291.17,1240.01 2292.75,1240.01 "/>
<path clip-path="url(#clip122)" d="M308.4 1304.14 L276.4 1304.14 L292.4 1336.14 L308.4 1304.14 Z" fill="#e26f46" fill-rule="evenodd" fill-opacity="1" stroke="#000000" stroke-opacity="1" stroke-width="3.2"/>
<path clip-path="url(#clip122)" d="M507.337 1224.01 L475.337 1224.01 L491.337 1256.01 L507.337 1224.01 Z" fill="#e26f46" fill-rule="evenodd" fill-opacity="1" stroke="#000000" stroke-opacity="1" stroke-width="3.2"/>
<path clip-path="url(#clip122)" d="M706.249 1224.01 L674.249 1224.01 L690.249 1256.01 L706.249 1224.01 Z" fill="#e26f46" fill-rule="evenodd" fill-opacity="1" stroke="#000000" stroke-opacity="1" stroke-width="3.2"/>
<path clip-path="url(#clip122)" d="M905.186 1224.01 L873.186 1224.01 L889.186 1256.01 L905.186 1224.01 Z" fill="#e26f46" fill-rule="evenodd" fill-opacity="1" stroke="#000000" stroke-opacity="1" stroke-width="3.2"/>
<path clip-path="url(#clip122)" d="M1104.12 1224.01 L1072.12 1224.01 L1088.12 1256.01 L1104.12 1224.01 Z" fill="#e26f46" fill-rule="evenodd" fill-opacity="1" stroke="#000000" stroke-opacity="1" stroke-width="3.2"/>
<path clip-path="url(#clip122)" d="M1303.03 1224.01 L1271.03 1224.01 L1287.03 1256.01 L1303.03 1224.01 Z" fill="#e26f46" fill-rule="evenodd" fill-opacity="1" stroke="#000000" stroke-opacity="1" stroke-width="3.2"/>
<path clip-path="url(#clip122)" d="M1501.97 1224.01 L1469.97 1224.01 L1485.97 1256.01 L1501.97 1224.01 Z" fill="#e26f46" fill-rule="evenodd" fill-opacity="1" stroke="#000000" stroke-opacity="1" stroke-width="3.2"/>
<path clip-path="url(#clip122)" d="M1700.91 1224.01 L1668.91 1224.01 L1684.91 1256.01 L1700.91 1224.01 Z" fill="#e26f46" fill-rule="evenodd" fill-opacity="1" stroke="#000000" stroke-opacity="1" stroke-width="3.2"/>
<path clip-path="url(#clip122)" d="M1899.85 1224.01 L1867.85 1224.01 L1883.85 1256.01 L1899.85 1224.01 Z" fill="#e26f46" fill-rule="evenodd" fill-opacity="1" stroke="#000000" stroke-opacity="1" stroke-width="3.2"/>
<path clip-path="url(#clip122)" d="M2098.76 1224.01 L2066.76 1224.01 L2082.76 1256.01 L2098.76 1224.01 Z" fill="#e26f46" fill-rule="evenodd" fill-opacity="1" stroke="#000000" stroke-opacity="1" stroke-width="3.2"/>
<path clip-path="url(#clip122)" d="M2297.7 1224.01 L2265.7 1224.01 L2281.7 1256.01 L2297.7 1224.01 Z" fill="#e26f46" fill-rule="evenodd" fill-opacity="1" stroke="#000000" stroke-opacity="1" stroke-width="3.2"/>
<path clip-path="url(#clip122)" d="M2059.65 2799.12 L2059.65 -1328.69 L2243.8 -1328.69 L2243.8 2799.12 L2059.65 2799.12  Z" fill="#808080" fill-rule="evenodd" fill-opacity="0.3"/>
<polyline clip-path="url(#clip122)" style="stroke:#000000; stroke-linecap:round; stroke-linejoin:round; stroke-width:4; stroke-opacity:0.3; fill:none" points="2059.65,2799.12 2059.65,-1328.69 2243.8,-1328.69 2243.8,2799.12 2059.65,2799.12 "/>
<path clip-path="url(#clip120)" d="M303.068 837.976 L737.223 837.976 L737.223 667.277 L303.068 667.277  Z" fill="#ffffff" fill-rule="evenodd" fill-opacity="1"/>
<polyline clip-path="url(#clip120)" style="stroke:#000000; stroke-linecap:round; stroke-linejoin:round; stroke-width:4; stroke-opacity:1; fill:none" points="303.068,837.976 737.223,837.976 737.223,667.277 303.068,667.277 303.068,837.976 "/>
<polyline clip-path="url(#clip120)" style="stroke:#009af9; stroke-linecap:round; stroke-linejoin:round; stroke-width:4; stroke-opacity:1; fill:none" points="326.628,724.177 467.986,724.177 "/>
<path clip-path="url(#clip120)" d="M397.307 704.302 L377.432 744.051 L417.181 744.051 L397.307 704.302 Z" fill="#009af9" fill-rule="evenodd" fill-opacity="1" stroke="#000000" stroke-opacity="1" stroke-width="4.55111"/>
<path clip-path="url(#clip120)" d="M516.607 715.158 Q516.607 718.577 514.874 721.88 Q513.164 725.182 510.471 727.22 Q507.777 729.234 505.037 729.234 Q503.397 729.234 502.296 728.344 Q501.219 727.431 500.633 726.143 Q500.188 727.735 499.228 731.553 Q498.268 735.371 498.268 735.746 Q498.268 735.957 498.314 736.05 Q498.361 736.144 498.572 736.261 Q498.783 736.402 499.298 736.449 Q499.813 736.519 500.68 736.519 Q501.125 736.519 501.289 736.519 Q501.476 736.542 501.64 736.659 Q501.828 736.776 501.828 737.034 Q501.828 737.994 500.961 737.994 Q500.188 737.994 498.595 737.924 Q497.003 737.854 496.206 737.854 Q495.527 737.854 494.169 737.924 Q492.81 737.994 492.178 737.994 Q491.545 737.994 491.545 737.432 Q491.545 737.104 491.639 736.894 Q491.709 736.706 491.897 736.612 Q492.084 736.542 492.248 736.519 Q492.388 736.519 492.67 736.519 Q493.747 736.519 494.215 736.331 Q494.684 736.167 494.848 735.816 Q495.035 735.488 495.246 734.551 L500.633 713.19 Q500.961 711.761 500.961 710.754 Q500.961 709.489 500.563 709.021 Q500.165 708.552 499.462 708.552 Q498.244 708.552 497.448 710.005 Q496.651 711.457 495.972 714.267 Q495.761 715.04 495.621 715.204 Q495.504 715.368 495.152 715.368 Q494.567 715.345 494.567 714.876 Q494.567 714.759 494.754 714.01 Q494.942 713.237 495.293 712.113 Q495.668 710.965 496.066 710.239 Q496.3 709.747 496.511 709.419 Q496.722 709.091 497.143 708.576 Q497.588 708.061 498.221 707.779 Q498.853 707.498 499.626 707.498 Q501.125 707.498 502.366 708.388 Q503.608 709.279 503.936 711.082 Q505.271 709.513 506.91 708.506 Q508.55 707.498 510.213 707.498 Q512.977 707.498 514.78 709.653 Q516.607 711.785 516.607 715.158 M513.141 713.05 Q513.141 710.918 512.321 709.747 Q511.525 708.552 510.072 708.552 Q508.269 708.552 506.184 710.379 Q504.123 712.113 503.702 713.729 L501.336 723.121 L501.195 723.894 Q501.195 724.035 501.266 724.456 Q501.359 724.854 501.617 725.51 Q501.898 726.166 502.273 726.752 Q502.671 727.314 503.374 727.735 Q504.1 728.157 504.99 728.157 Q506.419 728.157 507.964 726.892 Q509.534 725.627 510.705 723.238 Q511.431 721.692 512.274 718.366 Q513.141 715.017 513.141 713.05 Z" fill="#000000" fill-rule="nonzero" fill-opacity="1" /><path clip-path="url(#clip120)" d="M523.609 749.903 Q521.478 747.673 521.478 744.492 Q521.478 741.295 523.576 739 Q525.675 736.688 528.757 736.688 Q530.807 736.688 532.348 737.672 Q533.889 738.639 533.889 740.295 Q533.889 741.033 533.447 741.459 Q533.02 741.869 532.348 741.869 Q531.643 741.869 531.217 741.443 Q530.807 741 530.807 740.328 Q530.807 740.033 530.905 739.737 Q531.004 739.442 531.364 739.131 Q531.741 738.819 532.381 738.77 Q531.184 737.54 528.856 737.54 Q528.823 737.54 528.79 737.54 Q527.085 737.54 525.675 739.147 Q524.265 740.754 524.265 744.427 Q524.265 746.345 524.724 747.755 Q525.2 749.149 525.97 749.87 Q526.741 750.591 527.495 750.936 Q528.249 751.264 528.987 751.264 Q532.283 751.264 533.397 747.739 Q533.496 747.411 533.824 747.411 Q534.266 747.411 534.266 747.739 Q534.266 747.903 534.135 748.329 Q534.004 748.755 533.594 749.427 Q533.184 750.1 532.594 750.69 Q532.02 751.264 530.987 751.69 Q529.971 752.116 528.692 752.116 Q525.741 752.116 523.609 749.903 Z" fill="#000000" fill-rule="nonzero" fill-opacity="1" /><path clip-path="url(#clip120)" d="M535.879 751.739 L535.879 750.706 Q537.667 750.706 538.076 750.493 Q538.486 750.264 538.486 749.181 L538.486 731.72 Q538.486 730.474 538.044 730.162 Q537.617 729.851 535.879 729.851 L535.879 728.802 L540.7 728.441 L540.7 740.115 L540.733 740.115 Q541.274 738.901 542.487 737.901 Q543.7 736.901 545.569 736.901 Q548.094 736.901 549.094 738.147 Q549.832 738.983 549.98 739.918 Q550.144 740.852 550.144 743.279 L550.144 749.69 Q550.176 750.395 550.718 750.559 Q551.259 750.706 552.767 750.706 L552.767 751.739 Q549.34 751.641 548.996 751.641 Q548.734 751.641 545.209 751.739 L545.209 750.706 Q546.996 750.706 547.406 750.493 Q547.832 750.264 547.832 749.181 L547.832 741.361 Q547.832 739.656 547.307 738.655 Q546.783 737.639 545.34 737.639 Q543.602 737.639 542.208 739.098 Q540.815 740.557 540.815 743.017 L540.815 749.181 Q540.815 750.264 541.224 750.493 Q541.651 750.706 543.421 750.706 L543.421 751.739 Q539.995 751.641 539.667 751.641 Q539.404 751.641 535.879 751.739 Z" fill="#000000" fill-rule="nonzero" fill-opacity="1" /><path clip-path="url(#clip120)" d="M560.122 727.923 Q559.443 727.15 559.443 726.143 Q559.443 725.136 560.099 724.386 Q560.778 723.613 561.996 723.613 Q563.425 723.613 564.244 724.995 Q565.064 726.353 565.064 728.649 Q565.064 731.132 564.057 733.427 Q563.05 735.746 562.066 736.847 Q561.082 737.948 560.684 737.948 Q560.216 737.948 560.216 737.432 Q560.216 737.245 560.544 736.894 Q563.987 733.193 564.01 728.649 Q564.01 727.923 563.916 727.923 L563.799 728.016 Q562.98 728.696 561.996 728.696 Q560.801 728.696 560.122 727.923 Z" fill="#000000" fill-rule="nonzero" fill-opacity="1" /><path clip-path="url(#clip120)" d="M580.196 728.696 L580.196 727.22 L581.344 727.22 Q583.944 727.22 584.529 726.798 Q585.138 726.353 585.138 724.948 L585.138 699.675 Q585.138 698.293 584.529 697.872 Q583.92 697.427 581.344 697.427 L580.196 697.427 L580.196 695.928 L597.131 695.928 Q601.979 695.928 605.211 698.598 Q608.444 701.268 608.444 704.852 Q608.444 708.412 605.141 710.988 Q601.862 713.541 597.505 713.541 L589.401 713.541 L589.401 724.948 Q589.401 726.33 589.987 726.775 Q590.596 727.22 593.196 727.22 L594.343 727.22 L594.343 728.696 Q592.657 728.555 587.246 728.555 Q581.882 728.555 580.196 728.696 M589.261 712.3 L595.866 712.3 Q598.021 712.3 599.59 711.691 Q601.159 711.082 601.862 710.356 Q602.588 709.606 602.986 708.412 Q603.408 707.194 603.455 706.538 Q603.501 705.859 603.501 704.852 Q603.501 703.798 603.455 703.142 Q603.408 702.463 602.986 701.268 Q602.588 700.05 601.862 699.324 Q601.159 698.574 599.59 698.012 Q598.044 697.427 595.866 697.427 L591.603 697.427 Q589.963 697.427 589.612 697.755 Q589.261 698.083 589.261 699.347 L589.261 712.3 Z" fill="#000000" fill-rule="nonzero" fill-opacity="1" /><path clip-path="url(#clip120)" d="M617.857 728.696 L617.857 727.22 Q620.41 727.22 620.996 726.916 Q621.581 726.588 621.581 725.042 L621.581 712.136 Q621.581 710.356 620.972 709.934 Q620.387 709.513 618.045 709.513 L618.045 708.014 L624.743 707.498 L624.743 725.089 Q624.743 726.517 625.259 726.869 Q625.774 727.22 628.116 727.22 L628.116 728.696 Q623.221 728.555 623.127 728.555 Q622.471 728.555 617.857 728.696 M619.872 699.137 Q619.872 698.176 620.598 697.403 Q621.347 696.607 622.401 696.607 Q623.455 696.607 624.205 697.333 Q624.954 698.036 624.954 699.16 Q624.954 700.261 624.205 700.987 Q623.455 701.69 622.401 701.69 Q621.3 701.69 620.574 700.917 Q619.872 700.144 619.872 699.137 Z" fill="#000000" fill-rule="nonzero" fill-opacity="1" /><path clip-path="url(#clip120)" d="M631.392 728.696 L631.392 727.22 Q633.945 727.22 634.53 726.916 Q635.139 726.588 635.139 725.042 L635.139 712.183 Q635.139 710.403 634.507 709.958 Q633.898 709.513 631.392 709.513 L631.392 708.014 L638.067 707.498 L638.067 712.768 Q638.747 710.707 640.175 709.115 Q641.627 707.498 643.97 707.498 Q645.516 707.498 646.499 708.365 Q647.507 709.232 647.507 710.426 Q647.507 711.48 646.851 712.019 Q646.218 712.534 645.445 712.534 Q644.579 712.534 643.97 711.996 Q643.384 711.433 643.384 710.473 Q643.384 709.887 643.642 709.442 Q643.923 708.974 644.134 708.81 Q644.344 708.646 644.485 708.599 Q644.391 708.552 643.97 708.552 Q641.323 708.552 639.801 711.199 Q638.301 713.822 638.301 717.57 L638.301 724.948 Q638.301 726.33 638.864 726.775 Q639.449 727.22 641.955 727.22 L642.963 727.22 L642.963 728.696 Q641.042 728.555 636.873 728.555 Q636.287 728.555 635.374 728.579 Q634.46 728.602 633.266 728.649 Q632.071 728.696 631.392 728.696 Z" fill="#000000" fill-rule="nonzero" fill-opacity="1" /><path clip-path="url(#clip120)" d="M651.376 724.128 Q651.376 720.053 656.177 717.898 Q659.058 716.516 665.007 716.165 L665.007 714.408 Q665.007 711.433 663.438 709.864 Q661.892 708.271 659.925 708.271 Q656.411 708.271 654.725 710.473 Q656.154 710.52 656.669 711.246 Q657.184 711.949 657.184 712.675 Q657.184 713.635 656.575 714.267 Q655.99 714.876 654.983 714.876 Q654.022 714.876 653.39 714.291 Q652.757 713.682 652.757 712.628 Q652.757 710.286 654.865 708.74 Q656.997 707.194 660.018 707.194 Q663.953 707.194 666.577 709.841 Q667.397 710.66 667.795 711.714 Q668.216 712.768 668.263 713.471 Q668.31 714.15 668.31 715.509 L668.31 725.089 Q668.31 725.37 668.404 725.838 Q668.497 726.307 668.919 726.916 Q669.364 727.501 670.09 727.501 Q671.823 727.501 671.8 724.433 L671.8 721.739 L673.018 721.739 L673.018 724.433 Q673.018 726.986 671.659 727.993 Q670.324 728.977 669.083 728.977 Q667.49 728.977 666.483 727.806 Q665.476 726.635 665.335 725.042 Q664.609 726.869 662.946 728.063 Q661.307 729.234 659.058 729.234 Q657.325 729.234 655.685 728.789 Q654.069 728.368 652.711 727.173 Q651.376 725.955 651.376 724.128 M655.076 724.081 Q655.076 725.862 656.341 727.009 Q657.606 728.157 659.386 728.157 Q661.4 728.157 663.204 726.611 Q665.007 725.042 665.007 721.973 L665.007 717.172 Q659.691 717.359 657.372 719.491 Q655.076 721.599 655.076 724.081 Z" fill="#000000" fill-rule="nonzero" fill-opacity="1" /><path clip-path="url(#clip120)" d="M673.974 728.696 L673.974 727.22 Q676.527 727.22 677.112 726.916 Q677.698 726.588 677.698 725.042 L677.698 712.183 Q677.698 710.403 677.065 709.958 Q676.456 709.513 673.974 709.513 L673.974 708.014 L680.719 707.498 L680.719 712.534 Q682.968 707.498 687.816 707.498 Q691.423 707.498 692.852 709.279 Q693.906 710.473 694.117 711.808 Q694.351 713.143 694.351 716.61 L694.351 725.768 Q694.398 726.775 695.171 727.009 Q695.944 727.22 698.099 727.22 L698.099 728.696 Q693.203 728.555 692.712 728.555 Q692.337 728.555 687.301 728.696 L687.301 727.22 Q689.854 727.22 690.44 726.916 Q691.049 726.588 691.049 725.042 L691.049 713.869 Q691.049 711.433 690.299 710.005 Q689.549 708.552 687.488 708.552 Q685.006 708.552 683.015 710.637 Q681.024 712.722 681.024 716.235 L681.024 725.042 Q681.024 726.588 681.609 726.916 Q682.218 727.22 684.748 727.22 L684.748 728.696 Q679.853 728.555 679.384 728.555 Q679.009 728.555 673.974 728.696 Z" fill="#000000" fill-rule="nonzero" fill-opacity="1" /><path clip-path="url(#clip120)" d="M700.513 728.696 L700.513 727.22 Q703.066 727.22 703.652 726.916 Q704.237 726.588 704.237 725.042 L704.237 712.136 Q704.237 710.356 703.628 709.934 Q703.043 709.513 700.701 709.513 L700.701 708.014 L707.399 707.498 L707.399 725.089 Q707.399 726.517 707.915 726.869 Q708.43 727.22 710.772 727.22 L710.772 728.696 Q705.877 728.555 705.783 728.555 Q705.127 728.555 700.513 728.696 M702.528 699.137 Q702.528 698.176 703.254 697.403 Q704.003 696.607 705.057 696.607 Q706.111 696.607 706.861 697.333 Q707.61 698.036 707.61 699.16 Q707.61 700.261 706.861 700.987 Q706.111 701.69 705.057 701.69 Q703.956 701.69 703.23 700.917 Q702.528 700.144 702.528 699.137 Z" fill="#000000" fill-rule="nonzero" fill-opacity="1" /><polyline clip-path="url(#clip120)" style="stroke:#e26f46; stroke-linecap:round; stroke-linejoin:round; stroke-width:4; stroke-opacity:1; fill:none" points="326.628,781.076 467.986,781.076 "/>
<path clip-path="url(#clip120)" d="M417.181 761.202 L377.432 761.202 L397.307 800.951 L417.181 761.202 Z" fill="#e26f46" fill-rule="evenodd" fill-opacity="1" stroke="#000000" stroke-opacity="1" stroke-width="4.55111"/>
<path clip-path="url(#clip120)" d="M516.607 772.573 Q516.607 775.993 514.874 779.295 Q513.164 782.598 510.471 784.635 Q507.777 786.65 505.037 786.65 Q503.397 786.65 502.296 785.76 Q501.219 784.846 500.633 783.558 Q500.188 785.151 499.228 788.969 Q498.268 792.786 498.268 793.161 Q498.268 793.372 498.314 793.466 Q498.361 793.559 498.572 793.676 Q498.783 793.817 499.298 793.864 Q499.813 793.934 500.68 793.934 Q501.125 793.934 501.289 793.934 Q501.476 793.958 501.64 794.075 Q501.828 794.192 501.828 794.449 Q501.828 795.41 500.961 795.41 Q500.188 795.41 498.595 795.339 Q497.003 795.269 496.206 795.269 Q495.527 795.269 494.169 795.339 Q492.81 795.41 492.178 795.41 Q491.545 795.41 491.545 794.848 Q491.545 794.52 491.639 794.309 Q491.709 794.122 491.897 794.028 Q492.084 793.958 492.248 793.934 Q492.388 793.934 492.67 793.934 Q493.747 793.934 494.215 793.747 Q494.684 793.583 494.848 793.231 Q495.035 792.904 495.246 791.967 L500.633 770.605 Q500.961 769.177 500.961 768.169 Q500.961 766.905 500.563 766.436 Q500.165 765.968 499.462 765.968 Q498.244 765.968 497.448 767.42 Q496.651 768.872 495.972 771.683 Q495.761 772.456 495.621 772.62 Q495.504 772.784 495.152 772.784 Q494.567 772.76 494.567 772.292 Q494.567 772.175 494.754 771.425 Q494.942 770.652 495.293 769.528 Q495.668 768.38 496.066 767.654 Q496.3 767.162 496.511 766.834 Q496.722 766.506 497.143 765.991 Q497.588 765.476 498.221 765.195 Q498.853 764.914 499.626 764.914 Q501.125 764.914 502.366 765.804 Q503.608 766.694 503.936 768.497 Q505.271 766.928 506.91 765.921 Q508.55 764.914 510.213 764.914 Q512.977 764.914 514.78 767.069 Q516.607 769.2 516.607 772.573 M513.141 770.465 Q513.141 768.333 512.321 767.162 Q511.525 765.968 510.072 765.968 Q508.269 765.968 506.184 767.795 Q504.123 769.528 503.702 771.144 L501.336 780.536 L501.195 781.309 Q501.195 781.45 501.266 781.872 Q501.359 782.27 501.617 782.926 Q501.898 783.581 502.273 784.167 Q502.671 784.729 503.374 785.151 Q504.1 785.572 504.99 785.572 Q506.419 785.572 507.964 784.307 Q509.534 783.043 510.705 780.654 Q511.431 779.108 512.274 775.782 Q513.141 772.432 513.141 770.465 Z" fill="#000000" fill-rule="nonzero" fill-opacity="1" /><path clip-path="url(#clip120)" d="M523.609 807.318 Q521.478 805.088 521.478 801.908 Q521.478 798.71 523.576 796.415 Q525.675 794.103 528.757 794.103 Q530.807 794.103 532.348 795.087 Q533.889 796.054 533.889 797.71 Q533.889 798.448 533.447 798.874 Q533.02 799.284 532.348 799.284 Q531.643 799.284 531.217 798.858 Q530.807 798.415 530.807 797.743 Q530.807 797.448 530.905 797.153 Q531.004 796.858 531.364 796.546 Q531.741 796.235 532.381 796.185 Q531.184 794.956 528.856 794.956 Q528.823 794.956 528.79 794.956 Q527.085 794.956 525.675 796.563 Q524.265 798.169 524.265 801.842 Q524.265 803.76 524.724 805.17 Q525.2 806.564 525.97 807.285 Q526.741 808.007 527.495 808.351 Q528.249 808.679 528.987 808.679 Q532.283 808.679 533.397 805.154 Q533.496 804.826 533.824 804.826 Q534.266 804.826 534.266 805.154 Q534.266 805.318 534.135 805.744 Q534.004 806.17 533.594 806.843 Q533.184 807.515 532.594 808.105 Q532.02 808.679 530.987 809.105 Q529.971 809.532 528.692 809.532 Q525.741 809.532 523.609 807.318 Z" fill="#000000" fill-rule="nonzero" fill-opacity="1" /><path clip-path="url(#clip120)" d="M535.879 809.154 L535.879 808.122 Q537.667 808.122 538.076 807.908 Q538.486 807.679 538.486 806.597 L538.486 789.135 Q538.486 787.889 538.044 787.578 Q537.617 787.266 535.879 787.266 L535.879 786.217 L540.7 785.856 L540.7 797.53 L540.733 797.53 Q541.274 796.317 542.487 795.316 Q543.7 794.316 545.569 794.316 Q548.094 794.316 549.094 795.562 Q549.832 796.399 549.98 797.333 Q550.144 798.268 550.144 800.694 L550.144 807.105 Q550.176 807.81 550.718 807.974 Q551.259 808.122 552.767 808.122 L552.767 809.154 Q549.34 809.056 548.996 809.056 Q548.734 809.056 545.209 809.154 L545.209 808.122 Q546.996 808.122 547.406 807.908 Q547.832 807.679 547.832 806.597 L547.832 798.776 Q547.832 797.071 547.307 796.071 Q546.783 795.054 545.34 795.054 Q543.602 795.054 542.208 796.513 Q540.815 797.973 540.815 800.432 L540.815 806.597 Q540.815 807.679 541.224 807.908 Q541.651 808.122 543.421 808.122 L543.421 809.154 Q539.995 809.056 539.667 809.056 Q539.404 809.056 535.879 809.154 Z" fill="#000000" fill-rule="nonzero" fill-opacity="1" /><path clip-path="url(#clip120)" d="M560.122 785.338 Q559.443 784.565 559.443 783.558 Q559.443 782.551 560.099 781.801 Q560.778 781.028 561.996 781.028 Q563.425 781.028 564.244 782.41 Q565.064 783.769 565.064 786.064 Q565.064 788.547 564.057 790.842 Q563.05 793.161 562.066 794.262 Q561.082 795.363 560.684 795.363 Q560.216 795.363 560.216 794.848 Q560.216 794.66 560.544 794.309 Q563.987 790.608 564.01 786.064 Q564.01 785.338 563.916 785.338 L563.799 785.432 Q562.98 786.111 561.996 786.111 Q560.801 786.111 560.122 785.338 Z" fill="#000000" fill-rule="nonzero" fill-opacity="1" /><path clip-path="url(#clip120)" d="M580.196 769.715 Q580.196 762.478 585.138 757.395 Q590.08 752.289 596.873 752.289 Q598.981 752.289 600.855 753.062 Q602.728 753.835 603.595 754.514 Q604.462 755.17 605.703 756.411 L608.116 752.875 Q608.49 752.289 608.865 752.289 Q609.263 752.289 609.334 752.523 Q609.404 752.734 609.404 753.437 L609.404 764.82 Q609.404 765.593 609.31 765.78 Q609.216 765.968 608.631 765.968 Q608.162 765.968 608.045 765.827 Q607.952 765.687 607.858 765.148 Q607.132 759.972 604.251 756.88 Q601.393 753.788 597.412 753.788 Q596.264 753.788 594.976 754.046 Q593.711 754.303 591.86 755.287 Q590.034 756.271 588.605 757.91 Q587.199 759.527 586.169 762.618 Q585.138 765.687 585.138 769.762 Q585.138 773.791 586.169 776.883 Q587.199 779.974 588.605 781.59 Q590.034 783.183 591.86 784.167 Q593.711 785.151 594.999 785.432 Q596.311 785.689 597.458 785.689 Q601.581 785.689 604.743 782.762 Q607.905 779.834 608.209 774.892 Q608.256 774.657 608.256 774.564 Q608.256 774.447 608.303 774.33 Q608.35 774.212 608.467 774.166 Q608.584 774.119 608.771 774.119 Q609.404 774.119 609.404 774.939 Q609.404 779.506 605.89 783.347 Q602.401 787.165 596.873 787.165 Q590.057 787.165 585.115 782.106 Q580.196 777.047 580.196 769.715 Z" fill="#000000" fill-rule="nonzero" fill-opacity="1" /><path clip-path="url(#clip120)" d="M617.356 786.111 L617.356 784.635 Q619.089 784.635 620.19 784.307 Q621.291 783.956 621.689 783.324 Q622.111 782.668 622.204 782.246 Q622.298 781.801 622.298 781.075 L622.298 757.091 Q622.298 755.709 621.689 755.287 Q621.103 754.842 618.504 754.842 L617.356 754.842 L617.356 753.343 L625.46 753.343 Q626.327 753.343 626.561 753.507 Q626.795 753.648 627.146 754.397 L637.546 781.263 L648.039 754.257 Q648.273 753.577 648.484 753.46 Q648.719 753.343 649.632 753.343 L657.736 753.343 L657.736 754.842 L656.588 754.842 Q653.989 754.842 653.38 755.287 Q652.794 755.709 652.794 757.091 L652.794 782.363 Q652.794 783.745 653.38 784.19 Q653.989 784.635 656.588 784.635 L657.736 784.635 L657.736 786.111 Q655.956 785.97 650.873 785.97 Q645.744 785.97 643.964 786.111 L643.964 784.635 L645.135 784.635 Q647.735 784.635 648.32 784.214 Q648.906 783.769 648.906 782.363 L648.906 754.842 L648.859 754.842 L637.078 785.198 Q636.75 786.111 636.211 786.111 Q635.625 786.111 635.251 785.057 L623.68 755.217 L623.633 755.217 L623.633 781.075 Q623.633 781.801 623.727 782.246 Q623.82 782.668 624.219 783.324 Q624.64 783.956 625.741 784.307 Q626.842 784.635 628.575 784.635 L628.575 786.111 Q623.539 785.97 622.954 785.97 Q622.392 785.97 617.356 786.111 Z" fill="#000000" fill-rule="nonzero" fill-opacity="1" /></svg>
