<?xml version="1.0" encoding="utf-8"?>
<svg xmlns="http://www.w3.org/2000/svg" xmlns:xlink="http://www.w3.org/1999/xlink" width="600" height="400" viewBox="0 0 2400 1600">
<defs>
  <clipPath id="clip580">
    <rect x="0" y="0" width="2400" height="1600"/>
  </clipPath>
</defs>
<path clip-path="url(#clip580)" d="M0 1600 L2400 1600 L2400 0 L0 0  Z" fill="#ffffff" fill-rule="evenodd" fill-opacity="1"/>
<defs>
  <clipPath id="clip581">
    <rect x="480" y="0" width="1681" height="1600"/>
  </clipPath>
</defs>
<path clip-path="url(#clip580)" d="M242.135 1423.18 L2352.76 1423.18 L2352.76 47.2441 L242.135 47.2441  Z" fill="#ffffff" fill-rule="evenodd" fill-opacity="1"/>
<defs>
  <clipPath id="clip582">
    <rect x="242" y="47" width="2112" height="1377"/>
  </clipPath>
</defs>
<polyline clip-path="url(#clip582)" style="stroke:#000000; stroke-linecap:round; stroke-linejoin:round; stroke-width:2; stroke-opacity:0.1; fill:none" points="323.312,1423.18 323.312,47.2441 "/>
<polyline clip-path="url(#clip582)" style="stroke:#000000; stroke-linecap:round; stroke-linejoin:round; stroke-width:2; stroke-opacity:0.1; fill:none" points="729.201,1423.18 729.201,47.2441 "/>
<polyline clip-path="url(#clip582)" style="stroke:#000000; stroke-linecap:round; stroke-linejoin:round; stroke-width:2; stroke-opacity:0.1; fill:none" points="1135.09,1423.18 1135.09,47.2441 "/>
<polyline clip-path="url(#clip582)" style="stroke:#000000; stroke-linecap:round; stroke-linejoin:round; stroke-width:2; stroke-opacity:0.1; fill:none" points="1540.98,1423.18 1540.98,47.2441 "/>
<polyline clip-path="url(#clip582)" style="stroke:#000000; stroke-linecap:round; stroke-linejoin:round; stroke-width:2; stroke-opacity:0.1; fill:none" points="1946.87,1423.18 1946.87,47.2441 "/>
<polyline clip-path="url(#clip582)" style="stroke:#000000; stroke-linecap:round; stroke-linejoin:round; stroke-width:2; stroke-opacity:0.1; fill:none" points="2352.76,1423.18 2352.76,47.2441 "/>
<polyline clip-path="url(#clip582)" style="stroke:#000000; stroke-linecap:round; stroke-linejoin:round; stroke-width:2; stroke-opacity:0.1; fill:none" points="242.135,1384.24 2352.76,1384.24 "/>
<polyline clip-path="url(#clip582)" style="stroke:#000000; stroke-linecap:round; stroke-linejoin:round; stroke-width:2; stroke-opacity:0.1; fill:none" points="242.135,1059.73 2352.76,1059.73 "/>
<polyline clip-path="url(#clip582)" style="stroke:#000000; stroke-linecap:round; stroke-linejoin:round; stroke-width:2; stroke-opacity:0.1; fill:none" points="242.135,735.212 2352.76,735.212 "/>
<polyline clip-path="url(#clip582)" style="stroke:#000000; stroke-linecap:round; stroke-linejoin:round; stroke-width:2; stroke-opacity:0.1; fill:none" points="242.135,410.699 2352.76,410.699 "/>
<polyline clip-path="url(#clip582)" style="stroke:#000000; stroke-linecap:round; stroke-linejoin:round; stroke-width:2; stroke-opacity:0.1; fill:none" points="242.135,86.1857 2352.76,86.1857 "/>
<polyline clip-path="url(#clip580)" style="stroke:#000000; stroke-linecap:round; stroke-linejoin:round; stroke-width:4; stroke-opacity:1; fill:none" points="242.135,1423.18 2352.76,1423.18 "/>
<polyline clip-path="url(#clip580)" style="stroke:#000000; stroke-linecap:round; stroke-linejoin:round; stroke-width:4; stroke-opacity:1; fill:none" points="323.312,1423.18 323.312,1404.28 "/>
<polyline clip-path="url(#clip580)" style="stroke:#000000; stroke-linecap:round; stroke-linejoin:round; stroke-width:4; stroke-opacity:1; fill:none" points="729.201,1423.18 729.201,1404.28 "/>
<polyline clip-path="url(#clip580)" style="stroke:#000000; stroke-linecap:round; stroke-linejoin:round; stroke-width:4; stroke-opacity:1; fill:none" points="1135.09,1423.18 1135.09,1404.28 "/>
<polyline clip-path="url(#clip580)" style="stroke:#000000; stroke-linecap:round; stroke-linejoin:round; stroke-width:4; stroke-opacity:1; fill:none" points="1540.98,1423.18 1540.98,1404.28 "/>
<polyline clip-path="url(#clip580)" style="stroke:#000000; stroke-linecap:round; stroke-linejoin:round; stroke-width:4; stroke-opacity:1; fill:none" points="1946.87,1423.18 1946.87,1404.28 "/>
<polyline clip-path="url(#clip580)" style="stroke:#000000; stroke-linecap:round; stroke-linejoin:round; stroke-width:4; stroke-opacity:1; fill:none" points="2352.76,1423.18 2352.76,1404.28 "/>
<path clip-path="url(#clip580)" d="M300.697 1454.1 Q297.086 1454.1 295.257 1457.66 Q293.451 1461.2 293.451 1468.33 Q293.451 1475.44 295.257 1479.01 Q297.086 1482.55 300.697 1482.55 Q304.331 1482.55 306.137 1479.01 Q307.965 1475.44 307.965 1468.33 Q307.965 1461.2 306.137 1457.66 Q304.331 1454.1 300.697 1454.1 M300.697 1450.39 Q306.507 1450.39 309.562 1455 Q312.641 1459.58 312.641 1468.33 Q312.641 1477.06 309.562 1481.67 Q306.507 1486.25 300.697 1486.25 Q294.887 1486.25 291.808 1481.67 Q288.752 1477.06 288.752 1468.33 Q288.752 1459.58 291.808 1455 Q294.887 1450.39 300.697 1450.39 Z" fill="#000000" fill-rule="nonzero" fill-opacity="1" /><path clip-path="url(#clip580)" d="M320.859 1479.7 L325.743 1479.7 L325.743 1485.58 L320.859 1485.58 L320.859 1479.7 Z" fill="#000000" fill-rule="nonzero" fill-opacity="1" /><path clip-path="url(#clip580)" d="M345.928 1454.1 Q342.317 1454.1 340.488 1457.66 Q338.683 1461.2 338.683 1468.33 Q338.683 1475.44 340.488 1479.01 Q342.317 1482.55 345.928 1482.55 Q349.562 1482.55 351.368 1479.01 Q353.197 1475.44 353.197 1468.33 Q353.197 1461.2 351.368 1457.66 Q349.562 1454.1 345.928 1454.1 M345.928 1450.39 Q351.738 1450.39 354.794 1455 Q357.872 1459.58 357.872 1468.33 Q357.872 1477.06 354.794 1481.67 Q351.738 1486.25 345.928 1486.25 Q340.118 1486.25 337.039 1481.67 Q333.984 1477.06 333.984 1468.33 Q333.984 1459.58 337.039 1455 Q340.118 1450.39 345.928 1450.39 Z" fill="#000000" fill-rule="nonzero" fill-opacity="1" /><path clip-path="url(#clip580)" d="M707.083 1454.1 Q703.472 1454.1 701.643 1457.66 Q699.838 1461.2 699.838 1468.33 Q699.838 1475.44 701.643 1479.01 Q703.472 1482.55 707.083 1482.55 Q710.717 1482.55 712.523 1479.01 Q714.352 1475.44 714.352 1468.33 Q714.352 1461.2 712.523 1457.66 Q710.717 1454.1 707.083 1454.1 M707.083 1450.39 Q712.893 1450.39 715.949 1455 Q719.028 1459.58 719.028 1468.33 Q719.028 1477.06 715.949 1481.67 Q712.893 1486.25 707.083 1486.25 Q701.273 1486.25 698.194 1481.67 Q695.139 1477.06 695.139 1468.33 Q695.139 1459.58 698.194 1455 Q701.273 1450.39 707.083 1450.39 Z" fill="#000000" fill-rule="nonzero" fill-opacity="1" /><path clip-path="url(#clip580)" d="M727.245 1479.7 L732.129 1479.7 L732.129 1485.58 L727.245 1485.58 L727.245 1479.7 Z" fill="#000000" fill-rule="nonzero" fill-opacity="1" /><path clip-path="url(#clip580)" d="M742.361 1451.02 L760.717 1451.02 L760.717 1454.96 L746.643 1454.96 L746.643 1463.43 Q747.662 1463.08 748.68 1462.92 Q749.699 1462.73 750.717 1462.73 Q756.504 1462.73 759.884 1465.9 Q763.263 1469.08 763.263 1474.49 Q763.263 1480.07 759.791 1483.17 Q756.319 1486.25 750 1486.25 Q747.824 1486.25 745.555 1485.88 Q743.31 1485.51 740.902 1484.77 L740.902 1480.07 Q742.986 1481.2 745.208 1481.76 Q747.43 1482.32 749.907 1482.32 Q753.912 1482.32 756.25 1480.21 Q758.588 1478.1 758.588 1474.49 Q758.588 1470.88 756.25 1468.77 Q753.912 1466.67 749.907 1466.67 Q748.032 1466.67 746.157 1467.08 Q744.305 1467.5 742.361 1468.38 L742.361 1451.02 Z" fill="#000000" fill-rule="nonzero" fill-opacity="1" /><path clip-path="url(#clip580)" d="M1102.24 1481.64 L1109.88 1481.64 L1109.88 1455.28 L1101.57 1456.95 L1101.57 1452.69 L1109.84 1451.02 L1114.51 1451.02 L1114.51 1481.64 L1122.15 1481.64 L1122.15 1485.58 L1102.24 1485.58 L1102.24 1481.64 Z" fill="#000000" fill-rule="nonzero" fill-opacity="1" /><path clip-path="url(#clip580)" d="M1131.59 1479.7 L1136.48 1479.7 L1136.48 1485.58 L1131.59 1485.58 L1131.59 1479.7 Z" fill="#000000" fill-rule="nonzero" fill-opacity="1" /><path clip-path="url(#clip580)" d="M1156.66 1454.1 Q1153.05 1454.1 1151.22 1457.66 Q1149.42 1461.2 1149.42 1468.33 Q1149.42 1475.44 1151.22 1479.01 Q1153.05 1482.55 1156.66 1482.55 Q1160.3 1482.55 1162.1 1479.01 Q1163.93 1475.44 1163.93 1468.33 Q1163.93 1461.2 1162.1 1457.66 Q1160.3 1454.1 1156.66 1454.1 M1156.66 1450.39 Q1162.47 1450.39 1165.53 1455 Q1168.61 1459.58 1168.61 1468.33 Q1168.61 1477.06 1165.53 1481.67 Q1162.47 1486.25 1156.66 1486.25 Q1150.85 1486.25 1147.77 1481.67 Q1144.72 1477.06 1144.72 1468.33 Q1144.72 1459.58 1147.77 1455 Q1150.85 1450.39 1156.66 1450.39 Z" fill="#000000" fill-rule="nonzero" fill-opacity="1" /><path clip-path="url(#clip580)" d="M1508.63 1481.64 L1516.27 1481.64 L1516.27 1455.28 L1507.96 1456.95 L1507.96 1452.69 L1516.22 1451.02 L1520.9 1451.02 L1520.9 1481.64 L1528.54 1481.64 L1528.54 1485.58 L1508.63 1485.58 L1508.63 1481.64 Z" fill="#000000" fill-rule="nonzero" fill-opacity="1" /><path clip-path="url(#clip580)" d="M1537.98 1479.7 L1542.87 1479.7 L1542.87 1485.58 L1537.98 1485.58 L1537.98 1479.7 Z" fill="#000000" fill-rule="nonzero" fill-opacity="1" /><path clip-path="url(#clip580)" d="M1553.1 1451.02 L1571.45 1451.02 L1571.45 1454.96 L1557.38 1454.96 L1557.38 1463.43 Q1558.4 1463.08 1559.42 1462.92 Q1560.43 1462.73 1561.45 1462.73 Q1567.24 1462.73 1570.62 1465.9 Q1574 1469.08 1574 1474.49 Q1574 1480.07 1570.53 1483.17 Q1567.05 1486.25 1560.74 1486.25 Q1558.56 1486.25 1556.29 1485.88 Q1554.05 1485.51 1551.64 1484.77 L1551.64 1480.07 Q1553.72 1481.2 1555.94 1481.76 Q1558.17 1482.32 1560.64 1482.32 Q1564.65 1482.32 1566.99 1480.21 Q1569.32 1478.1 1569.32 1474.49 Q1569.32 1470.88 1566.99 1468.77 Q1564.65 1466.67 1560.64 1466.67 Q1558.77 1466.67 1556.89 1467.08 Q1555.04 1467.5 1553.1 1468.38 L1553.1 1451.02 Z" fill="#000000" fill-rule="nonzero" fill-opacity="1" /><path clip-path="url(#clip580)" d="M1918.11 1481.64 L1934.43 1481.64 L1934.43 1485.58 L1912.48 1485.58 L1912.48 1481.64 Q1915.14 1478.89 1919.73 1474.26 Q1924.33 1469.61 1925.51 1468.27 Q1927.76 1465.74 1928.64 1464.01 Q1929.54 1462.25 1929.54 1460.56 Q1929.54 1457.8 1927.6 1456.07 Q1925.68 1454.33 1922.57 1454.33 Q1920.37 1454.33 1917.92 1455.09 Q1915.49 1455.86 1912.71 1457.41 L1912.71 1452.69 Q1915.54 1451.55 1917.99 1450.97 Q1920.44 1450.39 1922.48 1450.39 Q1927.85 1450.39 1931.05 1453.08 Q1934.24 1455.77 1934.24 1460.26 Q1934.24 1462.39 1933.43 1464.31 Q1932.64 1466.2 1930.54 1468.8 Q1929.96 1469.47 1926.86 1472.69 Q1923.75 1475.88 1918.11 1481.64 Z" fill="#000000" fill-rule="nonzero" fill-opacity="1" /><path clip-path="url(#clip580)" d="M1944.24 1479.7 L1949.12 1479.7 L1949.12 1485.58 L1944.24 1485.58 L1944.24 1479.7 Z" fill="#000000" fill-rule="nonzero" fill-opacity="1" /><path clip-path="url(#clip580)" d="M1969.31 1454.1 Q1965.7 1454.1 1963.87 1457.66 Q1962.06 1461.2 1962.06 1468.33 Q1962.06 1475.44 1963.87 1479.01 Q1965.7 1482.55 1969.31 1482.55 Q1972.94 1482.55 1974.75 1479.01 Q1976.58 1475.44 1976.58 1468.33 Q1976.58 1461.2 1974.75 1457.66 Q1972.94 1454.1 1969.31 1454.1 M1969.31 1450.39 Q1975.12 1450.39 1978.17 1455 Q1981.25 1459.58 1981.25 1468.33 Q1981.25 1477.06 1978.17 1481.67 Q1975.12 1486.25 1969.31 1486.25 Q1963.5 1486.25 1960.42 1481.67 Q1957.36 1477.06 1957.36 1468.33 Q1957.36 1459.58 1960.42 1455 Q1963.5 1450.39 1969.31 1450.39 Z" fill="#000000" fill-rule="nonzero" fill-opacity="1" /><path clip-path="url(#clip580)" d="M2324.49 1481.64 L2340.81 1481.64 L2340.81 1485.58 L2318.87 1485.58 L2318.87 1481.64 Q2321.53 1478.89 2326.11 1474.26 Q2330.72 1469.61 2331.9 1468.27 Q2334.14 1465.74 2335.02 1464.01 Q2335.93 1462.25 2335.93 1460.56 Q2335.93 1457.8 2333.98 1456.07 Q2332.06 1454.33 2328.96 1454.33 Q2326.76 1454.33 2324.31 1455.09 Q2321.88 1455.86 2319.1 1457.41 L2319.1 1452.69 Q2321.92 1451.55 2324.38 1450.97 Q2326.83 1450.39 2328.87 1450.39 Q2334.24 1450.39 2337.43 1453.08 Q2340.63 1455.77 2340.63 1460.26 Q2340.63 1462.39 2339.82 1464.31 Q2339.03 1466.2 2336.92 1468.8 Q2336.34 1469.47 2333.24 1472.69 Q2330.14 1475.88 2324.49 1481.64 Z" fill="#000000" fill-rule="nonzero" fill-opacity="1" /><path clip-path="url(#clip580)" d="M2350.63 1479.7 L2355.51 1479.7 L2355.51 1485.58 L2350.63 1485.58 L2350.63 1479.7 Z" fill="#000000" fill-rule="nonzero" fill-opacity="1" /><path clip-path="url(#clip580)" d="M2365.74 1451.02 L2384.1 1451.02 L2384.1 1454.96 L2370.02 1454.96 L2370.02 1463.43 Q2371.04 1463.08 2372.06 1462.92 Q2373.08 1462.73 2374.1 1462.73 Q2379.89 1462.73 2383.27 1465.9 Q2386.64 1469.08 2386.64 1474.49 Q2386.64 1480.07 2383.17 1483.17 Q2379.7 1486.25 2373.38 1486.25 Q2371.2 1486.25 2368.94 1485.88 Q2366.69 1485.51 2364.28 1484.77 L2364.28 1480.07 Q2366.37 1481.2 2368.59 1481.76 Q2370.81 1482.32 2373.29 1482.32 Q2377.29 1482.32 2379.63 1480.21 Q2381.97 1478.1 2381.97 1474.49 Q2381.97 1470.88 2379.63 1468.77 Q2377.29 1466.67 2373.29 1466.67 Q2371.41 1466.67 2369.54 1467.08 Q2367.69 1467.5 2365.74 1468.38 L2365.74 1451.02 Z" fill="#000000" fill-rule="nonzero" fill-opacity="1" /><path clip-path="url(#clip580)" d="M1296.2 1546.53 L1296.2 1568.04 L1290.35 1568.04 L1290.35 1546.72 Q1290.35 1541.66 1288.37 1539.14 Q1286.4 1536.63 1282.45 1536.63 Q1277.71 1536.63 1274.97 1539.65 Q1272.24 1542.68 1272.24 1547.9 L1272.24 1568.04 L1266.35 1568.04 L1266.35 1518.52 L1272.24 1518.52 L1272.24 1537.93 Q1274.34 1534.72 1277.17 1533.13 Q1280.04 1531.54 1283.76 1531.54 Q1289.9 1531.54 1293.05 1535.36 Q1296.2 1539.14 1296.2 1546.53 Z" fill="#000000" fill-rule="nonzero" fill-opacity="1" /><path clip-path="url(#clip580)" d="M1328.54 1537.87 Q1327.56 1537.3 1326.38 1537.04 Q1325.23 1536.76 1323.83 1536.76 Q1318.87 1536.76 1316.19 1540 Q1313.55 1543.22 1313.55 1549.27 L1313.55 1568.04 L1307.66 1568.04 L1307.66 1532.4 L1313.55 1532.4 L1313.55 1537.93 Q1315.4 1534.69 1318.36 1533.13 Q1321.32 1531.54 1325.55 1531.54 Q1326.15 1531.54 1326.89 1531.63 Q1327.62 1531.7 1328.51 1531.85 L1328.54 1537.87 Z" fill="#000000" fill-rule="nonzero" fill-opacity="1" /><polyline clip-path="url(#clip580)" style="stroke:#000000; stroke-linecap:round; stroke-linejoin:round; stroke-width:4; stroke-opacity:1; fill:none" points="242.135,1423.18 242.135,47.2441 "/>
<polyline clip-path="url(#clip580)" style="stroke:#000000; stroke-linecap:round; stroke-linejoin:round; stroke-width:4; stroke-opacity:1; fill:none" points="242.135,1384.24 261.032,1384.24 "/>
<polyline clip-path="url(#clip580)" style="stroke:#000000; stroke-linecap:round; stroke-linejoin:round; stroke-width:4; stroke-opacity:1; fill:none" points="242.135,1059.73 261.032,1059.73 "/>
<polyline clip-path="url(#clip580)" style="stroke:#000000; stroke-linecap:round; stroke-linejoin:round; stroke-width:4; stroke-opacity:1; fill:none" points="242.135,735.212 261.032,735.212 "/>
<polyline clip-path="url(#clip580)" style="stroke:#000000; stroke-linecap:round; stroke-linejoin:round; stroke-width:4; stroke-opacity:1; fill:none" points="242.135,410.699 261.032,410.699 "/>
<polyline clip-path="url(#clip580)" style="stroke:#000000; stroke-linecap:round; stroke-linejoin:round; stroke-width:4; stroke-opacity:1; fill:none" points="242.135,86.1857 261.032,86.1857 "/>
<path clip-path="url(#clip580)" d="M114.26 1384.69 L143.936 1384.69 L143.936 1388.62 L114.26 1388.62 L114.26 1384.69 Z" fill="#000000" fill-rule="nonzero" fill-opacity="1" /><path clip-path="url(#clip580)" d="M166.876 1371.03 L155.07 1389.48 L166.876 1389.48 L166.876 1371.03 M165.649 1366.96 L171.528 1366.96 L171.528 1389.48 L176.459 1389.48 L176.459 1393.37 L171.528 1393.37 L171.528 1401.52 L166.876 1401.52 L166.876 1393.37 L151.274 1393.37 L151.274 1388.86 L165.649 1366.96 Z" fill="#000000" fill-rule="nonzero" fill-opacity="1" /><path clip-path="url(#clip580)" d="M194.19 1370.04 Q190.579 1370.04 188.75 1373.6 Q186.945 1377.14 186.945 1384.27 Q186.945 1391.38 188.75 1394.94 Q190.579 1398.49 194.19 1398.49 Q197.825 1398.49 199.63 1394.94 Q201.459 1391.38 201.459 1384.27 Q201.459 1377.14 199.63 1373.6 Q197.825 1370.04 194.19 1370.04 M194.19 1366.33 Q200 1366.33 203.056 1370.94 Q206.135 1375.52 206.135 1384.27 Q206.135 1393 203.056 1397.61 Q200 1402.19 194.19 1402.19 Q188.38 1402.19 185.301 1397.61 Q182.246 1393 182.246 1384.27 Q182.246 1375.52 185.301 1370.94 Q188.38 1366.33 194.19 1366.33 Z" fill="#000000" fill-rule="nonzero" fill-opacity="1" /><path clip-path="url(#clip580)" d="M114.26 1060.18 L143.936 1060.18 L143.936 1064.11 L114.26 1064.11 L114.26 1060.18 Z" fill="#000000" fill-rule="nonzero" fill-opacity="1" /><path clip-path="url(#clip580)" d="M168.195 1058.37 Q171.552 1059.09 173.427 1061.36 Q175.325 1063.63 175.325 1066.96 Q175.325 1072.07 171.806 1074.88 Q168.288 1077.68 161.806 1077.68 Q159.63 1077.68 157.315 1077.24 Q155.024 1076.82 152.57 1075.96 L152.57 1071.45 Q154.515 1072.58 156.829 1073.16 Q159.144 1073.74 161.667 1073.74 Q166.065 1073.74 168.357 1072.01 Q170.672 1070.27 170.672 1066.96 Q170.672 1063.9 168.519 1062.19 Q166.39 1060.45 162.57 1060.45 L158.542 1060.45 L158.542 1056.61 L162.755 1056.61 Q166.204 1056.61 168.033 1055.25 Q169.862 1053.86 169.862 1051.26 Q169.862 1048.6 167.964 1047.19 Q166.089 1045.76 162.57 1045.76 Q160.649 1045.76 158.45 1046.17 Q156.251 1046.59 153.612 1047.47 L153.612 1043.3 Q156.274 1042.56 158.589 1042.19 Q160.927 1041.82 162.987 1041.82 Q168.311 1041.82 171.413 1044.25 Q174.514 1046.66 174.514 1050.78 Q174.514 1053.65 172.871 1055.64 Q171.227 1057.61 168.195 1058.37 Z" fill="#000000" fill-rule="nonzero" fill-opacity="1" /><path clip-path="url(#clip580)" d="M194.19 1045.52 Q190.579 1045.52 188.75 1049.09 Q186.945 1052.63 186.945 1059.76 Q186.945 1066.87 188.75 1070.43 Q190.579 1073.97 194.19 1073.97 Q197.825 1073.97 199.63 1070.43 Q201.459 1066.87 201.459 1059.76 Q201.459 1052.63 199.63 1049.09 Q197.825 1045.52 194.19 1045.52 M194.19 1041.82 Q200 1041.82 203.056 1046.43 Q206.135 1051.01 206.135 1059.76 Q206.135 1068.49 203.056 1073.09 Q200 1077.68 194.19 1077.68 Q188.38 1077.68 185.301 1073.09 Q182.246 1068.49 182.246 1059.76 Q182.246 1051.01 185.301 1046.43 Q188.38 1041.82 194.19 1041.82 Z" fill="#000000" fill-rule="nonzero" fill-opacity="1" /><path clip-path="url(#clip580)" d="M114.26 735.663 L143.936 735.663 L143.936 739.599 L114.26 739.599 L114.26 735.663 Z" fill="#000000" fill-rule="nonzero" fill-opacity="1" /><path clip-path="url(#clip580)" d="M158.056 748.557 L174.376 748.557 L174.376 752.492 L152.431 752.492 L152.431 748.557 Q155.093 745.802 159.677 741.173 Q164.283 736.52 165.464 735.177 Q167.709 732.654 168.589 730.918 Q169.491 729.159 169.491 727.469 Q169.491 724.714 167.547 722.978 Q165.626 721.242 162.524 721.242 Q160.325 721.242 157.871 722.006 Q155.44 722.77 152.663 724.321 L152.663 719.599 Q155.487 718.464 157.94 717.886 Q160.394 717.307 162.431 717.307 Q167.802 717.307 170.996 719.992 Q174.19 722.677 174.19 727.168 Q174.19 729.298 173.38 731.219 Q172.593 733.117 170.487 735.71 Q169.908 736.381 166.806 739.599 Q163.704 742.793 158.056 748.557 Z" fill="#000000" fill-rule="nonzero" fill-opacity="1" /><path clip-path="url(#clip580)" d="M194.19 721.011 Q190.579 721.011 188.75 724.575 Q186.945 728.117 186.945 735.247 Q186.945 742.353 188.75 745.918 Q190.579 749.46 194.19 749.46 Q197.825 749.46 199.63 745.918 Q201.459 742.353 201.459 735.247 Q201.459 728.117 199.63 724.575 Q197.825 721.011 194.19 721.011 M194.19 717.307 Q200 717.307 203.056 721.913 Q206.135 726.497 206.135 735.247 Q206.135 743.973 203.056 748.58 Q200 753.163 194.19 753.163 Q188.38 753.163 185.301 748.58 Q182.246 743.973 182.246 735.247 Q182.246 726.497 185.301 721.913 Q188.38 717.307 194.19 717.307 Z" fill="#000000" fill-rule="nonzero" fill-opacity="1" /><path clip-path="url(#clip580)" d="M114.26 411.15 L143.936 411.15 L143.936 415.085 L114.26 415.085 L114.26 411.15 Z" fill="#000000" fill-rule="nonzero" fill-opacity="1" /><path clip-path="url(#clip580)" d="M154.839 424.044 L162.477 424.044 L162.477 397.678 L154.167 399.345 L154.167 395.085 L162.431 393.419 L167.107 393.419 L167.107 424.044 L174.746 424.044 L174.746 427.979 L154.839 427.979 L154.839 424.044 Z" fill="#000000" fill-rule="nonzero" fill-opacity="1" /><path clip-path="url(#clip580)" d="M194.19 396.498 Q190.579 396.498 188.75 400.062 Q186.945 403.604 186.945 410.734 Q186.945 417.84 188.75 421.405 Q190.579 424.946 194.19 424.946 Q197.825 424.946 199.63 421.405 Q201.459 417.84 201.459 410.734 Q201.459 403.604 199.63 400.062 Q197.825 396.498 194.19 396.498 M194.19 392.794 Q200 392.794 203.056 397.4 Q206.135 401.984 206.135 410.734 Q206.135 419.46 203.056 424.067 Q200 428.65 194.19 428.65 Q188.38 428.65 185.301 424.067 Q182.246 419.46 182.246 410.734 Q182.246 401.984 185.301 397.4 Q188.38 392.794 194.19 392.794 Z" fill="#000000" fill-rule="nonzero" fill-opacity="1" /><path clip-path="url(#clip580)" d="M194.19 71.9844 Q190.579 71.9844 188.75 75.5492 Q186.945 79.0908 186.945 86.2204 Q186.945 93.3268 188.75 96.8916 Q190.579 100.433 194.19 100.433 Q197.825 100.433 199.63 96.8916 Q201.459 93.3268 201.459 86.2204 Q201.459 79.0908 199.63 75.5492 Q197.825 71.9844 194.19 71.9844 M194.19 68.2807 Q200 68.2807 203.056 72.8871 Q206.135 77.4704 206.135 86.2204 Q206.135 94.9472 203.056 99.5537 Q200 104.137 194.19 104.137 Q188.38 104.137 185.301 99.5537 Q182.246 94.9472 182.246 86.2204 Q182.246 77.4704 185.301 72.8871 Q188.38 68.2807 194.19 68.2807 Z" fill="#000000" fill-rule="nonzero" fill-opacity="1" /><path clip-path="url(#clip580)" d="M19.7307 759.306 Q19.7307 761.852 21.5131 763.603 Q23.2636 765.354 25.8099 765.354 Q28.3244 765.354 30.0749 763.603 Q31.7937 761.852 31.7937 759.306 Q31.7937 756.76 30.0749 755.009 Q28.3244 753.259 25.8099 753.259 Q23.2955 753.259 21.5131 755.041 Q19.7307 756.792 19.7307 759.306 M15.6248 759.306 Q15.6248 757.269 16.4205 755.391 Q17.1844 753.513 18.6485 752.145 Q20.0808 750.681 21.895 749.949 Q23.7092 749.217 25.8099 749.217 Q30.0113 749.217 32.9395 752.177 Q35.8359 755.105 35.8359 759.37 Q35.8359 763.667 32.9713 766.531 Q30.1068 769.396 25.8099 769.396 Q21.5449 769.396 18.5848 766.468 Q15.6248 763.539 15.6248 759.306 Z" fill="#000000" fill-rule="nonzero" fill-opacity="1" /><path clip-path="url(#clip580)" d="M20.1444 701.028 L26.9239 701.028 Q23.9002 704.275 22.4043 707.967 Q20.9083 711.627 20.9083 715.765 Q20.9083 723.913 25.9054 728.242 Q30.8707 732.57 40.2919 732.57 Q49.6813 732.57 54.6784 728.242 Q59.6436 723.913 59.6436 715.765 Q59.6436 711.627 58.1477 707.967 Q56.6518 704.275 53.6281 701.028 L60.3439 701.028 Q62.6355 704.402 63.7814 708.19 Q64.9272 711.945 64.9272 716.147 Q64.9272 726.937 58.3387 733.143 Q51.7183 739.35 40.2919 739.35 Q28.8336 739.35 22.2451 733.143 Q15.6248 726.937 15.6248 716.147 Q15.6248 711.882 16.7706 708.126 Q17.8846 704.338 20.1444 701.028 Z" fill="#000000" fill-rule="nonzero" fill-opacity="1" /><polyline clip-path="url(#clip582)" style="stroke:#009af9; stroke-linecap:round; stroke-linejoin:round; stroke-width:12; stroke-opacity:1; fill:none" points="-1868.49,572.955 4463.38,572.955 "/>
<polyline clip-path="url(#clip582)" style="stroke:#e26f46; stroke-linecap:round; stroke-linejoin:round; stroke-width:12; stroke-opacity:1; fill:none" points="323.312,1384.24 729.201,410.699 40912.2,410.699 "/>
<polyline clip-path="url(#clip582)" style="stroke:#3da44d; stroke-linecap:round; stroke-linejoin:round; stroke-width:12; stroke-opacity:1; fill:none" points="323.312,1384.24 729.201,735.212 1540.98,735.212 2082.16,86.1857 176208,86.1857 "/>
<path clip-path="url(#clip580)" d="M312.489 300.469 L720.656 300.469 L720.656 93.1086 L312.489 93.1086  Z" fill="#ffffff" fill-rule="evenodd" fill-opacity="1"/>
<polyline clip-path="url(#clip580)" style="stroke:#000000; stroke-linecap:round; stroke-linejoin:round; stroke-width:4; stroke-opacity:1; fill:none" points="312.489,300.469 720.656,300.469 720.656,93.1086 312.489,93.1086 312.489,300.469 "/>
<polyline clip-path="url(#clip580)" style="stroke:#009af9; stroke-linecap:round; stroke-linejoin:round; stroke-width:12; stroke-opacity:1; fill:none" points="335.94,144.949 476.648,144.949 "/>
<path clip-path="url(#clip580)" d="M500.099 127.669 L506.396 127.669 L521.72 156.581 L521.72 127.669 L526.257 127.669 L526.257 162.229 L519.96 162.229 L504.636 133.317 L504.636 162.229 L500.099 162.229 L500.099 127.669 Z" fill="#000000" fill-rule="nonzero" fill-opacity="1" /><path clip-path="url(#clip580)" d="M545.423 139.289 Q541.997 139.289 540.007 141.974 Q538.016 144.636 538.016 149.289 Q538.016 153.942 539.984 156.627 Q541.974 159.289 545.423 159.289 Q548.826 159.289 550.817 156.604 Q552.808 153.918 552.808 149.289 Q552.808 144.682 550.817 141.997 Q548.826 139.289 545.423 139.289 M545.423 135.678 Q550.979 135.678 554.15 139.289 Q557.321 142.9 557.321 149.289 Q557.321 155.655 554.15 159.289 Q550.979 162.9 545.423 162.9 Q539.845 162.9 536.673 159.289 Q533.525 155.655 533.525 149.289 Q533.525 142.9 536.673 139.289 Q539.845 135.678 545.423 135.678 Z" fill="#000000" fill-rule="nonzero" fill-opacity="1" /><path clip-path="url(#clip580)" d="M594.474 140.284 Q593.756 139.868 592.9 139.682 Q592.067 139.474 591.048 139.474 Q587.437 139.474 585.493 141.835 Q583.571 144.173 583.571 148.571 L583.571 162.229 L579.289 162.229 L579.289 136.303 L583.571 136.303 L583.571 140.331 Q584.914 137.969 587.067 136.835 Q589.219 135.678 592.298 135.678 Q592.738 135.678 593.27 135.747 Q593.803 135.794 594.451 135.909 L594.474 140.284 Z" fill="#000000" fill-rule="nonzero" fill-opacity="1" /><path clip-path="url(#clip580)" d="M610.724 149.196 Q605.562 149.196 603.571 150.377 Q601.58 151.557 601.58 154.405 Q601.58 156.673 603.062 158.016 Q604.567 159.335 607.136 159.335 Q610.678 159.335 612.807 156.835 Q614.96 154.312 614.96 150.145 L614.96 149.196 L610.724 149.196 M619.219 147.437 L619.219 162.229 L614.96 162.229 L614.96 158.293 Q613.502 160.655 611.326 161.789 Q609.15 162.9 606.002 162.9 Q602.02 162.9 599.659 160.678 Q597.321 158.432 597.321 154.682 Q597.321 150.307 600.238 148.085 Q603.178 145.863 608.988 145.863 L614.96 145.863 L614.96 145.446 Q614.96 142.507 613.016 140.909 Q611.094 139.289 607.599 139.289 Q605.377 139.289 603.27 139.821 Q601.164 140.354 599.219 141.419 L599.219 137.483 Q601.557 136.581 603.756 136.141 Q605.955 135.678 608.039 135.678 Q613.664 135.678 616.441 138.594 Q619.219 141.511 619.219 147.437 Z" fill="#000000" fill-rule="nonzero" fill-opacity="1" /><path clip-path="url(#clip580)" d="M648.177 141.28 Q649.775 138.409 651.997 137.044 Q654.219 135.678 657.228 135.678 Q661.279 135.678 663.478 138.525 Q665.677 141.349 665.677 146.581 L665.677 162.229 L661.395 162.229 L661.395 146.719 Q661.395 142.993 660.075 141.187 Q658.756 139.382 656.048 139.382 Q652.738 139.382 650.816 141.581 Q648.895 143.78 648.895 147.576 L648.895 162.229 L644.613 162.229 L644.613 146.719 Q644.613 142.969 643.293 141.187 Q641.974 139.382 639.219 139.382 Q635.955 139.382 634.034 141.604 Q632.113 143.803 632.113 147.576 L632.113 162.229 L627.83 162.229 L627.83 136.303 L632.113 136.303 L632.113 140.331 Q633.571 137.946 635.608 136.812 Q637.645 135.678 640.446 135.678 Q643.27 135.678 645.238 137.113 Q647.228 138.548 648.177 141.28 Z" fill="#000000" fill-rule="nonzero" fill-opacity="1" /><path clip-path="url(#clip580)" d="M678.293 158.34 L678.293 172.09 L674.011 172.09 L674.011 136.303 L678.293 136.303 L678.293 140.238 Q679.636 137.923 681.673 136.812 Q683.733 135.678 686.58 135.678 Q691.302 135.678 694.242 139.428 Q697.205 143.178 697.205 149.289 Q697.205 155.4 694.242 159.15 Q691.302 162.9 686.58 162.9 Q683.733 162.9 681.673 161.789 Q679.636 160.655 678.293 158.34 M692.784 149.289 Q692.784 144.59 690.839 141.928 Q688.918 139.243 685.538 139.243 Q682.159 139.243 680.214 141.928 Q678.293 144.59 678.293 149.289 Q678.293 153.988 680.214 156.673 Q682.159 159.335 685.538 159.335 Q688.918 159.335 690.839 156.673 Q692.784 153.988 692.784 149.289 Z" fill="#000000" fill-rule="nonzero" fill-opacity="1" /><polyline clip-path="url(#clip580)" style="stroke:#e26f46; stroke-linecap:round; stroke-linejoin:round; stroke-width:12; stroke-opacity:1; fill:none" points="335.94,196.789 476.648,196.789 "/>
<path clip-path="url(#clip580)" d="M500.771 210.133 L508.41 210.133 L508.41 183.768 L500.099 185.435 L500.099 181.175 L508.363 179.509 L513.039 179.509 L513.039 210.133 L520.678 210.133 L520.678 214.069 L500.771 214.069 L500.771 210.133 Z" fill="#000000" fill-rule="nonzero" fill-opacity="1" /><path clip-path="url(#clip580)" d="M559.613 192.124 Q558.895 191.708 558.039 191.522 Q557.206 191.314 556.187 191.314 Q552.576 191.314 550.632 193.675 Q548.71 196.013 548.71 200.411 L548.71 214.069 L544.428 214.069 L544.428 188.143 L548.71 188.143 L548.71 192.171 Q550.053 189.809 552.206 188.675 Q554.358 187.518 557.437 187.518 Q557.877 187.518 558.409 187.587 Q558.942 187.634 559.59 187.749 L559.613 192.124 Z" fill="#000000" fill-rule="nonzero" fill-opacity="1" /><path clip-path="url(#clip580)" d="M575.863 201.036 Q570.701 201.036 568.71 202.217 Q566.719 203.397 566.719 206.245 Q566.719 208.513 568.201 209.856 Q569.706 211.175 572.275 211.175 Q575.817 211.175 577.946 208.675 Q580.099 206.152 580.099 201.985 L580.099 201.036 L575.863 201.036 M584.358 199.277 L584.358 214.069 L580.099 214.069 L580.099 210.133 Q578.641 212.495 576.465 213.629 Q574.289 214.74 571.141 214.74 Q567.159 214.74 564.798 212.518 Q562.46 210.272 562.46 206.522 Q562.46 202.147 565.377 199.925 Q568.317 197.703 574.127 197.703 L580.099 197.703 L580.099 197.286 Q580.099 194.347 578.155 192.749 Q576.233 191.129 572.738 191.129 Q570.516 191.129 568.409 191.661 Q566.303 192.194 564.358 193.259 L564.358 189.323 Q566.696 188.421 568.895 187.981 Q571.094 187.518 573.178 187.518 Q578.803 187.518 581.581 190.434 Q584.358 193.351 584.358 199.277 Z" fill="#000000" fill-rule="nonzero" fill-opacity="1" /><path clip-path="url(#clip580)" d="M613.316 193.12 Q614.914 190.249 617.136 188.884 Q619.358 187.518 622.367 187.518 Q626.418 187.518 628.617 190.365 Q630.816 193.189 630.816 198.421 L630.816 214.069 L626.534 214.069 L626.534 198.559 Q626.534 194.833 625.215 193.027 Q623.895 191.222 621.187 191.222 Q617.877 191.222 615.955 193.421 Q614.034 195.62 614.034 199.416 L614.034 214.069 L609.752 214.069 L609.752 198.559 Q609.752 194.809 608.432 193.027 Q607.113 191.222 604.358 191.222 Q601.094 191.222 599.173 193.444 Q597.252 195.643 597.252 199.416 L597.252 214.069 L592.969 214.069 L592.969 188.143 L597.252 188.143 L597.252 192.171 Q598.71 189.786 600.747 188.652 Q602.784 187.518 605.585 187.518 Q608.409 187.518 610.377 188.953 Q612.367 190.388 613.316 193.12 Z" fill="#000000" fill-rule="nonzero" fill-opacity="1" /><path clip-path="url(#clip580)" d="M643.432 210.18 L643.432 223.93 L639.15 223.93 L639.15 188.143 L643.432 188.143 L643.432 192.078 Q644.775 189.763 646.812 188.652 Q648.872 187.518 651.719 187.518 Q656.441 187.518 659.381 191.268 Q662.344 195.018 662.344 201.129 Q662.344 207.24 659.381 210.99 Q656.441 214.74 651.719 214.74 Q648.872 214.74 646.812 213.629 Q644.775 212.495 643.432 210.18 M657.923 201.129 Q657.923 196.43 655.978 193.768 Q654.057 191.083 650.677 191.083 Q647.298 191.083 645.353 193.768 Q643.432 196.43 643.432 201.129 Q643.432 205.828 645.353 208.513 Q647.298 211.175 650.677 211.175 Q654.057 211.175 655.978 208.513 Q657.923 205.828 657.923 201.129 Z" fill="#000000" fill-rule="nonzero" fill-opacity="1" /><polyline clip-path="url(#clip580)" style="stroke:#3da44d; stroke-linecap:round; stroke-linejoin:round; stroke-width:12; stroke-opacity:1; fill:none" points="335.94,248.629 476.648,248.629 "/>
<path clip-path="url(#clip580)" d="M505.724 261.973 L522.044 261.973 L522.044 265.909 L500.099 265.909 L500.099 261.973 Q502.762 259.219 507.345 254.589 Q511.951 249.936 513.132 248.594 Q515.377 246.071 516.257 244.335 Q517.16 242.575 517.16 240.886 Q517.16 238.131 515.215 236.395 Q513.294 234.659 510.192 234.659 Q507.993 234.659 505.539 235.423 Q503.109 236.187 500.331 237.737 L500.331 233.015 Q503.155 231.881 505.609 231.302 Q508.062 230.724 510.099 230.724 Q515.47 230.724 518.664 233.409 Q521.859 236.094 521.859 240.585 Q521.859 242.714 521.048 244.636 Q520.261 246.534 518.155 249.126 Q517.576 249.798 514.474 253.015 Q511.373 256.21 505.724 261.973 Z" fill="#000000" fill-rule="nonzero" fill-opacity="1" /><path clip-path="url(#clip580)" d="M561.349 243.964 Q560.632 243.548 559.775 243.362 Q558.942 243.154 557.923 243.154 Q554.312 243.154 552.368 245.515 Q550.446 247.853 550.446 252.251 L550.446 265.909 L546.164 265.909 L546.164 239.983 L550.446 239.983 L550.446 244.011 Q551.789 241.649 553.942 240.515 Q556.095 239.358 559.173 239.358 Q559.613 239.358 560.145 239.427 Q560.678 239.474 561.326 239.589 L561.349 243.964 Z" fill="#000000" fill-rule="nonzero" fill-opacity="1" /><path clip-path="url(#clip580)" d="M577.599 252.876 Q572.437 252.876 570.446 254.057 Q568.456 255.237 568.456 258.085 Q568.456 260.353 569.937 261.696 Q571.442 263.015 574.011 263.015 Q577.553 263.015 579.682 260.515 Q581.835 257.992 581.835 253.825 L581.835 252.876 L577.599 252.876 M586.094 251.117 L586.094 265.909 L581.835 265.909 L581.835 261.973 Q580.377 264.335 578.201 265.469 Q576.025 266.58 572.877 266.58 Q568.895 266.58 566.534 264.358 Q564.196 262.112 564.196 258.362 Q564.196 253.987 567.113 251.765 Q570.053 249.543 575.863 249.543 L581.835 249.543 L581.835 249.126 Q581.835 246.187 579.891 244.589 Q577.969 242.969 574.474 242.969 Q572.252 242.969 570.145 243.501 Q568.039 244.034 566.095 245.099 L566.095 241.163 Q568.432 240.261 570.632 239.821 Q572.831 239.358 574.914 239.358 Q580.539 239.358 583.317 242.274 Q586.094 245.191 586.094 251.117 Z" fill="#000000" fill-rule="nonzero" fill-opacity="1" /><path clip-path="url(#clip580)" d="M615.053 244.96 Q616.65 242.089 618.872 240.724 Q621.094 239.358 624.103 239.358 Q628.154 239.358 630.353 242.205 Q632.552 245.029 632.552 250.261 L632.552 265.909 L628.27 265.909 L628.27 250.399 Q628.27 246.673 626.951 244.867 Q625.631 243.062 622.923 243.062 Q619.613 243.062 617.691 245.261 Q615.77 247.46 615.77 251.256 L615.77 265.909 L611.488 265.909 L611.488 250.399 Q611.488 246.649 610.168 244.867 Q608.849 243.062 606.094 243.062 Q602.83 243.062 600.909 245.284 Q598.988 247.483 598.988 251.256 L598.988 265.909 L594.705 265.909 L594.705 239.983 L598.988 239.983 L598.988 244.011 Q600.446 241.626 602.483 240.492 Q604.52 239.358 607.321 239.358 Q610.145 239.358 612.113 240.793 Q614.104 242.228 615.053 244.96 Z" fill="#000000" fill-rule="nonzero" fill-opacity="1" /><path clip-path="url(#clip580)" d="M645.168 262.02 L645.168 275.77 L640.886 275.77 L640.886 239.983 L645.168 239.983 L645.168 243.918 Q646.511 241.603 648.548 240.492 Q650.608 239.358 653.455 239.358 Q658.177 239.358 661.117 243.108 Q664.08 246.858 664.08 252.969 Q664.08 259.08 661.117 262.83 Q658.177 266.58 653.455 266.58 Q650.608 266.58 648.548 265.469 Q646.511 264.335 645.168 262.02 M659.659 252.969 Q659.659 248.27 657.714 245.608 Q655.793 242.923 652.413 242.923 Q649.034 242.923 647.089 245.608 Q645.168 248.27 645.168 252.969 Q645.168 257.668 647.089 260.353 Q649.034 263.015 652.413 263.015 Q655.793 263.015 657.714 260.353 Q659.659 257.668 659.659 252.969 Z" fill="#000000" fill-rule="nonzero" fill-opacity="1" /><path clip-path="url(#clip580)" d="M687.668 240.747 L687.668 244.774 Q685.862 243.849 683.918 243.386 Q681.974 242.923 679.89 242.923 Q676.719 242.923 675.122 243.895 Q673.548 244.867 673.548 246.811 Q673.548 248.293 674.682 249.149 Q675.816 249.983 679.242 250.747 L680.7 251.071 Q685.237 252.043 687.136 253.825 Q689.057 255.585 689.057 258.756 Q689.057 262.367 686.186 264.473 Q683.339 266.58 678.339 266.58 Q676.256 266.58 673.987 266.163 Q671.742 265.77 669.242 264.96 L669.242 260.561 Q671.603 261.788 673.895 262.413 Q676.187 263.015 678.432 263.015 Q681.441 263.015 683.061 261.997 Q684.682 260.955 684.682 259.08 Q684.682 257.344 683.501 256.418 Q682.344 255.492 678.386 254.636 L676.904 254.288 Q672.946 253.455 671.187 251.742 Q669.427 250.006 669.427 246.997 Q669.427 243.339 672.02 241.349 Q674.612 239.358 679.381 239.358 Q681.742 239.358 683.825 239.705 Q685.909 240.052 687.668 240.747 Z" fill="#000000" fill-rule="nonzero" fill-opacity="1" /></svg>
