<?xml version="1.0" encoding="utf-8"?>
<svg xmlns="http://www.w3.org/2000/svg" xmlns:xlink="http://www.w3.org/1999/xlink" width="600" height="400" viewBox="0 0 2400 1600">
<defs>
  <clipPath id="clip020">
    <rect x="0" y="0" width="2400" height="1600"/>
  </clipPath>
</defs>
<path clip-path="url(#clip020)" d="M0 1600 L2400 1600 L2400 0 L0 0  Z" fill="#ffffff" fill-rule="evenodd" fill-opacity="1"/>
<defs>
  <clipPath id="clip021">
    <rect x="232" y="47" width="2121" height="1377"/>
  </clipPath>
</defs>
<path clip-path="url(#clip020)" d="M232.389 1423.18 L2352.76 1423.18 L2352.76 47.2441 L232.389 47.2441  Z" fill="#ffffff" fill-rule="evenodd" fill-opacity="1"/>
<polyline clip-path="url(#clip021)" style="stroke:#000000; stroke-linecap:round; stroke-linejoin:round; stroke-width:2; stroke-opacity:0.1; fill:none" points="292.4,1423.18 292.4,47.2441 "/>
<polyline clip-path="url(#clip021)" style="stroke:#000000; stroke-linecap:round; stroke-linejoin:round; stroke-width:2; stroke-opacity:0.1; fill:none" points="596.25,1423.18 596.25,47.2441 "/>
<polyline clip-path="url(#clip021)" style="stroke:#000000; stroke-linecap:round; stroke-linejoin:round; stroke-width:2; stroke-opacity:0.1; fill:none" points="900.1,1423.18 900.1,47.2441 "/>
<polyline clip-path="url(#clip021)" style="stroke:#000000; stroke-linecap:round; stroke-linejoin:round; stroke-width:2; stroke-opacity:0.1; fill:none" points="1203.95,1423.18 1203.95,47.2441 "/>
<polyline clip-path="url(#clip021)" style="stroke:#000000; stroke-linecap:round; stroke-linejoin:round; stroke-width:2; stroke-opacity:0.1; fill:none" points="1507.8,1423.18 1507.8,47.2441 "/>
<polyline clip-path="url(#clip021)" style="stroke:#000000; stroke-linecap:round; stroke-linejoin:round; stroke-width:2; stroke-opacity:0.1; fill:none" points="1811.65,1423.18 1811.65,47.2441 "/>
<polyline clip-path="url(#clip021)" style="stroke:#000000; stroke-linecap:round; stroke-linejoin:round; stroke-width:2; stroke-opacity:0.1; fill:none" points="2115.5,1423.18 2115.5,47.2441 "/>
<polyline clip-path="url(#clip021)" style="stroke:#000000; stroke-linecap:round; stroke-linejoin:round; stroke-width:2; stroke-opacity:0.1; fill:none" points="232.389,1353.7 2352.76,1353.7 "/>
<polyline clip-path="url(#clip021)" style="stroke:#000000; stroke-linecap:round; stroke-linejoin:round; stroke-width:2; stroke-opacity:0.1; fill:none" points="232.389,1048.27 2352.76,1048.27 "/>
<polyline clip-path="url(#clip021)" style="stroke:#000000; stroke-linecap:round; stroke-linejoin:round; stroke-width:2; stroke-opacity:0.1; fill:none" points="232.389,742.848 2352.76,742.848 "/>
<polyline clip-path="url(#clip021)" style="stroke:#000000; stroke-linecap:round; stroke-linejoin:round; stroke-width:2; stroke-opacity:0.1; fill:none" points="232.389,437.423 2352.76,437.423 "/>
<polyline clip-path="url(#clip021)" style="stroke:#000000; stroke-linecap:round; stroke-linejoin:round; stroke-width:2; stroke-opacity:0.1; fill:none" points="232.389,131.999 2352.76,131.999 "/>
<polyline clip-path="url(#clip020)" style="stroke:#000000; stroke-linecap:round; stroke-linejoin:round; stroke-width:4; stroke-opacity:1; fill:none" points="232.389,1423.18 2352.76,1423.18 "/>
<polyline clip-path="url(#clip020)" style="stroke:#000000; stroke-linecap:round; stroke-linejoin:round; stroke-width:4; stroke-opacity:1; fill:none" points="292.4,1423.18 292.4,1404.28 "/>
<polyline clip-path="url(#clip020)" style="stroke:#000000; stroke-linecap:round; stroke-linejoin:round; stroke-width:4; stroke-opacity:1; fill:none" points="596.25,1423.18 596.25,1404.28 "/>
<polyline clip-path="url(#clip020)" style="stroke:#000000; stroke-linecap:round; stroke-linejoin:round; stroke-width:4; stroke-opacity:1; fill:none" points="900.1,1423.18 900.1,1404.28 "/>
<polyline clip-path="url(#clip020)" style="stroke:#000000; stroke-linecap:round; stroke-linejoin:round; stroke-width:4; stroke-opacity:1; fill:none" points="1203.95,1423.18 1203.95,1404.28 "/>
<polyline clip-path="url(#clip020)" style="stroke:#000000; stroke-linecap:round; stroke-linejoin:round; stroke-width:4; stroke-opacity:1; fill:none" points="1507.8,1423.18 1507.8,1404.28 "/>
<polyline clip-path="url(#clip020)" style="stroke:#000000; stroke-linecap:round; stroke-linejoin:round; stroke-width:4; stroke-opacity:1; fill:none" points="1811.65,1423.18 1811.65,1404.28 "/>
<polyline clip-path="url(#clip020)" style="stroke:#000000; stroke-linecap:round; stroke-linejoin:round; stroke-width:4; stroke-opacity:1; fill:none" points="2115.5,1423.18 2115.5,1404.28 "/>
<path clip-path="url(#clip020)" d="M292.4 1454.1 Q288.789 1454.1 286.96 1457.66 Q285.154 1461.2 285.154 1468.33 Q285.154 1475.44 286.96 1479.01 Q288.789 1482.55 292.4 1482.55 Q296.034 1482.55 297.84 1479.01 Q299.668 1475.44 299.668 1468.33 Q299.668 1461.2 297.84 1457.66 Q296.034 1454.1 292.4 1454.1 M292.4 1450.39 Q298.21 1450.39 301.265 1455 Q304.344 1459.58 304.344 1468.33 Q304.344 1477.06 301.265 1481.67 Q298.21 1486.25 292.4 1486.25 Q286.59 1486.25 283.511 1481.67 Q280.455 1477.06 280.455 1468.33 Q280.455 1459.58 283.511 1455 Q286.59 1450.39 292.4 1450.39 Z" fill="#000000" fill-rule="nonzero" fill-opacity="1" /><path clip-path="url(#clip020)" d="M590.903 1481.64 L607.222 1481.64 L607.222 1485.58 L585.278 1485.58 L585.278 1481.64 Q587.94 1478.89 592.523 1474.26 Q597.129 1469.61 598.31 1468.27 Q600.555 1465.74 601.435 1464.01 Q602.338 1462.25 602.338 1460.56 Q602.338 1457.8 600.393 1456.07 Q598.472 1454.33 595.37 1454.33 Q593.171 1454.33 590.717 1455.09 Q588.287 1455.86 585.509 1457.41 L585.509 1452.69 Q588.333 1451.55 590.787 1450.97 Q593.24 1450.39 595.278 1450.39 Q600.648 1450.39 603.842 1453.08 Q607.037 1455.77 607.037 1460.26 Q607.037 1462.39 606.227 1464.31 Q605.439 1466.2 603.333 1468.8 Q602.754 1469.47 599.652 1472.69 Q596.551 1475.88 590.903 1481.64 Z" fill="#000000" fill-rule="nonzero" fill-opacity="1" /><path clip-path="url(#clip020)" d="M903.109 1455.09 L891.303 1473.54 L903.109 1473.54 L903.109 1455.09 M901.882 1451.02 L907.762 1451.02 L907.762 1473.54 L912.692 1473.54 L912.692 1477.43 L907.762 1477.43 L907.762 1485.58 L903.109 1485.58 L903.109 1477.43 L887.507 1477.43 L887.507 1472.92 L901.882 1451.02 Z" fill="#000000" fill-rule="nonzero" fill-opacity="1" /><path clip-path="url(#clip020)" d="M1204.35 1466.44 Q1201.21 1466.44 1199.35 1468.59 Q1197.53 1470.74 1197.53 1474.49 Q1197.53 1478.22 1199.35 1480.39 Q1201.21 1482.55 1204.35 1482.55 Q1207.5 1482.55 1209.33 1480.39 Q1211.18 1478.22 1211.18 1474.49 Q1211.18 1470.74 1209.33 1468.59 Q1207.5 1466.44 1204.35 1466.44 M1213.64 1451.78 L1213.64 1456.04 Q1211.88 1455.21 1210.07 1454.77 Q1208.29 1454.33 1206.53 1454.33 Q1201.9 1454.33 1199.45 1457.45 Q1197.02 1460.58 1196.67 1466.9 Q1198.04 1464.89 1200.1 1463.82 Q1202.16 1462.73 1204.63 1462.73 Q1209.84 1462.73 1212.85 1465.9 Q1215.88 1469.05 1215.88 1474.49 Q1215.88 1479.82 1212.73 1483.03 Q1209.59 1486.25 1204.35 1486.25 Q1198.36 1486.25 1195.19 1481.67 Q1192.02 1477.06 1192.02 1468.33 Q1192.02 1460.14 1195.91 1455.28 Q1199.79 1450.39 1206.35 1450.39 Q1208.1 1450.39 1209.89 1450.74 Q1211.69 1451.09 1213.64 1451.78 Z" fill="#000000" fill-rule="nonzero" fill-opacity="1" /><path clip-path="url(#clip020)" d="M1507.8 1469.17 Q1504.47 1469.17 1502.55 1470.95 Q1500.65 1472.73 1500.65 1475.86 Q1500.65 1478.98 1502.55 1480.77 Q1504.47 1482.55 1507.8 1482.55 Q1511.13 1482.55 1513.05 1480.77 Q1514.98 1478.96 1514.98 1475.86 Q1514.98 1472.73 1513.05 1470.95 Q1511.16 1469.17 1507.8 1469.17 M1503.12 1467.18 Q1500.11 1466.44 1498.42 1464.38 Q1496.76 1462.32 1496.76 1459.35 Q1496.76 1455.21 1499.7 1452.8 Q1502.66 1450.39 1507.8 1450.39 Q1512.96 1450.39 1515.9 1452.8 Q1518.84 1455.21 1518.84 1459.35 Q1518.84 1462.32 1517.15 1464.38 Q1515.48 1466.44 1512.5 1467.18 Q1515.88 1467.96 1517.75 1470.26 Q1519.65 1472.55 1519.65 1475.86 Q1519.65 1480.88 1516.57 1483.57 Q1513.52 1486.25 1507.8 1486.25 Q1502.08 1486.25 1499 1483.57 Q1495.95 1480.88 1495.95 1475.86 Q1495.95 1472.55 1497.85 1470.26 Q1499.74 1467.96 1503.12 1467.18 M1501.41 1459.79 Q1501.41 1462.48 1503.08 1463.98 Q1504.77 1465.49 1507.8 1465.49 Q1510.81 1465.49 1512.5 1463.98 Q1514.21 1462.48 1514.21 1459.79 Q1514.21 1457.11 1512.5 1455.6 Q1510.81 1454.1 1507.8 1454.1 Q1504.77 1454.1 1503.08 1455.6 Q1501.41 1457.11 1501.41 1459.79 Z" fill="#000000" fill-rule="nonzero" fill-opacity="1" /><path clip-path="url(#clip020)" d="M1786.34 1481.64 L1793.98 1481.64 L1793.98 1455.28 L1785.67 1456.95 L1785.67 1452.69 L1793.93 1451.02 L1798.61 1451.02 L1798.61 1481.64 L1806.24 1481.64 L1806.24 1485.58 L1786.34 1485.58 L1786.34 1481.64 Z" fill="#000000" fill-rule="nonzero" fill-opacity="1" /><path clip-path="url(#clip020)" d="M1825.69 1454.1 Q1822.08 1454.1 1820.25 1457.66 Q1818.44 1461.2 1818.44 1468.33 Q1818.44 1475.44 1820.25 1479.01 Q1822.08 1482.55 1825.69 1482.55 Q1829.32 1482.55 1831.13 1479.01 Q1832.96 1475.44 1832.96 1468.33 Q1832.96 1461.2 1831.13 1457.66 Q1829.32 1454.1 1825.69 1454.1 M1825.69 1450.39 Q1831.5 1450.39 1834.55 1455 Q1837.63 1459.58 1837.63 1468.33 Q1837.63 1477.06 1834.55 1481.67 Q1831.5 1486.25 1825.69 1486.25 Q1819.88 1486.25 1816.8 1481.67 Q1813.74 1477.06 1813.74 1468.33 Q1813.74 1459.58 1816.8 1455 Q1819.88 1450.39 1825.69 1450.39 Z" fill="#000000" fill-rule="nonzero" fill-opacity="1" /><path clip-path="url(#clip020)" d="M2090.99 1481.64 L2098.62 1481.64 L2098.62 1455.28 L2090.31 1456.95 L2090.31 1452.69 L2098.58 1451.02 L2103.25 1451.02 L2103.25 1481.64 L2110.89 1481.64 L2110.89 1485.58 L2090.99 1485.58 L2090.99 1481.64 Z" fill="#000000" fill-rule="nonzero" fill-opacity="1" /><path clip-path="url(#clip020)" d="M2124.37 1481.64 L2140.68 1481.64 L2140.68 1485.58 L2118.74 1485.58 L2118.74 1481.64 Q2121.4 1478.89 2125.99 1474.26 Q2130.59 1469.61 2131.77 1468.27 Q2134.02 1465.74 2134.9 1464.01 Q2135.8 1462.25 2135.8 1460.56 Q2135.8 1457.8 2133.86 1456.07 Q2131.93 1454.33 2128.83 1454.33 Q2126.63 1454.33 2124.18 1455.09 Q2121.75 1455.86 2118.97 1457.41 L2118.97 1452.69 Q2121.8 1451.55 2124.25 1450.97 Q2126.7 1450.39 2128.74 1450.39 Q2134.11 1450.39 2137.31 1453.08 Q2140.5 1455.77 2140.5 1460.26 Q2140.5 1462.39 2139.69 1464.31 Q2138.9 1466.2 2136.8 1468.8 Q2136.22 1469.47 2133.12 1472.69 Q2130.01 1475.88 2124.37 1481.64 Z" fill="#000000" fill-rule="nonzero" fill-opacity="1" /><path clip-path="url(#clip020)" d="M1291.33 1546.53 L1291.33 1568.04 L1285.47 1568.04 L1285.47 1546.72 Q1285.47 1541.66 1283.5 1539.14 Q1281.53 1536.63 1277.58 1536.63 Q1272.84 1536.63 1270.1 1539.65 Q1267.36 1542.68 1267.36 1547.9 L1267.36 1568.04 L1261.48 1568.04 L1261.48 1518.52 L1267.36 1518.52 L1267.36 1537.93 Q1269.47 1534.72 1272.3 1533.13 Q1275.16 1531.54 1278.89 1531.54 Q1285.03 1531.54 1288.18 1535.36 Q1291.33 1539.14 1291.33 1546.53 Z" fill="#000000" fill-rule="nonzero" fill-opacity="1" /><path clip-path="url(#clip020)" d="M1323.67 1537.87 Q1322.68 1537.3 1321.5 1537.04 Q1320.36 1536.76 1318.96 1536.76 Q1313.99 1536.76 1311.32 1540 Q1308.68 1543.22 1308.68 1549.27 L1308.68 1568.04 L1302.79 1568.04 L1302.79 1532.4 L1308.68 1532.4 L1308.68 1537.93 Q1310.52 1534.69 1313.48 1533.13 Q1316.44 1531.54 1320.68 1531.54 Q1321.28 1531.54 1322.01 1531.63 Q1322.75 1531.7 1323.64 1531.85 L1323.67 1537.87 Z" fill="#000000" fill-rule="nonzero" fill-opacity="1" /><polyline clip-path="url(#clip020)" style="stroke:#000000; stroke-linecap:round; stroke-linejoin:round; stroke-width:4; stroke-opacity:1; fill:none" points="232.389,1423.18 232.389,47.2441 "/>
<polyline clip-path="url(#clip020)" style="stroke:#000000; stroke-linecap:round; stroke-linejoin:round; stroke-width:4; stroke-opacity:1; fill:none" points="232.389,1353.7 251.287,1353.7 "/>
<polyline clip-path="url(#clip020)" style="stroke:#000000; stroke-linecap:round; stroke-linejoin:round; stroke-width:4; stroke-opacity:1; fill:none" points="232.389,1048.27 251.287,1048.27 "/>
<polyline clip-path="url(#clip020)" style="stroke:#000000; stroke-linecap:round; stroke-linejoin:round; stroke-width:4; stroke-opacity:1; fill:none" points="232.389,742.848 251.287,742.848 "/>
<polyline clip-path="url(#clip020)" style="stroke:#000000; stroke-linecap:round; stroke-linejoin:round; stroke-width:4; stroke-opacity:1; fill:none" points="232.389,437.423 251.287,437.423 "/>
<polyline clip-path="url(#clip020)" style="stroke:#000000; stroke-linecap:round; stroke-linejoin:round; stroke-width:4; stroke-opacity:1; fill:none" points="232.389,131.999 251.287,131.999 "/>
<path clip-path="url(#clip020)" d="M114.931 1367.04 L122.57 1367.04 L122.57 1340.68 L114.26 1342.34 L114.26 1338.08 L122.524 1336.42 L127.2 1336.42 L127.2 1367.04 L134.839 1367.04 L134.839 1370.98 L114.931 1370.98 L114.931 1367.04 Z" fill="#000000" fill-rule="nonzero" fill-opacity="1" /><path clip-path="url(#clip020)" d="M154.283 1339.49 Q150.672 1339.49 148.843 1343.06 Q147.038 1346.6 147.038 1353.73 Q147.038 1360.84 148.843 1364.4 Q150.672 1367.94 154.283 1367.94 Q157.917 1367.94 159.723 1364.4 Q161.552 1360.84 161.552 1353.73 Q161.552 1346.6 159.723 1343.06 Q157.917 1339.49 154.283 1339.49 M154.283 1335.79 Q160.093 1335.79 163.149 1340.4 Q166.227 1344.98 166.227 1353.73 Q166.227 1362.46 163.149 1367.06 Q160.093 1371.65 154.283 1371.65 Q148.473 1371.65 145.394 1367.06 Q142.339 1362.46 142.339 1353.73 Q142.339 1344.98 145.394 1340.4 Q148.473 1335.79 154.283 1335.79 Z" fill="#000000" fill-rule="nonzero" fill-opacity="1" /><path clip-path="url(#clip020)" d="M184.445 1339.49 Q180.834 1339.49 179.005 1343.06 Q177.2 1346.6 177.2 1353.73 Q177.2 1360.84 179.005 1364.4 Q180.834 1367.94 184.445 1367.94 Q188.079 1367.94 189.885 1364.4 Q191.713 1360.84 191.713 1353.73 Q191.713 1346.6 189.885 1343.06 Q188.079 1339.49 184.445 1339.49 M184.445 1335.79 Q190.255 1335.79 193.311 1340.4 Q196.389 1344.98 196.389 1353.73 Q196.389 1362.46 193.311 1367.06 Q190.255 1371.65 184.445 1371.65 Q178.635 1371.65 175.556 1367.06 Q172.501 1362.46 172.501 1353.73 Q172.501 1344.98 175.556 1340.4 Q178.635 1335.79 184.445 1335.79 Z" fill="#000000" fill-rule="nonzero" fill-opacity="1" /><path clip-path="url(#clip020)" d="M114.931 1061.62 L122.57 1061.62 L122.57 1035.25 L114.26 1036.92 L114.26 1032.66 L122.524 1030.99 L127.2 1030.99 L127.2 1061.62 L134.839 1061.62 L134.839 1065.55 L114.931 1065.55 L114.931 1061.62 Z" fill="#000000" fill-rule="nonzero" fill-opacity="1" /><path clip-path="url(#clip020)" d="M148.311 1061.62 L164.63 1061.62 L164.63 1065.55 L142.686 1065.55 L142.686 1061.62 Q145.348 1058.86 149.931 1054.23 Q154.538 1049.58 155.718 1048.24 Q157.964 1045.71 158.843 1043.98 Q159.746 1042.22 159.746 1040.53 Q159.746 1037.77 157.802 1036.04 Q155.88 1034.3 152.778 1034.3 Q150.579 1034.3 148.126 1035.07 Q145.695 1035.83 142.917 1037.38 L142.917 1032.66 Q145.741 1031.52 148.195 1030.95 Q150.649 1030.37 152.686 1030.37 Q158.056 1030.37 161.251 1033.05 Q164.445 1035.74 164.445 1040.23 Q164.445 1042.36 163.635 1044.28 Q162.848 1046.18 160.741 1048.77 Q160.163 1049.44 157.061 1052.66 Q153.959 1055.85 148.311 1061.62 Z" fill="#000000" fill-rule="nonzero" fill-opacity="1" /><path clip-path="url(#clip020)" d="M184.445 1034.07 Q180.834 1034.07 179.005 1037.64 Q177.2 1041.18 177.2 1048.31 Q177.2 1055.41 179.005 1058.98 Q180.834 1062.52 184.445 1062.52 Q188.079 1062.52 189.885 1058.98 Q191.713 1055.41 191.713 1048.31 Q191.713 1041.18 189.885 1037.64 Q188.079 1034.07 184.445 1034.07 M184.445 1030.37 Q190.255 1030.37 193.311 1034.97 Q196.389 1039.56 196.389 1048.31 Q196.389 1057.03 193.311 1061.64 Q190.255 1066.22 184.445 1066.22 Q178.635 1066.22 175.556 1061.64 Q172.501 1057.03 172.501 1048.31 Q172.501 1039.56 175.556 1034.97 Q178.635 1030.37 184.445 1030.37 Z" fill="#000000" fill-rule="nonzero" fill-opacity="1" /><path clip-path="url(#clip020)" d="M114.931 756.192 L122.57 756.192 L122.57 729.827 L114.26 731.493 L114.26 727.234 L122.524 725.568 L127.2 725.568 L127.2 756.192 L134.839 756.192 L134.839 760.128 L114.931 760.128 L114.931 756.192 Z" fill="#000000" fill-rule="nonzero" fill-opacity="1" /><path clip-path="url(#clip020)" d="M157.13 729.642 L145.325 748.091 L157.13 748.091 L157.13 729.642 M155.903 725.568 L161.783 725.568 L161.783 748.091 L166.714 748.091 L166.714 751.979 L161.783 751.979 L161.783 760.128 L157.13 760.128 L157.13 751.979 L141.529 751.979 L141.529 747.466 L155.903 725.568 Z" fill="#000000" fill-rule="nonzero" fill-opacity="1" /><path clip-path="url(#clip020)" d="M184.445 728.646 Q180.834 728.646 179.005 732.211 Q177.2 735.753 177.2 742.882 Q177.2 749.989 179.005 753.554 Q180.834 757.095 184.445 757.095 Q188.079 757.095 189.885 753.554 Q191.713 749.989 191.713 742.882 Q191.713 735.753 189.885 732.211 Q188.079 728.646 184.445 728.646 M184.445 724.943 Q190.255 724.943 193.311 729.549 Q196.389 734.132 196.389 742.882 Q196.389 751.609 193.311 756.216 Q190.255 760.799 184.445 760.799 Q178.635 760.799 175.556 756.216 Q172.501 751.609 172.501 742.882 Q172.501 734.132 175.556 729.549 Q178.635 724.943 184.445 724.943 Z" fill="#000000" fill-rule="nonzero" fill-opacity="1" /><path clip-path="url(#clip020)" d="M114.931 450.768 L122.57 450.768 L122.57 424.403 L114.26 426.069 L114.26 421.81 L122.524 420.143 L127.2 420.143 L127.2 450.768 L134.839 450.768 L134.839 454.703 L114.931 454.703 L114.931 450.768 Z" fill="#000000" fill-rule="nonzero" fill-opacity="1" /><path clip-path="url(#clip020)" d="M154.862 435.56 Q151.714 435.56 149.862 437.713 Q148.033 439.866 148.033 443.616 Q148.033 447.342 149.862 449.518 Q151.714 451.671 154.862 451.671 Q158.01 451.671 159.839 449.518 Q161.69 447.342 161.69 443.616 Q161.69 439.866 159.839 437.713 Q158.01 435.56 154.862 435.56 M164.144 420.907 L164.144 425.167 Q162.385 424.333 160.579 423.893 Q158.797 423.454 157.038 423.454 Q152.408 423.454 149.954 426.579 Q147.524 429.704 147.177 436.023 Q148.542 434.009 150.603 432.944 Q152.663 431.856 155.14 431.856 Q160.348 431.856 163.357 435.028 Q166.39 438.176 166.39 443.616 Q166.39 448.94 163.241 452.157 Q160.093 455.375 154.862 455.375 Q148.866 455.375 145.695 450.791 Q142.524 446.185 142.524 437.458 Q142.524 429.264 146.413 424.403 Q150.302 419.518 156.853 419.518 Q158.612 419.518 160.394 419.866 Q162.2 420.213 164.144 420.907 Z" fill="#000000" fill-rule="nonzero" fill-opacity="1" /><path clip-path="url(#clip020)" d="M184.445 423.222 Q180.834 423.222 179.005 426.787 Q177.2 430.329 177.2 437.458 Q177.2 444.565 179.005 448.129 Q180.834 451.671 184.445 451.671 Q188.079 451.671 189.885 448.129 Q191.713 444.565 191.713 437.458 Q191.713 430.329 189.885 426.787 Q188.079 423.222 184.445 423.222 M184.445 419.518 Q190.255 419.518 193.311 424.125 Q196.389 428.708 196.389 437.458 Q196.389 446.185 193.311 450.791 Q190.255 455.375 184.445 455.375 Q178.635 455.375 175.556 450.791 Q172.501 446.185 172.501 437.458 Q172.501 428.708 175.556 424.125 Q178.635 419.518 184.445 419.518 Z" fill="#000000" fill-rule="nonzero" fill-opacity="1" /><path clip-path="url(#clip020)" d="M114.931 145.344 L122.57 145.344 L122.57 118.979 L114.26 120.645 L114.26 116.386 L122.524 114.719 L127.2 114.719 L127.2 145.344 L134.839 145.344 L134.839 149.279 L114.931 149.279 L114.931 145.344 Z" fill="#000000" fill-rule="nonzero" fill-opacity="1" /><path clip-path="url(#clip020)" d="M154.283 132.867 Q150.95 132.867 149.028 134.65 Q147.13 136.432 147.13 139.557 Q147.13 142.682 149.028 144.465 Q150.95 146.247 154.283 146.247 Q157.616 146.247 159.538 144.465 Q161.459 142.659 161.459 139.557 Q161.459 136.432 159.538 134.65 Q157.64 132.867 154.283 132.867 M149.607 130.877 Q146.598 130.136 144.908 128.076 Q143.241 126.016 143.241 123.053 Q143.241 118.909 146.181 116.502 Q149.144 114.094 154.283 114.094 Q159.445 114.094 162.385 116.502 Q165.325 118.909 165.325 123.053 Q165.325 126.016 163.635 128.076 Q161.968 130.136 158.982 130.877 Q162.362 131.664 164.237 133.955 Q166.135 136.247 166.135 139.557 Q166.135 144.58 163.056 147.265 Q160.001 149.951 154.283 149.951 Q148.566 149.951 145.487 147.265 Q142.431 144.58 142.431 139.557 Q142.431 136.247 144.329 133.955 Q146.228 131.664 149.607 130.877 M147.894 123.492 Q147.894 126.178 149.561 127.682 Q151.251 129.187 154.283 129.187 Q157.292 129.187 158.982 127.682 Q160.695 126.178 160.695 123.492 Q160.695 120.807 158.982 119.303 Q157.292 117.798 154.283 117.798 Q151.251 117.798 149.561 119.303 Q147.894 120.807 147.894 123.492 Z" fill="#000000" fill-rule="nonzero" fill-opacity="1" /><path clip-path="url(#clip020)" d="M184.445 117.798 Q180.834 117.798 179.005 121.363 Q177.2 124.904 177.2 132.034 Q177.2 139.14 179.005 142.705 Q180.834 146.247 184.445 146.247 Q188.079 146.247 189.885 142.705 Q191.713 139.14 191.713 132.034 Q191.713 124.904 189.885 121.363 Q188.079 117.798 184.445 117.798 M184.445 114.094 Q190.255 114.094 193.311 118.701 Q196.389 123.284 196.389 132.034 Q196.389 140.761 193.311 145.367 Q190.255 149.951 184.445 149.951 Q178.635 149.951 175.556 145.367 Q172.501 140.761 172.501 132.034 Q172.501 123.284 175.556 118.701 Q178.635 114.094 184.445 114.094 Z" fill="#000000" fill-rule="nonzero" fill-opacity="1" /><path clip-path="url(#clip020)" d="M35.1993 796.561 Q31.2526 794.365 29.3747 791.31 Q27.4968 788.254 27.4968 784.117 Q27.4968 778.547 31.4117 775.523 Q35.2948 772.499 42.4881 772.499 L64.0042 772.499 L64.0042 778.387 L42.679 778.387 Q37.5546 778.387 35.072 780.202 Q32.5894 782.016 32.5894 785.74 Q32.5894 790.291 35.6131 792.933 Q38.6368 795.575 43.8567 795.575 L64.0042 795.575 L64.0042 801.463 L42.679 801.463 Q37.5228 801.463 35.072 803.277 Q32.5894 805.092 32.5894 808.879 Q32.5894 813.367 35.6449 816.009 Q38.6686 818.65 43.8567 818.65 L64.0042 818.65 L64.0042 824.539 L28.3562 824.539 L28.3562 818.65 L33.8944 818.65 Q30.616 816.645 29.0564 813.844 Q27.4968 811.043 27.4968 807.192 Q27.4968 803.309 29.4702 800.604 Q31.4436 797.866 35.1993 796.561 Z" fill="#000000" fill-rule="nonzero" fill-opacity="1" /><path clip-path="url(#clip020)" d="M16.4842 767.152 L16.4842 726.952 L21.895 726.952 L21.895 743.822 L64.0042 743.822 L64.0042 750.283 L21.895 750.283 L21.895 767.152 L16.4842 767.152 Z" fill="#000000" fill-rule="nonzero" fill-opacity="1" /><path clip-path="url(#clip020)" d="M32.4621 718.263 Q32.4621 722.974 36.1542 725.711 Q39.8145 728.448 46.212 728.448 Q52.6095 728.448 56.3017 725.743 Q59.9619 723.006 59.9619 718.263 Q59.9619 713.584 56.2698 710.847 Q52.5777 708.11 46.212 708.11 Q39.8781 708.11 36.186 710.847 Q32.4621 713.584 32.4621 718.263 M27.4968 718.263 Q27.4968 710.624 32.4621 706.264 Q37.4273 701.903 46.212 701.903 Q54.9649 701.903 59.9619 706.264 Q64.9272 710.624 64.9272 718.263 Q64.9272 725.934 59.9619 730.294 Q54.9649 734.623 46.212 734.623 Q37.4273 734.623 32.4621 730.294 Q27.4968 725.934 27.4968 718.263 Z" fill="#000000" fill-rule="nonzero" fill-opacity="1" /><path clip-path="url(#clip020)" d="M33.8307 671.539 Q33.2578 672.526 33.0032 673.703 Q32.7167 674.849 32.7167 676.25 Q32.7167 681.215 35.9632 683.888 Q39.1779 686.53 45.2253 686.53 L64.0042 686.53 L64.0042 692.419 L28.3562 692.419 L28.3562 686.53 L33.8944 686.53 Q30.6479 684.684 29.0883 681.724 Q27.4968 678.764 27.4968 674.531 Q27.4968 673.926 27.5923 673.194 Q27.656 672.462 27.8151 671.571 L33.8307 671.539 Z" fill="#000000" fill-rule="nonzero" fill-opacity="1" /><path clip-path="url(#clip020)" d="M33.8307 645.885 Q33.2578 646.872 33.0032 648.05 Q32.7167 649.195 32.7167 650.596 Q32.7167 655.561 35.9632 658.235 Q39.1779 660.876 45.2253 660.876 L64.0042 660.876 L64.0042 666.765 L28.3562 666.765 L28.3562 660.876 L33.8944 660.876 Q30.6479 659.03 29.0883 656.07 Q27.4968 653.11 27.4968 648.877 Q27.4968 648.272 27.5923 647.54 Q27.656 646.808 27.8151 645.917 L33.8307 645.885 Z" fill="#000000" fill-rule="nonzero" fill-opacity="1" /><polyline clip-path="url(#clip021)" style="stroke:#009af9; stroke-linecap:round; stroke-linejoin:round; stroke-width:4; stroke-opacity:1; fill:none" points="292.4,406.881 294.932,452.695 297.464,467.966 299.996,529.051 302.528,529.051 305.06,529.051 307.592,513.779 310.124,513.779 312.656,498.508 315.188,498.508 317.721,498.508 320.253,498.508 322.785,467.966 325.317,467.966 327.849,498.508 330.381,483.237 332.913,452.695 335.445,437.423 337.977,467.966 340.509,483.237 343.041,467.966 345.573,467.966 348.106,467.966 350.638,483.237 353.17,437.423 355.702,86.1857 358.234,467.966 360.766,422.152 363.298,483.237 365.83,437.423 368.362,437.423 370.894,467.966 373.426,422.152 375.958,483.237 378.491,422.152 381.023,467.966 383.555,452.695 386.087,467.966 388.619,513.779 391.151,437.423 393.683,452.695 396.215,467.966 398.747,467.966 401.279,452.695 403.811,406.881 406.343,452.695 408.876,467.966 411.408,483.237 413.94,467.966 416.472,422.152 419.004,437.423 421.536,467.966 424.068,483.237 426.6,452.695 429.132,437.423 431.664,483.237 434.196,498.508 436.728,483.237 439.261,467.966 441.793,406.881 444.325,437.423 446.857,422.152 449.389,452.695 451.921,452.695 454.453,467.966 456.985,437.423 459.517,437.423 462.049,437.423 464.581,467.966 467.113,422.152 469.646,437.423 472.178,422.152 474.71,437.423 477.242,483.237 479.774,467.966 482.306,498.508 484.838,483.237 487.37,452.695 489.902,483.237 492.434,437.423 494.966,422.152 497.498,437.423 500.031,437.423 502.563,483.237 505.095,437.423 507.627,437.423 510.159,422.152 512.691,422.152 515.223,437.423 517.755,452.695 520.287,422.152 522.819,452.695 525.351,467.966 527.883,467.966 530.416,422.152 532.948,452.695 535.48,452.695 538.012,452.695 540.544,437.423 543.076,422.152 545.608,452.695 548.14,467.966 550.672,483.237 553.204,467.966 555.736,437.423 558.268,406.881 560.801,422.152 563.333,422.152 565.865,498.508 568.397,452.695 570.929,483.237 573.461,452.695 575.993,483.237 578.525,422.152 581.057,452.695 583.589,467.966 586.121,437.423 588.653,437.423 591.186,437.423 593.718,437.423 596.25,452.695 598.782,467.966 601.314,483.237 603.846,498.508 606.378,452.695 608.91,483.237 611.442,452.695 613.974,437.423 616.506,452.695 619.038,452.695 621.571,483.237 624.103,483.237 626.635,452.695 629.167,437.423 631.699,422.152 634.231,467.966 636.763,437.423 639.295,406.881 641.827,437.423 644.359,406.881 646.891,452.695 649.423,422.152 651.956,437.423 654.488,498.508 657.02,437.423 659.552,467.966 662.084,467.966 664.616,422.152 667.148,437.423 669.68,422.152 672.212,422.152 674.744,467.966 677.276,483.237 679.808,437.423 682.341,483.237 684.873,452.695 687.405,467.966 689.937,422.152 692.469,422.152 695.001,422.152 697.533,437.423 700.065,422.152 702.597,422.152 705.129,452.695 707.661,437.423 710.193,452.695 712.726,452.695 715.258,437.423 717.79,406.881 720.322,452.695 722.854,452.695 725.386,467.966 727.918,406.881 730.45,452.695 732.982,452.695 735.514,452.695 738.046,483.237 740.578,452.695 743.111,422.152 745.643,422.152 748.175,422.152 750.707,437.423 753.239,422.152 755.771,452.695 758.303,437.423 760.835,437.423 763.367,437.423 765.899,422.152 768.431,422.152 770.963,422.152 773.496,406.881 776.028,422.152 778.56,406.881 781.092,422.152 783.624,452.695 786.156,452.695 788.688,452.695 791.22,452.695 793.752,467.966 796.284,422.152 798.816,437.423 801.348,452.695 803.881,452.695 806.413,483.237 808.945,452.695 811.477,467.966 814.009,467.966 816.541,452.695 819.073,483.237 821.605,483.237 824.137,467.966 826.669,422.152 829.201,422.152 831.733,437.423 834.266,467.966 836.798,422.152 839.33,437.423 841.862,422.152 844.394,483.237 846.926,483.237 849.458,437.423 851.99,452.695 854.522,483.237 857.054,437.423 859.586,422.152 862.118,467.966 864.651,437.423 867.183,452.695 869.715,422.152 872.247,422.152 874.779,422.152 877.311,437.423 879.843,422.152 882.375,452.695 884.907,452.695 887.439,406.881 889.971,422.152 892.503,498.508 895.036,452.695 897.568,422.152 900.1,437.423 902.632,422.152 905.164,422.152 907.696,452.695 910.228,422.152 912.76,437.423 915.292,437.423 917.824,437.423 920.356,437.423 922.888,467.966 925.421,467.966 927.953,467.966 930.485,452.695 933.017,452.695 935.549,467.966 938.081,467.966 940.613,452.695 943.145,452.695 945.677,467.966 948.209,452.695 950.741,467.966 953.273,467.966 955.806,452.695 958.338,437.423 960.87,452.695 963.402,437.423 965.934,437.423 968.466,437.423 970.998,452.695 973.53,467.966 976.062,437.423 978.594,422.152 981.126,422.152 983.658,422.152 986.191,422.152 988.723,422.152 991.255,467.966 993.787,437.423 996.319,452.695 998.851,452.695 1001.38,452.695 1003.92,452.695 1006.45,452.695 1008.98,437.423 1011.51,422.152 1014.04,422.152 1016.58,437.423 1019.11,498.508 1021.64,452.695 1024.17,452.695 1026.7,437.423 1029.24,452.695 1031.77,452.695 1034.3,437.423 1036.83,452.695 1039.36,437.423 1041.9,467.966 1044.43,467.966 1046.96,467.966 1049.49,452.695 1052.02,422.152 1054.56,467.966 1057.09,483.237 1059.62,467.966 1062.15,498.508 1064.69,467.966 1067.22,452.695 1069.75,467.966 1072.28,452.695 1074.81,467.966 1077.35,467.966 1079.88,467.966 1082.41,452.695 1084.94,483.237 1087.47,452.695 1090.01,422.152 1092.54,437.423 1095.07,483.237 1097.6,467.966 1100.13,437.423 1102.67,437.423 1105.2,422.152 1107.73,452.695 1110.26,452.695 1112.79,452.695 1115.33,483.237 1117.86,467.966 1120.39,437.423 1122.92,422.152 1125.46,422.152 1127.99,437.423 1130.52,483.237 1133.05,422.152 1135.58,422.152 1138.12,437.423 1140.65,452.695 1143.18,452.695 1145.71,467.966 1148.24,452.695 1150.78,452.695 1153.31,422.152 1155.84,422.152 1158.37,437.423 1160.9,467.966 1163.44,437.423 1165.97,467.966 1168.5,422.152 1171.03,406.881 1173.56,422.152 1176.1,422.152 1178.63,422.152 1181.16,452.695 1183.69,483.237 1186.23,467.966 1188.76,437.423 1191.29,437.423 1193.82,422.152 1196.35,437.423 1198.89,452.695 1201.42,452.695 1203.95,467.966 1206.48,437.423 1209.01,422.152 1211.55,452.695 1214.08,422.152 1216.61,406.881 1219.14,422.152 1221.67,422.152 1224.21,406.881 1226.74,406.881 1229.27,422.152 1231.8,422.152 1234.33,437.423 1236.87,422.152 1239.4,437.423 1241.93,422.152 1244.46,437.423 1247,422.152 1249.53,498.508 1252.06,467.966 1254.59,452.695 1257.12,452.695 1259.66,467.966 1262.19,452.695 1264.72,452.695 1267.25,452.695 1269.78,467.966 1272.32,422.152 1274.85,437.423 1277.38,437.423 1279.91,467.966 1282.44,483.237 1284.98,437.423 1287.51,437.423 1290.04,437.423 1292.57,406.881 1295.1,422.152 1297.64,422.152 1300.17,422.152 1302.7,422.152 1305.23,422.152 1307.77,422.152 1310.3,452.695 1312.83,452.695 1315.36,452.695 1317.89,467.966 1320.43,437.423 1322.96,437.423 1325.49,422.152 1328.02,437.423 1330.55,437.423 1333.09,422.152 1335.62,437.423 1338.15,422.152 1340.68,422.152 1343.21,422.152 1345.75,422.152 1348.28,406.881 1350.81,452.695 1353.34,437.423 1355.87,452.695 1358.41,422.152 1360.94,467.966 1363.47,467.966 1366,467.966 1368.54,437.423 1371.07,437.423 1373.6,467.966 1376.13,498.508 1378.66,483.237 1381.2,452.695 1383.73,437.423 1386.26,467.966 1388.79,467.966 1391.32,422.152 1393.86,437.423 1396.39,437.423 1398.92,452.695 1401.45,452.695 1403.98,437.423 1406.52,437.423 1409.05,437.423 1411.58,437.423 1414.11,437.423 1416.64,422.152 1419.18,422.152 1421.71,452.695 1424.24,452.695 1426.77,422.152 1429.31,467.966 1431.84,467.966 1434.37,437.423 1436.9,452.695 1439.43,437.423 1441.97,437.423 1444.5,422.152 1447.03,422.152 1449.56,467.966 1452.09,452.695 1454.63,498.508 1457.16,483.237 1459.69,452.695 1462.22,437.423 1464.75,422.152 1467.29,467.966 1469.82,452.695 1472.35,452.695 1474.88,467.966 1477.41,437.423 1479.95,452.695 1482.48,422.152 1485.01,467.966 1487.54,467.966 1490.08,467.966 1492.61,406.881 1495.14,437.423 1497.67,437.423 1500.2,483.237 1502.74,437.423 1505.27,437.423 1507.8,467.966 1510.33,422.152 1512.86,452.695 1515.4,452.695 1517.93,452.695 1520.46,437.423 1522.99,437.423 1525.52,406.881 1528.06,483.237 1530.59,467.966 1533.12,437.423 1535.65,437.423 1538.18,437.423 1540.72,483.237 1543.25,452.695 1545.78,452.695 1548.31,422.152 1550.85,452.695 1553.38,483.237 1555.91,437.423 1558.44,467.966 1560.97,437.423 1563.51,422.152 1566.04,452.695 1568.57,483.237 1571.1,422.152 1573.63,452.695 1576.17,483.237 1578.7,437.423 1581.23,422.152 1583.76,437.423 1586.29,498.508 1588.83,467.966 1591.36,467.966 1593.89,437.423 1596.42,437.423 1598.95,483.237 1601.49,467.966 1604.02,437.423 1606.55,467.966 1609.08,483.237 1611.62,452.695 1614.15,498.508 1616.68,422.152 1619.21,452.695 1621.74,467.966 1624.28,437.423 1626.81,467.966 1629.34,467.966 1631.87,498.508 1634.4,467.966 1636.94,437.423 1639.47,467.966 1642,437.423 1644.53,498.508 1647.06,437.423 1649.6,483.237 1652.13,483.237 1654.66,452.695 1657.19,452.695 1659.72,437.423 1662.26,437.423 1664.79,483.237 1667.32,437.423 1669.85,467.966 1672.39,437.423 1674.92,452.695 1677.45,483.237 1679.98,437.423 1682.51,483.237 1685.05,467.966 1687.58,437.423 1690.11,483.237 1692.64,467.966 1695.17,437.423 1697.71,437.423 1700.24,467.966 1702.77,452.695 1705.3,483.237 1707.83,467.966 1710.37,467.966 1712.9,437.423 1715.43,467.966 1717.96,467.966 1720.49,452.695 1723.03,498.508 1725.56,467.966 1728.09,437.423 1730.62,467.966 1733.16,452.695 1735.69,483.237 1738.22,437.423 1740.75,437.423 1743.28,467.966 1745.82,513.779 1748.35,452.695 1750.88,467.966 1753.41,467.966 1755.94,452.695 1758.48,467.966 1761.01,483.237 1763.54,452.695 1766.07,498.508 1768.6,452.695 1771.14,498.508 1773.67,498.508 1776.2,467.966 1778.73,467.966 1781.26,513.779 1783.8,452.695 1786.33,467.966 1788.86,452.695 1791.39,498.508 1793.93,529.051 1796.46,467.966 1798.99,467.966 1801.52,483.237 1804.05,467.966 1806.59,483.237 1809.12,483.237 1811.65,467.966 1814.18,467.966 1816.71,467.966 1819.25,498.508 1821.78,467.966 1824.31,483.237 1826.84,498.508 1829.37,483.237 1831.91,483.237 1834.44,513.779 1836.97,498.508 1839.5,498.508 1842.03,498.508 1844.57,483.237 1847.1,529.051 1849.63,498.508 1852.16,498.508 1854.7,498.508 1857.23,529.051 1859.76,498.508 1862.29,529.051 1864.82,529.051 1867.36,498.508 1869.89,544.322 1872.42,544.322 1874.95,529.051 1877.48,529.051 1880.02,529.051 1882.55,529.051 1885.08,513.779 1887.61,544.322 1890.14,559.593 1892.68,529.051 1895.21,529.051 1897.74,544.322 1900.27,559.593 1902.8,559.593 1905.34,559.593 1907.87,559.593 1910.4,574.864 1912.93,559.593 1915.47,574.864 1918,574.864 1920.53,574.864 1923.06,590.136 1925.59,590.136 1928.13,605.407 1930.66,605.407 1933.19,605.407 1935.72,605.407 1938.25,620.678 1940.79,620.678 1943.32,620.678 1945.85,635.949 1948.38,651.22 1950.91,651.22 1953.45,651.22 1955.98,666.492 1958.51,681.763 1961.04,681.763 1963.57,681.763 1966.11,697.034 1968.64,712.305 1971.17,712.305 1973.7,712.305 1976.24,727.576 1978.77,742.848 1981.3,742.848 1983.83,758.119 1986.36,758.119 1988.9,758.119 1991.43,773.39 1993.96,773.39 1996.49,803.932 1999.02,803.932 2001.56,819.204 2004.09,834.475 2006.62,834.475 2009.15,865.017 2011.68,865.017 2014.22,865.017 2016.75,880.288 2019.28,880.288 2021.81,910.831 2024.34,910.831 2026.88,926.102 2029.41,926.102 2031.94,941.373 2034.47,956.644 2037.01,956.644 2039.54,971.916 2042.07,987.187 2044.6,987.187 2047.13,1002.46 2049.67,1002.46 2052.2,1017.73 2054.73,1033 2057.26,1048.27 2059.79,1048.27 2062.33,1048.27 2064.86,1063.54 2067.39,1063.54 2069.92,1078.81 2072.45,1078.81 2074.99,1109.36 2077.52,1109.36 2080.05,1109.36 2082.58,1124.63 2085.11,1124.63 2087.65,1139.9 2090.18,1155.17 2092.71,1155.17 2095.24,1155.17 2097.78,1155.17 2100.31,1170.44 2102.84,1170.44 2105.37,1170.44 2107.9,1170.44 2110.44,1170.44 2112.97,1170.44 2115.5,1185.71 2118.03,1200.98 2120.56,1200.98 2123.1,1200.98 2125.63,1200.98 2128.16,1216.25 2130.69,1231.53 2133.22,1231.53 2135.76,1231.53 2138.29,1231.53 2140.82,1231.53 2143.35,1246.8 2145.88,1262.07 2148.42,1246.8 2150.95,1262.07 2153.48,1262.07 2156.01,1262.07 2158.55,1262.07 2161.08,1277.34 2163.61,1277.34 2166.14,1277.34 2168.67,1277.34 2171.21,1277.34 2173.74,1277.34 2176.27,1292.61 2178.8,1292.61 2181.33,1277.34 2183.87,1292.61 2186.4,1277.34 2188.93,1277.34 2191.46,1292.61 2193.99,1277.34 2196.53,1292.61 2199.06,1292.61 2201.59,1292.61 2204.12,1292.61 2206.65,1292.61 2209.19,1292.61 2211.72,1307.88 2214.25,1292.61 2216.78,1307.88 2219.32,1307.88 2221.85,1307.88 2224.38,1307.88 2226.91,1292.61 2229.44,1292.61 2231.98,1292.61 2234.51,1307.88 2237.04,1307.88 2239.57,1292.61 2242.1,1307.88 2244.64,1292.61 2247.17,1307.88 2249.7,1307.88 2252.23,1307.88 2254.76,1307.88 2257.3,1307.88 2259.83,1307.88 2262.36,1323.15 2264.89,1307.88 2267.42,1307.88 2269.96,1307.88 2272.49,1307.88 2275.02,1307.88 2277.55,1323.15 2280.09,1307.88 2282.62,1307.88 2285.15,1307.88 2287.68,1307.88 2290.21,1307.88 2292.75,1307.88 "/>
<polyline clip-path="url(#clip021)" style="stroke:#e26f46; stroke-linecap:round; stroke-linejoin:round; stroke-width:4; stroke-opacity:1; fill:none" points="292.4,1292.61 294.932,1353.7 297.464,1353.7 299.996,1353.7 302.528,1353.7 305.06,1353.7 307.592,1353.7 310.124,1353.7 312.656,1368.97 315.188,1353.7 317.721,1353.7 320.253,1368.97 322.785,1353.7 325.317,1353.7 327.849,1368.97 330.381,1338.42 332.913,1338.42 335.445,1338.42 337.977,1353.7 340.509,1368.97 343.041,1338.42 345.573,1353.7 348.106,1338.42 350.638,1368.97 353.17,1338.42 355.702,1124.63 358.234,1353.7 360.766,1323.15 363.298,1368.97 365.83,1323.15 368.362,1338.42 370.894,1338.42 373.426,1338.42 375.958,1353.7 378.491,1338.42 381.023,1353.7 383.555,1368.97 386.087,1353.7 388.619,1368.97 391.151,1338.42 393.683,1338.42 396.215,1368.97 398.747,1353.7 401.279,1353.7 403.811,1323.15 406.343,1338.42 408.876,1353.7 411.408,1353.7 413.94,1353.7 416.472,1338.42 419.004,1353.7 421.536,1353.7 424.068,1368.97 426.6,1368.97 429.132,1338.42 431.664,1353.7 434.196,1368.97 436.728,1368.97 439.261,1368.97 441.793,1323.15 444.325,1338.42 446.857,1338.42 449.389,1338.42 451.921,1338.42 454.453,1353.7 456.985,1353.7 459.517,1338.42 462.049,1338.42 464.581,1353.7 467.113,1338.42 469.646,1353.7 472.178,1338.42 474.71,1338.42 477.242,1368.97 479.774,1353.7 482.306,1384.24 484.838,1384.24 487.37,1368.97 489.902,1368.97 492.434,1353.7 494.966,1338.42 497.498,1338.42 500.031,1338.42 502.563,1368.97 505.095,1353.7 507.627,1353.7 510.159,1338.42 512.691,1338.42 515.223,1338.42 517.755,1353.7 520.287,1338.42 522.819,1353.7 525.351,1368.97 527.883,1353.7 530.416,1338.42 532.948,1368.97 535.48,1353.7 538.012,1353.7 540.544,1353.7 543.076,1353.7 545.608,1353.7 548.14,1353.7 550.672,1353.7 553.204,1368.97 555.736,1338.42 558.268,1338.42 560.801,1338.42 563.333,1338.42 565.865,1384.24 568.397,1353.7 570.929,1384.24 573.461,1368.97 575.993,1368.97 578.525,1338.42 581.057,1368.97 583.589,1368.97 586.121,1353.7 588.653,1338.42 591.186,1353.7 593.718,1353.7 596.25,1353.7 598.782,1368.97 601.314,1353.7 603.846,1368.97 606.378,1353.7 608.91,1368.97 611.442,1338.42 613.974,1338.42 616.506,1353.7 619.038,1353.7 621.571,1368.97 624.103,1368.97 626.635,1353.7 629.167,1338.42 631.699,1338.42 634.231,1353.7 636.763,1338.42 639.295,1338.42 641.827,1338.42 644.359,1323.15 646.891,1338.42 649.423,1338.42 651.956,1353.7 654.488,1384.24 657.02,1353.7 659.552,1368.97 662.084,1368.97 664.616,1338.42 667.148,1338.42 669.68,1338.42 672.212,1338.42 674.744,1368.97 677.276,1353.7 679.808,1338.42 682.341,1368.97 684.873,1353.7 687.405,1353.7 689.937,1338.42 692.469,1338.42 695.001,1338.42 697.533,1338.42 700.065,1338.42 702.597,1338.42 705.129,1368.97 707.661,1353.7 710.193,1353.7 712.726,1338.42 715.258,1353.7 717.79,1338.42 720.322,1353.7 722.854,1353.7 725.386,1353.7 727.918,1338.42 730.45,1368.97 732.982,1353.7 735.514,1353.7 738.046,1368.97 740.578,1353.7 743.111,1338.42 745.643,1338.42 748.175,1338.42 750.707,1338.42 753.239,1338.42 755.771,1338.42 758.303,1353.7 760.835,1353.7 763.367,1338.42 765.899,1338.42 768.431,1338.42 770.963,1338.42 773.496,1338.42 776.028,1338.42 778.56,1338.42 781.092,1338.42 783.624,1353.7 786.156,1353.7 788.688,1368.97 791.22,1353.7 793.752,1368.97 796.284,1338.42 798.816,1353.7 801.348,1368.97 803.881,1353.7 806.413,1368.97 808.945,1353.7 811.477,1368.97 814.009,1353.7 816.541,1353.7 819.073,1368.97 821.605,1368.97 824.137,1368.97 826.669,1338.42 829.201,1338.42 831.733,1353.7 834.266,1368.97 836.798,1338.42 839.33,1353.7 841.862,1338.42 844.394,1368.97 846.926,1368.97 849.458,1353.7 851.99,1353.7 854.522,1368.97 857.054,1338.42 859.586,1353.7 862.118,1368.97 864.651,1353.7 867.183,1353.7 869.715,1338.42 872.247,1338.42 874.779,1338.42 877.311,1353.7 879.843,1338.42 882.375,1353.7 884.907,1338.42 887.439,1338.42 889.971,1338.42 892.503,1384.24 895.036,1353.7 897.568,1338.42 900.1,1353.7 902.632,1338.42 905.164,1323.15 907.696,1353.7 910.228,1338.42 912.76,1338.42 915.292,1353.7 917.824,1353.7 920.356,1353.7 922.888,1368.97 925.421,1353.7 927.953,1353.7 930.485,1353.7 933.017,1353.7 935.549,1353.7 938.081,1353.7 940.613,1353.7 943.145,1353.7 945.677,1368.97 948.209,1353.7 950.741,1368.97 953.273,1368.97 955.806,1353.7 958.338,1353.7 960.87,1353.7 963.402,1338.42 965.934,1338.42 968.466,1338.42 970.998,1338.42 973.53,1353.7 976.062,1338.42 978.594,1338.42 981.126,1338.42 983.658,1338.42 986.191,1338.42 988.723,1338.42 991.255,1368.97 993.787,1353.7 996.319,1353.7 998.851,1353.7 1001.38,1353.7 1003.92,1353.7 1006.45,1353.7 1008.98,1338.42 1011.51,1338.42 1014.04,1338.42 1016.58,1353.7 1019.11,1368.97 1021.64,1353.7 1024.17,1353.7 1026.7,1338.42 1029.24,1338.42 1031.77,1338.42 1034.3,1338.42 1036.83,1353.7 1039.36,1353.7 1041.9,1353.7 1044.43,1353.7 1046.96,1368.97 1049.49,1353.7 1052.02,1338.42 1054.56,1368.97 1057.09,1368.97 1059.62,1368.97 1062.15,1368.97 1064.69,1368.97 1067.22,1353.7 1069.75,1368.97 1072.28,1368.97 1074.81,1368.97 1077.35,1353.7 1079.88,1353.7 1082.41,1338.42 1084.94,1353.7 1087.47,1338.42 1090.01,1338.42 1092.54,1353.7 1095.07,1368.97 1097.6,1368.97 1100.13,1338.42 1102.67,1338.42 1105.2,1338.42 1107.73,1353.7 1110.26,1368.97 1112.79,1353.7 1115.33,1368.97 1117.86,1353.7 1120.39,1353.7 1122.92,1338.42 1125.46,1338.42 1127.99,1353.7 1130.52,1368.97 1133.05,1338.42 1135.58,1338.42 1138.12,1353.7 1140.65,1353.7 1143.18,1353.7 1145.71,1353.7 1148.24,1353.7 1150.78,1338.42 1153.31,1323.15 1155.84,1338.42 1158.37,1338.42 1160.9,1353.7 1163.44,1338.42 1165.97,1353.7 1168.5,1338.42 1171.03,1338.42 1173.56,1353.7 1176.1,1338.42 1178.63,1338.42 1181.16,1353.7 1183.69,1368.97 1186.23,1368.97 1188.76,1338.42 1191.29,1338.42 1193.82,1338.42 1196.35,1353.7 1198.89,1368.97 1201.42,1368.97 1203.95,1353.7 1206.48,1338.42 1209.01,1338.42 1211.55,1368.97 1214.08,1338.42 1216.61,1338.42 1219.14,1338.42 1221.67,1338.42 1224.21,1323.15 1226.74,1338.42 1229.27,1323.15 1231.8,1338.42 1234.33,1338.42 1236.87,1338.42 1239.4,1338.42 1241.93,1338.42 1244.46,1353.7 1247,1353.7 1249.53,1368.97 1252.06,1353.7 1254.59,1338.42 1257.12,1353.7 1259.66,1368.97 1262.19,1353.7 1264.72,1353.7 1267.25,1353.7 1269.78,1368.97 1272.32,1338.42 1274.85,1353.7 1277.38,1353.7 1279.91,1368.97 1282.44,1368.97 1284.98,1353.7 1287.51,1338.42 1290.04,1338.42 1292.57,1338.42 1295.1,1338.42 1297.64,1338.42 1300.17,1338.42 1302.7,1338.42 1305.23,1338.42 1307.77,1338.42 1310.3,1353.7 1312.83,1353.7 1315.36,1353.7 1317.89,1353.7 1320.43,1353.7 1322.96,1353.7 1325.49,1353.7 1328.02,1338.42 1330.55,1353.7 1333.09,1338.42 1335.62,1338.42 1338.15,1338.42 1340.68,1338.42 1343.21,1338.42 1345.75,1338.42 1348.28,1323.15 1350.81,1353.7 1353.34,1338.42 1355.87,1353.7 1358.41,1338.42 1360.94,1353.7 1363.47,1353.7 1366,1368.97 1368.54,1338.42 1371.07,1338.42 1373.6,1353.7 1376.13,1384.24 1378.66,1368.97 1381.2,1353.7 1383.73,1338.42 1386.26,1353.7 1388.79,1368.97 1391.32,1338.42 1393.86,1353.7 1396.39,1353.7 1398.92,1368.97 1401.45,1368.97 1403.98,1353.7 1406.52,1353.7 1409.05,1353.7 1411.58,1338.42 1414.11,1338.42 1416.64,1338.42 1419.18,1338.42 1421.71,1338.42 1424.24,1338.42 1426.77,1338.42 1429.31,1368.97 1431.84,1368.97 1434.37,1353.7 1436.9,1353.7 1439.43,1338.42 1441.97,1338.42 1444.5,1338.42 1447.03,1338.42 1449.56,1338.42 1452.09,1338.42 1454.63,1368.97 1457.16,1384.24 1459.69,1353.7 1462.22,1338.42 1464.75,1323.15 1467.29,1353.7 1469.82,1368.97 1472.35,1368.97 1474.88,1353.7 1477.41,1353.7 1479.95,1353.7 1482.48,1338.42 1485.01,1353.7 1487.54,1353.7 1490.08,1368.97 1492.61,1338.42 1495.14,1338.42 1497.67,1338.42 1500.2,1368.97 1502.74,1353.7 1505.27,1338.42 1507.8,1353.7 1510.33,1338.42 1512.86,1338.42 1515.4,1368.97 1517.93,1353.7 1520.46,1353.7 1522.99,1353.7 1525.52,1338.42 1528.06,1368.97 1530.59,1368.97 1533.12,1353.7 1535.65,1353.7 1538.18,1338.42 1540.72,1368.97 1543.25,1353.7 1545.78,1368.97 1548.31,1338.42 1550.85,1338.42 1553.38,1353.7 1555.91,1353.7 1558.44,1368.97 1560.97,1353.7 1563.51,1338.42 1566.04,1338.42 1568.57,1368.97 1571.1,1338.42 1573.63,1338.42 1576.17,1368.97 1578.7,1338.42 1581.23,1323.15 1583.76,1338.42 1586.29,1384.24 1588.83,1353.7 1591.36,1353.7 1593.89,1353.7 1596.42,1338.42 1598.95,1353.7 1601.49,1368.97 1604.02,1353.7 1606.55,1353.7 1609.08,1368.97 1611.62,1338.42 1614.15,1384.24 1616.68,1338.42 1619.21,1338.42 1621.74,1368.97 1624.28,1353.7 1626.81,1353.7 1629.34,1368.97 1631.87,1368.97 1634.4,1353.7 1636.94,1353.7 1639.47,1353.7 1642,1338.42 1644.53,1368.97 1647.06,1338.42 1649.6,1353.7 1652.13,1368.97 1654.66,1338.42 1657.19,1338.42 1659.72,1353.7 1662.26,1338.42 1664.79,1353.7 1667.32,1338.42 1669.85,1353.7 1672.39,1338.42 1674.92,1338.42 1677.45,1368.97 1679.98,1338.42 1682.51,1353.7 1685.05,1353.7 1687.58,1338.42 1690.11,1353.7 1692.64,1368.97 1695.17,1338.42 1697.71,1338.42 1700.24,1353.7 1702.77,1353.7 1705.3,1368.97 1707.83,1353.7 1710.37,1353.7 1712.9,1338.42 1715.43,1368.97 1717.96,1338.42 1720.49,1353.7 1723.03,1368.97 1725.56,1338.42 1728.09,1338.42 1730.62,1338.42 1733.16,1353.7 1735.69,1353.7 1738.22,1338.42 1740.75,1338.42 1743.28,1368.97 1745.82,1368.97 1748.35,1338.42 1750.88,1353.7 1753.41,1338.42 1755.94,1338.42 1758.48,1338.42 1761.01,1353.7 1763.54,1353.7 1766.07,1368.97 1768.6,1338.42 1771.14,1368.97 1773.67,1368.97 1776.2,1338.42 1778.73,1353.7 1781.26,1368.97 1783.8,1338.42 1786.33,1338.42 1788.86,1338.42 1791.39,1368.97 1793.93,1368.97 1796.46,1338.42 1798.99,1353.7 1801.52,1353.7 1804.05,1353.7 1806.59,1353.7 1809.12,1353.7 1811.65,1353.7 1814.18,1353.7 1816.71,1353.7 1819.25,1353.7 1821.78,1338.42 1824.31,1353.7 1826.84,1338.42 1829.37,1353.7 1831.91,1338.42 1834.44,1368.97 1836.97,1338.42 1839.5,1353.7 1842.03,1353.7 1844.57,1353.7 1847.1,1368.97 1849.63,1338.42 1852.16,1338.42 1854.7,1353.7 1857.23,1353.7 1859.76,1353.7 1862.29,1368.97 1864.82,1368.97 1867.36,1353.7 1869.89,1368.97 1872.42,1368.97 1874.95,1353.7 1877.48,1353.7 1880.02,1353.7 1882.55,1353.7 1885.08,1338.42 1887.61,1353.7 1890.14,1353.7 1892.68,1353.7 1895.21,1353.7 1897.74,1353.7 1900.27,1368.97 1902.8,1353.7 1905.34,1338.42 1907.87,1353.7 1910.4,1368.97 1912.93,1353.7 1915.47,1353.7 1918,1338.42 1920.53,1353.7 1923.06,1353.7 1925.59,1353.7 1928.13,1353.7 1930.66,1353.7 1933.19,1353.7 1935.72,1353.7 1938.25,1353.7 1940.79,1353.7 1943.32,1338.42 1945.85,1353.7 1948.38,1353.7 1950.91,1353.7 1953.45,1353.7 1955.98,1353.7 1958.51,1353.7 1961.04,1353.7 1963.57,1353.7 1966.11,1353.7 1968.64,1353.7 1971.17,1368.97 1973.7,1353.7 1976.24,1353.7 1978.77,1353.7 1981.3,1353.7 1983.83,1353.7 1986.36,1353.7 1988.9,1338.42 1991.43,1338.42 1993.96,1338.42 1996.49,1353.7 1999.02,1353.7 2001.56,1353.7 2004.09,1353.7 2006.62,1353.7 2009.15,1368.97 2011.68,1353.7 2014.22,1353.7 2016.75,1338.42 2019.28,1353.7 2021.81,1368.97 2024.34,1353.7 2026.88,1353.7 2029.41,1353.7 2031.94,1353.7 2034.47,1353.7 2037.01,1353.7 2039.54,1353.7 2042.07,1353.7 2044.6,1353.7 2047.13,1353.7 2049.67,1353.7 2052.2,1353.7 2054.73,1353.7 2057.26,1368.97 2059.79,1353.7 2062.33,1353.7 2064.86,1353.7 2067.39,1353.7 2069.92,1353.7 2072.45,1353.7 2074.99,1353.7 2077.52,1353.7 2080.05,1353.7 2082.58,1353.7 2085.11,1353.7 2087.65,1353.7 2090.18,1368.97 2092.71,1353.7 2095.24,1353.7 2097.78,1353.7 2100.31,1353.7 2102.84,1353.7 2105.37,1338.42 2107.9,1338.42 2110.44,1338.42 2112.97,1338.42 2115.5,1353.7 2118.03,1353.7 2120.56,1353.7 2123.1,1353.7 2125.63,1338.42 2128.16,1353.7 2130.69,1353.7 2133.22,1353.7 2135.76,1353.7 2138.29,1338.42 2140.82,1338.42 2143.35,1353.7 2145.88,1353.7 2148.42,1338.42 2150.95,1353.7 2153.48,1338.42 2156.01,1353.7 2158.55,1338.42 2161.08,1353.7 2163.61,1353.7 2166.14,1353.7 2168.67,1353.7 2171.21,1338.42 2173.74,1353.7 2176.27,1368.97 2178.8,1353.7 2181.33,1353.7 2183.87,1353.7 2186.4,1338.42 2188.93,1338.42 2191.46,1338.42 2193.99,1338.42 2196.53,1353.7 2199.06,1353.7 2201.59,1353.7 2204.12,1353.7 2206.65,1338.42 2209.19,1353.7 2211.72,1353.7 2214.25,1353.7 2216.78,1368.97 2219.32,1368.97 2221.85,1353.7 2224.38,1368.97 2226.91,1353.7 2229.44,1353.7 2231.98,1338.42 2234.51,1368.97 2237.04,1353.7 2239.57,1338.42 2242.1,1353.7 2244.64,1353.7 2247.17,1353.7 2249.7,1353.7 2252.23,1353.7 2254.76,1353.7 2257.3,1353.7 2259.83,1353.7 2262.36,1353.7 2264.89,1353.7 2267.42,1338.42 2269.96,1353.7 2272.49,1353.7 2275.02,1338.42 2277.55,1353.7 2280.09,1353.7 2282.62,1353.7 2285.15,1353.7 2287.68,1353.7 2290.21,1353.7 2292.75,1353.7 "/>
<polyline clip-path="url(#clip021)" style="stroke:#808080; stroke-linecap:round; stroke-linejoin:round; stroke-width:12; stroke-opacity:1; fill:none" stroke-dasharray="48, 30" points="2097.78,2799.12 2097.78,-1328.69 "/>
<path clip-path="url(#clip020)" d="M303.068 248.629 L567.535 248.629 L567.535 93.1086 L303.068 93.1086  Z" fill="#ffffff" fill-rule="evenodd" fill-opacity="1"/>
<polyline clip-path="url(#clip020)" style="stroke:#000000; stroke-linecap:round; stroke-linejoin:round; stroke-width:4; stroke-opacity:1; fill:none" points="303.068,248.629 567.535,248.629 567.535,93.1086 303.068,93.1086 303.068,248.629 "/>
<polyline clip-path="url(#clip020)" style="stroke:#009af9; stroke-linecap:round; stroke-linejoin:round; stroke-width:4; stroke-opacity:1; fill:none" points="326.628,144.949 467.986,144.949 "/>
<path clip-path="url(#clip020)" d="M505.388 164.636 Q503.582 169.266 501.869 170.678 Q500.156 172.09 497.286 172.09 L493.883 172.09 L493.883 168.525 L496.383 168.525 Q498.142 168.525 499.115 167.692 Q500.087 166.858 501.267 163.756 L502.031 161.812 L491.545 136.303 L496.059 136.303 L504.161 156.581 L512.263 136.303 L516.777 136.303 L505.388 164.636 Z" fill="#000000" fill-rule="nonzero" fill-opacity="1" /><path clip-path="url(#clip020)" d="M524.068 158.293 L531.707 158.293 L531.707 131.928 L523.397 133.595 L523.397 129.335 L531.661 127.669 L536.337 127.669 L536.337 158.293 L543.976 158.293 L543.976 162.229 L524.068 162.229 L524.068 158.293 Z" fill="#000000" fill-rule="nonzero" fill-opacity="1" /><polyline clip-path="url(#clip020)" style="stroke:#e26f46; stroke-linecap:round; stroke-linejoin:round; stroke-width:4; stroke-opacity:1; fill:none" points="326.628,196.789 467.986,196.789 "/>
<path clip-path="url(#clip020)" d="M505.388 216.476 Q503.582 221.106 501.869 222.518 Q500.156 223.93 497.286 223.93 L493.883 223.93 L493.883 220.365 L496.383 220.365 Q498.142 220.365 499.115 219.532 Q500.087 218.698 501.267 215.596 L502.031 213.652 L491.545 188.143 L496.059 188.143 L504.161 208.421 L512.263 188.143 L516.777 188.143 L505.388 216.476 Z" fill="#000000" fill-rule="nonzero" fill-opacity="1" /><path clip-path="url(#clip020)" d="M527.286 210.133 L543.605 210.133 L543.605 214.069 L521.661 214.069 L521.661 210.133 Q524.323 207.379 528.906 202.749 Q533.513 198.096 534.693 196.754 Q536.939 194.231 537.818 192.495 Q538.721 190.735 538.721 189.046 Q538.721 186.291 536.776 184.555 Q534.855 182.819 531.753 182.819 Q529.554 182.819 527.101 183.583 Q524.67 184.347 521.892 185.897 L521.892 181.175 Q524.716 180.041 527.17 179.462 Q529.624 178.884 531.661 178.884 Q537.031 178.884 540.226 181.569 Q543.42 184.254 543.42 188.745 Q543.42 190.874 542.61 192.796 Q541.823 194.694 539.716 197.286 Q539.138 197.958 536.036 201.175 Q532.934 204.37 527.286 210.133 Z" fill="#000000" fill-rule="nonzero" fill-opacity="1" /></svg>
