<?xml version="1.0" encoding="utf-8"?>
<svg xmlns="http://www.w3.org/2000/svg" xmlns:xlink="http://www.w3.org/1999/xlink" width="600" height="400" viewBox="0 0 2400 1600">
<defs>
  <clipPath id="clip220">
    <rect x="0" y="0" width="2400" height="1600"/>
  </clipPath>
</defs>
<path clip-path="url(#clip220)" d="M0 1600 L2400 1600 L2400 0 L0 0  Z" fill="#ffffff" fill-rule="evenodd" fill-opacity="1"/>
<defs>
  <clipPath id="clip221">
    <rect x="242" y="47" width="2112" height="1377"/>
  </clipPath>
</defs>
<path clip-path="url(#clip220)" d="M242.135 1423.18 L2352.76 1423.18 L2352.76 47.2441 L242.135 47.2441  Z" fill="#ffffff" fill-rule="evenodd" fill-opacity="1"/>
<polyline clip-path="url(#clip221)" style="stroke:#000000; stroke-linecap:round; stroke-linejoin:round; stroke-width:2; stroke-opacity:0.1; fill:none" points="301.869,1423.18 301.869,47.2441 "/>
<polyline clip-path="url(#clip221)" style="stroke:#000000; stroke-linecap:round; stroke-linejoin:round; stroke-width:2; stroke-opacity:0.1; fill:none" points="924.612,1423.18 924.612,47.2441 "/>
<polyline clip-path="url(#clip221)" style="stroke:#000000; stroke-linecap:round; stroke-linejoin:round; stroke-width:2; stroke-opacity:0.1; fill:none" points="1547.36,1423.18 1547.36,47.2441 "/>
<polyline clip-path="url(#clip221)" style="stroke:#000000; stroke-linecap:round; stroke-linejoin:round; stroke-width:2; stroke-opacity:0.1; fill:none" points="2170.1,1423.18 2170.1,47.2441 "/>
<polyline clip-path="url(#clip221)" style="stroke:#000000; stroke-linecap:round; stroke-linejoin:round; stroke-width:2; stroke-opacity:0.1; fill:none" points="242.135,1384.24 2352.76,1384.24 "/>
<polyline clip-path="url(#clip221)" style="stroke:#000000; stroke-linecap:round; stroke-linejoin:round; stroke-width:2; stroke-opacity:0.1; fill:none" points="242.135,1013.37 2352.76,1013.37 "/>
<polyline clip-path="url(#clip221)" style="stroke:#000000; stroke-linecap:round; stroke-linejoin:round; stroke-width:2; stroke-opacity:0.1; fill:none" points="242.135,642.494 2352.76,642.494 "/>
<polyline clip-path="url(#clip221)" style="stroke:#000000; stroke-linecap:round; stroke-linejoin:round; stroke-width:2; stroke-opacity:0.1; fill:none" points="242.135,271.622 2352.76,271.622 "/>
<polyline clip-path="url(#clip220)" style="stroke:#000000; stroke-linecap:round; stroke-linejoin:round; stroke-width:4; stroke-opacity:1; fill:none" points="242.135,1423.18 2352.76,1423.18 "/>
<polyline clip-path="url(#clip220)" style="stroke:#000000; stroke-linecap:round; stroke-linejoin:round; stroke-width:4; stroke-opacity:1; fill:none" points="301.869,1423.18 301.869,1404.28 "/>
<polyline clip-path="url(#clip220)" style="stroke:#000000; stroke-linecap:round; stroke-linejoin:round; stroke-width:4; stroke-opacity:1; fill:none" points="924.612,1423.18 924.612,1404.28 "/>
<polyline clip-path="url(#clip220)" style="stroke:#000000; stroke-linecap:round; stroke-linejoin:round; stroke-width:4; stroke-opacity:1; fill:none" points="1547.36,1423.18 1547.36,1404.28 "/>
<polyline clip-path="url(#clip220)" style="stroke:#000000; stroke-linecap:round; stroke-linejoin:round; stroke-width:4; stroke-opacity:1; fill:none" points="2170.1,1423.18 2170.1,1404.28 "/>
<path clip-path="url(#clip220)" d="M301.869 1454.1 Q298.258 1454.1 296.429 1457.66 Q294.624 1461.2 294.624 1468.33 Q294.624 1475.44 296.429 1479.01 Q298.258 1482.55 301.869 1482.55 Q305.503 1482.55 307.309 1479.01 Q309.138 1475.44 309.138 1468.33 Q309.138 1461.2 307.309 1457.66 Q305.503 1454.1 301.869 1454.1 M301.869 1450.39 Q307.679 1450.39 310.735 1455 Q313.814 1459.58 313.814 1468.33 Q313.814 1477.06 310.735 1481.67 Q307.679 1486.25 301.869 1486.25 Q296.059 1486.25 292.98 1481.67 Q289.925 1477.06 289.925 1468.33 Q289.925 1459.58 292.98 1455 Q296.059 1450.39 301.869 1450.39 Z" fill="#000000" fill-rule="nonzero" fill-opacity="1" /><path clip-path="url(#clip220)" d="M914.89 1451.02 L933.247 1451.02 L933.247 1454.96 L919.173 1454.96 L919.173 1463.43 Q920.191 1463.08 921.21 1462.92 Q922.228 1462.73 923.247 1462.73 Q929.034 1462.73 932.413 1465.9 Q935.793 1469.08 935.793 1474.49 Q935.793 1480.07 932.321 1483.17 Q928.848 1486.25 922.529 1486.25 Q920.353 1486.25 918.085 1485.88 Q915.839 1485.51 913.432 1484.77 L913.432 1480.07 Q915.515 1481.2 917.737 1481.76 Q919.96 1482.32 922.436 1482.32 Q926.441 1482.32 928.779 1480.21 Q931.117 1478.1 931.117 1474.49 Q931.117 1470.88 928.779 1468.77 Q926.441 1466.67 922.436 1466.67 Q920.562 1466.67 918.687 1467.08 Q916.835 1467.5 914.89 1468.38 L914.89 1451.02 Z" fill="#000000" fill-rule="nonzero" fill-opacity="1" /><path clip-path="url(#clip220)" d="M1522.04 1481.64 L1529.68 1481.64 L1529.68 1455.28 L1521.37 1456.95 L1521.37 1452.69 L1529.64 1451.02 L1534.31 1451.02 L1534.31 1481.64 L1541.95 1481.64 L1541.95 1485.58 L1522.04 1485.58 L1522.04 1481.64 Z" fill="#000000" fill-rule="nonzero" fill-opacity="1" /><path clip-path="url(#clip220)" d="M1561.39 1454.1 Q1557.78 1454.1 1555.96 1457.66 Q1554.15 1461.2 1554.15 1468.33 Q1554.15 1475.44 1555.96 1479.01 Q1557.78 1482.55 1561.39 1482.55 Q1565.03 1482.55 1566.83 1479.01 Q1568.66 1475.44 1568.66 1468.33 Q1568.66 1461.2 1566.83 1457.66 Q1565.03 1454.1 1561.39 1454.1 M1561.39 1450.39 Q1567.21 1450.39 1570.26 1455 Q1573.34 1459.58 1573.34 1468.33 Q1573.34 1477.06 1570.26 1481.67 Q1567.21 1486.25 1561.39 1486.25 Q1555.58 1486.25 1552.51 1481.67 Q1549.45 1477.06 1549.45 1468.33 Q1549.45 1459.58 1552.51 1455 Q1555.58 1450.39 1561.39 1450.39 Z" fill="#000000" fill-rule="nonzero" fill-opacity="1" /><path clip-path="url(#clip220)" d="M2145.28 1481.64 L2152.92 1481.64 L2152.92 1455.28 L2144.61 1456.95 L2144.61 1452.69 L2152.88 1451.02 L2157.55 1451.02 L2157.55 1481.64 L2165.19 1481.64 L2165.19 1485.58 L2145.28 1485.58 L2145.28 1481.64 Z" fill="#000000" fill-rule="nonzero" fill-opacity="1" /><path clip-path="url(#clip220)" d="M2174.68 1451.02 L2193.04 1451.02 L2193.04 1454.96 L2178.96 1454.96 L2178.96 1463.43 Q2179.98 1463.08 2181 1462.92 Q2182.02 1462.73 2183.04 1462.73 Q2188.83 1462.73 2192.21 1465.9 Q2195.58 1469.08 2195.58 1474.49 Q2195.58 1480.07 2192.11 1483.17 Q2188.64 1486.25 2182.32 1486.25 Q2180.15 1486.25 2177.88 1485.88 Q2175.63 1485.51 2173.22 1484.77 L2173.22 1480.07 Q2175.31 1481.2 2177.53 1481.76 Q2179.75 1482.32 2182.23 1482.32 Q2186.23 1482.32 2188.57 1480.21 Q2190.91 1478.1 2190.91 1474.49 Q2190.91 1470.88 2188.57 1468.77 Q2186.23 1466.67 2182.23 1466.67 Q2180.35 1466.67 2178.48 1467.08 Q2176.63 1467.5 2174.68 1468.38 L2174.68 1451.02 Z" fill="#000000" fill-rule="nonzero" fill-opacity="1" /><path clip-path="url(#clip220)" d="M1296.2 1546.53 L1296.2 1568.04 L1290.35 1568.04 L1290.35 1546.72 Q1290.35 1541.66 1288.37 1539.14 Q1286.4 1536.63 1282.45 1536.63 Q1277.71 1536.63 1274.97 1539.65 Q1272.24 1542.68 1272.24 1547.9 L1272.24 1568.04 L1266.35 1568.04 L1266.35 1518.52 L1272.24 1518.52 L1272.24 1537.93 Q1274.34 1534.72 1277.17 1533.13 Q1280.04 1531.54 1283.76 1531.54 Q1289.9 1531.54 1293.05 1535.36 Q1296.2 1539.14 1296.2 1546.53 Z" fill="#000000" fill-rule="nonzero" fill-opacity="1" /><path clip-path="url(#clip220)" d="M1328.54 1537.87 Q1327.56 1537.3 1326.38 1537.04 Q1325.23 1536.76 1323.83 1536.76 Q1318.87 1536.76 1316.19 1540 Q1313.55 1543.22 1313.55 1549.27 L1313.55 1568.04 L1307.66 1568.04 L1307.66 1532.4 L1313.55 1532.4 L1313.55 1537.93 Q1315.4 1534.69 1318.36 1533.13 Q1321.32 1531.54 1325.55 1531.54 Q1326.15 1531.54 1326.89 1531.63 Q1327.62 1531.7 1328.51 1531.85 L1328.54 1537.87 Z" fill="#000000" fill-rule="nonzero" fill-opacity="1" /><polyline clip-path="url(#clip220)" style="stroke:#000000; stroke-linecap:round; stroke-linejoin:round; stroke-width:4; stroke-opacity:1; fill:none" points="242.135,1423.18 242.135,47.2441 "/>
<polyline clip-path="url(#clip220)" style="stroke:#000000; stroke-linecap:round; stroke-linejoin:round; stroke-width:4; stroke-opacity:1; fill:none" points="242.135,1384.24 261.032,1384.24 "/>
<polyline clip-path="url(#clip220)" style="stroke:#000000; stroke-linecap:round; stroke-linejoin:round; stroke-width:4; stroke-opacity:1; fill:none" points="242.135,1013.37 261.032,1013.37 "/>
<polyline clip-path="url(#clip220)" style="stroke:#000000; stroke-linecap:round; stroke-linejoin:round; stroke-width:4; stroke-opacity:1; fill:none" points="242.135,642.494 261.032,642.494 "/>
<polyline clip-path="url(#clip220)" style="stroke:#000000; stroke-linecap:round; stroke-linejoin:round; stroke-width:4; stroke-opacity:1; fill:none" points="242.135,271.622 261.032,271.622 "/>
<path clip-path="url(#clip220)" d="M114.26 1384.69 L143.936 1384.69 L143.936 1388.62 L114.26 1388.62 L114.26 1384.69 Z" fill="#000000" fill-rule="nonzero" fill-opacity="1" /><path clip-path="url(#clip220)" d="M166.876 1371.03 L155.07 1389.48 L166.876 1389.48 L166.876 1371.03 M165.649 1366.96 L171.528 1366.96 L171.528 1389.48 L176.459 1389.48 L176.459 1393.37 L171.528 1393.37 L171.528 1401.52 L166.876 1401.52 L166.876 1393.37 L151.274 1393.37 L151.274 1388.86 L165.649 1366.96 Z" fill="#000000" fill-rule="nonzero" fill-opacity="1" /><path clip-path="url(#clip220)" d="M194.19 1370.04 Q190.579 1370.04 188.75 1373.6 Q186.945 1377.14 186.945 1384.27 Q186.945 1391.38 188.75 1394.94 Q190.579 1398.49 194.19 1398.49 Q197.825 1398.49 199.63 1394.94 Q201.459 1391.38 201.459 1384.27 Q201.459 1377.14 199.63 1373.6 Q197.825 1370.04 194.19 1370.04 M194.19 1366.33 Q200 1366.33 203.056 1370.94 Q206.135 1375.52 206.135 1384.27 Q206.135 1393 203.056 1397.61 Q200 1402.19 194.19 1402.19 Q188.38 1402.19 185.301 1397.61 Q182.246 1393 182.246 1384.27 Q182.246 1375.52 185.301 1370.94 Q188.38 1366.33 194.19 1366.33 Z" fill="#000000" fill-rule="nonzero" fill-opacity="1" /><path clip-path="url(#clip220)" d="M115.256 1013.82 L144.931 1013.82 L144.931 1017.75 L115.256 1017.75 L115.256 1013.82 Z" fill="#000000" fill-rule="nonzero" fill-opacity="1" /><path clip-path="url(#clip220)" d="M169.19 1012.01 Q172.547 1012.73 174.422 1015 Q176.32 1017.27 176.32 1020.6 Q176.32 1025.72 172.802 1028.52 Q169.283 1031.32 162.802 1031.32 Q160.626 1031.32 158.311 1030.88 Q156.019 1030.46 153.566 1029.6 L153.566 1025.09 Q155.51 1026.22 157.825 1026.8 Q160.14 1027.38 162.663 1027.38 Q167.061 1027.38 169.352 1025.65 Q171.667 1023.91 171.667 1020.6 Q171.667 1017.54 169.514 1015.83 Q167.385 1014.1 163.565 1014.1 L159.538 1014.1 L159.538 1010.25 L163.751 1010.25 Q167.2 1010.25 169.028 1008.89 Q170.857 1007.5 170.857 1004.91 Q170.857 1002.24 168.959 1000.83 Q167.084 999.396 163.565 999.396 Q161.644 999.396 159.445 999.813 Q157.246 1000.23 154.607 1001.11 L154.607 996.943 Q157.269 996.202 159.584 995.831 Q161.922 995.461 163.982 995.461 Q169.306 995.461 172.408 997.892 Q175.51 1000.3 175.51 1004.42 Q175.51 1007.29 173.866 1009.28 Q172.223 1011.25 169.19 1012.01 Z" fill="#000000" fill-rule="nonzero" fill-opacity="1" /><path clip-path="url(#clip220)" d="M185.232 996.086 L203.588 996.086 L203.588 1000.02 L189.514 1000.02 L189.514 1008.49 Q190.533 1008.15 191.551 1007.98 Q192.57 1007.8 193.588 1007.8 Q199.375 1007.8 202.755 1010.97 Q206.135 1014.14 206.135 1019.56 Q206.135 1025.14 202.662 1028.24 Q199.19 1031.32 192.871 1031.32 Q190.695 1031.32 188.426 1030.95 Q186.181 1030.58 183.774 1029.84 L183.774 1025.14 Q185.857 1026.27 188.079 1026.83 Q190.301 1027.38 192.778 1027.38 Q196.783 1027.38 199.121 1025.28 Q201.459 1023.17 201.459 1019.56 Q201.459 1015.95 199.121 1013.84 Q196.783 1011.73 192.778 1011.73 Q190.903 1011.73 189.028 1012.15 Q187.176 1012.57 185.232 1013.45 L185.232 996.086 Z" fill="#000000" fill-rule="nonzero" fill-opacity="1" /><path clip-path="url(#clip220)" d="M114.26 642.945 L143.936 642.945 L143.936 646.88 L114.26 646.88 L114.26 642.945 Z" fill="#000000" fill-rule="nonzero" fill-opacity="1" /><path clip-path="url(#clip220)" d="M168.195 641.14 Q171.552 641.857 173.427 644.126 Q175.325 646.394 175.325 649.728 Q175.325 654.843 171.806 657.644 Q168.288 660.445 161.806 660.445 Q159.63 660.445 157.315 660.005 Q155.024 659.589 152.57 658.732 L152.57 654.218 Q154.515 655.353 156.829 655.931 Q159.144 656.51 161.667 656.51 Q166.065 656.51 168.357 654.774 Q170.672 653.038 170.672 649.728 Q170.672 646.672 168.519 644.959 Q166.39 643.223 162.57 643.223 L158.542 643.223 L158.542 639.381 L162.755 639.381 Q166.204 639.381 168.033 638.015 Q169.862 636.626 169.862 634.033 Q169.862 631.371 167.964 629.959 Q166.089 628.524 162.57 628.524 Q160.649 628.524 158.45 628.941 Q156.251 629.357 153.612 630.237 L153.612 626.07 Q156.274 625.33 158.589 624.959 Q160.927 624.589 162.987 624.589 Q168.311 624.589 171.413 627.019 Q174.514 629.427 174.514 633.547 Q174.514 636.418 172.871 638.408 Q171.227 640.376 168.195 641.14 Z" fill="#000000" fill-rule="nonzero" fill-opacity="1" /><path clip-path="url(#clip220)" d="M194.19 628.293 Q190.579 628.293 188.75 631.857 Q186.945 635.399 186.945 642.529 Q186.945 649.635 188.75 653.2 Q190.579 656.742 194.19 656.742 Q197.825 656.742 199.63 653.2 Q201.459 649.635 201.459 642.529 Q201.459 635.399 199.63 631.857 Q197.825 628.293 194.19 628.293 M194.19 624.589 Q200 624.589 203.056 629.195 Q206.135 633.779 206.135 642.529 Q206.135 651.255 203.056 655.862 Q200 660.445 194.19 660.445 Q188.38 660.445 185.301 655.862 Q182.246 651.255 182.246 642.529 Q182.246 633.779 185.301 629.195 Q188.38 624.589 194.19 624.589 Z" fill="#000000" fill-rule="nonzero" fill-opacity="1" /><path clip-path="url(#clip220)" d="M115.256 272.073 L144.931 272.073 L144.931 276.008 L115.256 276.008 L115.256 272.073 Z" fill="#000000" fill-rule="nonzero" fill-opacity="1" /><path clip-path="url(#clip220)" d="M159.052 284.967 L175.371 284.967 L175.371 288.902 L153.427 288.902 L153.427 284.967 Q156.089 282.212 160.672 277.582 Q165.278 272.93 166.459 271.587 Q168.704 269.064 169.584 267.328 Q170.487 265.569 170.487 263.879 Q170.487 261.124 168.542 259.388 Q166.621 257.652 163.519 257.652 Q161.32 257.652 158.866 258.416 Q156.436 259.18 153.658 260.731 L153.658 256.008 Q156.482 254.874 158.936 254.295 Q161.39 253.717 163.427 253.717 Q168.797 253.717 171.991 256.402 Q175.186 259.087 175.186 263.578 Q175.186 265.707 174.376 267.629 Q173.589 269.527 171.482 272.119 Q170.903 272.791 167.802 276.008 Q164.7 279.203 159.052 284.967 Z" fill="#000000" fill-rule="nonzero" fill-opacity="1" /><path clip-path="url(#clip220)" d="M185.232 254.342 L203.588 254.342 L203.588 258.277 L189.514 258.277 L189.514 266.749 Q190.533 266.402 191.551 266.24 Q192.57 266.055 193.588 266.055 Q199.375 266.055 202.755 269.226 Q206.135 272.397 206.135 277.814 Q206.135 283.393 202.662 286.494 Q199.19 289.573 192.871 289.573 Q190.695 289.573 188.426 289.203 Q186.181 288.832 183.774 288.092 L183.774 283.393 Q185.857 284.527 188.079 285.082 Q190.301 285.638 192.778 285.638 Q196.783 285.638 199.121 283.531 Q201.459 281.425 201.459 277.814 Q201.459 274.203 199.121 272.096 Q196.783 269.99 192.778 269.99 Q190.903 269.99 189.028 270.406 Q187.176 270.823 185.232 271.703 L185.232 254.342 Z" fill="#000000" fill-rule="nonzero" fill-opacity="1" /><path clip-path="url(#clip220)" d="M19.7307 759.306 Q19.7307 761.852 21.5131 763.603 Q23.2636 765.354 25.8099 765.354 Q28.3244 765.354 30.0749 763.603 Q31.7937 761.852 31.7937 759.306 Q31.7937 756.76 30.0749 755.009 Q28.3244 753.259 25.8099 753.259 Q23.2955 753.259 21.5131 755.041 Q19.7307 756.792 19.7307 759.306 M15.6248 759.306 Q15.6248 757.269 16.4205 755.391 Q17.1844 753.513 18.6485 752.145 Q20.0808 750.681 21.895 749.949 Q23.7092 749.217 25.8099 749.217 Q30.0113 749.217 32.9395 752.177 Q35.8359 755.105 35.8359 759.37 Q35.8359 763.667 32.9713 766.531 Q30.1068 769.396 25.8099 769.396 Q21.5449 769.396 18.5848 766.468 Q15.6248 763.539 15.6248 759.306 Z" fill="#000000" fill-rule="nonzero" fill-opacity="1" /><path clip-path="url(#clip220)" d="M20.1444 701.028 L26.9239 701.028 Q23.9002 704.275 22.4043 707.967 Q20.9083 711.627 20.9083 715.765 Q20.9083 723.913 25.9054 728.242 Q30.8707 732.57 40.2919 732.57 Q49.6813 732.57 54.6784 728.242 Q59.6436 723.913 59.6436 715.765 Q59.6436 711.627 58.1477 707.967 Q56.6518 704.275 53.6281 701.028 L60.3439 701.028 Q62.6355 704.402 63.7814 708.19 Q64.9272 711.945 64.9272 716.147 Q64.9272 726.937 58.3387 733.143 Q51.7183 739.35 40.2919 739.35 Q28.8336 739.35 22.2451 733.143 Q15.6248 726.937 15.6248 716.147 Q15.6248 711.882 16.7706 708.126 Q17.8846 704.338 20.1444 701.028 Z" fill="#000000" fill-rule="nonzero" fill-opacity="1" /><polyline clip-path="url(#clip221)" style="stroke:#07519c; stroke-linecap:round; stroke-linejoin:round; stroke-width:4; stroke-opacity:1; fill:none" points="301.869,1310.06 303.945,1339.73 306.021,1347.15 308.097,1347.15 310.172,1339.73 312.248,1339.73 314.324,1339.73 316.4,1339.73 318.476,1339.73 320.552,1332.32 322.627,1324.9 324.703,1317.48 326.779,1310.06 328.855,1302.65 330.931,1287.81 333.006,1280.39 335.082,1272.98 337.158,1258.14 339.234,1250.72 341.31,1235.89 343.385,1228.47 345.461,1213.64 347.537,1198.8 349.613,1183.97 351.689,1176.55 353.764,1161.71 355.84,1146.88 357.916,1139.46 359.992,1124.63 362.068,1109.79 364.144,1102.38 366.219,1087.54 368.295,1080.12 370.371,1072.71 372.447,1057.87 374.523,1050.45 376.598,1043.04 378.674,1028.2 380.75,1020.78 382.826,1013.37 384.936,1005.95 386.977,991.114 389.053,983.696 391.164,968.861 393.205,961.444 395.315,954.027 397.357,939.192 399.432,931.774 401.543,916.939 403.584,909.522 405.694,902.104 407.77,887.27 409.811,879.852 411.922,879.852 413.998,879.852 416.073,872.435 418.149,865.017 420.225,865.017 422.301,865.017 424.377,857.6 426.452,857.6 428.528,850.182 430.604,850.182 432.68,842.765 434.756,842.765 436.832,835.347 438.907,835.347 440.983,827.93 443.059,827.93 445.135,827.93 447.211,820.513 449.286,820.513 451.362,820.513 453.438,813.095 455.514,813.095 457.59,813.095 459.665,813.095 461.741,805.678 463.817,805.678 465.893,798.26 467.969,790.843 470.044,790.843 472.12,790.843 474.196,790.843 476.272,783.425 478.348,783.425 480.424,783.425 482.499,776.008 484.575,776.008 486.651,776.008 488.727,768.59 490.803,768.59 492.878,768.59 494.954,768.59 497.03,768.59 499.106,761.173 501.182,761.173 503.257,761.173 505.333,753.756 507.409,753.756 509.485,753.756 511.561,746.338 513.637,746.338 515.712,746.338 517.788,746.338 519.864,738.921 521.94,738.921 524.016,738.921 526.091,731.503 528.167,731.503 530.243,731.503 532.319,731.503 534.395,724.086 536.47,724.086 538.546,724.086 540.622,724.086 542.698,724.086 544.774,716.668 546.884,716.668 548.925,716.668 551.036,709.251 553.077,709.251 555.153,709.251 557.263,709.251 559.304,701.833 561.415,701.833 563.491,701.833 565.532,694.416 567.642,694.416 569.718,694.416 571.794,694.416 573.87,694.416 575.945,686.999 578.021,686.999 580.097,686.999 582.173,686.999 584.249,679.581 586.324,679.581 588.4,679.581 590.476,679.581 592.552,679.581 594.628,672.164 596.704,672.164 598.779,672.164 600.855,672.164 602.931,672.164 605.007,672.164 607.083,672.164 609.158,664.746 611.234,664.746 613.31,664.746 615.386,664.746 617.462,657.329 619.537,657.329 621.613,657.329 623.689,657.329 625.765,649.911 627.841,649.911 629.916,649.911 631.992,649.911 634.068,649.911 636.144,649.911 638.22,642.494 640.296,642.494 642.371,642.494 644.447,642.494 646.523,642.494 648.599,635.076 650.675,635.076 652.75,635.076 654.826,635.076 656.902,635.076 658.978,635.076 661.054,635.076 663.129,627.659 665.205,627.659 667.281,627.659 669.357,627.659 671.433,627.659 673.509,627.659 675.584,620.242 677.66,620.242 679.736,620.242 681.812,620.242 683.888,620.242 685.963,612.824 688.039,612.824 690.115,612.824 692.191,612.824 694.267,612.824 696.342,605.407 698.453,605.407 700.494,605.407 702.57,605.407 704.68,605.407 706.721,605.407 708.832,605.407 710.908,605.407 712.984,597.989 715.059,605.407 717.135,597.989 719.211,597.989 721.287,597.989 723.363,597.989 725.438,597.989 727.514,590.572 729.59,590.572 731.666,590.572 733.742,590.572 735.817,590.572 737.893,583.154 739.969,583.154 742.045,583.154 744.121,583.154 746.196,583.154 748.272,583.154 750.348,583.154 752.424,583.154 754.5,583.154 756.576,583.154 758.651,583.154 760.727,575.737 762.803,575.737 764.879,575.737 766.955,568.319 769.03,568.319 771.106,568.319 773.182,568.319 775.258,568.319 777.334,568.319 779.409,568.319 781.485,568.319 783.561,568.319 785.637,560.902 787.713,560.902 789.789,560.902 791.864,560.902 793.94,560.902 796.016,560.902 798.092,553.485 800.168,553.485 802.243,553.485 804.319,553.485 806.395,553.485 808.471,553.485 810.547,553.485 812.622,553.485 814.698,553.485 816.774,546.067 818.85,546.067 820.926,546.067 823.001,546.067 825.077,546.067 827.153,546.067 829.229,546.067 831.305,546.067 833.381,546.067 835.456,538.65 837.532,538.65 839.608,538.65 841.684,538.65 843.76,538.65 845.835,538.65 847.946,538.65 849.987,531.232 852.063,531.232 854.173,538.65 856.214,538.65 858.325,531.232 860.366,531.232 862.476,531.232 864.552,531.232 866.628,531.232 868.704,531.232 870.745,523.815 872.856,531.232 874.931,531.232 877.007,531.232 879.083,531.232 881.159,523.815 883.235,523.815 885.31,523.815 887.386,523.815 889.462,523.815 891.538,523.815 893.614,523.815 895.689,523.815 897.765,523.815 899.841,523.815 901.917,516.397 903.993,523.815 906.068,516.397 908.144,516.397 910.22,516.397 912.296,508.98 914.372,508.98 916.448,508.98 918.523,508.98 920.599,508.98 922.675,508.98 924.751,508.98 926.827,508.98 928.902,508.98 930.978,508.98 933.054,508.98 935.13,508.98 937.206,508.98 939.281,508.98 941.357,508.98 943.433,508.98 945.509,508.98 947.585,501.563 949.661,501.563 951.736,508.98 953.812,508.98 955.888,501.563 957.964,508.98 960.04,501.563 962.115,501.563 964.191,501.563 966.267,501.563 968.343,494.145 970.419,501.563 972.494,501.563 974.57,501.563 976.646,494.145 978.722,494.145 980.798,494.145 982.873,494.145 984.949,494.145 987.025,494.145 989.101,494.145 991.177,494.145 993.253,494.145 995.328,486.728 997.439,486.728 999.48,486.728 1001.56,486.728 1003.63,486.728 1005.71,486.728 1007.82,486.728 1009.86,486.728 1011.93,486.728 1014.05,486.728 1016.09,486.728 1018.2,486.728 1020.24,486.728 1022.35,486.728 1024.42,486.728 1026.47,486.728 1028.58,486.728 1030.65,486.728 1032.73,486.728 1034.8,479.31 1036.88,479.31 1038.95,479.31 1041.03,479.31 1043.11,479.31 1045.18,479.31 1047.26,479.31 1049.33,479.31 1051.41,479.31 1053.49,479.31 1055.56,479.31 1057.64,479.31 1059.71,479.31 1061.79,479.31 1063.86,479.31 1065.94,479.31 1068.02,479.31 1070.09,479.31 1072.17,471.893 1074.24,471.893 1076.32,471.893 1078.4,471.893 1080.47,471.893 1082.55,471.893 1084.62,471.893 1086.7,471.893 1088.77,471.893 1090.85,471.893 1092.93,471.893 1095,471.893 1097.08,471.893 1099.15,464.475 1101.23,464.475 1103.31,464.475 1105.38,471.893 1107.46,471.893 1109.53,471.893 1111.61,464.475 1113.68,464.475 1115.76,464.475 1117.84,464.475 1119.91,464.475 1121.99,464.475 1124.06,464.475 1126.14,464.475 1128.21,464.475 1130.29,464.475 1132.37,464.475 1134.44,464.475 1136.52,464.475 1138.59,464.475 1140.67,464.475 1142.75,464.475 1144.82,464.475 1146.9,464.475 1149.01,464.475 1151.05,464.475 1153.12,464.475 1155.2,457.058 1157.28,464.475 1159.39,457.058 1161.43,464.475 1163.54,464.475 1165.61,457.058 1167.66,457.058 1169.77,464.475 1171.84,457.058 1173.92,464.475 1175.99,457.058 1178.03,457.058 1180.14,457.058 1182.22,457.058 1184.3,457.058 1186.37,457.058 1188.45,457.058 1190.52,457.058 1192.6,457.058 1194.68,457.058 1196.75,457.058 1198.83,457.058 1200.9,457.058 1202.98,449.64 1205.05,449.64 1207.13,449.64 1209.21,449.64 1211.28,449.64 1213.36,449.64 1215.43,449.64 1217.51,449.64 1219.59,442.223 1221.66,449.64 1223.74,449.64 1225.81,449.64 1227.89,449.64 1229.96,449.64 1232.04,449.64 1234.12,449.64 1236.19,449.64 1238.27,449.64 1240.34,449.64 1242.42,442.223 1244.49,449.64 1246.57,442.223 1248.65,442.223 1250.72,442.223 1252.8,449.64 1254.87,442.223 1256.95,442.223 1259.03,442.223 1261.1,442.223 1263.18,442.223 1265.25,442.223 1267.33,442.223 1269.4,442.223 1271.48,442.223 1273.56,442.223 1275.63,442.223 1277.71,442.223 1279.78,442.223 1281.86,442.223 1283.94,442.223 1286.01,442.223 1288.09,442.223 1290.16,442.223 1292.24,442.223 1294.31,442.223 1296.39,442.223 1298.47,442.223 1300.58,442.223 1302.62,442.223 1304.73,442.223 1306.77,442.223 1308.84,442.223 1310.92,442.223 1313,434.806 1315.11,442.223 1317.15,434.806 1319.26,434.806 1321.33,434.806 1323.38,434.806 1325.49,434.806 1327.56,434.806 1329.64,434.806 1331.71,434.806 1333.79,434.806 1335.87,434.806 1337.94,434.806 1340.02,434.806 1342.09,434.806 1344.17,427.388 1346.24,434.806 1348.32,427.388 1350.4,427.388 1352.47,427.388 1354.55,427.388 1356.62,427.388 1358.7,427.388 1360.77,427.388 1362.85,427.388 1364.93,427.388 1367,427.388 1369.08,427.388 1371.15,427.388 1373.23,427.388 1375.31,427.388 1377.38,427.388 1379.46,427.388 1381.53,427.388 1383.61,427.388 1385.68,427.388 1387.76,427.388 1389.84,427.388 1391.91,427.388 1393.99,419.971 1396.06,419.971 1398.14,419.971 1400.22,427.388 1402.29,419.971 1404.37,419.971 1406.44,419.971 1408.52,419.971 1410.59,419.971 1412.67,419.971 1414.75,419.971 1416.82,419.971 1418.9,419.971 1420.97,419.971 1423.05,419.971 1425.12,419.971 1427.2,419.971 1429.28,419.971 1431.35,419.971 1433.43,419.971 1435.5,419.971 1437.58,419.971 1439.66,419.971 1441.73,419.971 1443.81,419.971 1445.88,419.971 1447.96,419.971 1450.03,419.971 1452.11,419.971 1454.19,419.971 1456.26,419.971 1458.37,419.971 1460.41,419.971 1462.49,419.971 1464.6,419.971 1466.64,419.971 1468.75,419.971 1470.83,419.971 1472.87,419.971 1474.98,419.971 1477.02,419.971 1479.13,419.971 1481.21,419.971 1483.28,419.971 1485.36,419.971 1487.43,419.971 1489.51,419.971 1491.59,419.971 1493.66,419.971 1495.74,412.553 1497.81,412.553 1499.89,412.553 1501.96,412.553 1504.04,419.971 1506.12,412.553 1508.19,412.553 1510.27,412.553 1512.34,412.553 1514.42,412.553 1516.5,412.553 1518.57,412.553 1520.65,412.553 1522.72,412.553 1524.8,412.553 1526.87,412.553 1528.95,412.553 1531.03,412.553 1533.1,412.553 1535.18,412.553 1537.25,412.553 1539.33,412.553 1541.4,412.553 1543.48,412.553 1545.56,412.553 1547.63,412.553 1549.71,405.136 1551.78,405.136 1553.86,405.136 1555.94,405.136 1558.01,405.136 1560.09,405.136 1562.16,405.136 1564.24,405.136 1566.31,405.136 1568.39,405.136 1570.47,405.136 1572.54,405.136 1574.62,405.136 1576.69,405.136 1578.77,405.136 1580.85,405.136 1582.92,405.136 1585,405.136 1587.07,412.553 1589.15,405.136 1591.22,405.136 1593.3,405.136 1595.38,405.136 1597.45,405.136 1599.53,405.136 1601.6,405.136 1603.68,405.136 1605.76,405.136 1607.87,405.136 1609.91,405.136 1611.98,397.718 1614.09,397.718 1616.13,405.136 1618.21,405.136 1620.32,405.136 1622.36,405.136 1624.47,405.136 1626.51,405.136 1628.62,397.718 1630.7,397.718 1632.74,405.136 1634.85,397.718 1636.93,397.718 1639,397.718 1641.08,397.718 1643.15,397.718 1645.23,397.718 1647.31,397.718 1649.38,397.718 1651.46,397.718 1653.53,397.718 1655.61,397.718 1657.68,397.718 1659.76,397.718 1661.84,397.718 1663.91,397.718 1665.99,397.718 1668.06,397.718 1670.14,397.718 1672.22,397.718 1674.29,397.718 1676.37,397.718 1678.44,397.718 1680.52,397.718 1682.59,397.718 1684.67,397.718 1686.75,397.718 1688.82,397.718 1690.9,397.718 1692.97,397.718 1695.05,397.718 1697.13,397.718 1699.2,397.718 1701.28,397.718 1703.35,397.718 1705.43,397.718 1707.5,397.718 1709.58,397.718 1711.66,397.718 1713.73,397.718 1715.81,397.718 1717.88,397.718 1719.96,397.718 1722.04,390.301 1724.11,397.718 1726.19,397.718 1728.26,397.718 1730.34,390.301 1732.41,390.301 1734.49,390.301 1736.57,390.301 1738.64,390.301 1740.72,397.718 1742.79,390.301 1744.87,390.301 1746.94,397.718 1749.02,390.301 1751.1,390.301 1753.17,390.301 1755.25,390.301 1757.36,390.301 1759.4,390.301 1761.48,390.301 1763.55,390.301 1765.63,390.301 1767.74,390.301 1769.78,390.301 1771.85,390.301 1773.96,390.301 1776.01,390.301 1778.12,390.301 1780.19,390.301 1782.23,390.301 1784.34,390.301 1786.42,390.301 1788.5,390.301 1790.57,390.301 1792.65,390.301 1794.72,390.301 1796.8,390.301 1798.87,390.301 1800.95,390.301 1803.03,390.301 1805.1,390.301 1807.18,390.301 1809.25,390.301 1811.33,390.301 1813.41,390.301 1815.48,390.301 1817.56,390.301 1819.63,390.301 1821.71,390.301 1823.78,390.301 1825.86,390.301 1827.94,390.301 1830.01,390.301 1832.09,390.301 1834.16,390.301 1836.24,390.301 1838.32,390.301 1840.39,390.301 1842.47,390.301 1844.54,390.301 1846.62,390.301 1848.69,390.301 1850.77,382.883 1852.85,390.301 1854.92,382.883 1857,390.301 1859.07,382.883 1861.15,382.883 1863.22,382.883 1865.3,382.883 1867.38,382.883 1869.45,382.883 1871.53,382.883 1873.6,382.883 1875.68,382.883 1877.76,382.883 1879.83,382.883 1881.91,382.883 1883.98,382.883 1886.06,382.883 1888.13,382.883 1890.21,382.883 1892.29,382.883 1894.36,382.883 1896.44,382.883 1898.51,382.883 1900.59,382.883 1902.67,382.883 1904.74,382.883 1906.82,382.883 1908.89,382.883 1910.97,382.883 1913.04,382.883 1915.12,382.883 1917.23,382.883 1919.27,382.883 1921.35,382.883 1923.46,382.883 1925.5,382.883 1927.61,375.466 1929.65,382.883 1931.73,382.883 1933.84,382.883 1935.88,382.883 1937.99,382.883 1940.06,382.883 1942.14,382.883 1944.22,382.883 1946.29,382.883 1948.37,382.883 1950.44,382.883 1952.52,382.883 1954.6,382.883 1956.67,382.883 1958.75,375.466 1960.82,382.883 1962.9,382.883 1964.97,382.883 1967.05,382.883 1969.13,382.883 1971.2,382.883 1973.28,375.466 1975.35,375.466 1977.43,375.466 1979.5,375.466 1981.58,375.466 1983.66,375.466 1985.73,375.466 1987.81,375.466 1989.88,382.883 1991.96,382.883 1994.04,375.466 1996.11,375.466 1998.19,375.466 2000.26,375.466 2002.34,375.466 2004.41,375.466 2006.49,375.466 2008.57,375.466 2010.64,375.466 2012.72,375.466 2014.79,368.049 2016.87,368.049 2018.95,368.049 2021.02,360.631 2023.1,360.631 2025.17,353.214 2027.25,338.379 2029.32,323.544 2031.4,316.126 2033.48,301.292 2035.55,293.874 2037.63,279.039 2039.7,264.204 2041.78,256.787 2043.85,249.369 2045.93,249.369 2048.01,241.952 2050.08,234.535 2052.16,227.117 2054.23,204.865 2056.31,197.447 2058.39,197.447 2060.46,190.03 2062.54,182.612 2064.61,182.612 2066.69,175.195 2068.76,175.195 2070.88,167.778 2072.92,167.778 2074.99,167.778 2077.1,160.36 2079.14,160.36 2081.22,152.943 2083.33,152.943 2085.37,152.943 2087.48,152.943 2089.56,152.943 2091.63,145.525 2093.71,145.525 2095.78,138.108 2097.86,138.108 2099.94,138.108 2102.01,138.108 2104.09,130.69 2106.16,130.69 2108.24,130.69 2110.32,130.69 2112.39,123.273 2114.47,123.273 2116.54,123.273 2118.62,123.273 2120.69,115.855 2122.77,115.855 2124.85,115.855 2126.92,115.855 2129,115.855 2131.07,115.855 2133.15,115.855 2135.23,115.855 2137.3,108.438 2139.38,108.438 2141.45,108.438 2143.53,108.438 2145.6,101.021 2147.68,101.021 2149.76,93.6031 2151.83,93.6031 2153.91,93.6031 2155.98,93.6031 2158.06,93.6031 2160.13,93.6031 2162.21,86.1857 2164.29,86.1857 2166.36,86.1857 2168.44,86.1857 "/>
<circle clip-path="url(#clip221)" cx="301.869" cy="1310.06" r="14.4" fill="#07519c" fill-rule="evenodd" fill-opacity="1" stroke="#000000" stroke-opacity="1" stroke-width="3.2"/>
<circle clip-path="url(#clip221)" cx="368.295" cy="1080.12" r="14.4" fill="#07519c" fill-rule="evenodd" fill-opacity="1" stroke="#000000" stroke-opacity="1" stroke-width="3.2"/>
<circle clip-path="url(#clip221)" cx="434.756" cy="842.765" r="14.4" fill="#07519c" fill-rule="evenodd" fill-opacity="1" stroke="#000000" stroke-opacity="1" stroke-width="3.2"/>
<circle clip-path="url(#clip221)" cx="501.182" cy="761.173" r="14.4" fill="#07519c" fill-rule="evenodd" fill-opacity="1" stroke="#000000" stroke-opacity="1" stroke-width="3.2"/>
<circle clip-path="url(#clip221)" cx="567.642" cy="694.416" r="14.4" fill="#07519c" fill-rule="evenodd" fill-opacity="1" stroke="#000000" stroke-opacity="1" stroke-width="3.2"/>
<circle clip-path="url(#clip221)" cx="634.068" cy="649.911" r="14.4" fill="#07519c" fill-rule="evenodd" fill-opacity="1" stroke="#000000" stroke-opacity="1" stroke-width="3.2"/>
<circle clip-path="url(#clip221)" cx="700.494" cy="605.407" r="14.4" fill="#07519c" fill-rule="evenodd" fill-opacity="1" stroke="#000000" stroke-opacity="1" stroke-width="3.2"/>
<circle clip-path="url(#clip221)" cx="766.955" cy="568.319" r="14.4" fill="#07519c" fill-rule="evenodd" fill-opacity="1" stroke="#000000" stroke-opacity="1" stroke-width="3.2"/>
<circle clip-path="url(#clip221)" cx="833.381" cy="546.067" r="14.4" fill="#07519c" fill-rule="evenodd" fill-opacity="1" stroke="#000000" stroke-opacity="1" stroke-width="3.2"/>
<circle clip-path="url(#clip221)" cx="899.841" cy="523.815" r="14.4" fill="#07519c" fill-rule="evenodd" fill-opacity="1" stroke="#000000" stroke-opacity="1" stroke-width="3.2"/>
<circle clip-path="url(#clip221)" cx="966.267" cy="501.563" r="14.4" fill="#07519c" fill-rule="evenodd" fill-opacity="1" stroke="#000000" stroke-opacity="1" stroke-width="3.2"/>
<circle clip-path="url(#clip221)" cx="1032.73" cy="486.728" r="14.4" fill="#07519c" fill-rule="evenodd" fill-opacity="1" stroke="#000000" stroke-opacity="1" stroke-width="3.2"/>
<circle clip-path="url(#clip221)" cx="1099.15" cy="464.475" r="14.4" fill="#07519c" fill-rule="evenodd" fill-opacity="1" stroke="#000000" stroke-opacity="1" stroke-width="3.2"/>
<circle clip-path="url(#clip221)" cx="1165.61" cy="457.058" r="14.4" fill="#07519c" fill-rule="evenodd" fill-opacity="1" stroke="#000000" stroke-opacity="1" stroke-width="3.2"/>
<circle clip-path="url(#clip221)" cx="1232.04" cy="449.64" r="14.4" fill="#07519c" fill-rule="evenodd" fill-opacity="1" stroke="#000000" stroke-opacity="1" stroke-width="3.2"/>
<circle clip-path="url(#clip221)" cx="1298.47" cy="442.223" r="14.4" fill="#07519c" fill-rule="evenodd" fill-opacity="1" stroke="#000000" stroke-opacity="1" stroke-width="3.2"/>
<circle clip-path="url(#clip221)" cx="1364.93" cy="427.388" r="14.4" fill="#07519c" fill-rule="evenodd" fill-opacity="1" stroke="#000000" stroke-opacity="1" stroke-width="3.2"/>
<circle clip-path="url(#clip221)" cx="1431.35" cy="419.971" r="14.4" fill="#07519c" fill-rule="evenodd" fill-opacity="1" stroke="#000000" stroke-opacity="1" stroke-width="3.2"/>
<circle clip-path="url(#clip221)" cx="1497.81" cy="412.553" r="14.4" fill="#07519c" fill-rule="evenodd" fill-opacity="1" stroke="#000000" stroke-opacity="1" stroke-width="3.2"/>
<circle clip-path="url(#clip221)" cx="1564.24" cy="405.136" r="14.4" fill="#07519c" fill-rule="evenodd" fill-opacity="1" stroke="#000000" stroke-opacity="1" stroke-width="3.2"/>
<circle clip-path="url(#clip221)" cx="1630.7" cy="397.718" r="14.4" fill="#07519c" fill-rule="evenodd" fill-opacity="1" stroke="#000000" stroke-opacity="1" stroke-width="3.2"/>
<circle clip-path="url(#clip221)" cx="1697.13" cy="397.718" r="14.4" fill="#07519c" fill-rule="evenodd" fill-opacity="1" stroke="#000000" stroke-opacity="1" stroke-width="3.2"/>
<circle clip-path="url(#clip221)" cx="1763.55" cy="390.301" r="14.4" fill="#07519c" fill-rule="evenodd" fill-opacity="1" stroke="#000000" stroke-opacity="1" stroke-width="3.2"/>
<circle clip-path="url(#clip221)" cx="1830.01" cy="390.301" r="14.4" fill="#07519c" fill-rule="evenodd" fill-opacity="1" stroke="#000000" stroke-opacity="1" stroke-width="3.2"/>
<circle clip-path="url(#clip221)" cx="1896.44" cy="382.883" r="14.4" fill="#07519c" fill-rule="evenodd" fill-opacity="1" stroke="#000000" stroke-opacity="1" stroke-width="3.2"/>
<circle clip-path="url(#clip221)" cx="1962.9" cy="382.883" r="14.4" fill="#07519c" fill-rule="evenodd" fill-opacity="1" stroke="#000000" stroke-opacity="1" stroke-width="3.2"/>
<circle clip-path="url(#clip221)" cx="2029.32" cy="323.544" r="14.4" fill="#07519c" fill-rule="evenodd" fill-opacity="1" stroke="#000000" stroke-opacity="1" stroke-width="3.2"/>
<circle clip-path="url(#clip221)" cx="2095.78" cy="138.108" r="14.4" fill="#07519c" fill-rule="evenodd" fill-opacity="1" stroke="#000000" stroke-opacity="1" stroke-width="3.2"/>
<circle clip-path="url(#clip221)" cx="2162.21" cy="86.1857" r="14.4" fill="#07519c" fill-rule="evenodd" fill-opacity="1" stroke="#000000" stroke-opacity="1" stroke-width="3.2"/>
<polyline clip-path="url(#clip221)" style="stroke:#3082bc; stroke-linecap:round; stroke-linejoin:round; stroke-width:4; stroke-opacity:1; fill:none" points="301.869,1354.57 303.945,1369.4 306.021,1376.82 308.097,1376.82 310.172,1384.24 312.248,1384.24 314.324,1384.24 316.4,1384.24 318.476,1384.24 320.552,1384.24 322.627,1384.24 324.703,1376.82 326.779,1376.82 328.855,1369.4 330.931,1361.99 333.006,1354.57 335.082,1347.15 337.158,1339.73 339.234,1324.9 341.31,1317.48 343.385,1310.06 345.461,1302.65 347.537,1287.81 349.613,1272.98 351.689,1265.56 353.764,1258.14 355.84,1243.31 357.916,1228.47 359.992,1221.05 362.068,1213.64 364.144,1198.8 366.219,1191.38 368.295,1183.97 370.371,1176.55 372.447,1169.13 374.523,1161.71 376.598,1154.3 378.674,1146.88 380.75,1139.46 382.826,1132.05 384.936,1124.63 386.977,1109.79 389.053,1109.79 391.164,1094.96 393.205,1087.54 395.315,1080.12 397.357,1072.71 399.432,1065.29 401.543,1057.87 403.584,1043.04 405.694,1043.04 407.77,1028.2 409.811,1028.2 411.922,1020.78 413.998,1020.78 416.073,1013.37 418.149,1013.37 420.225,1013.37 422.301,1005.95 424.377,1005.95 426.452,998.531 428.528,998.531 430.604,998.531 432.68,991.114 434.756,983.696 436.832,983.696 438.907,983.696 440.983,983.696 443.059,983.696 445.135,976.279 447.211,976.279 449.286,968.861 451.362,976.279 453.438,968.861 455.514,968.861 457.59,968.861 459.665,961.444 461.741,961.444 463.817,954.027 465.893,954.027 467.969,954.027 470.044,954.027 472.12,954.027 474.196,946.609 476.272,946.609 478.348,946.609 480.424,939.192 482.499,939.192 484.575,939.192 486.651,931.774 488.727,931.774 490.803,931.774 492.878,924.357 494.954,924.357 497.03,924.357 499.106,924.357 501.182,924.357 503.257,916.939 505.333,916.939 507.409,916.939 509.485,916.939 511.561,916.939 513.637,909.522 515.712,909.522 517.788,909.522 519.864,909.522 521.94,902.104 524.016,902.104 526.091,902.104 528.167,902.104 530.243,894.687 532.319,894.687 534.395,894.687 536.47,894.687 538.546,887.27 540.622,887.27 542.698,887.27 544.774,887.27 546.884,887.27 548.925,887.27 551.036,887.27 553.077,879.852 555.153,879.852 557.263,872.435 559.304,872.435 561.415,872.435 563.491,872.435 565.532,872.435 567.642,865.017 569.718,865.017 571.794,865.017 573.87,865.017 575.945,865.017 578.021,857.6 580.097,857.6 582.173,857.6 584.249,857.6 586.324,857.6 588.4,857.6 590.476,850.182 592.552,857.6 594.628,850.182 596.704,850.182 598.779,850.182 600.855,842.765 602.931,842.765 605.007,842.765 607.083,842.765 609.158,842.765 611.234,842.765 613.31,842.765 615.386,835.347 617.462,835.347 619.537,835.347 621.613,827.93 623.689,827.93 625.765,827.93 627.841,827.93 629.916,827.93 631.992,827.93 634.068,827.93 636.144,820.513 638.22,820.513 640.296,820.513 642.371,820.513 644.447,813.095 646.523,813.095 648.599,813.095 650.675,813.095 652.75,813.095 654.826,813.095 656.902,805.678 658.978,813.095 661.054,805.678 663.129,805.678 665.205,805.678 667.281,805.678 669.357,805.678 671.433,798.26 673.509,798.26 675.584,798.26 677.66,798.26 679.736,798.26 681.812,798.26 683.888,790.843 685.963,790.843 688.039,790.843 690.115,790.843 692.191,783.425 694.267,783.425 696.342,783.425 698.453,783.425 700.494,783.425 702.57,783.425 704.68,783.425 706.721,783.425 708.832,776.008 710.908,776.008 712.984,776.008 715.059,776.008 717.135,776.008 719.211,776.008 721.287,768.59 723.363,768.59 725.438,768.59 727.514,768.59 729.59,768.59 731.666,768.59 733.742,768.59 735.817,768.59 737.893,761.173 739.969,761.173 742.045,761.173 744.121,761.173 746.196,753.756 748.272,753.756 750.348,753.756 752.424,753.756 754.5,753.756 756.576,753.756 758.651,753.756 760.727,753.756 762.803,753.756 764.879,746.338 766.955,746.338 769.03,746.338 771.106,746.338 773.182,738.921 775.258,738.921 777.334,738.921 779.409,738.921 781.485,738.921 783.561,738.921 785.637,731.503 787.713,738.921 789.789,731.503 791.864,731.503 793.94,731.503 796.016,731.503 798.092,731.503 800.168,731.503 802.243,731.503 804.319,731.503 806.395,724.086 808.471,724.086 810.547,724.086 812.622,724.086 814.698,724.086 816.774,724.086 818.85,724.086 820.926,724.086 823.001,716.668 825.077,716.668 827.153,716.668 829.229,716.668 831.305,716.668 833.381,716.668 835.456,716.668 837.532,709.251 839.608,709.251 841.684,709.251 843.76,709.251 845.835,709.251 847.946,709.251 849.987,709.251 852.063,701.833 854.173,709.251 856.214,701.833 858.325,701.833 860.366,701.833 862.476,701.833 864.552,701.833 866.628,701.833 868.704,701.833 870.745,701.833 872.856,694.416 874.931,694.416 877.007,694.416 879.083,694.416 881.159,694.416 883.235,694.416 885.31,694.416 887.386,694.416 889.462,694.416 891.538,686.999 893.614,694.416 895.689,686.999 897.765,686.999 899.841,686.999 901.917,686.999 903.993,686.999 906.068,686.999 908.144,686.999 910.22,679.581 912.296,679.581 914.372,679.581 916.448,679.581 918.523,679.581 920.599,679.581 922.675,679.581 924.751,679.581 926.827,679.581 928.902,679.581 930.978,679.581 933.054,679.581 935.13,679.581 937.206,672.164 939.281,672.164 941.357,672.164 943.433,672.164 945.509,672.164 947.585,672.164 949.661,672.164 951.736,664.746 953.812,672.164 955.888,672.164 957.964,664.746 960.04,664.746 962.115,664.746 964.191,664.746 966.267,664.746 968.343,664.746 970.419,664.746 972.494,664.746 974.57,664.746 976.646,664.746 978.722,657.329 980.798,657.329 982.873,657.329 984.949,657.329 987.025,657.329 989.101,657.329 991.177,657.329 993.253,657.329 995.328,649.911 997.439,649.911 999.48,649.911 1001.56,649.911 1003.63,649.911 1005.71,649.911 1007.82,649.911 1009.86,649.911 1011.93,649.911 1014.05,649.911 1016.09,642.494 1018.2,649.911 1020.24,649.911 1022.35,649.911 1024.42,649.911 1026.47,649.911 1028.58,642.494 1030.65,642.494 1032.73,642.494 1034.8,642.494 1036.88,642.494 1038.95,642.494 1041.03,635.076 1043.11,642.494 1045.18,635.076 1047.26,635.076 1049.33,635.076 1051.41,635.076 1053.49,635.076 1055.56,642.494 1057.64,635.076 1059.71,635.076 1061.79,635.076 1063.86,627.659 1065.94,635.076 1068.02,627.659 1070.09,627.659 1072.17,627.659 1074.24,627.659 1076.32,627.659 1078.4,627.659 1080.47,627.659 1082.55,627.659 1084.62,627.659 1086.7,627.659 1088.77,627.659 1090.85,627.659 1092.93,627.659 1095,627.659 1097.08,627.659 1099.15,620.242 1101.23,620.242 1103.31,620.242 1105.38,620.242 1107.46,620.242 1109.53,620.242 1111.61,620.242 1113.68,620.242 1115.76,620.242 1117.84,612.824 1119.91,620.242 1121.99,620.242 1124.06,620.242 1126.14,620.242 1128.21,612.824 1130.29,612.824 1132.37,612.824 1134.44,612.824 1136.52,612.824 1138.59,612.824 1140.67,612.824 1142.75,612.824 1144.82,612.824 1146.9,612.824 1149.01,612.824 1151.05,612.824 1153.12,612.824 1155.2,612.824 1157.28,605.407 1159.39,605.407 1161.43,612.824 1163.54,612.824 1165.61,605.407 1167.66,605.407 1169.77,605.407 1171.84,605.407 1173.92,605.407 1175.99,605.407 1178.03,605.407 1180.14,605.407 1182.22,605.407 1184.3,605.407 1186.37,597.989 1188.45,597.989 1190.52,597.989 1192.6,605.407 1194.68,597.989 1196.75,597.989 1198.83,597.989 1200.9,597.989 1202.98,597.989 1205.05,597.989 1207.13,597.989 1209.21,597.989 1211.28,597.989 1213.36,597.989 1215.43,597.989 1217.51,597.989 1219.59,597.989 1221.66,597.989 1223.74,597.989 1225.81,597.989 1227.89,597.989 1229.96,590.572 1232.04,590.572 1234.12,590.572 1236.19,590.572 1238.27,590.572 1240.34,590.572 1242.42,590.572 1244.49,590.572 1246.57,590.572 1248.65,590.572 1250.72,583.154 1252.8,590.572 1254.87,583.154 1256.95,590.572 1259.03,583.154 1261.1,583.154 1263.18,583.154 1265.25,583.154 1267.33,583.154 1269.4,583.154 1271.48,583.154 1273.56,583.154 1275.63,583.154 1277.71,583.154 1279.78,583.154 1281.86,583.154 1283.94,583.154 1286.01,583.154 1288.09,583.154 1290.16,583.154 1292.24,583.154 1294.31,583.154 1296.39,583.154 1298.47,583.154 1300.58,583.154 1302.62,583.154 1304.73,583.154 1306.77,583.154 1308.84,583.154 1310.92,575.737 1313,575.737 1315.11,575.737 1317.15,575.737 1319.26,575.737 1321.33,575.737 1323.38,575.737 1325.49,568.319 1327.56,568.319 1329.64,568.319 1331.71,568.319 1333.79,568.319 1335.87,575.737 1337.94,568.319 1340.02,568.319 1342.09,568.319 1344.17,568.319 1346.24,568.319 1348.32,568.319 1350.4,568.319 1352.47,568.319 1354.55,568.319 1356.62,568.319 1358.7,568.319 1360.77,568.319 1362.85,560.902 1364.93,568.319 1367,560.902 1369.08,560.902 1371.15,560.902 1373.23,560.902 1375.31,560.902 1377.38,560.902 1379.46,560.902 1381.53,560.902 1383.61,560.902 1385.68,560.902 1387.76,553.485 1389.84,560.902 1391.91,560.902 1393.99,560.902 1396.06,560.902 1398.14,560.902 1400.22,560.902 1402.29,560.902 1404.37,560.902 1406.44,553.485 1408.52,553.485 1410.59,553.485 1412.67,553.485 1414.75,553.485 1416.82,553.485 1418.9,553.485 1420.97,553.485 1423.05,553.485 1425.12,553.485 1427.2,553.485 1429.28,553.485 1431.35,553.485 1433.43,553.485 1435.5,553.485 1437.58,553.485 1439.66,553.485 1441.73,553.485 1443.81,553.485 1445.88,553.485 1447.96,553.485 1450.03,553.485 1452.11,553.485 1454.19,553.485 1456.26,553.485 1458.37,546.067 1460.41,546.067 1462.49,546.067 1464.6,546.067 1466.64,546.067 1468.75,546.067 1470.83,546.067 1472.87,546.067 1474.98,546.067 1477.02,538.65 1479.13,546.067 1481.21,546.067 1483.28,546.067 1485.36,546.067 1487.43,546.067 1489.51,546.067 1491.59,546.067 1493.66,546.067 1495.74,538.65 1497.81,538.65 1499.89,538.65 1501.96,538.65 1504.04,538.65 1506.12,538.65 1508.19,538.65 1510.27,538.65 1512.34,538.65 1514.42,538.65 1516.5,538.65 1518.57,538.65 1520.65,538.65 1522.72,538.65 1524.8,538.65 1526.87,538.65 1528.95,538.65 1531.03,538.65 1533.1,538.65 1535.18,538.65 1537.25,538.65 1539.33,538.65 1541.4,538.65 1543.48,538.65 1545.56,538.65 1547.63,538.65 1549.71,538.65 1551.78,538.65 1553.86,538.65 1555.94,538.65 1558.01,538.65 1560.09,538.65 1562.16,538.65 1564.24,538.65 1566.31,538.65 1568.39,538.65 1570.47,531.232 1572.54,531.232 1574.62,531.232 1576.69,531.232 1578.77,531.232 1580.85,531.232 1582.92,531.232 1585,531.232 1587.07,531.232 1589.15,531.232 1591.22,531.232 1593.3,531.232 1595.38,531.232 1597.45,531.232 1599.53,531.232 1601.6,531.232 1603.68,531.232 1605.76,531.232 1607.87,531.232 1609.91,531.232 1611.98,531.232 1614.09,531.232 1616.13,531.232 1618.21,523.815 1620.32,531.232 1622.36,531.232 1624.47,523.815 1626.51,531.232 1628.62,531.232 1630.7,523.815 1632.74,523.815 1634.85,523.815 1636.93,523.815 1639,523.815 1641.08,523.815 1643.15,523.815 1645.23,523.815 1647.31,523.815 1649.38,523.815 1651.46,523.815 1653.53,523.815 1655.61,523.815 1657.68,523.815 1659.76,523.815 1661.84,523.815 1663.91,523.815 1665.99,523.815 1668.06,523.815 1670.14,523.815 1672.22,523.815 1674.29,523.815 1676.37,523.815 1678.44,523.815 1680.52,523.815 1682.59,516.397 1684.67,523.815 1686.75,516.397 1688.82,523.815 1690.9,516.397 1692.97,516.397 1695.05,516.397 1697.13,516.397 1699.2,516.397 1701.28,516.397 1703.35,516.397 1705.43,516.397 1707.5,516.397 1709.58,516.397 1711.66,516.397 1713.73,516.397 1715.81,516.397 1717.88,516.397 1719.96,516.397 1722.04,516.397 1724.11,516.397 1726.19,516.397 1728.26,516.397 1730.34,508.98 1732.41,508.98 1734.49,516.397 1736.57,508.98 1738.64,508.98 1740.72,508.98 1742.79,516.397 1744.87,508.98 1746.94,508.98 1749.02,508.98 1751.1,508.98 1753.17,508.98 1755.25,508.98 1757.36,508.98 1759.4,508.98 1761.48,508.98 1763.55,508.98 1765.63,508.98 1767.74,508.98 1769.78,508.98 1771.85,508.98 1773.96,508.98 1776.01,508.98 1778.12,508.98 1780.19,508.98 1782.23,508.98 1784.34,508.98 1786.42,508.98 1788.5,501.563 1790.57,508.98 1792.65,501.563 1794.72,501.563 1796.8,508.98 1798.87,508.98 1800.95,501.563 1803.03,501.563 1805.1,501.563 1807.18,501.563 1809.25,508.98 1811.33,501.563 1813.41,501.563 1815.48,501.563 1817.56,501.563 1819.63,501.563 1821.71,501.563 1823.78,501.563 1825.86,501.563 1827.94,501.563 1830.01,501.563 1832.09,501.563 1834.16,501.563 1836.24,501.563 1838.32,501.563 1840.39,501.563 1842.47,501.563 1844.54,501.563 1846.62,501.563 1848.69,501.563 1850.77,501.563 1852.85,501.563 1854.92,494.145 1857,494.145 1859.07,501.563 1861.15,494.145 1863.22,494.145 1865.3,494.145 1867.38,494.145 1869.45,494.145 1871.53,494.145 1873.6,494.145 1875.68,494.145 1877.76,494.145 1879.83,494.145 1881.91,494.145 1883.98,494.145 1886.06,494.145 1888.13,494.145 1890.21,494.145 1892.29,494.145 1894.36,494.145 1896.44,494.145 1898.51,494.145 1900.59,494.145 1902.67,494.145 1904.74,494.145 1906.82,494.145 1908.89,494.145 1910.97,494.145 1913.04,494.145 1915.12,494.145 1917.23,494.145 1919.27,494.145 "/>
<path clip-path="url(#clip221)" d="M306.627 1368.24 L306.627 1400.24 L338.627 1400.24 L338.627 1368.24 L306.627 1368.24 Z" fill="#3082bc" fill-rule="evenodd" fill-opacity="1" stroke="#000000" stroke-opacity="1" stroke-width="3.2"/>
<path clip-path="url(#clip221)" d="M373.053 1093.79 L373.053 1125.79 L405.053 1125.79 L405.053 1093.79 L373.053 1093.79 Z" fill="#3082bc" fill-rule="evenodd" fill-opacity="1" stroke="#000000" stroke-opacity="1" stroke-width="3.2"/>
<path clip-path="url(#clip221)" d="M439.514 952.861 L439.514 984.861 L471.514 984.861 L471.514 952.861 L439.514 952.861 Z" fill="#3082bc" fill-rule="evenodd" fill-opacity="1" stroke="#000000" stroke-opacity="1" stroke-width="3.2"/>
<path clip-path="url(#clip221)" d="M505.94 886.104 L505.94 918.104 L537.94 918.104 L537.94 886.104 L505.94 886.104 Z" fill="#3082bc" fill-rule="evenodd" fill-opacity="1" stroke="#000000" stroke-opacity="1" stroke-width="3.2"/>
<path clip-path="url(#clip221)" d="M572.4 841.6 L572.4 873.6 L604.4 873.6 L604.4 841.6 L572.4 841.6 Z" fill="#3082bc" fill-rule="evenodd" fill-opacity="1" stroke="#000000" stroke-opacity="1" stroke-width="3.2"/>
<path clip-path="url(#clip221)" d="M638.826 797.095 L638.826 829.095 L670.826 829.095 L670.826 797.095 L638.826 797.095 Z" fill="#3082bc" fill-rule="evenodd" fill-opacity="1" stroke="#000000" stroke-opacity="1" stroke-width="3.2"/>
<path clip-path="url(#clip221)" d="M705.287 752.59 L705.287 784.59 L737.287 784.59 L737.287 752.59 L705.287 752.59 Z" fill="#3082bc" fill-rule="evenodd" fill-opacity="1" stroke="#000000" stroke-opacity="1" stroke-width="3.2"/>
<path clip-path="url(#clip221)" d="M771.713 722.921 L771.713 754.921 L803.713 754.921 L803.713 722.921 L771.713 722.921 Z" fill="#3082bc" fill-rule="evenodd" fill-opacity="1" stroke="#000000" stroke-opacity="1" stroke-width="3.2"/>
<path clip-path="url(#clip221)" d="M838.173 693.251 L838.173 725.251 L870.173 725.251 L870.173 693.251 L838.173 693.251 Z" fill="#3082bc" fill-rule="evenodd" fill-opacity="1" stroke="#000000" stroke-opacity="1" stroke-width="3.2"/>
<path clip-path="url(#clip221)" d="M904.599 663.581 L904.599 695.581 L936.599 695.581 L936.599 663.581 L904.599 663.581 Z" fill="#3082bc" fill-rule="evenodd" fill-opacity="1" stroke="#000000" stroke-opacity="1" stroke-width="3.2"/>
<path clip-path="url(#clip221)" d="M971.025 641.329 L971.025 673.329 L1003.03 673.329 L1003.03 641.329 L971.025 641.329 Z" fill="#3082bc" fill-rule="evenodd" fill-opacity="1" stroke="#000000" stroke-opacity="1" stroke-width="3.2"/>
<path clip-path="url(#clip221)" d="M1037.49 619.076 L1037.49 651.076 L1069.49 651.076 L1069.49 619.076 L1037.49 619.076 Z" fill="#3082bc" fill-rule="evenodd" fill-opacity="1" stroke="#000000" stroke-opacity="1" stroke-width="3.2"/>
<path clip-path="url(#clip221)" d="M1103.91 604.242 L1103.91 636.242 L1135.91 636.242 L1135.91 604.242 L1103.91 604.242 Z" fill="#3082bc" fill-rule="evenodd" fill-opacity="1" stroke="#000000" stroke-opacity="1" stroke-width="3.2"/>
<path clip-path="url(#clip221)" d="M1170.37 581.989 L1170.37 613.989 L1202.37 613.989 L1202.37 581.989 L1170.37 581.989 Z" fill="#3082bc" fill-rule="evenodd" fill-opacity="1" stroke="#000000" stroke-opacity="1" stroke-width="3.2"/>
<path clip-path="url(#clip221)" d="M1236.8 574.572 L1236.8 606.572 L1268.8 606.572 L1268.8 574.572 L1236.8 574.572 Z" fill="#3082bc" fill-rule="evenodd" fill-opacity="1" stroke="#000000" stroke-opacity="1" stroke-width="3.2"/>
<path clip-path="url(#clip221)" d="M1303.26 559.737 L1303.26 591.737 L1335.26 591.737 L1335.26 559.737 L1303.26 559.737 Z" fill="#3082bc" fill-rule="evenodd" fill-opacity="1" stroke="#000000" stroke-opacity="1" stroke-width="3.2"/>
<path clip-path="url(#clip221)" d="M1369.68 544.902 L1369.68 576.902 L1401.68 576.902 L1401.68 544.902 L1369.68 544.902 Z" fill="#3082bc" fill-rule="evenodd" fill-opacity="1" stroke="#000000" stroke-opacity="1" stroke-width="3.2"/>
<path clip-path="url(#clip221)" d="M1436.11 537.485 L1436.11 569.485 L1468.11 569.485 L1468.11 537.485 L1436.11 537.485 Z" fill="#3082bc" fill-rule="evenodd" fill-opacity="1" stroke="#000000" stroke-opacity="1" stroke-width="3.2"/>
<path clip-path="url(#clip221)" d="M1502.57 522.65 L1502.57 554.65 L1534.57 554.65 L1534.57 522.65 L1502.57 522.65 Z" fill="#3082bc" fill-rule="evenodd" fill-opacity="1" stroke="#000000" stroke-opacity="1" stroke-width="3.2"/>
<path clip-path="url(#clip221)" d="M1569 515.232 L1569 547.232 L1601 547.232 L1601 515.232 L1569 515.232 Z" fill="#3082bc" fill-rule="evenodd" fill-opacity="1" stroke="#000000" stroke-opacity="1" stroke-width="3.2"/>
<path clip-path="url(#clip221)" d="M1635.46 507.815 L1635.46 539.815 L1667.46 539.815 L1667.46 507.815 L1635.46 507.815 Z" fill="#3082bc" fill-rule="evenodd" fill-opacity="1" stroke="#000000" stroke-opacity="1" stroke-width="3.2"/>
<path clip-path="url(#clip221)" d="M1701.88 500.397 L1701.88 532.397 L1733.88 532.397 L1733.88 500.397 L1701.88 500.397 Z" fill="#3082bc" fill-rule="evenodd" fill-opacity="1" stroke="#000000" stroke-opacity="1" stroke-width="3.2"/>
<path clip-path="url(#clip221)" d="M1768.34 492.98 L1768.34 524.98 L1800.34 524.98 L1800.34 492.98 L1768.34 492.98 Z" fill="#3082bc" fill-rule="evenodd" fill-opacity="1" stroke="#000000" stroke-opacity="1" stroke-width="3.2"/>
<path clip-path="url(#clip221)" d="M1834.77 485.563 L1834.77 517.563 L1866.77 517.563 L1866.77 485.563 L1834.77 485.563 Z" fill="#3082bc" fill-rule="evenodd" fill-opacity="1" stroke="#000000" stroke-opacity="1" stroke-width="3.2"/>
<path clip-path="url(#clip221)" d="M1901.23 478.145 L1901.23 510.145 L1933.23 510.145 L1933.23 478.145 L1901.23 478.145 Z" fill="#3082bc" fill-rule="evenodd" fill-opacity="1" stroke="#000000" stroke-opacity="1" stroke-width="3.2"/>
<polyline clip-path="url(#clip221)" style="stroke:#6badd5; stroke-linecap:round; stroke-linejoin:round; stroke-width:4; stroke-opacity:1; fill:none" points="301.869,1354.57 303.945,1361.99 306.021,1369.4 308.097,1369.4 310.172,1369.4 312.248,1361.99 314.324,1361.99 316.4,1361.99 318.476,1354.57 320.552,1354.57 322.627,1339.73 324.703,1339.73 326.779,1324.9 328.855,1324.9 330.931,1310.06 333.006,1302.65 335.082,1287.81 337.158,1280.39 339.234,1265.56 341.31,1258.14 343.385,1243.31 345.461,1228.47 347.537,1213.64 349.613,1198.8 351.689,1183.97 353.764,1176.55 355.84,1161.71 357.916,1154.3 359.992,1139.46 362.068,1124.63 364.144,1109.79 366.219,1102.38 368.295,1087.54 370.371,1072.71 372.447,1065.29 374.523,1057.87 376.598,1043.04 378.674,1028.2 380.75,1020.78 382.826,1005.95 384.936,998.531 386.977,983.696 389.053,976.279 391.164,961.444 393.205,954.027 395.315,939.192 397.357,931.774 399.432,916.939 401.543,909.522 403.584,894.687 405.694,887.27 407.77,879.852 409.811,872.435 411.922,857.6 413.998,857.6 416.073,857.6 418.149,857.6 420.225,850.182 422.301,842.765 424.377,842.765 426.452,842.765 428.528,835.347 430.604,835.347 432.68,827.93 434.756,827.93 436.832,827.93 438.907,827.93 440.983,827.93 443.059,820.513 445.135,820.513 447.211,813.095 449.286,813.095 451.362,813.095 453.438,805.678 455.514,813.095 457.59,805.678 459.665,805.678 461.741,798.26 463.817,798.26 465.893,798.26 467.969,790.843 470.044,790.843 472.12,790.843 474.196,790.843 476.272,790.843 478.348,783.425 480.424,783.425 482.499,783.425 484.575,776.008 486.651,776.008 488.727,768.59 490.803,776.008 492.878,768.59 494.954,768.59 497.03,768.59 499.106,768.59 501.182,768.59 503.257,761.173 505.333,753.756 507.409,761.173 509.485,761.173 511.561,753.756 513.637,753.756 515.712,753.756 517.788,753.756 519.864,753.756 521.94,746.338 524.016,738.921 526.091,746.338 528.167,738.921 530.243,738.921 532.319,738.921 534.395,738.921 536.47,738.921 538.546,738.921 540.622,731.503 542.698,731.503 544.774,731.503 546.884,731.503 548.925,731.503 551.036,731.503 553.077,724.086 555.153,724.086 557.263,724.086 559.304,724.086 561.415,724.086 563.491,716.668 565.532,716.668 567.642,716.668 569.718,709.251 571.794,709.251 573.87,709.251 575.945,701.833 578.021,701.833 580.097,709.251 582.173,709.251 584.249,701.833 586.324,701.833 588.4,701.833 590.476,701.833 592.552,701.833 594.628,701.833 596.704,701.833 598.779,694.416 600.855,694.416 602.931,694.416 605.007,694.416 607.083,694.416 609.158,686.999 611.234,694.416 613.31,686.999 615.386,686.999 617.462,679.581 619.537,679.581 621.613,679.581 623.689,679.581 625.765,679.581 627.841,679.581 629.916,672.164 631.992,672.164 634.068,672.164 636.144,672.164 638.22,672.164 640.296,672.164 642.371,672.164 644.447,672.164 646.523,664.746 648.599,664.746 650.675,664.746 652.75,664.746 654.826,664.746 656.902,657.329 658.978,657.329 661.054,657.329 663.129,657.329 665.205,657.329 667.281,657.329 669.357,657.329 671.433,657.329 673.509,649.911 675.584,657.329 677.66,657.329 679.736,649.911 681.812,649.911 683.888,649.911 685.963,642.494 688.039,642.494 690.115,642.494 692.191,642.494 694.267,642.494 696.342,642.494 698.453,635.076 700.494,635.076 702.57,635.076 704.68,635.076 706.721,635.076 708.832,635.076 710.908,635.076 712.984,635.076 715.059,627.659 717.135,635.076 719.211,627.659 721.287,627.659 723.363,627.659 725.438,627.659 727.514,627.659 729.59,627.659 731.666,627.659 733.742,620.242 735.817,620.242 737.893,620.242 739.969,620.242 742.045,612.824 744.121,612.824 746.196,620.242 748.272,612.824 750.348,612.824 752.424,612.824 754.5,612.824 756.576,612.824 758.651,612.824 760.727,612.824 762.803,612.824 764.879,612.824 766.955,605.407 769.03,605.407 771.106,605.407 773.182,605.407 775.258,597.989 777.334,597.989 779.409,597.989 781.485,597.989 783.561,597.989 785.637,597.989 787.713,597.989 789.789,597.989 791.864,597.989 793.94,597.989 796.016,590.572 798.092,590.572 800.168,590.572 802.243,590.572 804.319,590.572 806.395,590.572 808.471,583.154 810.547,583.154 812.622,583.154 814.698,583.154 816.774,583.154 818.85,583.154 820.926,583.154 823.001,583.154 825.077,583.154 827.153,583.154 829.229,583.154 831.305,583.154 833.381,583.154 835.456,583.154 837.532,583.154 839.608,583.154 841.684,583.154 843.76,583.154 845.835,575.737 847.946,575.737 849.987,575.737 852.063,575.737 854.173,575.737 856.214,575.737 858.325,575.737 860.366,568.319 862.476,560.902 864.552,568.319 866.628,568.319 868.704,568.319 870.745,568.319 872.856,560.902 874.931,560.902 877.007,560.902 879.083,560.902 881.159,553.485 883.235,553.485 885.31,553.485 887.386,553.485 889.462,553.485 891.538,553.485 893.614,553.485 895.689,553.485 897.765,553.485 899.841,553.485 901.917,553.485 903.993,553.485 906.068,553.485 908.144,553.485 910.22,553.485 912.296,553.485 914.372,553.485 916.448,553.485 918.523,553.485 920.599,546.067 922.675,546.067 924.751,546.067 926.827,546.067 928.902,546.067 930.978,538.65 933.054,538.65 935.13,546.067 937.206,546.067 939.281,538.65 941.357,538.65 943.433,538.65 945.509,538.65 947.585,538.65 949.661,538.65 951.736,538.65 953.812,538.65 955.888,538.65 957.964,538.65 960.04,531.232 962.115,523.815 964.191,531.232 966.267,531.232 968.343,531.232 970.419,531.232 972.494,531.232 974.57,531.232 976.646,523.815 978.722,523.815 980.798,523.815 982.873,523.815 984.949,523.815 987.025,523.815 989.101,516.397 991.177,523.815 993.253,523.815 995.328,516.397 997.439,516.397 999.48,516.397 1001.56,516.397 1003.63,523.815 1005.71,523.815 1007.82,523.815 1009.86,508.98 1011.93,516.397 1014.05,516.397 1016.09,516.397 1018.2,516.397 1020.24,516.397 1022.35,523.815 1024.42,516.397 1026.47,516.397 1028.58,508.98 1030.65,508.98 1032.73,508.98 1034.8,508.98 1036.88,508.98 1038.95,508.98 1041.03,508.98 1043.11,508.98 1045.18,508.98 1047.26,508.98 1049.33,508.98 1051.41,508.98 1053.49,508.98 1055.56,508.98 1057.64,508.98 1059.71,508.98 1061.79,508.98 1063.86,508.98 1065.94,508.98 1068.02,508.98 1070.09,501.563 1072.17,501.563 1074.24,508.98 1076.32,501.563 1078.4,501.563 1080.47,501.563 1082.55,494.145 1084.62,501.563 1086.7,501.563 1088.77,494.145 1090.85,494.145 1092.93,494.145 1095,494.145 1097.08,494.145 1099.15,501.563 1101.23,494.145 1103.31,501.563 1105.38,501.563 1107.46,501.563 1109.53,501.563 1111.61,501.563 1113.68,501.563 1115.76,501.563 1117.84,501.563 1119.91,501.563 1121.99,501.563 1124.06,494.145 1126.14,494.145 1128.21,494.145 1130.29,494.145 1132.37,494.145 1134.44,494.145 1136.52,494.145 1138.59,494.145 1140.67,494.145 1142.75,494.145 1144.82,494.145 1146.9,494.145 1149.01,494.145 1151.05,494.145 1153.12,494.145 1155.2,486.728 1157.28,486.728 1159.39,486.728 1161.43,486.728 1163.54,486.728 1165.61,486.728 1167.66,486.728 1169.77,494.145 1171.84,486.728 1173.92,486.728 1175.99,486.728 1178.03,486.728 1180.14,486.728 1182.22,486.728 1184.3,486.728 1186.37,486.728 1188.45,486.728 1190.52,486.728 1192.6,486.728 1194.68,486.728 1196.75,479.31 1198.83,479.31 1200.9,479.31 1202.98,479.31 1205.05,486.728 1207.13,479.31 1209.21,479.31 1211.28,479.31 1213.36,479.31 1215.43,486.728 1217.51,479.31 1219.59,479.31 1221.66,479.31 1223.74,479.31 1225.81,479.31 1227.89,479.31 1229.96,471.893 1232.04,471.893 1234.12,471.893 1236.19,471.893 1238.27,471.893 1240.34,471.893 1242.42,471.893 1244.49,471.893 1246.57,471.893 1248.65,479.31 1250.72,471.893 1252.8,471.893 1254.87,471.893 1256.95,471.893 1259.03,471.893 1261.1,479.31 1263.18,471.893 1265.25,471.893 1267.33,471.893 1269.4,471.893 1271.48,471.893 1273.56,471.893 1275.63,471.893 1277.71,471.893 1279.78,471.893 1281.86,471.893 1283.94,471.893 1286.01,471.893 1288.09,471.893 1290.16,471.893 1292.24,471.893 1294.31,471.893 1296.39,471.893 1298.47,464.475 1300.58,464.475 1302.62,464.475 1304.73,464.475 1306.77,464.475 1308.84,464.475 1310.92,464.475 1313,457.058 1315.11,457.058 1317.15,457.058 1319.26,457.058 1321.33,464.475 1323.38,457.058 1325.49,457.058 1327.56,457.058 1329.64,457.058 1331.71,457.058 1333.79,457.058 1335.87,464.475 1337.94,464.475 1340.02,464.475 1342.09,457.058 1344.17,457.058 1346.24,457.058 1348.32,457.058 1350.4,457.058 1352.47,457.058 1354.55,449.64 1356.62,449.64 1358.7,449.64 1360.77,457.058 1362.85,449.64 1364.93,449.64 1367,457.058 1369.08,449.64 1371.15,449.64 1373.23,449.64 1375.31,449.64 1377.38,449.64 1379.46,449.64 1381.53,449.64 1383.61,442.223 1385.68,442.223 1387.76,449.64 1389.84,449.64 1391.91,449.64 1393.99,449.64 1396.06,449.64 1398.14,449.64 1400.22,449.64 1402.29,449.64 1404.37,449.64 1406.44,449.64 1408.52,449.64 1410.59,442.223 1412.67,442.223 1414.75,442.223 1416.82,442.223 1418.9,449.64 1420.97,442.223 1423.05,442.223 1425.12,442.223 1427.2,442.223 1429.28,442.223 1431.35,434.806 1433.43,442.223 1435.5,442.223 1437.58,442.223 1439.66,442.223 1441.73,442.223 1443.81,442.223 1445.88,442.223 1447.96,442.223 1450.03,442.223 1452.11,442.223 1454.19,442.223 1456.26,442.223 1458.37,442.223 1460.41,434.806 1462.49,442.223 1464.6,434.806 1466.64,434.806 1468.75,434.806 1470.83,434.806 1472.87,434.806 1474.98,434.806 1477.02,427.388 1479.13,434.806 1481.21,434.806 1483.28,434.806 1485.36,434.806 1487.43,434.806 1489.51,442.223 1491.59,442.223 1493.66,442.223 1495.74,442.223 1497.81,442.223 1499.89,442.223 1501.96,434.806 1504.04,434.806 1506.12,434.806 1508.19,434.806 1510.27,442.223 1512.34,442.223 1514.42,434.806 1516.5,434.806 1518.57,434.806 1520.65,434.806 1522.72,434.806 1524.8,434.806 1526.87,434.806 1528.95,434.806 1531.03,434.806 1533.1,434.806 1535.18,434.806 1537.25,434.806 1539.33,434.806 1541.4,434.806 1543.48,434.806 1545.56,434.806 1547.63,434.806 1549.71,434.806 1551.78,434.806 1553.86,427.388 1555.94,434.806 1558.01,434.806 1560.09,434.806 1562.16,434.806 1564.24,434.806 1566.31,434.806 1568.39,434.806 1570.47,434.806 1572.54,434.806 1574.62,434.806 1576.69,434.806 1578.77,427.388 1580.85,434.806 1582.92,434.806 1585,427.388 1587.07,427.388 1589.15,427.388 1591.22,427.388 1593.3,427.388 1595.38,427.388 1597.45,427.388 1599.53,434.806 1601.6,434.806 1603.68,427.388 1605.76,434.806 1607.87,427.388 1609.91,427.388 1611.98,427.388 1614.09,427.388 1616.13,427.388 1618.21,427.388 1620.32,427.388 1622.36,427.388 1624.47,427.388 1626.51,427.388 1628.62,427.388 1630.7,427.388 1632.74,427.388 1634.85,419.971 1636.93,419.971 1639,419.971 1641.08,419.971 1643.15,419.971 1645.23,419.971 1647.31,419.971 1649.38,419.971 1651.46,419.971 1653.53,419.971 1655.61,419.971 1657.68,419.971 1659.76,419.971 1661.84,419.971 1663.91,419.971 1665.99,419.971 1668.06,419.971 1670.14,419.971 1672.22,419.971 1674.29,427.388 1676.37,419.971 1678.44,419.971 1680.52,419.971 1682.59,419.971 1684.67,419.971 1686.75,419.971 1688.82,419.971 1690.9,427.388 1692.97,419.971 1695.05,419.971 1697.13,419.971 1699.2,412.553 1701.28,419.971 1703.35,419.971 1705.43,419.971 1707.5,419.971 1709.58,412.553 1711.66,412.553 1713.73,412.553 1715.81,412.553 1717.88,412.553 1719.96,419.971 1722.04,412.553 1724.11,419.971 1726.19,412.553 1728.26,419.971 1730.34,419.971 1732.41,419.971 1734.49,412.553 1736.57,419.971 1738.64,412.553 1740.72,412.553 1742.79,419.971 1744.87,419.971 1746.94,419.971 1749.02,419.971 1751.1,412.553 1753.17,412.553 1755.25,412.553 1757.36,419.971 1759.4,412.553 1761.48,412.553 1763.55,412.553 1765.63,412.553 1767.74,412.553 1769.78,412.553 1771.85,412.553 1773.96,405.136 1776.01,412.553 1778.12,412.553 1780.19,412.553 1782.23,412.553 1784.34,412.553 1786.42,412.553 1788.5,412.553 1790.57,412.553 1792.65,412.553 1794.72,412.553 1796.8,412.553 1798.87,419.971 1800.95,412.553 1803.03,412.553 1805.1,412.553 1807.18,412.553 1809.25,412.553 1811.33,412.553 1813.41,405.136 1815.48,405.136 1817.56,405.136 1819.63,405.136 1821.71,412.553 1823.78,405.136 1825.86,405.136 1827.94,405.136 1830.01,405.136 1832.09,405.136 1834.16,405.136 1836.24,405.136 1838.32,405.136 1840.39,405.136 1842.47,412.553 1844.54,405.136 1846.62,405.136 1848.69,405.136 1850.77,405.136 1852.85,405.136 1854.92,405.136 1857,405.136 1859.07,405.136 1861.15,405.136 1863.22,405.136 1865.3,405.136 1867.38,405.136 1869.45,405.136 1871.53,405.136 1873.6,405.136 1875.68,405.136 1877.76,405.136 1879.83,405.136 1881.91,405.136 1883.98,405.136 1886.06,405.136 1888.13,397.718 1890.21,405.136 1892.29,405.136 1894.36,397.718 1896.44,405.136 1898.51,405.136 1900.59,405.136 1902.67,405.136 1904.74,405.136 1906.82,405.136 1908.89,405.136 1910.97,405.136 1913.04,397.718 1915.12,397.718 1917.23,405.136 1919.27,397.718 1921.35,397.718 1923.46,397.718 1925.5,397.718 1927.61,397.718 1929.65,397.718 1931.73,397.718 1933.84,397.718 1935.88,397.718 1937.99,397.718 1940.06,397.718 1942.14,397.718 1944.22,397.718 1946.29,397.718 1948.37,405.136 1950.44,405.136 1952.52,405.136 1954.6,397.718 1956.67,405.136 1958.75,405.136 1960.82,397.718 1962.9,397.718 1964.97,405.136 1967.05,405.136 1969.13,397.718 1971.2,397.718 1973.28,397.718 1975.35,397.718 1977.43,397.718 1979.5,397.718 1981.58,397.718 1983.66,397.718 1985.73,397.718 1987.81,390.301 1989.88,397.718 1991.96,397.718 1994.04,397.718 1996.11,397.718 1998.19,397.718 2000.26,397.718 2002.34,397.718 2004.41,390.301 2006.49,397.718 2008.57,397.718 2010.64,390.301 2012.72,397.718 2014.79,390.301 2016.87,397.718 2018.95,397.718 2021.02,390.301 2023.1,390.301 2025.17,390.301 2027.25,390.301 2029.32,397.718 2031.4,390.301 2033.48,390.301 2035.55,390.301 2037.63,390.301 2039.7,390.301 2041.78,390.301 2043.85,390.301 2045.93,390.301 2048.01,390.301 2050.08,390.301 2052.16,390.301 2054.23,390.301 2056.31,390.301 2058.39,382.883 2060.46,390.301 2062.54,390.301 2064.61,382.883 2066.69,382.883 2068.76,382.883 2070.88,382.883 2072.92,382.883 2074.99,382.883 2077.1,382.883 2079.14,382.883 2081.22,382.883 2083.33,382.883 2085.37,382.883 2087.48,382.883 2089.56,382.883 2091.63,382.883 2093.71,382.883 2095.78,382.883 2097.86,382.883 2099.94,382.883 2102.01,375.466 2104.09,382.883 2106.16,382.883 2108.24,375.466 2110.32,382.883 2112.39,375.466 2114.47,375.466 2116.54,375.466 2118.62,375.466 2120.69,375.466 2122.77,375.466 2124.85,375.466 2126.92,375.466 2129,368.049 2131.07,375.466 2133.15,375.466 2135.23,375.466 2137.3,375.466 2139.38,375.466 2141.45,368.049 2143.53,368.049 2145.6,375.466 2147.68,368.049 2149.76,368.049 2151.83,375.466 2153.91,375.466 2155.98,368.049 2158.06,375.466 2160.13,375.466 2162.21,368.049 2164.29,368.049 2166.36,368.049 2168.44,368.049 2170.51,368.049 2172.59,368.049 2174.67,368.049 2176.74,368.049 2178.82,368.049 2180.89,368.049 2182.97,368.049 2185.04,368.049 2187.12,368.049 2189.2,368.049 2191.27,368.049 2193.35,368.049 2195.42,360.631 2197.5,368.049 2199.58,368.049 2201.65,368.049 2203.73,368.049 2205.8,368.049 2207.88,368.049 2209.95,360.631 2212.03,360.631 2214.11,353.214 2216.18,353.214 2218.26,353.214 2220.37,353.214 2222.41,353.214 2224.48,353.214 2226.6,353.214 2228.64,353.214 2230.71,353.214 2232.82,345.796 2234.9,353.214 2236.94,353.214 2239.05,345.796 2241.13,345.796 2243.2,345.796 2245.28,345.796 2247.35,345.796 2249.43,353.214 2251.47,353.214 2253.58,338.379 2255.66,338.379 2257.73,338.379 2259.81,338.379 2261.88,345.796 2263.96,338.379 2266.04,338.379 2268.11,345.796 2270.19,345.796 2272.26,345.796 2274.34,345.796 2276.41,345.796 2278.49,345.796 2280.57,345.796 2282.64,345.796 2284.72,345.796 2286.79,345.796 2288.87,345.796 2290.95,338.379 2293.02,338.379 "/>
<path clip-path="url(#clip221)" d="M343.385 1227.31 L327.385 1243.31 L343.385 1259.31 L359.385 1243.31 L343.385 1227.31 Z" fill="#6badd5" fill-rule="evenodd" fill-opacity="1" stroke="#000000" stroke-opacity="1" stroke-width="3.2"/>
<path clip-path="url(#clip221)" d="M409.811 856.435 L393.811 872.435 L409.811 888.435 L425.811 872.435 L409.811 856.435 Z" fill="#6badd5" fill-rule="evenodd" fill-opacity="1" stroke="#000000" stroke-opacity="1" stroke-width="3.2"/>
<path clip-path="url(#clip221)" d="M476.272 774.843 L460.272 790.843 L476.272 806.843 L492.272 790.843 L476.272 774.843 Z" fill="#6badd5" fill-rule="evenodd" fill-opacity="1" stroke="#000000" stroke-opacity="1" stroke-width="3.2"/>
<path clip-path="url(#clip221)" d="M542.698 715.503 L526.698 731.503 L542.698 747.503 L558.698 731.503 L542.698 715.503 Z" fill="#6badd5" fill-rule="evenodd" fill-opacity="1" stroke="#000000" stroke-opacity="1" stroke-width="3.2"/>
<path clip-path="url(#clip221)" d="M609.158 670.999 L593.158 686.999 L609.158 702.999 L625.158 686.999 L609.158 670.999 Z" fill="#6badd5" fill-rule="evenodd" fill-opacity="1" stroke="#000000" stroke-opacity="1" stroke-width="3.2"/>
<path clip-path="url(#clip221)" d="M675.584 641.329 L659.584 657.329 L675.584 673.329 L691.584 657.329 L675.584 641.329 Z" fill="#6badd5" fill-rule="evenodd" fill-opacity="1" stroke="#000000" stroke-opacity="1" stroke-width="3.2"/>
<path clip-path="url(#clip221)" d="M742.045 596.824 L726.045 612.824 L742.045 628.824 L758.045 612.824 L742.045 596.824 Z" fill="#6badd5" fill-rule="evenodd" fill-opacity="1" stroke="#000000" stroke-opacity="1" stroke-width="3.2"/>
<path clip-path="url(#clip221)" d="M808.471 567.154 L792.471 583.154 L808.471 599.154 L824.471 583.154 L808.471 567.154 Z" fill="#6badd5" fill-rule="evenodd" fill-opacity="1" stroke="#000000" stroke-opacity="1" stroke-width="3.2"/>
<path clip-path="url(#clip221)" d="M874.931 544.902 L858.931 560.902 L874.931 576.902 L890.931 560.902 L874.931 544.902 Z" fill="#6badd5" fill-rule="evenodd" fill-opacity="1" stroke="#000000" stroke-opacity="1" stroke-width="3.2"/>
<path clip-path="url(#clip221)" d="M941.357 522.65 L925.357 538.65 L941.357 554.65 L957.357 538.65 L941.357 522.65 Z" fill="#6badd5" fill-rule="evenodd" fill-opacity="1" stroke="#000000" stroke-opacity="1" stroke-width="3.2"/>
<path clip-path="url(#clip221)" d="M1007.82 507.815 L991.818 523.815 L1007.82 539.815 L1023.82 523.815 L1007.82 507.815 Z" fill="#6badd5" fill-rule="evenodd" fill-opacity="1" stroke="#000000" stroke-opacity="1" stroke-width="3.2"/>
<path clip-path="url(#clip221)" d="M1074.24 492.98 L1058.24 508.98 L1074.24 524.98 L1090.24 508.98 L1074.24 492.98 Z" fill="#6badd5" fill-rule="evenodd" fill-opacity="1" stroke="#000000" stroke-opacity="1" stroke-width="3.2"/>
<path clip-path="url(#clip221)" d="M1140.67 478.145 L1124.67 494.145 L1140.67 510.145 L1156.67 494.145 L1140.67 478.145 Z" fill="#6badd5" fill-rule="evenodd" fill-opacity="1" stroke="#000000" stroke-opacity="1" stroke-width="3.2"/>
<path clip-path="url(#clip221)" d="M1207.13 463.31 L1191.13 479.31 L1207.13 495.31 L1223.13 479.31 L1207.13 463.31 Z" fill="#6badd5" fill-rule="evenodd" fill-opacity="1" stroke="#000000" stroke-opacity="1" stroke-width="3.2"/>
<path clip-path="url(#clip221)" d="M1273.56 455.893 L1257.56 471.893 L1273.56 487.893 L1289.56 471.893 L1273.56 455.893 Z" fill="#6badd5" fill-rule="evenodd" fill-opacity="1" stroke="#000000" stroke-opacity="1" stroke-width="3.2"/>
<path clip-path="url(#clip221)" d="M1340.02 448.475 L1324.02 464.475 L1340.02 480.475 L1356.02 464.475 L1340.02 448.475 Z" fill="#6badd5" fill-rule="evenodd" fill-opacity="1" stroke="#000000" stroke-opacity="1" stroke-width="3.2"/>
<path clip-path="url(#clip221)" d="M1406.44 433.64 L1390.44 449.64 L1406.44 465.64 L1422.44 449.64 L1406.44 433.64 Z" fill="#6badd5" fill-rule="evenodd" fill-opacity="1" stroke="#000000" stroke-opacity="1" stroke-width="3.2"/>
<path clip-path="url(#clip221)" d="M1472.87 418.806 L1456.87 434.806 L1472.87 450.806 L1488.87 434.806 L1472.87 418.806 Z" fill="#6badd5" fill-rule="evenodd" fill-opacity="1" stroke="#000000" stroke-opacity="1" stroke-width="3.2"/>
<path clip-path="url(#clip221)" d="M1539.33 418.806 L1523.33 434.806 L1539.33 450.806 L1555.33 434.806 L1539.33 418.806 Z" fill="#6badd5" fill-rule="evenodd" fill-opacity="1" stroke="#000000" stroke-opacity="1" stroke-width="3.2"/>
<path clip-path="url(#clip221)" d="M1605.76 418.806 L1589.76 434.806 L1605.76 450.806 L1621.76 434.806 L1605.76 418.806 Z" fill="#6badd5" fill-rule="evenodd" fill-opacity="1" stroke="#000000" stroke-opacity="1" stroke-width="3.2"/>
<path clip-path="url(#clip221)" d="M1672.22 403.971 L1656.22 419.971 L1672.22 435.971 L1688.22 419.971 L1672.22 403.971 Z" fill="#6badd5" fill-rule="evenodd" fill-opacity="1" stroke="#000000" stroke-opacity="1" stroke-width="3.2"/>
<path clip-path="url(#clip221)" d="M1738.64 396.553 L1722.64 412.553 L1738.64 428.553 L1754.64 412.553 L1738.64 396.553 Z" fill="#6badd5" fill-rule="evenodd" fill-opacity="1" stroke="#000000" stroke-opacity="1" stroke-width="3.2"/>
<path clip-path="url(#clip221)" d="M1805.1 396.553 L1789.1 412.553 L1805.1 428.553 L1821.1 412.553 L1805.1 396.553 Z" fill="#6badd5" fill-rule="evenodd" fill-opacity="1" stroke="#000000" stroke-opacity="1" stroke-width="3.2"/>
<path clip-path="url(#clip221)" d="M1871.53 389.136 L1855.53 405.136 L1871.53 421.136 L1887.53 405.136 L1871.53 389.136 Z" fill="#6badd5" fill-rule="evenodd" fill-opacity="1" stroke="#000000" stroke-opacity="1" stroke-width="3.2"/>
<path clip-path="url(#clip221)" d="M1937.99 381.718 L1921.99 397.718 L1937.99 413.718 L1953.99 397.718 L1937.99 381.718 Z" fill="#6badd5" fill-rule="evenodd" fill-opacity="1" stroke="#000000" stroke-opacity="1" stroke-width="3.2"/>
<path clip-path="url(#clip221)" d="M2004.41 374.301 L1988.41 390.301 L2004.41 406.301 L2020.41 390.301 L2004.41 374.301 Z" fill="#6badd5" fill-rule="evenodd" fill-opacity="1" stroke="#000000" stroke-opacity="1" stroke-width="3.2"/>
<path clip-path="url(#clip221)" d="M2070.88 366.883 L2054.88 382.883 L2070.88 398.883 L2086.88 382.883 L2070.88 366.883 Z" fill="#6badd5" fill-rule="evenodd" fill-opacity="1" stroke="#000000" stroke-opacity="1" stroke-width="3.2"/>
<path clip-path="url(#clip221)" d="M2137.3 359.466 L2121.3 375.466 L2137.3 391.466 L2153.3 375.466 L2137.3 359.466 Z" fill="#6badd5" fill-rule="evenodd" fill-opacity="1" stroke="#000000" stroke-opacity="1" stroke-width="3.2"/>
<path clip-path="url(#clip221)" d="M2203.73 352.049 L2187.73 368.049 L2203.73 384.049 L2219.73 368.049 L2203.73 352.049 Z" fill="#6badd5" fill-rule="evenodd" fill-opacity="1" stroke="#000000" stroke-opacity="1" stroke-width="3.2"/>
<path clip-path="url(#clip221)" d="M2270.19 329.796 L2254.19 345.796 L2270.19 361.796 L2286.19 345.796 L2270.19 329.796 Z" fill="#6badd5" fill-rule="evenodd" fill-opacity="1" stroke="#000000" stroke-opacity="1" stroke-width="3.2"/>
<path clip-path="url(#clip220)" d="M312.489 300.469 L720.06 300.469 L720.06 93.1086 L312.489 93.1086  Z" fill="#ffffff" fill-rule="evenodd" fill-opacity="1"/>
<polyline clip-path="url(#clip220)" style="stroke:#000000; stroke-linecap:round; stroke-linejoin:round; stroke-width:4; stroke-opacity:1; fill:none" points="312.489,300.469 720.06,300.469 720.06,93.1086 312.489,93.1086 312.489,300.469 "/>
<polyline clip-path="url(#clip220)" style="stroke:#07519c; stroke-linecap:round; stroke-linejoin:round; stroke-width:4; stroke-opacity:1; fill:none" points="335.94,144.949 476.648,144.949 "/>
<circle clip-path="url(#clip220)" cx="406.294" cy="144.949" r="19.5428" fill="#07519c" fill-rule="evenodd" fill-opacity="1" stroke="#000000" stroke-opacity="1" stroke-width="4.55111"/>
<path clip-path="url(#clip220)" d="M532.727 122.039 Q532.727 122.484 532.633 122.859 L531.322 131.197 Q531.251 131.83 531.111 132.064 Q530.994 132.298 530.619 132.298 Q530.033 132.298 530.033 131.689 Q530.033 131.338 530.174 130.776 Q530.572 128.129 530.572 126.934 Q530.572 126.138 530.408 125.552 Q530.268 124.943 530.033 124.522 Q529.823 124.1 529.331 123.819 Q528.839 123.538 528.37 123.374 Q527.902 123.21 527.059 123.14 Q526.216 123.046 525.489 123.023 Q524.763 122.999 523.569 122.999 Q520.969 122.999 520.547 123.093 Q520.102 123.21 519.868 123.561 Q519.657 123.889 519.423 124.873 L513.052 150.333 L512.865 151.34 Q512.865 151.903 513.216 152.09 Q513.567 152.277 514.645 152.394 Q516.191 152.512 517.713 152.512 Q517.76 152.512 517.854 152.512 Q518.369 152.512 518.58 152.535 Q518.791 152.535 519.001 152.582 Q519.212 152.629 519.259 152.746 Q519.329 152.84 519.329 153.027 Q519.329 153.472 519.142 153.706 Q518.955 153.917 518.767 153.964 Q518.603 153.987 518.275 153.987 Q517.619 153.987 516.214 153.94 Q514.809 153.894 514.106 153.894 L510.124 153.847 L506.049 153.894 Q505.416 153.894 504.081 153.94 Q502.746 153.987 502.114 153.987 Q501.294 153.987 501.294 153.402 Q501.294 152.746 501.599 152.629 Q501.926 152.512 503.308 152.512 Q505.252 152.512 506.306 152.418 Q507.36 152.324 507.923 151.996 Q508.508 151.668 508.672 151.34 Q508.836 150.989 509.023 150.193 L515.465 124.592 Q515.652 124.03 515.652 123.585 Q515.652 123.351 515.582 123.257 Q515.535 123.163 515.23 123.093 Q514.926 122.999 514.293 122.999 L512.42 122.999 Q510.499 122.999 509.305 123.093 Q508.133 123.163 507.009 123.515 Q505.908 123.866 505.252 124.358 Q504.62 124.85 503.917 125.857 Q503.215 126.864 502.699 128.082 Q502.208 129.3 501.505 131.291 Q501.271 131.947 501.13 132.134 Q501.013 132.298 500.685 132.298 Q500.451 132.298 500.263 132.157 Q500.099 131.994 500.099 131.783 Q500.334 131.01 500.381 130.916 L503.262 122.461 Q503.496 121.781 503.707 121.664 Q503.941 121.524 504.807 121.524 L531.415 121.524 Q531.837 121.524 531.977 121.524 Q532.118 121.524 532.352 121.571 Q532.586 121.617 532.657 121.735 Q532.727 121.852 532.727 122.039 Z" fill="#000000" fill-rule="nonzero" fill-opacity="1" /><path clip-path="url(#clip220)" d="M537.516 154.623 L537.516 153.573 L540.156 153.573 L540.156 149.72 Q540.156 147.228 541.763 145.802 Q543.386 144.375 545.37 144.375 Q546.682 144.375 547.534 145.08 Q548.387 145.785 548.387 146.736 Q548.387 147.376 547.993 147.802 Q547.616 148.212 546.911 148.212 Q546.239 148.212 545.845 147.786 Q545.468 147.359 545.468 146.769 Q545.468 145.687 546.468 145.359 Q545.96 145.129 545.37 145.113 Q544.157 145.113 543.206 146.359 Q542.271 147.605 542.271 149.687 L542.271 153.573 L546.206 153.573 L546.206 154.623 L542.386 154.623 L542.386 165.427 Q542.386 166.395 542.779 166.706 Q543.189 167.018 544.927 167.018 L545.632 167.018 L545.632 168.051 Q544.288 167.952 541.369 167.952 Q540.959 167.952 540.32 167.969 Q539.697 167.985 538.844 168.018 Q538.008 168.051 537.549 168.051 L537.549 167.018 Q539.336 167.018 539.746 166.805 Q540.156 166.575 540.156 165.493 L540.156 154.623 L537.516 154.623 Z" fill="#000000" fill-rule="nonzero" fill-opacity="1" /><path clip-path="url(#clip220)" d="M551.948 148.884 L551.948 147.835 Q555.981 147.835 558.064 145.687 Q558.637 145.687 558.736 145.818 Q558.834 145.949 558.834 146.556 L558.834 165.395 Q558.834 166.395 559.326 166.706 Q559.818 167.018 561.966 167.018 L563.032 167.018 L563.032 168.051 Q561.851 167.952 557.588 167.952 Q553.325 167.952 552.161 168.051 L552.161 167.018 L553.227 167.018 Q555.342 167.018 555.85 166.723 Q556.358 166.411 556.358 165.395 L556.358 147.999 Q554.604 148.884 551.948 148.884 Z" fill="#000000" fill-rule="nonzero" fill-opacity="1" /><path clip-path="url(#clip220)" d="M575.591 148.108 L580.475 148.108 L580.475 152.089 L576.679 159.496 L573.693 159.496 L575.591 152.089 L575.591 148.108 Z" fill="#000000" fill-rule="nonzero" fill-opacity="1" /><path clip-path="url(#clip220)" d="M626.818 139.96 L626.818 142.043 L607.235 142.043 Q607.512 146.441 609.873 148.756 Q612.258 151.047 616.494 151.047 Q618.947 151.047 621.239 150.446 Q623.554 149.844 625.822 148.64 L625.822 152.668 Q623.531 153.64 621.123 154.149 Q618.716 154.659 616.239 154.659 Q610.035 154.659 606.401 151.047 Q602.79 147.436 602.79 141.279 Q602.79 134.913 606.216 131.186 Q609.665 127.436 615.498 127.436 Q620.73 127.436 623.762 130.816 Q626.818 134.173 626.818 139.96 M622.558 138.71 Q622.512 135.214 620.591 133.131 Q618.693 131.048 615.545 131.048 Q611.98 131.048 609.827 133.061 Q607.697 135.075 607.373 138.733 L622.558 138.71 Z" fill="#000000" fill-rule="nonzero" fill-opacity="1" /><path clip-path="url(#clip220)" d="M654.526 128.061 L645.151 140.677 L655.012 153.987 L649.989 153.987 L642.443 143.802 L634.896 153.987 L629.873 153.987 L639.943 140.422 L630.73 128.061 L635.753 128.061 L642.628 137.297 L649.503 128.061 L654.526 128.061 Z" fill="#000000" fill-rule="nonzero" fill-opacity="1" /><path clip-path="url(#clip220)" d="M665.151 150.098 L665.151 163.848 L660.868 163.848 L660.868 128.061 L665.151 128.061 L665.151 131.997 Q666.493 129.682 668.53 128.571 Q670.591 127.436 673.438 127.436 Q678.16 127.436 681.1 131.186 Q684.063 134.936 684.063 141.047 Q684.063 147.159 681.1 150.909 Q678.16 154.659 673.438 154.659 Q670.591 154.659 668.53 153.547 Q666.493 152.413 665.151 150.098 M679.642 141.047 Q679.642 136.348 677.697 133.686 Q675.776 131.001 672.396 131.001 Q669.017 131.001 667.072 133.686 Q665.151 136.348 665.151 141.047 Q665.151 145.747 667.072 148.432 Q669.017 151.094 672.396 151.094 Q675.776 151.094 677.697 148.432 Q679.642 145.747 679.642 141.047 Z" fill="#000000" fill-rule="nonzero" fill-opacity="1" /><path clip-path="url(#clip220)" d="M691.725 148.108 L696.609 148.108 L696.609 153.987 L691.725 153.987 L691.725 148.108 Z" fill="#000000" fill-rule="nonzero" fill-opacity="1" /><polyline clip-path="url(#clip220)" style="stroke:#3082bc; stroke-linecap:round; stroke-linejoin:round; stroke-width:4; stroke-opacity:1; fill:none" points="335.94,196.789 476.648,196.789 "/>
<path clip-path="url(#clip220)" d="M384.58 175.074 L384.58 218.503 L428.008 218.503 L428.008 175.074 L384.58 175.074 Z" fill="#3082bc" fill-rule="evenodd" fill-opacity="1" stroke="#000000" stroke-opacity="1" stroke-width="4.55111"/>
<path clip-path="url(#clip220)" d="M532.727 173.879 Q532.727 174.324 532.633 174.699 L531.322 183.037 Q531.251 183.67 531.111 183.904 Q530.994 184.138 530.619 184.138 Q530.033 184.138 530.033 183.529 Q530.033 183.178 530.174 182.616 Q530.572 179.969 530.572 178.774 Q530.572 177.978 530.408 177.392 Q530.268 176.783 530.033 176.362 Q529.823 175.94 529.331 175.659 Q528.839 175.378 528.37 175.214 Q527.902 175.05 527.059 174.98 Q526.216 174.886 525.489 174.863 Q524.763 174.839 523.569 174.839 Q520.969 174.839 520.547 174.933 Q520.102 175.05 519.868 175.401 Q519.657 175.729 519.423 176.713 L513.052 202.173 L512.865 203.18 Q512.865 203.743 513.216 203.93 Q513.567 204.117 514.645 204.234 Q516.191 204.352 517.713 204.352 Q517.76 204.352 517.854 204.352 Q518.369 204.352 518.58 204.375 Q518.791 204.375 519.001 204.422 Q519.212 204.469 519.259 204.586 Q519.329 204.68 519.329 204.867 Q519.329 205.312 519.142 205.546 Q518.955 205.757 518.767 205.804 Q518.603 205.827 518.275 205.827 Q517.619 205.827 516.214 205.78 Q514.809 205.734 514.106 205.734 L510.124 205.687 L506.049 205.734 Q505.416 205.734 504.081 205.78 Q502.746 205.827 502.114 205.827 Q501.294 205.827 501.294 205.242 Q501.294 204.586 501.599 204.469 Q501.926 204.352 503.308 204.352 Q505.252 204.352 506.306 204.258 Q507.36 204.164 507.923 203.836 Q508.508 203.508 508.672 203.18 Q508.836 202.829 509.023 202.033 L515.465 176.432 Q515.652 175.87 515.652 175.425 Q515.652 175.191 515.582 175.097 Q515.535 175.003 515.23 174.933 Q514.926 174.839 514.293 174.839 L512.42 174.839 Q510.499 174.839 509.305 174.933 Q508.133 175.003 507.009 175.355 Q505.908 175.706 505.252 176.198 Q504.62 176.69 503.917 177.697 Q503.215 178.704 502.699 179.922 Q502.208 181.14 501.505 183.131 Q501.271 183.787 501.13 183.974 Q501.013 184.138 500.685 184.138 Q500.451 184.138 500.263 183.997 Q500.099 183.834 500.099 183.623 Q500.334 182.85 500.381 182.756 L503.262 174.301 Q503.496 173.621 503.707 173.504 Q503.941 173.364 504.807 173.364 L531.415 173.364 Q531.837 173.364 531.977 173.364 Q532.118 173.364 532.352 173.411 Q532.586 173.457 532.657 173.575 Q532.727 173.692 532.727 173.879 Z" fill="#000000" fill-rule="nonzero" fill-opacity="1" /><path clip-path="url(#clip220)" d="M537.516 206.463 L537.516 205.413 L540.156 205.413 L540.156 201.56 Q540.156 199.068 541.763 197.642 Q543.386 196.215 545.37 196.215 Q546.682 196.215 547.534 196.92 Q548.387 197.625 548.387 198.576 Q548.387 199.216 547.993 199.642 Q547.616 200.052 546.911 200.052 Q546.239 200.052 545.845 199.626 Q545.468 199.199 545.468 198.609 Q545.468 197.527 546.468 197.199 Q545.96 196.969 545.37 196.953 Q544.157 196.953 543.206 198.199 Q542.271 199.445 542.271 201.527 L542.271 205.413 L546.206 205.413 L546.206 206.463 L542.386 206.463 L542.386 217.267 Q542.386 218.235 542.779 218.546 Q543.189 218.858 544.927 218.858 L545.632 218.858 L545.632 219.891 Q544.288 219.792 541.369 219.792 Q540.959 219.792 540.32 219.809 Q539.697 219.825 538.844 219.858 Q538.008 219.891 537.549 219.891 L537.549 218.858 Q539.336 218.858 539.746 218.645 Q540.156 218.415 540.156 217.333 L540.156 206.463 L537.516 206.463 Z" fill="#000000" fill-rule="nonzero" fill-opacity="1" /><path clip-path="url(#clip220)" d="M550.738 219.891 Q550.738 219.284 550.788 219.104 Q550.853 218.923 551.116 218.645 L557.559 211.463 Q561.084 207.495 561.084 204.036 Q561.084 201.79 559.904 200.183 Q558.74 198.576 556.592 198.576 Q555.116 198.576 553.87 199.478 Q552.624 200.38 552.05 201.987 Q552.148 201.954 552.493 201.954 Q553.329 201.954 553.788 202.478 Q554.263 203.003 554.263 203.708 Q554.263 204.61 553.673 205.053 Q553.099 205.479 552.526 205.479 Q552.296 205.479 551.984 205.43 Q551.689 205.38 551.214 204.921 Q550.738 204.446 550.738 203.61 Q550.738 201.265 552.509 199.396 Q554.296 197.527 557.018 197.527 Q560.1 197.527 562.117 199.363 Q564.15 201.183 564.15 204.036 Q564.15 205.036 563.839 205.954 Q563.543 206.856 563.134 207.561 Q562.74 208.266 561.658 209.397 Q560.576 210.529 559.707 211.332 Q558.838 212.135 556.887 213.841 L553.329 217.3 L559.379 217.3 Q562.33 217.3 562.56 217.038 Q562.888 216.562 563.298 214.054 L564.15 214.054 L563.199 219.891 L550.738 219.891 Z" fill="#000000" fill-rule="nonzero" fill-opacity="1" /><path clip-path="url(#clip220)" d="M574.382 199.948 L579.266 199.948 L579.266 203.929 L575.47 211.336 L572.483 211.336 L574.382 203.929 L574.382 199.948 Z" fill="#000000" fill-rule="nonzero" fill-opacity="1" /><path clip-path="url(#clip220)" d="M625.608 191.8 L625.608 193.883 L606.025 193.883 Q606.303 198.281 608.664 200.596 Q611.048 202.887 615.284 202.887 Q617.738 202.887 620.029 202.286 Q622.344 201.684 624.613 200.48 L624.613 204.508 Q622.321 205.48 619.914 205.989 Q617.506 206.499 615.029 206.499 Q608.826 206.499 605.192 202.887 Q601.58 199.276 601.58 193.119 Q601.58 186.753 605.006 183.026 Q608.455 179.276 614.289 179.276 Q619.52 179.276 622.553 182.656 Q625.608 186.013 625.608 191.8 M621.349 190.55 Q621.303 187.054 619.381 184.971 Q617.483 182.888 614.335 182.888 Q610.77 182.888 608.617 184.901 Q606.488 186.915 606.164 190.573 L621.349 190.55 Z" fill="#000000" fill-rule="nonzero" fill-opacity="1" /><path clip-path="url(#clip220)" d="M653.316 179.901 L643.941 192.517 L653.802 205.827 L648.779 205.827 L641.233 195.642 L633.687 205.827 L628.664 205.827 L638.733 192.262 L629.52 179.901 L634.543 179.901 L641.418 189.137 L648.293 179.901 L653.316 179.901 Z" fill="#000000" fill-rule="nonzero" fill-opacity="1" /><path clip-path="url(#clip220)" d="M663.941 201.938 L663.941 215.688 L659.659 215.688 L659.659 179.901 L663.941 179.901 L663.941 183.837 Q665.284 181.522 667.321 180.411 Q669.381 179.276 672.228 179.276 Q676.95 179.276 679.89 183.026 Q682.853 186.776 682.853 192.887 Q682.853 198.999 679.89 202.749 Q676.95 206.499 672.228 206.499 Q669.381 206.499 667.321 205.387 Q665.284 204.253 663.941 201.938 M678.432 192.887 Q678.432 188.188 676.487 185.526 Q674.566 182.841 671.187 182.841 Q667.807 182.841 665.863 185.526 Q663.941 188.188 663.941 192.887 Q663.941 197.587 665.863 200.272 Q667.807 202.934 671.187 202.934 Q674.566 202.934 676.487 200.272 Q678.432 197.587 678.432 192.887 Z" fill="#000000" fill-rule="nonzero" fill-opacity="1" /><path clip-path="url(#clip220)" d="M690.515 199.948 L695.399 199.948 L695.399 205.827 L690.515 205.827 L690.515 199.948 Z" fill="#000000" fill-rule="nonzero" fill-opacity="1" /><polyline clip-path="url(#clip220)" style="stroke:#6badd5; stroke-linecap:round; stroke-linejoin:round; stroke-width:4; stroke-opacity:1; fill:none" points="335.94,248.629 476.648,248.629 "/>
<path clip-path="url(#clip220)" d="M406.294 226.914 L384.58 248.629 L406.294 270.343 L428.008 248.629 L406.294 226.914 Z" fill="#6badd5" fill-rule="evenodd" fill-opacity="1" stroke="#000000" stroke-opacity="1" stroke-width="4.55111"/>
<path clip-path="url(#clip220)" d="M532.727 225.353 Q532.727 225.798 532.633 226.172 L531.322 234.511 Q531.251 235.143 531.111 235.377 Q530.994 235.612 530.619 235.612 Q530.033 235.612 530.033 235.003 Q530.033 234.651 530.174 234.089 Q530.572 231.442 530.572 230.248 Q530.572 229.452 530.408 228.866 Q530.268 228.257 530.033 227.835 Q529.823 227.414 529.331 227.133 Q528.839 226.852 528.37 226.688 Q527.902 226.524 527.059 226.453 Q526.216 226.36 525.489 226.336 Q524.763 226.313 523.569 226.313 Q520.969 226.313 520.547 226.407 Q520.102 226.524 519.868 226.875 Q519.657 227.203 519.423 228.187 L513.052 253.647 L512.865 254.654 Q512.865 255.216 513.216 255.404 Q513.567 255.591 514.645 255.708 Q516.191 255.825 517.713 255.825 Q517.76 255.825 517.854 255.825 Q518.369 255.825 518.58 255.849 Q518.791 255.849 519.001 255.895 Q519.212 255.942 519.259 256.059 Q519.329 256.153 519.329 256.34 Q519.329 256.786 519.142 257.02 Q518.955 257.231 518.767 257.277 Q518.603 257.301 518.275 257.301 Q517.619 257.301 516.214 257.254 Q514.809 257.207 514.106 257.207 L510.124 257.16 L506.049 257.207 Q505.416 257.207 504.081 257.254 Q502.746 257.301 502.114 257.301 Q501.294 257.301 501.294 256.715 Q501.294 256.059 501.599 255.942 Q501.926 255.825 503.308 255.825 Q505.252 255.825 506.306 255.732 Q507.36 255.638 507.923 255.31 Q508.508 254.982 508.672 254.654 Q508.836 254.303 509.023 253.506 L515.465 227.906 Q515.652 227.344 515.652 226.898 Q515.652 226.664 515.582 226.571 Q515.535 226.477 515.23 226.407 Q514.926 226.313 514.293 226.313 L512.42 226.313 Q510.499 226.313 509.305 226.407 Q508.133 226.477 507.009 226.828 Q505.908 227.18 505.252 227.671 Q504.62 228.163 503.917 229.17 Q503.215 230.178 502.699 231.396 Q502.208 232.614 501.505 234.604 Q501.271 235.26 501.13 235.448 Q501.013 235.612 500.685 235.612 Q500.451 235.612 500.263 235.471 Q500.099 235.307 500.099 235.096 Q500.334 234.323 500.381 234.23 L503.262 225.774 Q503.496 225.095 503.707 224.978 Q503.941 224.837 504.807 224.837 L531.415 224.837 Q531.837 224.837 531.977 224.837 Q532.118 224.837 532.352 224.884 Q532.586 224.931 532.657 225.048 Q532.727 225.165 532.727 225.353 Z" fill="#000000" fill-rule="nonzero" fill-opacity="1" /><path clip-path="url(#clip220)" d="M537.516 257.936 L537.516 256.887 L540.156 256.887 L540.156 253.034 Q540.156 250.542 541.763 249.115 Q543.386 247.689 545.37 247.689 Q546.682 247.689 547.534 248.394 Q548.387 249.099 548.387 250.05 Q548.387 250.689 547.993 251.116 Q547.616 251.525 546.911 251.525 Q546.239 251.525 545.845 251.099 Q545.468 250.673 545.468 250.083 Q545.468 249 546.468 248.673 Q545.96 248.443 545.37 248.427 Q544.157 248.427 543.206 249.673 Q542.271 250.919 542.271 253.001 L542.271 256.887 L546.206 256.887 L546.206 257.936 L542.386 257.936 L542.386 268.741 Q542.386 269.708 542.779 270.02 Q543.189 270.331 544.927 270.331 L545.632 270.331 L545.632 271.364 Q544.288 271.266 541.369 271.266 Q540.959 271.266 540.32 271.282 Q539.697 271.299 538.844 271.331 Q538.008 271.364 537.549 271.364 L537.549 270.331 Q539.336 270.331 539.746 270.118 Q540.156 269.889 540.156 268.807 L540.156 257.936 L537.516 257.936 Z" fill="#000000" fill-rule="nonzero" fill-opacity="1" /><path clip-path="url(#clip220)" d="M550.738 266.839 Q550.738 265.839 551.312 265.363 Q551.886 264.888 552.624 264.888 Q553.395 264.888 553.936 265.396 Q554.493 265.888 554.493 266.757 Q554.493 267.692 553.837 268.216 Q553.198 268.741 552.28 268.61 Q553.083 269.954 554.559 270.561 Q556.051 271.167 557.428 271.167 Q558.871 271.167 560.035 269.921 Q561.215 268.675 561.215 265.626 Q561.215 263.035 560.199 261.543 Q559.199 260.051 557.215 260.051 L555.739 260.051 Q555.231 260.051 555.083 260.002 Q554.936 259.953 554.936 259.674 Q554.936 259.346 555.444 259.281 Q555.952 259.281 556.756 259.182 Q558.707 259.117 559.74 257.428 Q560.674 255.854 560.674 253.608 Q560.674 251.558 559.69 250.706 Q558.723 249.837 557.461 249.837 Q556.28 249.837 554.985 250.329 Q553.69 250.82 552.985 251.919 Q555.067 251.919 555.067 253.608 Q555.067 254.345 554.591 254.837 Q554.132 255.313 553.362 255.313 Q552.624 255.313 552.132 254.854 Q551.64 254.378 551.64 253.575 Q551.64 251.657 553.345 250.329 Q555.067 249 557.592 249 Q560.084 249 561.92 250.312 Q563.773 251.624 563.773 253.64 Q563.773 255.624 562.461 257.248 Q561.15 258.871 559.067 259.543 Q561.625 260.051 563.15 261.789 Q564.675 263.511 564.675 265.626 Q564.675 268.249 562.609 270.184 Q560.543 272.102 557.526 272.102 Q554.739 272.102 552.739 270.594 Q550.738 269.085 550.738 266.839 Z" fill="#000000" fill-rule="nonzero" fill-opacity="1" /><path clip-path="url(#clip220)" d="M574.382 251.421 L579.266 251.421 L579.266 255.403 L575.47 262.81 L572.483 262.81 L574.382 255.403 L574.382 251.421 Z" fill="#000000" fill-rule="nonzero" fill-opacity="1" /><path clip-path="url(#clip220)" d="M625.608 243.273 L625.608 245.356 L606.025 245.356 Q606.303 249.755 608.664 252.069 Q611.048 254.361 615.284 254.361 Q617.738 254.361 620.029 253.759 Q622.344 253.157 624.613 251.954 L624.613 255.981 Q622.321 256.954 619.914 257.463 Q617.506 257.972 615.029 257.972 Q608.826 257.972 605.192 254.361 Q601.58 250.75 601.58 244.593 Q601.58 238.227 605.006 234.5 Q608.455 230.75 614.289 230.75 Q619.52 230.75 622.553 234.13 Q625.608 237.486 625.608 243.273 M621.349 242.023 Q621.303 238.528 619.381 236.444 Q617.483 234.361 614.335 234.361 Q610.77 234.361 608.617 236.375 Q606.488 238.389 606.164 242.046 L621.349 242.023 Z" fill="#000000" fill-rule="nonzero" fill-opacity="1" /><path clip-path="url(#clip220)" d="M653.316 231.375 L643.941 243.991 L653.802 257.301 L648.779 257.301 L641.233 247.116 L633.687 257.301 L628.664 257.301 L638.733 243.736 L629.52 231.375 L634.543 231.375 L641.418 240.611 L648.293 231.375 L653.316 231.375 Z" fill="#000000" fill-rule="nonzero" fill-opacity="1" /><path clip-path="url(#clip220)" d="M663.941 253.412 L663.941 267.162 L659.659 267.162 L659.659 231.375 L663.941 231.375 L663.941 235.31 Q665.284 232.995 667.321 231.884 Q669.381 230.75 672.228 230.75 Q676.95 230.75 679.89 234.5 Q682.853 238.25 682.853 244.361 Q682.853 250.472 679.89 254.222 Q676.95 257.972 672.228 257.972 Q669.381 257.972 667.321 256.861 Q665.284 255.727 663.941 253.412 M678.432 244.361 Q678.432 239.662 676.487 237 Q674.566 234.315 671.187 234.315 Q667.807 234.315 665.863 237 Q663.941 239.662 663.941 244.361 Q663.941 249.06 665.863 251.745 Q667.807 254.407 671.187 254.407 Q674.566 254.407 676.487 251.745 Q678.432 249.06 678.432 244.361 Z" fill="#000000" fill-rule="nonzero" fill-opacity="1" /><path clip-path="url(#clip220)" d="M690.515 251.421 L695.399 251.421 L695.399 257.301 L690.515 257.301 L690.515 251.421 Z" fill="#000000" fill-rule="nonzero" fill-opacity="1" /></svg>
