<?xml version="1.0" encoding="utf-8"?>
<svg xmlns="http://www.w3.org/2000/svg" xmlns:xlink="http://www.w3.org/1999/xlink" width="600" height="400" viewBox="0 0 2400 1600">
<defs>
  <clipPath id="clip250">
    <rect x="0" y="0" width="2400" height="1600"/>
  </clipPath>
</defs>
<path clip-path="url(#clip250)" d="M0 1600 L2400 1600 L2400 0 L0 0  Z" fill="#ffffff" fill-rule="evenodd" fill-opacity="1"/>
<defs>
  <clipPath id="clip251">
    <rect x="203" y="47" width="2150" height="1377"/>
  </clipPath>
</defs>
<path clip-path="url(#clip250)" d="M203.612 1423.18 L2352.76 1423.18 L2352.76 47.2441 L203.612 47.2441  Z" fill="#ffffff" fill-rule="evenodd" fill-opacity="1"/>
<polyline clip-path="url(#clip251)" style="stroke:#000000; stroke-linecap:round; stroke-linejoin:round; stroke-width:2; stroke-opacity:0.1; fill:none" points="264.437,1423.18 264.437,47.2441 "/>
<polyline clip-path="url(#clip251)" style="stroke:#000000; stroke-linecap:round; stroke-linejoin:round; stroke-width:2; stroke-opacity:0.1; fill:none" points="778.248,1423.18 778.248,47.2441 "/>
<polyline clip-path="url(#clip251)" style="stroke:#000000; stroke-linecap:round; stroke-linejoin:round; stroke-width:2; stroke-opacity:0.1; fill:none" points="1292.06,1423.18 1292.06,47.2441 "/>
<polyline clip-path="url(#clip251)" style="stroke:#000000; stroke-linecap:round; stroke-linejoin:round; stroke-width:2; stroke-opacity:0.1; fill:none" points="1805.87,1423.18 1805.87,47.2441 "/>
<polyline clip-path="url(#clip251)" style="stroke:#000000; stroke-linecap:round; stroke-linejoin:round; stroke-width:2; stroke-opacity:0.1; fill:none" points="2319.68,1423.18 2319.68,47.2441 "/>
<polyline clip-path="url(#clip251)" style="stroke:#000000; stroke-linecap:round; stroke-linejoin:round; stroke-width:2; stroke-opacity:0.1; fill:none" points="203.612,1385.52 2352.76,1385.52 "/>
<polyline clip-path="url(#clip251)" style="stroke:#000000; stroke-linecap:round; stroke-linejoin:round; stroke-width:2; stroke-opacity:0.1; fill:none" points="203.612,1035.52 2352.76,1035.52 "/>
<polyline clip-path="url(#clip251)" style="stroke:#000000; stroke-linecap:round; stroke-linejoin:round; stroke-width:2; stroke-opacity:0.1; fill:none" points="203.612,685.514 2352.76,685.514 "/>
<polyline clip-path="url(#clip251)" style="stroke:#000000; stroke-linecap:round; stroke-linejoin:round; stroke-width:2; stroke-opacity:0.1; fill:none" points="203.612,335.511 2352.76,335.511 "/>
<polyline clip-path="url(#clip250)" style="stroke:#000000; stroke-linecap:round; stroke-linejoin:round; stroke-width:4; stroke-opacity:1; fill:none" points="203.612,1423.18 2352.76,1423.18 "/>
<polyline clip-path="url(#clip250)" style="stroke:#000000; stroke-linecap:round; stroke-linejoin:round; stroke-width:4; stroke-opacity:1; fill:none" points="264.437,1423.18 264.437,1404.28 "/>
<polyline clip-path="url(#clip250)" style="stroke:#000000; stroke-linecap:round; stroke-linejoin:round; stroke-width:4; stroke-opacity:1; fill:none" points="778.248,1423.18 778.248,1404.28 "/>
<polyline clip-path="url(#clip250)" style="stroke:#000000; stroke-linecap:round; stroke-linejoin:round; stroke-width:4; stroke-opacity:1; fill:none" points="1292.06,1423.18 1292.06,1404.28 "/>
<polyline clip-path="url(#clip250)" style="stroke:#000000; stroke-linecap:round; stroke-linejoin:round; stroke-width:4; stroke-opacity:1; fill:none" points="1805.87,1423.18 1805.87,1404.28 "/>
<polyline clip-path="url(#clip250)" style="stroke:#000000; stroke-linecap:round; stroke-linejoin:round; stroke-width:4; stroke-opacity:1; fill:none" points="2319.68,1423.18 2319.68,1404.28 "/>
<path clip-path="url(#clip250)" d="M241.821 1454.1 Q238.21 1454.1 236.381 1457.66 Q234.576 1461.2 234.576 1468.33 Q234.576 1475.44 236.381 1479.01 Q238.21 1482.55 241.821 1482.55 Q245.455 1482.55 247.261 1479.01 Q249.089 1475.44 249.089 1468.33 Q249.089 1461.2 247.261 1457.66 Q245.455 1454.1 241.821 1454.1 M241.821 1450.39 Q247.631 1450.39 250.687 1455 Q253.765 1459.58 253.765 1468.33 Q253.765 1477.06 250.687 1481.67 Q247.631 1486.25 241.821 1486.25 Q236.011 1486.25 232.932 1481.67 Q229.877 1477.06 229.877 1468.33 Q229.877 1459.58 232.932 1455 Q236.011 1450.39 241.821 1450.39 Z" fill="#000000" fill-rule="nonzero" fill-opacity="1" /><path clip-path="url(#clip250)" d="M261.983 1479.7 L266.867 1479.7 L266.867 1485.58 L261.983 1485.58 L261.983 1479.7 Z" fill="#000000" fill-rule="nonzero" fill-opacity="1" /><path clip-path="url(#clip250)" d="M287.052 1454.1 Q283.441 1454.1 281.612 1457.66 Q279.807 1461.2 279.807 1468.33 Q279.807 1475.44 281.612 1479.01 Q283.441 1482.55 287.052 1482.55 Q290.686 1482.55 292.492 1479.01 Q294.321 1475.44 294.321 1468.33 Q294.321 1461.2 292.492 1457.66 Q290.686 1454.1 287.052 1454.1 M287.052 1450.39 Q292.862 1450.39 295.918 1455 Q298.997 1459.58 298.997 1468.33 Q298.997 1477.06 295.918 1481.67 Q292.862 1486.25 287.052 1486.25 Q281.242 1486.25 278.163 1481.67 Q275.108 1477.06 275.108 1468.33 Q275.108 1459.58 278.163 1455 Q281.242 1450.39 287.052 1450.39 Z" fill="#000000" fill-rule="nonzero" fill-opacity="1" /><path clip-path="url(#clip250)" d="M756.431 1454.1 Q752.82 1454.1 750.991 1457.66 Q749.186 1461.2 749.186 1468.33 Q749.186 1475.44 750.991 1479.01 Q752.82 1482.55 756.431 1482.55 Q760.065 1482.55 761.871 1479.01 Q763.699 1475.44 763.699 1468.33 Q763.699 1461.2 761.871 1457.66 Q760.065 1454.1 756.431 1454.1 M756.431 1450.39 Q762.241 1450.39 765.297 1455 Q768.375 1459.58 768.375 1468.33 Q768.375 1477.06 765.297 1481.67 Q762.241 1486.25 756.431 1486.25 Q750.621 1486.25 747.542 1481.67 Q744.487 1477.06 744.487 1468.33 Q744.487 1459.58 747.542 1455 Q750.621 1450.39 756.431 1450.39 Z" fill="#000000" fill-rule="nonzero" fill-opacity="1" /><path clip-path="url(#clip250)" d="M776.593 1479.7 L781.477 1479.7 L781.477 1485.58 L776.593 1485.58 L776.593 1479.7 Z" fill="#000000" fill-rule="nonzero" fill-opacity="1" /><path clip-path="url(#clip250)" d="M795.69 1481.64 L812.009 1481.64 L812.009 1485.58 L790.065 1485.58 L790.065 1481.64 Q792.727 1478.89 797.31 1474.26 Q801.917 1469.61 803.097 1468.27 Q805.343 1465.74 806.222 1464.01 Q807.125 1462.25 807.125 1460.56 Q807.125 1457.8 805.181 1456.07 Q803.259 1454.33 800.158 1454.33 Q797.958 1454.33 795.505 1455.09 Q793.074 1455.86 790.296 1457.41 L790.296 1452.69 Q793.121 1451.55 795.574 1450.97 Q798.028 1450.39 800.065 1450.39 Q805.435 1450.39 808.63 1453.08 Q811.824 1455.77 811.824 1460.26 Q811.824 1462.39 811.014 1464.31 Q810.227 1466.2 808.12 1468.8 Q807.542 1469.47 804.44 1472.69 Q801.338 1475.88 795.69 1481.64 Z" fill="#000000" fill-rule="nonzero" fill-opacity="1" /><path clip-path="url(#clip250)" d="M1269.2 1454.1 Q1265.59 1454.1 1263.76 1457.66 Q1261.96 1461.2 1261.96 1468.33 Q1261.96 1475.44 1263.76 1479.01 Q1265.59 1482.55 1269.2 1482.55 Q1272.83 1482.55 1274.64 1479.01 Q1276.47 1475.44 1276.47 1468.33 Q1276.47 1461.2 1274.64 1457.66 Q1272.83 1454.1 1269.2 1454.1 M1269.2 1450.39 Q1275.01 1450.39 1278.07 1455 Q1281.14 1459.58 1281.14 1468.33 Q1281.14 1477.06 1278.07 1481.67 Q1275.01 1486.25 1269.2 1486.25 Q1263.39 1486.25 1260.31 1481.67 Q1257.26 1477.06 1257.26 1468.33 Q1257.26 1459.58 1260.31 1455 Q1263.39 1450.39 1269.2 1450.39 Z" fill="#000000" fill-rule="nonzero" fill-opacity="1" /><path clip-path="url(#clip250)" d="M1289.36 1479.7 L1294.25 1479.7 L1294.25 1485.58 L1289.36 1485.58 L1289.36 1479.7 Z" fill="#000000" fill-rule="nonzero" fill-opacity="1" /><path clip-path="url(#clip250)" d="M1317.28 1455.09 L1305.47 1473.54 L1317.28 1473.54 L1317.28 1455.09 M1316.05 1451.02 L1321.93 1451.02 L1321.93 1473.54 L1326.86 1473.54 L1326.86 1477.43 L1321.93 1477.43 L1321.93 1485.58 L1317.28 1485.58 L1317.28 1477.43 L1301.68 1477.43 L1301.68 1472.92 L1316.05 1451.02 Z" fill="#000000" fill-rule="nonzero" fill-opacity="1" /><path clip-path="url(#clip250)" d="M1783.17 1454.1 Q1779.56 1454.1 1777.73 1457.66 Q1775.93 1461.2 1775.93 1468.33 Q1775.93 1475.44 1777.73 1479.01 Q1779.56 1482.55 1783.17 1482.55 Q1786.81 1482.55 1788.61 1479.01 Q1790.44 1475.44 1790.44 1468.33 Q1790.44 1461.2 1788.61 1457.66 Q1786.81 1454.1 1783.17 1454.1 M1783.17 1450.39 Q1788.98 1450.39 1792.04 1455 Q1795.12 1459.58 1795.12 1468.33 Q1795.12 1477.06 1792.04 1481.67 Q1788.98 1486.25 1783.17 1486.25 Q1777.36 1486.25 1774.29 1481.67 Q1771.23 1477.06 1771.23 1468.33 Q1771.23 1459.58 1774.29 1455 Q1777.36 1450.39 1783.17 1450.39 Z" fill="#000000" fill-rule="nonzero" fill-opacity="1" /><path clip-path="url(#clip250)" d="M1803.34 1479.7 L1808.22 1479.7 L1808.22 1485.58 L1803.34 1485.58 L1803.34 1479.7 Z" fill="#000000" fill-rule="nonzero" fill-opacity="1" /><path clip-path="url(#clip250)" d="M1828.98 1466.44 Q1825.84 1466.44 1823.98 1468.59 Q1822.16 1470.74 1822.16 1474.49 Q1822.16 1478.22 1823.98 1480.39 Q1825.84 1482.55 1828.98 1482.55 Q1832.13 1482.55 1833.96 1480.39 Q1835.81 1478.22 1835.81 1474.49 Q1835.81 1470.74 1833.96 1468.59 Q1832.13 1466.44 1828.98 1466.44 M1838.27 1451.78 L1838.27 1456.04 Q1836.51 1455.21 1834.7 1454.77 Q1832.92 1454.33 1831.16 1454.33 Q1826.53 1454.33 1824.08 1457.45 Q1821.65 1460.58 1821.3 1466.9 Q1822.66 1464.89 1824.72 1463.82 Q1826.78 1462.73 1829.26 1462.73 Q1834.47 1462.73 1837.48 1465.9 Q1840.51 1469.05 1840.51 1474.49 Q1840.51 1479.82 1837.36 1483.03 Q1834.22 1486.25 1828.98 1486.25 Q1822.99 1486.25 1819.82 1481.67 Q1816.65 1477.06 1816.65 1468.33 Q1816.65 1460.14 1820.53 1455.28 Q1824.42 1450.39 1830.97 1450.39 Q1832.73 1450.39 1834.52 1450.74 Q1836.32 1451.09 1838.27 1451.78 Z" fill="#000000" fill-rule="nonzero" fill-opacity="1" /><path clip-path="url(#clip250)" d="M2297.11 1454.1 Q2293.5 1454.1 2291.67 1457.66 Q2289.87 1461.2 2289.87 1468.33 Q2289.87 1475.44 2291.67 1479.01 Q2293.5 1482.55 2297.11 1482.55 Q2300.75 1482.55 2302.55 1479.01 Q2304.38 1475.44 2304.38 1468.33 Q2304.38 1461.2 2302.55 1457.66 Q2300.75 1454.1 2297.11 1454.1 M2297.11 1450.39 Q2302.92 1450.39 2305.98 1455 Q2309.06 1459.58 2309.06 1468.33 Q2309.06 1477.06 2305.98 1481.67 Q2302.92 1486.25 2297.11 1486.25 Q2291.3 1486.25 2288.22 1481.67 Q2285.17 1477.06 2285.17 1468.33 Q2285.17 1459.58 2288.22 1455 Q2291.3 1450.39 2297.11 1450.39 Z" fill="#000000" fill-rule="nonzero" fill-opacity="1" /><path clip-path="url(#clip250)" d="M2317.27 1479.7 L2322.16 1479.7 L2322.16 1485.58 L2317.27 1485.58 L2317.27 1479.7 Z" fill="#000000" fill-rule="nonzero" fill-opacity="1" /><path clip-path="url(#clip250)" d="M2342.34 1469.17 Q2339.01 1469.17 2337.09 1470.95 Q2335.19 1472.73 2335.19 1475.86 Q2335.19 1478.98 2337.09 1480.77 Q2339.01 1482.55 2342.34 1482.55 Q2345.68 1482.55 2347.6 1480.77 Q2349.52 1478.96 2349.52 1475.86 Q2349.52 1472.73 2347.6 1470.95 Q2345.7 1469.17 2342.34 1469.17 M2337.67 1467.18 Q2334.66 1466.44 2332.97 1464.38 Q2331.3 1462.32 2331.3 1459.35 Q2331.3 1455.21 2334.24 1452.8 Q2337.2 1450.39 2342.34 1450.39 Q2347.51 1450.39 2350.45 1452.8 Q2353.39 1455.21 2353.39 1459.35 Q2353.39 1462.32 2351.7 1464.38 Q2350.03 1466.44 2347.04 1467.18 Q2350.42 1467.96 2352.3 1470.26 Q2354.2 1472.55 2354.2 1475.86 Q2354.2 1480.88 2351.12 1483.57 Q2348.06 1486.25 2342.34 1486.25 Q2336.63 1486.25 2333.55 1483.57 Q2330.49 1480.88 2330.49 1475.86 Q2330.49 1472.55 2332.39 1470.26 Q2334.29 1467.96 2337.67 1467.18 M2335.95 1459.79 Q2335.95 1462.48 2337.62 1463.98 Q2339.31 1465.49 2342.34 1465.49 Q2345.35 1465.49 2347.04 1463.98 Q2348.76 1462.48 2348.76 1459.79 Q2348.76 1457.11 2347.04 1455.6 Q2345.35 1454.1 2342.34 1454.1 Q2339.31 1454.1 2337.62 1455.6 Q2335.95 1457.11 2335.95 1459.79 Z" fill="#000000" fill-rule="nonzero" fill-opacity="1" /><path clip-path="url(#clip250)" d="M1213.19 1542.62 Q1213.19 1542.87 1212.9 1543.87 Q1212.62 1544.87 1211.91 1546.42 Q1211.23 1547.96 1210.3 1549.38 Q1209.36 1550.76 1207.82 1551.8 Q1206.3 1552.79 1204.56 1552.79 Q1202.24 1552.79 1200.7 1551.25 Q1199.15 1549.7 1199.15 1547.38 Q1199.15 1547.06 1199.19 1546.74 Q1199.22 1546.42 1199.25 1546.22 Q1199.28 1546 1199.38 1545.64 Q1199.51 1545.26 1199.54 1545.1 Q1199.6 1544.94 1199.76 1544.45 Q1199.96 1543.94 1200.02 1543.74 Q1204.11 1533.31 1204.11 1528.96 Q1204.11 1524.36 1200.54 1524.36 Q1197.35 1524.36 1194.19 1526.67 Q1192.74 1527.83 1191.36 1529.9 Q1189.97 1531.96 1189.72 1532.73 Q1189.43 1534.4 1189.01 1535.69 Q1188.82 1536.59 1187.88 1540.1 L1186.43 1546.06 L1185.18 1551.05 Q1184.92 1551.76 1184.21 1552.28 Q1183.5 1552.79 1182.73 1552.79 Q1182.08 1552.79 1181.44 1552.34 Q1180.83 1551.92 1180.83 1550.93 Q1180.83 1550.41 1181.09 1549.48 L1190.65 1511.47 L1190.84 1510.19 Q1190.84 1509.8 1190.68 1509.61 Q1190.55 1509.38 1189.78 1509.22 Q1189.04 1509.06 1187.56 1509.06 Q1186.95 1509.06 1186.66 1509.03 Q1186.4 1508.99 1186.17 1508.83 Q1185.95 1508.64 1185.95 1508.25 Q1185.95 1507.71 1186.17 1507.42 Q1186.43 1507.09 1186.63 1507.03 Q1186.82 1506.96 1187.2 1506.93 Q1187.75 1506.9 1189.59 1506.74 Q1191.42 1506.55 1193 1506.42 Q1194.58 1506.29 1195.26 1506.29 Q1195.64 1506.29 1195.84 1506.48 Q1196.06 1506.64 1196.09 1506.84 L1196.13 1507 L1190.97 1527.96 Q1195.06 1522.91 1200.73 1522.91 Q1204.4 1522.91 1206.37 1524.81 Q1208.33 1526.67 1208.33 1529.96 Q1208.33 1533.73 1204.31 1544.45 Q1203.11 1547.45 1203.11 1549.15 Q1203.11 1550.28 1203.47 1550.8 Q1203.86 1551.31 1204.69 1551.31 Q1205.98 1551.31 1207.11 1550.57 Q1208.27 1549.8 1209.07 1548.54 Q1209.88 1547.25 1210.43 1545.97 Q1211 1544.65 1211.42 1543.16 Q1211.68 1542.36 1211.81 1542.17 Q1211.97 1541.97 1212.42 1541.97 Q1213.19 1541.97 1213.19 1542.62 Z" fill="#000000" fill-rule="nonzero" fill-opacity="1" /><path clip-path="url(#clip250)" d="M1241.9 1540.29 L1235.24 1566.98 Q1234.97 1568.17 1234.97 1569.19 Q1234.97 1571.31 1236.35 1571.31 Q1237.03 1571.31 1237.57 1570.88 Q1238.11 1570.45 1238.54 1569.55 Q1238.96 1568.65 1239.24 1567.81 Q1239.51 1566.96 1239.87 1565.6 Q1239.98 1565.06 1240.07 1564.93 Q1240.18 1564.77 1240.5 1564.77 Q1241.06 1564.77 1241.06 1565.22 Q1240.45 1568.13 1239.66 1569.8 Q1238.4 1572.34 1236.26 1572.34 Q1234.64 1572.34 1233.49 1571.35 Q1232.34 1570.36 1232.07 1568.87 Q1229.11 1572.34 1226.05 1572.34 Q1223.34 1572.34 1221.63 1570.29 Q1219.91 1568.22 1219.91 1564.95 Q1219.91 1561.66 1221.54 1558.5 Q1223.18 1555.35 1225.78 1553.38 Q1228.37 1551.42 1231.03 1551.42 Q1233.85 1551.42 1235.29 1554.38 L1238.06 1543.42 L1238.2 1542.52 Q1238.2 1542.25 1238.09 1542.11 Q1238 1541.95 1237.45 1541.84 Q1236.94 1541.73 1235.9 1541.73 Q1235.47 1541.73 1235.27 1541.71 Q1235.09 1541.68 1234.93 1541.57 Q1234.77 1541.44 1234.77 1541.16 Q1234.77 1540.38 1235.43 1540.29 Q1239.75 1539.79 1241.29 1539.79 Q1241.56 1539.79 1241.71 1539.93 Q1241.87 1540.04 1241.87 1540.17 L1241.9 1540.29 M1234.73 1556.49 Q1234.73 1556.29 1234.57 1555.73 Q1234.41 1555.16 1234.05 1554.38 Q1233.69 1553.59 1232.9 1553.02 Q1232.13 1552.44 1231.1 1552.44 Q1229.7 1552.44 1228.23 1553.63 Q1226.79 1554.83 1225.73 1556.86 Q1224.92 1558.48 1224.04 1561.88 Q1223.18 1565.29 1223.18 1566.98 Q1223.18 1568.02 1223.41 1568.94 Q1223.66 1569.84 1224.36 1570.59 Q1225.05 1571.31 1226.14 1571.31 Q1228.77 1571.31 1231.37 1568.04 Q1231.86 1567.47 1231.98 1567.25 Q1232.11 1567 1232.29 1566.32 L1234.59 1557.28 Q1234.73 1556.61 1234.73 1556.49 Z" fill="#000000" fill-rule="nonzero" fill-opacity="1" /><path clip-path="url(#clip250)" d="M1263.25 1552.86 L1263.25 1522.56 L1267.82 1522.56 L1267.82 1523.25 L1265.27 1523.25 L1265.27 1552.17 L1267.82 1552.17 L1267.82 1552.86 L1263.25 1552.86 Z" fill="#000000" fill-rule="nonzero" fill-opacity="1" /><path clip-path="url(#clip250)" d="M1282.81 1548.45 Q1278.63 1544.07 1278.63 1537.82 Q1278.63 1531.54 1282.75 1527.03 Q1286.87 1522.49 1292.93 1522.49 Q1296.95 1522.49 1299.98 1524.42 Q1303.01 1526.32 1303.01 1529.57 Q1303.01 1531.02 1302.14 1531.86 Q1301.3 1532.66 1299.98 1532.66 Q1298.59 1532.66 1297.76 1531.83 Q1296.95 1530.96 1296.95 1529.64 Q1296.95 1529.06 1297.14 1528.48 Q1297.34 1527.9 1298.05 1527.29 Q1298.79 1526.67 1300.04 1526.58 Q1297.69 1524.16 1293.12 1524.16 Q1293.05 1524.16 1292.99 1524.16 Q1289.64 1524.16 1286.87 1527.32 Q1284.1 1530.47 1284.1 1537.69 Q1284.1 1541.46 1285 1544.23 Q1285.94 1546.96 1287.45 1548.38 Q1288.96 1549.8 1290.45 1550.47 Q1291.93 1551.12 1293.38 1551.12 Q1299.85 1551.12 1302.04 1544.19 Q1302.23 1543.55 1302.88 1543.55 Q1303.75 1543.55 1303.75 1544.19 Q1303.75 1544.52 1303.49 1545.35 Q1303.23 1546.19 1302.43 1547.51 Q1301.62 1548.83 1300.46 1549.99 Q1299.33 1551.12 1297.31 1551.96 Q1295.31 1552.79 1292.8 1552.79 Q1287 1552.79 1282.81 1548.45 Z" fill="#000000" fill-rule="nonzero" fill-opacity="1" /><path clip-path="url(#clip250)" d="M1305.77 1552.05 L1305.77 1550.02 Q1309.28 1550.02 1310.09 1549.61 Q1310.89 1549.15 1310.89 1547.03 L1310.89 1529.35 Q1310.89 1526.9 1310.02 1526.29 Q1309.19 1525.68 1305.77 1525.68 L1305.77 1523.62 L1315.05 1522.91 L1315.05 1529.83 Q1318.14 1522.91 1324.81 1522.91 Q1332.54 1522.91 1333.6 1529.35 Q1334.73 1526.84 1337.08 1524.87 Q1339.46 1522.91 1343.16 1522.91 Q1348.12 1522.91 1350.09 1525.35 Q1351.54 1527 1351.83 1528.83 Q1352.12 1530.67 1352.12 1535.43 L1352.12 1548.03 Q1352.18 1549.41 1353.24 1549.73 Q1354.31 1550.02 1357.27 1550.02 L1357.27 1552.05 Q1350.54 1551.86 1349.9 1551.86 Q1349.38 1551.86 1342.42 1552.05 L1342.42 1550.02 Q1345.93 1550.02 1346.74 1549.61 Q1347.58 1549.15 1347.58 1547.03 L1347.58 1531.67 Q1347.58 1528.32 1346.55 1526.35 Q1345.52 1524.36 1342.68 1524.36 Q1339.27 1524.36 1336.53 1527.22 Q1333.79 1530.09 1333.79 1534.92 L1333.79 1547.03 Q1333.79 1549.15 1334.6 1549.61 Q1335.44 1550.02 1338.95 1550.02 L1338.95 1552.05 Q1332.21 1551.86 1331.54 1551.86 Q1331.02 1551.86 1324.1 1552.05 L1324.1 1550.02 Q1327.61 1550.02 1328.41 1549.61 Q1329.25 1549.15 1329.25 1547.03 L1329.25 1531.67 Q1329.25 1528.32 1328.22 1526.35 Q1327.19 1524.36 1324.36 1524.36 Q1320.94 1524.36 1318.2 1527.22 Q1315.47 1530.09 1315.47 1534.92 L1315.47 1547.03 Q1315.47 1549.15 1316.27 1549.61 Q1317.11 1550.02 1320.59 1550.02 L1320.59 1552.05 Q1313.86 1551.86 1313.21 1551.86 Q1312.7 1551.86 1305.77 1552.05 Z" fill="#000000" fill-rule="nonzero" fill-opacity="1" /><path clip-path="url(#clip250)" d="M1367.2 1552.17 L1369.75 1552.17 L1369.75 1523.25 L1367.2 1523.25 L1367.2 1522.56 L1371.77 1522.56 L1371.77 1552.86 L1367.2 1552.86 L1367.2 1552.17 Z" fill="#000000" fill-rule="nonzero" fill-opacity="1" /><polyline clip-path="url(#clip250)" style="stroke:#000000; stroke-linecap:round; stroke-linejoin:round; stroke-width:4; stroke-opacity:1; fill:none" points="203.612,1423.18 203.612,47.2441 "/>
<polyline clip-path="url(#clip250)" style="stroke:#000000; stroke-linecap:round; stroke-linejoin:round; stroke-width:4; stroke-opacity:1; fill:none" points="203.612,1385.52 222.509,1385.52 "/>
<polyline clip-path="url(#clip250)" style="stroke:#000000; stroke-linecap:round; stroke-linejoin:round; stroke-width:4; stroke-opacity:1; fill:none" points="203.612,1035.52 222.509,1035.52 "/>
<polyline clip-path="url(#clip250)" style="stroke:#000000; stroke-linecap:round; stroke-linejoin:round; stroke-width:4; stroke-opacity:1; fill:none" points="203.612,685.514 222.509,685.514 "/>
<polyline clip-path="url(#clip250)" style="stroke:#000000; stroke-linecap:round; stroke-linejoin:round; stroke-width:4; stroke-opacity:1; fill:none" points="203.612,335.511 222.509,335.511 "/>
<path clip-path="url(#clip250)" d="M155.667 1371.32 Q152.056 1371.32 150.228 1374.88 Q148.422 1378.43 148.422 1385.55 Q148.422 1392.66 150.228 1396.23 Q152.056 1399.77 155.667 1399.77 Q159.302 1399.77 161.107 1396.23 Q162.936 1392.66 162.936 1385.55 Q162.936 1378.43 161.107 1374.88 Q159.302 1371.32 155.667 1371.32 M155.667 1367.62 Q161.478 1367.62 164.533 1372.22 Q167.612 1376.8 167.612 1385.55 Q167.612 1394.28 164.533 1398.89 Q161.478 1403.47 155.667 1403.47 Q149.857 1403.47 146.779 1398.89 Q143.723 1394.28 143.723 1385.55 Q143.723 1376.8 146.779 1372.22 Q149.857 1367.62 155.667 1367.62 Z" fill="#000000" fill-rule="nonzero" fill-opacity="1" /><path clip-path="url(#clip250)" d="M146.709 1018.24 L165.065 1018.24 L165.065 1022.17 L150.991 1022.17 L150.991 1030.64 Q152.01 1030.3 153.028 1030.14 Q154.047 1029.95 155.066 1029.95 Q160.853 1029.95 164.232 1033.12 Q167.612 1036.29 167.612 1041.71 Q167.612 1047.29 164.14 1050.39 Q160.667 1053.47 154.348 1053.47 Q152.172 1053.47 149.904 1053.1 Q147.658 1052.73 145.251 1051.99 L145.251 1047.29 Q147.334 1048.42 149.556 1048.98 Q151.778 1049.53 154.255 1049.53 Q158.26 1049.53 160.598 1047.43 Q162.936 1045.32 162.936 1041.71 Q162.936 1038.1 160.598 1035.99 Q158.26 1033.88 154.255 1033.88 Q152.38 1033.88 150.505 1034.3 Q148.654 1034.72 146.709 1035.6 L146.709 1018.24 Z" fill="#000000" fill-rule="nonzero" fill-opacity="1" /><path clip-path="url(#clip250)" d="M116.316 698.859 L123.955 698.859 L123.955 672.493 L115.644 674.16 L115.644 669.9 L123.908 668.234 L128.584 668.234 L128.584 698.859 L136.223 698.859 L136.223 702.794 L116.316 702.794 L116.316 698.859 Z" fill="#000000" fill-rule="nonzero" fill-opacity="1" /><path clip-path="url(#clip250)" d="M155.667 671.312 Q152.056 671.312 150.228 674.877 Q148.422 678.419 148.422 685.548 Q148.422 692.655 150.228 696.22 Q152.056 699.761 155.667 699.761 Q159.302 699.761 161.107 696.22 Q162.936 692.655 162.936 685.548 Q162.936 678.419 161.107 674.877 Q159.302 671.312 155.667 671.312 M155.667 667.609 Q161.478 667.609 164.533 672.215 Q167.612 676.799 167.612 685.548 Q167.612 694.275 164.533 698.882 Q161.478 703.465 155.667 703.465 Q149.857 703.465 146.779 698.882 Q143.723 694.275 143.723 685.548 Q143.723 676.799 146.779 672.215 Q149.857 667.609 155.667 667.609 Z" fill="#000000" fill-rule="nonzero" fill-opacity="1" /><path clip-path="url(#clip250)" d="M117.311 348.855 L124.95 348.855 L124.95 322.49 L116.64 324.156 L116.64 319.897 L124.904 318.231 L129.58 318.231 L129.58 348.855 L137.218 348.855 L137.218 352.791 L117.311 352.791 L117.311 348.855 Z" fill="#000000" fill-rule="nonzero" fill-opacity="1" /><path clip-path="url(#clip250)" d="M146.709 318.231 L165.065 318.231 L165.065 322.166 L150.991 322.166 L150.991 330.638 Q152.01 330.291 153.028 330.129 Q154.047 329.943 155.066 329.943 Q160.853 329.943 164.232 333.115 Q167.612 336.286 167.612 341.703 Q167.612 347.281 164.14 350.383 Q160.667 353.462 154.348 353.462 Q152.172 353.462 149.904 353.091 Q147.658 352.721 145.251 351.98 L145.251 347.281 Q147.334 348.416 149.556 348.971 Q151.778 349.527 154.255 349.527 Q158.26 349.527 160.598 347.42 Q162.936 345.314 162.936 341.703 Q162.936 338.092 160.598 335.985 Q158.26 333.879 154.255 333.879 Q152.38 333.879 150.505 334.295 Q148.654 334.712 146.709 335.592 L146.709 318.231 Z" fill="#000000" fill-rule="nonzero" fill-opacity="1" /><path clip-path="url(#clip250)" d="M28.0665 989.373 Q27.0037 989.373 26.1341 989.662 Q25.2323 989.92 24.6204 990.339 Q23.9763 990.725 23.4932 991.466 Q22.9779 992.207 22.6559 992.819 Q22.3338 993.431 22.1406 994.461 Q21.9151 995.492 21.8185 996.168 Q21.6897 996.844 21.6253 998.004 Q21.5609 999.163 21.5609 999.743 Q21.5609 1000.29 21.5609 1001.39 Q21.5609 1004.83 21.6253 1005.41 Q21.7541 1006.28 22.2694 1006.6 Q22.7525 1006.92 24.0729 1007.25 L41.2709 1011.53 L41.2709 1004.16 Q41.2709 1000.13 40.1437 997.36 Q39.0164 994.59 37.4384 993.012 Q35.6992 991.273 32.8973 990.339 Q30.0954 989.373 28.0665 989.373 M58.4366 982.191 Q58.7908 982.191 59.596 982.481 Q60.4011 982.738 61.5283 983.382 Q62.6233 984.026 63.6217 984.896 Q64.6201 985.766 65.2964 987.15 Q66.005 988.535 66.005 990.113 Q66.005 990.5 65.9728 990.886 Q65.9728 991.273 65.8117 992.239 Q65.6829 993.173 65.4253 993.946 Q65.1998 994.719 64.6523 995.685 Q64.137 996.651 63.4285 997.327 Q62.6878 997.972 61.5283 998.422 Q60.3367 998.873 58.8875 998.873 Q57.5992 998.873 53.2836 997.811 Q49.6122 996.877 48.7104 996.877 Q47.712 996.877 46.7781 997.199 Q45.8441 997.489 44.8779 998.229 Q43.9117 998.938 43.332 1000.45 Q42.7201 1001.97 42.7201 1004.09 L42.7201 1011.92 L60.2079 1016.3 Q60.2401 1016.3 60.691 1016.39 Q61.1097 1016.49 61.3351 1016.49 Q61.7538 1016.49 62.0114 1016.23 Q62.2691 1015.94 62.3979 1015.23 Q62.4945 1014.53 62.5267 1013.98 Q62.5267 1013.4 62.5267 1012.21 Q62.5267 1010.73 62.7844 1010.47 Q62.9454 1010.34 63.2353 1010.34 Q63.6861 1010.34 64.0082 1010.47 Q64.298 1010.56 64.3947 1010.82 Q64.4913 1011.05 64.5235 1011.21 Q64.5557 1011.37 64.5557 1011.66 L64.3625 1020.03 L64.5557 1028.34 Q64.5557 1029.28 63.815 1029.28 Q63.1708 1029.28 62.9132 1029.05 Q62.6233 1028.82 62.5911 1028.53 Q62.5267 1028.25 62.5267 1027.5 Q62.5267 1025.89 62.4301 1024.93 Q62.3335 1023.96 62.2047 1023.35 Q62.0436 1022.71 61.5928 1022.38 Q61.1419 1022.03 60.7554 1021.87 Q60.3367 1021.71 59.4028 1021.48 L23.9763 1012.66 Q22.9135 1012.4 22.7525 1012.4 Q22.1406 1012.4 21.9795 1012.79 Q21.7863 1013.14 21.6897 1014.17 L21.5609 1016.68 Q21.5609 1017.46 21.5287 1017.78 Q21.4965 1018.07 21.3354 1018.29 Q21.1744 1018.52 20.8201 1018.52 Q19.9184 1018.52 19.7251 1018.13 Q19.4997 1017.75 19.4997 1016.62 L19.4997 997.811 Q19.4997 991.402 22.3016 987.344 Q25.1035 983.254 29.3869 983.254 Q31.3192 983.254 33.1228 984.123 Q34.9263 984.993 36.3434 986.442 Q37.7604 987.859 38.952 989.759 Q40.1114 991.659 40.9166 993.688 Q41.6895 995.685 42.1404 997.746 Q42.4625 996.844 42.9456 996.007 Q43.4286 995.137 44.3304 994.042 Q45.2322 992.915 46.6814 992.239 Q48.1307 991.563 49.902 991.563 Q51.1581 991.563 53.026 991.82 Q58.34 992.464 60.53 992.464 Q62.6233 992.464 63.5895 991.917 Q64.5557 991.369 64.5557 989.824 Q64.5557 988.31 63.203 986.635 Q61.8182 984.928 58.5654 983.833 Q57.6314 983.576 57.6314 982.964 Q57.6314 982.931 57.6314 982.899 Q57.6314 982.835 57.6958 982.706 Q57.7281 982.577 57.8247 982.481 Q57.8891 982.352 58.0501 982.287 Q58.2111 982.191 58.4366 982.191 Z" fill="#000000" fill-rule="nonzero" fill-opacity="1" /><path clip-path="url(#clip250)" d="M65.0902 951.489 Q68.3816 951.489 71.5604 953.157 Q74.7391 954.802 76.7004 957.395 Q78.6392 959.988 78.6392 962.625 Q78.6392 964.203 77.7825 965.263 Q76.9033 966.3 75.6634 966.864 Q77.1964 967.292 80.8711 968.216 Q84.5458 969.141 84.9065 969.141 Q85.1094 969.141 85.1995 969.095 Q85.2897 969.05 85.4024 968.847 Q85.5377 968.645 85.5828 968.149 Q85.6504 967.653 85.6504 966.819 Q85.6504 966.39 85.6504 966.232 Q85.673 966.052 85.7857 965.894 Q85.8984 965.714 86.1464 965.714 Q87.0707 965.714 87.0707 966.548 Q87.0707 967.292 87.0031 968.825 Q86.9354 970.358 86.9354 971.124 Q86.9354 971.778 87.0031 973.086 Q87.0707 974.393 87.0707 975.002 Q87.0707 975.611 86.5296 975.611 Q86.214 975.611 86.0111 975.521 Q85.8308 975.453 85.7406 975.273 Q85.673 975.092 85.6504 974.934 Q85.6504 974.799 85.6504 974.529 Q85.6504 973.492 85.4701 973.041 Q85.3123 972.59 84.9741 972.432 Q84.6585 972.252 83.7567 972.049 L63.1965 966.864 Q61.8213 966.548 60.8519 966.548 Q59.6345 966.548 59.1836 966.931 Q58.7328 967.314 58.7328 967.991 Q58.7328 969.163 60.1305 969.93 Q61.5282 970.696 64.2335 971.35 Q64.9775 971.553 65.1353 971.688 Q65.2931 971.801 65.2931 972.139 Q65.2706 972.703 64.8197 972.703 Q64.707 972.703 63.9855 972.522 Q63.2416 972.342 62.1595 972.004 Q61.0548 971.643 60.3559 971.26 Q59.8825 971.034 59.5669 970.831 Q59.2513 970.628 58.7553 970.223 Q58.2593 969.794 57.9888 969.186 Q57.7183 968.577 57.7183 967.833 Q57.7183 966.39 58.575 965.195 Q59.4316 964 61.1675 963.685 Q59.6571 962.4 58.6877 960.822 Q57.7183 959.244 57.7183 957.643 Q57.7183 954.983 59.7923 953.247 Q61.8439 951.489 65.0902 951.489 M63.0612 954.825 Q61.0097 954.825 59.8825 955.614 Q58.7328 956.381 58.7328 957.778 Q58.7328 959.514 60.4912 961.521 Q62.1595 963.505 63.715 963.91 L72.7552 966.187 L73.4992 966.323 Q73.6344 966.323 74.0402 966.255 Q74.4235 966.165 75.0547 965.917 Q75.6859 965.646 76.2495 965.286 Q76.7906 964.902 77.1964 964.226 Q77.6022 963.527 77.6022 962.67 Q77.6022 961.295 76.3848 959.807 Q75.1674 958.297 72.8679 957.17 Q71.38 956.471 68.1787 955.659 Q64.9549 954.825 63.0612 954.825 Z" fill="#000000" fill-rule="nonzero" fill-opacity="1" /><path clip-path="url(#clip250)" d="M78.186 930.157 L13.1647 930.157 L13.1647 920.347 L14.6569 920.347 L14.6569 925.808 L76.6938 925.808 L76.6938 920.347 L78.186 920.347 L78.186 930.157 Z" fill="#000000" fill-rule="nonzero" fill-opacity="1" /><path clip-path="url(#clip250)" d="M64.5557 905.227 L62.5267 905.227 Q62.5267 901.717 62.108 900.912 Q61.6572 900.107 59.5316 900.107 L25.2323 900.107 Q22.7847 900.107 22.1728 900.976 Q21.5609 901.814 21.5609 905.227 L19.4997 905.227 L18.7912 895.759 L41.7217 895.759 L41.7217 895.694 Q39.3385 894.632 37.3739 892.248 Q35.4094 889.865 35.4094 886.194 Q35.4094 881.234 37.857 879.27 Q39.4995 877.82 41.3353 877.53 Q43.171 877.208 47.9375 877.208 L60.53 877.208 Q61.9148 877.144 62.2369 876.081 Q62.5267 875.018 62.5267 872.055 L64.5557 872.055 Q64.3625 878.786 64.3625 879.463 Q64.3625 879.978 64.5557 886.902 L62.5267 886.902 Q62.5267 883.392 62.108 882.587 Q61.6572 881.749 59.5316 881.749 L44.1694 881.749 Q40.82 881.749 38.8554 882.78 Q36.8587 883.811 36.8587 886.645 Q36.8587 890.058 39.725 892.796 Q42.5913 895.533 47.4222 895.533 L59.5316 895.533 Q61.6572 895.533 62.108 894.728 Q62.5267 893.891 62.5267 890.413 L64.5557 890.413 Q64.3625 897.144 64.3625 897.788 Q64.3625 898.303 64.5557 905.227 Z" fill="#000000" fill-rule="nonzero" fill-opacity="1" /><path clip-path="url(#clip250)" d="M64.5557 871.103 L62.5267 871.103 Q62.5267 867.592 62.108 866.787 Q61.6572 865.95 59.5316 865.95 L41.8506 865.95 Q39.4029 865.95 38.791 866.819 Q38.1791 867.657 38.1791 871.103 L36.1179 871.103 L35.4094 861.924 L42.6557 861.924 Q39.8216 860.99 37.6316 859.026 Q35.4094 857.029 35.4094 853.808 Q35.4094 851.683 36.601 850.33 Q37.7926 848.945 39.4351 848.945 Q40.8844 848.945 41.6251 849.847 Q42.3336 850.716 42.3336 851.779 Q42.3336 852.971 41.5929 853.808 Q40.82 854.613 39.4995 854.613 Q38.6944 854.613 38.0825 854.259 Q37.4384 853.873 37.2129 853.583 Q36.9875 853.293 36.9231 853.1 Q36.8587 853.228 36.8587 853.808 Q36.8587 857.447 40.4979 859.541 Q44.105 861.602 49.2579 861.602 L59.4028 861.602 Q61.3029 861.602 61.9148 860.829 Q62.5267 860.024 62.5267 856.578 L62.5267 855.193 L64.5557 855.193 Q64.3625 857.834 64.3625 863.567 Q64.3625 864.372 64.3947 865.628 Q64.4269 866.884 64.4913 868.526 Q64.5557 870.169 64.5557 871.103 Z" fill="#000000" fill-rule="nonzero" fill-opacity="1" /><path clip-path="url(#clip250)" d="M60.9486 832.681 Q56.5686 836.868 50.3207 836.868 Q44.0406 836.868 39.5317 832.746 Q34.9907 828.624 34.9907 822.569 Q34.9907 818.543 36.9231 815.516 Q38.8232 812.488 42.076 812.488 Q43.5253 812.488 44.3626 813.358 Q45.1678 814.195 45.1678 815.516 Q45.1678 816.901 44.3304 817.738 Q43.4609 818.543 42.1404 818.543 Q41.5607 818.543 40.981 818.35 Q40.4013 818.157 39.7894 817.448 Q39.1775 816.707 39.0809 815.451 Q36.6654 817.802 36.6654 822.376 Q36.6654 822.44 36.6654 822.504 Q36.6654 825.854 39.8216 828.624 Q42.9778 831.393 50.1919 831.393 Q53.96 831.393 56.7297 830.491 Q59.4672 829.558 60.8842 828.044 Q62.3013 826.53 62.9776 825.049 Q63.6217 823.567 63.6217 822.118 Q63.6217 815.645 56.6975 813.455 Q56.0533 813.261 56.0533 812.617 Q56.0533 811.748 56.6975 811.748 Q57.0195 811.748 57.8569 812.005 Q58.6942 812.263 60.0147 813.068 Q61.3351 813.873 62.4945 815.033 Q63.6217 816.16 64.4591 818.189 Q65.2964 820.186 65.2964 822.698 Q65.2964 828.495 60.9486 832.681 Z" fill="#000000" fill-rule="nonzero" fill-opacity="1" /><path clip-path="url(#clip250)" d="M64.5557 809.721 L62.5267 809.721 Q62.5267 806.21 62.108 805.405 Q61.6572 804.6 59.5316 804.6 L41.8506 804.6 Q39.4029 804.6 38.791 805.469 Q38.1791 806.307 38.1791 809.721 L36.1179 809.721 L35.4094 800.445 L42.3336 800.445 Q35.4094 797.353 35.4094 790.687 Q35.4094 782.957 41.8506 781.895 Q39.3385 780.767 37.3739 778.416 Q35.4094 776.033 35.4094 772.33 Q35.4094 767.37 37.857 765.405 Q39.4995 763.956 41.3353 763.666 Q43.171 763.376 47.9375 763.376 L60.53 763.376 Q61.9148 763.312 62.2369 762.249 Q62.5267 761.186 62.5267 758.223 L64.5557 758.223 Q64.3625 764.954 64.3625 765.598 Q64.3625 766.114 64.5557 773.07 L62.5267 773.07 Q62.5267 769.56 62.108 768.755 Q61.6572 767.917 59.5316 767.917 L44.1694 767.917 Q40.82 767.917 38.8554 768.948 Q36.8587 769.978 36.8587 772.813 Q36.8587 776.226 39.725 778.964 Q42.5913 781.701 47.4222 781.701 L59.5316 781.701 Q61.6572 781.701 62.108 780.896 Q62.5267 780.059 62.5267 776.548 L64.5557 776.548 Q64.3625 783.279 64.3625 783.956 Q64.3625 784.471 64.5557 791.395 L62.5267 791.395 Q62.5267 787.885 62.108 787.08 Q61.6572 786.242 59.5316 786.242 L44.1694 786.242 Q40.82 786.242 38.8554 787.273 Q36.8587 788.304 36.8587 791.138 Q36.8587 794.552 39.725 797.289 Q42.5913 800.027 47.4222 800.027 L59.5316 800.027 Q61.6572 800.027 62.108 799.221 Q62.5267 798.384 62.5267 794.906 L64.5557 794.906 Q64.3625 801.637 64.3625 802.281 Q64.3625 802.796 64.5557 809.721 Z" fill="#000000" fill-rule="nonzero" fill-opacity="1" /><path clip-path="url(#clip250)" d="M44.4127 751.681 Q43.5786 751.681 43.3306 751.613 Q43.0826 751.523 42.6994 751.162 L32.8251 742.302 Q27.3694 737.455 22.6126 737.455 Q19.524 737.455 17.3147 739.078 Q15.1054 740.679 15.1054 743.632 Q15.1054 745.661 16.3453 747.375 Q17.5852 749.088 19.7946 749.877 Q19.7495 749.742 19.7495 749.268 Q19.7495 748.119 20.4709 747.487 Q21.1923 746.834 22.1617 746.834 Q23.4016 746.834 24.0103 747.645 Q24.5965 748.434 24.5965 749.223 Q24.5965 749.539 24.5288 749.967 Q24.4612 750.373 23.83 751.027 Q23.1762 751.681 22.0264 751.681 Q18.8026 751.681 16.2326 749.246 Q13.6626 746.788 13.6626 743.046 Q13.6626 738.808 16.1875 736.035 Q18.6899 733.239 22.6126 733.239 Q23.9878 733.239 25.2502 733.668 Q26.4902 734.074 27.4596 734.637 Q28.429 735.178 29.9845 736.666 Q31.54 738.154 32.6447 739.349 Q33.7494 740.544 36.094 743.226 L40.8508 748.119 L40.8508 739.8 Q40.8508 735.742 40.4901 735.426 Q39.8363 734.975 36.387 734.412 L36.387 733.239 L44.4127 734.547 L44.4127 751.681 Z" fill="#000000" fill-rule="nonzero" fill-opacity="1" /><path clip-path="url(#clip250)" d="M34.7331 713.06 L19.9184 711.804 L19.9184 671.514 L34.7331 670.258 L34.7331 671.901 Q31.7701 672.159 30.0632 672.416 Q28.3563 672.642 26.746 673.221 Q25.1035 673.769 24.3306 674.477 Q23.5254 675.154 22.9135 676.474 Q22.2694 677.795 22.1084 679.501 Q21.9473 681.208 21.9473 683.785 Q21.9473 686.812 22.0762 687.553 Q22.2694 688.358 22.8491 688.551 Q23.3966 688.745 24.5882 688.745 L59.3383 688.745 Q60.6588 688.745 61.2063 688.487 Q61.7216 688.197 62.1403 686.683 Q62.5267 685.17 62.5267 681.82 L62.5267 679.179 L64.5557 679.179 Q64.3625 681.885 64.3625 691.707 Q64.3625 701.466 64.5557 704.171 L62.5267 704.171 L62.5267 701.53 Q62.5267 698.181 62.1403 696.667 Q61.7216 695.121 61.2063 694.864 Q60.6588 694.606 59.3383 694.606 L24.5882 694.606 Q23.6543 694.606 23.2678 694.67 Q22.8813 694.735 22.5593 695.025 Q22.205 695.315 22.0762 695.991 Q21.9473 696.635 21.9473 699.533 Q21.9473 702.11 22.1084 703.849 Q22.2694 705.556 22.9135 706.876 Q23.5254 708.197 24.3306 708.905 Q25.1035 709.582 26.746 710.161 Q28.3563 710.709 30.0632 710.934 Q31.7701 711.16 34.7331 711.417 L34.7331 713.06 Z" fill="#000000" fill-rule="nonzero" fill-opacity="1" /><path clip-path="url(#clip250)" d="M61.013 656.548 Q56.6975 660.896 50.4495 660.896 Q44.1694 660.896 39.5962 656.645 Q34.9907 652.361 34.9907 646.242 Q34.9907 640.252 39.5639 635.969 Q44.105 631.653 50.4495 631.653 Q56.6653 631.653 60.9808 636.001 Q65.2964 640.316 65.2964 646.307 Q65.2964 652.168 61.013 656.548 M49.902 655.421 Q56.311 655.421 59.2095 653.746 Q63.6217 651.17 63.6217 646.242 Q63.6217 643.795 62.3013 641.766 Q60.9808 639.705 58.7586 638.577 Q55.8601 637.128 49.902 637.128 Q43.5575 637.128 40.7556 638.867 Q36.4722 641.444 36.4722 646.307 Q36.4722 648.432 37.5994 650.526 Q38.6944 652.587 40.8844 653.843 Q43.7829 655.421 49.902 655.421 Z" fill="#000000" fill-rule="nonzero" fill-opacity="1" /><path clip-path="url(#clip250)" d="M64.5557 629.552 L62.5267 629.552 Q62.5267 626.041 62.108 625.236 Q61.6572 624.399 59.5316 624.399 L41.8506 624.399 Q39.4029 624.399 38.791 625.269 Q38.1791 626.106 38.1791 629.552 L36.1179 629.552 L35.4094 620.373 L42.6557 620.373 Q39.8216 619.439 37.6316 617.475 Q35.4094 615.478 35.4094 612.257 Q35.4094 610.132 36.601 608.779 Q37.7926 607.394 39.4351 607.394 Q40.8844 607.394 41.6251 608.296 Q42.3336 609.166 42.3336 610.228 Q42.3336 611.42 41.5929 612.257 Q40.82 613.063 39.4995 613.063 Q38.6944 613.063 38.0825 612.708 Q37.4384 612.322 37.2129 612.032 Q36.9875 611.742 36.9231 611.549 Q36.8587 611.678 36.8587 612.257 Q36.8587 615.897 40.4979 617.99 Q44.105 620.051 49.2579 620.051 L59.4028 620.051 Q61.3029 620.051 61.9148 619.278 Q62.5267 618.473 62.5267 615.027 L62.5267 613.642 L64.5557 613.642 Q64.3625 616.283 64.3625 622.016 Q64.3625 622.821 64.3947 624.077 Q64.4269 625.333 64.4913 626.975 Q64.5557 628.618 64.5557 629.552 Z" fill="#000000" fill-rule="nonzero" fill-opacity="1" /><path clip-path="url(#clip250)" d="M64.5557 602.671 L62.5267 602.671 Q62.5267 599.161 62.108 598.356 Q61.6572 597.518 59.5316 597.518 L41.8506 597.518 Q39.4029 597.518 38.791 598.388 Q38.1791 599.225 38.1791 602.671 L36.1179 602.671 L35.4094 593.492 L42.6557 593.492 Q39.8216 592.558 37.6316 590.594 Q35.4094 588.597 35.4094 585.377 Q35.4094 583.251 36.601 581.898 Q37.7926 580.513 39.4351 580.513 Q40.8844 580.513 41.6251 581.415 Q42.3336 582.285 42.3336 583.348 Q42.3336 584.539 41.5929 585.377 Q40.82 586.182 39.4995 586.182 Q38.6944 586.182 38.0825 585.827 Q37.4384 585.441 37.2129 585.151 Q36.9875 584.861 36.9231 584.668 Q36.8587 584.797 36.8587 585.377 Q36.8587 589.016 40.4979 591.109 Q44.105 593.17 49.2579 593.17 L59.4028 593.17 Q61.3029 593.17 61.9148 592.397 Q62.5267 591.592 62.5267 588.146 L62.5267 586.761 L64.5557 586.761 Q64.3625 589.402 64.3625 595.135 Q64.3625 595.94 64.3947 597.196 Q64.4269 598.452 64.4913 600.095 Q64.5557 601.737 64.5557 602.671 Z" fill="#000000" fill-rule="nonzero" fill-opacity="1" /><path clip-path="url(#clip250)" d="M69.773 568.437 Q67.6475 568.437 65.8117 566.826 Q63.976 565.184 63.1708 562.35 Q61.3351 565.248 57.3094 565.248 Q54.2176 565.248 51.8344 563.219 Q49.2579 566.311 45.0389 566.311 Q41.142 566.311 38.2757 563.219 Q35.4094 560.127 35.4094 555.619 Q35.4094 551.657 37.7926 548.63 Q34.7009 545.474 34.6687 541.641 Q34.6687 539.934 35.7314 539.129 Q36.7942 538.292 37.9214 538.292 Q38.9198 538.292 39.4029 538.936 Q39.886 539.548 39.886 540.192 Q39.886 540.997 39.3707 541.577 Q38.8232 542.124 37.9859 542.124 Q36.601 542.124 36.1823 541.062 Q36.1179 541.255 36.1179 541.706 Q36.1179 544.926 38.6944 547.664 Q41.2064 544.959 45.1034 544.959 Q49.0003 544.959 51.8666 548.05 Q54.7329 551.142 54.7329 555.619 Q54.7329 559.322 52.6717 562.156 Q53.9922 563.284 55.7957 563.284 Q57.4382 563.284 58.7264 562.285 Q60.0147 561.287 60.2079 559.773 Q60.2723 559.322 60.2723 554.846 Q60.2723 552.205 60.3367 550.756 Q60.4011 549.306 60.852 547.245 Q61.2707 545.152 62.108 543.509 Q64.4913 539.226 69.6442 539.194 Q73.4123 539.194 75.7633 543.541 Q78.1466 547.857 78.1466 553.847 Q78.1466 559.902 75.7311 564.185 Q73.3479 568.437 69.773 568.437 M69.773 564.991 Q72.4783 564.991 74.5395 561.802 Q76.6329 558.614 76.6329 553.783 Q76.6329 549.049 74.5717 545.86 Q72.5427 542.64 69.773 542.64 Q67.8085 542.64 66.5525 543.767 Q65.2964 544.894 64.7811 547.213 Q64.298 549.5 64.2014 551.11 Q64.1048 552.72 64.1048 555.683 L64.1048 559.58 Q64.2336 561.834 65.8761 563.412 Q67.5186 564.991 69.773 564.991 M45.1034 561.384 Q53.2192 561.384 53.2192 555.619 Q53.2192 552.72 50.5784 550.949 Q48.807 549.886 45.0389 549.886 Q36.9231 549.886 36.9231 555.619 Q36.9231 558.517 39.5639 560.321 Q41.3353 561.384 45.1034 561.384 Z" fill="#000000" fill-rule="nonzero" fill-opacity="1" /><path clip-path="url(#clip250)" d="M31.8882 501.073 Q32.1588 500.803 32.542 500.803 Q32.9253 500.803 33.1958 501.073 Q33.4663 501.344 33.4663 501.727 L33.4663 530.629 Q33.4663 531.012 33.1958 531.282 Q32.9253 531.553 32.542 531.553 Q32.1588 531.553 31.8882 531.282 Q31.6177 531.012 31.6177 530.629 L31.6177 501.727 Q31.6177 501.344 31.8882 501.073 Z" fill="#000000" fill-rule="nonzero" fill-opacity="1" /><path clip-path="url(#clip250)" d="M17.7305 495.983 L16.2877 495.983 Q16.2877 490.437 13.3344 487.574 Q13.3344 486.785 13.5148 486.65 Q13.6951 486.514 14.5293 486.514 L40.4325 486.514 Q41.8076 486.514 42.236 485.838 Q42.6643 485.162 42.6643 482.208 L42.6643 480.743 L44.0846 480.743 Q43.9493 482.366 43.9493 488.228 Q43.9493 494.089 44.0846 495.69 L42.6643 495.69 L42.6643 494.224 Q42.6643 491.316 42.2585 490.617 Q41.8302 489.918 40.4325 489.918 L16.5132 489.918 Q17.7305 492.331 17.7305 495.983 Z" fill="#000000" fill-rule="nonzero" fill-opacity="1" /><path clip-path="url(#clip250)" d="M76.6938 459.038 L76.6938 453.577 L14.6569 453.577 L14.6569 459.038 L13.1647 459.038 L13.1647 449.228 L78.186 449.228 L78.186 459.038 L76.6938 459.038 Z" fill="#000000" fill-rule="nonzero" fill-opacity="1" /><polyline clip-path="url(#clip251)" style="stroke:#009af9; stroke-linecap:round; stroke-linejoin:round; stroke-width:4; stroke-opacity:1; fill:none" points="264.437,1383.27 264.815,1376.44 265.231,1370.73 265.685,1365.9 266.177,1361.73 266.702,1350.31 267.26,1347.5 267.855,1345 268.484,1335.78 269.146,1334.05 269.842,1325.86 270.57,1324.67 271.331,1317.26 272.121,1310.2 272.939,1303.44 273.79,1303.15 274.674,1296.87 275.587,1290.81 276.533,1290.88 277.512,1285.17 278.519,1279.63 279.559,1279.93 280.633,1274.64 281.739,1275 282.884,1275.31 284.061,1270.33 285.272,1270.68 286.52,1270.98 287.802,1266.25 289.116,1266.58 290.469,1266.87 291.882,1267.19 293.282,1262.63 294.739,1262.9 296.254,1258.6 297.751,1258.8 299.338,1259.11 300.906,1254.79 302.532,1255.03 304.22,1250.93 305.885,1251.1 307.645,1251.39 309.41,1247.3 311.177,1247.44 313.048,1251.85 314.936,1255.97 316.866,1255.99 318.834,1255.98 320.844,1259.76 322.902,1263.36 325.002,1263.21 327.145,1266.54 329.306,1262.95 331.463,1262.92 333.614,1259.27 335.761,1259.23 337.903,1255.51 340.041,1255.47 342.173,1251.69 344.301,1251.65 346.429,1251.61 348.553,1247.76 350.671,1247.72 352.79,1247.68 354.903,1243.76 357.012,1243.72 359.121,1243.68 361.23,1243.64 363.335,1239.65 365.434,1239.61 367.529,1235.55 369.615,1231.41 371.695,1231.37 373.776,1231.33 375.857,1231.29 377.933,1227.08 380.004,1227.04 382.075,1227 384.141,1222.71 386.203,1222.67 388.265,1222.63 390.322,1218.27 392.374,1218.23 394.427,1218.19 396.479,1218.15 398.531,1218.1 400.579,1213.66 402.622,1213.62 404.664,1213.58 406.703,1209.05 408.736,1209.01 410.769,1208.97 412.798,1204.37 414.822,1204.32 416.846,1204.28 418.87,1204.24 420.889,1199.55 422.903,1199.51 424.918,1199.47 426.928,1194.69 428.933,1194.65 430.938,1194.61 432.943,1194.57 434.943,1189.71 436.939,1189.67 438.934,1189.62 440.93,1189.58 442.925,1189.54 444.916,1184.59 446.935,1184.55 448.888,1184.5 450.903,1179.46 452.846,1179.42 454.823,1179.38 456.832,1179.34 458.772,1174.21 460.771,1174.16 462.739,1174.12 464.668,1168.9 466.659,1168.85 468.616,1168.81 470.574,1168.76 472.532,1168.72 474.485,1163.4 476.433,1163.36 478.381,1163.31 480.33,1163.27 482.273,1157.85 484.212,1157.81 486.151,1157.77 488.09,1157.72 490.028,1157.68 491.963,1152.16 493.892,1152.12 495.821,1152.08 497.751,1152.03 499.68,1151.99 501.609,1151.94 503.539,1151.9 505.463,1146.28 507.383,1146.24 509.303,1146.19 511.223,1146.15 513.138,1140.43 515.049,1140.38 516.959,1140.34 518.869,1140.29 520.775,1134.47 522.676,1134.42 524.577,1134.38 526.478,1134.33 528.379,1134.29 530.28,1134.25 532.176,1128.31 534.068,1128.27 535.959,1128.22 537.851,1128.18 539.742,1128.13 541.629,1122.09 543.511,1122.05 545.393,1122 547.275,1121.96 549.157,1121.91 551.039,1121.86 552.922,1121.82 554.799,1115.67 556.671,1115.62 558.544,1115.57 560.417,1115.53 562.289,1115.48 564.162,1115.44 566.03,1109.17 567.893,1109.13 569.756,1109.08 571.619,1109.03 573.482,1108.99 575.341,1102.61 577.194,1102.56 579.048,1102.51 580.902,1102.47 582.756,1102.42 584.604,1095.92 586.479,1095.87 588.293,1095.83 590.137,1095.78 592.012,1095.73 593.826,1095.69 595.701,1095.64 597.545,1095.6 599.384,1088.97 601.224,1095.5 603.063,1088.88 604.898,1088.83 606.733,1088.79 608.568,1088.74 610.402,1088.69 612.232,1081.95 614.058,1081.9 615.883,1081.86 617.708,1081.81 619.534,1081.76 621.354,1074.89 623.17,1074.85 624.986,1074.8 626.802,1074.75 628.618,1074.7 630.434,1074.66 632.249,1074.61 634.065,1074.56 635.881,1074.52 637.697,1074.47 639.513,1074.42 641.324,1067.42 643.13,1067.37 644.937,1067.33 646.739,1060.2 648.535,1060.15 650.332,1060.1 652.129,1060.06 653.926,1060.01 655.723,1059.96 657.52,1059.91 659.317,1059.87 661.114,1059.82 662.906,1052.56 664.694,1052.51 666.481,1052.46 668.269,1052.41 670.056,1052.36 671.844,1052.32 673.626,1044.92 675.405,1044.87 677.183,1044.82 678.961,1044.78 680.739,1044.73 682.517,1044.68 684.295,1044.63 686.073,1044.58 687.851,1044.53 689.624,1037 691.393,1036.95 693.161,1036.9 694.93,1036.85 696.698,1036.8 698.467,1036.76 700.235,1036.71 702.004,1036.66 703.773,1036.61 705.536,1028.93 707.296,1028.88 709.055,1028.83 710.814,1028.79 712.573,1028.74 714.332,1028.69 716.12,1028.64 717.846,1020.82 719.595,1020.77 721.379,1028.49 723.109,1028.45 724.892,1020.62 726.613,1020.57 728.392,1020.52 730.141,1020.47 731.891,1020.42 733.641,1020.38 735.356,1012.41 737.13,1020.28 738.88,1020.23 740.63,1020.18 742.379,1020.13 744.124,1012.16 745.864,1012.11 747.605,1012.06 749.345,1012.01 751.085,1011.96 752.825,1011.91 754.565,1011.86 756.306,1011.81 758.046,1011.76 759.786,1011.72 761.522,1003.59 763.257,1011.62 764.992,1003.49 766.723,1003.44 768.454,1003.39 770.18,995.117 771.901,995.067 773.623,995.018 775.344,994.968 777.065,994.918 778.786,994.868 780.508,994.819 782.229,994.769 783.95,994.719 785.672,994.669 787.393,994.62 789.114,994.57 790.835,994.52 792.557,994.47 794.278,994.421 795.999,994.371 797.72,994.321 799.437,985.885 801.149,985.835 802.865,994.172 804.587,994.123 806.303,985.684 808.02,994.023 809.736,985.584 811.448,985.534 813.16,985.484 814.872,985.434 816.579,976.837 818.286,985.334 819.998,985.284 821.71,985.234 823.417,976.635 825.119,976.585 826.822,976.534 828.524,976.484 830.226,976.434 831.929,976.383 833.631,976.333 835.333,976.283 837.036,976.232 838.733,967.47 840.454,967.419 842.119,967.369 843.812,967.319 845.505,967.268 847.198,967.218 848.919,967.166 850.584,967.117 852.277,967.066 853.998,967.015 855.662,966.965 857.384,966.914 859.048,966.864 860.769,966.812 862.462,966.762 864.127,966.712 865.848,966.661 867.541,966.61 869.234,966.559 870.922,957.626 872.606,957.575 874.289,957.524 875.972,957.473 877.656,957.423 879.339,957.372 881.023,957.321 882.706,957.27 884.39,957.219 886.073,957.168 887.757,957.118 889.44,957.067 891.124,957.016 892.807,956.965 894.49,956.914 896.174,956.863 897.857,956.812 899.541,956.761 901.22,947.653 902.894,947.602 904.568,947.551 906.242,947.5 907.916,947.449 909.59,947.398 911.264,947.347 912.938,947.296 914.612,947.245 916.286,947.193 917.96,947.142 919.633,947.091 921.307,947.04 922.977,937.757 924.641,937.705 926.306,937.654 927.975,946.836 929.649,946.785 931.323,946.734 932.992,937.448 934.657,937.396 936.321,937.345 937.986,937.293 939.651,937.242 941.315,937.191 942.98,937.139 944.644,937.088 946.309,937.036 947.973,936.985 949.638,936.934 951.302,936.882 952.967,936.831 954.631,936.779 956.296,936.728 957.96,936.676 959.625,936.625 961.289,936.574 962.982,936.521 964.619,936.471 966.283,936.419 967.943,926.95 969.603,936.317 971.29,926.845 972.922,936.214 974.615,936.162 976.274,926.689 977.902,926.639 979.589,936.008 981.249,926.534 982.909,935.905 984.569,926.43 986.196,926.38 987.879,926.327 989.534,926.275 991.189,926.224 992.844,926.172 994.499,926.12 996.154,926.068 997.809,926.017 999.465,925.965 1001.12,925.913 1002.77,925.861 1004.43,925.81 1006.08,916.152 1007.73,916.1 1009.37,916.048 1011.02,915.996 1012.66,915.944 1014.31,915.892 1015.95,915.84 1017.6,915.788 1019.24,905.947 1020.88,915.685 1022.53,915.633 1024.17,915.581 1025.82,915.529 1027.46,915.477 1029.11,915.425 1030.75,915.373 1032.4,915.321 1034.05,915.269 1035.69,915.217 1037.33,905.37 1038.97,915.113 1040.61,905.265 1042.25,905.213 1043.89,905.16 1045.53,914.906 1047.17,905.056 1048.8,905.003 1050.44,904.951 1052.08,904.899 1053.71,904.847 1055.35,904.794 1056.99,904.742 1058.62,904.69 1060.26,904.637 1061.89,904.585 1063.53,904.533 1065.17,904.48 1066.8,904.428 1068.44,904.376 1070.07,904.324 1071.71,904.271 1073.35,904.219 1074.98,904.167 1076.62,904.114 1078.26,904.062 1079.89,904.01 1081.53,903.957 1083.19,903.904 1084.8,903.853 1086.46,903.799 1088.07,903.748 1089.71,903.695 1091.35,903.643 1092.98,893.595 1094.64,903.538 1096.24,893.49 1097.89,893.436 1099.52,893.384 1101.12,893.332 1102.77,893.278 1104.4,893.226 1106.03,893.173 1107.65,893.121 1109.28,893.068 1110.91,893.015 1112.53,892.963 1114.16,892.91 1115.79,892.857 1117.41,882.614 1119.03,892.753 1120.65,882.508 1122.27,882.455 1123.89,882.402 1125.5,882.35 1127.12,882.297 1128.74,882.244 1130.36,882.191 1131.97,882.138 1133.59,882.085 1135.21,882.032 1136.83,881.979 1138.44,881.927 1140.06,881.874 1141.68,881.821 1143.29,881.768 1144.91,881.715 1146.53,881.662 1148.15,881.609 1149.76,881.556 1151.38,881.503 1153,881.451 1154.62,881.398 1156.23,870.95 1157.84,870.897 1159.44,870.844 1161.06,881.187 1162.67,870.737 1164.28,870.684 1165.88,870.631 1167.49,870.578 1169.1,870.525 1170.71,870.472 1172.32,870.418 1173.92,870.365 1175.53,870.312 1177.14,870.259 1178.75,870.206 1180.35,870.153 1181.96,870.099 1183.57,870.046 1185.18,869.993 1186.79,869.94 1188.39,869.887 1190,869.833 1191.61,869.78 1193.22,869.727 1194.82,869.674 1196.43,869.621 1198.04,869.567 1199.65,869.514 1201.26,869.461 1202.86,869.408 1204.47,869.355 1206.11,869.3 1207.69,869.248 1209.29,869.195 1210.93,869.141 1212.51,869.088 1214.14,869.034 1215.75,868.981 1217.33,868.929 1218.97,868.874 1220.55,868.822 1222.18,868.768 1223.79,868.715 1225.4,868.661 1227.01,868.608 1228.61,868.555 1230.22,868.501 1231.83,868.448 1233.44,868.395 1235.04,857.726 1236.64,857.673 1238.24,857.619 1239.84,857.566 1241.44,868.13 1243.04,857.458 1244.64,857.405 1246.24,857.351 1247.84,857.298 1249.44,857.244 1251.03,857.191 1252.63,857.137 1254.23,857.084 1255.83,857.03 1257.43,856.976 1259.03,856.923 1260.62,856.869 1262.22,856.816 1263.82,856.762 1265.42,856.709 1267.02,856.655 1268.62,856.601 1270.21,856.548 1271.81,856.494 1273.41,856.441 1275.01,856.387 1276.6,845.505 1278.19,845.451 1279.78,845.397 1281.37,845.343 1282.96,845.29 1284.55,845.236 1286.14,845.182 1287.72,845.128 1289.31,845.074 1290.9,845.02 1292.49,844.967 1294.08,844.913 1295.67,844.859 1297.26,844.805 1298.85,844.751 1300.44,844.697 1302.02,844.644 1303.61,844.59 1305.21,855.374 1306.8,844.482 1308.39,844.428 1309.98,844.374 1311.57,844.32 1313.16,844.266 1314.74,844.212 1316.33,844.158 1317.92,844.105 1319.51,844.051 1321.13,843.996 1322.69,843.943 1324.27,832.84 1325.88,832.785 1327.44,843.782 1329.03,843.728 1330.64,843.673 1332.2,843.62 1333.82,843.565 1335.38,843.512 1336.99,832.405 1338.57,832.35 1340.13,843.351 1341.74,832.242 1343.32,832.188 1344.9,832.134 1346.48,832.079 1348.06,832.025 1349.64,831.971 1351.22,831.917 1352.8,831.863 1354.37,831.809 1355.95,831.754 1357.53,831.7 1359.11,831.646 1360.69,831.592 1362.27,831.538 1363.85,831.484 1365.43,831.429 1367.01,831.375 1368.59,831.321 1370.17,831.267 1371.75,831.213 1373.33,831.158 1374.91,831.104 1376.49,831.05 1378.07,830.996 1379.65,830.942 1381.23,830.887 1382.8,830.833 1384.38,830.779 1385.96,830.725 1387.54,830.67 1389.12,830.616 1390.7,830.562 1392.28,830.508 1393.86,830.453 1395.44,830.399 1397.02,830.345 1398.6,830.291 1400.18,830.236 1401.76,830.182 1403.34,830.128 1404.92,830.073 1406.5,830.019 1408.07,818.68 1409.65,829.911 1411.22,829.857 1412.8,829.802 1414.38,818.461 1415.95,818.406 1417.52,818.352 1419.09,818.297 1420.66,818.243 1422.23,829.478 1423.81,818.133 1425.38,818.079 1426.95,829.316 1428.53,817.97 1430.1,817.915 1431.67,817.861 1433.24,817.806 1434.83,817.751 1436.38,817.697 1437.95,817.642 1439.52,817.588 1441.09,817.533 1442.68,817.478 1444.23,817.424 1445.8,817.37 1447.39,817.314 1448.94,817.26 1450.53,817.205 1452.1,817.15 1453.65,817.097 1455.24,817.041 1456.81,816.987 1458.38,816.932 1459.95,816.877 1461.52,816.823 1463.09,816.768 1464.66,816.714 1466.23,816.659 1467.8,816.604 1469.37,816.55 1470.94,816.495 1472.51,816.441 1474.08,816.386 1475.65,816.331 1477.22,816.277 1478.79,816.222 1480.36,816.167 1481.93,816.113 1483.5,816.058 1485.07,816.003 1486.64,815.949 1488.21,815.894 1489.78,815.839 1491.35,815.785 1492.92,815.73 1494.49,815.675 1496.06,815.621 1497.63,815.566 1499.2,815.511 1500.77,815.457 1502.34,815.402 1503.91,815.347 1505.48,803.761 1507.04,815.238 1508.61,803.651 1510.17,815.129 1511.74,803.541 1513.3,803.486 1514.86,803.431 1516.42,803.376 1517.98,803.322 1519.54,803.267 1521.1,803.212 1522.66,803.157 1524.22,803.102 1525.78,803.047 1527.34,802.992 1528.9,802.937 1530.46,802.882 1532.02,802.827 1533.58,802.772 1535.15,802.717 1536.71,802.662 1538.27,802.607 1539.83,802.552 1541.39,802.497 1542.95,802.442 1544.51,802.387 1546.07,802.332 1547.63,802.277 1549.19,802.222 1550.75,802.167 1552.31,802.112 1553.87,802.057 1555.46,802.002 1556.99,801.947 1558.55,801.892 1560.14,801.836 1561.67,801.782 1563.26,789.958 1564.79,801.673 1566.35,801.618 1567.93,801.562 1569.47,801.508 1571.05,801.452 1572.61,801.397 1574.17,801.342 1575.73,801.286 1577.3,801.231 1578.86,801.176 1580.42,801.121 1581.98,801.066 1583.54,801.011 1585.1,800.956 1586.65,789.124 1588.21,800.846 1589.77,800.791 1591.33,800.736 1592.89,800.681 1594.45,800.626 1596.01,800.571 1597.57,788.735 1599.12,788.68 1600.67,788.625 1602.22,788.569 1603.77,788.514 1605.32,788.459 1606.87,788.403 1608.43,788.348 1609.98,800.077 1611.54,800.022 1613.1,788.182 1614.65,788.126 1616.2,788.071 1617.75,788.016 1619.3,787.96 1620.85,787.905 1622.4,787.85 1623.95,787.794 1625.51,787.739 1627.06,787.683 1628.6,775.614 1630.14,775.558 1631.69,775.503 1633.22,763.203 1634.76,763.147 1636.28,750.613 1637.8,724.88 1639.29,698.149 1640.77,684.367 1642.24,656.057 1643.69,641.458 1645.13,611.459 1646.54,580.269 1647.95,564.182 1649.34,547.776 1650.73,547.717 1652.12,530.984 1653.5,513.917 1654.86,496.509 1656.21,442.27 1657.54,423.413 1658.86,423.354 1660.18,404.112 1661.49,384.476 1662.8,384.417 1664.1,364.377 1665.39,364.317 1666.71,343.863 1667.97,343.804 1669.26,343.745 1670.56,322.866 1671.81,322.807 1673.09,301.495 1674.38,301.434 1675.62,301.375 1676.91,301.314 1678.18,301.254 1679.44,279.495 1680.7,279.435 1681.95,257.22 1683.2,257.159 1684.45,257.099 1685.7,257.039 1686.94,234.355 1688.18,234.294 1689.42,234.234 1690.66,234.174 1691.89,211.009 1693.12,210.948 1694.35,210.888 1695.58,210.827 1696.8,187.169 1698.02,187.109 1699.24,187.048 1700.46,186.988 1701.68,186.927 1702.9,186.866 1704.12,186.806 1705.34,186.745 1706.56,162.579 1707.77,162.519 1708.98,162.458 1710.19,162.397 1711.4,137.712 1712.6,137.652 1713.79,112.436 1714.99,112.375 1716.18,112.314 1717.37,112.253 1718.56,112.192 1719.75,112.132 1720.94,86.3683 1722.12,86.3074 1723.3,86.2465 1724.49,86.1857 "/>
<polyline clip-path="url(#clip251)" style="stroke:#e26f46; stroke-linecap:round; stroke-linejoin:round; stroke-width:4; stroke-opacity:1; fill:none" points="264.437,1383.85 265.307,1380.76 266.21,1373.62 267.141,1366.78 268.106,1364.5 269.109,1362.37 270.144,1356.27 271.208,1350.36 272.305,1348.76 273.44,1347.24 274.608,1341.85 275.809,1340.56 277.048,1339.31 278.325,1338.12 279.64,1336.98 280.992,1335.88 282.382,1334.82 283.81,1333.79 285.276,1332.79 286.78,1331.83 288.348,1330.93 289.897,1326.66 291.509,1329.09 293.187,1325.04 294.843,1324.2 296.594,1323.45 298.324,1322.64 300.121,1321.88 301.986,1321.17 303.824,1317.36 305.761,1319.71 307.706,1316.03 309.655,1318.26 311.713,1317.61 313.78,1319.74 315.89,1319.04 318.042,1321.06 320.242,1323 322.484,1322.27 324.769,1324.1 327.096,1323.34 329.442,1323.31 331.787,1323.27 334.128,1320.7 336.459,1318.08 338.786,1318.05 341.112,1318.01 343.439,1317.98 345.765,1317.94 348.087,1315.28 350.404,1315.24 352.717,1312.53 355.029,1315.17 357.341,1312.46 359.649,1312.42 361.957,1312.39 364.26,1309.62 366.558,1309.59 368.851,1306.77 371.14,1306.74 373.429,1306.7 375.718,1306.67 378.006,1306.63 380.29,1303.77 382.57,1303.73 384.849,1303.7 387.123,1300.78 389.393,1300.74 391.663,1300.71 393.928,1297.74 396.189,1297.7 398.449,1297.67 400.705,1294.64 402.955,1294.61 405.206,1294.57 407.457,1294.54 409.708,1294.5 411.954,1291.42 414.196,1291.38 416.437,1291.35 418.679,1291.31 420.92,1291.28 423.157,1288.14 425.389,1288.1 427.621,1288.07 429.853,1288.03 432.08,1284.84 434.303,1284.8 436.525,1284.77 438.748,1284.73 440.966,1281.48 443.179,1281.44 445.392,1281.41 447.605,1281.37 449.813,1278.06 452.017,1278.02 454.22,1277.99 456.424,1277.95 458.664,1277.91 460.831,1277.88 463.072,1277.84 465.234,1274.47 467.428,1274.43 469.654,1271 471.802,1270.96 474.023,1270.93 476.208,1270.89 478.356,1270.85 480.573,1267.36 482.748,1267.32 484.923,1267.28 487.098,1267.25 489.274,1267.21 491.444,1263.65 493.61,1263.61 495.776,1263.58 497.942,1263.54 500.107,1263.5 502.273,1263.46 504.434,1259.84 506.595,1263.38 508.756,1259.76 510.913,1259.73 513.069,1259.69 515.221,1256 517.367,1255.96 519.514,1255.92 521.661,1255.89 523.808,1255.85 525.955,1255.81 528.102,1255.77 530.244,1252.02 532.381,1251.98 534.519,1251.94 536.651,1248.12 538.779,1248.08 540.907,1248.04 543.035,1248 545.163,1247.96 547.291,1247.92 549.419,1247.88 551.542,1243.99 553.661,1243.95 555.779,1243.91 557.898,1243.87 560.012,1239.91 562.121,1239.87 564.23,1239.83 566.339,1239.79 568.448,1239.75 570.557,1239.71 572.661,1235.68 574.766,1239.63 576.87,1235.6 578.969,1235.56 581.069,1235.52 583.169,1235.48 585.268,1235.44 587.363,1231.33 589.453,1231.29 591.543,1231.25 593.633,1231.21 595.724,1231.17 597.814,1231.13 599.899,1226.95 601.98,1226.91 604.06,1226.86 606.141,1226.82 608.217,1222.57 610.288,1222.53 612.36,1222.48 614.465,1222.44 616.502,1222.4 618.573,1222.36 620.679,1222.32 622.716,1222.28 624.817,1217.94 626.878,1217.9 628.94,1217.86 631.002,1217.82 633.064,1217.78 635.125,1217.74 637.182,1213.32 639.235,1213.28 641.287,1213.24 643.339,1213.2 645.392,1213.16 647.444,1213.12 649.496,1213.07 651.548,1213.03 653.596,1208.54 655.639,1208.49 657.682,1208.45 659.725,1208.41 661.763,1203.83 663.796,1203.79 665.829,1203.75 667.863,1203.71 669.896,1203.67 671.93,1203.62 673.963,1203.58 675.996,1203.54 678.03,1203.5 680.058,1198.83 682.082,1198.79 684.106,1198.75 686.13,1198.71 688.149,1193.96 690.164,1193.92 692.178,1193.88 694.193,1193.83 696.207,1193.79 698.222,1193.75 700.231,1188.92 702.241,1193.66 704.251,1188.83 706.256,1188.79 708.261,1188.74 710.266,1188.7 712.271,1188.66 714.276,1188.62 716.281,1188.57 718.286,1188.53 720.286,1183.61 722.282,1183.56 724.277,1183.52 726.273,1183.48 728.268,1183.44 730.264,1183.39 732.26,1183.35 734.255,1183.31 736.246,1178.29 738.232,1178.25 740.218,1178.21 742.204,1178.16 744.19,1178.12 746.176,1178.08 748.163,1178.03 750.144,1172.93 752.121,1172.88 754.097,1172.84 756.074,1172.8 758.05,1172.75 760.06,1172.71 762.004,1172.67 763.976,1167.47 765.98,1172.58 767.919,1167.38 769.919,1167.33 771.854,1167.29 773.854,1167.25 775.821,1167.2 777.788,1167.16 779.755,1167.11 781.69,1167.07 783.685,1161.77 785.643,1161.73 787.6,1161.69 789.558,1161.64 791.516,1161.6 793.473,1161.55 795.431,1161.51 797.389,1161.46 799.347,1161.42 801.3,1156.03 803.253,1161.33 805.206,1155.94 807.154,1155.89 809.102,1155.85 811.05,1155.8 812.999,1155.76 814.947,1155.72 816.895,1155.67 818.839,1150.18 820.778,1150.13 822.716,1150.09 824.655,1150.04 826.594,1150 828.533,1149.95 830.472,1149.91 832.41,1149.86 834.349,1149.82 836.288,1149.77 838.227,1149.73 840.166,1149.69 842.104,1149.64 844.039,1144.04 845.968,1144 847.897,1143.95 849.827,1143.91 851.756,1143.86 853.685,1143.82 855.615,1143.77 857.539,1138.07 859.464,1143.68 861.393,1143.64 863.318,1137.94 865.238,1137.89 867.158,1137.85 869.078,1137.8 870.997,1137.75 872.917,1137.71 874.837,1137.66 876.757,1137.62 878.677,1137.57 880.597,1137.53 882.512,1131.72 884.422,1131.67 886.333,1131.63 888.243,1131.58 890.154,1131.54 892.064,1131.49 893.975,1131.45 895.885,1131.4 897.791,1125.49 899.723,1125.44 901.593,1125.39 903.494,1125.35 905.395,1125.3 907.296,1125.26 909.228,1125.21 911.098,1125.17 912.999,1125.12 914.931,1125.07 916.796,1119.05 918.724,1124.98 920.593,1124.94 922.526,1124.89 924.427,1124.84 926.296,1124.8 928.224,1118.77 930.115,1118.72 932.007,1118.68 933.898,1118.63 935.79,1118.59 937.681,1118.54 939.568,1112.4 941.455,1118.45 943.342,1112.31 945.224,1112.26 947.106,1112.22 948.988,1112.17 950.87,1112.12 952.757,1118.17 954.644,1112.03 956.526,1111.98 958.408,1111.94 960.285,1105.68 962.162,1111.85 964.04,1105.59 965.912,1105.54 967.785,1105.5 969.658,1105.45 971.53,1105.4 973.403,1105.36 975.275,1105.31 977.148,1105.26 979.021,1105.22 980.893,1105.17 982.766,1105.12 984.638,1105.08 986.511,1105.03 988.384,1104.98 990.256,1104.94 992.124,1098.56 993.987,1098.52 995.85,1098.47 997.714,1098.42 999.577,1098.38 1001.44,1098.33 1003.3,1098.28 1005.17,1098.24 1007.03,1098.19 1008.89,1091.7 1010.75,1098.1 1012.61,1098.05 1014.47,1098 1016.34,1097.95 1018.19,1091.46 1020.05,1091.41 1021.9,1091.37 1023.76,1091.32 1025.61,1091.27 1027.46,1091.22 1029.32,1091.18 1031.17,1091.13 1033.02,1091.08 1034.88,1091.04 1036.76,1090.99 1038.58,1090.94 1040.44,1090.89 1042.29,1090.85 1044.14,1084.23 1046.02,1084.18 1047.83,1090.71 1049.72,1090.66 1051.57,1084.04 1053.38,1083.99 1055.26,1083.94 1057.1,1083.9 1058.94,1083.85 1060.79,1083.8 1062.6,1083.75 1064.48,1083.71 1066.32,1083.66 1068.17,1083.61 1070.01,1076.87 1071.84,1076.82 1073.67,1076.77 1075.51,1083.42 1077.35,1076.68 1079.19,1076.63 1081.02,1076.58 1082.86,1076.53 1084.69,1076.49 1086.53,1076.44 1088.36,1076.39 1090.2,1076.34 1092.03,1076.29 1093.87,1076.25 1095.7,1076.2 1097.54,1076.15 1099.37,1076.1 1101.21,1076.06 1103.04,1076.01 1104.88,1075.96 1106.71,1075.91 1108.54,1069.04 1110.37,1068.99 1112.19,1068.94 1114.02,1068.89 1115.84,1068.85 1117.67,1068.8 1119.49,1068.75 1121.32,1068.7 1123.14,1068.65 1124.97,1068.61 1126.79,1061.6 1128.61,1068.51 1130.43,1061.51 1132.25,1068.41 1134.07,1061.41 1135.89,1061.36 1137.7,1061.31 1139.52,1061.27 1141.33,1061.22 1143.15,1061.17 1144.97,1061.12 1146.78,1061.07 1148.6,1061.02 1150.41,1060.98 1152.23,1060.93 1154.05,1060.88 1155.86,1060.83 1157.68,1060.78 1159.49,1060.73 1161.31,1060.68 1163.12,1060.64 1164.94,1060.59 1166.76,1060.54 1168.57,1060.49 1170.42,1060.44 1172.2,1060.39 1174.05,1060.34 1175.84,1060.3 1177.65,1060.25 1179.46,1053.11 1181.27,1053.06 1183.11,1053.01 1184.88,1052.96 1186.72,1052.91 1188.52,1052.86 1190.3,1052.81 1192.13,1045.54 1193.93,1045.49 1195.73,1045.44 1197.52,1045.39 1199.32,1045.34 1201.12,1052.52 1202.92,1045.25 1204.72,1045.2 1206.52,1045.15 1208.31,1045.1 1210.11,1045.05 1211.91,1045 1213.71,1044.95 1215.5,1044.9 1217.3,1044.85 1219.1,1044.81 1220.89,1044.76 1222.69,1044.71 1224.48,1037.29 1226.27,1044.61 1228.07,1037.2 1229.85,1037.15 1231.64,1037.1 1233.43,1037.05 1235.22,1037 1237,1036.95 1238.79,1036.9 1240.58,1036.85 1242.37,1036.8 1244.15,1036.75 1245.94,1029.2 1247.72,1036.65 1249.51,1036.6 1251.29,1036.56 1253.08,1036.51 1254.87,1036.46 1256.66,1036.41 1258.44,1036.36 1260.23,1036.31 1262.01,1028.75 1263.79,1028.7 1265.57,1028.65 1267.35,1028.6 1269.13,1028.55 1270.91,1028.5 1272.68,1028.45 1274.46,1028.4 1276.24,1028.36 1278.02,1028.31 1279.8,1028.26 1281.57,1028.21 1283.35,1028.16 1285.13,1028.11 1286.91,1028.06 1288.69,1028.01 1290.46,1027.96 1292.24,1027.91 1294.02,1027.86 1295.8,1027.81 1297.58,1027.76 1299.35,1027.71 1301.13,1027.66 1302.91,1027.61 1304.69,1027.56 1306.49,1019.85 1308.23,1019.81 1310,1019.76 1311.8,1019.7 1313.54,1019.66 1315.33,1019.61 1317.1,1019.56 1318.84,1019.51 1320.64,1019.46 1322.37,1011.61 1324.17,1019.36 1325.94,1019.31 1327.7,1019.26 1329.47,1019.21 1331.24,1019.16 1333.01,1019.11 1334.78,1019.06 1336.55,1019.01 1338.31,1011.15 1340.07,1011.1 1341.83,1011.05 1343.59,1011 1345.35,1010.95 1347.11,1010.9 1348.87,1010.85 1350.62,1010.8 1352.38,1010.75 1354.14,1010.7 1355.9,1010.65 1357.66,1010.6 1359.42,1010.55 1361.18,1010.5 1362.94,1010.45 1364.7,1010.4 1366.46,1010.35 1368.22,1010.3 1369.97,1010.25 1371.73,1010.2 1373.49,1010.15 1375.25,1010.1 1377.01,1010.05 1378.77,1010 1380.53,1009.95 1382.29,1009.9 1384.05,1009.85 1385.81,1009.8 1387.57,1009.75 1389.32,1009.7 1391.08,1009.65 1392.84,1009.6 1394.6,1009.54 1396.36,1009.49 1398.12,1009.44 1399.88,1009.39 1401.63,1001.38 1403.38,1001.33 1405.13,1001.28 1406.88,1001.23 1408.63,1001.18 1410.38,1001.13 1412.13,1001.08 1413.88,1001.03 1415.63,1000.98 1417.38,1000.92 1419.13,1000.87 1420.88,1000.82 1422.63,1000.77 1424.38,1000.72 1426.13,1000.67 1427.88,1000.62 1429.63,1000.57 1431.38,1000.52 1433.16,1000.47 1434.88,1000.42 1436.63,1000.37 1438.41,1000.32 1440.13,1000.27 1441.87,992.097 1443.65,1000.17 1445.37,1000.12 1447.14,991.943 1448.86,1000.01 1450.63,999.963 1452.38,991.79 1454.09,991.74 1455.86,991.688 1457.6,991.637 1459.34,991.586 1461.08,991.535 1462.82,991.484 1464.56,991.433 1466.3,991.383 1468.04,991.332 1469.78,991.281 1471.52,991.23 1473.26,991.179 1475,991.128 1476.74,991.077 1478.48,991.026 1480.22,990.975 1481.96,990.924 1483.7,990.873 1485.44,990.822 1487.18,990.771 1488.92,990.72 1490.66,990.669 1492.4,990.618 1494.14,990.567 1495.88,982.234 1497.62,990.466 1499.35,982.131 1501.09,990.364 1502.82,982.028 1504.55,981.977 1506.28,981.926 1508.01,981.875 1509.74,981.823 1511.48,981.772 1513.21,981.721 1514.94,981.67 1516.67,981.618 1518.4,981.567 1520.13,981.516 1521.86,981.465 1523.59,981.413 1525.32,981.362 1527.05,981.311 1528.78,981.26 1530.51,981.208 1532.24,981.157 1533.97,981.106 1535.7,972.609 1537.42,972.558 1539.15,980.952 1540.87,972.454 1542.6,972.403 1544.32,972.351 1546.04,980.748 1547.77,972.248 1549.49,972.197 1551.21,972.145 1552.93,972.093 1554.65,972.042 1556.38,971.99 1558.13,971.938 1559.82,971.887 1561.54,971.836 1563.26,971.784 1564.98,971.732 1566.73,971.68 1568.42,971.629 1570.15,971.578 1571.9,971.525 1573.59,971.475 1575.34,971.422 1577.06,971.37 1578.75,971.32 1580.5,971.267 1582.22,971.216 1583.94,962.551 1585.66,971.113 1587.37,962.447 1589.08,962.395 1590.8,970.958 1592.52,970.907 1594.24,962.239 1595.95,962.187 1597.66,962.135 1599.37,962.083 1601.09,970.649 1602.81,961.979 1604.52,961.927 1606.23,961.875 1607.94,961.824 1609.65,961.772 1611.37,961.72 1613.08,961.668 1614.79,961.616 1616.5,961.564 1618.21,961.512 1619.93,961.46 1621.64,961.408 1623.35,961.356 1625.06,961.304 1626.77,961.252 1628.48,961.201 1630.2,961.149 1631.91,961.097 1633.62,961.045 1635.33,960.993 1637.04,960.941 1638.75,952.102 1640.45,952.05 1642.16,960.785 1643.87,951.946 1645.57,951.893 1647.27,951.841 1648.97,951.789 1650.68,951.737 1652.38,951.685 1654.08,951.632 1655.78,951.58 1657.49,951.528 1659.19,951.476 1660.89,951.423 1662.59,951.371 1664.3,951.319 1666,951.267 1667.7,951.214 1669.4,951.162 1671.11,951.11 1672.81,951.058 1674.51,951.005 1676.21,950.953 1677.92,950.901 1679.62,950.849 1681.32,950.796 1683.02,950.744 1684.72,950.692 1686.43,950.639 1688.13,950.587 1689.86,950.534 1691.53,950.483 "/>
<polyline clip-path="url(#clip251)" style="stroke:#3da44d; stroke-linecap:round; stroke-linejoin:round; stroke-width:4; stroke-opacity:1; fill:none" points="264.437,1382.15 264.952,1384.24 265.505,1372.66 266.092,1368.74 266.711,1358.77 267.364,1355.91 268.049,1347.13 268.768,1345.01 269.52,1337.15 270.3,1329.67 271.109,1322.54 271.946,1315.71 272.811,1309.16 273.71,1308.66 274.641,1302.55 275.606,1302.24 276.604,1296.5 277.63,1290.92 278.684,1285.49 279.772,1285.58 280.893,1280.4 282.042,1275.32 283.224,1275.58 284.444,1275.8 285.697,1270.99 286.979,1266.26 288.293,1266.59 289.641,1261.99 291.045,1262.43 292.436,1257.86 293.883,1258.22 295.388,1253.91 296.877,1254.19 298.449,1249.97 300.003,1250.25 301.615,1246.02 303.289,1246.46 304.94,1242.2 306.68,1242.64 308.431,1242.95 310.189,1243.16 312.04,1239.16 313.9,1243.69 315.806,1247.99 317.76,1252.08 319.756,1252.11 321.79,1252.11 323.867,1255.87 325.991,1259.4 328.133,1255.69 330.271,1255.65 332.403,1251.87 334.531,1251.83 336.659,1251.79 338.787,1251.75 340.915,1251.71 343.038,1247.86 345.157,1247.82 347.271,1243.9 349.38,1243.86 351.489,1243.82 353.593,1239.83 355.697,1243.75 357.802,1239.75 359.901,1239.72 361.996,1235.65 364.086,1235.61 366.176,1235.57 368.262,1231.44 370.342,1231.4 372.423,1231.36 374.504,1231.32 376.584,1231.28 378.66,1227.07 380.732,1227.03 382.803,1226.99 384.869,1222.7 386.931,1222.66 388.988,1218.29 391.045,1222.58 393.102,1218.21 395.154,1218.17 397.207,1218.13 399.259,1218.09 401.311,1218.05 403.359,1213.6 405.397,1209.08 407.435,1213.52 409.478,1213.48 411.516,1208.96 413.549,1208.92 415.583,1208.87 417.616,1208.83 419.65,1208.79 421.678,1204.18 423.697,1199.49 425.717,1204.1 427.736,1199.41 429.75,1199.37 431.765,1199.33 433.779,1199.28 435.794,1199.24 437.808,1199.2 439.818,1194.42 441.823,1194.38 443.828,1194.34 445.866,1194.3 447.838,1194.26 449.876,1194.21 451.843,1189.35 453.839,1189.31 455.868,1189.26 457.83,1189.22 459.859,1189.18 461.85,1184.23 463.803,1184.18 465.822,1184.14 467.803,1179.1 469.78,1179.05 471.756,1179.01 473.728,1173.88 475.696,1173.83 477.667,1178.88 479.644,1178.84 481.616,1173.7 483.583,1173.66 485.55,1173.62 487.518,1173.58 489.485,1173.53 491.452,1173.49 493.419,1173.45 495.381,1168.21 497.339,1168.17 499.297,1168.13 501.255,1168.08 503.212,1168.04 505.165,1162.71 507.118,1167.95 509.071,1162.63 511.02,1162.58 512.963,1157.16 514.902,1157.12 516.841,1157.07 518.78,1157.03 520.718,1156.98 522.657,1156.94 524.591,1151.42 526.521,1151.37 528.45,1151.33 530.379,1151.28 532.309,1151.24 534.238,1151.2 536.167,1151.15 538.097,1151.11 540.021,1145.48 541.941,1145.44 543.861,1145.39 545.781,1145.35 547.701,1145.3 549.616,1139.58 551.527,1139.53 553.437,1139.49 555.347,1139.44 557.258,1139.4 559.168,1139.35 561.079,1139.31 562.989,1139.26 564.895,1133.43 566.801,1139.17 568.711,1139.13 570.617,1133.29 572.518,1133.25 574.419,1133.2 576.315,1127.26 578.206,1127.21 580.098,1127.17 581.989,1127.12 583.881,1127.08 585.772,1127.03 587.691,1120.98 589.541,1120.94 591.423,1120.89 593.337,1120.84 595.188,1120.8 597.101,1120.75 598.983,1120.71 600.865,1120.66 602.742,1114.5 604.62,1120.57 606.497,1114.4 608.37,1114.36 610.242,1114.31 612.115,1114.27 613.988,1114.22 615.86,1114.18 617.733,1114.13 619.601,1107.85 621.464,1107.8 623.327,1107.76 625.19,1107.71 627.049,1101.32 628.902,1101.27 630.761,1107.57 632.619,1101.18 634.473,1101.13 636.326,1101.09 638.18,1101.04 640.034,1100.99 641.887,1100.95 643.741,1100.9 645.595,1100.85 647.449,1100.81 649.298,1094.29 651.142,1094.24 652.986,1094.2 654.83,1094.15 656.67,1087.52 658.504,1087.47 660.339,1087.42 662.174,1087.38 664.009,1087.33 665.844,1087.28 667.678,1087.23 669.513,1087.19 671.348,1087.14 673.183,1087.09 675.013,1080.33 676.838,1080.29 678.663,1080.24 680.489,1080.19 682.314,1080.15 684.139,1080.1 685.96,1073.21 687.776,1073.17 689.592,1073.12 691.407,1073.07 693.223,1073.02 695.039,1072.98 696.855,1072.93 698.671,1072.88 700.487,1072.83 702.303,1072.79 704.118,1072.74 705.934,1072.69 707.75,1072.64 709.566,1072.6 711.382,1072.55 713.198,1072.5 715.014,1072.46 716.829,1072.41 718.641,1065.39 720.477,1065.34 722.253,1065.29 724.06,1065.25 725.896,1065.2 727.673,1065.15 729.509,1065.1 731.281,1057.95 733.103,1050.67 734.895,1057.86 736.692,1057.81 738.489,1057.76 740.256,1057.71 742.078,1050.43 743.866,1050.38 745.653,1050.33 747.441,1050.29 749.223,1042.87 751.001,1042.82 752.779,1042.77 754.557,1042.72 756.335,1042.67 758.113,1042.63 759.891,1042.58 761.669,1042.53 763.447,1042.48 765.226,1042.43 767.004,1042.38 768.782,1042.34 770.56,1042.29 772.338,1042.24 774.116,1042.19 775.894,1042.14 777.672,1042.09 779.45,1042.05 781.228,1042 783.001,1034.44 784.77,1034.39 786.538,1034.34 788.307,1034.29 790.075,1034.24 791.839,1026.54 793.598,1026.49 795.362,1034.1 797.131,1034.05 798.895,1026.34 800.654,1026.29 802.413,1026.24 804.172,1026.2 805.931,1026.15 807.69,1026.1 809.449,1026.05 811.208,1026 812.967,1025.95 814.727,1025.9 816.481,1018.05 818.226,1010.06 819.971,1017.95 821.72,1017.91 823.47,1017.86 825.22,1017.81 826.969,1017.76 828.719,1017.71 830.464,1009.71 832.204,1009.66 833.944,1009.61 835.685,1009.56 837.425,1009.51 839.165,1009.46 840.9,1001.32 842.636,1009.37 844.376,1009.32 846.112,1001.17 847.871,1001.12 849.573,1001.07 851.304,1001.02 853.039,1009.07 854.78,1009.02 856.549,1008.97 858.251,992.568 859.977,1000.77 861.736,1000.72 863.438,1000.67 865.198,1000.62 866.9,1000.57 868.664,1008.63 870.399,1000.47 872.101,1000.42 873.856,992.115 875.577,992.065 877.299,992.015 879.02,991.965 880.741,991.915 882.463,991.865 884.184,991.816 885.905,991.766 887.626,991.716 889.348,991.666 891.069,991.616 892.79,991.566 894.512,991.516 896.233,991.466 897.954,991.416 899.675,991.366 901.397,991.316 903.118,991.265 904.839,991.215 906.56,991.165 908.277,982.697 909.989,982.647 911.705,991.016 913.422,982.546 915.134,982.496 916.846,982.446 918.553,973.819 920.26,982.346 921.972,982.295 923.679,973.667 925.381,973.617 927.083,973.566 928.786,973.516 930.488,973.465 932.195,981.995 933.902,973.364 935.61,981.895 937.321,981.844 939.033,981.794 940.745,981.744 942.457,981.693 944.169,981.643 945.88,981.593 947.592,981.542 949.304,981.492 951.016,981.442 952.723,972.805 954.425,972.754 956.128,972.704 957.83,972.653 959.533,972.603 961.235,972.552 962.937,972.501 964.64,972.451 966.342,972.4 968.044,972.35 969.747,972.299 971.449,972.248 973.18,972.197 974.854,972.147 976.556,972.096 978.254,963.293 979.947,963.242 981.668,963.191 983.333,963.141 985.054,963.089 986.747,963.038 988.411,962.988 990.137,971.692 991.835,962.885 993.528,962.834 995.221,962.783 996.885,962.733 998.606,962.682 1000.3,962.631 1001.99,962.58 1003.69,962.529 1005.38,962.478 1007.07,962.427 1008.76,962.376 1010.46,962.325 1012.15,953.35 1013.83,953.299 1015.51,953.247 1017.2,953.196 1018.88,962.072 1020.57,953.094 1022.26,953.043 1023.94,952.991 1025.62,952.94 1027.31,961.818 1029,952.838 1030.68,952.786 1032.37,952.735 1034.05,952.684 1035.73,952.633 1037.42,952.582 1039.09,943.432 1040.77,943.381 1042.44,943.329 1044.12,943.278 1045.79,943.226 1047.46,943.175 1049.14,943.124 1050.81,943.072 1052.49,943.021 1054.17,952.072 1055.84,942.918 1057.52,942.866 1059.19,942.815 1060.87,942.763 1062.54,942.712 1064.22,951.766 1065.9,942.609 1067.57,942.557 1069.25,942.506 1070.92,942.454 1072.59,942.403 1074.27,942.351 1075.94,942.3 1077.62,942.248 1079.29,942.197 1080.96,942.145 1082.64,942.094 1084.31,942.042 1085.99,941.991 1087.66,941.939 1089.33,941.888 1091.01,941.836 1092.68,941.784 1094.35,932.449 1096.04,932.396 1097.68,932.346 1099.37,932.293 1101.01,932.242 1102.67,932.19 1104.34,932.138 1106,922.627 1107.68,922.574 1109.31,922.523 1110.99,922.47 1112.65,931.88 1114.28,922.366 1115.96,922.314 1117.62,922.262 1119.28,922.21 1120.93,922.158 1122.59,922.105 1124.25,931.519 1125.91,931.467 1127.57,931.415 1129.23,921.896 1130.89,921.844 1132.54,921.792 1134.2,921.74 1135.85,921.688 1137.51,921.636 1139.16,911.938 1140.81,911.885 1142.45,911.833 1144.1,921.429 1145.75,911.728 1147.4,911.676 1149.05,921.273 1150.7,911.571 1152.34,911.519 1153.99,911.467 1155.63,911.414 1157.28,911.362 1158.93,911.31 1160.57,911.257 1162.21,901.372 1163.85,901.319 1165.49,911.101 1167.14,911.049 1168.78,910.996 1170.43,910.944 1172.07,910.892 1173.72,910.839 1175.36,910.787 1177.01,910.735 1178.65,910.682 1180.3,910.63 1181.95,910.578 1183.59,900.685 1185.22,900.632 1186.86,900.58 1188.5,900.527 1190.14,910.317 1191.78,900.422 1193.41,900.369 1195.05,900.317 1196.69,900.264 1198.32,900.211 1199.95,890.13 1201.58,900.106 1203.22,900.054 1204.86,900.001 1206.49,899.949 1208.13,899.896 1209.77,899.843 1211.4,899.791 1213.04,899.738 1214.67,899.685 1216.31,899.633 1217.95,899.58 1219.58,899.527 1221.25,899.474 1222.85,889.386 1224.48,899.37 1226.14,889.279 1227.74,889.227 1229.39,889.173 1231.02,889.12 1232.62,889.068 1234.27,889.014 1235.87,878.734 1237.52,888.909 1239.14,888.856 1240.77,888.803 1242.4,888.75 1244.02,888.697 1245.66,898.688 1247.29,898.635 1248.93,898.582 1250.56,898.53 1252.2,898.477 1253.84,898.424 1255.47,888.325 1257.09,888.272 1258.72,888.219 1260.35,888.166 1261.98,898.162 1263.62,898.109 1265.25,888.007 1266.87,887.954 1268.5,887.901 1270.13,887.848 1271.75,887.795 1273.38,887.742 1275.01,887.689 1276.63,887.636 1278.26,887.583 1279.89,887.53 1281.51,887.477 1283.14,887.424 1284.77,887.371 1286.39,887.318 1288.02,887.265 1289.65,887.212 1291.27,887.159 1292.9,887.106 1294.53,887.053 1296.15,876.752 1297.77,886.947 1299.4,886.894 1301.03,886.841 1302.65,886.788 1304.28,886.735 1305.91,886.682 1307.53,886.629 1309.16,886.575 1310.79,886.522 1312.41,886.469 1314.04,886.416 1315.66,876.11 1317.28,886.31 1318.91,886.257 1320.53,875.949 1322.15,875.896 1323.77,875.843 1325.38,875.789 1327,875.736 1328.62,875.683 1330.24,875.629 1331.86,885.835 1333.48,885.781 1335.11,875.469 1336.73,885.676 1338.38,875.361 1339.97,875.309 1341.58,875.255 1343.23,875.201 1344.82,875.149 1346.44,875.095 1348.08,875.041 1349.67,874.988 1351.31,874.934 1352.91,874.882 1354.55,874.827 1356.17,874.774 1357.76,874.722 1359.4,864.208 1361,864.155 1362.61,864.101 1364.22,864.047 1365.83,863.994 1367.44,863.94 1369.04,863.887 1370.65,863.833 1372.26,863.779 1373.87,863.726 1375.47,863.672 1377.08,863.618 1378.69,863.565 1380.3,863.511 1381.91,863.458 1383.51,863.404 1385.12,863.35 1386.73,863.297 1388.34,863.243 1389.95,873.658 1391.56,863.135 1393.17,863.082 1394.78,863.028 1396.38,862.974 1397.99,862.921 1399.6,862.867 1401.21,862.813 1402.82,873.233 1404.43,862.706 1406.04,862.652 1407.65,862.598 1409.25,851.873 1410.86,862.491 1412.46,862.437 1414.07,862.384 1415.68,862.33 1417.28,851.602 1418.88,851.548 1420.48,851.494 1422.08,851.441 1423.67,851.387 1425.28,862.009 1426.88,851.278 1428.48,861.902 1430.09,851.17 1431.69,861.795 1433.3,861.741 1434.91,861.687 1436.51,850.953 1438.11,861.58 1439.71,850.845 1441.31,850.791 1442.92,861.42 1444.52,861.366 1446.13,861.312 1447.74,861.258 1449.34,850.52 1450.94,850.466 1452.54,850.412 1454.17,861.043 1455.75,850.304 1457.34,850.25 1458.94,850.196 1460.54,850.142 1462.17,850.087 1463.74,850.034 1465.34,849.98 1466.96,839.034 1468.52,849.872 1470.15,849.817 1471.75,849.763 1473.32,849.71 1474.94,849.655 1476.54,849.601 1478.14,849.547 1479.74,849.493 1481.34,849.439 1482.93,849.385 1484.53,849.33 1486.14,859.973 1487.74,849.222 1489.34,849.168 1490.94,849.114 1492.53,849.06 1494.13,849.006 1495.73,848.952 1497.32,837.997 1498.91,837.943 1500.5,837.888 1502.09,837.834 1503.68,848.682 1505.28,837.725 1506.87,837.671 1508.46,837.617 1510.04,837.562 1511.63,837.508 1513.22,837.454 1514.81,837.399 1516.4,837.345 1517.99,837.291 1519.58,848.144 1521.18,837.182 1522.77,837.127 1524.35,837.073 1525.94,837.018 1527.53,836.964 1529.12,836.91 1530.71,836.855 1532.3,836.801 1533.89,836.747 1535.48,836.692 1537.06,836.638 1538.65,836.583 1540.24,836.529 1541.83,836.475 1543.42,836.42 1545.01,836.366 1546.6,836.311 1548.19,836.257 1549.78,836.203 1551.36,836.148 1552.95,836.094 1554.54,824.915 1556.12,835.985 1557.71,835.931 1559.3,824.751 1560.88,835.822 1562.47,835.768 1564.06,835.713 1565.65,835.659 1567.23,835.604 1568.82,835.55 1570.41,835.496 1572,835.441 1573.59,824.256 1575.16,824.202 1576.78,835.277 1578.33,824.092 1579.91,824.037 1581.52,823.982 1583.07,823.928 1584.68,823.872 1586.23,823.819 1587.81,823.764 1589.42,823.708 1590.97,823.654 1592.57,823.599 1594.15,823.544 1595.73,823.489 1597.31,823.435 1598.89,823.38 1600.48,834.464 1602.06,834.41 1603.65,834.355 1605.24,823.16 1606.82,834.247 1608.41,834.192 1610,822.995 1611.57,822.94 1613.16,834.029 1614.75,833.974 1616.33,822.775 1617.91,822.721 1619.49,822.666 1621.07,822.611 1622.65,822.556 1624.23,822.502 1625.81,822.447 1627.39,822.392 1628.97,822.337 1630.54,810.924 1632.12,822.228 1633.7,822.173 1635.28,822.118 1636.85,822.064 1638.43,822.009 1640.01,821.954 1641.59,821.899 1643.17,810.481 1644.74,821.79 1646.32,821.735 1647.9,810.316 1649.47,821.626 1651.05,810.205 1652.62,821.516 1654.2,821.461 1655.77,810.04 1657.34,809.984 1658.91,809.929 1660.48,809.874 1662.06,821.188 1663.63,809.764 1665.2,809.709 1666.77,809.654 1668.34,809.599 1669.91,809.544 1671.48,809.489 1673.05,809.433 1674.62,809.378 1676.19,809.323 1677.76,809.268 1679.33,809.213 1680.9,809.158 1682.47,809.103 1684.04,797.457 1685.6,808.993 1687.17,808.938 1688.74,797.291 1690.3,797.235 1691.86,797.18 1693.45,797.124 1694.98,797.069 1696.54,797.014 1698.13,796.958 1699.66,796.903 1701.22,796.848 1702.81,796.792 1704.34,796.737 1705.93,796.681 1707.49,796.626 1709.05,796.57 1710.61,796.515 1712.17,796.46 1713.73,796.404 1715.29,796.349 1716.85,784.473 1718.41,796.238 1719.97,796.183 1721.52,784.305 1723.08,796.073 1724.63,784.194 1726.18,784.138 1727.74,784.083 1729.29,784.027 1730.84,783.972 1732.39,783.916 1733.94,783.86 1735.49,783.805 1737.04,771.698 1738.58,783.694 1740.13,783.638 1741.69,783.583 1743.24,783.527 1744.79,783.472 1746.33,771.362 1747.88,771.306 1749.42,783.305 1750.97,771.194 1752.51,771.138 1754.06,783.139 1755.61,783.083 1757.15,770.97 1758.7,782.972 1760.25,782.917 1761.8,770.802 1763.34,770.746 1764.88,770.69 1766.42,770.634 1767.96,770.578 1769.5,770.522 1771.05,770.466 1772.59,770.411 1774.13,770.355 1775.67,770.299 1777.21,770.243 1778.75,770.187 1780.3,770.131 1781.84,770.075 1783.38,770.019 1784.92,769.963 1786.46,757.611 1787.99,769.852 1789.54,769.796 1791.08,769.74 1792.62,769.684 1794.16,769.628 1795.7,769.572 1797.24,757.216 1798.77,757.16 1800.3,744.569 1801.82,744.513 1803.34,744.456 1804.89,744.399 1806.39,744.344 1807.91,744.287 1809.46,744.23 1810.96,744.175 1812.48,744.118 1814.02,731.282 1815.54,744.005 1817.04,743.95 1818.58,731.112 1820.09,731.056 1821.61,730.999 1823.12,730.943 1824.63,730.886 1826.15,743.612 1827.65,743.557 1829.19,717.688 1830.69,717.631 1832.2,717.574 1833.7,717.518 1835.21,730.491 1836.72,717.404 1838.22,717.347 1839.73,730.322 1841.24,730.265 1842.76,730.209 1844.27,730.152 1845.78,730.096 1847.29,730.039 1848.81,729.983 1850.32,729.926 1851.83,729.869 1853.35,729.813 1854.86,729.756 1856.37,716.662 1857.87,716.605 "/>
<polyline clip-path="url(#clip251)" style="stroke:#c271d2; stroke-linecap:round; stroke-linejoin:round; stroke-width:4; stroke-opacity:1; fill:none" points="264.437,1320.42 284.916,1308.76 305.396,1297.31 325.876,1286.08 346.356,1275.06 366.835,1264.24 387.315,1253.61 407.795,1243.17 428.275,1232.92 448.754,1222.85 469.234,1212.96 489.714,1203.23 510.193,1193.68 530.673,1184.28 551.153,1175.05 571.633,1165.97 592.112,1157.04 612.592,1148.25 633.072,1139.61 653.552,1131.11 674.031,1122.75 694.511,1114.52 714.991,1106.42 735.471,1098.45 755.95,1090.6 776.43,1082.87 796.91,1075.26 817.39,1067.77 837.869,1060.39 858.349,1053.12 878.829,1045.96 899.309,1038.9 919.788,1031.95 940.268,1025.1 960.748,1018.34 981.228,1011.69 1001.71,1005.12 1022.19,998.656 1042.67,992.278 1063.15,985.989 1083.63,979.787 1104.11,973.671 1124.59,967.637 1145.07,961.686 1165.55,955.814 1186.02,950.022 1206.5,944.306 1226.98,938.665 1247.46,933.099 1267.94,927.605 1288.42,922.182 1308.9,916.829 1329.38,911.544 1349.86,906.327 1370.34,901.175 1390.82,896.087 1411.3,891.064 1431.78,886.102 1452.26,881.201 1472.74,876.361 1493.22,871.579 1513.7,866.855 1534.18,862.187 1554.66,857.576 1575.14,853.019 1595.62,848.516 1616.1,844.066 1636.58,839.667 1657.06,835.32 1677.54,831.022 1698.02,826.774 1718.5,822.575 1738.98,818.422 1759.46,814.317 1779.94,810.258 1800.42,806.244 1820.9,802.274 1841.38,798.348 1861.86,794.465 1882.34,790.625 1902.82,786.826 1923.3,783.068 1943.78,779.35 1964.26,775.672 1984.73,772.033 2005.21,768.432 2025.69,764.869 2046.17,761.343 2066.65,757.854 2087.13,754.401 2107.61,750.984 2128.09,747.601 2148.57,744.253 2169.05,740.939 2189.53,737.658 2210.01,734.41 2230.49,731.195 2250.97,728.011 2271.45,724.859 2291.93,721.738 "/>
<path clip-path="url(#clip250)" d="M1698.27 352.309 L2281.12 352.309 L2281.12 93.1086 L1698.27 93.1086  Z" fill="#ffffff" fill-rule="evenodd" fill-opacity="1"/>
<polyline clip-path="url(#clip250)" style="stroke:#000000; stroke-linecap:round; stroke-linejoin:round; stroke-width:4; stroke-opacity:1; fill:none" points="1698.27,352.309 2281.12,352.309 2281.12,93.1086 1698.27,93.1086 1698.27,352.309 "/>
<polyline clip-path="url(#clip250)" style="stroke:#009af9; stroke-linecap:round; stroke-linejoin:round; stroke-width:4; stroke-opacity:1; fill:none" points="1722.15,144.949 1865.43,144.949 "/>
<path clip-path="url(#clip250)" d="M1889.31 127.669 L1918.54 127.669 L1918.54 131.604 L1906.28 131.604 L1906.28 162.229 L1901.58 162.229 L1901.58 131.604 L1889.31 131.604 L1889.31 127.669 Z" fill="#000000" fill-rule="nonzero" fill-opacity="1" /><path clip-path="url(#clip250)" d="M1924.28 158.293 L1931.92 158.293 L1931.92 131.928 L1923.61 133.595 L1923.61 129.335 L1931.88 127.669 L1936.55 127.669 L1936.55 158.293 L1944.19 158.293 L1944.19 162.229 L1924.28 162.229 L1924.28 158.293 Z" fill="#000000" fill-rule="nonzero" fill-opacity="1" /><polyline clip-path="url(#clip250)" style="stroke:#e26f46; stroke-linecap:round; stroke-linejoin:round; stroke-width:4; stroke-opacity:1; fill:none" points="1722.15,196.789 1865.43,196.789 "/>
<path clip-path="url(#clip250)" d="M1889.31 179.509 L1918.54 179.509 L1918.54 183.444 L1906.28 183.444 L1906.28 214.069 L1901.58 214.069 L1901.58 183.444 L1889.31 183.444 L1889.31 179.509 Z" fill="#000000" fill-rule="nonzero" fill-opacity="1" /><path clip-path="url(#clip250)" d="M1927.5 210.133 L1943.82 210.133 L1943.82 214.069 L1921.88 214.069 L1921.88 210.133 Q1924.54 207.379 1929.12 202.749 Q1933.73 198.096 1934.91 196.754 Q1937.15 194.231 1938.03 192.495 Q1938.94 190.735 1938.94 189.046 Q1938.94 186.291 1936.99 184.555 Q1935.07 182.819 1931.97 182.819 Q1929.77 182.819 1927.32 183.583 Q1924.89 184.347 1922.11 185.897 L1922.11 181.175 Q1924.93 180.041 1927.39 179.462 Q1929.84 178.884 1931.88 178.884 Q1937.25 178.884 1940.44 181.569 Q1943.64 184.254 1943.64 188.745 Q1943.64 190.874 1942.83 192.796 Q1942.04 194.694 1939.93 197.286 Q1939.35 197.958 1936.25 201.175 Q1933.15 204.37 1927.5 210.133 Z" fill="#000000" fill-rule="nonzero" fill-opacity="1" /><polyline clip-path="url(#clip250)" style="stroke:#3da44d; stroke-linecap:round; stroke-linejoin:round; stroke-width:4; stroke-opacity:1; fill:none" points="1722.15,248.629 1865.43,248.629 "/>
<path clip-path="url(#clip250)" d="M1889.31 231.349 L1918.54 231.349 L1918.54 235.284 L1906.28 235.284 L1906.28 265.909 L1901.58 265.909 L1901.58 235.284 L1889.31 235.284 L1889.31 231.349 Z" fill="#000000" fill-rule="nonzero" fill-opacity="1" /><path clip-path="url(#clip250)" d="M1937.64 247.274 Q1941 247.992 1942.87 250.261 Q1944.77 252.529 1944.77 255.862 Q1944.77 260.978 1941.25 263.779 Q1937.73 266.58 1931.25 266.58 Q1929.08 266.58 1926.76 266.14 Q1924.47 265.723 1922.02 264.867 L1922.02 260.353 Q1923.96 261.487 1926.28 262.066 Q1928.59 262.645 1931.11 262.645 Q1935.51 262.645 1937.8 260.909 Q1940.12 259.173 1940.12 255.862 Q1940.12 252.807 1937.97 251.094 Q1935.84 249.358 1932.02 249.358 L1927.99 249.358 L1927.99 245.515 L1932.2 245.515 Q1935.65 245.515 1937.48 244.149 Q1939.31 242.761 1939.31 240.168 Q1939.31 237.506 1937.41 236.094 Q1935.53 234.659 1932.02 234.659 Q1930.09 234.659 1927.9 235.075 Q1925.7 235.492 1923.06 236.372 L1923.06 232.205 Q1925.72 231.464 1928.03 231.094 Q1930.37 230.724 1932.43 230.724 Q1937.76 230.724 1940.86 233.154 Q1943.96 235.562 1943.96 239.682 Q1943.96 242.552 1942.32 244.543 Q1940.67 246.511 1937.64 247.274 Z" fill="#000000" fill-rule="nonzero" fill-opacity="1" /><polyline clip-path="url(#clip250)" style="stroke:#c271d2; stroke-linecap:round; stroke-linejoin:round; stroke-width:4; stroke-opacity:1; fill:none" points="1722.15,300.469 1865.43,300.469 "/>
<path clip-path="url(#clip250)" d="M1893.98 281.626 L1893.98 308.501 L1899.63 308.501 Q1906.78 308.501 1910.09 305.26 Q1913.43 302.02 1913.43 295.029 Q1913.43 288.084 1910.09 284.867 Q1906.78 281.626 1899.63 281.626 L1893.98 281.626 M1889.31 277.784 L1898.91 277.784 Q1908.96 277.784 1913.66 281.973 Q1918.36 286.14 1918.36 295.029 Q1918.36 303.964 1913.64 308.154 Q1908.91 312.344 1898.91 312.344 L1889.31 312.344 L1889.31 277.784 Z" fill="#000000" fill-rule="nonzero" fill-opacity="1" /><path clip-path="url(#clip250)" d="M1925.63 286.418 L1929.89 286.418 L1929.89 312.344 L1925.63 312.344 L1925.63 286.418 M1925.63 276.325 L1929.89 276.325 L1929.89 281.719 L1925.63 281.719 L1925.63 276.325 Z" fill="#000000" fill-rule="nonzero" fill-opacity="1" /><path clip-path="url(#clip250)" d="M1953.82 290.399 Q1953.1 289.983 1952.25 289.797 Q1951.41 289.589 1950.4 289.589 Q1946.78 289.589 1944.84 291.95 Q1942.92 294.288 1942.92 298.686 L1942.92 312.344 L1938.64 312.344 L1938.64 286.418 L1942.92 286.418 L1942.92 290.446 Q1944.26 288.084 1946.41 286.95 Q1948.57 285.793 1951.65 285.793 Q1952.09 285.793 1952.62 285.862 Q1953.15 285.909 1953.8 286.024 L1953.82 290.399 Z" fill="#000000" fill-rule="nonzero" fill-opacity="1" /><path clip-path="url(#clip250)" d="M1979.42 298.316 L1979.42 300.399 L1959.84 300.399 Q1960.12 304.797 1962.48 307.112 Q1964.86 309.404 1969.1 309.404 Q1971.55 309.404 1973.84 308.802 Q1976.16 308.2 1978.43 306.996 L1978.43 311.024 Q1976.14 311.996 1973.73 312.506 Q1971.32 313.015 1968.84 313.015 Q1962.64 313.015 1959.01 309.404 Q1955.4 305.793 1955.4 299.635 Q1955.4 293.27 1958.82 289.543 Q1962.27 285.793 1968.1 285.793 Q1973.34 285.793 1976.37 289.172 Q1979.42 292.529 1979.42 298.316 M1975.16 297.066 Q1975.12 293.571 1973.2 291.487 Q1971.3 289.404 1968.15 289.404 Q1964.59 289.404 1962.43 291.418 Q1960.3 293.432 1959.98 297.089 L1975.16 297.066 Z" fill="#000000" fill-rule="nonzero" fill-opacity="1" /><path clip-path="url(#clip250)" d="M2005.07 287.413 L2005.07 291.395 Q2003.27 290.399 2001.44 289.913 Q1999.63 289.404 1997.78 289.404 Q1993.64 289.404 1991.34 292.043 Q1989.05 294.659 1989.05 299.404 Q1989.05 304.149 1991.34 306.788 Q1993.64 309.404 1997.78 309.404 Q1999.63 309.404 2001.44 308.918 Q2003.27 308.408 2005.07 307.413 L2005.07 311.348 Q2003.29 312.182 2001.37 312.598 Q1999.47 313.015 1997.32 313.015 Q1991.46 313.015 1988.01 309.334 Q1984.56 305.654 1984.56 299.404 Q1984.56 293.061 1988.03 289.427 Q1991.53 285.793 1997.59 285.793 Q1999.56 285.793 2001.44 286.21 Q2003.31 286.603 2005.07 287.413 Z" fill="#000000" fill-rule="nonzero" fill-opacity="1" /><path clip-path="url(#clip250)" d="M2016.69 279.057 L2016.69 286.418 L2025.46 286.418 L2025.46 289.728 L2016.69 289.728 L2016.69 303.802 Q2016.69 306.973 2017.55 307.876 Q2018.43 308.779 2021.09 308.779 L2025.46 308.779 L2025.46 312.344 L2021.09 312.344 Q2016.16 312.344 2014.28 310.515 Q2012.41 308.663 2012.41 303.802 L2012.41 289.728 L2009.28 289.728 L2009.28 286.418 L2012.41 286.418 L2012.41 279.057 L2016.69 279.057 Z" fill="#000000" fill-rule="nonzero" fill-opacity="1" /><path clip-path="url(#clip250)" d="M2059.26 276.325 L2059.26 279.867 L2055.19 279.867 Q2052.9 279.867 2051.99 280.793 Q2051.11 281.719 2051.11 284.126 L2051.11 286.418 L2058.13 286.418 L2058.13 289.728 L2051.11 289.728 L2051.11 312.344 L2046.83 312.344 L2046.83 289.728 L2042.76 289.728 L2042.76 286.418 L2046.83 286.418 L2046.83 284.612 Q2046.83 280.284 2048.84 278.316 Q2050.86 276.325 2055.23 276.325 L2059.26 276.325 Z" fill="#000000" fill-rule="nonzero" fill-opacity="1" /><path clip-path="url(#clip250)" d="M2062.83 286.418 L2067.08 286.418 L2067.08 312.344 L2062.83 312.344 L2062.83 286.418 M2062.83 276.325 L2067.08 276.325 L2067.08 281.719 L2062.83 281.719 L2062.83 276.325 Z" fill="#000000" fill-rule="nonzero" fill-opacity="1" /><path clip-path="url(#clip250)" d="M2080.21 279.057 L2080.21 286.418 L2088.98 286.418 L2088.98 289.728 L2080.21 289.728 L2080.21 303.802 Q2080.21 306.973 2081.07 307.876 Q2081.95 308.779 2084.61 308.779 L2088.98 308.779 L2088.98 312.344 L2084.61 312.344 Q2079.68 312.344 2077.8 310.515 Q2075.93 308.663 2075.93 303.802 L2075.93 289.728 L2072.8 289.728 L2072.8 286.418 L2075.93 286.418 L2075.93 279.057 L2080.21 279.057 Z" fill="#000000" fill-rule="nonzero" fill-opacity="1" /><path clip-path="url(#clip250)" d="M2113.87 279.057 L2113.87 286.418 L2122.64 286.418 L2122.64 289.728 L2113.87 289.728 L2113.87 303.802 Q2113.87 306.973 2114.72 307.876 Q2115.6 308.779 2118.27 308.779 L2122.64 308.779 L2122.64 312.344 L2118.27 312.344 Q2113.33 312.344 2111.46 310.515 Q2109.58 308.663 2109.58 303.802 L2109.58 289.728 L2106.46 289.728 L2106.46 286.418 L2109.58 286.418 L2109.58 279.057 L2113.87 279.057 Z" fill="#000000" fill-rule="nonzero" fill-opacity="1" /><path clip-path="url(#clip250)" d="M2138.29 289.404 Q2134.86 289.404 2132.87 292.089 Q2130.88 294.751 2130.88 299.404 Q2130.88 304.057 2132.85 306.742 Q2134.84 309.404 2138.29 309.404 Q2141.69 309.404 2143.68 306.719 Q2145.67 304.033 2145.67 299.404 Q2145.67 294.797 2143.68 292.112 Q2141.69 289.404 2138.29 289.404 M2138.29 285.793 Q2143.84 285.793 2147.01 289.404 Q2150.19 293.015 2150.19 299.404 Q2150.19 305.77 2147.01 309.404 Q2143.84 313.015 2138.29 313.015 Q2132.71 313.015 2129.54 309.404 Q2126.39 305.77 2126.39 299.404 Q2126.39 293.015 2129.54 289.404 Q2132.71 285.793 2138.29 285.793 Z" fill="#000000" fill-rule="nonzero" fill-opacity="1" /><path clip-path="url(#clip250)" d="M2200.48 280.395 Q2200.48 280.84 2200.38 281.215 L2199.07 289.554 Q2199 290.186 2198.86 290.42 Q2198.74 290.654 2198.37 290.654 Q2197.78 290.654 2197.78 290.045 Q2197.78 289.694 2197.92 289.132 Q2198.32 286.485 2198.32 285.291 Q2198.32 284.494 2198.16 283.909 Q2198.02 283.3 2197.78 282.878 Q2197.57 282.457 2197.08 282.176 Q2196.59 281.894 2196.12 281.73 Q2195.65 281.567 2194.81 281.496 Q2193.96 281.403 2193.24 281.379 Q2192.51 281.356 2191.32 281.356 Q2188.72 281.356 2188.3 281.449 Q2187.85 281.567 2187.62 281.918 Q2187.41 282.246 2187.17 283.23 L2180.8 308.69 L2180.61 309.697 Q2180.61 310.259 2180.96 310.446 Q2181.32 310.634 2182.39 310.751 Q2183.94 310.868 2185.46 310.868 Q2185.51 310.868 2185.6 310.868 Q2186.12 310.868 2186.33 310.891 Q2186.54 310.891 2186.75 310.938 Q2186.96 310.985 2187.01 311.102 Q2187.08 311.196 2187.08 311.383 Q2187.08 311.828 2186.89 312.063 Q2186.7 312.273 2186.52 312.32 Q2186.35 312.344 2186.02 312.344 Q2185.37 312.344 2183.96 312.297 Q2182.56 312.25 2181.85 312.25 L2177.87 312.203 L2173.8 312.25 Q2173.17 312.25 2171.83 312.297 Q2170.49 312.344 2169.86 312.344 Q2169.04 312.344 2169.04 311.758 Q2169.04 311.102 2169.35 310.985 Q2169.68 310.868 2171.06 310.868 Q2173 310.868 2174.06 310.774 Q2175.11 310.681 2175.67 310.353 Q2176.26 310.025 2176.42 309.697 Q2176.58 309.346 2176.77 308.549 L2183.21 282.948 Q2183.4 282.386 2183.4 281.941 Q2183.4 281.707 2183.33 281.613 Q2183.28 281.52 2182.98 281.449 Q2182.67 281.356 2182.04 281.356 L2180.17 281.356 Q2178.25 281.356 2177.05 281.449 Q2175.88 281.52 2174.76 281.871 Q2173.66 282.222 2173 282.714 Q2172.37 283.206 2171.67 284.213 Q2170.96 285.22 2170.45 286.438 Q2169.96 287.656 2169.25 289.647 Q2169.02 290.303 2168.88 290.49 Q2168.76 290.654 2168.43 290.654 Q2168.2 290.654 2168.01 290.514 Q2167.85 290.35 2167.85 290.139 Q2168.08 289.366 2168.13 289.273 L2171.01 280.817 Q2171.24 280.138 2171.46 280.021 Q2171.69 279.88 2172.56 279.88 L2199.16 279.88 Q2199.59 279.88 2199.73 279.88 Q2199.87 279.88 2200.1 279.927 Q2200.34 279.974 2200.41 280.091 Q2200.48 280.208 2200.48 280.395 Z" fill="#000000" fill-rule="nonzero" fill-opacity="1" /><path clip-path="url(#clip250)" d="M2205.57 300.351 Q2205.57 292.247 2208.59 285.712 Q2209.88 282.972 2211.68 280.676 Q2213.49 278.381 2214.68 277.374 Q2215.88 276.367 2216.21 276.367 Q2216.67 276.367 2216.7 276.835 Q2216.7 277.069 2216.06 277.655 Q2208.34 285.525 2208.36 300.351 Q2208.36 315.225 2215.88 322.79 Q2216.7 323.61 2216.7 323.867 Q2216.7 324.336 2216.21 324.336 Q2215.88 324.336 2214.73 323.376 Q2213.58 322.415 2211.8 320.214 Q2210.02 318.012 2208.73 315.318 Q2205.57 308.783 2205.57 300.351 Z" fill="#000000" fill-rule="nonzero" fill-opacity="1" /><path clip-path="url(#clip250)" d="M2235.07 292.2 Q2235.07 292.856 2234.77 293.02 Q2234.46 293.161 2233.62 293.161 L2229.12 293.161 L2225.56 307.308 Q2225.28 308.549 2225.28 309.603 Q2225.28 310.774 2225.63 311.29 Q2226.01 311.805 2226.78 311.805 Q2228.3 311.805 2229.94 310.423 Q2231.61 309.041 2233.01 305.668 Q2233.2 305.223 2233.29 305.13 Q2233.41 305.012 2233.71 305.012 Q2234.3 305.012 2234.3 305.481 Q2234.3 305.645 2233.97 306.394 Q2233.67 307.144 2232.99 308.245 Q2232.33 309.346 2231.46 310.376 Q2230.62 311.407 2229.33 312.156 Q2228.04 312.882 2226.66 312.882 Q2224.72 312.882 2223.48 311.641 Q2222.26 310.4 2222.26 308.455 Q2222.26 307.823 2222.75 305.809 Q2223.24 303.771 2225.91 293.161 L2221.67 293.161 Q2221.09 293.161 2220.85 293.137 Q2220.64 293.114 2220.48 292.997 Q2220.34 292.856 2220.34 292.575 Q2220.34 292.13 2220.53 291.943 Q2220.71 291.732 2220.95 291.708 Q2221.21 291.662 2221.79 291.662 L2226.29 291.662 L2228.16 284.049 Q2228.35 283.3 2228.82 282.878 Q2229.31 282.433 2229.59 282.386 Q2229.87 282.316 2230.08 282.316 Q2230.72 282.316 2231.09 282.667 Q2231.46 282.995 2231.46 283.604 Q2231.46 283.932 2229.5 291.662 L2233.71 291.662 Q2234.25 291.662 2234.46 291.685 Q2234.7 291.708 2234.88 291.826 Q2235.07 291.943 2235.07 292.2 Z" fill="#000000" fill-rule="nonzero" fill-opacity="1" /><path clip-path="url(#clip250)" d="M2238.82 323.867 Q2238.82 323.633 2239.43 323.048 Q2247.16 315.178 2247.16 300.351 Q2247.16 285.478 2239.74 277.959 Q2238.82 277.093 2238.82 276.835 Q2238.82 276.367 2239.29 276.367 Q2239.62 276.367 2240.77 277.327 Q2241.94 278.287 2243.69 280.489 Q2245.47 282.691 2246.79 285.384 Q2249.95 291.919 2249.95 300.351 Q2249.95 308.455 2246.93 314.99 Q2245.64 317.731 2243.84 320.026 Q2242.03 322.322 2240.84 323.329 Q2239.64 324.336 2239.29 324.336 Q2238.82 324.336 2238.82 323.867 Z" fill="#000000" fill-rule="nonzero" fill-opacity="1" /></svg>
