<?xml version="1.0" encoding="utf-8"?>
<svg xmlns="http://www.w3.org/2000/svg" xmlns:xlink="http://www.w3.org/1999/xlink" width="600" height="400" viewBox="0 0 2400 1600">
<defs>
  <clipPath id="clip000">
    <rect x="0" y="0" width="2400" height="1600"/>
  </clipPath>
</defs>
<path clip-path="url(#clip000)" d="M0 1600 L2400 1600 L2400 0 L0 0  Z" fill="#ffffff" fill-rule="evenodd" fill-opacity="1"/>
<defs>
  <clipPath id="clip001">
    <rect x="255" y="47" width="2098" height="1374"/>
  </clipPath>
</defs>
<path clip-path="url(#clip000)" d="M255.435 1419.75 L2352.76 1419.75 L2352.76 47.2441 L255.435 47.2441  Z" fill="#ffffff" fill-rule="evenodd" fill-opacity="1"/>
<polyline clip-path="url(#clip001)" style="stroke:#000000; stroke-linecap:round; stroke-linejoin:round; stroke-width:2; stroke-opacity:0.1; fill:none" points="301.28,1419.75 301.28,47.2441 "/>
<polyline clip-path="url(#clip001)" style="stroke:#000000; stroke-linecap:round; stroke-linejoin:round; stroke-width:2; stroke-opacity:0.1; fill:none" points="976.941,1419.75 976.941,47.2441 "/>
<polyline clip-path="url(#clip001)" style="stroke:#000000; stroke-linecap:round; stroke-linejoin:round; stroke-width:2; stroke-opacity:0.1; fill:none" points="1652.6,1419.75 1652.6,47.2441 "/>
<polyline clip-path="url(#clip001)" style="stroke:#000000; stroke-linecap:round; stroke-linejoin:round; stroke-width:2; stroke-opacity:0.1; fill:none" points="2328.26,1419.75 2328.26,47.2441 "/>
<polyline clip-path="url(#clip001)" style="stroke:#000000; stroke-linecap:round; stroke-linejoin:round; stroke-width:2; stroke-opacity:0.1; fill:none" points="255.435,1216.24 2352.76,1216.24 "/>
<polyline clip-path="url(#clip001)" style="stroke:#000000; stroke-linecap:round; stroke-linejoin:round; stroke-width:2; stroke-opacity:0.1; fill:none" points="255.435,911.585 2352.76,911.585 "/>
<polyline clip-path="url(#clip001)" style="stroke:#000000; stroke-linecap:round; stroke-linejoin:round; stroke-width:2; stroke-opacity:0.1; fill:none" points="255.435,606.93 2352.76,606.93 "/>
<polyline clip-path="url(#clip001)" style="stroke:#000000; stroke-linecap:round; stroke-linejoin:round; stroke-width:2; stroke-opacity:0.1; fill:none" points="255.435,302.276 2352.76,302.276 "/>
<polyline clip-path="url(#clip000)" style="stroke:#000000; stroke-linecap:round; stroke-linejoin:round; stroke-width:4; stroke-opacity:1; fill:none" points="255.435,1419.75 2352.76,1419.75 "/>
<polyline clip-path="url(#clip000)" style="stroke:#000000; stroke-linecap:round; stroke-linejoin:round; stroke-width:4; stroke-opacity:1; fill:none" points="301.28,1419.75 301.28,1400.85 "/>
<polyline clip-path="url(#clip000)" style="stroke:#000000; stroke-linecap:round; stroke-linejoin:round; stroke-width:4; stroke-opacity:1; fill:none" points="976.941,1419.75 976.941,1400.85 "/>
<polyline clip-path="url(#clip000)" style="stroke:#000000; stroke-linecap:round; stroke-linejoin:round; stroke-width:4; stroke-opacity:1; fill:none" points="1652.6,1419.75 1652.6,1400.85 "/>
<polyline clip-path="url(#clip000)" style="stroke:#000000; stroke-linecap:round; stroke-linejoin:round; stroke-width:4; stroke-opacity:1; fill:none" points="2328.26,1419.75 2328.26,1400.85 "/>
<path clip-path="url(#clip000)" d="M301.28 1450.67 Q297.669 1450.67 295.84 1454.23 Q294.035 1457.77 294.035 1464.9 Q294.035 1472.01 295.84 1475.57 Q297.669 1479.12 301.28 1479.12 Q304.914 1479.12 306.72 1475.57 Q308.548 1472.01 308.548 1464.9 Q308.548 1457.77 306.72 1454.23 Q304.914 1450.67 301.28 1450.67 M301.28 1446.96 Q307.09 1446.96 310.146 1451.57 Q313.224 1456.15 313.224 1464.9 Q313.224 1473.63 310.146 1478.24 Q307.09 1482.82 301.28 1482.82 Q295.47 1482.82 292.391 1478.24 Q289.336 1473.63 289.336 1464.9 Q289.336 1456.15 292.391 1451.57 Q295.47 1446.96 301.28 1446.96 Z" fill="#000000" fill-rule="nonzero" fill-opacity="1" /><path clip-path="url(#clip000)" d="M936.559 1447.59 L954.915 1447.59 L954.915 1451.52 L940.841 1451.52 L940.841 1460 Q941.86 1459.65 942.878 1459.49 Q943.897 1459.3 944.915 1459.3 Q950.702 1459.3 954.082 1462.47 Q957.462 1465.64 957.462 1471.06 Q957.462 1476.64 953.989 1479.74 Q950.517 1482.82 944.198 1482.82 Q942.022 1482.82 939.753 1482.45 Q937.508 1482.08 935.101 1481.34 L935.101 1476.64 Q937.184 1477.77 939.406 1478.33 Q941.628 1478.88 944.105 1478.88 Q948.11 1478.88 950.448 1476.78 Q952.786 1474.67 952.786 1471.06 Q952.786 1467.45 950.448 1465.34 Q948.11 1463.24 944.105 1463.24 Q942.23 1463.24 940.355 1463.65 Q938.503 1464.07 936.559 1464.95 L936.559 1447.59 Z" fill="#000000" fill-rule="nonzero" fill-opacity="1" /><path clip-path="url(#clip000)" d="M976.674 1450.67 Q973.063 1450.67 971.235 1454.23 Q969.429 1457.77 969.429 1464.9 Q969.429 1472.01 971.235 1475.57 Q973.063 1479.12 976.674 1479.12 Q980.309 1479.12 982.114 1475.57 Q983.943 1472.01 983.943 1464.9 Q983.943 1457.77 982.114 1454.23 Q980.309 1450.67 976.674 1450.67 M976.674 1446.96 Q982.485 1446.96 985.54 1451.57 Q988.619 1456.15 988.619 1464.9 Q988.619 1473.63 985.54 1478.24 Q982.485 1482.82 976.674 1482.82 Q970.864 1482.82 967.786 1478.24 Q964.73 1473.63 964.73 1464.9 Q964.73 1456.15 967.786 1451.57 Q970.864 1446.96 976.674 1446.96 Z" fill="#000000" fill-rule="nonzero" fill-opacity="1" /><path clip-path="url(#clip000)" d="M1006.84 1450.67 Q1003.23 1450.67 1001.4 1454.23 Q999.591 1457.77 999.591 1464.9 Q999.591 1472.01 1001.4 1475.57 Q1003.23 1479.12 1006.84 1479.12 Q1010.47 1479.12 1012.28 1475.57 Q1014.1 1472.01 1014.1 1464.9 Q1014.1 1457.77 1012.28 1454.23 Q1010.47 1450.67 1006.84 1450.67 M1006.84 1446.96 Q1012.65 1446.96 1015.7 1451.57 Q1018.78 1456.15 1018.78 1464.9 Q1018.78 1473.63 1015.7 1478.24 Q1012.65 1482.82 1006.84 1482.82 Q1001.03 1482.82 997.947 1478.24 Q994.892 1473.63 994.892 1464.9 Q994.892 1456.15 997.947 1451.57 Q1001.03 1446.96 1006.84 1446.96 Z" fill="#000000" fill-rule="nonzero" fill-opacity="1" /><path clip-path="url(#clip000)" d="M1597.13 1478.21 L1604.77 1478.21 L1604.77 1451.85 L1596.46 1453.51 L1596.46 1449.26 L1604.72 1447.59 L1609.4 1447.59 L1609.4 1478.21 L1617.03 1478.21 L1617.03 1482.15 L1597.13 1482.15 L1597.13 1478.21 Z" fill="#000000" fill-rule="nonzero" fill-opacity="1" /><path clip-path="url(#clip000)" d="M1636.48 1450.67 Q1632.87 1450.67 1631.04 1454.23 Q1629.23 1457.77 1629.23 1464.9 Q1629.23 1472.01 1631.04 1475.57 Q1632.87 1479.12 1636.48 1479.12 Q1640.11 1479.12 1641.92 1475.57 Q1643.75 1472.01 1643.75 1464.9 Q1643.75 1457.77 1641.92 1454.23 Q1640.11 1450.67 1636.48 1450.67 M1636.48 1446.96 Q1642.29 1446.96 1645.34 1451.57 Q1648.42 1456.15 1648.42 1464.9 Q1648.42 1473.63 1645.34 1478.24 Q1642.29 1482.82 1636.48 1482.82 Q1630.67 1482.82 1627.59 1478.24 Q1624.53 1473.63 1624.53 1464.9 Q1624.53 1456.15 1627.59 1451.57 Q1630.67 1446.96 1636.48 1446.96 Z" fill="#000000" fill-rule="nonzero" fill-opacity="1" /><path clip-path="url(#clip000)" d="M1666.64 1450.67 Q1663.03 1450.67 1661.2 1454.23 Q1659.4 1457.77 1659.4 1464.9 Q1659.4 1472.01 1661.2 1475.57 Q1663.03 1479.12 1666.64 1479.12 Q1670.27 1479.12 1672.08 1475.57 Q1673.91 1472.01 1673.91 1464.9 Q1673.91 1457.77 1672.08 1454.23 Q1670.27 1450.67 1666.64 1450.67 M1666.64 1446.96 Q1672.45 1446.96 1675.51 1451.57 Q1678.58 1456.15 1678.58 1464.9 Q1678.58 1473.63 1675.51 1478.24 Q1672.45 1482.82 1666.64 1482.82 Q1660.83 1482.82 1657.75 1478.24 Q1654.7 1473.63 1654.7 1464.9 Q1654.7 1456.15 1657.75 1451.57 Q1660.83 1446.96 1666.64 1446.96 Z" fill="#000000" fill-rule="nonzero" fill-opacity="1" /><path clip-path="url(#clip000)" d="M1696.8 1450.67 Q1693.19 1450.67 1691.36 1454.23 Q1689.56 1457.77 1689.56 1464.9 Q1689.56 1472.01 1691.36 1475.57 Q1693.19 1479.12 1696.8 1479.12 Q1700.44 1479.12 1702.24 1475.57 Q1704.07 1472.01 1704.07 1464.9 Q1704.07 1457.77 1702.24 1454.23 Q1700.44 1450.67 1696.8 1450.67 M1696.8 1446.96 Q1702.61 1446.96 1705.67 1451.57 Q1708.75 1456.15 1708.75 1464.9 Q1708.75 1473.63 1705.67 1478.24 Q1702.61 1482.82 1696.8 1482.82 Q1690.99 1482.82 1687.91 1478.24 Q1684.86 1473.63 1684.86 1464.9 Q1684.86 1456.15 1687.91 1451.57 Q1690.99 1446.96 1696.8 1446.96 Z" fill="#000000" fill-rule="nonzero" fill-opacity="1" /><path clip-path="url(#clip000)" d="M2272.79 1478.21 L2280.43 1478.21 L2280.43 1451.85 L2272.12 1453.51 L2272.12 1449.26 L2280.38 1447.59 L2285.06 1447.59 L2285.06 1478.21 L2292.69 1478.21 L2292.69 1482.15 L2272.79 1482.15 L2272.79 1478.21 Z" fill="#000000" fill-rule="nonzero" fill-opacity="1" /><path clip-path="url(#clip000)" d="M2302.19 1447.59 L2320.54 1447.59 L2320.54 1451.52 L2306.47 1451.52 L2306.47 1460 Q2307.49 1459.65 2308.51 1459.49 Q2309.52 1459.3 2310.54 1459.3 Q2316.33 1459.3 2319.71 1462.47 Q2323.09 1465.64 2323.09 1471.06 Q2323.09 1476.64 2319.62 1479.74 Q2316.14 1482.82 2309.82 1482.82 Q2307.65 1482.82 2305.38 1482.45 Q2303.13 1482.08 2300.73 1481.34 L2300.73 1476.64 Q2302.81 1477.77 2305.03 1478.33 Q2307.26 1478.88 2309.73 1478.88 Q2313.74 1478.88 2316.07 1476.78 Q2318.41 1474.67 2318.41 1471.06 Q2318.41 1467.45 2316.07 1465.34 Q2313.74 1463.24 2309.73 1463.24 Q2307.86 1463.24 2305.98 1463.65 Q2304.13 1464.07 2302.19 1464.95 L2302.19 1447.59 Z" fill="#000000" fill-rule="nonzero" fill-opacity="1" /><path clip-path="url(#clip000)" d="M2342.3 1450.67 Q2338.69 1450.67 2336.86 1454.23 Q2335.06 1457.77 2335.06 1464.9 Q2335.06 1472.01 2336.86 1475.57 Q2338.69 1479.12 2342.3 1479.12 Q2345.94 1479.12 2347.74 1475.57 Q2349.57 1472.01 2349.57 1464.9 Q2349.57 1457.77 2347.74 1454.23 Q2345.94 1450.67 2342.3 1450.67 M2342.3 1446.96 Q2348.11 1446.96 2351.17 1451.57 Q2354.25 1456.15 2354.25 1464.9 Q2354.25 1473.63 2351.17 1478.24 Q2348.11 1482.82 2342.3 1482.82 Q2336.49 1482.82 2333.41 1478.24 Q2330.36 1473.63 2330.36 1464.9 Q2330.36 1456.15 2333.41 1451.57 Q2336.49 1446.96 2342.3 1446.96 Z" fill="#000000" fill-rule="nonzero" fill-opacity="1" /><path clip-path="url(#clip000)" d="M2372.46 1450.67 Q2368.85 1450.67 2367.02 1454.23 Q2365.22 1457.77 2365.22 1464.9 Q2365.22 1472.01 2367.02 1475.57 Q2368.85 1479.12 2372.46 1479.12 Q2376.1 1479.12 2377.9 1475.57 Q2379.73 1472.01 2379.73 1464.9 Q2379.73 1457.77 2377.9 1454.23 Q2376.1 1450.67 2372.46 1450.67 M2372.46 1446.96 Q2378.27 1446.96 2381.33 1451.57 Q2384.41 1456.15 2384.41 1464.9 Q2384.41 1473.63 2381.33 1478.24 Q2378.27 1482.82 2372.46 1482.82 Q2366.65 1482.82 2363.57 1478.24 Q2360.52 1473.63 2360.52 1464.9 Q2360.52 1456.15 2363.57 1451.57 Q2366.65 1446.96 2372.46 1446.96 Z" fill="#000000" fill-rule="nonzero" fill-opacity="1" /><path clip-path="url(#clip000)" d="M1163.76 1525.55 Q1163.76 1530.25 1161.38 1534.79 Q1159.03 1539.33 1155.33 1542.14 Q1151.62 1544.91 1147.85 1544.91 Q1145.6 1544.91 1144.09 1543.68 Q1142.61 1542.43 1141.8 1540.65 Q1141.19 1542.84 1139.87 1548.09 Q1138.55 1553.34 1138.55 1553.86 Q1138.55 1554.15 1138.61 1554.28 Q1138.68 1554.41 1138.97 1554.57 Q1139.26 1554.76 1139.96 1554.82 Q1140.67 1554.92 1141.86 1554.92 Q1142.48 1554.92 1142.7 1554.92 Q1142.96 1554.95 1143.19 1555.11 Q1143.44 1555.28 1143.44 1555.63 Q1143.44 1556.95 1142.25 1556.95 Q1141.19 1556.95 1139 1556.85 Q1136.81 1556.76 1135.71 1556.76 Q1134.78 1556.76 1132.91 1556.85 Q1131.04 1556.95 1130.17 1556.95 Q1129.3 1556.95 1129.3 1556.18 Q1129.3 1555.73 1129.43 1555.44 Q1129.53 1555.18 1129.79 1555.05 Q1130.05 1554.95 1130.27 1554.92 Q1130.46 1554.92 1130.85 1554.92 Q1132.33 1554.92 1132.98 1554.66 Q1133.62 1554.44 1133.85 1553.96 Q1134.1 1553.5 1134.39 1552.22 L1141.8 1522.84 Q1142.25 1520.88 1142.25 1519.49 Q1142.25 1517.76 1141.7 1517.11 Q1141.16 1516.47 1140.19 1516.47 Q1138.52 1516.47 1137.42 1518.46 Q1136.33 1520.46 1135.39 1524.33 Q1135.1 1525.39 1134.91 1525.61 Q1134.75 1525.84 1134.26 1525.84 Q1133.46 1525.81 1133.46 1525.16 Q1133.46 1525 1133.72 1523.97 Q1133.97 1522.91 1134.46 1521.36 Q1134.97 1519.78 1135.52 1518.79 Q1135.84 1518.11 1136.13 1517.66 Q1136.42 1517.21 1137 1516.5 Q1137.61 1515.79 1138.48 1515.4 Q1139.35 1515.02 1140.42 1515.02 Q1142.48 1515.02 1144.18 1516.24 Q1145.89 1517.47 1146.34 1519.95 Q1148.18 1517.79 1150.43 1516.4 Q1152.69 1515.02 1154.97 1515.02 Q1158.77 1515.02 1161.25 1517.98 Q1163.76 1520.91 1163.76 1525.55 M1159 1522.65 Q1159 1519.72 1157.87 1518.11 Q1156.78 1516.47 1154.78 1516.47 Q1152.3 1516.47 1149.43 1518.98 Q1146.6 1521.36 1146.02 1523.59 L1142.77 1536.5 L1142.57 1537.56 Q1142.57 1537.76 1142.67 1538.34 Q1142.8 1538.88 1143.15 1539.78 Q1143.54 1540.69 1144.05 1541.49 Q1144.6 1542.26 1145.57 1542.84 Q1146.57 1543.42 1147.79 1543.42 Q1149.76 1543.42 1151.88 1541.68 Q1154.04 1539.95 1155.65 1536.66 Q1156.65 1534.54 1157.81 1529.96 Q1159 1525.36 1159 1522.65 Z" fill="#000000" fill-rule="nonzero" fill-opacity="1" /><path clip-path="url(#clip000)" d="M1188.26 1570.52 Q1188.44 1570.72 1188.44 1570.92 Q1188.44 1571.12 1187.99 1571.71 Q1187.56 1572.3 1186.63 1573.09 Q1185.71 1573.87 1184.51 1574.62 Q1183.32 1575.36 1181.56 1575.86 Q1179.8 1576.38 1177.95 1576.38 Q1174.5 1576.38 1172.48 1574.1 Q1170.47 1571.82 1170.47 1568.55 Q1170.47 1565.38 1172.25 1562.33 Q1174.03 1559.27 1176.92 1557.37 Q1179.8 1555.46 1182.85 1555.46 Q1185.26 1555.46 1186.77 1556.58 Q1188.28 1557.71 1188.28 1559.42 Q1188.28 1560.75 1187.51 1561.57 Q1186.75 1562.38 1185.71 1562.38 Q1184.99 1562.38 1184.49 1561.97 Q1184 1561.54 1184 1560.75 Q1184 1559.74 1184.83 1558.95 Q1185.15 1558.64 1185.51 1558.5 Q1185.89 1558.34 1186.11 1558.34 Q1186.34 1558.32 1186.86 1558.32 Q1186.39 1557.44 1185.26 1556.97 Q1184.15 1556.47 1182.89 1556.47 Q1181.02 1556.47 1179.24 1557.78 Q1177.46 1559.06 1176.38 1561.09 Q1175.29 1563.08 1174.59 1565.89 Q1173.9 1568.69 1173.9 1570.31 Q1173.9 1572.54 1174.93 1573.94 Q1175.97 1575.34 1178.04 1575.34 Q1178.45 1575.34 1178.88 1575.32 Q1179.33 1575.3 1180.46 1575.05 Q1181.61 1574.8 1182.62 1574.37 Q1183.64 1573.94 1184.92 1573.02 Q1186.23 1572.07 1187.26 1570.79 Q1187.63 1570.31 1187.87 1570.31 Q1188.08 1570.31 1188.26 1570.52 Z" fill="#000000" fill-rule="nonzero" fill-opacity="1" /><path clip-path="url(#clip000)" d="M1212.45 1569.25 Q1212.45 1569.43 1212.25 1570.13 Q1212.05 1570.83 1211.55 1571.91 Q1211.08 1573 1210.42 1573.99 Q1209.77 1574.96 1208.69 1575.68 Q1207.63 1576.38 1206.41 1576.38 Q1204.79 1576.38 1203.71 1575.3 Q1202.62 1574.21 1202.62 1572.59 Q1202.62 1572.36 1202.65 1572.14 Q1202.67 1571.91 1202.69 1571.78 Q1202.71 1571.62 1202.78 1571.37 Q1202.87 1571.1 1202.89 1570.99 Q1202.94 1570.88 1203.05 1570.54 Q1203.19 1570.18 1203.23 1570.04 Q1206.1 1562.74 1206.1 1559.69 Q1206.1 1556.47 1203.59 1556.47 Q1201.36 1556.47 1199.15 1558.09 Q1198.14 1558.91 1197.17 1560.35 Q1196.2 1561.79 1196.02 1562.33 Q1195.81 1563.5 1195.52 1564.41 Q1195.39 1565.04 1194.73 1567.49 L1193.72 1571.67 L1192.84 1575.16 Q1192.66 1575.66 1192.16 1576.02 Q1191.67 1576.38 1191.13 1576.38 Q1190.67 1576.38 1190.22 1576.06 Q1189.8 1575.77 1189.8 1575.07 Q1189.8 1574.71 1189.98 1574.06 L1196.67 1547.45 L1196.81 1546.55 Q1196.81 1546.28 1196.69 1546.15 Q1196.6 1545.99 1196.06 1545.88 Q1195.54 1545.76 1194.51 1545.76 Q1194.08 1545.76 1193.88 1545.74 Q1193.7 1545.72 1193.54 1545.6 Q1193.38 1545.47 1193.38 1545.2 Q1193.38 1544.82 1193.54 1544.61 Q1193.72 1544.39 1193.85 1544.34 Q1193.99 1544.3 1194.26 1544.27 Q1194.64 1544.25 1195.93 1544.14 Q1197.21 1544 1198.32 1543.91 Q1199.42 1543.82 1199.9 1543.82 Q1200.17 1543.82 1200.3 1543.96 Q1200.46 1544.07 1200.48 1544.21 L1200.5 1544.32 L1196.9 1559 Q1199.76 1555.46 1203.73 1555.46 Q1206.3 1555.46 1207.67 1556.79 Q1209.05 1558.09 1209.05 1560.39 Q1209.05 1563.03 1206.23 1570.54 Q1205.4 1572.63 1205.4 1573.83 Q1205.4 1574.62 1205.64 1574.98 Q1205.91 1575.34 1206.5 1575.34 Q1207.4 1575.34 1208.19 1574.82 Q1209 1574.28 1209.57 1573.4 Q1210.13 1572.5 1210.51 1571.6 Q1210.92 1570.67 1211.21 1569.64 Q1211.39 1569.07 1211.48 1568.94 Q1211.6 1568.8 1211.91 1568.8 Q1212.45 1568.8 1212.45 1569.25 Z" fill="#000000" fill-rule="nonzero" fill-opacity="1" /><path clip-path="url(#clip000)" d="M1237.69 1544.46 Q1237.69 1544.23 1237.87 1543.74 L1253.95 1500.76 Q1253.95 1500.72 1254.06 1500.48 Q1254.17 1500.23 1254.24 1500.07 Q1254.31 1499.9 1254.44 1499.76 Q1254.59 1499.63 1254.77 1499.63 Q1255.22 1499.63 1255.22 1500.19 Q1255.22 1500.23 1255.08 1500.76 L1238.96 1543.79 Q1238.69 1544.57 1238.51 1544.79 Q1238.35 1545.01 1238.09 1545.01 Q1237.69 1545.01 1237.69 1544.46 Z" fill="#000000" fill-rule="nonzero" fill-opacity="1" /><path clip-path="url(#clip000)" d="M1281.82 1544.16 L1281.82 1542.14 Q1285.33 1542.14 1286.13 1541.72 Q1286.94 1541.27 1286.94 1539.14 L1286.94 1521.46 Q1286.94 1519.01 1286.07 1518.4 Q1285.23 1517.79 1281.82 1517.79 L1281.82 1515.73 L1291.09 1515.02 L1291.09 1521.94 Q1294.18 1515.02 1300.85 1515.02 Q1308.58 1515.02 1309.64 1521.46 Q1310.77 1518.95 1313.12 1516.98 Q1315.5 1515.02 1319.21 1515.02 Q1324.17 1515.02 1326.13 1517.47 Q1327.58 1519.11 1327.87 1520.94 Q1328.16 1522.78 1328.16 1527.55 L1328.16 1540.14 Q1328.22 1541.52 1329.29 1541.85 Q1330.35 1542.14 1333.31 1542.14 L1333.31 1544.16 Q1326.58 1543.97 1325.94 1543.97 Q1325.42 1543.97 1318.47 1544.16 L1318.47 1542.14 Q1321.98 1542.14 1322.78 1541.72 Q1323.62 1541.27 1323.62 1539.14 L1323.62 1523.78 Q1323.62 1520.43 1322.59 1518.46 Q1321.56 1516.47 1318.72 1516.47 Q1315.31 1516.47 1312.57 1519.33 Q1309.84 1522.2 1309.84 1527.03 L1309.84 1539.14 Q1309.84 1541.27 1310.64 1541.72 Q1311.48 1542.14 1314.99 1542.14 L1314.99 1544.16 Q1308.26 1543.97 1307.58 1543.97 Q1307.07 1543.97 1300.14 1544.16 L1300.14 1542.14 Q1303.65 1542.14 1304.46 1541.72 Q1305.29 1541.27 1305.29 1539.14 L1305.29 1523.78 Q1305.29 1520.43 1304.26 1518.46 Q1303.23 1516.47 1300.4 1516.47 Q1296.98 1516.47 1294.25 1519.33 Q1291.51 1522.2 1291.51 1527.03 L1291.51 1539.14 Q1291.51 1541.27 1292.32 1541.72 Q1293.15 1542.14 1296.63 1542.14 L1296.63 1544.16 Q1289.9 1543.97 1289.26 1543.97 Q1288.74 1543.97 1281.82 1544.16 Z" fill="#000000" fill-rule="nonzero" fill-opacity="1" /><path clip-path="url(#clip000)" d="M1335.94 1514.34 L1337.19 1499.53 L1377.48 1499.53 L1378.74 1514.34 L1377.1 1514.34 Q1376.84 1511.38 1376.58 1509.67 Q1376.36 1507.97 1375.78 1506.35 Q1375.23 1504.71 1374.52 1503.94 Q1373.85 1503.13 1372.52 1502.52 Q1371.2 1501.88 1369.5 1501.72 Q1367.79 1501.56 1365.21 1501.56 Q1362.19 1501.56 1361.45 1501.69 Q1360.64 1501.88 1360.45 1502.46 Q1360.25 1503.01 1360.25 1504.2 L1360.25 1538.95 Q1360.25 1540.27 1360.51 1540.82 Q1360.8 1541.33 1362.32 1541.75 Q1363.83 1542.14 1367.18 1542.14 L1369.82 1542.14 L1369.82 1544.16 Q1367.11 1543.97 1357.29 1543.97 Q1347.53 1543.97 1344.83 1544.16 L1344.83 1542.14 L1347.47 1542.14 Q1350.82 1542.14 1352.33 1541.75 Q1353.88 1541.33 1354.14 1540.82 Q1354.39 1540.27 1354.39 1538.95 L1354.39 1504.2 Q1354.39 1503.26 1354.33 1502.88 Q1354.26 1502.49 1353.97 1502.17 Q1353.68 1501.81 1353.01 1501.69 Q1352.36 1501.56 1349.47 1501.56 Q1346.89 1501.56 1345.15 1501.72 Q1343.44 1501.88 1342.12 1502.52 Q1340.8 1503.13 1340.09 1503.94 Q1339.42 1504.71 1338.84 1506.35 Q1338.29 1507.97 1338.06 1509.67 Q1337.84 1511.38 1337.58 1514.34 L1335.94 1514.34 Z" fill="#000000" fill-rule="nonzero" fill-opacity="1" /><path clip-path="url(#clip000)" d="M1392.45 1540.62 Q1388.1 1536.31 1388.1 1530.06 Q1388.1 1523.78 1392.35 1519.21 Q1396.64 1514.6 1402.76 1514.6 Q1408.75 1514.6 1413.03 1519.17 Q1417.35 1523.71 1417.35 1530.06 Q1417.35 1536.27 1413 1540.59 Q1408.68 1544.91 1402.69 1544.91 Q1396.83 1544.91 1392.45 1540.62 M1393.58 1529.51 Q1393.58 1535.92 1395.25 1538.82 Q1397.83 1543.23 1402.76 1543.23 Q1405.2 1543.23 1407.23 1541.91 Q1409.29 1540.59 1410.42 1538.37 Q1411.87 1535.47 1411.87 1529.51 Q1411.87 1523.17 1410.13 1520.36 Q1407.56 1516.08 1402.69 1516.08 Q1400.57 1516.08 1398.47 1517.21 Q1396.41 1518.3 1395.16 1520.49 Q1393.58 1523.39 1393.58 1529.51 Z" fill="#000000" fill-rule="nonzero" fill-opacity="1" /><path clip-path="url(#clip000)" d="M1419.45 1544.16 L1419.45 1542.14 Q1422.96 1542.14 1423.76 1541.72 Q1424.6 1541.27 1424.6 1539.14 L1424.6 1521.46 Q1424.6 1519.01 1423.73 1518.4 Q1422.89 1517.79 1419.45 1517.79 L1419.45 1515.73 L1428.63 1515.02 L1428.63 1522.26 Q1429.56 1519.43 1431.52 1517.24 Q1433.52 1515.02 1436.74 1515.02 Q1438.87 1515.02 1440.22 1516.21 Q1441.6 1517.4 1441.6 1519.04 Q1441.6 1520.49 1440.7 1521.23 Q1439.83 1521.94 1438.77 1521.94 Q1437.58 1521.94 1436.74 1521.2 Q1435.94 1520.43 1435.94 1519.11 Q1435.94 1518.3 1436.29 1517.69 Q1436.68 1517.05 1436.97 1516.82 Q1437.26 1516.6 1437.45 1516.53 Q1437.32 1516.47 1436.74 1516.47 Q1433.1 1516.47 1431.01 1520.11 Q1428.95 1523.71 1428.95 1528.87 L1428.95 1539.01 Q1428.95 1540.91 1429.72 1541.52 Q1430.53 1542.14 1433.97 1542.14 L1435.36 1542.14 L1435.36 1544.16 Q1432.72 1543.97 1426.98 1543.97 Q1426.18 1543.97 1424.92 1544 Q1423.67 1544.04 1422.02 1544.1 Q1420.38 1544.16 1419.45 1544.16 Z" fill="#000000" fill-rule="nonzero" fill-opacity="1" /><path clip-path="url(#clip000)" d="M1446.33 1544.16 L1446.33 1542.14 Q1449.84 1542.14 1450.64 1541.72 Q1451.48 1541.27 1451.48 1539.14 L1451.48 1521.46 Q1451.48 1519.01 1450.61 1518.4 Q1449.77 1517.79 1446.33 1517.79 L1446.33 1515.73 L1455.51 1515.02 L1455.51 1522.26 Q1456.44 1519.43 1458.41 1517.24 Q1460.4 1515.02 1463.62 1515.02 Q1465.75 1515.02 1467.1 1516.21 Q1468.49 1517.4 1468.49 1519.04 Q1468.49 1520.49 1467.58 1521.23 Q1466.71 1521.94 1465.65 1521.94 Q1464.46 1521.94 1463.62 1521.2 Q1462.82 1520.43 1462.82 1519.11 Q1462.82 1518.3 1463.17 1517.69 Q1463.56 1517.05 1463.85 1516.82 Q1464.14 1516.6 1464.33 1516.53 Q1464.2 1516.47 1463.62 1516.47 Q1459.98 1516.47 1457.89 1520.11 Q1455.83 1523.71 1455.83 1528.87 L1455.83 1539.01 Q1455.83 1540.91 1456.6 1541.52 Q1457.41 1542.14 1460.85 1542.14 L1462.24 1542.14 L1462.24 1544.16 Q1459.6 1543.97 1453.86 1543.97 Q1453.06 1543.97 1451.8 1544 Q1450.55 1544.04 1448.9 1544.1 Q1447.26 1544.16 1446.33 1544.16 Z" fill="#000000" fill-rule="nonzero" fill-opacity="1" /><polyline clip-path="url(#clip000)" style="stroke:#000000; stroke-linecap:round; stroke-linejoin:round; stroke-width:4; stroke-opacity:1; fill:none" points="255.435,1419.75 255.435,47.2441 "/>
<polyline clip-path="url(#clip000)" style="stroke:#000000; stroke-linecap:round; stroke-linejoin:round; stroke-width:4; stroke-opacity:1; fill:none" points="255.435,1216.24 274.333,1216.24 "/>
<polyline clip-path="url(#clip000)" style="stroke:#000000; stroke-linecap:round; stroke-linejoin:round; stroke-width:4; stroke-opacity:1; fill:none" points="255.435,911.585 274.333,911.585 "/>
<polyline clip-path="url(#clip000)" style="stroke:#000000; stroke-linecap:round; stroke-linejoin:round; stroke-width:4; stroke-opacity:1; fill:none" points="255.435,606.93 274.333,606.93 "/>
<polyline clip-path="url(#clip000)" style="stroke:#000000; stroke-linecap:round; stroke-linejoin:round; stroke-width:4; stroke-opacity:1; fill:none" points="255.435,302.276 274.333,302.276 "/>
<path clip-path="url(#clip000)" d="M133.093 1202.04 Q129.482 1202.04 127.653 1205.6 Q125.848 1209.14 125.848 1216.27 Q125.848 1223.38 127.653 1226.95 Q129.482 1230.49 133.093 1230.49 Q136.727 1230.49 138.533 1226.95 Q140.361 1223.38 140.361 1216.27 Q140.361 1209.14 138.533 1205.6 Q136.727 1202.04 133.093 1202.04 M133.093 1198.33 Q138.903 1198.33 141.959 1202.94 Q145.037 1207.52 145.037 1216.27 Q145.037 1225 141.959 1229.61 Q138.903 1234.19 133.093 1234.19 Q127.283 1234.19 124.204 1229.61 Q121.149 1225 121.149 1216.27 Q121.149 1207.52 124.204 1202.94 Q127.283 1198.33 133.093 1198.33 Z" fill="#000000" fill-rule="nonzero" fill-opacity="1" /><path clip-path="url(#clip000)" d="M153.255 1227.64 L158.139 1227.64 L158.139 1233.52 L153.255 1233.52 L153.255 1227.64 Z" fill="#000000" fill-rule="nonzero" fill-opacity="1" /><path clip-path="url(#clip000)" d="M172.352 1229.58 L188.671 1229.58 L188.671 1233.52 L166.727 1233.52 L166.727 1229.58 Q169.389 1226.83 173.972 1222.2 Q178.579 1217.55 179.759 1216.2 Q182.005 1213.68 182.884 1211.95 Q183.787 1210.19 183.787 1208.5 Q183.787 1205.74 181.843 1204.01 Q179.921 1202.27 176.82 1202.27 Q174.62 1202.27 172.167 1203.03 Q169.736 1203.8 166.958 1205.35 L166.958 1200.63 Q169.783 1199.49 172.236 1198.91 Q174.69 1198.33 176.727 1198.33 Q182.097 1198.33 185.292 1201.02 Q188.486 1203.7 188.486 1208.2 Q188.486 1210.33 187.676 1212.25 Q186.889 1214.14 184.782 1216.74 Q184.204 1217.41 181.102 1220.63 Q178 1223.82 172.352 1229.58 Z" fill="#000000" fill-rule="nonzero" fill-opacity="1" /><path clip-path="url(#clip000)" d="M198.532 1198.96 L216.889 1198.96 L216.889 1202.89 L202.815 1202.89 L202.815 1211.37 Q203.833 1211.02 204.852 1210.86 Q205.87 1210.67 206.889 1210.67 Q212.676 1210.67 216.055 1213.84 Q219.435 1217.01 219.435 1222.43 Q219.435 1228.01 215.963 1231.11 Q212.491 1234.19 206.171 1234.19 Q203.995 1234.19 201.727 1233.82 Q199.481 1233.45 197.074 1232.71 L197.074 1228.01 Q199.157 1229.14 201.38 1229.7 Q203.602 1230.26 206.079 1230.26 Q210.083 1230.26 212.421 1228.15 Q214.759 1226.04 214.759 1222.43 Q214.759 1218.82 212.421 1216.71 Q210.083 1214.61 206.079 1214.61 Q204.204 1214.61 202.329 1215.02 Q200.477 1215.44 198.532 1216.32 L198.532 1198.96 Z" fill="#000000" fill-rule="nonzero" fill-opacity="1" /><path clip-path="url(#clip000)" d="M132.098 897.384 Q128.486 897.384 126.658 900.948 Q124.852 904.49 124.852 911.62 Q124.852 918.726 126.658 922.291 Q128.486 925.832 132.098 925.832 Q135.732 925.832 137.537 922.291 Q139.366 918.726 139.366 911.62 Q139.366 904.49 137.537 900.948 Q135.732 897.384 132.098 897.384 M132.098 893.68 Q137.908 893.68 140.963 898.286 Q144.042 902.87 144.042 911.62 Q144.042 920.346 140.963 924.953 Q137.908 929.536 132.098 929.536 Q126.287 929.536 123.209 924.953 Q120.153 920.346 120.153 911.62 Q120.153 902.87 123.209 898.286 Q126.287 893.68 132.098 893.68 Z" fill="#000000" fill-rule="nonzero" fill-opacity="1" /><path clip-path="url(#clip000)" d="M152.259 922.985 L157.144 922.985 L157.144 928.865 L152.259 928.865 L152.259 922.985 Z" fill="#000000" fill-rule="nonzero" fill-opacity="1" /><path clip-path="url(#clip000)" d="M167.375 894.305 L185.732 894.305 L185.732 898.24 L171.658 898.24 L171.658 906.712 Q172.676 906.365 173.695 906.203 Q174.713 906.018 175.732 906.018 Q181.519 906.018 184.898 909.189 Q188.278 912.36 188.278 917.777 Q188.278 923.356 184.806 926.457 Q181.333 929.536 175.014 929.536 Q172.838 929.536 170.57 929.166 Q168.324 928.795 165.917 928.055 L165.917 923.356 Q168 924.49 170.222 925.045 Q172.445 925.601 174.921 925.601 Q178.926 925.601 181.264 923.495 Q183.602 921.388 183.602 917.777 Q183.602 914.166 181.264 912.059 Q178.926 909.953 174.921 909.953 Q173.046 909.953 171.171 910.37 Q169.32 910.786 167.375 911.666 L167.375 894.305 Z" fill="#000000" fill-rule="nonzero" fill-opacity="1" /><path clip-path="url(#clip000)" d="M207.491 897.384 Q203.88 897.384 202.051 900.948 Q200.245 904.49 200.245 911.62 Q200.245 918.726 202.051 922.291 Q203.88 925.832 207.491 925.832 Q211.125 925.832 212.93 922.291 Q214.759 918.726 214.759 911.62 Q214.759 904.49 212.93 900.948 Q211.125 897.384 207.491 897.384 M207.491 893.68 Q213.301 893.68 216.356 898.286 Q219.435 902.87 219.435 911.62 Q219.435 920.346 216.356 924.953 Q213.301 929.536 207.491 929.536 Q201.681 929.536 198.602 924.953 Q195.546 920.346 195.546 911.62 Q195.546 902.87 198.602 898.286 Q201.681 893.68 207.491 893.68 Z" fill="#000000" fill-rule="nonzero" fill-opacity="1" /><path clip-path="url(#clip000)" d="M133.093 592.729 Q129.482 592.729 127.653 596.294 Q125.848 599.835 125.848 606.965 Q125.848 614.071 127.653 617.636 Q129.482 621.178 133.093 621.178 Q136.727 621.178 138.533 617.636 Q140.361 614.071 140.361 606.965 Q140.361 599.835 138.533 596.294 Q136.727 592.729 133.093 592.729 M133.093 589.025 Q138.903 589.025 141.959 593.632 Q145.037 598.215 145.037 606.965 Q145.037 615.692 141.959 620.298 Q138.903 624.881 133.093 624.881 Q127.283 624.881 124.204 620.298 Q121.149 615.692 121.149 606.965 Q121.149 598.215 124.204 593.632 Q127.283 589.025 133.093 589.025 Z" fill="#000000" fill-rule="nonzero" fill-opacity="1" /><path clip-path="url(#clip000)" d="M153.255 618.331 L158.139 618.331 L158.139 624.21 L153.255 624.21 L153.255 618.331 Z" fill="#000000" fill-rule="nonzero" fill-opacity="1" /><path clip-path="url(#clip000)" d="M167.144 589.65 L189.366 589.65 L189.366 591.641 L176.82 624.21 L171.935 624.21 L183.741 593.585 L167.144 593.585 L167.144 589.65 Z" fill="#000000" fill-rule="nonzero" fill-opacity="1" /><path clip-path="url(#clip000)" d="M198.532 589.65 L216.889 589.65 L216.889 593.585 L202.815 593.585 L202.815 602.058 Q203.833 601.71 204.852 601.548 Q205.87 601.363 206.889 601.363 Q212.676 601.363 216.055 604.534 Q219.435 607.706 219.435 613.122 Q219.435 618.701 215.963 621.803 Q212.491 624.881 206.171 624.881 Q203.995 624.881 201.727 624.511 Q199.481 624.141 197.074 623.4 L197.074 618.701 Q199.157 619.835 201.38 620.391 Q203.602 620.946 206.079 620.946 Q210.083 620.946 212.421 618.84 Q214.759 616.733 214.759 613.122 Q214.759 609.511 212.421 607.405 Q210.083 605.298 206.079 605.298 Q204.204 605.298 202.329 605.715 Q200.477 606.132 198.532 607.011 L198.532 589.65 Z" fill="#000000" fill-rule="nonzero" fill-opacity="1" /><path clip-path="url(#clip000)" d="M122.908 315.62 L130.547 315.62 L130.547 289.255 L122.237 290.921 L122.237 286.662 L130.5 284.996 L135.176 284.996 L135.176 315.62 L142.815 315.62 L142.815 319.556 L122.908 319.556 L122.908 315.62 Z" fill="#000000" fill-rule="nonzero" fill-opacity="1" /><path clip-path="url(#clip000)" d="M152.259 313.676 L157.144 313.676 L157.144 319.556 L152.259 319.556 L152.259 313.676 Z" fill="#000000" fill-rule="nonzero" fill-opacity="1" /><path clip-path="url(#clip000)" d="M177.329 288.074 Q173.718 288.074 171.889 291.639 Q170.083 295.181 170.083 302.31 Q170.083 309.417 171.889 312.981 Q173.718 316.523 177.329 316.523 Q180.963 316.523 182.769 312.981 Q184.597 309.417 184.597 302.31 Q184.597 295.181 182.769 291.639 Q180.963 288.074 177.329 288.074 M177.329 284.371 Q183.139 284.371 186.194 288.977 Q189.273 293.56 189.273 302.31 Q189.273 311.037 186.194 315.643 Q183.139 320.227 177.329 320.227 Q171.519 320.227 168.44 315.643 Q165.384 311.037 165.384 302.31 Q165.384 293.56 168.44 288.977 Q171.519 284.371 177.329 284.371 Z" fill="#000000" fill-rule="nonzero" fill-opacity="1" /><path clip-path="url(#clip000)" d="M207.491 288.074 Q203.88 288.074 202.051 291.639 Q200.245 295.181 200.245 302.31 Q200.245 309.417 202.051 312.981 Q203.88 316.523 207.491 316.523 Q211.125 316.523 212.93 312.981 Q214.759 309.417 214.759 302.31 Q214.759 295.181 212.93 291.639 Q211.125 288.074 207.491 288.074 M207.491 284.371 Q213.301 284.371 216.356 288.977 Q219.435 293.56 219.435 302.31 Q219.435 311.037 216.356 315.643 Q213.301 320.227 207.491 320.227 Q201.681 320.227 198.602 315.643 Q195.546 311.037 195.546 302.31 Q195.546 293.56 198.602 288.977 Q201.681 284.371 207.491 284.371 Z" fill="#000000" fill-rule="nonzero" fill-opacity="1" /><path clip-path="url(#clip000)" d="M40.0778 870.827 Q41.0021 870.827 41.7686 871.504 Q42.5351 872.202 42.5351 873.33 Q42.5351 874.344 41.7912 875.043 Q41.0247 875.764 40.0778 875.764 Q39.131 875.764 38.387 875.088 Q37.6431 874.412 37.6431 873.284 Q37.6431 872.27 38.387 871.549 Q39.131 870.827 40.0778 870.827 Z" fill="#000000" fill-rule="nonzero" fill-opacity="1" /><path clip-path="url(#clip000)" d="M69.2601 848.613 Q69.5177 848.613 70.5161 848.903 Q71.5145 849.193 73.0604 849.902 Q74.6062 850.578 76.0233 851.544 Q77.4081 852.478 78.4387 854.024 Q79.4371 855.538 79.4371 857.277 Q79.4371 859.596 77.8912 861.141 Q76.3454 862.687 74.0265 862.687 Q72.7705 862.687 70.3873 861.818 Q59.5017 857.728 55.6048 857.728 Q50.9993 857.728 50.9993 861.302 Q50.9993 863.331 51.8367 865.167 Q52.674 867.003 53.8335 868.194 Q54.9929 869.386 56.3133 870.32 Q57.6337 871.254 58.5033 871.673 Q59.3729 872.059 59.7593 872.156 L75.669 876.117 Q77.0217 876.439 77.6658 876.665 Q78.3099 876.89 78.8574 877.502 Q79.4371 878.114 79.4371 879.08 Q79.4371 879.885 78.954 880.465 Q78.4709 881.012 77.6336 881.012 Q77.5048 881.012 76.8284 880.851 Q76.1521 880.69 75.2181 880.465 Q74.2842 880.239 73.7367 880.143 Q69.3567 878.983 68.7448 878.822 L61.0798 876.987 Q57.2795 875.988 55.6048 875.988 Q50.9993 875.988 50.9993 879.563 Q50.9993 881.334 51.6757 883.009 Q52.3198 884.652 53.2215 885.779 Q54.1233 886.906 55.3793 887.937 Q56.6032 888.935 57.4405 889.45 Q58.2457 889.933 59.0508 890.32 L62.3358 891.157 Q63.2376 891.351 66.748 892.284 L72.7061 893.734 Q77.1505 894.764 77.5692 894.99 Q78.4709 895.312 78.954 896.02 Q79.4371 896.729 79.4371 897.437 Q79.4371 898.243 78.954 898.79 Q78.4709 899.338 77.6336 899.338 Q77.5048 899.338 77.0217 899.241 Q76.5386 899.144 75.8623 898.983 Q75.1859 898.822 74.7995 898.758 L59.5661 894.925 Q56.7964 894.217 55.9268 894.056 Q55.0251 893.863 54.0267 893.863 Q50.9993 893.863 50.9993 895.924 Q50.9993 897.598 52.9961 898.693 Q54.9929 899.788 58.8576 900.722 Q59.9204 901.012 60.1458 901.206 Q60.3712 901.367 60.3712 901.85 Q60.339 902.655 59.6949 902.655 Q59.5339 902.655 58.5033 902.397 Q57.4727 902.139 55.9268 901.656 Q54.3488 901.141 53.3182 900.594 Q52.6418 900.272 52.191 899.982 Q51.7401 899.692 51.0315 899.112 Q50.323 898.532 49.9365 897.663 Q49.5501 896.793 49.5501 895.731 Q49.5501 893.379 51.0638 891.64 Q52.5774 889.869 55.2827 889.644 Q49.5501 885.36 49.5501 879.37 Q49.5501 875.988 51.257 873.959 Q52.8995 872.059 55.9268 871.834 Q49.5501 867.389 49.5501 861.077 Q49.5501 857.438 51.4502 855.473 Q53.3182 853.509 56.6032 853.509 Q58.3101 853.509 61.5629 854.378 Q64.7834 855.248 66.3937 855.827 Q68.004 856.407 71.0958 857.534 Q74.0587 858.726 75.7979 858.726 Q76.9251 858.726 77.4404 858.34 Q77.9556 857.953 77.9556 857.116 Q77.9556 855.827 77.2149 854.7 Q76.442 853.573 75.1859 852.768 Q73.8977 851.931 72.6095 851.383 Q71.289 850.836 69.8076 850.417 Q69.0024 850.159 68.8092 850.03 Q68.6159 849.869 68.6159 849.418 Q68.6159 848.613 69.2601 848.613 Z" fill="#000000" fill-rule="nonzero" fill-opacity="1" /><path clip-path="url(#clip000)" d="M91.3627 834.613 Q90.9662 834.613 90.094 834.296 L13.491 805.629 Q13.4117 805.629 12.9756 805.431 Q12.5394 805.233 12.2619 805.114 Q11.9447 804.995 11.7068 804.757 Q11.4689 804.479 11.4689 804.162 Q11.4689 803.369 12.4601 803.369 Q12.5394 803.369 13.491 803.607 L90.1733 832.353 Q91.561 832.829 91.9575 833.146 Q92.354 833.424 92.354 833.899 Q92.354 834.613 91.3627 834.613 Z" fill="#000000" fill-rule="nonzero" fill-opacity="1" /><path clip-path="url(#clip000)" d="M78.6964 772.836 L76.6674 772.836 Q76.6674 769.326 76.2487 768.521 Q75.7979 767.683 73.6723 767.683 L39.373 767.683 Q36.9254 767.683 36.3135 768.553 Q35.7016 769.39 35.7016 772.836 L33.6404 772.836 L32.9319 763.335 L64.5902 763.335 L56.5387 754.028 Q55.2827 752.579 53.9623 752.579 Q52.4486 752.579 52.3198 754.479 L50.2586 754.479 Q50.4518 751.709 50.4518 747.104 Q50.4518 744.398 50.2586 742.498 L52.3198 742.498 Q52.513 746.653 55.8624 750.807 Q56.6032 751.741 58.5355 753.964 Q60.4357 756.154 60.6289 756.154 Q60.6933 756.154 60.8543 756.089 Q61.0154 755.993 61.1442 755.864 Q61.273 755.735 61.3374 755.735 L73.157 747.361 Q75.5402 745.654 76.1199 744.398 Q76.6674 743.142 76.6674 740.952 L78.6964 740.952 Q78.5031 743.787 78.5031 746.717 Q78.5031 748.295 78.6964 753.835 L76.6674 753.835 Q76.6674 751.452 75.1215 751.452 Q74.0587 751.452 66.6836 756.798 Q66.1683 757.184 65.0411 758.054 Q63.8495 758.859 63.2698 759.31 L66.8768 763.529 L73.6723 763.529 Q75.7979 763.529 76.2487 762.724 Q76.6674 761.886 76.6674 758.376 L78.6964 758.376 Q78.5031 762.337 78.5031 765.622 Q78.5031 766.298 78.6964 772.836 Z" fill="#000000" fill-rule="nonzero" fill-opacity="1" /><path clip-path="url(#clip000)" d="M83.9137 741.335 Q81.7881 741.335 79.9524 739.724 Q78.1167 738.082 77.3115 735.248 Q75.4758 738.146 71.4501 738.146 Q68.3583 738.146 65.9751 736.117 Q63.3986 739.209 59.1796 739.209 Q55.2827 739.209 52.4164 736.117 Q49.5501 733.026 49.5501 728.517 Q49.5501 724.555 51.9333 721.528 Q48.8415 718.372 48.8093 714.539 Q48.8093 712.833 49.8721 712.027 Q50.9349 711.19 52.0621 711.19 Q53.0605 711.19 53.5436 711.834 Q54.0267 712.446 54.0267 713.09 Q54.0267 713.895 53.5114 714.475 Q52.9639 715.023 52.1265 715.023 Q50.7417 715.023 50.323 713.96 Q50.2586 714.153 50.2586 714.604 Q50.2586 717.824 52.8351 720.562 Q55.3471 717.857 59.244 717.857 Q63.141 717.857 66.0073 720.948 Q68.8736 724.04 68.8736 728.517 Q68.8736 732.22 66.8124 735.055 Q68.1329 736.182 69.9364 736.182 Q71.5789 736.182 72.8671 735.183 Q74.1554 734.185 74.3486 732.671 Q74.413 732.22 74.413 727.744 Q74.413 725.103 74.4774 723.654 Q74.5418 722.204 74.9927 720.143 Q75.4114 718.05 76.2487 716.407 Q78.632 712.124 83.7849 712.092 Q87.553 712.092 89.904 716.44 Q92.2873 720.755 92.2873 726.745 Q92.2873 732.8 89.8718 737.084 Q87.4886 741.335 83.9137 741.335 M83.9137 737.889 Q86.619 737.889 88.6802 734.7 Q90.7736 731.512 90.7736 726.681 Q90.7736 721.947 88.7124 718.758 Q86.6834 715.538 83.9137 715.538 Q81.9492 715.538 80.6931 716.665 Q79.4371 717.792 78.9218 720.111 Q78.4387 722.398 78.3421 724.008 Q78.2455 725.618 78.2455 728.581 L78.2455 732.478 Q78.3743 734.733 80.0168 736.311 Q81.6593 737.889 83.9137 737.889 M59.244 734.282 Q67.3599 734.282 67.3599 728.517 Q67.3599 725.618 64.719 723.847 Q62.9477 722.784 59.1796 722.784 Q51.0638 722.784 51.0638 728.517 Q51.0638 731.415 53.7046 733.219 Q55.476 734.282 59.244 734.282 Z" fill="#000000" fill-rule="nonzero" fill-opacity="1" /><path clip-path="url(#clip000)" d="M78.6964 699.955 L76.6674 699.955 Q76.6674 696.445 76.2487 695.639 Q75.7979 694.834 73.6723 694.834 L39.373 694.834 Q36.9254 694.834 36.3135 695.704 Q35.7016 696.541 35.7016 699.955 L33.6404 699.955 L32.9319 690.486 L55.8624 690.486 L55.8624 690.422 Q53.4792 689.359 51.5146 686.976 Q49.5501 684.593 49.5501 680.921 Q49.5501 675.962 51.9977 673.997 Q53.6402 672.548 55.476 672.258 Q57.3117 671.936 62.0782 671.936 L74.6706 671.936 Q76.0555 671.871 76.3776 670.809 Q76.6674 669.746 76.6674 666.783 L78.6964 666.783 Q78.5031 673.514 78.5031 674.19 Q78.5031 674.706 78.6964 681.63 L76.6674 681.63 Q76.6674 678.119 76.2487 677.314 Q75.7979 676.477 73.6723 676.477 L58.3101 676.477 Q54.9607 676.477 52.9961 677.507 Q50.9993 678.538 50.9993 681.372 Q50.9993 684.786 53.8657 687.524 Q56.732 690.261 61.5629 690.261 L73.6723 690.261 Q75.7979 690.261 76.2487 689.456 Q76.6674 688.619 76.6674 685.14 L78.6964 685.14 Q78.5031 691.871 78.5031 692.515 Q78.5031 693.031 78.6964 699.955 Z" fill="#000000" fill-rule="nonzero" fill-opacity="1" /><path clip-path="url(#clip000)" d="M78.6964 665.83 L76.6674 665.83 Q76.6674 662.32 76.2487 661.515 Q75.7979 660.677 73.6723 660.677 L55.9912 660.677 Q53.5436 660.677 52.9317 661.547 Q52.3198 662.384 52.3198 665.83 L50.2586 665.83 L49.5501 656.652 L56.7964 656.652 Q53.9623 655.718 51.7723 653.753 Q49.5501 651.756 49.5501 648.536 Q49.5501 646.41 50.7417 645.057 Q51.9333 643.673 53.5758 643.673 Q55.0251 643.673 55.7658 644.574 Q56.4743 645.444 56.4743 646.507 Q56.4743 647.698 55.7336 648.536 Q54.9607 649.341 53.6402 649.341 Q52.8351 649.341 52.2232 648.987 Q51.579 648.6 51.3536 648.31 Q51.1282 648.02 51.0638 647.827 Q50.9993 647.956 50.9993 648.536 Q50.9993 652.175 54.6386 654.268 Q58.2457 656.33 63.3986 656.33 L73.5434 656.33 Q75.4436 656.33 76.0555 655.557 Q76.6674 654.751 76.6674 651.305 L76.6674 649.921 L78.6964 649.921 Q78.5031 652.561 78.5031 658.294 Q78.5031 659.099 78.5354 660.355 Q78.5676 661.611 78.632 663.254 Q78.6964 664.896 78.6964 665.83 Z" fill="#000000" fill-rule="nonzero" fill-opacity="1" /><path clip-path="url(#clip000)" d="M30.3102 606.373 Q30.5807 606.103 30.964 606.103 Q31.3472 606.103 31.6177 606.373 Q31.8883 606.644 31.8883 607.027 L31.8883 635.928 Q31.8883 636.312 31.6177 636.582 Q31.3472 636.853 30.964 636.853 Q30.5807 636.853 30.3102 636.582 Q30.0396 636.312 30.0396 635.928 L30.0396 607.027 Q30.0396 606.644 30.3102 606.373 Z" fill="#000000" fill-rule="nonzero" fill-opacity="1" /><path clip-path="url(#clip000)" d="M16.1525 601.283 L14.7097 601.283 Q14.7097 595.737 11.7564 592.874 Q11.7564 592.085 11.9367 591.95 Q12.1171 591.814 12.9512 591.814 L38.8544 591.814 Q40.2296 591.814 40.6579 591.138 Q41.0863 590.462 41.0863 587.508 L41.0863 586.043 L42.5065 586.043 Q42.3713 587.666 42.3713 593.528 Q42.3713 599.389 42.5065 600.99 L41.0863 600.99 L41.0863 599.524 Q41.0863 596.616 40.6805 595.917 Q40.2521 595.218 38.8544 595.218 L14.9351 595.218 Q16.1525 597.631 16.1525 601.283 Z" fill="#000000" fill-rule="nonzero" fill-opacity="1" /><path clip-path="url(#clip001)" d="M627.354 1347.57 L611.354 1379.57 L643.354 1379.57 L627.354 1347.57 Z" fill="#009af9" fill-rule="evenodd" fill-opacity="1" stroke="#000000" stroke-opacity="1" stroke-width="3.2"/>
<path clip-path="url(#clip001)" d="M1160.45 938.968 L1144.45 970.968 L1176.45 970.968 L1160.45 938.968 Z" fill="#009af9" fill-rule="evenodd" fill-opacity="1" stroke="#000000" stroke-opacity="1" stroke-width="3.2"/>
<path clip-path="url(#clip001)" d="M1658.14 557.296 L1642.14 589.296 L1674.14 589.296 L1658.14 557.296 Z" fill="#009af9" fill-rule="evenodd" fill-opacity="1" stroke="#000000" stroke-opacity="1" stroke-width="3.2"/>
<path clip-path="url(#clip001)" d="M2293.4 70.3363 L2277.4 102.336 L2309.4 102.336 L2293.4 70.3363 Z" fill="#009af9" fill-rule="evenodd" fill-opacity="1" stroke="#000000" stroke-opacity="1" stroke-width="3.2"/>
<polyline clip-path="url(#clip001)" style="stroke:#009af9; stroke-linecap:round; stroke-linejoin:round; stroke-width:12; stroke-opacity:1; fill:none" stroke-dasharray="48, 30" points="627.354,1363.6 1160.45,954.9 1658.14,573.346 2293.4,86.3274 "/>
<polyline clip-path="url(#clip001)" style="stroke:#009af9; stroke-linecap:round; stroke-linejoin:round; stroke-width:4; stroke-opacity:1; fill:none" points="627.354,1363.45 1160.45,954.805 1658.14,573.296 2293.4,86.3363 "/>
<path clip-path="url(#clip001)" d="M643.354 1347.45 L611.354 1347.45 L627.354 1379.45 L643.354 1347.45 Z" fill="#009af9" fill-rule="evenodd" fill-opacity="1" stroke="#000000" stroke-opacity="1" stroke-width="3.2"/>
<path clip-path="url(#clip001)" d="M1176.45 938.805 L1144.45 938.805 L1160.45 970.805 L1176.45 938.805 Z" fill="#009af9" fill-rule="evenodd" fill-opacity="1" stroke="#000000" stroke-opacity="1" stroke-width="3.2"/>
<path clip-path="url(#clip001)" d="M1674.14 557.296 L1642.14 557.296 L1658.14 589.296 L1674.14 557.296 Z" fill="#009af9" fill-rule="evenodd" fill-opacity="1" stroke="#000000" stroke-opacity="1" stroke-width="3.2"/>
<path clip-path="url(#clip001)" d="M2309.4 70.3363 L2277.4 70.3363 L2293.4 102.336 L2309.4 70.3363 Z" fill="#009af9" fill-rule="evenodd" fill-opacity="1" stroke="#000000" stroke-opacity="1" stroke-width="3.2"/>
<path clip-path="url(#clip001)" d="M515.329 1347.57 L499.329 1379.57 L531.329 1379.57 L515.329 1347.57 Z" fill="#c271d2" fill-rule="evenodd" fill-opacity="1" stroke="#000000" stroke-opacity="1" stroke-width="3.2"/>
<path clip-path="url(#clip001)" d="M810.998 938.968 L794.998 970.968 L826.998 970.968 L810.998 938.968 Z" fill="#c271d2" fill-rule="evenodd" fill-opacity="1" stroke="#000000" stroke-opacity="1" stroke-width="3.2"/>
<path clip-path="url(#clip001)" d="M1087.21 557.296 L1071.21 589.296 L1103.21 589.296 L1087.21 557.296 Z" fill="#c271d2" fill-rule="evenodd" fill-opacity="1" stroke="#000000" stroke-opacity="1" stroke-width="3.2"/>
<path clip-path="url(#clip001)" d="M1439.63 70.3363 L1423.63 102.336 L1455.63 102.336 L1439.63 70.3363 Z" fill="#c271d2" fill-rule="evenodd" fill-opacity="1" stroke="#000000" stroke-opacity="1" stroke-width="3.2"/>
<polyline clip-path="url(#clip001)" style="stroke:#c271d2; stroke-linecap:round; stroke-linejoin:round; stroke-width:12; stroke-opacity:1; fill:none" stroke-dasharray="48, 30" points="515.329,1363.55 810.998,954.987 1087.21,573.312 1439.63,86.3206 "/>
<polyline clip-path="url(#clip001)" style="stroke:#c271d2; stroke-linecap:round; stroke-linejoin:round; stroke-width:4; stroke-opacity:1; fill:none" points="515.329,1363.49 810.998,954.947 1087.21,573.296 1439.63,86.3363 "/>
<path clip-path="url(#clip001)" d="M531.329 1347.49 L499.329 1347.49 L515.329 1379.49 L531.329 1347.49 Z" fill="#c271d2" fill-rule="evenodd" fill-opacity="1" stroke="#000000" stroke-opacity="1" stroke-width="3.2"/>
<path clip-path="url(#clip001)" d="M826.998 938.947 L794.998 938.947 L810.998 970.947 L826.998 938.947 Z" fill="#c271d2" fill-rule="evenodd" fill-opacity="1" stroke="#000000" stroke-opacity="1" stroke-width="3.2"/>
<path clip-path="url(#clip001)" d="M1103.21 557.296 L1071.21 557.296 L1087.21 589.296 L1103.21 557.296 Z" fill="#c271d2" fill-rule="evenodd" fill-opacity="1" stroke="#000000" stroke-opacity="1" stroke-width="3.2"/>
<path clip-path="url(#clip001)" d="M1455.63 70.3363 L1423.63 70.3363 L1439.63 102.336 L1455.63 70.3363 Z" fill="#c271d2" fill-rule="evenodd" fill-opacity="1" stroke="#000000" stroke-opacity="1" stroke-width="3.2"/>
<path clip-path="url(#clip001)" d="M502.086 1347.57 L486.086 1379.57 L518.086 1379.57 L502.086 1347.57 Z" fill="#ed5d92" fill-rule="evenodd" fill-opacity="1" stroke="#000000" stroke-opacity="1" stroke-width="3.2"/>
<path clip-path="url(#clip001)" d="M766.54 938.968 L750.54 970.968 L782.54 970.968 L766.54 938.968 Z" fill="#ed5d92" fill-rule="evenodd" fill-opacity="1" stroke="#000000" stroke-opacity="1" stroke-width="3.2"/>
<path clip-path="url(#clip001)" d="M1013.56 557.296 L997.561 589.296 L1029.56 589.296 L1013.56 557.296 Z" fill="#ed5d92" fill-rule="evenodd" fill-opacity="1" stroke="#000000" stroke-opacity="1" stroke-width="3.2"/>
<path clip-path="url(#clip001)" d="M1328.69 70.3363 L1312.69 102.336 L1344.69 102.336 L1328.69 70.3363 Z" fill="#ed5d92" fill-rule="evenodd" fill-opacity="1" stroke="#000000" stroke-opacity="1" stroke-width="3.2"/>
<polyline clip-path="url(#clip001)" style="stroke:#ed5d92; stroke-linecap:round; stroke-linejoin:round; stroke-width:12; stroke-opacity:1; fill:none" stroke-dasharray="48, 30" points="502.086,1363.58 766.54,954.961 1013.56,573.274 1328.69,86.352 "/>
<polyline clip-path="url(#clip001)" style="stroke:#ed5d92; stroke-linecap:round; stroke-linejoin:round; stroke-width:4; stroke-opacity:1; fill:none" points="502.086,1363.67 766.54,955.013 1013.56,573.296 1328.69,86.3363 "/>
<path clip-path="url(#clip001)" d="M518.086 1347.67 L486.086 1347.67 L502.086 1379.67 L518.086 1347.67 Z" fill="#ed5d92" fill-rule="evenodd" fill-opacity="1" stroke="#000000" stroke-opacity="1" stroke-width="3.2"/>
<path clip-path="url(#clip001)" d="M782.54 939.013 L750.54 939.013 L766.54 971.013 L782.54 939.013 Z" fill="#ed5d92" fill-rule="evenodd" fill-opacity="1" stroke="#000000" stroke-opacity="1" stroke-width="3.2"/>
<path clip-path="url(#clip001)" d="M1029.56 557.296 L997.561 557.296 L1013.56 589.296 L1029.56 557.296 Z" fill="#ed5d92" fill-rule="evenodd" fill-opacity="1" stroke="#000000" stroke-opacity="1" stroke-width="3.2"/>
<path clip-path="url(#clip001)" d="M1344.69 70.3363 L1312.69 70.3363 L1328.69 102.336 L1344.69 70.3363 Z" fill="#ed5d92" fill-rule="evenodd" fill-opacity="1" stroke="#000000" stroke-opacity="1" stroke-width="3.2"/>
<path clip-path="url(#clip001)" d="M427.899 1347.57 L411.899 1379.57 L443.899 1379.57 L427.899 1347.57 Z" fill="#e26f46" fill-rule="evenodd" fill-opacity="1" stroke="#000000" stroke-opacity="1" stroke-width="3.2"/>
<path clip-path="url(#clip001)" d="M639.786 938.968 L623.786 970.968 L655.786 970.968 L639.786 938.968 Z" fill="#e26f46" fill-rule="evenodd" fill-opacity="1" stroke="#000000" stroke-opacity="1" stroke-width="3.2"/>
<path clip-path="url(#clip001)" d="M828.836 557.296 L812.836 589.296 L844.836 589.296 L828.836 557.296 Z" fill="#e26f46" fill-rule="evenodd" fill-opacity="1" stroke="#000000" stroke-opacity="1" stroke-width="3.2"/>
<path clip-path="url(#clip001)" d="M1070.59 70.3363 L1054.59 102.336 L1086.59 102.336 L1070.59 70.3363 Z" fill="#e26f46" fill-rule="evenodd" fill-opacity="1" stroke="#000000" stroke-opacity="1" stroke-width="3.2"/>
<polyline clip-path="url(#clip001)" style="stroke:#e26f46; stroke-linecap:round; stroke-linejoin:round; stroke-width:12; stroke-opacity:1; fill:none" stroke-dasharray="48, 30" points="427.899,1369.31 639.786,947.553 828.836,571.254 1070.59,90.0547 "/>
<polyline clip-path="url(#clip001)" style="stroke:#e26f46; stroke-linecap:round; stroke-linejoin:round; stroke-width:4; stroke-opacity:1; fill:none" points="427.899,1380.9 639.786,954.1 828.836,573.296 1070.59,86.3363 "/>
<path clip-path="url(#clip001)" d="M443.899 1364.9 L411.899 1364.9 L427.899 1396.9 L443.899 1364.9 Z" fill="#e26f46" fill-rule="evenodd" fill-opacity="1" stroke="#000000" stroke-opacity="1" stroke-width="3.2"/>
<path clip-path="url(#clip001)" d="M655.786 938.1 L623.786 938.1 L639.786 970.1 L655.786 938.1 Z" fill="#e26f46" fill-rule="evenodd" fill-opacity="1" stroke="#000000" stroke-opacity="1" stroke-width="3.2"/>
<path clip-path="url(#clip001)" d="M844.836 557.296 L812.836 557.296 L828.836 589.296 L844.836 557.296 Z" fill="#e26f46" fill-rule="evenodd" fill-opacity="1" stroke="#000000" stroke-opacity="1" stroke-width="3.2"/>
<path clip-path="url(#clip001)" d="M1086.59 70.3363 L1054.59 70.3363 L1070.59 102.336 L1086.59 70.3363 Z" fill="#e26f46" fill-rule="evenodd" fill-opacity="1" stroke="#000000" stroke-opacity="1" stroke-width="3.2"/>
<path clip-path="url(#clip001)" d="M391.819 1347.57 L375.819 1379.57 L407.819 1379.57 L391.819 1347.57 Z" fill="#ac8d18" fill-rule="evenodd" fill-opacity="1" stroke="#000000" stroke-opacity="1" stroke-width="3.2"/>
<path clip-path="url(#clip001)" d="M506.275 938.968 L490.275 970.968 L522.275 970.968 L506.275 938.968 Z" fill="#ac8d18" fill-rule="evenodd" fill-opacity="1" stroke="#000000" stroke-opacity="1" stroke-width="3.2"/>
<path clip-path="url(#clip001)" d="M613.3 557.296 L597.3 589.296 L629.3 589.296 L613.3 557.296 Z" fill="#ac8d18" fill-rule="evenodd" fill-opacity="1" stroke="#000000" stroke-opacity="1" stroke-width="3.2"/>
<path clip-path="url(#clip001)" d="M749.784 70.3363 L733.784 102.336 L765.784 102.336 L749.784 70.3363 Z" fill="#ac8d18" fill-rule="evenodd" fill-opacity="1" stroke="#000000" stroke-opacity="1" stroke-width="3.2"/>
<polyline clip-path="url(#clip001)" style="stroke:#ac8d18; stroke-linecap:round; stroke-linejoin:round; stroke-width:12; stroke-opacity:1; fill:none" stroke-dasharray="48, 30" points="391.819,1363.48 506.275,955.115 613.3,573.265 749.784,86.3089 "/>
<polyline clip-path="url(#clip001)" style="stroke:#ac8d18; stroke-linecap:round; stroke-linejoin:round; stroke-width:4; stroke-opacity:1; fill:none" points="391.819,1363.52 506.275,955.15 613.3,573.296 749.784,86.3363 "/>
<path clip-path="url(#clip001)" d="M407.819 1347.52 L375.819 1347.52 L391.819 1379.52 L407.819 1347.52 Z" fill="#ac8d18" fill-rule="evenodd" fill-opacity="1" stroke="#000000" stroke-opacity="1" stroke-width="3.2"/>
<path clip-path="url(#clip001)" d="M522.275 939.15 L490.275 939.15 L506.275 971.15 L522.275 939.15 Z" fill="#ac8d18" fill-rule="evenodd" fill-opacity="1" stroke="#000000" stroke-opacity="1" stroke-width="3.2"/>
<path clip-path="url(#clip001)" d="M629.3 557.296 L597.3 557.296 L613.3 589.296 L629.3 557.296 Z" fill="#ac8d18" fill-rule="evenodd" fill-opacity="1" stroke="#000000" stroke-opacity="1" stroke-width="3.2"/>
<path clip-path="url(#clip001)" d="M765.784 70.3363 L733.784 70.3363 L749.784 102.336 L765.784 70.3363 Z" fill="#ac8d18" fill-rule="evenodd" fill-opacity="1" stroke="#000000" stroke-opacity="1" stroke-width="3.2"/>
<path clip-path="url(#clip001)" d="M383.575 1347.57 L367.575 1379.57 L399.575 1379.57 L383.575 1347.57 Z" fill="#c68125" fill-rule="evenodd" fill-opacity="1" stroke="#000000" stroke-opacity="1" stroke-width="3.2"/>
<path clip-path="url(#clip001)" d="M486.006 938.968 L470.006 970.968 L502.006 970.968 L486.006 938.968 Z" fill="#c68125" fill-rule="evenodd" fill-opacity="1" stroke="#000000" stroke-opacity="1" stroke-width="3.2"/>
<path clip-path="url(#clip001)" d="M581.814 557.296 L565.814 589.296 L597.814 589.296 L581.814 557.296 Z" fill="#c68125" fill-rule="evenodd" fill-opacity="1" stroke="#000000" stroke-opacity="1" stroke-width="3.2"/>
<path clip-path="url(#clip001)" d="M703.974 70.3363 L687.974 102.336 L719.974 102.336 L703.974 70.3363 Z" fill="#c68125" fill-rule="evenodd" fill-opacity="1" stroke="#000000" stroke-opacity="1" stroke-width="3.2"/>
<polyline clip-path="url(#clip001)" style="stroke:#c68125; stroke-linecap:round; stroke-linejoin:round; stroke-width:12; stroke-opacity:1; fill:none" stroke-dasharray="48, 30" points="383.575,1363.46 486.006,955.157 581.814,573.25 703.974,86.3043 "/>
<polyline clip-path="url(#clip001)" style="stroke:#c68125; stroke-linecap:round; stroke-linejoin:round; stroke-width:4; stroke-opacity:1; fill:none" points="383.575,1363.53 486.006,955.215 581.814,573.296 703.974,86.3363 "/>
<path clip-path="url(#clip001)" d="M399.575 1347.53 L367.575 1347.53 L383.575 1379.53 L399.575 1347.53 Z" fill="#c68125" fill-rule="evenodd" fill-opacity="1" stroke="#000000" stroke-opacity="1" stroke-width="3.2"/>
<path clip-path="url(#clip001)" d="M502.006 939.215 L470.006 939.215 L486.006 971.215 L502.006 939.215 Z" fill="#c68125" fill-rule="evenodd" fill-opacity="1" stroke="#000000" stroke-opacity="1" stroke-width="3.2"/>
<path clip-path="url(#clip001)" d="M597.814 557.296 L565.814 557.296 L581.814 589.296 L597.814 557.296 Z" fill="#c68125" fill-rule="evenodd" fill-opacity="1" stroke="#000000" stroke-opacity="1" stroke-width="3.2"/>
<path clip-path="url(#clip001)" d="M719.974 70.3363 L687.974 70.3363 L703.974 102.336 L719.974 70.3363 Z" fill="#c68125" fill-rule="evenodd" fill-opacity="1" stroke="#000000" stroke-opacity="1" stroke-width="3.2"/>
<path clip-path="url(#clip001)" d="M321.685 1347.57 L305.685 1379.57 L337.685 1379.57 L321.685 1347.57 Z" fill="#3da44d" fill-rule="evenodd" fill-opacity="1" stroke="#000000" stroke-opacity="1" stroke-width="3.2"/>
<path clip-path="url(#clip001)" d="M344.252 938.968 L328.252 970.968 L360.252 970.968 L344.252 938.968 Z" fill="#3da44d" fill-rule="evenodd" fill-opacity="1" stroke="#000000" stroke-opacity="1" stroke-width="3.2"/>
<path clip-path="url(#clip001)" d="M365.333 557.296 L349.333 589.296 L381.333 589.296 L365.333 557.296 Z" fill="#3da44d" fill-rule="evenodd" fill-opacity="1" stroke="#000000" stroke-opacity="1" stroke-width="3.2"/>
<path clip-path="url(#clip001)" d="M392.224 70.3363 L376.224 102.336 L408.224 102.336 L392.224 70.3363 Z" fill="#3da44d" fill-rule="evenodd" fill-opacity="1" stroke="#000000" stroke-opacity="1" stroke-width="3.2"/>
<polyline clip-path="url(#clip001)" style="stroke:#3da44d; stroke-linecap:round; stroke-linejoin:round; stroke-width:12; stroke-opacity:1; fill:none" stroke-dasharray="48, 30" points="321.685,1363.58 344.252,954.967 365.333,573.267 392.224,86.3546 "/>
<polyline clip-path="url(#clip001)" style="stroke:#3da44d; stroke-linecap:round; stroke-linejoin:round; stroke-width:4; stroke-opacity:1; fill:none" points="321.685,1363.69 344.252,955.034 365.333,573.296 392.224,86.3363 "/>
<path clip-path="url(#clip001)" d="M337.685 1347.69 L305.685 1347.69 L321.685 1379.69 L337.685 1347.69 Z" fill="#3da44d" fill-rule="evenodd" fill-opacity="1" stroke="#000000" stroke-opacity="1" stroke-width="3.2"/>
<path clip-path="url(#clip001)" d="M360.252 939.034 L328.252 939.034 L344.252 971.034 L360.252 939.034 Z" fill="#3da44d" fill-rule="evenodd" fill-opacity="1" stroke="#000000" stroke-opacity="1" stroke-width="3.2"/>
<path clip-path="url(#clip001)" d="M381.333 557.296 L349.333 557.296 L365.333 589.296 L381.333 557.296 Z" fill="#3da44d" fill-rule="evenodd" fill-opacity="1" stroke="#000000" stroke-opacity="1" stroke-width="3.2"/>
<path clip-path="url(#clip001)" d="M408.224 70.3363 L376.224 70.3363 L392.224 102.336 L408.224 70.3363 Z" fill="#3da44d" fill-rule="evenodd" fill-opacity="1" stroke="#000000" stroke-opacity="1" stroke-width="3.2"/>
<path clip-path="url(#clip001)" d="M316.009 1347.57 L300.009 1379.57 L332.009 1379.57 L316.009 1347.57 Z" fill="#00a9ad" fill-rule="evenodd" fill-opacity="1" stroke="#000000" stroke-opacity="1" stroke-width="3.2"/>
<path clip-path="url(#clip001)" d="M330.333 938.968 L314.333 970.968 L346.333 970.968 L330.333 938.968 Z" fill="#00a9ad" fill-rule="evenodd" fill-opacity="1" stroke="#000000" stroke-opacity="1" stroke-width="3.2"/>
<path clip-path="url(#clip001)" d="M343.847 557.296 L327.847 589.296 L359.847 589.296 L343.847 557.296 Z" fill="#00a9ad" fill-rule="evenodd" fill-opacity="1" stroke="#000000" stroke-opacity="1" stroke-width="3.2"/>
<path clip-path="url(#clip001)" d="M361.008 70.3363 L345.008 102.336 L377.008 102.336 L361.008 70.3363 Z" fill="#00a9ad" fill-rule="evenodd" fill-opacity="1" stroke="#000000" stroke-opacity="1" stroke-width="3.2"/>
<polyline clip-path="url(#clip001)" style="stroke:#00a9ad; stroke-linecap:round; stroke-linejoin:round; stroke-width:12; stroke-opacity:1; fill:none" stroke-dasharray="48, 30" points="316.009,1362.74 330.333,956.36 343.847,572.98 361.008,86.0886 "/>
<polyline clip-path="url(#clip001)" style="stroke:#00a9ad; stroke-linecap:round; stroke-linejoin:round; stroke-width:4; stroke-opacity:1; fill:none" points="316.009,1363.17 330.333,956.729 343.847,573.296 361.008,86.3363 "/>
<path clip-path="url(#clip001)" d="M332.009 1347.17 L300.009 1347.17 L316.009 1379.17 L332.009 1347.17 Z" fill="#00a9ad" fill-rule="evenodd" fill-opacity="1" stroke="#000000" stroke-opacity="1" stroke-width="3.2"/>
<path clip-path="url(#clip001)" d="M346.333 940.729 L314.333 940.729 L330.333 972.729 L346.333 940.729 Z" fill="#00a9ad" fill-rule="evenodd" fill-opacity="1" stroke="#000000" stroke-opacity="1" stroke-width="3.2"/>
<path clip-path="url(#clip001)" d="M359.847 557.296 L327.847 557.296 L343.847 589.296 L359.847 557.296 Z" fill="#00a9ad" fill-rule="evenodd" fill-opacity="1" stroke="#000000" stroke-opacity="1" stroke-width="3.2"/>
<path clip-path="url(#clip001)" d="M377.008 70.3363 L345.008 70.3363 L361.008 102.336 L377.008 70.3363 Z" fill="#00a9ad" fill-rule="evenodd" fill-opacity="1" stroke="#000000" stroke-opacity="1" stroke-width="3.2"/>
<path clip-path="url(#clip001)" d="M314.793 1347.57 L298.793 1379.57 L330.793 1379.57 L314.793 1347.57 Z" fill="#00a98d" fill-rule="evenodd" fill-opacity="1" stroke="#000000" stroke-opacity="1" stroke-width="3.2"/>
<path clip-path="url(#clip001)" d="M328.036 938.968 L312.036 970.968 L344.036 970.968 L328.036 938.968 Z" fill="#00a98d" fill-rule="evenodd" fill-opacity="1" stroke="#000000" stroke-opacity="1" stroke-width="3.2"/>
<path clip-path="url(#clip001)" d="M340.468 557.296 L324.468 589.296 L356.468 589.296 L340.468 557.296 Z" fill="#00a98d" fill-rule="evenodd" fill-opacity="1" stroke="#000000" stroke-opacity="1" stroke-width="3.2"/>
<path clip-path="url(#clip001)" d="M356.279 70.3363 L340.279 102.336 L372.279 102.336 L356.279 70.3363 Z" fill="#00a98d" fill-rule="evenodd" fill-opacity="1" stroke="#000000" stroke-opacity="1" stroke-width="3.2"/>
<polyline clip-path="url(#clip001)" style="stroke:#00a98d; stroke-linecap:round; stroke-linejoin:round; stroke-width:12; stroke-opacity:1; fill:none" stroke-dasharray="48, 30" points="314.793,1363.24 328.036,955.629 340.468,572.97 356.279,86.3271 "/>
<polyline clip-path="url(#clip001)" style="stroke:#00a98d; stroke-linecap:round; stroke-linejoin:round; stroke-width:4; stroke-opacity:1; fill:none" points="314.793,1364.09 328.036,956.205 340.468,573.296 356.279,86.3363 "/>
<path clip-path="url(#clip001)" d="M330.793 1348.09 L298.793 1348.09 L314.793 1380.09 L330.793 1348.09 Z" fill="#00a98d" fill-rule="evenodd" fill-opacity="1" stroke="#000000" stroke-opacity="1" stroke-width="3.2"/>
<path clip-path="url(#clip001)" d="M344.036 940.205 L312.036 940.205 L328.036 972.205 L344.036 940.205 Z" fill="#00a98d" fill-rule="evenodd" fill-opacity="1" stroke="#000000" stroke-opacity="1" stroke-width="3.2"/>
<path clip-path="url(#clip001)" d="M356.468 557.296 L324.468 557.296 L340.468 589.296 L356.468 557.296 Z" fill="#00a98d" fill-rule="evenodd" fill-opacity="1" stroke="#000000" stroke-opacity="1" stroke-width="3.2"/>
<path clip-path="url(#clip001)" d="M372.279 70.3363 L340.279 70.3363 L356.279 102.336 L372.279 70.3363 Z" fill="#00a98d" fill-rule="evenodd" fill-opacity="1" stroke="#000000" stroke-opacity="1" stroke-width="3.2"/>
<path clip-path="url(#clip000)" d="M1821.33 1374 L2282.85 1374 L2282.85 1166.64 L1821.33 1166.64  Z" fill="#ffffff" fill-rule="evenodd" fill-opacity="1"/>
<polyline clip-path="url(#clip000)" style="stroke:#000000; stroke-linecap:round; stroke-linejoin:round; stroke-width:4; stroke-opacity:1; fill:none" points="1821.33,1374 2282.85,1374 2282.85,1166.64 1821.33,1166.64 1821.33,1374 "/>
<path clip-path="url(#clip000)" d="M1914.55 1195.72 L1891.79 1241.23 L1937.3 1241.23 L1914.55 1195.72 Z" fill="#808080" fill-rule="evenodd" fill-opacity="1" stroke="#000000" stroke-opacity="1" stroke-width="4.55111"/>
<path clip-path="url(#clip000)" d="M2035.63 1203.86 L2035.63 1208.79 Q2033.27 1206.59 2030.58 1205.5 Q2027.92 1204.42 2024.91 1204.42 Q2018.99 1204.42 2015.84 1208.05 Q2012.69 1211.66 2012.69 1218.51 Q2012.69 1225.34 2015.84 1228.98 Q2018.99 1232.59 2024.91 1232.59 Q2027.92 1232.59 2030.58 1231.5 Q2033.27 1230.41 2035.63 1228.21 L2035.63 1233.1 Q2033.18 1234.76 2030.42 1235.6 Q2027.69 1236.43 2024.64 1236.43 Q2016.79 1236.43 2012.27 1231.64 Q2007.76 1226.82 2007.76 1218.51 Q2007.76 1210.18 2012.27 1205.39 Q2016.79 1200.57 2024.64 1200.57 Q2027.74 1200.57 2030.47 1201.41 Q2033.22 1202.22 2035.63 1203.86 Z" fill="#000000" fill-rule="nonzero" fill-opacity="1" /><path clip-path="url(#clip000)" d="M2042.85 1201.2 L2062.71 1201.2 L2062.71 1205.13 L2047.53 1205.13 L2047.53 1215.32 L2061.23 1215.32 L2061.23 1219.25 L2047.53 1219.25 L2047.53 1235.76 L2042.85 1235.76 L2042.85 1201.2 Z" fill="#000000" fill-rule="nonzero" fill-opacity="1" /><path clip-path="url(#clip000)" d="M2074.8 1205.04 L2074.8 1231.92 L2080.45 1231.92 Q2087.6 1231.92 2090.91 1228.68 Q2094.24 1225.43 2094.24 1218.44 Q2094.24 1211.5 2090.91 1208.28 Q2087.6 1205.04 2080.45 1205.04 L2074.8 1205.04 M2070.12 1201.2 L2079.73 1201.2 Q2089.77 1201.2 2094.47 1205.39 Q2099.17 1209.55 2099.17 1218.44 Q2099.17 1227.38 2094.45 1231.57 Q2089.73 1235.76 2079.73 1235.76 L2070.12 1235.76 L2070.12 1201.2 Z" fill="#000000" fill-rule="nonzero" fill-opacity="1" /><polyline clip-path="url(#clip000)" style="stroke:#808080; stroke-linecap:round; stroke-linejoin:round; stroke-width:4; stroke-opacity:1; fill:none" points="1844.64,1270.32 1984.46,1270.32 "/>
<path clip-path="url(#clip000)" d="M1936.12 1248.74 L1892.97 1248.74 L1914.55 1291.9 L1936.12 1248.74 Z" fill="#808080" fill-rule="evenodd" fill-opacity="1" stroke="#000000" stroke-opacity="1" stroke-width="4.55111"/>
<path clip-path="url(#clip000)" d="M2023.78 1256.21 Q2018.69 1256.21 2015.68 1260.01 Q2012.69 1263.8 2012.69 1270.35 Q2012.69 1276.88 2015.68 1280.68 Q2018.69 1284.47 2023.78 1284.47 Q2028.87 1284.47 2031.83 1280.68 Q2034.82 1276.88 2034.82 1270.35 Q2034.82 1263.8 2031.83 1260.01 Q2028.87 1256.21 2023.78 1256.21 M2023.78 1252.41 Q2031.05 1252.41 2035.4 1257.3 Q2039.75 1262.16 2039.75 1270.35 Q2039.75 1278.52 2035.4 1283.41 Q2031.05 1288.27 2023.78 1288.27 Q2016.49 1288.27 2012.11 1283.41 Q2007.76 1278.55 2007.76 1270.35 Q2007.76 1262.16 2012.11 1257.3 Q2016.49 1252.41 2023.78 1252.41 Z" fill="#000000" fill-rule="nonzero" fill-opacity="1" /><path clip-path="url(#clip000)" d="M2046.88 1251.58 L2051.14 1251.58 L2051.14 1287.6 L2046.88 1287.6 L2046.88 1251.58 Z" fill="#000000" fill-rule="nonzero" fill-opacity="1" /><path clip-path="url(#clip000)" d="M2077.11 1265.61 L2077.11 1251.58 L2081.37 1251.58 L2081.37 1287.6 L2077.11 1287.6 L2077.11 1283.71 Q2075.77 1286.02 2073.71 1287.16 Q2071.67 1288.27 2068.8 1288.27 Q2064.1 1288.27 2061.14 1284.52 Q2058.2 1280.77 2058.2 1274.66 Q2058.2 1268.55 2061.14 1264.8 Q2064.1 1261.05 2068.8 1261.05 Q2071.67 1261.05 2073.71 1262.18 Q2075.77 1263.29 2077.11 1265.61 M2062.6 1274.66 Q2062.6 1279.36 2064.52 1282.04 Q2066.46 1284.7 2069.84 1284.7 Q2073.22 1284.7 2075.17 1282.04 Q2077.11 1279.36 2077.11 1274.66 Q2077.11 1269.96 2075.17 1267.3 Q2073.22 1264.61 2069.84 1264.61 Q2066.46 1264.61 2064.52 1267.3 Q2062.6 1269.96 2062.6 1274.66 Z" fill="#000000" fill-rule="nonzero" fill-opacity="1" /><path clip-path="url(#clip000)" d="M2105.21 1261.67 L2109.47 1261.67 L2109.47 1287.6 L2105.21 1287.6 L2105.21 1261.67 M2105.21 1251.58 L2109.47 1251.58 L2109.47 1256.97 L2105.21 1256.97 L2105.21 1251.58 Z" fill="#000000" fill-rule="nonzero" fill-opacity="1" /><path clip-path="url(#clip000)" d="M2139.94 1271.95 L2139.94 1287.6 L2135.68 1287.6 L2135.68 1272.09 Q2135.68 1268.41 2134.24 1266.58 Q2132.81 1264.75 2129.94 1264.75 Q2126.49 1264.75 2124.5 1266.95 Q2122.51 1269.15 2122.51 1272.95 L2122.51 1287.6 L2118.22 1287.6 L2118.22 1261.67 L2122.51 1261.67 L2122.51 1265.7 Q2124.03 1263.36 2126.09 1262.21 Q2128.18 1261.05 2130.88 1261.05 Q2135.35 1261.05 2137.64 1263.83 Q2139.94 1266.58 2139.94 1271.95 Z" fill="#000000" fill-rule="nonzero" fill-opacity="1" /><path clip-path="url(#clip000)" d="M2152.64 1254.31 L2152.64 1261.67 L2161.42 1261.67 L2161.42 1264.98 L2152.64 1264.98 L2152.64 1279.06 Q2152.64 1282.23 2153.5 1283.13 Q2154.38 1284.03 2157.04 1284.03 L2161.42 1284.03 L2161.42 1287.6 L2157.04 1287.6 Q2152.11 1287.6 2150.24 1285.77 Q2148.36 1283.92 2148.36 1279.06 L2148.36 1264.98 L2145.24 1264.98 L2145.24 1261.67 L2148.36 1261.67 L2148.36 1254.31 L2152.64 1254.31 Z" fill="#000000" fill-rule="nonzero" fill-opacity="1" /><path clip-path="url(#clip000)" d="M2189.19 1273.57 L2189.19 1275.65 L2169.61 1275.65 Q2169.89 1280.05 2172.25 1282.37 Q2174.63 1284.66 2178.87 1284.66 Q2181.32 1284.66 2183.62 1284.06 Q2185.93 1283.45 2188.2 1282.25 L2188.2 1286.28 Q2185.91 1287.25 2183.5 1287.76 Q2181.09 1288.27 2178.62 1288.27 Q2172.41 1288.27 2168.78 1284.66 Q2165.17 1281.05 2165.17 1274.89 Q2165.17 1268.52 2168.59 1264.8 Q2172.04 1261.05 2177.88 1261.05 Q2183.11 1261.05 2186.14 1264.43 Q2189.19 1267.78 2189.19 1273.57 M2184.94 1272.32 Q2184.89 1268.83 2182.97 1266.74 Q2181.07 1264.66 2177.92 1264.66 Q2174.36 1264.66 2172.2 1266.67 Q2170.07 1268.69 2169.75 1272.34 L2184.94 1272.32 Z" fill="#000000" fill-rule="nonzero" fill-opacity="1" /><path clip-path="url(#clip000)" d="M2211.21 1265.65 Q2210.49 1265.24 2209.63 1265.05 Q2208.8 1264.84 2207.78 1264.84 Q2204.17 1264.84 2202.23 1267.21 Q2200.31 1269.54 2200.31 1273.94 L2200.31 1287.6 L2196.02 1287.6 L2196.02 1261.67 L2200.31 1261.67 L2200.31 1265.7 Q2201.65 1263.34 2203.8 1262.21 Q2205.95 1261.05 2209.03 1261.05 Q2209.47 1261.05 2210 1261.12 Q2210.54 1261.16 2211.19 1261.28 L2211.21 1265.65 Z" fill="#000000" fill-rule="nonzero" fill-opacity="1" /><path clip-path="url(#clip000)" d="M2219.8 1283.71 L2219.8 1297.46 L2215.51 1297.46 L2215.51 1261.67 L2219.8 1261.67 L2219.8 1265.61 Q2221.14 1263.29 2223.18 1262.18 Q2225.24 1261.05 2228.08 1261.05 Q2232.81 1261.05 2235.75 1264.8 Q2238.71 1268.55 2238.71 1274.66 Q2238.71 1280.77 2235.75 1284.52 Q2232.81 1288.27 2228.08 1288.27 Q2225.24 1288.27 2223.18 1287.16 Q2221.14 1286.02 2219.8 1283.71 M2234.29 1274.66 Q2234.29 1269.96 2232.34 1267.3 Q2230.42 1264.61 2227.04 1264.61 Q2223.66 1264.61 2221.72 1267.3 Q2219.8 1269.96 2219.8 1274.66 Q2219.8 1279.36 2221.72 1282.04 Q2223.66 1284.7 2227.04 1284.7 Q2230.42 1284.7 2232.34 1282.04 Q2234.29 1279.36 2234.29 1274.66 Z" fill="#000000" fill-rule="nonzero" fill-opacity="1" /><polyline clip-path="url(#clip000)" style="stroke:#808080; stroke-linecap:round; stroke-linejoin:round; stroke-width:12; stroke-opacity:1; fill:none" stroke-dasharray="48, 30" points="1844.64,1322.16 1984.46,1322.16 "/>
<path clip-path="url(#clip000)" d="M2007.76 1304.88 L2014.06 1304.88 L2029.38 1333.79 L2029.38 1304.88 L2033.92 1304.88 L2033.92 1339.44 L2027.62 1339.44 L2012.3 1310.53 L2012.3 1339.44 L2007.76 1339.44 L2007.76 1304.88 Z" fill="#000000" fill-rule="nonzero" fill-opacity="1" /><path clip-path="url(#clip000)" d="M2065.21 1325.41 L2065.21 1327.49 L2045.63 1327.49 Q2045.91 1331.89 2048.27 1334.21 Q2050.65 1336.5 2054.89 1336.5 Q2057.34 1336.5 2059.64 1335.9 Q2061.95 1335.29 2064.22 1334.09 L2064.22 1338.12 Q2061.93 1339.09 2059.52 1339.6 Q2057.11 1340.11 2054.64 1340.11 Q2048.43 1340.11 2044.8 1336.5 Q2041.19 1332.89 2041.19 1326.73 Q2041.19 1320.36 2044.61 1316.64 Q2048.06 1312.89 2053.89 1312.89 Q2059.13 1312.89 2062.16 1316.27 Q2065.21 1319.62 2065.21 1325.41 M2060.95 1324.16 Q2060.91 1320.67 2058.99 1318.58 Q2057.09 1316.5 2053.94 1316.5 Q2050.38 1316.5 2048.22 1318.51 Q2046.09 1320.53 2045.77 1324.18 L2060.95 1324.16 Z" fill="#000000" fill-rule="nonzero" fill-opacity="1" /><path clip-path="url(#clip000)" d="M2069.73 1313.51 L2073.99 1313.51 L2079.31 1333.74 L2084.61 1313.51 L2089.64 1313.51 L2094.96 1333.74 L2100.26 1313.51 L2104.52 1313.51 L2097.74 1339.44 L2092.71 1339.44 L2087.14 1318.19 L2081.53 1339.44 L2076.51 1339.44 L2069.73 1313.51 Z" fill="#000000" fill-rule="nonzero" fill-opacity="1" /><path clip-path="url(#clip000)" d="M2126.05 1313.51 L2130.31 1313.51 L2130.31 1339.44 L2126.05 1339.44 L2126.05 1313.51 M2126.05 1303.42 L2130.31 1303.42 L2130.31 1308.81 L2126.05 1308.81 L2126.05 1303.42 Z" fill="#000000" fill-rule="nonzero" fill-opacity="1" /><path clip-path="url(#clip000)" d="M2160.77 1323.79 L2160.77 1339.44 L2156.51 1339.44 L2156.51 1323.93 Q2156.51 1320.25 2155.07 1318.42 Q2153.64 1316.59 2150.77 1316.59 Q2147.32 1316.59 2145.33 1318.79 Q2143.34 1320.99 2143.34 1324.79 L2143.34 1339.44 L2139.06 1339.44 L2139.06 1313.51 L2143.34 1313.51 L2143.34 1317.54 Q2144.87 1315.2 2146.93 1314.05 Q2149.01 1312.89 2151.72 1312.89 Q2156.19 1312.89 2158.48 1315.67 Q2160.77 1318.42 2160.77 1323.79 Z" fill="#000000" fill-rule="nonzero" fill-opacity="1" /><path clip-path="url(#clip000)" d="M2173.48 1306.15 L2173.48 1313.51 L2182.25 1313.51 L2182.25 1316.82 L2173.48 1316.82 L2173.48 1330.9 Q2173.48 1334.07 2174.33 1334.97 Q2175.21 1335.87 2177.88 1335.87 L2182.25 1335.87 L2182.25 1339.44 L2177.88 1339.44 Q2172.94 1339.44 2171.07 1337.61 Q2169.19 1335.76 2169.19 1330.9 L2169.19 1316.82 L2166.07 1316.82 L2166.07 1313.51 L2169.19 1313.51 L2169.19 1306.15 L2173.48 1306.15 Z" fill="#000000" fill-rule="nonzero" fill-opacity="1" /><path clip-path="url(#clip000)" d="M2210.03 1325.41 L2210.03 1327.49 L2190.44 1327.49 Q2190.72 1331.89 2193.08 1334.21 Q2195.47 1336.5 2199.7 1336.5 Q2202.16 1336.5 2204.45 1335.9 Q2206.76 1335.29 2209.03 1334.09 L2209.03 1338.12 Q2206.74 1339.09 2204.33 1339.6 Q2201.93 1340.11 2199.45 1340.11 Q2193.25 1340.11 2189.61 1336.5 Q2186 1332.89 2186 1326.73 Q2186 1320.36 2189.43 1316.64 Q2192.88 1312.89 2198.71 1312.89 Q2203.94 1312.89 2206.97 1316.27 Q2210.03 1319.62 2210.03 1325.41 M2205.77 1324.16 Q2205.72 1320.67 2203.8 1318.58 Q2201.9 1316.5 2198.75 1316.5 Q2195.19 1316.5 2193.04 1318.51 Q2190.91 1320.53 2190.58 1324.18 L2205.77 1324.16 Z" fill="#000000" fill-rule="nonzero" fill-opacity="1" /><path clip-path="url(#clip000)" d="M2232.04 1317.49 Q2231.32 1317.08 2230.47 1316.89 Q2229.63 1316.68 2228.62 1316.68 Q2225 1316.68 2223.06 1319.05 Q2221.14 1321.38 2221.14 1325.78 L2221.14 1339.44 L2216.86 1339.44 L2216.86 1313.51 L2221.14 1313.51 L2221.14 1317.54 Q2222.48 1315.18 2224.63 1314.05 Q2226.79 1312.89 2229.87 1312.89 Q2230.31 1312.89 2230.84 1312.96 Q2231.37 1313 2232.02 1313.12 L2232.04 1317.49 Z" fill="#000000" fill-rule="nonzero" fill-opacity="1" /><path clip-path="url(#clip000)" d="M2240.63 1335.55 L2240.63 1349.3 L2236.35 1349.3 L2236.35 1313.51 L2240.63 1313.51 L2240.63 1317.45 Q2241.97 1315.13 2244.01 1314.02 Q2246.07 1312.89 2248.92 1312.89 Q2253.64 1312.89 2256.58 1316.64 Q2259.54 1320.39 2259.54 1326.5 Q2259.54 1332.61 2256.58 1336.36 Q2253.64 1340.11 2248.92 1340.11 Q2246.07 1340.11 2244.01 1339 Q2241.97 1337.86 2240.63 1335.55 M2255.12 1326.5 Q2255.12 1321.8 2253.18 1319.14 Q2251.25 1316.45 2247.88 1316.45 Q2244.5 1316.45 2242.55 1319.14 Q2240.63 1321.8 2240.63 1326.5 Q2240.63 1331.2 2242.55 1333.88 Q2244.5 1336.54 2247.88 1336.54 Q2251.25 1336.54 2253.18 1333.88 Q2255.12 1331.2 2255.12 1326.5 Z" fill="#000000" fill-rule="nonzero" fill-opacity="1" /></svg>
