<?xml version="1.0" encoding="utf-8"?>
<svg xmlns="http://www.w3.org/2000/svg" xmlns:xlink="http://www.w3.org/1999/xlink" width="600" height="400" viewBox="0 0 2400 1600">
<defs>
  <clipPath id="clip360">
    <rect x="0" y="0" width="2400" height="1600"/>
  </clipPath>
</defs>
<path clip-path="url(#clip360)" d="M0 1600 L2400 1600 L2400 0 L0 0  Z" fill="#ffffff" fill-rule="evenodd" fill-opacity="1"/>
<defs>
  <clipPath id="clip361">
    <rect x="232" y="47" width="2121" height="1440"/>
  </clipPath>
</defs>
<path clip-path="url(#clip360)" d="M232.389 1486.45 L2352.76 1486.45 L2352.76 47.2441 L232.389 47.2441  Z" fill="#ffffff" fill-rule="evenodd" fill-opacity="1"/>
<polyline clip-path="url(#clip361)" style="stroke:#000000; stroke-linecap:round; stroke-linejoin:round; stroke-width:2; stroke-opacity:0.1; fill:none" points="232.389,1486.45 232.389,47.2441 "/>
<polyline clip-path="url(#clip361)" style="stroke:#000000; stroke-linecap:round; stroke-linejoin:round; stroke-width:2; stroke-opacity:0.1; fill:none" points="762.481,1486.45 762.481,47.2441 "/>
<polyline clip-path="url(#clip361)" style="stroke:#000000; stroke-linecap:round; stroke-linejoin:round; stroke-width:2; stroke-opacity:0.1; fill:none" points="1292.57,1486.45 1292.57,47.2441 "/>
<polyline clip-path="url(#clip361)" style="stroke:#000000; stroke-linecap:round; stroke-linejoin:round; stroke-width:2; stroke-opacity:0.1; fill:none" points="1822.66,1486.45 1822.66,47.2441 "/>
<polyline clip-path="url(#clip361)" style="stroke:#000000; stroke-linecap:round; stroke-linejoin:round; stroke-width:2; stroke-opacity:0.1; fill:none" points="2352.76,1486.45 2352.76,47.2441 "/>
<polyline clip-path="url(#clip361)" style="stroke:#000000; stroke-linecap:round; stroke-linejoin:round; stroke-width:2; stroke-opacity:0.1; fill:none" points="232.389,1486.45 2352.76,1486.45 "/>
<polyline clip-path="url(#clip361)" style="stroke:#000000; stroke-linecap:round; stroke-linejoin:round; stroke-width:2; stroke-opacity:0.1; fill:none" points="232.389,1006.71 2352.76,1006.71 "/>
<polyline clip-path="url(#clip361)" style="stroke:#000000; stroke-linecap:round; stroke-linejoin:round; stroke-width:2; stroke-opacity:0.1; fill:none" points="232.389,526.979 2352.76,526.979 "/>
<polyline clip-path="url(#clip361)" style="stroke:#000000; stroke-linecap:round; stroke-linejoin:round; stroke-width:2; stroke-opacity:0.1; fill:none" points="232.389,47.2441 2352.76,47.2441 "/>
<polyline clip-path="url(#clip360)" style="stroke:#000000; stroke-linecap:round; stroke-linejoin:round; stroke-width:4; stroke-opacity:1; fill:none" points="232.389,1486.45 2352.76,1486.45 "/>
<polyline clip-path="url(#clip360)" style="stroke:#000000; stroke-linecap:round; stroke-linejoin:round; stroke-width:4; stroke-opacity:1; fill:none" points="232.389,1486.45 232.389,1467.55 "/>
<polyline clip-path="url(#clip360)" style="stroke:#000000; stroke-linecap:round; stroke-linejoin:round; stroke-width:4; stroke-opacity:1; fill:none" points="762.481,1486.45 762.481,1467.55 "/>
<polyline clip-path="url(#clip360)" style="stroke:#000000; stroke-linecap:round; stroke-linejoin:round; stroke-width:4; stroke-opacity:1; fill:none" points="1292.57,1486.45 1292.57,1467.55 "/>
<polyline clip-path="url(#clip360)" style="stroke:#000000; stroke-linecap:round; stroke-linejoin:round; stroke-width:4; stroke-opacity:1; fill:none" points="1822.66,1486.45 1822.66,1467.55 "/>
<polyline clip-path="url(#clip360)" style="stroke:#000000; stroke-linecap:round; stroke-linejoin:round; stroke-width:4; stroke-opacity:1; fill:none" points="2352.76,1486.45 2352.76,1467.55 "/>
<path clip-path="url(#clip360)" d="M184.461 1544.91 L192.1 1544.91 L192.1 1518.55 L183.79 1520.21 L183.79 1515.95 L192.054 1514.29 L196.73 1514.29 L196.73 1544.91 L204.369 1544.91 L204.369 1548.85 L184.461 1548.85 L184.461 1544.91 Z" fill="#000000" fill-rule="nonzero" fill-opacity="1" /><path clip-path="url(#clip360)" d="M213.813 1542.97 L218.697 1542.97 L218.697 1548.85 L213.813 1548.85 L213.813 1542.97 Z" fill="#000000" fill-rule="nonzero" fill-opacity="1" /><path clip-path="url(#clip360)" d="M238.882 1517.37 Q235.271 1517.37 233.443 1520.93 Q231.637 1524.47 231.637 1531.6 Q231.637 1538.71 233.443 1542.27 Q235.271 1545.82 238.882 1545.82 Q242.517 1545.82 244.322 1542.27 Q246.151 1538.71 246.151 1531.6 Q246.151 1524.47 244.322 1520.93 Q242.517 1517.37 238.882 1517.37 M238.882 1513.66 Q244.693 1513.66 247.748 1518.27 Q250.827 1522.85 250.827 1531.6 Q250.827 1540.33 247.748 1544.94 Q244.693 1549.52 238.882 1549.52 Q233.072 1549.52 229.994 1544.94 Q226.938 1540.33 226.938 1531.6 Q226.938 1522.85 229.994 1518.27 Q233.072 1513.66 238.882 1513.66 Z" fill="#000000" fill-rule="nonzero" fill-opacity="1" /><path clip-path="url(#clip360)" d="M269.044 1517.37 Q265.433 1517.37 263.604 1520.93 Q261.799 1524.47 261.799 1531.6 Q261.799 1538.71 263.604 1542.27 Q265.433 1545.82 269.044 1545.82 Q272.678 1545.82 274.484 1542.27 Q276.313 1538.71 276.313 1531.6 Q276.313 1524.47 274.484 1520.93 Q272.678 1517.37 269.044 1517.37 M269.044 1513.66 Q274.854 1513.66 277.91 1518.27 Q280.989 1522.85 280.989 1531.6 Q280.989 1540.33 277.91 1544.94 Q274.854 1549.52 269.044 1549.52 Q263.234 1549.52 260.155 1544.94 Q257.1 1540.33 257.1 1531.6 Q257.1 1522.85 260.155 1518.27 Q263.234 1513.66 269.044 1513.66 Z" fill="#000000" fill-rule="nonzero" fill-opacity="1" /><path clip-path="url(#clip360)" d="M715.051 1544.91 L722.69 1544.91 L722.69 1518.55 L714.379 1520.21 L714.379 1515.95 L722.643 1514.29 L727.319 1514.29 L727.319 1544.91 L734.958 1544.91 L734.958 1548.85 L715.051 1548.85 L715.051 1544.91 Z" fill="#000000" fill-rule="nonzero" fill-opacity="1" /><path clip-path="url(#clip360)" d="M744.402 1542.97 L749.287 1542.97 L749.287 1548.85 L744.402 1548.85 L744.402 1542.97 Z" fill="#000000" fill-rule="nonzero" fill-opacity="1" /><path clip-path="url(#clip360)" d="M763.499 1544.91 L779.819 1544.91 L779.819 1548.85 L757.875 1548.85 L757.875 1544.91 Q760.537 1542.16 765.12 1537.53 Q769.726 1532.88 770.907 1531.53 Q773.152 1529.01 774.032 1527.27 Q774.935 1525.51 774.935 1523.82 Q774.935 1521.07 772.99 1519.33 Q771.069 1517.6 767.967 1517.6 Q765.768 1517.6 763.314 1518.36 Q760.884 1519.13 758.106 1520.68 L758.106 1515.95 Q760.93 1514.82 763.384 1514.24 Q765.837 1513.66 767.874 1513.66 Q773.245 1513.66 776.439 1516.35 Q779.634 1519.03 779.634 1523.52 Q779.634 1525.65 778.823 1527.57 Q778.036 1529.47 775.93 1532.07 Q775.351 1532.74 772.249 1535.95 Q769.148 1539.15 763.499 1544.91 Z" fill="#000000" fill-rule="nonzero" fill-opacity="1" /><path clip-path="url(#clip360)" d="M789.68 1514.29 L808.036 1514.29 L808.036 1518.22 L793.962 1518.22 L793.962 1526.7 Q794.981 1526.35 795.999 1526.19 Q797.018 1526 798.036 1526 Q803.823 1526 807.203 1529.17 Q810.583 1532.34 810.583 1537.76 Q810.583 1543.34 807.11 1546.44 Q803.638 1549.52 797.319 1549.52 Q795.143 1549.52 792.874 1549.15 Q790.629 1548.78 788.222 1548.04 L788.222 1543.34 Q790.305 1544.47 792.527 1545.03 Q794.749 1545.58 797.226 1545.58 Q801.231 1545.58 803.569 1543.48 Q805.907 1541.37 805.907 1537.76 Q805.907 1534.15 803.569 1532.04 Q801.231 1529.94 797.226 1529.94 Q795.351 1529.94 793.476 1530.35 Q791.624 1530.77 789.68 1531.65 L789.68 1514.29 Z" fill="#000000" fill-rule="nonzero" fill-opacity="1" /><path clip-path="url(#clip360)" d="M1244.64 1544.91 L1252.28 1544.91 L1252.28 1518.55 L1243.97 1520.21 L1243.97 1515.95 L1252.24 1514.29 L1256.91 1514.29 L1256.91 1544.91 L1264.55 1544.91 L1264.55 1548.85 L1244.64 1548.85 L1244.64 1544.91 Z" fill="#000000" fill-rule="nonzero" fill-opacity="1" /><path clip-path="url(#clip360)" d="M1274 1542.97 L1278.88 1542.97 L1278.88 1548.85 L1274 1548.85 L1274 1542.97 Z" fill="#000000" fill-rule="nonzero" fill-opacity="1" /><path clip-path="url(#clip360)" d="M1289.11 1514.29 L1307.47 1514.29 L1307.47 1518.22 L1293.39 1518.22 L1293.39 1526.7 Q1294.41 1526.35 1295.43 1526.19 Q1296.45 1526 1297.47 1526 Q1303.26 1526 1306.64 1529.17 Q1310.01 1532.34 1310.01 1537.76 Q1310.01 1543.34 1306.54 1546.44 Q1303.07 1549.52 1296.75 1549.52 Q1294.57 1549.52 1292.31 1549.15 Q1290.06 1548.78 1287.65 1548.04 L1287.65 1543.34 Q1289.74 1544.47 1291.96 1545.03 Q1294.18 1545.58 1296.66 1545.58 Q1300.66 1545.58 1303 1543.48 Q1305.34 1541.37 1305.34 1537.76 Q1305.34 1534.15 1303 1532.04 Q1300.66 1529.94 1296.66 1529.94 Q1294.78 1529.94 1292.91 1530.35 Q1291.06 1530.77 1289.11 1531.65 L1289.11 1514.29 Z" fill="#000000" fill-rule="nonzero" fill-opacity="1" /><path clip-path="url(#clip360)" d="M1329.23 1517.37 Q1325.62 1517.37 1323.79 1520.93 Q1321.98 1524.47 1321.98 1531.6 Q1321.98 1538.71 1323.79 1542.27 Q1325.62 1545.82 1329.23 1545.82 Q1332.86 1545.82 1334.67 1542.27 Q1336.5 1538.71 1336.5 1531.6 Q1336.5 1524.47 1334.67 1520.93 Q1332.86 1517.37 1329.23 1517.37 M1329.23 1513.66 Q1335.04 1513.66 1338.09 1518.27 Q1341.17 1522.85 1341.17 1531.6 Q1341.17 1540.33 1338.09 1544.94 Q1335.04 1549.52 1329.23 1549.52 Q1323.42 1549.52 1320.34 1544.94 Q1317.28 1540.33 1317.28 1531.6 Q1317.28 1522.85 1320.34 1518.27 Q1323.42 1513.66 1329.23 1513.66 Z" fill="#000000" fill-rule="nonzero" fill-opacity="1" /><path clip-path="url(#clip360)" d="M1775.23 1544.91 L1782.87 1544.91 L1782.87 1518.55 L1774.56 1520.21 L1774.56 1515.95 L1782.83 1514.29 L1787.5 1514.29 L1787.5 1544.91 L1795.14 1544.91 L1795.14 1548.85 L1775.23 1548.85 L1775.23 1544.91 Z" fill="#000000" fill-rule="nonzero" fill-opacity="1" /><path clip-path="url(#clip360)" d="M1804.59 1542.97 L1809.47 1542.97 L1809.47 1548.85 L1804.59 1548.85 L1804.59 1542.97 Z" fill="#000000" fill-rule="nonzero" fill-opacity="1" /><path clip-path="url(#clip360)" d="M1818.47 1514.29 L1840.7 1514.29 L1840.7 1516.28 L1828.15 1548.85 L1823.27 1548.85 L1835.07 1518.22 L1818.47 1518.22 L1818.47 1514.29 Z" fill="#000000" fill-rule="nonzero" fill-opacity="1" /><path clip-path="url(#clip360)" d="M1849.86 1514.29 L1868.22 1514.29 L1868.22 1518.22 L1854.15 1518.22 L1854.15 1526.7 Q1855.16 1526.35 1856.18 1526.19 Q1857.2 1526 1858.22 1526 Q1864.01 1526 1867.39 1529.17 Q1870.77 1532.34 1870.77 1537.76 Q1870.77 1543.34 1867.29 1546.44 Q1863.82 1549.52 1857.5 1549.52 Q1855.33 1549.52 1853.06 1549.15 Q1850.81 1548.78 1848.4 1548.04 L1848.4 1543.34 Q1850.49 1544.47 1852.71 1545.03 Q1854.93 1545.58 1857.41 1545.58 Q1861.41 1545.58 1863.75 1543.48 Q1866.09 1541.37 1866.09 1537.76 Q1866.09 1534.15 1863.75 1532.04 Q1861.41 1529.94 1857.41 1529.94 Q1855.53 1529.94 1853.66 1530.35 Q1851.81 1530.77 1849.86 1531.65 L1849.86 1514.29 Z" fill="#000000" fill-rule="nonzero" fill-opacity="1" /><path clip-path="url(#clip360)" d="M2308.91 1544.91 L2325.23 1544.91 L2325.23 1548.85 L2303.29 1548.85 L2303.29 1544.91 Q2305.95 1542.16 2310.53 1537.53 Q2315.14 1532.88 2316.32 1531.53 Q2318.57 1529.01 2319.45 1527.27 Q2320.35 1525.51 2320.35 1523.82 Q2320.35 1521.07 2318.4 1519.33 Q2316.48 1517.6 2313.38 1517.6 Q2311.18 1517.6 2308.73 1518.36 Q2306.3 1519.13 2303.52 1520.68 L2303.52 1515.95 Q2306.34 1514.82 2308.8 1514.24 Q2311.25 1513.66 2313.29 1513.66 Q2318.66 1513.66 2321.85 1516.35 Q2325.05 1519.03 2325.05 1523.52 Q2325.05 1525.65 2324.24 1527.57 Q2323.45 1529.47 2321.34 1532.07 Q2320.77 1532.74 2317.66 1535.95 Q2314.56 1539.15 2308.91 1544.91 Z" fill="#000000" fill-rule="nonzero" fill-opacity="1" /><path clip-path="url(#clip360)" d="M2335.05 1542.97 L2339.93 1542.97 L2339.93 1548.85 L2335.05 1548.85 L2335.05 1542.97 Z" fill="#000000" fill-rule="nonzero" fill-opacity="1" /><path clip-path="url(#clip360)" d="M2360.12 1517.37 Q2356.51 1517.37 2354.68 1520.93 Q2352.87 1524.47 2352.87 1531.6 Q2352.87 1538.71 2354.68 1542.27 Q2356.51 1545.82 2360.12 1545.82 Q2363.75 1545.82 2365.56 1542.27 Q2367.39 1538.71 2367.39 1531.6 Q2367.39 1524.47 2365.56 1520.93 Q2363.75 1517.37 2360.12 1517.37 M2360.12 1513.66 Q2365.93 1513.66 2368.98 1518.27 Q2372.06 1522.85 2372.06 1531.6 Q2372.06 1540.33 2368.98 1544.94 Q2365.93 1549.52 2360.12 1549.52 Q2354.31 1549.52 2351.23 1544.94 Q2348.17 1540.33 2348.17 1531.6 Q2348.17 1522.85 2351.23 1518.27 Q2354.31 1513.66 2360.12 1513.66 Z" fill="#000000" fill-rule="nonzero" fill-opacity="1" /><path clip-path="url(#clip360)" d="M2390.28 1517.37 Q2386.67 1517.37 2384.84 1520.93 Q2383.03 1524.47 2383.03 1531.6 Q2383.03 1538.71 2384.84 1542.27 Q2386.67 1545.82 2390.28 1545.82 Q2393.91 1545.82 2395.72 1542.27 Q2397.55 1538.71 2397.55 1531.6 Q2397.55 1524.47 2395.72 1520.93 Q2393.91 1517.37 2390.28 1517.37 M2390.28 1513.66 Q2396.09 1513.66 2399.14 1518.27 Q2402.22 1522.85 2402.22 1531.6 Q2402.22 1540.33 2399.14 1544.94 Q2396.09 1549.52 2390.28 1549.52 Q2384.47 1549.52 2381.39 1544.94 Q2378.33 1540.33 2378.33 1531.6 Q2378.33 1522.85 2381.39 1518.27 Q2384.47 1513.66 2390.28 1513.66 Z" fill="#000000" fill-rule="nonzero" fill-opacity="1" /><polyline clip-path="url(#clip360)" style="stroke:#000000; stroke-linecap:round; stroke-linejoin:round; stroke-width:4; stroke-opacity:1; fill:none" points="232.389,1486.45 232.389,47.2441 "/>
<polyline clip-path="url(#clip360)" style="stroke:#000000; stroke-linecap:round; stroke-linejoin:round; stroke-width:4; stroke-opacity:1; fill:none" points="232.389,1486.45 251.287,1486.45 "/>
<polyline clip-path="url(#clip360)" style="stroke:#000000; stroke-linecap:round; stroke-linejoin:round; stroke-width:4; stroke-opacity:1; fill:none" points="232.389,1006.71 251.287,1006.71 "/>
<polyline clip-path="url(#clip360)" style="stroke:#000000; stroke-linecap:round; stroke-linejoin:round; stroke-width:4; stroke-opacity:1; fill:none" points="232.389,526.979 251.287,526.979 "/>
<polyline clip-path="url(#clip360)" style="stroke:#000000; stroke-linecap:round; stroke-linejoin:round; stroke-width:4; stroke-opacity:1; fill:none" points="232.389,47.2441 251.287,47.2441 "/>
<path clip-path="url(#clip360)" d="M184.445 1472.25 Q180.834 1472.25 179.005 1475.81 Q177.2 1479.35 177.2 1486.48 Q177.2 1493.59 179.005 1497.15 Q180.834 1500.7 184.445 1500.7 Q188.079 1500.7 189.885 1497.15 Q191.713 1493.59 191.713 1486.48 Q191.713 1479.35 189.885 1475.81 Q188.079 1472.25 184.445 1472.25 M184.445 1468.54 Q190.255 1468.54 193.311 1473.15 Q196.389 1477.73 196.389 1486.48 Q196.389 1495.21 193.311 1499.82 Q190.255 1504.4 184.445 1504.4 Q178.635 1504.4 175.556 1499.82 Q172.501 1495.21 172.501 1486.48 Q172.501 1477.73 175.556 1473.15 Q178.635 1468.54 184.445 1468.54 Z" fill="#000000" fill-rule="nonzero" fill-opacity="1" /><path clip-path="url(#clip360)" d="M144.329 989.433 L162.686 989.433 L162.686 993.368 L148.612 993.368 L148.612 1001.84 Q149.63 1001.49 150.649 1001.33 Q151.667 1001.15 152.686 1001.15 Q158.473 1001.15 161.852 1004.32 Q165.232 1007.49 165.232 1012.91 Q165.232 1018.48 161.76 1021.59 Q158.288 1024.66 151.968 1024.66 Q149.792 1024.66 147.524 1024.29 Q145.279 1023.92 142.871 1023.18 L142.871 1018.48 Q144.954 1019.62 147.177 1020.17 Q149.399 1020.73 151.876 1020.73 Q155.88 1020.73 158.218 1018.62 Q160.556 1016.52 160.556 1012.91 Q160.556 1009.29 158.218 1007.19 Q155.88 1005.08 151.876 1005.08 Q150.001 1005.08 148.126 1005.5 Q146.274 1005.91 144.329 1006.79 L144.329 989.433 Z" fill="#000000" fill-rule="nonzero" fill-opacity="1" /><path clip-path="url(#clip360)" d="M184.445 992.512 Q180.834 992.512 179.005 996.077 Q177.2 999.618 177.2 1006.75 Q177.2 1013.85 179.005 1017.42 Q180.834 1020.96 184.445 1020.96 Q188.079 1020.96 189.885 1017.42 Q191.713 1013.85 191.713 1006.75 Q191.713 999.618 189.885 996.077 Q188.079 992.512 184.445 992.512 M184.445 988.808 Q190.255 988.808 193.311 993.415 Q196.389 997.998 196.389 1006.75 Q196.389 1015.47 193.311 1020.08 Q190.255 1024.66 184.445 1024.66 Q178.635 1024.66 175.556 1020.08 Q172.501 1015.47 172.501 1006.75 Q172.501 997.998 175.556 993.415 Q178.635 988.808 184.445 988.808 Z" fill="#000000" fill-rule="nonzero" fill-opacity="1" /><path clip-path="url(#clip360)" d="M114.931 540.324 L122.57 540.324 L122.57 513.958 L114.26 515.625 L114.26 511.365 L122.524 509.699 L127.2 509.699 L127.2 540.324 L134.839 540.324 L134.839 544.259 L114.931 544.259 L114.931 540.324 Z" fill="#000000" fill-rule="nonzero" fill-opacity="1" /><path clip-path="url(#clip360)" d="M154.283 512.777 Q150.672 512.777 148.843 516.342 Q147.038 519.884 147.038 527.013 Q147.038 534.12 148.843 537.685 Q150.672 541.226 154.283 541.226 Q157.917 541.226 159.723 537.685 Q161.552 534.12 161.552 527.013 Q161.552 519.884 159.723 516.342 Q157.917 512.777 154.283 512.777 M154.283 509.074 Q160.093 509.074 163.149 513.68 Q166.227 518.263 166.227 527.013 Q166.227 535.74 163.149 540.347 Q160.093 544.93 154.283 544.93 Q148.473 544.93 145.394 540.347 Q142.339 535.74 142.339 527.013 Q142.339 518.263 145.394 513.68 Q148.473 509.074 154.283 509.074 Z" fill="#000000" fill-rule="nonzero" fill-opacity="1" /><path clip-path="url(#clip360)" d="M184.445 512.777 Q180.834 512.777 179.005 516.342 Q177.2 519.884 177.2 527.013 Q177.2 534.12 179.005 537.685 Q180.834 541.226 184.445 541.226 Q188.079 541.226 189.885 537.685 Q191.713 534.12 191.713 527.013 Q191.713 519.884 189.885 516.342 Q188.079 512.777 184.445 512.777 M184.445 509.074 Q190.255 509.074 193.311 513.68 Q196.389 518.263 196.389 527.013 Q196.389 535.74 193.311 540.347 Q190.255 544.93 184.445 544.93 Q178.635 544.93 175.556 540.347 Q172.501 535.74 172.501 527.013 Q172.501 518.263 175.556 513.68 Q178.635 509.074 184.445 509.074 Z" fill="#000000" fill-rule="nonzero" fill-opacity="1" /><path clip-path="url(#clip360)" d="M114.931 60.5889 L122.57 60.5889 L122.57 34.2233 L114.26 35.89 L114.26 31.6308 L122.524 29.9641 L127.2 29.9641 L127.2 60.5889 L134.839 60.5889 L134.839 64.5241 L114.931 64.5241 L114.931 60.5889 Z" fill="#000000" fill-rule="nonzero" fill-opacity="1" /><path clip-path="url(#clip360)" d="M144.329 29.9641 L162.686 29.9641 L162.686 33.8993 L148.612 33.8993 L148.612 42.3714 Q149.63 42.0242 150.649 41.8622 Q151.667 41.677 152.686 41.677 Q158.473 41.677 161.852 44.8483 Q165.232 48.0196 165.232 53.4362 Q165.232 59.0149 161.76 62.1167 Q158.288 65.1954 151.968 65.1954 Q149.792 65.1954 147.524 64.825 Q145.279 64.4547 142.871 63.7139 L142.871 59.0149 Q144.954 60.1491 147.177 60.7047 Q149.399 61.2602 151.876 61.2602 Q155.88 61.2602 158.218 59.1538 Q160.556 57.0473 160.556 53.4362 Q160.556 49.8251 158.218 47.7186 Q155.88 45.6122 151.876 45.6122 Q150.001 45.6122 148.126 46.0288 Q146.274 46.4455 144.329 47.3251 L144.329 29.9641 Z" fill="#000000" fill-rule="nonzero" fill-opacity="1" /><path clip-path="url(#clip360)" d="M184.445 33.0428 Q180.834 33.0428 179.005 36.6076 Q177.2 40.1492 177.2 47.2788 Q177.2 54.3853 179.005 57.9501 Q180.834 61.4917 184.445 61.4917 Q188.079 61.4917 189.885 57.9501 Q191.713 54.3853 191.713 47.2788 Q191.713 40.1492 189.885 36.6076 Q188.079 33.0428 184.445 33.0428 M184.445 29.3391 Q190.255 29.3391 193.311 33.9456 Q196.389 38.5289 196.389 47.2788 Q196.389 56.0056 193.311 60.6121 Q190.255 65.1954 184.445 65.1954 Q178.635 65.1954 175.556 60.6121 Q172.501 56.0056 172.501 47.2788 Q172.501 38.5289 175.556 33.9456 Q178.635 29.3391 184.445 29.3391 Z" fill="#000000" fill-rule="nonzero" fill-opacity="1" /><path clip-path="url(#clip360)" d="M35.1993 828.195 Q31.2526 825.999 29.3747 822.944 Q27.4968 819.888 27.4968 815.751 Q27.4968 810.181 31.4117 807.157 Q35.2948 804.133 42.4881 804.133 L64.0042 804.133 L64.0042 810.021 L42.679 810.021 Q37.5546 810.021 35.072 811.836 Q32.5894 813.65 32.5894 817.374 Q32.5894 821.925 35.6131 824.567 Q38.6368 827.209 43.8567 827.209 L64.0042 827.209 L64.0042 833.097 L42.679 833.097 Q37.5228 833.097 35.072 834.911 Q32.5894 836.726 32.5894 840.513 Q32.5894 845.001 35.6449 847.643 Q38.6686 850.284 43.8567 850.284 L64.0042 850.284 L64.0042 856.173 L28.3562 856.173 L28.3562 850.284 L33.8944 850.284 Q30.616 848.279 29.0564 845.478 Q27.4968 842.677 27.4968 838.826 Q27.4968 834.943 29.4702 832.238 Q31.4436 829.5 35.1993 828.195 Z" fill="#000000" fill-rule="nonzero" fill-opacity="1" /><path clip-path="url(#clip360)" d="M16.4842 798.786 L16.4842 758.586 L21.895 758.586 L21.895 775.456 L64.0042 775.456 L64.0042 781.917 L21.895 781.917 L21.895 798.786 L16.4842 798.786 Z" fill="#000000" fill-rule="nonzero" fill-opacity="1" /><path clip-path="url(#clip360)" d="M32.4621 749.897 Q32.4621 754.608 36.1542 757.345 Q39.8145 760.082 46.212 760.082 Q52.6095 760.082 56.3017 757.377 Q59.9619 754.64 59.9619 749.897 Q59.9619 745.218 56.2698 742.481 Q52.5777 739.744 46.212 739.744 Q39.8781 739.744 36.186 742.481 Q32.4621 745.218 32.4621 749.897 M27.4968 749.897 Q27.4968 742.258 32.4621 737.898 Q37.4273 733.537 46.212 733.537 Q54.9649 733.537 59.9619 737.898 Q64.9272 742.258 64.9272 749.897 Q64.9272 757.568 59.9619 761.928 Q54.9649 766.257 46.212 766.257 Q37.4273 766.257 32.4621 761.928 Q27.4968 757.568 27.4968 749.897 Z" fill="#000000" fill-rule="nonzero" fill-opacity="1" /><path clip-path="url(#clip360)" d="M33.8307 703.173 Q33.2578 704.16 33.0032 705.337 Q32.7167 706.483 32.7167 707.884 Q32.7167 712.849 35.9632 715.522 Q39.1779 718.164 45.2253 718.164 L64.0042 718.164 L64.0042 724.053 L28.3562 724.053 L28.3562 718.164 L33.8944 718.164 Q30.6479 716.318 29.0883 713.358 Q27.4968 710.398 27.4968 706.165 Q27.4968 705.56 27.5923 704.828 Q27.656 704.096 27.8151 703.205 L33.8307 703.173 Z" fill="#000000" fill-rule="nonzero" fill-opacity="1" /><path clip-path="url(#clip360)" d="M33.8307 677.519 Q33.2578 678.506 33.0032 679.684 Q32.7167 680.829 32.7167 682.23 Q32.7167 687.195 35.9632 689.869 Q39.1779 692.51 45.2253 692.51 L64.0042 692.51 L64.0042 698.399 L28.3562 698.399 L28.3562 692.51 L33.8944 692.51 Q30.6479 690.664 29.0883 687.704 Q27.4968 684.744 27.4968 680.511 Q27.4968 679.906 27.5923 679.174 Q27.656 678.442 27.8151 677.551 L33.8307 677.519 Z" fill="#000000" fill-rule="nonzero" fill-opacity="1" /><polyline clip-path="url(#clip361)" style="stroke:#009af9; stroke-linecap:round; stroke-linejoin:round; stroke-width:4; stroke-opacity:1; fill:none" points="-1887.98,526.979 4473.12,526.979 "/>
<path clip-path="url(#clip360)" d="M2017.61 198.898 L2282.08 198.898 L2282.08 95.2176 L2017.61 95.2176  Z" fill="#ffffff" fill-rule="evenodd" fill-opacity="1"/>
<polyline clip-path="url(#clip360)" style="stroke:#000000; stroke-linecap:round; stroke-linejoin:round; stroke-width:4; stroke-opacity:1; fill:none" points="2017.61,198.898 2282.08,198.898 2282.08,95.2176 2017.61,95.2176 2017.61,198.898 "/>
<polyline clip-path="url(#clip360)" style="stroke:#009af9; stroke-linecap:round; stroke-linejoin:round; stroke-width:4; stroke-opacity:1; fill:none" points="2041.17,147.058 2182.53,147.058 "/>
<path clip-path="url(#clip360)" d="M2219.93 166.745 Q2218.12 171.375 2216.41 172.787 Q2214.7 174.199 2211.83 174.199 L2208.43 174.199 L2208.43 170.634 L2210.93 170.634 Q2212.68 170.634 2213.66 169.8 Q2214.63 168.967 2215.81 165.865 L2216.57 163.921 L2206.09 138.412 L2210.6 138.412 L2218.7 158.689 L2226.8 138.412 L2231.32 138.412 L2219.93 166.745 Z" fill="#000000" fill-rule="nonzero" fill-opacity="1" /><path clip-path="url(#clip360)" d="M2238.61 160.402 L2246.25 160.402 L2246.25 134.037 L2237.94 135.703 L2237.94 131.444 L2246.2 129.778 L2250.88 129.778 L2250.88 160.402 L2258.52 160.402 L2258.52 164.338 L2238.61 164.338 L2238.61 160.402 Z" fill="#000000" fill-rule="nonzero" fill-opacity="1" /></svg>
