<?xml version="1.0" encoding="utf-8"?>
<svg xmlns="http://www.w3.org/2000/svg" xmlns:xlink="http://www.w3.org/1999/xlink" width="600" height="400" viewBox="0 0 2400 1600">
<defs>
  <clipPath id="clip910">
    <rect x="0" y="0" width="2400" height="1600"/>
  </clipPath>
</defs>
<path clip-path="url(#clip910)" d="M0 1600 L2400 1600 L2400 0 L0 0  Z" fill="#ffffff" fill-rule="evenodd" fill-opacity="1"/>
<defs>
  <clipPath id="clip911">
    <rect x="234" y="47" width="2120" height="1377"/>
  </clipPath>
</defs>
<path clip-path="url(#clip910)" d="M234.125 1423.18 L2352.76 1423.18 L2352.76 47.2441 L234.125 47.2441  Z" fill="#ffffff" fill-rule="evenodd" fill-opacity="1"/>
<polyline clip-path="url(#clip911)" style="stroke:#000000; stroke-linecap:round; stroke-linejoin:round; stroke-width:2; stroke-opacity:0.1; fill:none" points="294.087,1423.18 294.087,47.2441 "/>
<polyline clip-path="url(#clip911)" style="stroke:#000000; stroke-linecap:round; stroke-linejoin:round; stroke-width:2; stroke-opacity:0.1; fill:none" points="658.799,1423.18 658.799,47.2441 "/>
<polyline clip-path="url(#clip911)" style="stroke:#000000; stroke-linecap:round; stroke-linejoin:round; stroke-width:2; stroke-opacity:0.1; fill:none" points="1023.51,1423.18 1023.51,47.2441 "/>
<polyline clip-path="url(#clip911)" style="stroke:#000000; stroke-linecap:round; stroke-linejoin:round; stroke-width:2; stroke-opacity:0.1; fill:none" points="1388.22,1423.18 1388.22,47.2441 "/>
<polyline clip-path="url(#clip911)" style="stroke:#000000; stroke-linecap:round; stroke-linejoin:round; stroke-width:2; stroke-opacity:0.1; fill:none" points="1752.94,1423.18 1752.94,47.2441 "/>
<polyline clip-path="url(#clip911)" style="stroke:#000000; stroke-linecap:round; stroke-linejoin:round; stroke-width:2; stroke-opacity:0.1; fill:none" points="2117.65,1423.18 2117.65,47.2441 "/>
<polyline clip-path="url(#clip911)" style="stroke:#000000; stroke-linecap:round; stroke-linejoin:round; stroke-width:2; stroke-opacity:0.1; fill:none" points="234.125,1270.24 2352.76,1270.24 "/>
<polyline clip-path="url(#clip911)" style="stroke:#000000; stroke-linecap:round; stroke-linejoin:round; stroke-width:2; stroke-opacity:0.1; fill:none" points="234.125,937.409 2352.76,937.409 "/>
<polyline clip-path="url(#clip911)" style="stroke:#000000; stroke-linecap:round; stroke-linejoin:round; stroke-width:2; stroke-opacity:0.1; fill:none" points="234.125,604.575 2352.76,604.575 "/>
<polyline clip-path="url(#clip911)" style="stroke:#000000; stroke-linecap:round; stroke-linejoin:round; stroke-width:2; stroke-opacity:0.1; fill:none" points="234.125,271.741 2352.76,271.741 "/>
<polyline clip-path="url(#clip910)" style="stroke:#000000; stroke-linecap:round; stroke-linejoin:round; stroke-width:4; stroke-opacity:1; fill:none" points="234.125,1423.18 2352.76,1423.18 "/>
<polyline clip-path="url(#clip910)" style="stroke:#000000; stroke-linecap:round; stroke-linejoin:round; stroke-width:4; stroke-opacity:1; fill:none" points="294.087,1423.18 294.087,1404.28 "/>
<polyline clip-path="url(#clip910)" style="stroke:#000000; stroke-linecap:round; stroke-linejoin:round; stroke-width:4; stroke-opacity:1; fill:none" points="658.799,1423.18 658.799,1404.28 "/>
<polyline clip-path="url(#clip910)" style="stroke:#000000; stroke-linecap:round; stroke-linejoin:round; stroke-width:4; stroke-opacity:1; fill:none" points="1023.51,1423.18 1023.51,1404.28 "/>
<polyline clip-path="url(#clip910)" style="stroke:#000000; stroke-linecap:round; stroke-linejoin:round; stroke-width:4; stroke-opacity:1; fill:none" points="1388.22,1423.18 1388.22,1404.28 "/>
<polyline clip-path="url(#clip910)" style="stroke:#000000; stroke-linecap:round; stroke-linejoin:round; stroke-width:4; stroke-opacity:1; fill:none" points="1752.94,1423.18 1752.94,1404.28 "/>
<polyline clip-path="url(#clip910)" style="stroke:#000000; stroke-linecap:round; stroke-linejoin:round; stroke-width:4; stroke-opacity:1; fill:none" points="2117.65,1423.18 2117.65,1404.28 "/>
<path clip-path="url(#clip910)" d="M271.471 1454.1 Q267.86 1454.1 266.031 1457.66 Q264.226 1461.2 264.226 1468.33 Q264.226 1475.44 266.031 1479.01 Q267.86 1482.55 271.471 1482.55 Q275.105 1482.55 276.911 1479.01 Q278.74 1475.44 278.74 1468.33 Q278.74 1461.2 276.911 1457.66 Q275.105 1454.1 271.471 1454.1 M271.471 1450.39 Q277.281 1450.39 280.337 1455 Q283.415 1459.58 283.415 1468.33 Q283.415 1477.06 280.337 1481.67 Q277.281 1486.25 271.471 1486.25 Q265.661 1486.25 262.582 1481.67 Q259.527 1477.06 259.527 1468.33 Q259.527 1459.58 262.582 1455 Q265.661 1450.39 271.471 1450.39 Z" fill="#000000" fill-rule="nonzero" fill-opacity="1" /><path clip-path="url(#clip910)" d="M291.633 1479.7 L296.517 1479.7 L296.517 1485.58 L291.633 1485.58 L291.633 1479.7 Z" fill="#000000" fill-rule="nonzero" fill-opacity="1" /><path clip-path="url(#clip910)" d="M316.702 1454.1 Q313.091 1454.1 311.263 1457.66 Q309.457 1461.2 309.457 1468.33 Q309.457 1475.44 311.263 1479.01 Q313.091 1482.55 316.702 1482.55 Q320.337 1482.55 322.142 1479.01 Q323.971 1475.44 323.971 1468.33 Q323.971 1461.2 322.142 1457.66 Q320.337 1454.1 316.702 1454.1 M316.702 1450.39 Q322.512 1450.39 325.568 1455 Q328.647 1459.58 328.647 1468.33 Q328.647 1477.06 325.568 1481.67 Q322.512 1486.25 316.702 1486.25 Q310.892 1486.25 307.813 1481.67 Q304.758 1477.06 304.758 1468.33 Q304.758 1459.58 307.813 1455 Q310.892 1450.39 316.702 1450.39 Z" fill="#000000" fill-rule="nonzero" fill-opacity="1" /><path clip-path="url(#clip910)" d="M630.535 1481.64 L646.855 1481.64 L646.855 1485.58 L624.91 1485.58 L624.91 1481.64 Q627.572 1478.89 632.156 1474.26 Q636.762 1469.61 637.943 1468.27 Q640.188 1465.74 641.068 1464.01 Q641.97 1462.25 641.97 1460.56 Q641.97 1457.8 640.026 1456.07 Q638.105 1454.33 635.003 1454.33 Q632.804 1454.33 630.35 1455.09 Q627.92 1455.86 625.142 1457.41 L625.142 1452.69 Q627.966 1451.55 630.42 1450.97 Q632.873 1450.39 634.91 1450.39 Q640.281 1450.39 643.475 1453.08 Q646.669 1455.77 646.669 1460.26 Q646.669 1462.39 645.859 1464.31 Q645.072 1466.2 642.966 1468.8 Q642.387 1469.47 639.285 1472.69 Q636.183 1475.88 630.535 1481.64 Z" fill="#000000" fill-rule="nonzero" fill-opacity="1" /><path clip-path="url(#clip910)" d="M656.669 1479.7 L661.554 1479.7 L661.554 1485.58 L656.669 1485.58 L656.669 1479.7 Z" fill="#000000" fill-rule="nonzero" fill-opacity="1" /><path clip-path="url(#clip910)" d="M671.785 1451.02 L690.141 1451.02 L690.141 1454.96 L676.067 1454.96 L676.067 1463.43 Q677.086 1463.08 678.104 1462.92 Q679.123 1462.73 680.141 1462.73 Q685.928 1462.73 689.308 1465.9 Q692.688 1469.08 692.688 1474.49 Q692.688 1480.07 689.216 1483.17 Q685.743 1486.25 679.424 1486.25 Q677.248 1486.25 674.979 1485.88 Q672.734 1485.51 670.327 1484.77 L670.327 1480.07 Q672.41 1481.2 674.632 1481.76 Q676.854 1482.32 679.331 1482.32 Q683.336 1482.32 685.674 1480.21 Q688.012 1478.1 688.012 1474.49 Q688.012 1470.88 685.674 1468.77 Q683.336 1466.67 679.331 1466.67 Q677.456 1466.67 675.581 1467.08 Q673.729 1467.5 671.785 1468.38 L671.785 1451.02 Z" fill="#000000" fill-rule="nonzero" fill-opacity="1" /><path clip-path="url(#clip910)" d="M990.676 1451.02 L1009.03 1451.02 L1009.03 1454.96 L994.958 1454.96 L994.958 1463.43 Q995.977 1463.08 996.995 1462.92 Q998.014 1462.73 999.032 1462.73 Q1004.82 1462.73 1008.2 1465.9 Q1011.58 1469.08 1011.58 1474.49 Q1011.58 1480.07 1008.11 1483.17 Q1004.63 1486.25 998.315 1486.25 Q996.139 1486.25 993.87 1485.88 Q991.625 1485.51 989.218 1484.77 L989.218 1480.07 Q991.301 1481.2 993.523 1481.76 Q995.745 1482.32 998.222 1482.32 Q1002.23 1482.32 1004.56 1480.21 Q1006.9 1478.1 1006.9 1474.49 Q1006.9 1470.88 1004.56 1468.77 Q1002.23 1466.67 998.222 1466.67 Q996.347 1466.67 994.472 1467.08 Q992.62 1467.5 990.676 1468.38 L990.676 1451.02 Z" fill="#000000" fill-rule="nonzero" fill-opacity="1" /><path clip-path="url(#clip910)" d="M1020.79 1479.7 L1025.68 1479.7 L1025.68 1485.58 L1020.79 1485.58 L1020.79 1479.7 Z" fill="#000000" fill-rule="nonzero" fill-opacity="1" /><path clip-path="url(#clip910)" d="M1045.86 1454.1 Q1042.25 1454.1 1040.42 1457.66 Q1038.62 1461.2 1038.62 1468.33 Q1038.62 1475.44 1040.42 1479.01 Q1042.25 1482.55 1045.86 1482.55 Q1049.49 1482.55 1051.3 1479.01 Q1053.13 1475.44 1053.13 1468.33 Q1053.13 1461.2 1051.3 1457.66 Q1049.49 1454.1 1045.86 1454.1 M1045.86 1450.39 Q1051.67 1450.39 1054.73 1455 Q1057.81 1459.58 1057.81 1468.33 Q1057.81 1477.06 1054.73 1481.67 Q1051.67 1486.25 1045.86 1486.25 Q1040.05 1486.25 1036.97 1481.67 Q1033.92 1477.06 1033.92 1468.33 Q1033.92 1459.58 1036.97 1455 Q1040.05 1450.39 1045.86 1450.39 Z" fill="#000000" fill-rule="nonzero" fill-opacity="1" /><path clip-path="url(#clip910)" d="M1354.54 1451.02 L1376.77 1451.02 L1376.77 1453.01 L1364.22 1485.58 L1359.33 1485.58 L1371.14 1454.96 L1354.54 1454.96 L1354.54 1451.02 Z" fill="#000000" fill-rule="nonzero" fill-opacity="1" /><path clip-path="url(#clip910)" d="M1385.89 1479.7 L1390.77 1479.7 L1390.77 1485.58 L1385.89 1485.58 L1385.89 1479.7 Z" fill="#000000" fill-rule="nonzero" fill-opacity="1" /><path clip-path="url(#clip910)" d="M1401 1451.02 L1419.36 1451.02 L1419.36 1454.96 L1405.28 1454.96 L1405.28 1463.43 Q1406.3 1463.08 1407.32 1462.92 Q1408.34 1462.73 1409.36 1462.73 Q1415.14 1462.73 1418.52 1465.9 Q1421.9 1469.08 1421.9 1474.49 Q1421.9 1480.07 1418.43 1483.17 Q1414.96 1486.25 1408.64 1486.25 Q1406.46 1486.25 1404.2 1485.88 Q1401.95 1485.51 1399.54 1484.77 L1399.54 1480.07 Q1401.63 1481.2 1403.85 1481.76 Q1406.07 1482.32 1408.55 1482.32 Q1412.55 1482.32 1414.89 1480.21 Q1417.23 1478.1 1417.23 1474.49 Q1417.23 1470.88 1414.89 1468.77 Q1412.55 1466.67 1408.55 1466.67 Q1406.67 1466.67 1404.8 1467.08 Q1402.95 1467.5 1401 1468.38 L1401 1451.02 Z" fill="#000000" fill-rule="nonzero" fill-opacity="1" /><path clip-path="url(#clip910)" d="M1705.01 1481.64 L1712.65 1481.64 L1712.65 1455.28 L1704.34 1456.95 L1704.34 1452.69 L1712.6 1451.02 L1717.28 1451.02 L1717.28 1481.64 L1724.92 1481.64 L1724.92 1485.58 L1705.01 1485.58 L1705.01 1481.64 Z" fill="#000000" fill-rule="nonzero" fill-opacity="1" /><path clip-path="url(#clip910)" d="M1744.36 1454.1 Q1740.75 1454.1 1738.92 1457.66 Q1737.11 1461.2 1737.11 1468.33 Q1737.11 1475.44 1738.92 1479.01 Q1740.75 1482.55 1744.36 1482.55 Q1747.99 1482.55 1749.8 1479.01 Q1751.63 1475.44 1751.63 1468.33 Q1751.63 1461.2 1749.8 1457.66 Q1747.99 1454.1 1744.36 1454.1 M1744.36 1450.39 Q1750.17 1450.39 1753.23 1455 Q1756.3 1459.58 1756.3 1468.33 Q1756.3 1477.06 1753.23 1481.67 Q1750.17 1486.25 1744.36 1486.25 Q1738.55 1486.25 1735.47 1481.67 Q1732.42 1477.06 1732.42 1468.33 Q1732.42 1459.58 1735.47 1455 Q1738.55 1450.39 1744.36 1450.39 Z" fill="#000000" fill-rule="nonzero" fill-opacity="1" /><path clip-path="url(#clip910)" d="M1764.52 1479.7 L1769.41 1479.7 L1769.41 1485.58 L1764.52 1485.58 L1764.52 1479.7 Z" fill="#000000" fill-rule="nonzero" fill-opacity="1" /><path clip-path="url(#clip910)" d="M1789.59 1454.1 Q1785.98 1454.1 1784.15 1457.66 Q1782.35 1461.2 1782.35 1468.33 Q1782.35 1475.44 1784.15 1479.01 Q1785.98 1482.55 1789.59 1482.55 Q1793.23 1482.55 1795.03 1479.01 Q1796.86 1475.44 1796.86 1468.33 Q1796.86 1461.2 1795.03 1457.66 Q1793.23 1454.1 1789.59 1454.1 M1789.59 1450.39 Q1795.4 1450.39 1798.46 1455 Q1801.54 1459.58 1801.54 1468.33 Q1801.54 1477.06 1798.46 1481.67 Q1795.4 1486.25 1789.59 1486.25 Q1783.78 1486.25 1780.7 1481.67 Q1777.65 1477.06 1777.65 1468.33 Q1777.65 1459.58 1780.7 1455 Q1783.78 1450.39 1789.59 1450.39 Z" fill="#000000" fill-rule="nonzero" fill-opacity="1" /><path clip-path="url(#clip910)" d="M2070.22 1481.64 L2077.86 1481.64 L2077.86 1455.28 L2069.55 1456.95 L2069.55 1452.69 L2077.81 1451.02 L2082.49 1451.02 L2082.49 1481.64 L2090.13 1481.64 L2090.13 1485.58 L2070.22 1485.58 L2070.22 1481.64 Z" fill="#000000" fill-rule="nonzero" fill-opacity="1" /><path clip-path="url(#clip910)" d="M2103.6 1481.64 L2119.92 1481.64 L2119.92 1485.58 L2097.97 1485.58 L2097.97 1481.64 Q2100.63 1478.89 2105.22 1474.26 Q2109.82 1469.61 2111 1468.27 Q2113.25 1465.74 2114.13 1464.01 Q2115.03 1462.25 2115.03 1460.56 Q2115.03 1457.8 2113.09 1456.07 Q2111.17 1454.33 2108.06 1454.33 Q2105.87 1454.33 2103.41 1455.09 Q2100.98 1455.86 2098.2 1457.41 L2098.2 1452.69 Q2101.03 1451.55 2103.48 1450.97 Q2105.94 1450.39 2107.97 1450.39 Q2113.34 1450.39 2116.54 1453.08 Q2119.73 1455.77 2119.73 1460.26 Q2119.73 1462.39 2118.92 1464.31 Q2118.13 1466.2 2116.03 1468.8 Q2115.45 1469.47 2112.35 1472.69 Q2109.25 1475.88 2103.6 1481.64 Z" fill="#000000" fill-rule="nonzero" fill-opacity="1" /><path clip-path="url(#clip910)" d="M2129.73 1479.7 L2134.62 1479.7 L2134.62 1485.58 L2129.73 1485.58 L2129.73 1479.7 Z" fill="#000000" fill-rule="nonzero" fill-opacity="1" /><path clip-path="url(#clip910)" d="M2144.85 1451.02 L2163.2 1451.02 L2163.2 1454.96 L2149.13 1454.96 L2149.13 1463.43 Q2150.15 1463.08 2151.17 1462.92 Q2152.19 1462.73 2153.2 1462.73 Q2158.99 1462.73 2162.37 1465.9 Q2165.75 1469.08 2165.75 1474.49 Q2165.75 1480.07 2162.28 1483.17 Q2158.81 1486.25 2152.49 1486.25 Q2150.31 1486.25 2148.04 1485.88 Q2145.8 1485.51 2143.39 1484.77 L2143.39 1480.07 Q2145.47 1481.2 2147.69 1481.76 Q2149.92 1482.32 2152.39 1482.32 Q2156.4 1482.32 2158.74 1480.21 Q2161.07 1478.1 2161.07 1474.49 Q2161.07 1470.88 2158.74 1468.77 Q2156.4 1466.67 2152.39 1466.67 Q2150.52 1466.67 2148.64 1467.08 Q2146.79 1467.5 2144.85 1468.38 L2144.85 1451.02 Z" fill="#000000" fill-rule="nonzero" fill-opacity="1" /><path clip-path="url(#clip910)" d="M1292.2 1546.53 L1292.2 1568.04 L1286.34 1568.04 L1286.34 1546.72 Q1286.34 1541.66 1284.37 1539.14 Q1282.4 1536.63 1278.45 1536.63 Q1273.71 1536.63 1270.97 1539.65 Q1268.23 1542.68 1268.23 1547.9 L1268.23 1568.04 L1262.34 1568.04 L1262.34 1518.52 L1268.23 1518.52 L1268.23 1537.93 Q1270.33 1534.72 1273.17 1533.13 Q1276.03 1531.54 1279.75 1531.54 Q1285.9 1531.54 1289.05 1535.36 Q1292.2 1539.14 1292.2 1546.53 Z" fill="#000000" fill-rule="nonzero" fill-opacity="1" /><path clip-path="url(#clip910)" d="M1324.54 1537.87 Q1323.55 1537.3 1322.37 1537.04 Q1321.23 1536.76 1319.83 1536.76 Q1314.86 1536.76 1312.19 1540 Q1309.55 1543.22 1309.55 1549.27 L1309.55 1568.04 L1303.66 1568.04 L1303.66 1532.4 L1309.55 1532.4 L1309.55 1537.93 Q1311.39 1534.69 1314.35 1533.13 Q1317.31 1531.54 1321.55 1531.54 Q1322.15 1531.54 1322.88 1531.63 Q1323.61 1531.7 1324.51 1531.85 L1324.54 1537.87 Z" fill="#000000" fill-rule="nonzero" fill-opacity="1" /><polyline clip-path="url(#clip910)" style="stroke:#000000; stroke-linecap:round; stroke-linejoin:round; stroke-width:4; stroke-opacity:1; fill:none" points="234.125,1423.18 234.125,47.2441 "/>
<polyline clip-path="url(#clip910)" style="stroke:#000000; stroke-linecap:round; stroke-linejoin:round; stroke-width:4; stroke-opacity:1; fill:none" points="234.125,1270.24 253.023,1270.24 "/>
<polyline clip-path="url(#clip910)" style="stroke:#000000; stroke-linecap:round; stroke-linejoin:round; stroke-width:4; stroke-opacity:1; fill:none" points="234.125,937.409 253.023,937.409 "/>
<polyline clip-path="url(#clip910)" style="stroke:#000000; stroke-linecap:round; stroke-linejoin:round; stroke-width:4; stroke-opacity:1; fill:none" points="234.125,604.575 253.023,604.575 "/>
<polyline clip-path="url(#clip910)" style="stroke:#000000; stroke-linecap:round; stroke-linejoin:round; stroke-width:4; stroke-opacity:1; fill:none" points="234.125,271.741 253.023,271.741 "/>
<path clip-path="url(#clip910)" d="M119.885 1283.59 L136.204 1283.59 L136.204 1287.52 L114.26 1287.52 L114.26 1283.59 Q116.922 1280.83 121.505 1276.2 Q126.112 1271.55 127.292 1270.21 Q129.538 1267.68 130.417 1265.95 Q131.32 1264.19 131.32 1262.5 Q131.32 1259.74 129.376 1258.01 Q127.455 1256.27 124.353 1256.27 Q122.154 1256.27 119.7 1257.04 Q117.269 1257.8 114.492 1259.35 L114.492 1254.63 Q117.316 1253.5 119.769 1252.92 Q122.223 1252.34 124.26 1252.34 Q129.63 1252.34 132.825 1255.02 Q136.019 1257.71 136.019 1262.2 Q136.019 1264.33 135.209 1266.25 Q134.422 1268.15 132.316 1270.74 Q131.737 1271.41 128.635 1274.63 Q125.533 1277.82 119.885 1283.59 Z" fill="#000000" fill-rule="nonzero" fill-opacity="1" /><path clip-path="url(#clip910)" d="M158.866 1257.04 L147.061 1275.49 L158.866 1275.49 L158.866 1257.04 M157.64 1252.96 L163.519 1252.96 L163.519 1275.49 L168.45 1275.49 L168.45 1279.37 L163.519 1279.37 L163.519 1287.52 L158.866 1287.52 L158.866 1279.37 L143.265 1279.37 L143.265 1274.86 L157.64 1252.96 Z" fill="#000000" fill-rule="nonzero" fill-opacity="1" /><path clip-path="url(#clip910)" d="M186.181 1256.04 Q182.57 1256.04 180.741 1259.61 Q178.936 1263.15 178.936 1270.28 Q178.936 1277.38 180.741 1280.95 Q182.57 1284.49 186.181 1284.49 Q189.815 1284.49 191.621 1280.95 Q193.45 1277.38 193.45 1270.28 Q193.45 1263.15 191.621 1259.61 Q189.815 1256.04 186.181 1256.04 M186.181 1252.34 Q191.991 1252.34 195.047 1256.94 Q198.125 1261.53 198.125 1270.28 Q198.125 1279 195.047 1283.61 Q191.991 1288.19 186.181 1288.19 Q180.371 1288.19 177.292 1283.61 Q174.237 1279 174.237 1270.28 Q174.237 1261.53 177.292 1256.94 Q180.371 1252.34 186.181 1252.34 Z" fill="#000000" fill-rule="nonzero" fill-opacity="1" /><path clip-path="url(#clip910)" d="M119.885 950.753 L136.204 950.753 L136.204 954.689 L114.26 954.689 L114.26 950.753 Q116.922 947.999 121.505 943.369 Q126.112 938.716 127.292 937.374 Q129.538 934.851 130.417 933.115 Q131.32 931.355 131.32 929.666 Q131.32 926.911 129.376 925.175 Q127.455 923.439 124.353 923.439 Q122.154 923.439 119.7 924.203 Q117.269 924.967 114.492 926.517 L114.492 921.795 Q117.316 920.661 119.769 920.082 Q122.223 919.504 124.26 919.504 Q129.63 919.504 132.825 922.189 Q136.019 924.874 136.019 929.365 Q136.019 931.494 135.209 933.416 Q134.422 935.314 132.316 937.906 Q131.737 938.578 128.635 941.795 Q125.533 944.99 119.885 950.753 Z" fill="#000000" fill-rule="nonzero" fill-opacity="1" /><path clip-path="url(#clip910)" d="M156.598 935.545 Q153.45 935.545 151.598 937.698 Q149.769 939.851 149.769 943.601 Q149.769 947.328 151.598 949.503 Q153.45 951.656 156.598 951.656 Q159.746 951.656 161.575 949.503 Q163.427 947.328 163.427 943.601 Q163.427 939.851 161.575 937.698 Q159.746 935.545 156.598 935.545 M165.88 920.893 L165.88 925.152 Q164.121 924.318 162.315 923.879 Q160.533 923.439 158.774 923.439 Q154.144 923.439 151.691 926.564 Q149.26 929.689 148.913 936.008 Q150.278 933.994 152.339 932.929 Q154.399 931.842 156.876 931.842 Q162.084 931.842 165.093 935.013 Q168.126 938.161 168.126 943.601 Q168.126 948.925 164.977 952.142 Q161.829 955.36 156.598 955.36 Q150.603 955.36 147.431 950.777 Q144.26 946.17 144.26 937.443 Q144.26 929.249 148.149 924.388 Q152.038 919.504 158.589 919.504 Q160.348 919.504 162.13 919.851 Q163.936 920.198 165.88 920.893 Z" fill="#000000" fill-rule="nonzero" fill-opacity="1" /><path clip-path="url(#clip910)" d="M186.181 923.207 Q182.57 923.207 180.741 926.772 Q178.936 930.314 178.936 937.443 Q178.936 944.55 180.741 948.115 Q182.57 951.656 186.181 951.656 Q189.815 951.656 191.621 948.115 Q193.45 944.55 193.45 937.443 Q193.45 930.314 191.621 926.772 Q189.815 923.207 186.181 923.207 M186.181 919.504 Q191.991 919.504 195.047 924.11 Q198.125 928.693 198.125 937.443 Q198.125 946.17 195.047 950.777 Q191.991 955.36 186.181 955.36 Q180.371 955.36 177.292 950.777 Q174.237 946.17 174.237 937.443 Q174.237 928.693 177.292 924.11 Q180.371 919.504 186.181 919.504 Z" fill="#000000" fill-rule="nonzero" fill-opacity="1" /><path clip-path="url(#clip910)" d="M119.885 617.919 L136.204 617.919 L136.204 621.855 L114.26 621.855 L114.26 617.919 Q116.922 615.165 121.505 610.535 Q126.112 605.882 127.292 604.54 Q129.538 602.017 130.417 600.281 Q131.32 598.521 131.32 596.832 Q131.32 594.077 129.376 592.341 Q127.455 590.605 124.353 590.605 Q122.154 590.605 119.7 591.369 Q117.269 592.133 114.492 593.683 L114.492 588.961 Q117.316 587.827 119.769 587.248 Q122.223 586.67 124.26 586.67 Q129.63 586.67 132.825 589.355 Q136.019 592.04 136.019 596.531 Q136.019 598.66 135.209 600.582 Q134.422 602.48 132.316 605.072 Q131.737 605.744 128.635 608.961 Q125.533 612.156 119.885 617.919 Z" fill="#000000" fill-rule="nonzero" fill-opacity="1" /><path clip-path="url(#clip910)" d="M156.019 605.443 Q152.686 605.443 150.765 607.225 Q148.866 609.007 148.866 612.132 Q148.866 615.257 150.765 617.04 Q152.686 618.822 156.019 618.822 Q159.353 618.822 161.274 617.04 Q163.195 615.234 163.195 612.132 Q163.195 609.007 161.274 607.225 Q159.376 605.443 156.019 605.443 M151.343 603.452 Q148.334 602.711 146.644 600.651 Q144.978 598.591 144.978 595.628 Q144.978 591.484 147.917 589.077 Q150.88 586.67 156.019 586.67 Q161.181 586.67 164.121 589.077 Q167.061 591.484 167.061 595.628 Q167.061 598.591 165.371 600.651 Q163.704 602.711 160.718 603.452 Q164.098 604.239 165.973 606.531 Q167.871 608.822 167.871 612.132 Q167.871 617.156 164.792 619.841 Q161.737 622.526 156.019 622.526 Q150.302 622.526 147.223 619.841 Q144.167 617.156 144.167 612.132 Q144.167 608.822 146.066 606.531 Q147.964 604.239 151.343 603.452 M149.63 596.068 Q149.63 598.753 151.297 600.258 Q152.987 601.762 156.019 601.762 Q159.028 601.762 160.718 600.258 Q162.431 598.753 162.431 596.068 Q162.431 593.383 160.718 591.878 Q159.028 590.373 156.019 590.373 Q152.987 590.373 151.297 591.878 Q149.63 593.383 149.63 596.068 Z" fill="#000000" fill-rule="nonzero" fill-opacity="1" /><path clip-path="url(#clip910)" d="M186.181 590.373 Q182.57 590.373 180.741 593.938 Q178.936 597.48 178.936 604.609 Q178.936 611.716 180.741 615.281 Q182.57 618.822 186.181 618.822 Q189.815 618.822 191.621 615.281 Q193.45 611.716 193.45 604.609 Q193.45 597.48 191.621 593.938 Q189.815 590.373 186.181 590.373 M186.181 586.67 Q191.991 586.67 195.047 591.276 Q198.125 595.859 198.125 604.609 Q198.125 613.336 195.047 617.943 Q191.991 622.526 186.181 622.526 Q180.371 622.526 177.292 617.943 Q174.237 613.336 174.237 604.609 Q174.237 595.859 177.292 591.276 Q180.371 586.67 186.181 586.67 Z" fill="#000000" fill-rule="nonzero" fill-opacity="1" /><path clip-path="url(#clip910)" d="M130.024 270.386 Q133.38 271.104 135.255 273.373 Q137.154 275.641 137.154 278.974 Q137.154 284.09 133.635 286.891 Q130.117 289.692 123.635 289.692 Q121.459 289.692 119.144 289.252 Q116.853 288.835 114.399 287.979 L114.399 283.465 Q116.343 284.599 118.658 285.178 Q120.973 285.757 123.496 285.757 Q127.894 285.757 130.186 284.021 Q132.501 282.285 132.501 278.974 Q132.501 275.919 130.348 274.206 Q128.218 272.47 124.399 272.47 L120.371 272.47 L120.371 268.627 L124.584 268.627 Q128.033 268.627 129.862 267.261 Q131.691 265.873 131.691 263.28 Q131.691 260.618 129.792 259.206 Q127.917 257.771 124.399 257.771 Q122.478 257.771 120.279 258.187 Q118.08 258.604 115.441 259.484 L115.441 255.317 Q118.103 254.576 120.418 254.206 Q122.755 253.836 124.816 253.836 Q130.14 253.836 133.242 256.266 Q136.343 258.674 136.343 262.794 Q136.343 265.664 134.7 267.655 Q133.056 269.623 130.024 270.386 Z" fill="#000000" fill-rule="nonzero" fill-opacity="1" /><path clip-path="url(#clip910)" d="M156.019 257.539 Q152.408 257.539 150.579 261.104 Q148.774 264.646 148.774 271.775 Q148.774 278.882 150.579 282.447 Q152.408 285.988 156.019 285.988 Q159.653 285.988 161.459 282.447 Q163.288 278.882 163.288 271.775 Q163.288 264.646 161.459 261.104 Q159.653 257.539 156.019 257.539 M156.019 253.836 Q161.829 253.836 164.885 258.442 Q167.964 263.025 167.964 271.775 Q167.964 280.502 164.885 285.109 Q161.829 289.692 156.019 289.692 Q150.209 289.692 147.13 285.109 Q144.075 280.502 144.075 271.775 Q144.075 263.025 147.13 258.442 Q150.209 253.836 156.019 253.836 Z" fill="#000000" fill-rule="nonzero" fill-opacity="1" /><path clip-path="url(#clip910)" d="M186.181 257.539 Q182.57 257.539 180.741 261.104 Q178.936 264.646 178.936 271.775 Q178.936 278.882 180.741 282.447 Q182.57 285.988 186.181 285.988 Q189.815 285.988 191.621 282.447 Q193.45 278.882 193.45 271.775 Q193.45 264.646 191.621 261.104 Q189.815 257.539 186.181 257.539 M186.181 253.836 Q191.991 253.836 195.047 258.442 Q198.125 263.025 198.125 271.775 Q198.125 280.502 195.047 285.109 Q191.991 289.692 186.181 289.692 Q180.371 289.692 177.292 285.109 Q174.237 280.502 174.237 271.775 Q174.237 263.025 177.292 258.442 Q180.371 253.836 186.181 253.836 Z" fill="#000000" fill-rule="nonzero" fill-opacity="1" /><path clip-path="url(#clip910)" d="M16.4842 754.07 L16.4842 747.641 L36.568 747.641 L16.4842 726.316 L16.4842 718.04 L38.6368 741.625 L64.0042 716.354 L64.0042 724.82 L41.1194 747.641 L64.0042 747.641 L64.0042 754.07 L16.4842 754.07 Z" fill="#000000" fill-rule="nonzero" fill-opacity="1" /><polyline clip-path="url(#clip911)" style="stroke:#e6540d; stroke-linecap:round; stroke-linejoin:round; stroke-width:4; stroke-opacity:1; fill:none" points="294.087,1384.24 298.489,1361.9 301.445,1347.31 308.191,1318.18 317.426,1286.97 328.86,1258.71 343.147,1233.03 363.329,1205.06 390.734,1171.99 431.712,1124.43 487.775,1060.28 537.228,1005.56 593.671,966.257 650.113,938.809 734.238,907.092 831.831,879.277 947.609,854.449 1089.29,832.67 1248.26,816.01 1427.63,804.421 1578.22,800.212 1674.08,802.359 1739.69,809.451 1788.43,822.157 1803,828.977 1821.76,840.056 1827.65,844.288 1836.39,852.229 1838.17,853.499 1839.49,854.853 1839.94,854.87 1840.49,855.7 1840.73,856.812 1840.82,856.813 1840.87,856.857 1840.9,856.903 1840.92,856.955 1840.92,856.963 1840.93,857.074 1840.93,856.844 1840.93,857.557 1840.93,856.661 1840.93,858.062 1840.93,858.346 1840.93,857.022 1840.94,858.121 1840.94,856.732 1840.94,859.962 1840.94,858.518 1840.94,858.404 1840.94,857.612 1840.94,858.073 1840.94,856.523 1840.94,858.082 1840.94,857.335 1840.94,858.036 1840.94,856.452 1840.94,857.569 1840.94,859.665 "/>
<polyline clip-path="url(#clip911)" style="stroke:#e6540d; stroke-linecap:round; stroke-linejoin:round; stroke-width:4; stroke-opacity:1; fill:none" stroke-dasharray="16, 10" points="294.087,1384.24 298.489,1356.4 301.445,1340.95 308.191,1310.43 317.426,1277.58 328.86,1247.85 343.147,1221.04 363.329,1192.2 390.734,1158.4 431.712,1109.9 487.775,1044.29 537.228,988.028 593.671,946.943 650.113,918.307 734.238,884.663 831.831,854.236 947.609,825.56 1089.29,797.462 1248.26,770.2 1427.63,737.482 1578.22,696.08 1674.08,647.738 1739.69,587.851 1788.43,510.52 1803,477.98 1821.76,426.458 1827.65,407.545 1836.39,376.693 1838.17,369.956 1839.49,364.88 1839.94,363.127 1840.49,360.965 1840.73,359.993 1840.82,359.642 1840.87,359.441 1840.9,359.329 1840.92,359.267 1840.92,359.233 1840.93,359.213 1840.93,359.203 1840.93,359.197 1840.93,359.194 1840.93,359.192 1840.93,359.191 1840.93,359.19 1840.94,359.19 1840.94,359.19 1840.94,359.19 1840.94,359.19 1840.94,359.19 1840.94,359.19 1840.94,359.19 1840.94,359.19 1840.94,359.19 1840.94,359.19 1840.94,359.19 1840.94,359.19 1840.94,359.19 1840.94,359.19 "/>
<circle clip-path="url(#clip911)" cx="294.087" cy="1372.59" r="14.4" fill="#07519c" fill-rule="evenodd" fill-opacity="1" stroke="#000000" stroke-opacity="1" stroke-width="3.2"/>
<circle clip-path="url(#clip911)" cx="333.084" cy="1172.89" r="14.4" fill="#07519c" fill-rule="evenodd" fill-opacity="1" stroke="#000000" stroke-opacity="1" stroke-width="3.2"/>
<circle clip-path="url(#clip911)" cx="372.097" cy="1096.34" r="14.4" fill="#07519c" fill-rule="evenodd" fill-opacity="1" stroke="#000000" stroke-opacity="1" stroke-width="3.2"/>
<circle clip-path="url(#clip911)" cx="411.102" cy="1044.75" r="14.4" fill="#07519c" fill-rule="evenodd" fill-opacity="1" stroke="#000000" stroke-opacity="1" stroke-width="3.2"/>
<circle clip-path="url(#clip911)" cx="450.099" cy="999.815" r="14.4" fill="#07519c" fill-rule="evenodd" fill-opacity="1" stroke="#000000" stroke-opacity="1" stroke-width="3.2"/>
<circle clip-path="url(#clip911)" cx="489.101" cy="958.211" r="14.4" fill="#07519c" fill-rule="evenodd" fill-opacity="1" stroke="#000000" stroke-opacity="1" stroke-width="3.2"/>
<circle clip-path="url(#clip911)" cx="528.102" cy="928.256" r="14.4" fill="#07519c" fill-rule="evenodd" fill-opacity="1" stroke="#000000" stroke-opacity="1" stroke-width="3.2"/>
<circle clip-path="url(#clip911)" cx="567.101" cy="899.965" r="14.4" fill="#07519c" fill-rule="evenodd" fill-opacity="1" stroke="#000000" stroke-opacity="1" stroke-width="3.2"/>
<circle clip-path="url(#clip911)" cx="606.102" cy="891.644" r="14.4" fill="#07519c" fill-rule="evenodd" fill-opacity="1" stroke="#000000" stroke-opacity="1" stroke-width="3.2"/>
<circle clip-path="url(#clip911)" cx="645.097" cy="875.002" r="14.4" fill="#07519c" fill-rule="evenodd" fill-opacity="1" stroke="#000000" stroke-opacity="1" stroke-width="3.2"/>
<circle clip-path="url(#clip911)" cx="684.095" cy="865.017" r="14.4" fill="#07519c" fill-rule="evenodd" fill-opacity="1" stroke="#000000" stroke-opacity="1" stroke-width="3.2"/>
<circle clip-path="url(#clip911)" cx="723.098" cy="858.361" r="14.4" fill="#07519c" fill-rule="evenodd" fill-opacity="1" stroke="#000000" stroke-opacity="1" stroke-width="3.2"/>
<circle clip-path="url(#clip911)" cx="762.095" cy="848.376" r="14.4" fill="#07519c" fill-rule="evenodd" fill-opacity="1" stroke="#000000" stroke-opacity="1" stroke-width="3.2"/>
<circle clip-path="url(#clip911)" cx="801.09" cy="850.04" r="14.4" fill="#07519c" fill-rule="evenodd" fill-opacity="1" stroke="#000000" stroke-opacity="1" stroke-width="3.2"/>
<circle clip-path="url(#clip911)" cx="840.081" cy="841.719" r="14.4" fill="#07519c" fill-rule="evenodd" fill-opacity="1" stroke="#000000" stroke-opacity="1" stroke-width="3.2"/>
<circle clip-path="url(#clip911)" cx="879.076" cy="841.719" r="14.4" fill="#07519c" fill-rule="evenodd" fill-opacity="1" stroke="#000000" stroke-opacity="1" stroke-width="3.2"/>
<circle clip-path="url(#clip911)" cx="918.079" cy="826.741" r="14.4" fill="#07519c" fill-rule="evenodd" fill-opacity="1" stroke="#000000" stroke-opacity="1" stroke-width="3.2"/>
<circle clip-path="url(#clip911)" cx="957.078" cy="833.398" r="14.4" fill="#07519c" fill-rule="evenodd" fill-opacity="1" stroke="#000000" stroke-opacity="1" stroke-width="3.2"/>
<circle clip-path="url(#clip911)" cx="996.07" cy="818.42" r="14.4" fill="#07519c" fill-rule="evenodd" fill-opacity="1" stroke="#000000" stroke-opacity="1" stroke-width="3.2"/>
<circle clip-path="url(#clip911)" cx="1035.07" cy="825.077" r="14.4" fill="#07519c" fill-rule="evenodd" fill-opacity="1" stroke="#000000" stroke-opacity="1" stroke-width="3.2"/>
<circle clip-path="url(#clip911)" cx="1074.07" cy="833.398" r="14.4" fill="#07519c" fill-rule="evenodd" fill-opacity="1" stroke="#000000" stroke-opacity="1" stroke-width="3.2"/>
<circle clip-path="url(#clip911)" cx="1113.07" cy="846.711" r="14.4" fill="#07519c" fill-rule="evenodd" fill-opacity="1" stroke="#000000" stroke-opacity="1" stroke-width="3.2"/>
<circle clip-path="url(#clip911)" cx="1152.06" cy="855.032" r="14.4" fill="#07519c" fill-rule="evenodd" fill-opacity="1" stroke="#000000" stroke-opacity="1" stroke-width="3.2"/>
<circle clip-path="url(#clip911)" cx="1191.06" cy="853.368" r="14.4" fill="#07519c" fill-rule="evenodd" fill-opacity="1" stroke="#000000" stroke-opacity="1" stroke-width="3.2"/>
<circle clip-path="url(#clip911)" cx="1230.05" cy="856.696" r="14.4" fill="#07519c" fill-rule="evenodd" fill-opacity="1" stroke="#000000" stroke-opacity="1" stroke-width="3.2"/>
<circle clip-path="url(#clip911)" cx="1269.07" cy="846.711" r="14.4" fill="#07519c" fill-rule="evenodd" fill-opacity="1" stroke="#000000" stroke-opacity="1" stroke-width="3.2"/>
<circle clip-path="url(#clip911)" cx="1308.07" cy="841.719" r="14.4" fill="#07519c" fill-rule="evenodd" fill-opacity="1" stroke="#000000" stroke-opacity="1" stroke-width="3.2"/>
<circle clip-path="url(#clip911)" cx="1347.06" cy="855.032" r="14.4" fill="#07519c" fill-rule="evenodd" fill-opacity="1" stroke="#000000" stroke-opacity="1" stroke-width="3.2"/>
<circle clip-path="url(#clip911)" cx="1386.06" cy="858.361" r="14.4" fill="#07519c" fill-rule="evenodd" fill-opacity="1" stroke="#000000" stroke-opacity="1" stroke-width="3.2"/>
<circle clip-path="url(#clip911)" cx="1425.06" cy="848.376" r="14.4" fill="#07519c" fill-rule="evenodd" fill-opacity="1" stroke="#000000" stroke-opacity="1" stroke-width="3.2"/>
<circle clip-path="url(#clip911)" cx="1464.05" cy="856.696" r="14.4" fill="#07519c" fill-rule="evenodd" fill-opacity="1" stroke="#000000" stroke-opacity="1" stroke-width="3.2"/>
<circle clip-path="url(#clip911)" cx="1503.05" cy="875.002" r="14.4" fill="#07519c" fill-rule="evenodd" fill-opacity="1" stroke="#000000" stroke-opacity="1" stroke-width="3.2"/>
<circle clip-path="url(#clip911)" cx="1542.05" cy="893.308" r="14.4" fill="#07519c" fill-rule="evenodd" fill-opacity="1" stroke="#000000" stroke-opacity="1" stroke-width="3.2"/>
<circle clip-path="url(#clip911)" cx="1581.05" cy="901.629" r="14.4" fill="#07519c" fill-rule="evenodd" fill-opacity="1" stroke="#000000" stroke-opacity="1" stroke-width="3.2"/>
<circle clip-path="url(#clip911)" cx="1620.05" cy="909.95" r="14.4" fill="#07519c" fill-rule="evenodd" fill-opacity="1" stroke="#000000" stroke-opacity="1" stroke-width="3.2"/>
<circle clip-path="url(#clip911)" cx="1659.05" cy="918.271" r="14.4" fill="#07519c" fill-rule="evenodd" fill-opacity="1" stroke="#000000" stroke-opacity="1" stroke-width="3.2"/>
<circle clip-path="url(#clip911)" cx="1698.05" cy="926.592" r="14.4" fill="#07519c" fill-rule="evenodd" fill-opacity="1" stroke="#000000" stroke-opacity="1" stroke-width="3.2"/>
<circle clip-path="url(#clip911)" cx="1737.05" cy="929.92" r="14.4" fill="#07519c" fill-rule="evenodd" fill-opacity="1" stroke="#000000" stroke-opacity="1" stroke-width="3.2"/>
<path clip-path="url(#clip911)" d="M297.586 1265.06 L297.586 1297.06 L329.586 1297.06 L329.586 1265.06 L297.586 1265.06 Z" fill="#3082bc" fill-rule="evenodd" fill-opacity="1" stroke="#000000" stroke-opacity="1" stroke-width="3.2"/>
<path clip-path="url(#clip911)" d="M336.583 1171.87 L336.583 1203.87 L368.583 1203.87 L368.583 1171.87 L336.583 1171.87 Z" fill="#3082bc" fill-rule="evenodd" fill-opacity="1" stroke="#000000" stroke-opacity="1" stroke-width="3.2"/>
<path clip-path="url(#clip911)" d="M375.6 1115.28 L375.6 1147.28 L407.6 1147.28 L407.6 1115.28 L375.6 1115.28 Z" fill="#3082bc" fill-rule="evenodd" fill-opacity="1" stroke="#000000" stroke-opacity="1" stroke-width="3.2"/>
<path clip-path="url(#clip911)" d="M414.599 1057.04 L414.599 1089.04 L446.599 1089.04 L446.599 1057.04 L414.599 1057.04 Z" fill="#3082bc" fill-rule="evenodd" fill-opacity="1" stroke="#000000" stroke-opacity="1" stroke-width="3.2"/>
<path clip-path="url(#clip911)" d="M453.599 1000.46 L453.599 1032.46 L485.599 1032.46 L485.599 1000.46 L453.599 1000.46 Z" fill="#3082bc" fill-rule="evenodd" fill-opacity="1" stroke="#000000" stroke-opacity="1" stroke-width="3.2"/>
<path clip-path="url(#clip911)" d="M492.598 950.532 L492.598 982.532 L524.598 982.532 L524.598 950.532 L492.598 950.532 Z" fill="#3082bc" fill-rule="evenodd" fill-opacity="1" stroke="#000000" stroke-opacity="1" stroke-width="3.2"/>
<path clip-path="url(#clip911)" d="M531.602 900.606 L531.602 932.606 L563.602 932.606 L563.602 900.606 L531.602 900.606 Z" fill="#3082bc" fill-rule="evenodd" fill-opacity="1" stroke="#000000" stroke-opacity="1" stroke-width="3.2"/>
<path clip-path="url(#clip911)" d="M570.599 882.301 L570.599 914.301 L602.599 914.301 L602.599 882.301 L570.599 882.301 Z" fill="#3082bc" fill-rule="evenodd" fill-opacity="1" stroke="#000000" stroke-opacity="1" stroke-width="3.2"/>
<path clip-path="url(#clip911)" d="M609.597 865.659 L609.597 897.659 L641.597 897.659 L641.597 865.659 L609.597 865.659 Z" fill="#3082bc" fill-rule="evenodd" fill-opacity="1" stroke="#000000" stroke-opacity="1" stroke-width="3.2"/>
<path clip-path="url(#clip911)" d="M648.6 847.353 L648.6 879.353 L680.6 879.353 L680.6 847.353 L648.6 847.353 Z" fill="#3082bc" fill-rule="evenodd" fill-opacity="1" stroke="#000000" stroke-opacity="1" stroke-width="3.2"/>
<path clip-path="url(#clip911)" d="M687.603 839.032 L687.603 871.032 L719.603 871.032 L719.603 839.032 L687.603 839.032 Z" fill="#3082bc" fill-rule="evenodd" fill-opacity="1" stroke="#000000" stroke-opacity="1" stroke-width="3.2"/>
<path clip-path="url(#clip911)" d="M726.597 832.376 L726.597 864.376 L758.597 864.376 L758.597 832.376 L726.597 832.376 Z" fill="#3082bc" fill-rule="evenodd" fill-opacity="1" stroke="#000000" stroke-opacity="1" stroke-width="3.2"/>
<path clip-path="url(#clip911)" d="M765.589 829.047 L765.589 861.047 L797.589 861.047 L797.589 829.047 L765.589 829.047 Z" fill="#3082bc" fill-rule="evenodd" fill-opacity="1" stroke="#000000" stroke-opacity="1" stroke-width="3.2"/>
<path clip-path="url(#clip911)" d="M804.587 804.085 L804.587 836.085 L836.587 836.085 L836.587 804.085 L804.587 804.085 Z" fill="#3082bc" fill-rule="evenodd" fill-opacity="1" stroke="#000000" stroke-opacity="1" stroke-width="3.2"/>
<path clip-path="url(#clip911)" d="M843.581 810.741 L843.581 842.741 L875.581 842.741 L875.581 810.741 L843.581 810.741 Z" fill="#3082bc" fill-rule="evenodd" fill-opacity="1" stroke="#000000" stroke-opacity="1" stroke-width="3.2"/>
<path clip-path="url(#clip911)" d="M882.573 810.741 L882.573 842.741 L914.573 842.741 L914.573 810.741 L882.573 810.741 Z" fill="#3082bc" fill-rule="evenodd" fill-opacity="1" stroke="#000000" stroke-opacity="1" stroke-width="3.2"/>
<path clip-path="url(#clip911)" d="M921.58 820.726 L921.58 852.726 L953.58 852.726 L953.58 820.726 L921.58 820.726 Z" fill="#3082bc" fill-rule="evenodd" fill-opacity="1" stroke="#000000" stroke-opacity="1" stroke-width="3.2"/>
<path clip-path="url(#clip911)" d="M960.575 822.391 L960.575 854.391 L992.575 854.391 L992.575 822.391 L960.575 822.391 Z" fill="#3082bc" fill-rule="evenodd" fill-opacity="1" stroke="#000000" stroke-opacity="1" stroke-width="3.2"/>
<path clip-path="url(#clip911)" d="M999.566 820.726 L999.566 852.726 L1031.57 852.726 L1031.57 820.726 L999.566 820.726 Z" fill="#3082bc" fill-rule="evenodd" fill-opacity="1" stroke="#000000" stroke-opacity="1" stroke-width="3.2"/>
<path clip-path="url(#clip911)" d="M1038.57 827.383 L1038.57 859.383 L1070.57 859.383 L1070.57 827.383 L1038.57 827.383 Z" fill="#3082bc" fill-rule="evenodd" fill-opacity="1" stroke="#000000" stroke-opacity="1" stroke-width="3.2"/>
<path clip-path="url(#clip911)" d="M1077.57 829.047 L1077.57 861.047 L1109.57 861.047 L1109.57 829.047 L1077.57 829.047 Z" fill="#3082bc" fill-rule="evenodd" fill-opacity="1" stroke="#000000" stroke-opacity="1" stroke-width="3.2"/>
<path clip-path="url(#clip911)" d="M1116.57 820.726 L1116.57 852.726 L1148.57 852.726 L1148.57 820.726 L1116.57 820.726 Z" fill="#3082bc" fill-rule="evenodd" fill-opacity="1" stroke="#000000" stroke-opacity="1" stroke-width="3.2"/>
<path clip-path="url(#clip911)" d="M1155.56 815.734 L1155.56 847.734 L1187.56 847.734 L1187.56 815.734 L1155.56 815.734 Z" fill="#3082bc" fill-rule="evenodd" fill-opacity="1" stroke="#000000" stroke-opacity="1" stroke-width="3.2"/>
<path clip-path="url(#clip911)" d="M1194.55 817.398 L1194.55 849.398 L1226.55 849.398 L1226.55 817.398 L1194.55 817.398 Z" fill="#3082bc" fill-rule="evenodd" fill-opacity="1" stroke="#000000" stroke-opacity="1" stroke-width="3.2"/>
<path clip-path="url(#clip911)" d="M1233.57 820.726 L1233.57 852.726 L1265.57 852.726 L1265.57 820.726 L1233.57 820.726 Z" fill="#3082bc" fill-rule="evenodd" fill-opacity="1" stroke="#000000" stroke-opacity="1" stroke-width="3.2"/>
<path clip-path="url(#clip911)" d="M1272.57 822.391 L1272.57 854.391 L1304.57 854.391 L1304.57 822.391 L1272.57 822.391 Z" fill="#3082bc" fill-rule="evenodd" fill-opacity="1" stroke="#000000" stroke-opacity="1" stroke-width="3.2"/>
<path clip-path="url(#clip911)" d="M1311.56 814.07 L1311.56 846.07 L1343.56 846.07 L1343.56 814.07 L1311.56 814.07 Z" fill="#3082bc" fill-rule="evenodd" fill-opacity="1" stroke="#000000" stroke-opacity="1" stroke-width="3.2"/>
<path clip-path="url(#clip911)" d="M1350.56 814.07 L1350.56 846.07 L1382.56 846.07 L1382.56 814.07 L1350.56 814.07 Z" fill="#3082bc" fill-rule="evenodd" fill-opacity="1" stroke="#000000" stroke-opacity="1" stroke-width="3.2"/>
<path clip-path="url(#clip911)" d="M1389.56 830.711 L1389.56 862.711 L1421.56 862.711 L1421.56 830.711 L1389.56 830.711 Z" fill="#3082bc" fill-rule="evenodd" fill-opacity="1" stroke="#000000" stroke-opacity="1" stroke-width="3.2"/>
<path clip-path="url(#clip911)" d="M1428.56 844.025 L1428.56 876.025 L1460.56 876.025 L1460.56 844.025 L1428.56 844.025 Z" fill="#3082bc" fill-rule="evenodd" fill-opacity="1" stroke="#000000" stroke-opacity="1" stroke-width="3.2"/>
<path clip-path="url(#clip911)" d="M1467.55 850.681 L1467.55 882.681 L1499.55 882.681 L1499.55 850.681 L1467.55 850.681 Z" fill="#3082bc" fill-rule="evenodd" fill-opacity="1" stroke="#000000" stroke-opacity="1" stroke-width="3.2"/>
<path clip-path="url(#clip911)" d="M1506.55 857.338 L1506.55 889.338 L1538.55 889.338 L1538.55 857.338 L1506.55 857.338 Z" fill="#3082bc" fill-rule="evenodd" fill-opacity="1" stroke="#000000" stroke-opacity="1" stroke-width="3.2"/>
<path clip-path="url(#clip911)" d="M1545.55 860.666 L1545.55 892.666 L1577.55 892.666 L1577.55 860.666 L1545.55 860.666 Z" fill="#3082bc" fill-rule="evenodd" fill-opacity="1" stroke="#000000" stroke-opacity="1" stroke-width="3.2"/>
<path clip-path="url(#clip911)" d="M1584.55 872.316 L1584.55 904.316 L1616.55 904.316 L1616.55 872.316 L1584.55 872.316 Z" fill="#3082bc" fill-rule="evenodd" fill-opacity="1" stroke="#000000" stroke-opacity="1" stroke-width="3.2"/>
<path clip-path="url(#clip911)" d="M1623.55 883.965 L1623.55 915.965 L1655.55 915.965 L1655.55 883.965 L1623.55 883.965 Z" fill="#3082bc" fill-rule="evenodd" fill-opacity="1" stroke="#000000" stroke-opacity="1" stroke-width="3.2"/>
<path clip-path="url(#clip911)" d="M1662.55 905.599 L1662.55 937.599 L1694.55 937.599 L1694.55 905.599 L1662.55 905.599 Z" fill="#3082bc" fill-rule="evenodd" fill-opacity="1" stroke="#000000" stroke-opacity="1" stroke-width="3.2"/>
<path clip-path="url(#clip911)" d="M1701.55 930.562 L1701.55 962.562 L1733.55 962.562 L1733.55 930.562 L1701.55 930.562 Z" fill="#3082bc" fill-rule="evenodd" fill-opacity="1" stroke="#000000" stroke-opacity="1" stroke-width="3.2"/>
<path clip-path="url(#clip911)" d="M1740.55 950.532 L1740.55 982.532 L1772.55 982.532 L1772.55 950.532 L1740.55 950.532 Z" fill="#3082bc" fill-rule="evenodd" fill-opacity="1" stroke="#000000" stroke-opacity="1" stroke-width="3.2"/>
<path clip-path="url(#clip911)" d="M1779.55 962.181 L1779.55 994.181 L1811.55 994.181 L1811.55 962.181 L1779.55 962.181 Z" fill="#3082bc" fill-rule="evenodd" fill-opacity="1" stroke="#000000" stroke-opacity="1" stroke-width="3.2"/>
<path clip-path="url(#clip911)" d="M1818.55 972.166 L1818.55 1004.17 L1850.55 1004.17 L1850.55 972.166 L1818.55 972.166 Z" fill="#3082bc" fill-rule="evenodd" fill-opacity="1" stroke="#000000" stroke-opacity="1" stroke-width="3.2"/>
<circle clip-path="url(#clip911)" cx="294.087" cy="1354.28" r="14.4" fill="#ffffff" fill-rule="evenodd" fill-opacity="1" stroke="#07519c" stroke-opacity="1" stroke-width="4.8"/>
<circle clip-path="url(#clip911)" cx="342.833" cy="1134.61" r="14.4" fill="#ffffff" fill-rule="evenodd" fill-opacity="1" stroke="#07519c" stroke-opacity="1" stroke-width="4.8"/>
<circle clip-path="url(#clip911)" cx="391.6" cy="1051.4" r="14.4" fill="#ffffff" fill-rule="evenodd" fill-opacity="1" stroke="#07519c" stroke-opacity="1" stroke-width="4.8"/>
<circle clip-path="url(#clip911)" cx="440.351" cy="983.173" r="14.4" fill="#ffffff" fill-rule="evenodd" fill-opacity="1" stroke="#07519c" stroke-opacity="1" stroke-width="4.8"/>
<circle clip-path="url(#clip911)" cx="489.101" cy="914.942" r="14.4" fill="#ffffff" fill-rule="evenodd" fill-opacity="1" stroke="#07519c" stroke-opacity="1" stroke-width="4.8"/>
<circle clip-path="url(#clip911)" cx="537.85" cy="856.696" r="14.4" fill="#ffffff" fill-rule="evenodd" fill-opacity="1" stroke="#07519c" stroke-opacity="1" stroke-width="4.8"/>
<circle clip-path="url(#clip911)" cx="586.599" cy="833.398" r="14.4" fill="#ffffff" fill-rule="evenodd" fill-opacity="1" stroke="#07519c" stroke-opacity="1" stroke-width="4.8"/>
<circle clip-path="url(#clip911)" cx="635.346" cy="805.107" r="14.4" fill="#ffffff" fill-rule="evenodd" fill-opacity="1" stroke="#07519c" stroke-opacity="1" stroke-width="4.8"/>
<circle clip-path="url(#clip911)" cx="684.095" cy="788.465" r="14.4" fill="#ffffff" fill-rule="evenodd" fill-opacity="1" stroke="#07519c" stroke-opacity="1" stroke-width="4.8"/>
<circle clip-path="url(#clip911)" cx="732.849" cy="775.152" r="14.4" fill="#ffffff" fill-rule="evenodd" fill-opacity="1" stroke="#07519c" stroke-opacity="1" stroke-width="4.8"/>
<circle clip-path="url(#clip911)" cx="781.589" cy="761.839" r="14.4" fill="#ffffff" fill-rule="evenodd" fill-opacity="1" stroke="#07519c" stroke-opacity="1" stroke-width="4.8"/>
<circle clip-path="url(#clip911)" cx="830.336" cy="743.533" r="14.4" fill="#ffffff" fill-rule="evenodd" fill-opacity="1" stroke="#07519c" stroke-opacity="1" stroke-width="4.8"/>
<circle clip-path="url(#clip911)" cx="879.076" cy="731.884" r="14.4" fill="#ffffff" fill-rule="evenodd" fill-opacity="1" stroke="#07519c" stroke-opacity="1" stroke-width="4.8"/>
<circle clip-path="url(#clip911)" cx="927.832" cy="701.929" r="14.4" fill="#ffffff" fill-rule="evenodd" fill-opacity="1" stroke="#07519c" stroke-opacity="1" stroke-width="4.8"/>
<circle clip-path="url(#clip911)" cx="976.575" cy="681.959" r="14.4" fill="#ffffff" fill-rule="evenodd" fill-opacity="1" stroke="#07519c" stroke-opacity="1" stroke-width="4.8"/>
<circle clip-path="url(#clip911)" cx="1025.32" cy="643.683" r="14.4" fill="#ffffff" fill-rule="evenodd" fill-opacity="1" stroke="#07519c" stroke-opacity="1" stroke-width="4.8"/>
<circle clip-path="url(#clip911)" cx="1074.07" cy="618.72" r="14.4" fill="#ffffff" fill-rule="evenodd" fill-opacity="1" stroke="#07519c" stroke-opacity="1" stroke-width="4.8"/>
<circle clip-path="url(#clip911)" cx="1122.82" cy="607.071" r="14.4" fill="#ffffff" fill-rule="evenodd" fill-opacity="1" stroke="#07519c" stroke-opacity="1" stroke-width="4.8"/>
<circle clip-path="url(#clip911)" cx="1171.56" cy="595.422" r="14.4" fill="#ffffff" fill-rule="evenodd" fill-opacity="1" stroke="#07519c" stroke-opacity="1" stroke-width="4.8"/>
<circle clip-path="url(#clip911)" cx="1220.3" cy="568.795" r="14.4" fill="#ffffff" fill-rule="evenodd" fill-opacity="1" stroke="#07519c" stroke-opacity="1" stroke-width="4.8"/>
<circle clip-path="url(#clip911)" cx="1269.07" cy="538.84" r="14.4" fill="#ffffff" fill-rule="evenodd" fill-opacity="1" stroke="#07519c" stroke-opacity="1" stroke-width="4.8"/>
<circle clip-path="url(#clip911)" cx="1317.81" cy="518.87" r="14.4" fill="#ffffff" fill-rule="evenodd" fill-opacity="1" stroke="#07519c" stroke-opacity="1" stroke-width="4.8"/>
<circle clip-path="url(#clip911)" cx="1366.56" cy="497.236" r="14.4" fill="#ffffff" fill-rule="evenodd" fill-opacity="1" stroke="#07519c" stroke-opacity="1" stroke-width="4.8"/>
<circle clip-path="url(#clip911)" cx="1415.31" cy="438.99" r="14.4" fill="#ffffff" fill-rule="evenodd" fill-opacity="1" stroke="#07519c" stroke-opacity="1" stroke-width="4.8"/>
<circle clip-path="url(#clip911)" cx="1464.05" cy="412.363" r="14.4" fill="#ffffff" fill-rule="evenodd" fill-opacity="1" stroke="#07519c" stroke-opacity="1" stroke-width="4.8"/>
<circle clip-path="url(#clip911)" cx="1512.8" cy="425.676" r="14.4" fill="#ffffff" fill-rule="evenodd" fill-opacity="1" stroke="#07519c" stroke-opacity="1" stroke-width="4.8"/>
<circle clip-path="url(#clip911)" cx="1561.55" cy="415.691" r="14.4" fill="#ffffff" fill-rule="evenodd" fill-opacity="1" stroke="#07519c" stroke-opacity="1" stroke-width="4.8"/>
<circle clip-path="url(#clip911)" cx="1610.3" cy="375.751" r="14.4" fill="#ffffff" fill-rule="evenodd" fill-opacity="1" stroke="#07519c" stroke-opacity="1" stroke-width="4.8"/>
<circle clip-path="url(#clip911)" cx="1659.05" cy="352.453" r="14.4" fill="#ffffff" fill-rule="evenodd" fill-opacity="1" stroke="#07519c" stroke-opacity="1" stroke-width="4.8"/>
<circle clip-path="url(#clip911)" cx="1707.8" cy="332.483" r="14.4" fill="#ffffff" fill-rule="evenodd" fill-opacity="1" stroke="#07519c" stroke-opacity="1" stroke-width="4.8"/>
<circle clip-path="url(#clip911)" cx="1756.55" cy="309.184" r="14.4" fill="#ffffff" fill-rule="evenodd" fill-opacity="1" stroke="#07519c" stroke-opacity="1" stroke-width="4.8"/>
<circle clip-path="url(#clip911)" cx="1805.3" cy="270.909" r="14.4" fill="#ffffff" fill-rule="evenodd" fill-opacity="1" stroke="#07519c" stroke-opacity="1" stroke-width="4.8"/>
<circle clip-path="url(#clip911)" cx="1854.05" cy="209.334" r="14.4" fill="#ffffff" fill-rule="evenodd" fill-opacity="1" stroke="#07519c" stroke-opacity="1" stroke-width="4.8"/>
<circle clip-path="url(#clip911)" cx="1902.8" cy="172.723" r="14.4" fill="#ffffff" fill-rule="evenodd" fill-opacity="1" stroke="#07519c" stroke-opacity="1" stroke-width="4.8"/>
<circle clip-path="url(#clip911)" cx="1951.54" cy="141.103" r="14.4" fill="#ffffff" fill-rule="evenodd" fill-opacity="1" stroke="#07519c" stroke-opacity="1" stroke-width="4.8"/>
<circle clip-path="url(#clip911)" cx="2000.3" cy="114.477" r="14.4" fill="#ffffff" fill-rule="evenodd" fill-opacity="1" stroke="#07519c" stroke-opacity="1" stroke-width="4.8"/>
<circle clip-path="url(#clip911)" cx="2049.05" cy="86.1857" r="14.4" fill="#ffffff" fill-rule="evenodd" fill-opacity="1" stroke="#07519c" stroke-opacity="1" stroke-width="4.8"/>
<circle clip-path="url(#clip911)" cx="2097.79" cy="407.37" r="14.4" fill="#ffffff" fill-rule="evenodd" fill-opacity="1" stroke="#07519c" stroke-opacity="1" stroke-width="4.8"/>
<circle clip-path="url(#clip911)" cx="2146.55" cy="472.273" r="14.4" fill="#ffffff" fill-rule="evenodd" fill-opacity="1" stroke="#07519c" stroke-opacity="1" stroke-width="4.8"/>
<circle clip-path="url(#clip911)" cx="2195.3" cy="498.9" r="14.4" fill="#ffffff" fill-rule="evenodd" fill-opacity="1" stroke="#07519c" stroke-opacity="1" stroke-width="4.8"/>
<circle clip-path="url(#clip911)" cx="2244.05" cy="510.549" r="14.4" fill="#ffffff" fill-rule="evenodd" fill-opacity="1" stroke="#07519c" stroke-opacity="1" stroke-width="4.8"/>
<circle clip-path="url(#clip911)" cx="2292.79" cy="522.198" r="14.4" fill="#ffffff" fill-rule="evenodd" fill-opacity="1" stroke="#07519c" stroke-opacity="1" stroke-width="4.8"/>
<polyline clip-path="url(#clip911)" style="stroke:#808080; stroke-linecap:round; stroke-linejoin:round; stroke-width:12; stroke-opacity:1; fill:none" stroke-dasharray="48, 30" points="2027.69,2799.12 2027.69,-1328.69 "/>
<path clip-path="url(#clip910)" d="M304.746 404.149 L770.984 404.149 L770.984 93.1086 L304.746 93.1086  Z" fill="#ffffff" fill-rule="evenodd" fill-opacity="1"/>
<polyline clip-path="url(#clip910)" style="stroke:#000000; stroke-linecap:round; stroke-linejoin:round; stroke-width:4; stroke-opacity:1; fill:none" points="304.746,404.149 770.984,404.149 770.984,93.1086 304.746,93.1086 304.746,404.149 "/>
<polyline clip-path="url(#clip910)" style="stroke:#e6540d; stroke-linecap:round; stroke-linejoin:round; stroke-width:4; stroke-opacity:1; fill:none" points="328.287,144.949 469.529,144.949 "/>
<path clip-path="url(#clip910)" d="M525.697 122.039 Q525.697 122.484 525.603 122.859 L524.291 131.197 Q524.221 131.83 524.08 132.064 Q523.963 132.298 523.589 132.298 Q523.003 132.298 523.003 131.689 Q523.003 131.338 523.144 130.776 Q523.542 128.129 523.542 126.934 Q523.542 126.138 523.378 125.552 Q523.237 124.943 523.003 124.522 Q522.792 124.1 522.3 123.819 Q521.809 123.538 521.34 123.374 Q520.872 123.21 520.028 123.14 Q519.185 123.046 518.459 123.023 Q517.733 122.999 516.538 122.999 Q513.939 122.999 513.517 123.093 Q513.072 123.21 512.838 123.561 Q512.627 123.889 512.393 124.873 L506.022 150.333 L505.834 151.34 Q505.834 151.903 506.186 152.09 Q506.537 152.277 507.615 152.394 Q509.16 152.512 510.683 152.512 Q510.73 152.512 510.823 152.512 Q511.339 152.512 511.549 152.535 Q511.76 152.535 511.971 152.582 Q512.182 152.629 512.229 152.746 Q512.299 152.84 512.299 153.027 Q512.299 153.472 512.112 153.706 Q511.924 153.917 511.737 153.964 Q511.573 153.987 511.245 153.987 Q510.589 153.987 509.184 153.94 Q507.778 153.894 507.076 153.894 L503.094 153.847 L499.018 153.894 Q498.386 153.894 497.051 153.94 Q495.716 153.987 495.084 153.987 Q494.264 153.987 494.264 153.402 Q494.264 152.746 494.568 152.629 Q494.896 152.512 496.278 152.512 Q498.222 152.512 499.276 152.418 Q500.33 152.324 500.892 151.996 Q501.478 151.668 501.642 151.34 Q501.806 150.989 501.993 150.193 L508.434 124.592 Q508.622 124.03 508.622 123.585 Q508.622 123.351 508.551 123.257 Q508.505 123.163 508.2 123.093 Q507.896 122.999 507.263 122.999 L505.389 122.999 Q503.469 122.999 502.274 123.093 Q501.103 123.163 499.979 123.515 Q498.878 123.866 498.222 124.358 Q497.59 124.85 496.887 125.857 Q496.184 126.864 495.669 128.082 Q495.177 129.3 494.475 131.291 Q494.24 131.947 494.1 132.134 Q493.983 132.298 493.655 132.298 Q493.421 132.298 493.233 132.157 Q493.069 131.994 493.069 131.783 Q493.303 131.01 493.35 130.916 L496.231 122.461 Q496.465 121.781 496.676 121.664 Q496.91 121.524 497.777 121.524 L524.385 121.524 Q524.807 121.524 524.947 121.524 Q525.088 121.524 525.322 121.571 Q525.556 121.617 525.626 121.735 Q525.697 121.852 525.697 122.039 Z" fill="#000000" fill-rule="nonzero" fill-opacity="1" /><path clip-path="url(#clip910)" d="M530.486 154.623 L530.486 153.573 L533.126 153.573 L533.126 149.72 Q533.126 147.228 534.733 145.802 Q536.356 144.375 538.34 144.375 Q539.651 144.375 540.504 145.08 Q541.356 145.785 541.356 146.736 Q541.356 147.376 540.963 147.802 Q540.586 148.212 539.881 148.212 Q539.209 148.212 538.815 147.786 Q538.438 147.359 538.438 146.769 Q538.438 145.687 539.438 145.359 Q538.93 145.129 538.34 145.113 Q537.126 145.113 536.175 146.359 Q535.241 147.605 535.241 149.687 L535.241 153.573 L539.176 153.573 L539.176 154.623 L535.356 154.623 L535.356 165.427 Q535.356 166.395 535.749 166.706 Q536.159 167.018 537.897 167.018 L538.602 167.018 L538.602 168.051 Q537.257 167.952 534.339 167.952 Q533.929 167.952 533.29 167.969 Q532.667 167.985 531.814 168.018 Q530.978 168.051 530.519 168.051 L530.519 167.018 Q532.306 167.018 532.716 166.805 Q533.126 166.575 533.126 165.493 L533.126 154.623 L530.486 154.623 Z" fill="#000000" fill-rule="nonzero" fill-opacity="1" /><path clip-path="url(#clip910)" d="M547.635 148.108 L552.519 148.108 L552.519 152.089 L548.723 159.496 L545.737 159.496 L547.635 152.089 L547.635 148.108 Z" fill="#000000" fill-rule="nonzero" fill-opacity="1" /><path clip-path="url(#clip910)" d="M596.871 133.038 Q598.468 130.168 600.69 128.802 Q602.913 127.436 605.922 127.436 Q609.973 127.436 612.172 130.284 Q614.371 133.108 614.371 138.339 L614.371 153.987 L610.088 153.987 L610.088 138.478 Q610.088 134.751 608.769 132.946 Q607.45 131.14 604.741 131.14 Q601.431 131.14 599.51 133.339 Q597.588 135.538 597.588 139.335 L597.588 153.987 L593.306 153.987 L593.306 138.478 Q593.306 134.728 591.987 132.946 Q590.667 131.14 587.913 131.14 Q584.649 131.14 582.727 133.362 Q580.806 135.561 580.806 139.335 L580.806 153.987 L576.524 153.987 L576.524 128.061 L580.806 128.061 L580.806 132.089 Q582.264 129.705 584.302 128.571 Q586.339 127.436 589.139 127.436 Q591.964 127.436 593.931 128.872 Q595.922 130.307 596.871 133.038 Z" fill="#000000" fill-rule="nonzero" fill-opacity="1" /><path clip-path="url(#clip910)" d="M632.912 131.048 Q629.486 131.048 627.496 133.733 Q625.505 136.395 625.505 141.047 Q625.505 145.7 627.473 148.385 Q629.463 151.047 632.912 151.047 Q636.315 151.047 638.306 148.362 Q640.297 145.677 640.297 141.047 Q640.297 136.441 638.306 133.756 Q636.315 131.048 632.912 131.048 M632.912 127.436 Q638.468 127.436 641.639 131.048 Q644.81 134.659 644.81 141.047 Q644.81 147.413 641.639 151.047 Q638.468 154.659 632.912 154.659 Q627.334 154.659 624.162 151.047 Q621.014 147.413 621.014 141.047 Q621.014 134.659 624.162 131.048 Q627.334 127.436 632.912 127.436 Z" fill="#000000" fill-rule="nonzero" fill-opacity="1" /><path clip-path="url(#clip910)" d="M668.931 131.997 L668.931 117.969 L673.19 117.969 L673.19 153.987 L668.931 153.987 L668.931 150.098 Q667.588 152.413 665.528 153.547 Q663.491 154.659 660.621 154.659 Q655.922 154.659 652.959 150.909 Q650.019 147.159 650.019 141.047 Q650.019 134.936 652.959 131.186 Q655.922 127.436 660.621 127.436 Q663.491 127.436 665.528 128.571 Q667.588 129.682 668.931 131.997 M654.417 141.047 Q654.417 145.747 656.338 148.432 Q658.283 151.094 661.662 151.094 Q665.042 151.094 666.986 148.432 Q668.931 145.747 668.931 141.047 Q668.931 136.348 666.986 133.686 Q665.042 131.001 661.662 131.001 Q658.283 131.001 656.338 133.686 Q654.417 136.348 654.417 141.047 Z" fill="#000000" fill-rule="nonzero" fill-opacity="1" /><path clip-path="url(#clip910)" d="M704.139 139.96 L704.139 142.043 L684.556 142.043 Q684.833 146.441 687.194 148.756 Q689.579 151.047 693.815 151.047 Q696.269 151.047 698.56 150.446 Q700.875 149.844 703.143 148.64 L703.143 152.668 Q700.852 153.64 698.444 154.149 Q696.037 154.659 693.56 154.659 Q687.357 154.659 683.722 151.047 Q680.111 147.436 680.111 141.279 Q680.111 134.913 683.537 131.186 Q686.986 127.436 692.819 127.436 Q698.051 127.436 701.083 130.816 Q704.139 134.173 704.139 139.96 M699.88 138.71 Q699.833 135.214 697.912 133.131 Q696.014 131.048 692.866 131.048 Q689.301 131.048 687.148 133.061 Q685.019 135.075 684.694 138.733 L699.88 138.71 Z" fill="#000000" fill-rule="nonzero" fill-opacity="1" /><path clip-path="url(#clip910)" d="M711.13 117.969 L715.389 117.969 L715.389 153.987 L711.13 153.987 L711.13 117.969 Z" fill="#000000" fill-rule="nonzero" fill-opacity="1" /><polyline clip-path="url(#clip910)" style="stroke:#e6540d; stroke-linecap:round; stroke-linejoin:round; stroke-width:4; stroke-opacity:1; fill:none" stroke-dasharray="16, 10" points="328.287,196.789 469.529,196.789 "/>
<path clip-path="url(#clip910)" d="M525.697 176.423 Q525.697 176.868 525.603 177.243 L524.291 185.581 Q524.221 186.214 524.08 186.448 Q523.963 186.682 523.589 186.682 Q523.003 186.682 523.003 186.073 Q523.003 185.722 523.144 185.16 Q523.542 182.513 523.542 181.318 Q523.542 180.522 523.378 179.936 Q523.237 179.327 523.003 178.906 Q522.792 178.484 522.3 178.203 Q521.809 177.922 521.34 177.758 Q520.872 177.594 520.028 177.524 Q519.185 177.43 518.459 177.407 Q517.733 177.383 516.538 177.383 Q513.939 177.383 513.517 177.477 Q513.072 177.594 512.838 177.946 Q512.627 178.273 512.393 179.257 L506.022 204.717 L505.834 205.725 Q505.834 206.287 506.186 206.474 Q506.537 206.661 507.615 206.779 Q509.16 206.896 510.683 206.896 Q510.73 206.896 510.823 206.896 Q511.339 206.896 511.549 206.919 Q511.76 206.919 511.971 206.966 Q512.182 207.013 512.229 207.13 Q512.299 207.224 512.299 207.411 Q512.299 207.856 512.112 208.09 Q511.924 208.301 511.737 208.348 Q511.573 208.371 511.245 208.371 Q510.589 208.371 509.184 208.324 Q507.778 208.278 507.076 208.278 L503.094 208.231 L499.018 208.278 Q498.386 208.278 497.051 208.324 Q495.716 208.371 495.084 208.371 Q494.264 208.371 494.264 207.786 Q494.264 207.13 494.568 207.013 Q494.896 206.896 496.278 206.896 Q498.222 206.896 499.276 206.802 Q500.33 206.708 500.892 206.38 Q501.478 206.052 501.642 205.725 Q501.806 205.373 501.993 204.577 L508.434 178.976 Q508.622 178.414 508.622 177.969 Q508.622 177.735 508.551 177.641 Q508.505 177.547 508.2 177.477 Q507.896 177.383 507.263 177.383 L505.389 177.383 Q503.469 177.383 502.274 177.477 Q501.103 177.547 499.979 177.899 Q498.878 178.25 498.222 178.742 Q497.59 179.234 496.887 180.241 Q496.184 181.248 495.669 182.466 Q495.177 183.684 494.475 185.675 Q494.24 186.331 494.1 186.518 Q493.983 186.682 493.655 186.682 Q493.421 186.682 493.233 186.542 Q493.069 186.378 493.069 186.167 Q493.303 185.394 493.35 185.3 L496.231 176.845 Q496.465 176.165 496.676 176.048 Q496.91 175.908 497.777 175.908 L524.385 175.908 Q524.807 175.908 524.947 175.908 Q525.088 175.908 525.322 175.955 Q525.556 176.001 525.626 176.119 Q525.697 176.236 525.697 176.423 Z" fill="#000000" fill-rule="nonzero" fill-opacity="1" /><path clip-path="url(#clip910)" d="M530.486 203.547 L530.486 202.497 Q531.994 202.596 533.749 202.596 Q534.388 202.596 537.405 202.497 L537.405 203.547 Q535.487 203.547 535.487 204.416 Q535.487 204.547 535.683 204.989 L539.455 214.351 L542.881 205.793 Q543.078 205.219 543.078 204.989 Q543.078 204.416 542.684 204.006 Q542.307 203.579 541.471 203.547 L541.471 202.497 Q543.176 202.596 544.39 202.596 Q545.767 202.596 546.898 202.497 L546.898 203.547 Q545.898 203.547 545.193 204.006 Q544.488 204.448 544.258 204.842 Q544.045 205.219 543.816 205.793 L539.422 216.712 Q539.159 217.352 538.717 217.352 Q538.422 217.352 538.29 217.221 Q538.176 217.106 538.012 216.712 L533.175 204.793 Q532.847 203.957 532.421 203.76 Q531.994 203.547 530.486 203.547 Z" fill="#000000" fill-rule="nonzero" fill-opacity="1" /><path clip-path="url(#clip910)" d="M548.676 203.547 L548.676 202.497 Q550.496 202.596 551.791 202.596 Q552.431 202.596 555.464 202.497 L555.464 203.547 Q553.48 203.547 553.48 204.448 Q553.48 204.645 553.644 205.055 L556.841 214.023 L559.727 205.891 Q559.12 204.252 558.956 204.055 Q558.546 203.547 556.841 203.547 L556.841 202.497 Q558.349 202.596 559.825 202.596 Q560.399 202.596 563.317 202.497 L563.317 203.547 Q561.333 203.547 561.333 204.448 Q561.333 204.58 561.497 205.088 L564.826 214.45 L567.875 205.858 Q568.039 205.416 568.056 205.153 Q568.056 204.416 567.531 204.006 Q567.006 203.579 566.105 203.547 L566.105 202.497 Q568.023 202.596 569.22 202.596 Q570.564 202.596 571.679 202.497 L571.679 203.547 Q569.597 203.612 568.859 205.694 L564.924 216.712 Q564.547 217.319 564.252 217.352 Q563.809 217.352 563.58 216.712 L560.153 207.17 L556.759 216.68 Q556.628 217.089 556.513 217.221 Q556.398 217.352 556.087 217.352 Q555.792 217.352 555.661 217.171 Q555.529 217.008 555.382 216.598 L551.152 204.711 Q550.857 203.94 550.414 203.743 Q549.988 203.547 548.676 203.547 Z" fill="#000000" fill-rule="nonzero" fill-opacity="1" /><path clip-path="url(#clip910)" d="M579.69 202.492 L584.574 202.492 L584.574 206.473 L580.778 213.881 L577.792 213.881 L579.69 206.473 L579.69 202.492 Z" fill="#000000" fill-rule="nonzero" fill-opacity="1" /><path clip-path="url(#clip910)" d="M628.926 187.422 Q630.523 184.552 632.745 183.186 Q634.967 181.82 637.977 181.82 Q642.028 181.82 644.227 184.668 Q646.426 187.492 646.426 192.723 L646.426 208.371 L642.143 208.371 L642.143 192.862 Q642.143 189.135 640.824 187.33 Q639.504 185.524 636.796 185.524 Q633.486 185.524 631.565 187.723 Q629.643 189.922 629.643 193.719 L629.643 208.371 L625.361 208.371 L625.361 192.862 Q625.361 189.112 624.042 187.33 Q622.722 185.524 619.968 185.524 Q616.704 185.524 614.782 187.746 Q612.861 189.945 612.861 193.719 L612.861 208.371 L608.579 208.371 L608.579 182.445 L612.861 182.445 L612.861 186.473 Q614.319 184.089 616.356 182.955 Q618.393 181.82 621.194 181.82 Q624.018 181.82 625.986 183.256 Q627.977 184.691 628.926 187.422 Z" fill="#000000" fill-rule="nonzero" fill-opacity="1" /><path clip-path="url(#clip910)" d="M664.967 185.432 Q661.541 185.432 659.551 188.117 Q657.56 190.779 657.56 195.432 Q657.56 200.084 659.528 202.769 Q661.518 205.431 664.967 205.431 Q668.37 205.431 670.361 202.746 Q672.352 200.061 672.352 195.432 Q672.352 190.825 670.361 188.14 Q668.37 185.432 664.967 185.432 M664.967 181.82 Q670.523 181.82 673.694 185.432 Q676.865 189.043 676.865 195.432 Q676.865 201.797 673.694 205.431 Q670.523 209.043 664.967 209.043 Q659.389 209.043 656.217 205.431 Q653.069 201.797 653.069 195.432 Q653.069 189.043 656.217 185.432 Q659.389 181.82 664.967 181.82 Z" fill="#000000" fill-rule="nonzero" fill-opacity="1" /><path clip-path="url(#clip910)" d="M700.986 186.381 L700.986 172.353 L705.245 172.353 L705.245 208.371 L700.986 208.371 L700.986 204.482 Q699.643 206.797 697.583 207.931 Q695.546 209.043 692.675 209.043 Q687.976 209.043 685.013 205.293 Q682.074 201.543 682.074 195.432 Q682.074 189.32 685.013 185.57 Q687.976 181.82 692.675 181.82 Q695.546 181.82 697.583 182.955 Q699.643 184.066 700.986 186.381 M686.472 195.432 Q686.472 200.131 688.393 202.816 Q690.338 205.478 693.717 205.478 Q697.097 205.478 699.041 202.816 Q700.986 200.131 700.986 195.432 Q700.986 190.732 699.041 188.07 Q697.097 185.385 693.717 185.385 Q690.338 185.385 688.393 188.07 Q686.472 190.732 686.472 195.432 Z" fill="#000000" fill-rule="nonzero" fill-opacity="1" /><path clip-path="url(#clip910)" d="M736.194 194.344 L736.194 196.427 L716.611 196.427 Q716.888 200.825 719.249 203.14 Q721.634 205.431 725.87 205.431 Q728.323 205.431 730.615 204.83 Q732.93 204.228 735.198 203.024 L735.198 207.052 Q732.907 208.024 730.499 208.533 Q728.092 209.043 725.615 209.043 Q719.411 209.043 715.777 205.431 Q712.166 201.82 712.166 195.663 Q712.166 189.297 715.592 185.57 Q719.041 181.82 724.874 181.82 Q730.106 181.82 733.138 185.2 Q736.194 188.557 736.194 194.344 M731.935 193.094 Q731.888 189.598 729.967 187.515 Q728.069 185.432 724.921 185.432 Q721.356 185.432 719.203 187.445 Q717.074 189.459 716.749 193.117 L731.935 193.094 Z" fill="#000000" fill-rule="nonzero" fill-opacity="1" /><path clip-path="url(#clip910)" d="M743.184 172.353 L747.444 172.353 L747.444 208.371 L743.184 208.371 L743.184 172.353 Z" fill="#000000" fill-rule="nonzero" fill-opacity="1" /><circle clip-path="url(#clip910)" cx="398.908" cy="248.629" r="20.48" fill="#07519c" fill-rule="evenodd" fill-opacity="1" stroke="#000000" stroke-opacity="1" stroke-width="4.55111"/>
<path clip-path="url(#clip910)" d="M525.697 225.719 Q525.697 226.164 525.603 226.539 L524.291 234.877 Q524.221 235.51 524.08 235.744 Q523.963 235.978 523.589 235.978 Q523.003 235.978 523.003 235.369 Q523.003 235.018 523.144 234.456 Q523.542 231.809 523.542 230.614 Q523.542 229.818 523.378 229.232 Q523.237 228.623 523.003 228.202 Q522.792 227.78 522.3 227.499 Q521.809 227.218 521.34 227.054 Q520.872 226.89 520.028 226.82 Q519.185 226.726 518.459 226.703 Q517.733 226.679 516.538 226.679 Q513.939 226.679 513.517 226.773 Q513.072 226.89 512.838 227.241 Q512.627 227.569 512.393 228.553 L506.022 254.013 L505.834 255.02 Q505.834 255.583 506.186 255.77 Q506.537 255.957 507.615 256.074 Q509.16 256.192 510.683 256.192 Q510.73 256.192 510.823 256.192 Q511.339 256.192 511.549 256.215 Q511.76 256.215 511.971 256.262 Q512.182 256.309 512.229 256.426 Q512.299 256.52 512.299 256.707 Q512.299 257.152 512.112 257.386 Q511.924 257.597 511.737 257.644 Q511.573 257.667 511.245 257.667 Q510.589 257.667 509.184 257.62 Q507.778 257.574 507.076 257.574 L503.094 257.527 L499.018 257.574 Q498.386 257.574 497.051 257.62 Q495.716 257.667 495.084 257.667 Q494.264 257.667 494.264 257.082 Q494.264 256.426 494.568 256.309 Q494.896 256.192 496.278 256.192 Q498.222 256.192 499.276 256.098 Q500.33 256.004 500.892 255.676 Q501.478 255.348 501.642 255.02 Q501.806 254.669 501.993 253.873 L508.434 228.272 Q508.622 227.71 508.622 227.265 Q508.622 227.031 508.551 226.937 Q508.505 226.843 508.2 226.773 Q507.896 226.679 507.263 226.679 L505.389 226.679 Q503.469 226.679 502.274 226.773 Q501.103 226.843 499.979 227.195 Q498.878 227.546 498.222 228.038 Q497.59 228.53 496.887 229.537 Q496.184 230.544 495.669 231.762 Q495.177 232.98 494.475 234.971 Q494.24 235.627 494.1 235.814 Q493.983 235.978 493.655 235.978 Q493.421 235.978 493.233 235.837 Q493.069 235.674 493.069 235.463 Q493.303 234.69 493.35 234.596 L496.231 226.141 Q496.465 225.461 496.676 225.344 Q496.91 225.204 497.777 225.204 L524.385 225.204 Q524.807 225.204 524.947 225.204 Q525.088 225.204 525.322 225.251 Q525.556 225.297 525.626 225.415 Q525.697 225.532 525.697 225.719 Z" fill="#000000" fill-rule="nonzero" fill-opacity="1" /><path clip-path="url(#clip910)" d="M530.486 258.303 L530.486 257.253 L533.126 257.253 L533.126 253.4 Q533.126 250.908 534.733 249.482 Q536.356 248.055 538.34 248.055 Q539.651 248.055 540.504 248.76 Q541.356 249.465 541.356 250.416 Q541.356 251.056 540.963 251.482 Q540.586 251.892 539.881 251.892 Q539.209 251.892 538.815 251.466 Q538.438 251.039 538.438 250.449 Q538.438 249.367 539.438 249.039 Q538.93 248.809 538.34 248.793 Q537.126 248.793 536.175 250.039 Q535.241 251.285 535.241 253.367 L535.241 257.253 L539.176 257.253 L539.176 258.303 L535.356 258.303 L535.356 269.107 Q535.356 270.075 535.749 270.386 Q536.159 270.698 537.897 270.698 L538.602 270.698 L538.602 271.731 Q537.257 271.632 534.339 271.632 Q533.929 271.632 533.29 271.649 Q532.667 271.665 531.814 271.698 Q530.978 271.731 530.519 271.731 L530.519 270.698 Q532.306 270.698 532.716 270.485 Q533.126 270.255 533.126 269.173 L533.126 258.303 L530.486 258.303 Z" fill="#000000" fill-rule="nonzero" fill-opacity="1" /><path clip-path="url(#clip910)" d="M544.918 252.564 L544.918 251.515 Q548.951 251.515 551.033 249.367 Q551.607 249.367 551.706 249.498 Q551.804 249.629 551.804 250.236 L551.804 269.075 Q551.804 270.075 552.296 270.386 Q552.788 270.698 554.935 270.698 L556.001 270.698 L556.001 271.731 Q554.821 271.632 550.558 271.632 Q546.295 271.632 545.131 271.731 L545.131 270.698 L546.197 270.698 Q548.312 270.698 548.82 270.403 Q549.328 270.091 549.328 269.075 L549.328 251.679 Q547.574 252.564 544.918 252.564 Z" fill="#000000" fill-rule="nonzero" fill-opacity="1" /><path clip-path="url(#clip910)" d="M568.561 251.788 L573.445 251.788 L573.445 255.769 L569.649 263.176 L566.663 263.176 L568.561 255.769 L568.561 251.788 Z" fill="#000000" fill-rule="nonzero" fill-opacity="1" /><path clip-path="url(#clip910)" d="M619.787 243.64 L619.787 245.723 L600.204 245.723 Q600.482 250.121 602.843 252.436 Q605.227 254.727 609.463 254.727 Q611.917 254.727 614.209 254.126 Q616.524 253.524 618.792 252.32 L618.792 256.348 Q616.5 257.32 614.093 257.829 Q611.686 258.339 609.209 258.339 Q603.005 258.339 599.371 254.727 Q595.76 251.116 595.76 244.959 Q595.76 238.593 599.186 234.866 Q602.635 231.116 608.468 231.116 Q613.699 231.116 616.732 234.496 Q619.787 237.853 619.787 243.64 M615.528 242.39 Q615.482 238.894 613.561 236.811 Q611.662 234.728 608.514 234.728 Q604.95 234.728 602.797 236.741 Q600.667 238.755 600.343 242.413 L615.528 242.39 Z" fill="#000000" fill-rule="nonzero" fill-opacity="1" /><path clip-path="url(#clip910)" d="M647.496 231.741 L638.121 244.357 L647.982 257.667 L642.959 257.667 L635.412 247.482 L627.866 257.667 L622.843 257.667 L632.912 244.102 L623.699 231.741 L628.723 231.741 L635.598 240.977 L642.472 231.741 L647.496 231.741 Z" fill="#000000" fill-rule="nonzero" fill-opacity="1" /><path clip-path="url(#clip910)" d="M658.121 253.778 L658.121 267.528 L653.838 267.528 L653.838 231.741 L658.121 231.741 L658.121 235.677 Q659.463 233.362 661.5 232.251 Q663.56 231.116 666.408 231.116 Q671.13 231.116 674.07 234.866 Q677.032 238.616 677.032 244.727 Q677.032 250.839 674.07 254.589 Q671.13 258.339 666.408 258.339 Q663.56 258.339 661.5 257.227 Q659.463 256.093 658.121 253.778 M672.611 244.727 Q672.611 240.028 670.667 237.366 Q668.745 234.681 665.366 234.681 Q661.986 234.681 660.042 237.366 Q658.121 240.028 658.121 244.727 Q658.121 249.427 660.042 252.112 Q661.986 254.774 665.366 254.774 Q668.745 254.774 670.667 252.112 Q672.611 249.427 672.611 244.727 Z" fill="#000000" fill-rule="nonzero" fill-opacity="1" /><path clip-path="url(#clip910)" d="M684.694 251.788 L689.579 251.788 L689.579 257.667 L684.694 257.667 L684.694 251.788 Z" fill="#000000" fill-rule="nonzero" fill-opacity="1" /><path clip-path="url(#clip910)" d="M376.152 277.713 L376.152 323.224 L421.663 323.224 L421.663 277.713 L376.152 277.713 Z" fill="#3082bc" fill-rule="evenodd" fill-opacity="1" stroke="#000000" stroke-opacity="1" stroke-width="4.55111"/>
<path clip-path="url(#clip910)" d="M525.697 277.559 Q525.697 278.004 525.603 278.379 L524.291 286.717 Q524.221 287.35 524.08 287.584 Q523.963 287.818 523.589 287.818 Q523.003 287.818 523.003 287.209 Q523.003 286.858 523.144 286.296 Q523.542 283.649 523.542 282.454 Q523.542 281.658 523.378 281.072 Q523.237 280.463 523.003 280.042 Q522.792 279.62 522.3 279.339 Q521.809 279.058 521.34 278.894 Q520.872 278.73 520.028 278.66 Q519.185 278.566 518.459 278.543 Q517.733 278.519 516.538 278.519 Q513.939 278.519 513.517 278.613 Q513.072 278.73 512.838 279.081 Q512.627 279.409 512.393 280.393 L506.022 305.853 L505.834 306.86 Q505.834 307.423 506.186 307.61 Q506.537 307.797 507.615 307.914 Q509.16 308.032 510.683 308.032 Q510.73 308.032 510.823 308.032 Q511.339 308.032 511.549 308.055 Q511.76 308.055 511.971 308.102 Q512.182 308.149 512.229 308.266 Q512.299 308.36 512.299 308.547 Q512.299 308.992 512.112 309.226 Q511.924 309.437 511.737 309.484 Q511.573 309.507 511.245 309.507 Q510.589 309.507 509.184 309.46 Q507.778 309.414 507.076 309.414 L503.094 309.367 L499.018 309.414 Q498.386 309.414 497.051 309.46 Q495.716 309.507 495.084 309.507 Q494.264 309.507 494.264 308.922 Q494.264 308.266 494.568 308.149 Q494.896 308.032 496.278 308.032 Q498.222 308.032 499.276 307.938 Q500.33 307.844 500.892 307.516 Q501.478 307.188 501.642 306.86 Q501.806 306.509 501.993 305.713 L508.434 280.112 Q508.622 279.55 508.622 279.105 Q508.622 278.871 508.551 278.777 Q508.505 278.683 508.2 278.613 Q507.896 278.519 507.263 278.519 L505.389 278.519 Q503.469 278.519 502.274 278.613 Q501.103 278.683 499.979 279.035 Q498.878 279.386 498.222 279.878 Q497.59 280.37 496.887 281.377 Q496.184 282.384 495.669 283.602 Q495.177 284.82 494.475 286.811 Q494.24 287.467 494.1 287.654 Q493.983 287.818 493.655 287.818 Q493.421 287.818 493.233 287.677 Q493.069 287.514 493.069 287.303 Q493.303 286.53 493.35 286.436 L496.231 277.981 Q496.465 277.301 496.676 277.184 Q496.91 277.044 497.777 277.044 L524.385 277.044 Q524.807 277.044 524.947 277.044 Q525.088 277.044 525.322 277.091 Q525.556 277.137 525.626 277.255 Q525.697 277.372 525.697 277.559 Z" fill="#000000" fill-rule="nonzero" fill-opacity="1" /><path clip-path="url(#clip910)" d="M530.486 310.143 L530.486 309.093 L533.126 309.093 L533.126 305.24 Q533.126 302.748 534.733 301.322 Q536.356 299.895 538.34 299.895 Q539.651 299.895 540.504 300.6 Q541.356 301.305 541.356 302.256 Q541.356 302.896 540.963 303.322 Q540.586 303.732 539.881 303.732 Q539.209 303.732 538.815 303.306 Q538.438 302.879 538.438 302.289 Q538.438 301.207 539.438 300.879 Q538.93 300.649 538.34 300.633 Q537.126 300.633 536.175 301.879 Q535.241 303.125 535.241 305.207 L535.241 309.093 L539.176 309.093 L539.176 310.143 L535.356 310.143 L535.356 320.947 Q535.356 321.915 535.749 322.226 Q536.159 322.538 537.897 322.538 L538.602 322.538 L538.602 323.571 Q537.257 323.472 534.339 323.472 Q533.929 323.472 533.29 323.489 Q532.667 323.505 531.814 323.538 Q530.978 323.571 530.519 323.571 L530.519 322.538 Q532.306 322.538 532.716 322.325 Q533.126 322.095 533.126 321.013 L533.126 310.143 L530.486 310.143 Z" fill="#000000" fill-rule="nonzero" fill-opacity="1" /><path clip-path="url(#clip910)" d="M543.708 323.571 Q543.708 322.964 543.757 322.784 Q543.823 322.603 544.085 322.325 L550.529 315.143 Q554.054 311.175 554.054 307.716 Q554.054 305.47 552.873 303.863 Q551.709 302.256 549.561 302.256 Q548.086 302.256 546.84 303.158 Q545.594 304.06 545.02 305.667 Q545.118 305.634 545.462 305.634 Q546.299 305.634 546.758 306.158 Q547.233 306.683 547.233 307.388 Q547.233 308.29 546.643 308.733 Q546.069 309.159 545.495 309.159 Q545.266 309.159 544.954 309.11 Q544.659 309.06 544.184 308.601 Q543.708 308.126 543.708 307.29 Q543.708 304.945 545.479 303.076 Q547.266 301.207 549.988 301.207 Q553.07 301.207 555.087 303.043 Q557.12 304.863 557.12 307.716 Q557.12 308.716 556.808 309.634 Q556.513 310.536 556.103 311.241 Q555.71 311.946 554.628 313.077 Q553.546 314.209 552.677 315.012 Q551.808 315.815 549.856 317.521 L546.299 320.98 L552.349 320.98 Q555.3 320.98 555.529 320.718 Q555.857 320.242 556.267 317.734 L557.12 317.734 L556.169 323.571 L543.708 323.571 Z" fill="#000000" fill-rule="nonzero" fill-opacity="1" /><path clip-path="url(#clip910)" d="M567.351 303.628 L572.235 303.628 L572.235 307.609 L568.439 315.016 L565.453 315.016 L567.351 307.609 L567.351 303.628 Z" fill="#000000" fill-rule="nonzero" fill-opacity="1" /><path clip-path="url(#clip910)" d="M618.578 295.48 L618.578 297.563 L598.995 297.563 Q599.272 301.961 601.633 304.276 Q604.018 306.567 608.254 306.567 Q610.707 306.567 612.999 305.966 Q615.314 305.364 617.582 304.16 L617.582 308.188 Q615.291 309.16 612.883 309.669 Q610.476 310.179 607.999 310.179 Q601.796 310.179 598.161 306.567 Q594.55 302.956 594.55 296.799 Q594.55 290.433 597.976 286.706 Q601.425 282.956 607.258 282.956 Q612.49 282.956 615.522 286.336 Q618.578 289.693 618.578 295.48 M614.319 294.23 Q614.272 290.734 612.351 288.651 Q610.453 286.568 607.305 286.568 Q603.74 286.568 601.587 288.581 Q599.458 290.595 599.133 294.253 L614.319 294.23 Z" fill="#000000" fill-rule="nonzero" fill-opacity="1" /><path clip-path="url(#clip910)" d="M646.286 283.581 L636.911 296.197 L646.772 309.507 L641.749 309.507 L634.203 299.322 L626.656 309.507 L621.633 309.507 L631.703 295.942 L622.49 283.581 L627.513 283.581 L634.388 292.817 L641.263 283.581 L646.286 283.581 Z" fill="#000000" fill-rule="nonzero" fill-opacity="1" /><path clip-path="url(#clip910)" d="M656.911 305.618 L656.911 319.368 L652.629 319.368 L652.629 283.581 L656.911 283.581 L656.911 287.517 Q658.254 285.202 660.291 284.091 Q662.351 282.956 665.198 282.956 Q669.92 282.956 672.86 286.706 Q675.823 290.456 675.823 296.567 Q675.823 302.679 672.86 306.429 Q669.92 310.179 665.198 310.179 Q662.351 310.179 660.291 309.067 Q658.254 307.933 656.911 305.618 M671.402 296.567 Q671.402 291.868 669.457 289.206 Q667.536 286.521 664.156 286.521 Q660.777 286.521 658.832 289.206 Q656.911 291.868 656.911 296.567 Q656.911 301.267 658.832 303.952 Q660.777 306.614 664.156 306.614 Q667.536 306.614 669.457 303.952 Q671.402 301.267 671.402 296.567 Z" fill="#000000" fill-rule="nonzero" fill-opacity="1" /><path clip-path="url(#clip910)" d="M683.485 303.628 L688.369 303.628 L688.369 309.507 L683.485 309.507 L683.485 303.628 Z" fill="#000000" fill-rule="nonzero" fill-opacity="1" /><circle clip-path="url(#clip910)" cx="398.908" cy="352.309" r="19.4021" fill="#ffffff" fill-rule="evenodd" fill-opacity="1" stroke="#07519c" stroke-opacity="1" stroke-width="6.46737"/>
<path clip-path="url(#clip910)" d="M525.697 331.943 Q525.697 332.388 525.603 332.763 L524.291 341.101 Q524.221 341.734 524.08 341.968 Q523.963 342.202 523.589 342.202 Q523.003 342.202 523.003 341.593 Q523.003 341.242 523.144 340.68 Q523.542 338.033 523.542 336.838 Q523.542 336.042 523.378 335.456 Q523.237 334.847 523.003 334.426 Q522.792 334.004 522.3 333.723 Q521.809 333.442 521.34 333.278 Q520.872 333.114 520.028 333.044 Q519.185 332.95 518.459 332.927 Q517.733 332.903 516.538 332.903 Q513.939 332.903 513.517 332.997 Q513.072 333.114 512.838 333.466 Q512.627 333.793 512.393 334.777 L506.022 360.237 L505.834 361.245 Q505.834 361.807 506.186 361.994 Q506.537 362.181 507.615 362.299 Q509.16 362.416 510.683 362.416 Q510.73 362.416 510.823 362.416 Q511.339 362.416 511.549 362.439 Q511.76 362.439 511.971 362.486 Q512.182 362.533 512.229 362.65 Q512.299 362.744 512.299 362.931 Q512.299 363.376 512.112 363.61 Q511.924 363.821 511.737 363.868 Q511.573 363.891 511.245 363.891 Q510.589 363.891 509.184 363.844 Q507.778 363.798 507.076 363.798 L503.094 363.751 L499.018 363.798 Q498.386 363.798 497.051 363.844 Q495.716 363.891 495.084 363.891 Q494.264 363.891 494.264 363.306 Q494.264 362.65 494.568 362.533 Q494.896 362.416 496.278 362.416 Q498.222 362.416 499.276 362.322 Q500.33 362.228 500.892 361.9 Q501.478 361.572 501.642 361.245 Q501.806 360.893 501.993 360.097 L508.434 334.496 Q508.622 333.934 508.622 333.489 Q508.622 333.255 508.551 333.161 Q508.505 333.067 508.2 332.997 Q507.896 332.903 507.263 332.903 L505.389 332.903 Q503.469 332.903 502.274 332.997 Q501.103 333.067 499.979 333.419 Q498.878 333.77 498.222 334.262 Q497.59 334.754 496.887 335.761 Q496.184 336.768 495.669 337.986 Q495.177 339.204 494.475 341.195 Q494.24 341.851 494.1 342.038 Q493.983 342.202 493.655 342.202 Q493.421 342.202 493.233 342.062 Q493.069 341.898 493.069 341.687 Q493.303 340.914 493.35 340.82 L496.231 332.365 Q496.465 331.685 496.676 331.568 Q496.91 331.428 497.777 331.428 L524.385 331.428 Q524.807 331.428 524.947 331.428 Q525.088 331.428 525.322 331.475 Q525.556 331.521 525.626 331.639 Q525.697 331.756 525.697 331.943 Z" fill="#000000" fill-rule="nonzero" fill-opacity="1" /><path clip-path="url(#clip910)" d="M530.486 359.067 L530.486 358.017 Q531.994 358.116 533.749 358.116 Q534.388 358.116 537.405 358.017 L537.405 359.067 Q535.487 359.067 535.487 359.936 Q535.487 360.067 535.683 360.509 L539.455 369.871 L542.881 361.313 Q543.078 360.739 543.078 360.509 Q543.078 359.936 542.684 359.526 Q542.307 359.099 541.471 359.067 L541.471 358.017 Q543.176 358.116 544.39 358.116 Q545.767 358.116 546.898 358.017 L546.898 359.067 Q545.898 359.067 545.193 359.526 Q544.488 359.968 544.258 360.362 Q544.045 360.739 543.816 361.313 L539.422 372.232 Q539.159 372.872 538.717 372.872 Q538.422 372.872 538.29 372.741 Q538.176 372.626 538.012 372.232 L533.175 360.313 Q532.847 359.477 532.421 359.28 Q531.994 359.067 530.486 359.067 Z" fill="#000000" fill-rule="nonzero" fill-opacity="1" /><path clip-path="url(#clip910)" d="M548.676 359.067 L548.676 358.017 Q550.496 358.116 551.791 358.116 Q552.431 358.116 555.464 358.017 L555.464 359.067 Q553.48 359.067 553.48 359.968 Q553.48 360.165 553.644 360.575 L556.841 369.543 L559.727 361.411 Q559.12 359.772 558.956 359.575 Q558.546 359.067 556.841 359.067 L556.841 358.017 Q558.349 358.116 559.825 358.116 Q560.399 358.116 563.317 358.017 L563.317 359.067 Q561.333 359.067 561.333 359.968 Q561.333 360.1 561.497 360.608 L564.826 369.97 L567.875 361.378 Q568.039 360.936 568.056 360.673 Q568.056 359.936 567.531 359.526 Q567.006 359.099 566.105 359.067 L566.105 358.017 Q568.023 358.116 569.22 358.116 Q570.564 358.116 571.679 358.017 L571.679 359.067 Q569.597 359.132 568.859 361.214 L564.924 372.232 Q564.547 372.839 564.252 372.872 Q563.809 372.872 563.58 372.232 L560.153 362.69 L556.759 372.2 Q556.628 372.609 556.513 372.741 Q556.398 372.872 556.087 372.872 Q555.792 372.872 555.661 372.691 Q555.529 372.528 555.382 372.118 L551.152 360.231 Q550.857 359.46 550.414 359.263 Q549.988 359.067 548.676 359.067 Z" fill="#000000" fill-rule="nonzero" fill-opacity="1" /><path clip-path="url(#clip910)" d="M579.69 358.012 L584.574 358.012 L584.574 361.993 L580.778 369.401 L577.792 369.401 L579.69 361.993 L579.69 358.012 Z" fill="#000000" fill-rule="nonzero" fill-opacity="1" /><path clip-path="url(#clip910)" d="M630.917 349.864 L630.917 351.947 L611.333 351.947 Q611.611 356.345 613.972 358.66 Q616.356 360.951 620.593 360.951 Q623.046 360.951 625.338 360.35 Q627.653 359.748 629.921 358.544 L629.921 362.572 Q627.63 363.544 625.222 364.053 Q622.815 364.563 620.338 364.563 Q614.134 364.563 610.5 360.951 Q606.889 357.34 606.889 351.183 Q606.889 344.817 610.315 341.09 Q613.764 337.34 619.597 337.34 Q624.829 337.34 627.861 340.72 Q630.917 344.077 630.917 349.864 M626.657 348.614 Q626.611 345.118 624.69 343.035 Q622.792 340.952 619.643 340.952 Q616.079 340.952 613.926 342.965 Q611.796 344.979 611.472 348.637 L626.657 348.614 Z" fill="#000000" fill-rule="nonzero" fill-opacity="1" /><path clip-path="url(#clip910)" d="M658.625 337.965 L649.25 350.581 L659.111 363.891 L654.088 363.891 L646.541 353.706 L638.995 363.891 L633.972 363.891 L644.041 350.327 L634.829 337.965 L639.852 337.965 L646.727 347.202 L653.602 337.965 L658.625 337.965 Z" fill="#000000" fill-rule="nonzero" fill-opacity="1" /><path clip-path="url(#clip910)" d="M669.25 360.002 L669.25 373.752 L664.967 373.752 L664.967 337.965 L669.25 337.965 L669.25 341.901 Q670.592 339.586 672.629 338.475 Q674.689 337.34 677.537 337.34 Q682.259 337.34 685.199 341.09 Q688.162 344.84 688.162 350.952 Q688.162 357.063 685.199 360.813 Q682.259 364.563 677.537 364.563 Q674.689 364.563 672.629 363.451 Q670.592 362.317 669.25 360.002 M683.74 350.952 Q683.74 346.252 681.796 343.59 Q679.875 340.905 676.495 340.905 Q673.115 340.905 671.171 343.59 Q669.25 346.252 669.25 350.952 Q669.25 355.651 671.171 358.336 Q673.115 360.998 676.495 360.998 Q679.875 360.998 681.796 358.336 Q683.74 355.651 683.74 350.952 Z" fill="#000000" fill-rule="nonzero" fill-opacity="1" /><path clip-path="url(#clip910)" d="M695.824 358.012 L700.708 358.012 L700.708 363.891 L695.824 363.891 L695.824 358.012 Z" fill="#000000" fill-rule="nonzero" fill-opacity="1" /></svg>
