<?xml version="1.0" encoding="utf-8"?>
<svg xmlns="http://www.w3.org/2000/svg" xmlns:xlink="http://www.w3.org/1999/xlink" width="600" height="400" viewBox="0 0 2400 1600">
<defs>
  <clipPath id="clip900">
    <rect x="0" y="0" width="2400" height="1600"/>
  </clipPath>
</defs>
<path clip-path="url(#clip900)" d="M0 1600 L2400 1600 L2400 0 L0 0  Z" fill="#ffffff" fill-rule="evenodd" fill-opacity="1"/>
<defs>
  <clipPath id="clip901">
    <rect x="480" y="0" width="1681" height="1600"/>
  </clipPath>
</defs>
<path clip-path="url(#clip900)" d="M234.125 1423.18 L2352.76 1423.18 L2352.76 47.2441 L234.125 47.2441  Z" fill="#ffffff" fill-rule="evenodd" fill-opacity="1"/>
<defs>
  <clipPath id="clip902">
    <rect x="234" y="47" width="2120" height="1377"/>
  </clipPath>
</defs>
<polyline clip-path="url(#clip902)" style="stroke:#000000; stroke-linecap:round; stroke-linejoin:round; stroke-width:2; stroke-opacity:0.1; fill:none" points="294.087,1423.18 294.087,47.2441 "/>
<polyline clip-path="url(#clip902)" style="stroke:#000000; stroke-linecap:round; stroke-linejoin:round; stroke-width:2; stroke-opacity:0.1; fill:none" points="588.227,1423.18 588.227,47.2441 "/>
<polyline clip-path="url(#clip902)" style="stroke:#000000; stroke-linecap:round; stroke-linejoin:round; stroke-width:2; stroke-opacity:0.1; fill:none" points="882.367,1423.18 882.367,47.2441 "/>
<polyline clip-path="url(#clip902)" style="stroke:#000000; stroke-linecap:round; stroke-linejoin:round; stroke-width:2; stroke-opacity:0.1; fill:none" points="1176.51,1423.18 1176.51,47.2441 "/>
<polyline clip-path="url(#clip902)" style="stroke:#000000; stroke-linecap:round; stroke-linejoin:round; stroke-width:2; stroke-opacity:0.1; fill:none" points="1470.65,1423.18 1470.65,47.2441 "/>
<polyline clip-path="url(#clip902)" style="stroke:#000000; stroke-linecap:round; stroke-linejoin:round; stroke-width:2; stroke-opacity:0.1; fill:none" points="1764.79,1423.18 1764.79,47.2441 "/>
<polyline clip-path="url(#clip902)" style="stroke:#000000; stroke-linecap:round; stroke-linejoin:round; stroke-width:2; stroke-opacity:0.1; fill:none" points="2058.93,1423.18 2058.93,47.2441 "/>
<polyline clip-path="url(#clip902)" style="stroke:#000000; stroke-linecap:round; stroke-linejoin:round; stroke-width:2; stroke-opacity:0.1; fill:none" points="234.125,1193.03 2352.76,1193.03 "/>
<polyline clip-path="url(#clip902)" style="stroke:#000000; stroke-linecap:round; stroke-linejoin:round; stroke-width:2; stroke-opacity:0.1; fill:none" points="234.125,909.338 2352.76,909.338 "/>
<polyline clip-path="url(#clip902)" style="stroke:#000000; stroke-linecap:round; stroke-linejoin:round; stroke-width:2; stroke-opacity:0.1; fill:none" points="234.125,625.647 2352.76,625.647 "/>
<polyline clip-path="url(#clip902)" style="stroke:#000000; stroke-linecap:round; stroke-linejoin:round; stroke-width:2; stroke-opacity:0.1; fill:none" points="234.125,341.955 2352.76,341.955 "/>
<polyline clip-path="url(#clip902)" style="stroke:#000000; stroke-linecap:round; stroke-linejoin:round; stroke-width:2; stroke-opacity:0.1; fill:none" points="234.125,58.2632 2352.76,58.2632 "/>
<polyline clip-path="url(#clip900)" style="stroke:#000000; stroke-linecap:round; stroke-linejoin:round; stroke-width:4; stroke-opacity:1; fill:none" points="234.125,1423.18 2352.76,1423.18 "/>
<polyline clip-path="url(#clip900)" style="stroke:#000000; stroke-linecap:round; stroke-linejoin:round; stroke-width:4; stroke-opacity:1; fill:none" points="294.087,1423.18 294.087,1404.28 "/>
<polyline clip-path="url(#clip900)" style="stroke:#000000; stroke-linecap:round; stroke-linejoin:round; stroke-width:4; stroke-opacity:1; fill:none" points="588.227,1423.18 588.227,1404.28 "/>
<polyline clip-path="url(#clip900)" style="stroke:#000000; stroke-linecap:round; stroke-linejoin:round; stroke-width:4; stroke-opacity:1; fill:none" points="882.367,1423.18 882.367,1404.28 "/>
<polyline clip-path="url(#clip900)" style="stroke:#000000; stroke-linecap:round; stroke-linejoin:round; stroke-width:4; stroke-opacity:1; fill:none" points="1176.51,1423.18 1176.51,1404.28 "/>
<polyline clip-path="url(#clip900)" style="stroke:#000000; stroke-linecap:round; stroke-linejoin:round; stroke-width:4; stroke-opacity:1; fill:none" points="1470.65,1423.18 1470.65,1404.28 "/>
<polyline clip-path="url(#clip900)" style="stroke:#000000; stroke-linecap:round; stroke-linejoin:round; stroke-width:4; stroke-opacity:1; fill:none" points="1764.79,1423.18 1764.79,1404.28 "/>
<polyline clip-path="url(#clip900)" style="stroke:#000000; stroke-linecap:round; stroke-linejoin:round; stroke-width:4; stroke-opacity:1; fill:none" points="2058.93,1423.18 2058.93,1404.28 "/>
<path clip-path="url(#clip900)" d="M294.087 1454.1 Q290.476 1454.1 288.647 1457.66 Q286.841 1461.2 286.841 1468.33 Q286.841 1475.44 288.647 1479.01 Q290.476 1482.55 294.087 1482.55 Q297.721 1482.55 299.526 1479.01 Q301.355 1475.44 301.355 1468.33 Q301.355 1461.2 299.526 1457.66 Q297.721 1454.1 294.087 1454.1 M294.087 1450.39 Q299.897 1450.39 302.952 1455 Q306.031 1459.58 306.031 1468.33 Q306.031 1477.06 302.952 1481.67 Q299.897 1486.25 294.087 1486.25 Q288.277 1486.25 285.198 1481.67 Q282.142 1477.06 282.142 1468.33 Q282.142 1459.58 285.198 1455 Q288.277 1450.39 294.087 1450.39 Z" fill="#000000" fill-rule="nonzero" fill-opacity="1" /><path clip-path="url(#clip900)" d="M582.88 1481.64 L599.199 1481.64 L599.199 1485.58 L577.255 1485.58 L577.255 1481.64 Q579.917 1478.89 584.5 1474.26 Q589.106 1469.61 590.287 1468.27 Q592.532 1465.74 593.412 1464.01 Q594.315 1462.25 594.315 1460.56 Q594.315 1457.8 592.37 1456.07 Q590.449 1454.33 587.347 1454.33 Q585.148 1454.33 582.694 1455.09 Q580.264 1455.86 577.486 1457.41 L577.486 1452.69 Q580.31 1451.55 582.764 1450.97 Q585.218 1450.39 587.255 1450.39 Q592.625 1450.39 595.819 1453.08 Q599.014 1455.77 599.014 1460.26 Q599.014 1462.39 598.204 1464.31 Q597.417 1466.2 595.31 1468.8 Q594.731 1469.47 591.63 1472.69 Q588.528 1475.88 582.88 1481.64 Z" fill="#000000" fill-rule="nonzero" fill-opacity="1" /><path clip-path="url(#clip900)" d="M885.376 1455.09 L873.571 1473.54 L885.376 1473.54 L885.376 1455.09 M884.149 1451.02 L890.029 1451.02 L890.029 1473.54 L894.959 1473.54 L894.959 1477.43 L890.029 1477.43 L890.029 1485.58 L885.376 1485.58 L885.376 1477.43 L869.774 1477.43 L869.774 1472.92 L884.149 1451.02 Z" fill="#000000" fill-rule="nonzero" fill-opacity="1" /><path clip-path="url(#clip900)" d="M1176.91 1466.44 Q1173.76 1466.44 1171.91 1468.59 Q1170.08 1470.74 1170.08 1474.49 Q1170.08 1478.22 1171.91 1480.39 Q1173.76 1482.55 1176.91 1482.55 Q1180.06 1482.55 1181.89 1480.39 Q1183.74 1478.22 1183.74 1474.49 Q1183.74 1470.74 1181.89 1468.59 Q1180.06 1466.44 1176.91 1466.44 M1186.19 1451.78 L1186.19 1456.04 Q1184.44 1455.21 1182.63 1454.77 Q1180.85 1454.33 1179.09 1454.33 Q1174.46 1454.33 1172 1457.45 Q1169.57 1460.58 1169.23 1466.9 Q1170.59 1464.89 1172.65 1463.82 Q1174.71 1462.73 1177.19 1462.73 Q1182.4 1462.73 1185.41 1465.9 Q1188.44 1469.05 1188.44 1474.49 Q1188.44 1479.82 1185.29 1483.03 Q1182.14 1486.25 1176.91 1486.25 Q1170.92 1486.25 1167.75 1481.67 Q1164.57 1477.06 1164.57 1468.33 Q1164.57 1460.14 1168.46 1455.28 Q1172.35 1450.39 1178.9 1450.39 Q1180.66 1450.39 1182.44 1450.74 Q1184.25 1451.09 1186.19 1451.78 Z" fill="#000000" fill-rule="nonzero" fill-opacity="1" /><path clip-path="url(#clip900)" d="M1470.65 1469.17 Q1467.31 1469.17 1465.39 1470.95 Q1463.49 1472.73 1463.49 1475.86 Q1463.49 1478.98 1465.39 1480.77 Q1467.31 1482.55 1470.65 1482.55 Q1473.98 1482.55 1475.9 1480.77 Q1477.82 1478.96 1477.82 1475.86 Q1477.82 1472.73 1475.9 1470.95 Q1474 1469.17 1470.65 1469.17 M1465.97 1467.18 Q1462.96 1466.44 1461.27 1464.38 Q1459.61 1462.32 1459.61 1459.35 Q1459.61 1455.21 1462.55 1452.8 Q1465.51 1450.39 1470.65 1450.39 Q1475.81 1450.39 1478.75 1452.8 Q1481.69 1455.21 1481.69 1459.35 Q1481.69 1462.32 1480 1464.38 Q1478.33 1466.44 1475.35 1467.18 Q1478.73 1467.96 1480.6 1470.26 Q1482.5 1472.55 1482.5 1475.86 Q1482.5 1480.88 1479.42 1483.57 Q1476.36 1486.25 1470.65 1486.25 Q1464.93 1486.25 1461.85 1483.57 Q1458.8 1480.88 1458.8 1475.86 Q1458.8 1472.55 1460.69 1470.26 Q1462.59 1467.96 1465.97 1467.18 M1464.26 1459.79 Q1464.26 1462.48 1465.92 1463.98 Q1467.61 1465.49 1470.65 1465.49 Q1473.66 1465.49 1475.35 1463.98 Q1477.06 1462.48 1477.06 1459.79 Q1477.06 1457.11 1475.35 1455.6 Q1473.66 1454.1 1470.65 1454.1 Q1467.61 1454.1 1465.92 1455.6 Q1464.26 1457.11 1464.26 1459.79 Z" fill="#000000" fill-rule="nonzero" fill-opacity="1" /><path clip-path="url(#clip900)" d="M1739.47 1481.64 L1747.11 1481.64 L1747.11 1455.28 L1738.8 1456.95 L1738.8 1452.69 L1747.07 1451.02 L1751.74 1451.02 L1751.74 1481.64 L1759.38 1481.64 L1759.38 1485.58 L1739.47 1485.58 L1739.47 1481.64 Z" fill="#000000" fill-rule="nonzero" fill-opacity="1" /><path clip-path="url(#clip900)" d="M1778.83 1454.1 Q1775.22 1454.1 1773.39 1457.66 Q1771.58 1461.2 1771.58 1468.33 Q1771.58 1475.44 1773.39 1479.01 Q1775.22 1482.55 1778.83 1482.55 Q1782.46 1482.55 1784.27 1479.01 Q1786.1 1475.44 1786.1 1468.33 Q1786.1 1461.2 1784.27 1457.66 Q1782.46 1454.1 1778.83 1454.1 M1778.83 1450.39 Q1784.64 1450.39 1787.69 1455 Q1790.77 1459.58 1790.77 1468.33 Q1790.77 1477.06 1787.69 1481.67 Q1784.64 1486.25 1778.83 1486.25 Q1773.02 1486.25 1769.94 1481.67 Q1766.88 1477.06 1766.88 1468.33 Q1766.88 1459.58 1769.94 1455 Q1773.02 1450.39 1778.83 1450.39 Z" fill="#000000" fill-rule="nonzero" fill-opacity="1" /><path clip-path="url(#clip900)" d="M2034.41 1481.64 L2042.05 1481.64 L2042.05 1455.28 L2033.74 1456.95 L2033.74 1452.69 L2042.01 1451.02 L2046.68 1451.02 L2046.68 1481.64 L2054.32 1481.64 L2054.32 1485.58 L2034.41 1485.58 L2034.41 1481.64 Z" fill="#000000" fill-rule="nonzero" fill-opacity="1" /><path clip-path="url(#clip900)" d="M2067.79 1481.64 L2084.11 1481.64 L2084.11 1485.58 L2062.17 1485.58 L2062.17 1481.64 Q2064.83 1478.89 2069.41 1474.26 Q2074.02 1469.61 2075.2 1468.27 Q2077.45 1465.74 2078.33 1464.01 Q2079.23 1462.25 2079.23 1460.56 Q2079.23 1457.8 2077.28 1456.07 Q2075.36 1454.33 2072.26 1454.33 Q2070.06 1454.33 2067.61 1455.09 Q2065.18 1455.86 2062.4 1457.41 L2062.4 1452.69 Q2065.22 1451.55 2067.68 1450.97 Q2070.13 1450.39 2072.17 1450.39 Q2077.54 1450.39 2080.73 1453.08 Q2083.93 1455.77 2083.93 1460.26 Q2083.93 1462.39 2083.12 1464.31 Q2082.33 1466.2 2080.22 1468.8 Q2079.64 1469.47 2076.54 1472.69 Q2073.44 1475.88 2067.79 1481.64 Z" fill="#000000" fill-rule="nonzero" fill-opacity="1" /><path clip-path="url(#clip900)" d="M1292.2 1546.53 L1292.2 1568.04 L1286.34 1568.04 L1286.34 1546.72 Q1286.34 1541.66 1284.37 1539.14 Q1282.4 1536.63 1278.45 1536.63 Q1273.71 1536.63 1270.97 1539.65 Q1268.23 1542.68 1268.23 1547.9 L1268.23 1568.04 L1262.34 1568.04 L1262.34 1518.52 L1268.23 1518.52 L1268.23 1537.93 Q1270.33 1534.72 1273.17 1533.13 Q1276.03 1531.54 1279.75 1531.54 Q1285.9 1531.54 1289.05 1535.36 Q1292.2 1539.14 1292.2 1546.53 Z" fill="#000000" fill-rule="nonzero" fill-opacity="1" /><path clip-path="url(#clip900)" d="M1324.54 1537.87 Q1323.55 1537.3 1322.37 1537.04 Q1321.23 1536.76 1319.83 1536.76 Q1314.86 1536.76 1312.19 1540 Q1309.55 1543.22 1309.55 1549.27 L1309.55 1568.04 L1303.66 1568.04 L1303.66 1532.4 L1309.55 1532.4 L1309.55 1537.93 Q1311.39 1534.69 1314.35 1533.13 Q1317.31 1531.54 1321.55 1531.54 Q1322.15 1531.54 1322.88 1531.63 Q1323.61 1531.7 1324.51 1531.85 L1324.54 1537.87 Z" fill="#000000" fill-rule="nonzero" fill-opacity="1" /><polyline clip-path="url(#clip900)" style="stroke:#000000; stroke-linecap:round; stroke-linejoin:round; stroke-width:4; stroke-opacity:1; fill:none" points="234.125,1423.18 234.125,47.2441 "/>
<polyline clip-path="url(#clip900)" style="stroke:#000000; stroke-linecap:round; stroke-linejoin:round; stroke-width:4; stroke-opacity:1; fill:none" points="234.125,1193.03 253.023,1193.03 "/>
<polyline clip-path="url(#clip900)" style="stroke:#000000; stroke-linecap:round; stroke-linejoin:round; stroke-width:4; stroke-opacity:1; fill:none" points="234.125,909.338 253.023,909.338 "/>
<polyline clip-path="url(#clip900)" style="stroke:#000000; stroke-linecap:round; stroke-linejoin:round; stroke-width:4; stroke-opacity:1; fill:none" points="234.125,625.647 253.023,625.647 "/>
<polyline clip-path="url(#clip900)" style="stroke:#000000; stroke-linecap:round; stroke-linejoin:round; stroke-width:4; stroke-opacity:1; fill:none" points="234.125,341.955 253.023,341.955 "/>
<polyline clip-path="url(#clip900)" style="stroke:#000000; stroke-linecap:round; stroke-linejoin:round; stroke-width:4; stroke-opacity:1; fill:none" points="234.125,58.2632 253.023,58.2632 "/>
<path clip-path="url(#clip900)" d="M119.885 1206.37 L136.204 1206.37 L136.204 1210.31 L114.26 1210.31 L114.26 1206.37 Q116.922 1203.62 121.505 1198.99 Q126.112 1194.34 127.292 1193 Q129.538 1190.47 130.417 1188.74 Q131.32 1186.98 131.32 1185.29 Q131.32 1182.53 129.376 1180.8 Q127.455 1179.06 124.353 1179.06 Q122.154 1179.06 119.7 1179.82 Q117.269 1180.59 114.492 1182.14 L114.492 1177.42 Q117.316 1176.28 119.769 1175.7 Q122.223 1175.13 124.26 1175.13 Q129.63 1175.13 132.825 1177.81 Q136.019 1180.5 136.019 1184.99 Q136.019 1187.12 135.209 1189.04 Q134.422 1190.94 132.316 1193.53 Q131.737 1194.2 128.635 1197.42 Q125.533 1200.61 119.885 1206.37 Z" fill="#000000" fill-rule="nonzero" fill-opacity="1" /><path clip-path="url(#clip900)" d="M146.066 1175.75 L164.422 1175.75 L164.422 1179.69 L150.348 1179.69 L150.348 1188.16 Q151.366 1187.81 152.385 1187.65 Q153.403 1187.46 154.422 1187.46 Q160.209 1187.46 163.589 1190.63 Q166.968 1193.81 166.968 1199.22 Q166.968 1204.8 163.496 1207.9 Q160.024 1210.98 153.704 1210.98 Q151.528 1210.98 149.26 1210.61 Q147.015 1210.24 144.607 1209.5 L144.607 1204.8 Q146.691 1205.94 148.913 1206.49 Q151.135 1207.05 153.612 1207.05 Q157.616 1207.05 159.954 1204.94 Q162.292 1202.83 162.292 1199.22 Q162.292 1195.61 159.954 1193.5 Q157.616 1191.4 153.612 1191.4 Q151.737 1191.4 149.862 1191.81 Q148.01 1192.23 146.066 1193.11 L146.066 1175.75 Z" fill="#000000" fill-rule="nonzero" fill-opacity="1" /><path clip-path="url(#clip900)" d="M186.181 1178.83 Q182.57 1178.83 180.741 1182.39 Q178.936 1185.94 178.936 1193.06 Q178.936 1200.17 180.741 1203.74 Q182.57 1207.28 186.181 1207.28 Q189.815 1207.28 191.621 1203.74 Q193.45 1200.17 193.45 1193.06 Q193.45 1185.94 191.621 1182.39 Q189.815 1178.83 186.181 1178.83 M186.181 1175.13 Q191.991 1175.13 195.047 1179.73 Q198.125 1184.31 198.125 1193.06 Q198.125 1201.79 195.047 1206.4 Q191.991 1210.98 186.181 1210.98 Q180.371 1210.98 177.292 1206.4 Q174.237 1201.79 174.237 1193.06 Q174.237 1184.31 177.292 1179.73 Q180.371 1175.13 186.181 1175.13 Z" fill="#000000" fill-rule="nonzero" fill-opacity="1" /><path clip-path="url(#clip900)" d="M120.88 922.683 L137.2 922.683 L137.2 926.618 L115.256 926.618 L115.256 922.683 Q117.918 919.929 122.501 915.299 Q127.107 910.646 128.288 909.304 Q130.533 906.78 131.413 905.044 Q132.316 903.285 132.316 901.595 Q132.316 898.841 130.371 897.105 Q128.45 895.368 125.348 895.368 Q123.149 895.368 120.695 896.132 Q118.265 896.896 115.487 898.447 L115.487 893.725 Q118.311 892.591 120.765 892.012 Q123.218 891.433 125.255 891.433 Q130.626 891.433 133.82 894.118 Q137.015 896.804 137.015 901.294 Q137.015 903.424 136.204 905.345 Q135.417 907.243 133.311 909.836 Q132.732 910.507 129.63 913.725 Q126.529 916.919 120.88 922.683 Z" fill="#000000" fill-rule="nonzero" fill-opacity="1" /><path clip-path="url(#clip900)" d="M145.834 892.058 L168.056 892.058 L168.056 894.049 L155.51 926.618 L150.626 926.618 L162.431 895.993 L145.834 895.993 L145.834 892.058 Z" fill="#000000" fill-rule="nonzero" fill-opacity="1" /><path clip-path="url(#clip900)" d="M177.223 892.058 L195.579 892.058 L195.579 895.993 L181.505 895.993 L181.505 904.466 Q182.524 904.118 183.542 903.956 Q184.561 903.771 185.579 903.771 Q191.366 903.771 194.746 906.943 Q198.125 910.114 198.125 915.53 Q198.125 921.109 194.653 924.211 Q191.181 927.29 184.862 927.29 Q182.686 927.29 180.417 926.919 Q178.172 926.549 175.764 925.808 L175.764 921.109 Q177.848 922.243 180.07 922.799 Q182.292 923.354 184.769 923.354 Q188.774 923.354 191.112 921.248 Q193.45 919.142 193.45 915.53 Q193.45 911.919 191.112 909.813 Q188.774 907.706 184.769 907.706 Q182.894 907.706 181.019 908.123 Q179.167 908.54 177.223 909.419 L177.223 892.058 Z" fill="#000000" fill-rule="nonzero" fill-opacity="1" /><path clip-path="url(#clip900)" d="M130.024 624.292 Q133.38 625.01 135.255 627.279 Q137.154 629.547 137.154 632.88 Q137.154 637.996 133.635 640.797 Q130.117 643.598 123.635 643.598 Q121.459 643.598 119.144 643.158 Q116.853 642.741 114.399 641.885 L114.399 637.371 Q116.343 638.505 118.658 639.084 Q120.973 639.663 123.496 639.663 Q127.894 639.663 130.186 637.927 Q132.501 636.191 132.501 632.88 Q132.501 629.825 130.348 628.112 Q128.218 626.376 124.399 626.376 L120.371 626.376 L120.371 622.533 L124.584 622.533 Q128.033 622.533 129.862 621.167 Q131.691 619.779 131.691 617.186 Q131.691 614.524 129.792 613.112 Q127.917 611.677 124.399 611.677 Q122.478 611.677 120.279 612.093 Q118.08 612.51 115.441 613.39 L115.441 609.223 Q118.103 608.482 120.418 608.112 Q122.755 607.742 124.816 607.742 Q130.14 607.742 133.242 610.172 Q136.343 612.58 136.343 616.7 Q136.343 619.57 134.7 621.561 Q133.056 623.529 130.024 624.292 Z" fill="#000000" fill-rule="nonzero" fill-opacity="1" /><path clip-path="url(#clip900)" d="M156.019 611.445 Q152.408 611.445 150.579 615.01 Q148.774 618.552 148.774 625.681 Q148.774 632.788 150.579 636.353 Q152.408 639.894 156.019 639.894 Q159.653 639.894 161.459 636.353 Q163.288 632.788 163.288 625.681 Q163.288 618.552 161.459 615.01 Q159.653 611.445 156.019 611.445 M156.019 607.742 Q161.829 607.742 164.885 612.348 Q167.964 616.931 167.964 625.681 Q167.964 634.408 164.885 639.015 Q161.829 643.598 156.019 643.598 Q150.209 643.598 147.13 639.015 Q144.075 634.408 144.075 625.681 Q144.075 616.931 147.13 612.348 Q150.209 607.742 156.019 607.742 Z" fill="#000000" fill-rule="nonzero" fill-opacity="1" /><path clip-path="url(#clip900)" d="M186.181 611.445 Q182.57 611.445 180.741 615.01 Q178.936 618.552 178.936 625.681 Q178.936 632.788 180.741 636.353 Q182.57 639.894 186.181 639.894 Q189.815 639.894 191.621 636.353 Q193.45 632.788 193.45 625.681 Q193.45 618.552 191.621 615.01 Q189.815 611.445 186.181 611.445 M186.181 607.742 Q191.991 607.742 195.047 612.348 Q198.125 616.931 198.125 625.681 Q198.125 634.408 195.047 639.015 Q191.991 643.598 186.181 643.598 Q180.371 643.598 177.292 639.015 Q174.237 634.408 174.237 625.681 Q174.237 616.931 177.292 612.348 Q180.371 607.742 186.181 607.742 Z" fill="#000000" fill-rule="nonzero" fill-opacity="1" /><path clip-path="url(#clip900)" d="M131.019 340.601 Q134.376 341.318 136.251 343.587 Q138.149 345.855 138.149 349.189 Q138.149 354.304 134.63 357.105 Q131.112 359.906 124.63 359.906 Q122.455 359.906 120.14 359.466 Q117.848 359.05 115.394 358.193 L115.394 353.679 Q117.339 354.814 119.654 355.392 Q121.968 355.971 124.492 355.971 Q128.89 355.971 131.181 354.235 Q133.496 352.499 133.496 349.189 Q133.496 346.133 131.343 344.42 Q129.214 342.684 125.394 342.684 L121.367 342.684 L121.367 338.841 L125.58 338.841 Q129.029 338.841 130.857 337.476 Q132.686 336.087 132.686 333.494 Q132.686 330.832 130.788 329.42 Q128.913 327.985 125.394 327.985 Q123.473 327.985 121.274 328.402 Q119.075 328.818 116.436 329.698 L116.436 325.531 Q119.098 324.791 121.413 324.42 Q123.751 324.05 125.811 324.05 Q131.135 324.05 134.237 326.48 Q137.339 328.888 137.339 333.008 Q137.339 335.879 135.695 337.869 Q134.052 339.837 131.019 340.601 Z" fill="#000000" fill-rule="nonzero" fill-opacity="1" /><path clip-path="url(#clip900)" d="M151.042 355.3 L167.362 355.3 L167.362 359.235 L145.417 359.235 L145.417 355.3 Q148.079 352.545 152.663 347.916 Q157.269 343.263 158.45 341.92 Q160.695 339.397 161.575 337.661 Q162.477 335.902 162.477 334.212 Q162.477 331.457 160.533 329.721 Q158.612 327.985 155.51 327.985 Q153.311 327.985 150.857 328.749 Q148.427 329.513 145.649 331.064 L145.649 326.342 Q148.473 325.207 150.927 324.629 Q153.38 324.05 155.417 324.05 Q160.788 324.05 163.982 326.735 Q167.177 329.42 167.177 333.911 Q167.177 336.041 166.366 337.962 Q165.579 339.86 163.473 342.453 Q162.894 343.124 159.792 346.341 Q156.69 349.536 151.042 355.3 Z" fill="#000000" fill-rule="nonzero" fill-opacity="1" /><path clip-path="url(#clip900)" d="M177.223 324.675 L195.579 324.675 L195.579 328.61 L181.505 328.61 L181.505 337.082 Q182.524 336.735 183.542 336.573 Q184.561 336.388 185.579 336.388 Q191.366 336.388 194.746 339.559 Q198.125 342.73 198.125 348.147 Q198.125 353.726 194.653 356.827 Q191.181 359.906 184.862 359.906 Q182.686 359.906 180.417 359.536 Q178.172 359.165 175.764 358.425 L175.764 353.726 Q177.848 354.86 180.07 355.415 Q182.292 355.971 184.769 355.971 Q188.774 355.971 191.112 353.865 Q193.45 351.758 193.45 348.147 Q193.45 344.536 191.112 342.429 Q188.774 340.323 184.769 340.323 Q182.894 340.323 181.019 340.74 Q179.167 341.156 177.223 342.036 L177.223 324.675 Z" fill="#000000" fill-rule="nonzero" fill-opacity="1" /><path clip-path="url(#clip900)" d="M130.024 56.909 Q133.38 57.6266 135.255 59.8951 Q137.154 62.1636 137.154 65.4969 Q137.154 70.6126 133.635 73.4135 Q130.117 76.2145 123.635 76.2145 Q121.459 76.2145 119.144 75.7746 Q116.853 75.358 114.399 74.5015 L114.399 69.9876 Q116.343 71.1219 118.658 71.7006 Q120.973 72.2793 123.496 72.2793 Q127.894 72.2793 130.186 70.5432 Q132.501 68.8071 132.501 65.4969 Q132.501 62.4414 130.348 60.7284 Q128.218 58.9923 124.399 58.9923 L120.371 58.9923 L120.371 55.1498 L124.584 55.1498 Q128.033 55.1498 129.862 53.784 Q131.691 52.3951 131.691 49.8026 Q131.691 47.1405 129.792 45.7285 Q127.917 44.2933 124.399 44.2933 Q122.478 44.2933 120.279 44.71 Q118.08 45.1267 115.441 46.0063 L115.441 41.8396 Q118.103 41.0989 120.418 40.7285 Q122.755 40.3582 124.816 40.3582 Q130.14 40.3582 133.242 42.7887 Q136.343 45.1961 136.343 49.3165 Q136.343 52.1868 134.7 54.1775 Q133.056 56.1451 130.024 56.909 Z" fill="#000000" fill-rule="nonzero" fill-opacity="1" /><path clip-path="url(#clip900)" d="M146.066 40.9832 L164.422 40.9832 L164.422 44.9183 L150.348 44.9183 L150.348 53.3905 Q151.366 53.0433 152.385 52.8812 Q153.403 52.6961 154.422 52.6961 Q160.209 52.6961 163.589 55.8673 Q166.968 59.0386 166.968 64.4553 Q166.968 70.0339 163.496 73.1358 Q160.024 76.2145 153.704 76.2145 Q151.528 76.2145 149.26 75.8441 Q147.015 75.4737 144.607 74.733 L144.607 70.0339 Q146.691 71.1682 148.913 71.7237 Q151.135 72.2793 153.612 72.2793 Q157.616 72.2793 159.954 70.1728 Q162.292 68.0664 162.292 64.4553 Q162.292 60.8442 159.954 58.7377 Q157.616 56.6312 153.612 56.6312 Q151.737 56.6312 149.862 57.0479 Q148.01 57.4646 146.066 58.3442 L146.066 40.9832 Z" fill="#000000" fill-rule="nonzero" fill-opacity="1" /><path clip-path="url(#clip900)" d="M186.181 44.0619 Q182.57 44.0619 180.741 47.6266 Q178.936 51.1683 178.936 58.2979 Q178.936 65.4043 180.741 68.9691 Q182.57 72.5108 186.181 72.5108 Q189.815 72.5108 191.621 68.9691 Q193.45 65.4043 193.45 58.2979 Q193.45 51.1683 191.621 47.6266 Q189.815 44.0619 186.181 44.0619 M186.181 40.3582 Q191.991 40.3582 195.047 44.9646 Q198.125 49.5479 198.125 58.2979 Q198.125 67.0247 195.047 71.6311 Q191.991 76.2145 186.181 76.2145 Q180.371 76.2145 177.292 71.6311 Q174.237 67.0247 174.237 58.2979 Q174.237 49.5479 177.292 44.9646 Q180.371 40.3582 186.181 40.3582 Z" fill="#000000" fill-rule="nonzero" fill-opacity="1" /><path clip-path="url(#clip900)" d="M16.4842 754.07 L16.4842 747.641 L36.568 747.641 L16.4842 726.316 L16.4842 718.04 L38.6368 741.625 L64.0042 716.354 L64.0042 724.82 L41.1194 747.641 L64.0042 747.641 L64.0042 754.07 L16.4842 754.07 Z" fill="#000000" fill-rule="nonzero" fill-opacity="1" /><polyline clip-path="url(#clip902)" style="stroke:#e6540d; stroke-linecap:round; stroke-linejoin:round; stroke-width:4; stroke-opacity:1; fill:none" points="294.087,1384.24 360.71,1350.6 427.334,1313.85 493.957,1286.5 560.581,1269.88 627.205,1256.96 693.828,1246.76 760.452,1238.56 827.075,1232.01 893.699,1226.5 960.323,1221.98 1026.95,1218.09 1093.57,1214.96 1160.19,1212.02 1226.82,1209.86 1293.44,1207.64 1360.06,1205.95 1426.69,1204.55 1493.31,1203.03 1559.94,1202.28 1626.56,1201.16 1693.18,1200.15 1759.81,1200.17 1826.43,1198.79 1893.05,1198.41 1959.68,1199.18 2026.3,1196.92 2092.92,1200.02 2159.55,1200.38 2226.17,1189.56 2292.79,1184 "/>
<path clip-path="url(#clip902)" d="M310.087 1368.24 L278.087 1368.24 L294.087 1400.24 L310.087 1368.24 Z" fill="#e6540d" fill-rule="evenodd" fill-opacity="1" stroke="#000000" stroke-opacity="1" stroke-width="3.2"/>
<path clip-path="url(#clip902)" d="M709.828 1230.76 L677.828 1230.76 L693.828 1262.76 L709.828 1230.76 Z" fill="#e6540d" fill-rule="evenodd" fill-opacity="1" stroke="#000000" stroke-opacity="1" stroke-width="3.2"/>
<path clip-path="url(#clip902)" d="M1109.57 1198.96 L1077.57 1198.96 L1093.57 1230.96 L1109.57 1198.96 Z" fill="#e6540d" fill-rule="evenodd" fill-opacity="1" stroke="#000000" stroke-opacity="1" stroke-width="3.2"/>
<path clip-path="url(#clip902)" d="M1509.31 1187.03 L1477.31 1187.03 L1493.31 1219.03 L1509.31 1187.03 Z" fill="#e6540d" fill-rule="evenodd" fill-opacity="1" stroke="#000000" stroke-opacity="1" stroke-width="3.2"/>
<path clip-path="url(#clip902)" d="M1909.05 1182.41 L1877.05 1182.41 L1893.05 1214.41 L1909.05 1182.41 Z" fill="#e6540d" fill-rule="evenodd" fill-opacity="1" stroke="#000000" stroke-opacity="1" stroke-width="3.2"/>
<path clip-path="url(#clip902)" d="M2308.79 1168 L2276.79 1168 L2292.79 1200 L2308.79 1168 Z" fill="#e6540d" fill-rule="evenodd" fill-opacity="1" stroke="#000000" stroke-opacity="1" stroke-width="3.2"/>
<polyline clip-path="url(#clip902)" style="stroke:#e6540d; stroke-linecap:round; stroke-linejoin:round; stroke-width:4; stroke-opacity:1; fill:none" stroke-dasharray="16, 10" points="294.087,1384.24 360.71,1125.91 427.334,931.475 493.957,782.414 560.581,681.907 627.205,611.301 693.828,559.708 760.452,520.328 827.075,488.908 893.699,462.695 960.323,439.903 1026.95,419.41 1093.57,400.432 1160.19,382.45 1226.82,365.13 1293.44,348.206 1360.06,331.525 1426.69,314.952 1493.31,298.404 1559.94,281.806 1626.56,265.11 1693.18,248.275 1759.81,231.258 1826.43,214.043 1893.05,196.599 1959.68,178.901 2026.3,160.948 2092.92,142.706 2159.55,124.184 2226.17,105.347 2292.79,86.1857 "/>
<path clip-path="url(#clip902)" d="M310.087 1368.24 L278.087 1368.24 L294.087 1400.24 L310.087 1368.24 Z" fill="#ffffff" fill-rule="evenodd" fill-opacity="1" stroke="#e6540d" stroke-opacity="1" stroke-width="3.2"/>
<path clip-path="url(#clip902)" d="M709.828 543.708 L677.828 543.708 L693.828 575.708 L709.828 543.708 Z" fill="#ffffff" fill-rule="evenodd" fill-opacity="1" stroke="#e6540d" stroke-opacity="1" stroke-width="3.2"/>
<path clip-path="url(#clip902)" d="M1109.57 384.432 L1077.57 384.432 L1093.57 416.432 L1109.57 384.432 Z" fill="#ffffff" fill-rule="evenodd" fill-opacity="1" stroke="#e6540d" stroke-opacity="1" stroke-width="3.2"/>
<path clip-path="url(#clip902)" d="M1509.31 282.404 L1477.31 282.404 L1493.31 314.404 L1509.31 282.404 Z" fill="#ffffff" fill-rule="evenodd" fill-opacity="1" stroke="#e6540d" stroke-opacity="1" stroke-width="3.2"/>
<path clip-path="url(#clip902)" d="M1909.05 180.599 L1877.05 180.599 L1893.05 212.599 L1909.05 180.599 Z" fill="#ffffff" fill-rule="evenodd" fill-opacity="1" stroke="#e6540d" stroke-opacity="1" stroke-width="3.2"/>
<path clip-path="url(#clip902)" d="M2308.79 70.1857 L2276.79 70.1857 L2292.79 102.186 L2308.79 70.1857 Z" fill="#ffffff" fill-rule="evenodd" fill-opacity="1" stroke="#e6540d" stroke-opacity="1" stroke-width="3.2"/>
<path clip-path="url(#clip900)" d="M304.746 248.629 L770.984 248.629 L770.984 93.1086 L304.746 93.1086  Z" fill="#ffffff" fill-rule="evenodd" fill-opacity="1"/>
<polyline clip-path="url(#clip900)" style="stroke:#000000; stroke-linecap:round; stroke-linejoin:round; stroke-width:4; stroke-opacity:1; fill:none" points="304.746,248.629 770.984,248.629 770.984,93.1086 304.746,93.1086 304.746,248.629 "/>
<polyline clip-path="url(#clip900)" style="stroke:#e6540d; stroke-linecap:round; stroke-linejoin:round; stroke-width:4; stroke-opacity:1; fill:none" points="328.287,144.949 469.529,144.949 "/>
<path clip-path="url(#clip900)" d="M420.704 123.152 L377.111 123.152 L398.908 166.745 L420.704 123.152 Z" fill="#e6540d" fill-rule="evenodd" fill-opacity="1" stroke="#000000" stroke-opacity="1" stroke-width="4.55111"/>
<path clip-path="url(#clip900)" d="M525.697 122.039 Q525.697 122.484 525.603 122.859 L524.291 131.197 Q524.221 131.83 524.08 132.064 Q523.963 132.298 523.589 132.298 Q523.003 132.298 523.003 131.689 Q523.003 131.338 523.144 130.776 Q523.542 128.129 523.542 126.934 Q523.542 126.138 523.378 125.552 Q523.237 124.943 523.003 124.522 Q522.792 124.1 522.3 123.819 Q521.809 123.538 521.34 123.374 Q520.872 123.21 520.028 123.14 Q519.185 123.046 518.459 123.023 Q517.733 122.999 516.538 122.999 Q513.939 122.999 513.517 123.093 Q513.072 123.21 512.838 123.561 Q512.627 123.889 512.393 124.873 L506.022 150.333 L505.834 151.34 Q505.834 151.903 506.186 152.09 Q506.537 152.277 507.615 152.394 Q509.16 152.512 510.683 152.512 Q510.73 152.512 510.823 152.512 Q511.339 152.512 511.549 152.535 Q511.76 152.535 511.971 152.582 Q512.182 152.629 512.229 152.746 Q512.299 152.84 512.299 153.027 Q512.299 153.472 512.112 153.706 Q511.924 153.917 511.737 153.964 Q511.573 153.987 511.245 153.987 Q510.589 153.987 509.184 153.94 Q507.778 153.894 507.076 153.894 L503.094 153.847 L499.018 153.894 Q498.386 153.894 497.051 153.94 Q495.716 153.987 495.084 153.987 Q494.264 153.987 494.264 153.402 Q494.264 152.746 494.568 152.629 Q494.896 152.512 496.278 152.512 Q498.222 152.512 499.276 152.418 Q500.33 152.324 500.892 151.996 Q501.478 151.668 501.642 151.34 Q501.806 150.989 501.993 150.193 L508.434 124.592 Q508.622 124.03 508.622 123.585 Q508.622 123.351 508.551 123.257 Q508.505 123.163 508.2 123.093 Q507.896 122.999 507.263 122.999 L505.389 122.999 Q503.469 122.999 502.274 123.093 Q501.103 123.163 499.979 123.515 Q498.878 123.866 498.222 124.358 Q497.59 124.85 496.887 125.857 Q496.184 126.864 495.669 128.082 Q495.177 129.3 494.475 131.291 Q494.24 131.947 494.1 132.134 Q493.983 132.298 493.655 132.298 Q493.421 132.298 493.233 132.157 Q493.069 131.994 493.069 131.783 Q493.303 131.01 493.35 130.916 L496.231 122.461 Q496.465 121.781 496.676 121.664 Q496.91 121.524 497.777 121.524 L524.385 121.524 Q524.807 121.524 524.947 121.524 Q525.088 121.524 525.322 121.571 Q525.556 121.617 525.626 121.735 Q525.697 121.852 525.697 122.039 Z" fill="#000000" fill-rule="nonzero" fill-opacity="1" /><path clip-path="url(#clip900)" d="M530.486 154.623 L530.486 153.573 L533.126 153.573 L533.126 149.72 Q533.126 147.228 534.733 145.802 Q536.356 144.375 538.34 144.375 Q539.651 144.375 540.504 145.08 Q541.356 145.785 541.356 146.736 Q541.356 147.376 540.963 147.802 Q540.586 148.212 539.881 148.212 Q539.209 148.212 538.815 147.786 Q538.438 147.359 538.438 146.769 Q538.438 145.687 539.438 145.359 Q538.93 145.129 538.34 145.113 Q537.126 145.113 536.175 146.359 Q535.241 147.605 535.241 149.687 L535.241 153.573 L539.176 153.573 L539.176 154.623 L535.356 154.623 L535.356 165.427 Q535.356 166.395 535.749 166.706 Q536.159 167.018 537.897 167.018 L538.602 167.018 L538.602 168.051 Q537.257 167.952 534.339 167.952 Q533.929 167.952 533.29 167.969 Q532.667 167.985 531.814 168.018 Q530.978 168.051 530.519 168.051 L530.519 167.018 Q532.306 167.018 532.716 166.805 Q533.126 166.575 533.126 165.493 L533.126 154.623 L530.486 154.623 Z" fill="#000000" fill-rule="nonzero" fill-opacity="1" /><path clip-path="url(#clip900)" d="M547.635 148.108 L552.519 148.108 L552.519 152.089 L548.723 159.496 L545.737 159.496 L547.635 152.089 L547.635 148.108 Z" fill="#000000" fill-rule="nonzero" fill-opacity="1" /><path clip-path="url(#clip900)" d="M596.871 133.038 Q598.468 130.168 600.69 128.802 Q602.913 127.436 605.922 127.436 Q609.973 127.436 612.172 130.284 Q614.371 133.108 614.371 138.339 L614.371 153.987 L610.088 153.987 L610.088 138.478 Q610.088 134.751 608.769 132.946 Q607.45 131.14 604.741 131.14 Q601.431 131.14 599.51 133.339 Q597.588 135.538 597.588 139.335 L597.588 153.987 L593.306 153.987 L593.306 138.478 Q593.306 134.728 591.987 132.946 Q590.667 131.14 587.913 131.14 Q584.649 131.14 582.727 133.362 Q580.806 135.561 580.806 139.335 L580.806 153.987 L576.524 153.987 L576.524 128.061 L580.806 128.061 L580.806 132.089 Q582.264 129.705 584.302 128.571 Q586.339 127.436 589.139 127.436 Q591.964 127.436 593.931 128.872 Q595.922 130.307 596.871 133.038 Z" fill="#000000" fill-rule="nonzero" fill-opacity="1" /><path clip-path="url(#clip900)" d="M632.912 131.048 Q629.486 131.048 627.496 133.733 Q625.505 136.395 625.505 141.047 Q625.505 145.7 627.473 148.385 Q629.463 151.047 632.912 151.047 Q636.315 151.047 638.306 148.362 Q640.297 145.677 640.297 141.047 Q640.297 136.441 638.306 133.756 Q636.315 131.048 632.912 131.048 M632.912 127.436 Q638.468 127.436 641.639 131.048 Q644.81 134.659 644.81 141.047 Q644.81 147.413 641.639 151.047 Q638.468 154.659 632.912 154.659 Q627.334 154.659 624.162 151.047 Q621.014 147.413 621.014 141.047 Q621.014 134.659 624.162 131.048 Q627.334 127.436 632.912 127.436 Z" fill="#000000" fill-rule="nonzero" fill-opacity="1" /><path clip-path="url(#clip900)" d="M668.931 131.997 L668.931 117.969 L673.19 117.969 L673.19 153.987 L668.931 153.987 L668.931 150.098 Q667.588 152.413 665.528 153.547 Q663.491 154.659 660.621 154.659 Q655.922 154.659 652.959 150.909 Q650.019 147.159 650.019 141.047 Q650.019 134.936 652.959 131.186 Q655.922 127.436 660.621 127.436 Q663.491 127.436 665.528 128.571 Q667.588 129.682 668.931 131.997 M654.417 141.047 Q654.417 145.747 656.338 148.432 Q658.283 151.094 661.662 151.094 Q665.042 151.094 666.986 148.432 Q668.931 145.747 668.931 141.047 Q668.931 136.348 666.986 133.686 Q665.042 131.001 661.662 131.001 Q658.283 131.001 656.338 133.686 Q654.417 136.348 654.417 141.047 Z" fill="#000000" fill-rule="nonzero" fill-opacity="1" /><path clip-path="url(#clip900)" d="M704.139 139.96 L704.139 142.043 L684.556 142.043 Q684.833 146.441 687.194 148.756 Q689.579 151.047 693.815 151.047 Q696.269 151.047 698.56 150.446 Q700.875 149.844 703.143 148.64 L703.143 152.668 Q700.852 153.64 698.444 154.149 Q696.037 154.659 693.56 154.659 Q687.357 154.659 683.722 151.047 Q680.111 147.436 680.111 141.279 Q680.111 134.913 683.537 131.186 Q686.986 127.436 692.819 127.436 Q698.051 127.436 701.083 130.816 Q704.139 134.173 704.139 139.96 M699.88 138.71 Q699.833 135.214 697.912 133.131 Q696.014 131.048 692.866 131.048 Q689.301 131.048 687.148 133.061 Q685.019 135.075 684.694 138.733 L699.88 138.71 Z" fill="#000000" fill-rule="nonzero" fill-opacity="1" /><path clip-path="url(#clip900)" d="M711.13 117.969 L715.389 117.969 L715.389 153.987 L711.13 153.987 L711.13 117.969 Z" fill="#000000" fill-rule="nonzero" fill-opacity="1" /><polyline clip-path="url(#clip900)" style="stroke:#e6540d; stroke-linecap:round; stroke-linejoin:round; stroke-width:4; stroke-opacity:1; fill:none" stroke-dasharray="16, 10" points="328.287,196.789 469.529,196.789 "/>
<path clip-path="url(#clip900)" d="M420.704 174.992 L377.111 174.992 L398.908 218.585 L420.704 174.992 Z" fill="#ffffff" fill-rule="evenodd" fill-opacity="1" stroke="#e6540d" stroke-opacity="1" stroke-width="4.55111"/>
<path clip-path="url(#clip900)" d="M525.697 176.423 Q525.697 176.868 525.603 177.243 L524.291 185.581 Q524.221 186.214 524.08 186.448 Q523.963 186.682 523.589 186.682 Q523.003 186.682 523.003 186.073 Q523.003 185.722 523.144 185.16 Q523.542 182.513 523.542 181.318 Q523.542 180.522 523.378 179.936 Q523.237 179.327 523.003 178.906 Q522.792 178.484 522.3 178.203 Q521.809 177.922 521.34 177.758 Q520.872 177.594 520.028 177.524 Q519.185 177.43 518.459 177.407 Q517.733 177.383 516.538 177.383 Q513.939 177.383 513.517 177.477 Q513.072 177.594 512.838 177.946 Q512.627 178.273 512.393 179.257 L506.022 204.717 L505.834 205.725 Q505.834 206.287 506.186 206.474 Q506.537 206.661 507.615 206.779 Q509.16 206.896 510.683 206.896 Q510.73 206.896 510.823 206.896 Q511.339 206.896 511.549 206.919 Q511.76 206.919 511.971 206.966 Q512.182 207.013 512.229 207.13 Q512.299 207.224 512.299 207.411 Q512.299 207.856 512.112 208.09 Q511.924 208.301 511.737 208.348 Q511.573 208.371 511.245 208.371 Q510.589 208.371 509.184 208.324 Q507.778 208.278 507.076 208.278 L503.094 208.231 L499.018 208.278 Q498.386 208.278 497.051 208.324 Q495.716 208.371 495.084 208.371 Q494.264 208.371 494.264 207.786 Q494.264 207.13 494.568 207.013 Q494.896 206.896 496.278 206.896 Q498.222 206.896 499.276 206.802 Q500.33 206.708 500.892 206.38 Q501.478 206.052 501.642 205.725 Q501.806 205.373 501.993 204.577 L508.434 178.976 Q508.622 178.414 508.622 177.969 Q508.622 177.735 508.551 177.641 Q508.505 177.547 508.2 177.477 Q507.896 177.383 507.263 177.383 L505.389 177.383 Q503.469 177.383 502.274 177.477 Q501.103 177.547 499.979 177.899 Q498.878 178.25 498.222 178.742 Q497.59 179.234 496.887 180.241 Q496.184 181.248 495.669 182.466 Q495.177 183.684 494.475 185.675 Q494.24 186.331 494.1 186.518 Q493.983 186.682 493.655 186.682 Q493.421 186.682 493.233 186.542 Q493.069 186.378 493.069 186.167 Q493.303 185.394 493.35 185.3 L496.231 176.845 Q496.465 176.165 496.676 176.048 Q496.91 175.908 497.777 175.908 L524.385 175.908 Q524.807 175.908 524.947 175.908 Q525.088 175.908 525.322 175.955 Q525.556 176.001 525.626 176.119 Q525.697 176.236 525.697 176.423 Z" fill="#000000" fill-rule="nonzero" fill-opacity="1" /><path clip-path="url(#clip900)" d="M530.486 203.547 L530.486 202.497 Q531.994 202.596 533.749 202.596 Q534.388 202.596 537.405 202.497 L537.405 203.547 Q535.487 203.547 535.487 204.416 Q535.487 204.547 535.683 204.989 L539.455 214.351 L542.881 205.793 Q543.078 205.219 543.078 204.989 Q543.078 204.416 542.684 204.006 Q542.307 203.579 541.471 203.547 L541.471 202.497 Q543.176 202.596 544.39 202.596 Q545.767 202.596 546.898 202.497 L546.898 203.547 Q545.898 203.547 545.193 204.006 Q544.488 204.448 544.258 204.842 Q544.045 205.219 543.816 205.793 L539.422 216.712 Q539.159 217.352 538.717 217.352 Q538.422 217.352 538.29 217.221 Q538.176 217.106 538.012 216.712 L533.175 204.793 Q532.847 203.957 532.421 203.76 Q531.994 203.547 530.486 203.547 Z" fill="#000000" fill-rule="nonzero" fill-opacity="1" /><path clip-path="url(#clip900)" d="M548.676 203.547 L548.676 202.497 Q550.496 202.596 551.791 202.596 Q552.431 202.596 555.464 202.497 L555.464 203.547 Q553.48 203.547 553.48 204.448 Q553.48 204.645 553.644 205.055 L556.841 214.023 L559.727 205.891 Q559.12 204.252 558.956 204.055 Q558.546 203.547 556.841 203.547 L556.841 202.497 Q558.349 202.596 559.825 202.596 Q560.399 202.596 563.317 202.497 L563.317 203.547 Q561.333 203.547 561.333 204.448 Q561.333 204.58 561.497 205.088 L564.826 214.45 L567.875 205.858 Q568.039 205.416 568.056 205.153 Q568.056 204.416 567.531 204.006 Q567.006 203.579 566.105 203.547 L566.105 202.497 Q568.023 202.596 569.22 202.596 Q570.564 202.596 571.679 202.497 L571.679 203.547 Q569.597 203.612 568.859 205.694 L564.924 216.712 Q564.547 217.319 564.252 217.352 Q563.809 217.352 563.58 216.712 L560.153 207.17 L556.759 216.68 Q556.628 217.089 556.513 217.221 Q556.398 217.352 556.087 217.352 Q555.792 217.352 555.661 217.171 Q555.529 217.008 555.382 216.598 L551.152 204.711 Q550.857 203.94 550.414 203.743 Q549.988 203.547 548.676 203.547 Z" fill="#000000" fill-rule="nonzero" fill-opacity="1" /><path clip-path="url(#clip900)" d="M579.69 202.492 L584.574 202.492 L584.574 206.473 L580.778 213.881 L577.792 213.881 L579.69 206.473 L579.69 202.492 Z" fill="#000000" fill-rule="nonzero" fill-opacity="1" /><path clip-path="url(#clip900)" d="M628.926 187.422 Q630.523 184.552 632.745 183.186 Q634.967 181.82 637.977 181.82 Q642.028 181.82 644.227 184.668 Q646.426 187.492 646.426 192.723 L646.426 208.371 L642.143 208.371 L642.143 192.862 Q642.143 189.135 640.824 187.33 Q639.504 185.524 636.796 185.524 Q633.486 185.524 631.565 187.723 Q629.643 189.922 629.643 193.719 L629.643 208.371 L625.361 208.371 L625.361 192.862 Q625.361 189.112 624.042 187.33 Q622.722 185.524 619.968 185.524 Q616.704 185.524 614.782 187.746 Q612.861 189.945 612.861 193.719 L612.861 208.371 L608.579 208.371 L608.579 182.445 L612.861 182.445 L612.861 186.473 Q614.319 184.089 616.356 182.955 Q618.393 181.82 621.194 181.82 Q624.018 181.82 625.986 183.256 Q627.977 184.691 628.926 187.422 Z" fill="#000000" fill-rule="nonzero" fill-opacity="1" /><path clip-path="url(#clip900)" d="M664.967 185.432 Q661.541 185.432 659.551 188.117 Q657.56 190.779 657.56 195.432 Q657.56 200.084 659.528 202.769 Q661.518 205.431 664.967 205.431 Q668.37 205.431 670.361 202.746 Q672.352 200.061 672.352 195.432 Q672.352 190.825 670.361 188.14 Q668.37 185.432 664.967 185.432 M664.967 181.82 Q670.523 181.82 673.694 185.432 Q676.865 189.043 676.865 195.432 Q676.865 201.797 673.694 205.431 Q670.523 209.043 664.967 209.043 Q659.389 209.043 656.217 205.431 Q653.069 201.797 653.069 195.432 Q653.069 189.043 656.217 185.432 Q659.389 181.82 664.967 181.82 Z" fill="#000000" fill-rule="nonzero" fill-opacity="1" /><path clip-path="url(#clip900)" d="M700.986 186.381 L700.986 172.353 L705.245 172.353 L705.245 208.371 L700.986 208.371 L700.986 204.482 Q699.643 206.797 697.583 207.931 Q695.546 209.043 692.675 209.043 Q687.976 209.043 685.013 205.293 Q682.074 201.543 682.074 195.432 Q682.074 189.32 685.013 185.57 Q687.976 181.82 692.675 181.82 Q695.546 181.82 697.583 182.955 Q699.643 184.066 700.986 186.381 M686.472 195.432 Q686.472 200.131 688.393 202.816 Q690.338 205.478 693.717 205.478 Q697.097 205.478 699.041 202.816 Q700.986 200.131 700.986 195.432 Q700.986 190.732 699.041 188.07 Q697.097 185.385 693.717 185.385 Q690.338 185.385 688.393 188.07 Q686.472 190.732 686.472 195.432 Z" fill="#000000" fill-rule="nonzero" fill-opacity="1" /><path clip-path="url(#clip900)" d="M736.194 194.344 L736.194 196.427 L716.611 196.427 Q716.888 200.825 719.249 203.14 Q721.634 205.431 725.87 205.431 Q728.323 205.431 730.615 204.83 Q732.93 204.228 735.198 203.024 L735.198 207.052 Q732.907 208.024 730.499 208.533 Q728.092 209.043 725.615 209.043 Q719.411 209.043 715.777 205.431 Q712.166 201.82 712.166 195.663 Q712.166 189.297 715.592 185.57 Q719.041 181.82 724.874 181.82 Q730.106 181.82 733.138 185.2 Q736.194 188.557 736.194 194.344 M731.935 193.094 Q731.888 189.598 729.967 187.515 Q728.069 185.432 724.921 185.432 Q721.356 185.432 719.203 187.445 Q717.074 189.459 716.749 193.117 L731.935 193.094 Z" fill="#000000" fill-rule="nonzero" fill-opacity="1" /><path clip-path="url(#clip900)" d="M743.184 172.353 L747.444 172.353 L747.444 208.371 L743.184 208.371 L743.184 172.353 Z" fill="#000000" fill-rule="nonzero" fill-opacity="1" /></svg>
