<?xml version="1.0" encoding="utf-8"?>
<svg xmlns="http://www.w3.org/2000/svg" xmlns:xlink="http://www.w3.org/1999/xlink" width="600" height="400" viewBox="0 0 2400 1600">
<defs>
  <clipPath id="clip740">
    <rect x="0" y="0" width="2400" height="1600"/>
  </clipPath>
</defs>
<path clip-path="url(#clip740)" d="M0 1600 L2400 1600 L2400 0 L0 0  Z" fill="#ffffff" fill-rule="evenodd" fill-opacity="1"/>
<defs>
  <clipPath id="clip741">
    <rect x="480" y="0" width="1681" height="1600"/>
  </clipPath>
</defs>
<path clip-path="url(#clip740)" d="M224.098 1486.45 L2352.76 1486.45 L2352.76 47.2441 L224.098 47.2441  Z" fill="#ffffff" fill-rule="evenodd" fill-opacity="1"/>
<defs>
  <clipPath id="clip742">
    <rect x="224" y="47" width="2130" height="1440"/>
  </clipPath>
</defs>
<polyline clip-path="url(#clip742)" style="stroke:#000000; stroke-linecap:round; stroke-linejoin:round; stroke-width:2; stroke-opacity:0.1; fill:none" points="284.343,1486.45 284.343,47.2441 "/>
<polyline clip-path="url(#clip742)" style="stroke:#000000; stroke-linecap:round; stroke-linejoin:round; stroke-width:2; stroke-opacity:0.1; fill:none" points="771.654,1486.45 771.654,47.2441 "/>
<polyline clip-path="url(#clip742)" style="stroke:#000000; stroke-linecap:round; stroke-linejoin:round; stroke-width:2; stroke-opacity:0.1; fill:none" points="1258.97,1486.45 1258.97,47.2441 "/>
<polyline clip-path="url(#clip742)" style="stroke:#000000; stroke-linecap:round; stroke-linejoin:round; stroke-width:2; stroke-opacity:0.1; fill:none" points="1746.28,1486.45 1746.28,47.2441 "/>
<polyline clip-path="url(#clip742)" style="stroke:#000000; stroke-linecap:round; stroke-linejoin:round; stroke-width:2; stroke-opacity:0.1; fill:none" points="2233.59,1486.45 2233.59,47.2441 "/>
<polyline clip-path="url(#clip742)" style="stroke:#000000; stroke-linecap:round; stroke-linejoin:round; stroke-width:2; stroke-opacity:0.1; fill:none" points="224.098,1445.72 2352.76,1445.72 "/>
<polyline clip-path="url(#clip742)" style="stroke:#000000; stroke-linecap:round; stroke-linejoin:round; stroke-width:2; stroke-opacity:0.1; fill:none" points="224.098,1203.26 2352.76,1203.26 "/>
<polyline clip-path="url(#clip742)" style="stroke:#000000; stroke-linecap:round; stroke-linejoin:round; stroke-width:2; stroke-opacity:0.1; fill:none" points="224.098,960.809 2352.76,960.809 "/>
<polyline clip-path="url(#clip742)" style="stroke:#000000; stroke-linecap:round; stroke-linejoin:round; stroke-width:2; stroke-opacity:0.1; fill:none" points="224.098,718.355 2352.76,718.355 "/>
<polyline clip-path="url(#clip742)" style="stroke:#000000; stroke-linecap:round; stroke-linejoin:round; stroke-width:2; stroke-opacity:0.1; fill:none" points="224.098,475.902 2352.76,475.902 "/>
<polyline clip-path="url(#clip742)" style="stroke:#000000; stroke-linecap:round; stroke-linejoin:round; stroke-width:2; stroke-opacity:0.1; fill:none" points="224.098,233.448 2352.76,233.448 "/>
<polyline clip-path="url(#clip740)" style="stroke:#000000; stroke-linecap:round; stroke-linejoin:round; stroke-width:4; stroke-opacity:1; fill:none" points="224.098,1486.45 2352.76,1486.45 "/>
<polyline clip-path="url(#clip740)" style="stroke:#000000; stroke-linecap:round; stroke-linejoin:round; stroke-width:4; stroke-opacity:1; fill:none" points="284.343,1486.45 284.343,1467.55 "/>
<polyline clip-path="url(#clip740)" style="stroke:#000000; stroke-linecap:round; stroke-linejoin:round; stroke-width:4; stroke-opacity:1; fill:none" points="771.654,1486.45 771.654,1467.55 "/>
<polyline clip-path="url(#clip740)" style="stroke:#000000; stroke-linecap:round; stroke-linejoin:round; stroke-width:4; stroke-opacity:1; fill:none" points="1258.97,1486.45 1258.97,1467.55 "/>
<polyline clip-path="url(#clip740)" style="stroke:#000000; stroke-linecap:round; stroke-linejoin:round; stroke-width:4; stroke-opacity:1; fill:none" points="1746.28,1486.45 1746.28,1467.55 "/>
<polyline clip-path="url(#clip740)" style="stroke:#000000; stroke-linecap:round; stroke-linejoin:round; stroke-width:4; stroke-opacity:1; fill:none" points="2233.59,1486.45 2233.59,1467.55 "/>
<path clip-path="url(#clip740)" d="M284.343 1517.37 Q280.732 1517.37 278.903 1520.93 Q277.098 1524.47 277.098 1531.6 Q277.098 1538.71 278.903 1542.27 Q280.732 1545.82 284.343 1545.82 Q287.977 1545.82 289.783 1542.27 Q291.611 1538.71 291.611 1531.6 Q291.611 1524.47 289.783 1520.93 Q287.977 1517.37 284.343 1517.37 M284.343 1513.66 Q290.153 1513.66 293.209 1518.27 Q296.287 1522.85 296.287 1531.6 Q296.287 1540.33 293.209 1544.94 Q290.153 1549.52 284.343 1549.52 Q278.533 1549.52 275.454 1544.94 Q272.399 1540.33 272.399 1531.6 Q272.399 1522.85 275.454 1518.27 Q278.533 1513.66 284.343 1513.66 Z" fill="#000000" fill-rule="nonzero" fill-opacity="1" /><path clip-path="url(#clip740)" d="M761.932 1514.29 L780.289 1514.29 L780.289 1518.22 L766.215 1518.22 L766.215 1526.7 Q767.233 1526.35 768.252 1526.19 Q769.27 1526 770.289 1526 Q776.076 1526 779.455 1529.17 Q782.835 1532.34 782.835 1537.76 Q782.835 1543.34 779.363 1546.44 Q775.891 1549.52 769.571 1549.52 Q767.395 1549.52 765.127 1549.15 Q762.881 1548.78 760.474 1548.04 L760.474 1543.34 Q762.557 1544.47 764.779 1545.03 Q767.002 1545.58 769.479 1545.58 Q773.483 1545.58 775.821 1543.48 Q778.159 1541.37 778.159 1537.76 Q778.159 1534.15 775.821 1532.04 Q773.483 1529.94 769.479 1529.94 Q767.604 1529.94 765.729 1530.35 Q763.877 1530.77 761.932 1531.65 L761.932 1514.29 Z" fill="#000000" fill-rule="nonzero" fill-opacity="1" /><path clip-path="url(#clip740)" d="M1233.65 1544.91 L1241.29 1544.91 L1241.29 1518.55 L1232.98 1520.21 L1232.98 1515.95 L1241.25 1514.29 L1245.92 1514.29 L1245.92 1544.91 L1253.56 1544.91 L1253.56 1548.85 L1233.65 1548.85 L1233.65 1544.91 Z" fill="#000000" fill-rule="nonzero" fill-opacity="1" /><path clip-path="url(#clip740)" d="M1273.01 1517.37 Q1269.39 1517.37 1267.57 1520.93 Q1265.76 1524.47 1265.76 1531.6 Q1265.76 1538.71 1267.57 1542.27 Q1269.39 1545.82 1273.01 1545.82 Q1276.64 1545.82 1278.44 1542.27 Q1280.27 1538.71 1280.27 1531.6 Q1280.27 1524.47 1278.44 1520.93 Q1276.64 1517.37 1273.01 1517.37 M1273.01 1513.66 Q1278.82 1513.66 1281.87 1518.27 Q1284.95 1522.85 1284.95 1531.6 Q1284.95 1540.33 1281.87 1544.94 Q1278.82 1549.52 1273.01 1549.52 Q1267.2 1549.52 1264.12 1544.94 Q1261.06 1540.33 1261.06 1531.6 Q1261.06 1522.85 1264.12 1518.27 Q1267.2 1513.66 1273.01 1513.66 Z" fill="#000000" fill-rule="nonzero" fill-opacity="1" /><path clip-path="url(#clip740)" d="M1721.46 1544.91 L1729.1 1544.91 L1729.1 1518.55 L1720.79 1520.21 L1720.79 1515.95 L1729.06 1514.29 L1733.73 1514.29 L1733.73 1544.91 L1741.37 1544.91 L1741.37 1548.85 L1721.46 1548.85 L1721.46 1544.91 Z" fill="#000000" fill-rule="nonzero" fill-opacity="1" /><path clip-path="url(#clip740)" d="M1750.86 1514.29 L1769.22 1514.29 L1769.22 1518.22 L1755.14 1518.22 L1755.14 1526.7 Q1756.16 1526.35 1757.18 1526.19 Q1758.2 1526 1759.22 1526 Q1765 1526 1768.38 1529.17 Q1771.76 1532.34 1771.76 1537.76 Q1771.76 1543.34 1768.29 1546.44 Q1764.82 1549.52 1758.5 1549.52 Q1756.32 1549.52 1754.06 1549.15 Q1751.81 1548.78 1749.4 1548.04 L1749.4 1543.34 Q1751.49 1544.47 1753.71 1545.03 Q1755.93 1545.58 1758.41 1545.58 Q1762.41 1545.58 1764.75 1543.48 Q1767.09 1541.37 1767.09 1537.76 Q1767.09 1534.15 1764.75 1532.04 Q1762.41 1529.94 1758.41 1529.94 Q1756.53 1529.94 1754.66 1530.35 Q1752.81 1530.77 1750.86 1531.65 L1750.86 1514.29 Z" fill="#000000" fill-rule="nonzero" fill-opacity="1" /><path clip-path="url(#clip740)" d="M2212.36 1544.91 L2228.68 1544.91 L2228.68 1548.85 L2206.74 1548.85 L2206.74 1544.91 Q2209.4 1542.16 2213.98 1537.53 Q2218.59 1532.88 2219.77 1531.53 Q2222.01 1529.01 2222.89 1527.27 Q2223.8 1525.51 2223.8 1523.82 Q2223.8 1521.07 2221.85 1519.33 Q2219.93 1517.6 2216.83 1517.6 Q2214.63 1517.6 2212.18 1518.36 Q2209.75 1519.13 2206.97 1520.68 L2206.97 1515.95 Q2209.79 1514.82 2212.25 1514.24 Q2214.7 1513.66 2216.74 1513.66 Q2222.11 1513.66 2225.3 1516.35 Q2228.5 1519.03 2228.5 1523.52 Q2228.5 1525.65 2227.69 1527.57 Q2226.9 1529.47 2224.79 1532.07 Q2224.21 1532.74 2221.11 1535.95 Q2218.01 1539.15 2212.36 1544.91 Z" fill="#000000" fill-rule="nonzero" fill-opacity="1" /><path clip-path="url(#clip740)" d="M2248.5 1517.37 Q2244.89 1517.37 2243.06 1520.93 Q2241.25 1524.47 2241.25 1531.6 Q2241.25 1538.71 2243.06 1542.27 Q2244.89 1545.82 2248.5 1545.82 Q2252.13 1545.82 2253.94 1542.27 Q2255.76 1538.71 2255.76 1531.6 Q2255.76 1524.47 2253.94 1520.93 Q2252.13 1517.37 2248.5 1517.37 M2248.5 1513.66 Q2254.31 1513.66 2257.36 1518.27 Q2260.44 1522.85 2260.44 1531.6 Q2260.44 1540.33 2257.36 1544.94 Q2254.31 1549.52 2248.5 1549.52 Q2242.69 1549.52 2239.61 1544.94 Q2236.55 1540.33 2236.55 1531.6 Q2236.55 1522.85 2239.61 1518.27 Q2242.69 1513.66 2248.5 1513.66 Z" fill="#000000" fill-rule="nonzero" fill-opacity="1" /><polyline clip-path="url(#clip740)" style="stroke:#000000; stroke-linecap:round; stroke-linejoin:round; stroke-width:4; stroke-opacity:1; fill:none" points="224.098,1486.45 224.098,47.2441 "/>
<polyline clip-path="url(#clip740)" style="stroke:#000000; stroke-linecap:round; stroke-linejoin:round; stroke-width:4; stroke-opacity:1; fill:none" points="224.098,1445.72 242.996,1445.72 "/>
<polyline clip-path="url(#clip740)" style="stroke:#000000; stroke-linecap:round; stroke-linejoin:round; stroke-width:4; stroke-opacity:1; fill:none" points="224.098,1203.26 242.996,1203.26 "/>
<polyline clip-path="url(#clip740)" style="stroke:#000000; stroke-linecap:round; stroke-linejoin:round; stroke-width:4; stroke-opacity:1; fill:none" points="224.098,960.809 242.996,960.809 "/>
<polyline clip-path="url(#clip740)" style="stroke:#000000; stroke-linecap:round; stroke-linejoin:round; stroke-width:4; stroke-opacity:1; fill:none" points="224.098,718.355 242.996,718.355 "/>
<polyline clip-path="url(#clip740)" style="stroke:#000000; stroke-linecap:round; stroke-linejoin:round; stroke-width:4; stroke-opacity:1; fill:none" points="224.098,475.902 242.996,475.902 "/>
<polyline clip-path="url(#clip740)" style="stroke:#000000; stroke-linecap:round; stroke-linejoin:round; stroke-width:4; stroke-opacity:1; fill:none" points="224.098,233.448 242.996,233.448 "/>
<path clip-path="url(#clip740)" d="M50.9921 1446.17 L80.6679 1446.17 L80.6679 1450.1 L50.9921 1450.1 L50.9921 1446.17 Z" fill="#000000" fill-rule="nonzero" fill-opacity="1" /><path clip-path="url(#clip740)" d="M103.608 1432.51 L91.8021 1450.96 L103.608 1450.96 L103.608 1432.51 M102.381 1428.44 L108.26 1428.44 L108.26 1450.96 L113.191 1450.96 L113.191 1454.85 L108.26 1454.85 L108.26 1463 L103.608 1463 L103.608 1454.85 L88.0058 1454.85 L88.0058 1450.33 L102.381 1428.44 Z" fill="#000000" fill-rule="nonzero" fill-opacity="1" /><path clip-path="url(#clip740)" d="M130.922 1431.51 Q127.311 1431.51 125.482 1435.08 Q123.677 1438.62 123.677 1445.75 Q123.677 1452.86 125.482 1456.42 Q127.311 1459.96 130.922 1459.96 Q134.556 1459.96 136.362 1456.42 Q138.191 1452.86 138.191 1445.75 Q138.191 1438.62 136.362 1435.08 Q134.556 1431.51 130.922 1431.51 M130.922 1427.81 Q136.732 1427.81 139.788 1432.42 Q142.867 1437 142.867 1445.75 Q142.867 1454.48 139.788 1459.08 Q136.732 1463.67 130.922 1463.67 Q125.112 1463.67 122.033 1459.08 Q118.978 1454.48 118.978 1445.75 Q118.978 1437 122.033 1432.42 Q125.112 1427.81 130.922 1427.81 Z" fill="#000000" fill-rule="nonzero" fill-opacity="1" /><path clip-path="url(#clip740)" d="M151.084 1457.12 L155.968 1457.12 L155.968 1463 L151.084 1463 L151.084 1457.12 Z" fill="#000000" fill-rule="nonzero" fill-opacity="1" /><path clip-path="url(#clip740)" d="M176.153 1431.51 Q172.542 1431.51 170.714 1435.08 Q168.908 1438.62 168.908 1445.75 Q168.908 1452.86 170.714 1456.42 Q172.542 1459.96 176.153 1459.96 Q179.788 1459.96 181.593 1456.42 Q183.422 1452.86 183.422 1445.75 Q183.422 1438.62 181.593 1435.08 Q179.788 1431.51 176.153 1431.51 M176.153 1427.81 Q181.964 1427.81 185.019 1432.42 Q188.098 1437 188.098 1445.75 Q188.098 1454.48 185.019 1459.08 Q181.964 1463.67 176.153 1463.67 Q170.343 1463.67 167.265 1459.08 Q164.209 1454.48 164.209 1445.75 Q164.209 1437 167.265 1432.42 Q170.343 1427.81 176.153 1427.81 Z" fill="#000000" fill-rule="nonzero" fill-opacity="1" /><path clip-path="url(#clip740)" d="M51.9875 1203.71 L81.6633 1203.71 L81.6633 1207.65 L51.9875 1207.65 L51.9875 1203.71 Z" fill="#000000" fill-rule="nonzero" fill-opacity="1" /><path clip-path="url(#clip740)" d="M105.922 1201.91 Q109.279 1202.63 111.154 1204.89 Q113.052 1207.16 113.052 1210.5 Q113.052 1215.61 109.533 1218.41 Q106.015 1221.21 99.5335 1221.21 Q97.3576 1221.21 95.0428 1220.77 Q92.7512 1220.36 90.2975 1219.5 L90.2975 1214.99 Q92.2419 1216.12 94.5567 1216.7 Q96.8715 1217.28 99.3946 1217.28 Q103.793 1217.28 106.084 1215.54 Q108.399 1213.81 108.399 1210.5 Q108.399 1207.44 106.246 1205.73 Q104.117 1203.99 100.297 1203.99 L96.2697 1203.99 L96.2697 1200.15 L100.483 1200.15 Q103.932 1200.15 105.76 1198.78 Q107.589 1197.39 107.589 1194.8 Q107.589 1192.14 105.691 1190.73 Q103.816 1189.29 100.297 1189.29 Q98.3761 1189.29 96.1771 1189.71 Q93.978 1190.13 91.3391 1191.01 L91.3391 1186.84 Q94.0012 1186.1 96.316 1185.73 Q98.6539 1185.36 100.714 1185.36 Q106.038 1185.36 109.14 1187.79 Q112.242 1190.2 112.242 1194.32 Q112.242 1197.19 110.598 1199.18 Q108.955 1201.14 105.922 1201.91 Z" fill="#000000" fill-rule="nonzero" fill-opacity="1" /><path clip-path="url(#clip740)" d="M120.737 1185.98 L142.959 1185.98 L142.959 1187.97 L130.413 1220.54 L125.529 1220.54 L137.334 1189.92 L120.737 1189.92 L120.737 1185.98 Z" fill="#000000" fill-rule="nonzero" fill-opacity="1" /><path clip-path="url(#clip740)" d="M152.08 1214.66 L156.964 1214.66 L156.964 1220.54 L152.08 1220.54 L152.08 1214.66 Z" fill="#000000" fill-rule="nonzero" fill-opacity="1" /><path clip-path="url(#clip740)" d="M167.195 1185.98 L185.552 1185.98 L185.552 1189.92 L171.478 1189.92 L171.478 1198.39 Q172.496 1198.04 173.515 1197.88 Q174.533 1197.7 175.552 1197.7 Q181.339 1197.7 184.718 1200.87 Q188.098 1204.04 188.098 1209.45 Q188.098 1215.03 184.626 1218.13 Q181.153 1221.21 174.834 1221.21 Q172.658 1221.21 170.39 1220.84 Q168.144 1220.47 165.737 1219.73 L165.737 1215.03 Q167.82 1216.17 170.042 1216.72 Q172.265 1217.28 174.741 1217.28 Q178.746 1217.28 181.084 1215.17 Q183.422 1213.07 183.422 1209.45 Q183.422 1205.84 181.084 1203.74 Q178.746 1201.63 174.741 1201.63 Q172.866 1201.63 170.991 1202.05 Q169.14 1202.46 167.195 1203.34 L167.195 1185.98 Z" fill="#000000" fill-rule="nonzero" fill-opacity="1" /><path clip-path="url(#clip740)" d="M50.9921 961.26 L80.6679 961.26 L80.6679 965.195 L50.9921 965.195 L50.9921 961.26 Z" fill="#000000" fill-rule="nonzero" fill-opacity="1" /><path clip-path="url(#clip740)" d="M104.927 959.455 Q108.283 960.172 110.158 962.441 Q112.057 964.709 112.057 968.043 Q112.057 973.158 108.538 975.959 Q105.02 978.76 98.5382 978.76 Q96.3623 978.76 94.0475 978.32 Q91.7558 977.904 89.3021 977.047 L89.3021 972.533 Q91.2465 973.667 93.5613 974.246 Q95.8761 974.825 98.3993 974.825 Q102.797 974.825 105.089 973.089 Q107.404 971.353 107.404 968.043 Q107.404 964.987 105.251 963.274 Q103.121 961.538 99.3021 961.538 L95.2743 961.538 L95.2743 957.695 L99.4872 957.695 Q102.936 957.695 104.765 956.33 Q106.594 954.941 106.594 952.348 Q106.594 949.686 104.696 948.274 Q102.821 946.839 99.3021 946.839 Q97.3808 946.839 95.1817 947.256 Q92.9826 947.672 90.3438 948.552 L90.3438 944.385 Q93.0058 943.644 95.3206 943.274 Q97.6585 942.904 99.7187 942.904 Q105.043 942.904 108.145 945.334 Q111.246 947.742 111.246 951.862 Q111.246 954.732 109.603 956.723 Q107.959 958.691 104.927 959.455 Z" fill="#000000" fill-rule="nonzero" fill-opacity="1" /><path clip-path="url(#clip740)" d="M120.969 943.529 L139.325 943.529 L139.325 947.464 L125.251 947.464 L125.251 955.936 Q126.27 955.589 127.288 955.427 Q128.307 955.242 129.325 955.242 Q135.112 955.242 138.492 958.413 Q141.871 961.584 141.871 967.001 Q141.871 972.58 138.399 975.681 Q134.927 978.76 128.607 978.76 Q126.432 978.76 124.163 978.39 Q121.918 978.019 119.51 977.279 L119.51 972.58 Q121.594 973.714 123.816 974.269 Q126.038 974.825 128.515 974.825 Q132.519 974.825 134.857 972.718 Q137.195 970.612 137.195 967.001 Q137.195 963.39 134.857 961.283 Q132.519 959.177 128.515 959.177 Q126.64 959.177 124.765 959.593 Q122.913 960.01 120.969 960.89 L120.969 943.529 Z" fill="#000000" fill-rule="nonzero" fill-opacity="1" /><path clip-path="url(#clip740)" d="M151.084 972.209 L155.968 972.209 L155.968 978.089 L151.084 978.089 L151.084 972.209 Z" fill="#000000" fill-rule="nonzero" fill-opacity="1" /><path clip-path="url(#clip740)" d="M176.153 946.607 Q172.542 946.607 170.714 950.172 Q168.908 953.714 168.908 960.843 Q168.908 967.95 170.714 971.515 Q172.542 975.056 176.153 975.056 Q179.788 975.056 181.593 971.515 Q183.422 967.95 183.422 960.843 Q183.422 953.714 181.593 950.172 Q179.788 946.607 176.153 946.607 M176.153 942.904 Q181.964 942.904 185.019 947.51 Q188.098 952.094 188.098 960.843 Q188.098 969.57 185.019 974.177 Q181.964 978.76 176.153 978.76 Q170.343 978.76 167.265 974.177 Q164.209 969.57 164.209 960.843 Q164.209 952.094 167.265 947.51 Q170.343 942.904 176.153 942.904 Z" fill="#000000" fill-rule="nonzero" fill-opacity="1" /><path clip-path="url(#clip740)" d="M51.9875 718.807 L81.6633 718.807 L81.6633 722.742 L51.9875 722.742 L51.9875 718.807 Z" fill="#000000" fill-rule="nonzero" fill-opacity="1" /><path clip-path="url(#clip740)" d="M105.922 717.001 Q109.279 717.719 111.154 719.987 Q113.052 722.256 113.052 725.589 Q113.052 730.705 109.533 733.506 Q106.015 736.307 99.5335 736.307 Q97.3576 736.307 95.0428 735.867 Q92.7512 735.45 90.2975 734.594 L90.2975 730.08 Q92.2419 731.214 94.5567 731.793 Q96.8715 732.371 99.3946 732.371 Q103.793 732.371 106.084 730.635 Q108.399 728.899 108.399 725.589 Q108.399 722.534 106.246 720.821 Q104.117 719.084 100.297 719.084 L96.2697 719.084 L96.2697 715.242 L100.483 715.242 Q103.932 715.242 105.76 713.876 Q107.589 712.487 107.589 709.895 Q107.589 707.233 105.691 705.821 Q103.816 704.385 100.297 704.385 Q98.3761 704.385 96.1771 704.802 Q93.978 705.219 91.3391 706.098 L91.3391 701.932 Q94.0012 701.191 96.316 700.821 Q98.6539 700.45 100.714 700.45 Q106.038 700.45 109.14 702.881 Q112.242 705.288 112.242 709.409 Q112.242 712.279 110.598 714.27 Q108.955 716.237 105.922 717.001 Z" fill="#000000" fill-rule="nonzero" fill-opacity="1" /><path clip-path="url(#clip740)" d="M125.945 731.7 L142.265 731.7 L142.265 735.635 L120.32 735.635 L120.32 731.7 Q122.982 728.946 127.566 724.316 Q132.172 719.663 133.353 718.321 Q135.598 715.797 136.478 714.061 Q137.381 712.302 137.381 710.612 Q137.381 707.858 135.436 706.122 Q133.515 704.385 130.413 704.385 Q128.214 704.385 125.76 705.149 Q123.33 705.913 120.552 707.464 L120.552 702.742 Q123.376 701.608 125.83 701.029 Q128.283 700.45 130.32 700.45 Q135.691 700.45 138.885 703.135 Q142.08 705.821 142.08 710.311 Q142.08 712.441 141.269 714.362 Q140.482 716.26 138.376 718.853 Q137.797 719.524 134.695 722.742 Q131.594 725.936 125.945 731.7 Z" fill="#000000" fill-rule="nonzero" fill-opacity="1" /><path clip-path="url(#clip740)" d="M152.08 729.756 L156.964 729.756 L156.964 735.635 L152.08 735.635 L152.08 729.756 Z" fill="#000000" fill-rule="nonzero" fill-opacity="1" /><path clip-path="url(#clip740)" d="M167.195 701.075 L185.552 701.075 L185.552 705.01 L171.478 705.01 L171.478 713.483 Q172.496 713.135 173.515 712.973 Q174.533 712.788 175.552 712.788 Q181.339 712.788 184.718 715.959 Q188.098 719.131 188.098 724.547 Q188.098 730.126 184.626 733.228 Q181.153 736.307 174.834 736.307 Q172.658 736.307 170.39 735.936 Q168.144 735.566 165.737 734.825 L165.737 730.126 Q167.82 731.26 170.042 731.816 Q172.265 732.371 174.741 732.371 Q178.746 732.371 181.084 730.265 Q183.422 728.158 183.422 724.547 Q183.422 720.936 181.084 718.83 Q178.746 716.723 174.741 716.723 Q172.866 716.723 170.991 717.14 Q169.14 717.557 167.195 718.436 L167.195 701.075 Z" fill="#000000" fill-rule="nonzero" fill-opacity="1" /><path clip-path="url(#clip740)" d="M50.9921 476.353 L80.6679 476.353 L80.6679 480.288 L50.9921 480.288 L50.9921 476.353 Z" fill="#000000" fill-rule="nonzero" fill-opacity="1" /><path clip-path="url(#clip740)" d="M104.927 474.548 Q108.283 475.265 110.158 477.534 Q112.057 479.802 112.057 483.136 Q112.057 488.251 108.538 491.052 Q105.02 493.853 98.5382 493.853 Q96.3623 493.853 94.0475 493.413 Q91.7558 492.997 89.3021 492.14 L89.3021 487.626 Q91.2465 488.761 93.5613 489.339 Q95.8761 489.918 98.3993 489.918 Q102.797 489.918 105.089 488.182 Q107.404 486.446 107.404 483.136 Q107.404 480.08 105.251 478.367 Q103.121 476.631 99.3021 476.631 L95.2743 476.631 L95.2743 472.788 L99.4872 472.788 Q102.936 472.788 104.765 471.423 Q106.594 470.034 106.594 467.441 Q106.594 464.779 104.696 463.367 Q102.821 461.932 99.3021 461.932 Q97.3808 461.932 95.1817 462.349 Q92.9826 462.765 90.3438 463.645 L90.3438 459.478 Q93.0058 458.738 95.3206 458.367 Q97.6585 457.997 99.7187 457.997 Q105.043 457.997 108.145 460.427 Q111.246 462.835 111.246 466.955 Q111.246 469.825 109.603 471.816 Q107.959 473.784 104.927 474.548 Z" fill="#000000" fill-rule="nonzero" fill-opacity="1" /><path clip-path="url(#clip740)" d="M130.922 461.701 Q127.311 461.701 125.482 465.265 Q123.677 468.807 123.677 475.937 Q123.677 483.043 125.482 486.608 Q127.311 490.149 130.922 490.149 Q134.556 490.149 136.362 486.608 Q138.191 483.043 138.191 475.937 Q138.191 468.807 136.362 465.265 Q134.556 461.701 130.922 461.701 M130.922 457.997 Q136.732 457.997 139.788 462.603 Q142.867 467.187 142.867 475.937 Q142.867 484.663 139.788 489.27 Q136.732 493.853 130.922 493.853 Q125.112 493.853 122.033 489.27 Q118.978 484.663 118.978 475.937 Q118.978 467.187 122.033 462.603 Q125.112 457.997 130.922 457.997 Z" fill="#000000" fill-rule="nonzero" fill-opacity="1" /><path clip-path="url(#clip740)" d="M151.084 487.302 L155.968 487.302 L155.968 493.182 L151.084 493.182 L151.084 487.302 Z" fill="#000000" fill-rule="nonzero" fill-opacity="1" /><path clip-path="url(#clip740)" d="M176.153 461.701 Q172.542 461.701 170.714 465.265 Q168.908 468.807 168.908 475.937 Q168.908 483.043 170.714 486.608 Q172.542 490.149 176.153 490.149 Q179.788 490.149 181.593 486.608 Q183.422 483.043 183.422 475.937 Q183.422 468.807 181.593 465.265 Q179.788 461.701 176.153 461.701 M176.153 457.997 Q181.964 457.997 185.019 462.603 Q188.098 467.187 188.098 475.937 Q188.098 484.663 185.019 489.27 Q181.964 493.853 176.153 493.853 Q170.343 493.853 167.265 489.27 Q164.209 484.663 164.209 475.937 Q164.209 467.187 167.265 462.603 Q170.343 457.997 176.153 457.997 Z" fill="#000000" fill-rule="nonzero" fill-opacity="1" /><path clip-path="url(#clip740)" d="M51.9875 233.9 L81.6633 233.9 L81.6633 237.835 L51.9875 237.835 L51.9875 233.9 Z" fill="#000000" fill-rule="nonzero" fill-opacity="1" /><path clip-path="url(#clip740)" d="M95.7836 246.793 L112.103 246.793 L112.103 250.728 L90.1586 250.728 L90.1586 246.793 Q92.8206 244.039 97.4039 239.409 Q102.01 234.756 103.191 233.414 Q105.436 230.891 106.316 229.154 Q107.219 227.395 107.219 225.705 Q107.219 222.951 105.274 221.215 Q103.353 219.479 100.251 219.479 Q98.0521 219.479 95.5984 220.242 Q93.1678 221.006 90.3901 222.557 L90.3901 217.835 Q93.2141 216.701 95.6678 216.122 Q98.1215 215.543 100.159 215.543 Q105.529 215.543 108.723 218.229 Q111.918 220.914 111.918 225.404 Q111.918 227.534 111.108 229.455 Q110.321 231.353 108.214 233.946 Q107.635 234.617 104.534 237.835 Q101.432 241.029 95.7836 246.793 Z" fill="#000000" fill-rule="nonzero" fill-opacity="1" /><path clip-path="url(#clip740)" d="M120.737 216.168 L142.959 216.168 L142.959 218.159 L130.413 250.728 L125.529 250.728 L137.334 220.104 L120.737 220.104 L120.737 216.168 Z" fill="#000000" fill-rule="nonzero" fill-opacity="1" /><path clip-path="url(#clip740)" d="M152.08 244.849 L156.964 244.849 L156.964 250.728 L152.08 250.728 L152.08 244.849 Z" fill="#000000" fill-rule="nonzero" fill-opacity="1" /><path clip-path="url(#clip740)" d="M167.195 216.168 L185.552 216.168 L185.552 220.104 L171.478 220.104 L171.478 228.576 Q172.496 228.228 173.515 228.066 Q174.533 227.881 175.552 227.881 Q181.339 227.881 184.718 231.053 Q188.098 234.224 188.098 239.64 Q188.098 245.219 184.626 248.321 Q181.153 251.4 174.834 251.4 Q172.658 251.4 170.39 251.029 Q168.144 250.659 165.737 249.918 L165.737 245.219 Q167.82 246.353 170.042 246.909 Q172.265 247.464 174.741 247.464 Q178.746 247.464 181.084 245.358 Q183.422 243.252 183.422 239.64 Q183.422 236.029 181.084 233.923 Q178.746 231.816 174.741 231.816 Q172.866 231.816 170.991 232.233 Q169.14 232.65 167.195 233.529 L167.195 216.168 Z" fill="#000000" fill-rule="nonzero" fill-opacity="1" /><circle clip-path="url(#clip742)" cx="284.343" cy="1348.73" r="14.4" fill="#07519c" fill-rule="evenodd" fill-opacity="1" stroke="#000000" stroke-opacity="1" stroke-width="3.2"/>
<circle clip-path="url(#clip742)" cx="336.323" cy="1048.09" r="14.4" fill="#07519c" fill-rule="evenodd" fill-opacity="1" stroke="#000000" stroke-opacity="1" stroke-width="3.2"/>
<circle clip-path="url(#clip742)" cx="388.33" cy="737.752" r="14.4" fill="#07519c" fill-rule="evenodd" fill-opacity="1" stroke="#000000" stroke-opacity="1" stroke-width="3.2"/>
<circle clip-path="url(#clip742)" cx="440.31" cy="631.072" r="14.4" fill="#07519c" fill-rule="evenodd" fill-opacity="1" stroke="#000000" stroke-opacity="1" stroke-width="3.2"/>
<circle clip-path="url(#clip742)" cx="492.317" cy="543.789" r="14.4" fill="#07519c" fill-rule="evenodd" fill-opacity="1" stroke="#000000" stroke-opacity="1" stroke-width="3.2"/>
<circle clip-path="url(#clip742)" cx="544.297" cy="485.6" r="14.4" fill="#07519c" fill-rule="evenodd" fill-opacity="1" stroke="#000000" stroke-opacity="1" stroke-width="3.2"/>
<circle clip-path="url(#clip742)" cx="596.276" cy="427.411" r="14.4" fill="#07519c" fill-rule="evenodd" fill-opacity="1" stroke="#000000" stroke-opacity="1" stroke-width="3.2"/>
<circle clip-path="url(#clip742)" cx="648.283" cy="378.92" r="14.4" fill="#07519c" fill-rule="evenodd" fill-opacity="1" stroke="#000000" stroke-opacity="1" stroke-width="3.2"/>
<circle clip-path="url(#clip742)" cx="700.263" cy="349.826" r="14.4" fill="#07519c" fill-rule="evenodd" fill-opacity="1" stroke="#000000" stroke-opacity="1" stroke-width="3.2"/>
<circle clip-path="url(#clip742)" cx="752.27" cy="320.732" r="14.4" fill="#07519c" fill-rule="evenodd" fill-opacity="1" stroke="#000000" stroke-opacity="1" stroke-width="3.2"/>
<circle clip-path="url(#clip742)" cx="804.25" cy="291.637" r="14.4" fill="#07519c" fill-rule="evenodd" fill-opacity="1" stroke="#000000" stroke-opacity="1" stroke-width="3.2"/>
<circle clip-path="url(#clip742)" cx="856.257" cy="272.241" r="14.4" fill="#07519c" fill-rule="evenodd" fill-opacity="1" stroke="#000000" stroke-opacity="1" stroke-width="3.2"/>
<circle clip-path="url(#clip742)" cx="908.237" cy="243.146" r="14.4" fill="#07519c" fill-rule="evenodd" fill-opacity="1" stroke="#000000" stroke-opacity="1" stroke-width="3.2"/>
<circle clip-path="url(#clip742)" cx="960.244" cy="233.448" r="14.4" fill="#07519c" fill-rule="evenodd" fill-opacity="1" stroke="#000000" stroke-opacity="1" stroke-width="3.2"/>
<circle clip-path="url(#clip742)" cx="1012.22" cy="223.75" r="14.4" fill="#07519c" fill-rule="evenodd" fill-opacity="1" stroke="#000000" stroke-opacity="1" stroke-width="3.2"/>
<circle clip-path="url(#clip742)" cx="1064.2" cy="214.052" r="14.4" fill="#07519c" fill-rule="evenodd" fill-opacity="1" stroke="#000000" stroke-opacity="1" stroke-width="3.2"/>
<circle clip-path="url(#clip742)" cx="1116.21" cy="194.656" r="14.4" fill="#07519c" fill-rule="evenodd" fill-opacity="1" stroke="#000000" stroke-opacity="1" stroke-width="3.2"/>
<circle clip-path="url(#clip742)" cx="1168.19" cy="184.958" r="14.4" fill="#07519c" fill-rule="evenodd" fill-opacity="1" stroke="#000000" stroke-opacity="1" stroke-width="3.2"/>
<circle clip-path="url(#clip742)" cx="1220.2" cy="175.26" r="14.4" fill="#07519c" fill-rule="evenodd" fill-opacity="1" stroke="#000000" stroke-opacity="1" stroke-width="3.2"/>
<circle clip-path="url(#clip742)" cx="1272.18" cy="165.561" r="14.4" fill="#07519c" fill-rule="evenodd" fill-opacity="1" stroke="#000000" stroke-opacity="1" stroke-width="3.2"/>
<circle clip-path="url(#clip742)" cx="1324.18" cy="155.863" r="14.4" fill="#07519c" fill-rule="evenodd" fill-opacity="1" stroke="#000000" stroke-opacity="1" stroke-width="3.2"/>
<circle clip-path="url(#clip742)" cx="1376.16" cy="155.863" r="14.4" fill="#07519c" fill-rule="evenodd" fill-opacity="1" stroke="#000000" stroke-opacity="1" stroke-width="3.2"/>
<circle clip-path="url(#clip742)" cx="1428.14" cy="146.165" r="14.4" fill="#07519c" fill-rule="evenodd" fill-opacity="1" stroke="#000000" stroke-opacity="1" stroke-width="3.2"/>
<circle clip-path="url(#clip742)" cx="1480.15" cy="146.165" r="14.4" fill="#07519c" fill-rule="evenodd" fill-opacity="1" stroke="#000000" stroke-opacity="1" stroke-width="3.2"/>
<circle clip-path="url(#clip742)" cx="1532.13" cy="136.467" r="14.4" fill="#07519c" fill-rule="evenodd" fill-opacity="1" stroke="#000000" stroke-opacity="1" stroke-width="3.2"/>
<path clip-path="url(#clip742)" d="M284.587 1429.72 L284.587 1461.72 L316.587 1461.72 L316.587 1429.72 L284.587 1429.72 Z" fill="#3082bc" fill-rule="evenodd" fill-opacity="1" stroke="#000000" stroke-opacity="1" stroke-width="3.2"/>
<path clip-path="url(#clip742)" d="M336.567 1070.88 L336.567 1102.88 L368.567 1102.88 L368.567 1070.88 L336.567 1070.88 Z" fill="#3082bc" fill-rule="evenodd" fill-opacity="1" stroke="#000000" stroke-opacity="1" stroke-width="3.2"/>
<path clip-path="url(#clip742)" d="M388.573 886.62 L388.573 918.62 L420.573 918.62 L420.573 886.62 L388.573 886.62 Z" fill="#3082bc" fill-rule="evenodd" fill-opacity="1" stroke="#000000" stroke-opacity="1" stroke-width="3.2"/>
<path clip-path="url(#clip742)" d="M440.553 799.337 L440.553 831.337 L472.553 831.337 L472.553 799.337 L440.553 799.337 Z" fill="#3082bc" fill-rule="evenodd" fill-opacity="1" stroke="#000000" stroke-opacity="1" stroke-width="3.2"/>
<path clip-path="url(#clip742)" d="M492.56 741.148 L492.56 773.148 L524.56 773.148 L524.56 741.148 L492.56 741.148 Z" fill="#3082bc" fill-rule="evenodd" fill-opacity="1" stroke="#000000" stroke-opacity="1" stroke-width="3.2"/>
<path clip-path="url(#clip742)" d="M544.54 682.959 L544.54 714.959 L576.54 714.959 L576.54 682.959 L544.54 682.959 Z" fill="#3082bc" fill-rule="evenodd" fill-opacity="1" stroke="#000000" stroke-opacity="1" stroke-width="3.2"/>
<path clip-path="url(#clip742)" d="M596.547 624.77 L596.547 656.77 L628.547 656.77 L628.547 624.77 L596.547 624.77 Z" fill="#3082bc" fill-rule="evenodd" fill-opacity="1" stroke="#000000" stroke-opacity="1" stroke-width="3.2"/>
<path clip-path="url(#clip742)" d="M648.527 585.978 L648.527 617.978 L680.527 617.978 L680.527 585.978 L648.527 585.978 Z" fill="#3082bc" fill-rule="evenodd" fill-opacity="1" stroke="#000000" stroke-opacity="1" stroke-width="3.2"/>
<path clip-path="url(#clip742)" d="M700.534 547.185 L700.534 579.185 L732.534 579.185 L732.534 547.185 L700.534 547.185 Z" fill="#3082bc" fill-rule="evenodd" fill-opacity="1" stroke="#000000" stroke-opacity="1" stroke-width="3.2"/>
<path clip-path="url(#clip742)" d="M752.514 508.393 L752.514 540.393 L784.514 540.393 L784.514 508.393 L752.514 508.393 Z" fill="#3082bc" fill-rule="evenodd" fill-opacity="1" stroke="#000000" stroke-opacity="1" stroke-width="3.2"/>
<path clip-path="url(#clip742)" d="M804.494 479.298 L804.494 511.298 L836.494 511.298 L836.494 479.298 L804.494 479.298 Z" fill="#3082bc" fill-rule="evenodd" fill-opacity="1" stroke="#000000" stroke-opacity="1" stroke-width="3.2"/>
<path clip-path="url(#clip742)" d="M856.501 450.204 L856.501 482.204 L888.501 482.204 L888.501 450.204 L856.501 450.204 Z" fill="#3082bc" fill-rule="evenodd" fill-opacity="1" stroke="#000000" stroke-opacity="1" stroke-width="3.2"/>
<path clip-path="url(#clip742)" d="M908.481 430.807 L908.481 462.807 L940.481 462.807 L940.481 430.807 L908.481 430.807 Z" fill="#3082bc" fill-rule="evenodd" fill-opacity="1" stroke="#000000" stroke-opacity="1" stroke-width="3.2"/>
<path clip-path="url(#clip742)" d="M960.488 401.713 L960.488 433.713 L992.488 433.713 L992.488 401.713 L960.488 401.713 Z" fill="#3082bc" fill-rule="evenodd" fill-opacity="1" stroke="#000000" stroke-opacity="1" stroke-width="3.2"/>
<path clip-path="url(#clip742)" d="M1012.47 392.015 L1012.47 424.015 L1044.47 424.015 L1044.47 392.015 L1012.47 392.015 Z" fill="#3082bc" fill-rule="evenodd" fill-opacity="1" stroke="#000000" stroke-opacity="1" stroke-width="3.2"/>
<path clip-path="url(#clip742)" d="M1064.47 372.619 L1064.47 404.619 L1096.47 404.619 L1096.47 372.619 L1064.47 372.619 Z" fill="#3082bc" fill-rule="evenodd" fill-opacity="1" stroke="#000000" stroke-opacity="1" stroke-width="3.2"/>
<path clip-path="url(#clip742)" d="M1116.45 353.222 L1116.45 385.222 L1148.45 385.222 L1148.45 353.222 L1116.45 353.222 Z" fill="#3082bc" fill-rule="evenodd" fill-opacity="1" stroke="#000000" stroke-opacity="1" stroke-width="3.2"/>
<path clip-path="url(#clip742)" d="M1168.43 343.524 L1168.43 375.524 L1200.43 375.524 L1200.43 343.524 L1168.43 343.524 Z" fill="#3082bc" fill-rule="evenodd" fill-opacity="1" stroke="#000000" stroke-opacity="1" stroke-width="3.2"/>
<path clip-path="url(#clip742)" d="M1220.44 324.128 L1220.44 356.128 L1252.44 356.128 L1252.44 324.128 L1220.44 324.128 Z" fill="#3082bc" fill-rule="evenodd" fill-opacity="1" stroke="#000000" stroke-opacity="1" stroke-width="3.2"/>
<path clip-path="url(#clip742)" d="M1272.42 314.43 L1272.42 346.43 L1304.42 346.43 L1304.42 314.43 L1272.42 314.43 Z" fill="#3082bc" fill-rule="evenodd" fill-opacity="1" stroke="#000000" stroke-opacity="1" stroke-width="3.2"/>
<path clip-path="url(#clip742)" d="M1324.43 304.732 L1324.43 336.732 L1356.43 336.732 L1356.43 304.732 L1324.43 304.732 Z" fill="#3082bc" fill-rule="evenodd" fill-opacity="1" stroke="#000000" stroke-opacity="1" stroke-width="3.2"/>
<path clip-path="url(#clip742)" d="M1376.41 295.033 L1376.41 327.033 L1408.41 327.033 L1408.41 295.033 L1376.41 295.033 Z" fill="#3082bc" fill-rule="evenodd" fill-opacity="1" stroke="#000000" stroke-opacity="1" stroke-width="3.2"/>
<path clip-path="url(#clip742)" d="M1428.42 285.335 L1428.42 317.335 L1460.42 317.335 L1460.42 285.335 L1428.42 285.335 Z" fill="#3082bc" fill-rule="evenodd" fill-opacity="1" stroke="#000000" stroke-opacity="1" stroke-width="3.2"/>
<path clip-path="url(#clip742)" d="M1480.39 275.637 L1480.39 307.637 L1512.39 307.637 L1512.39 275.637 L1480.39 275.637 Z" fill="#3082bc" fill-rule="evenodd" fill-opacity="1" stroke="#000000" stroke-opacity="1" stroke-width="3.2"/>
<path clip-path="url(#clip742)" d="M1532.4 265.939 L1532.4 297.939 L1564.4 297.939 L1564.4 265.939 L1532.4 265.939 Z" fill="#3082bc" fill-rule="evenodd" fill-opacity="1" stroke="#000000" stroke-opacity="1" stroke-width="3.2"/>
<path clip-path="url(#clip742)" d="M316.83 1245.45 L300.83 1261.45 L316.83 1277.45 L332.83 1261.45 L316.83 1245.45 Z" fill="#6badd5" fill-rule="evenodd" fill-opacity="1" stroke="#000000" stroke-opacity="1" stroke-width="3.2"/>
<path clip-path="url(#clip742)" d="M368.81 760.544 L352.81 776.544 L368.81 792.544 L384.81 776.544 L368.81 760.544 Z" fill="#6badd5" fill-rule="evenodd" fill-opacity="1" stroke="#000000" stroke-opacity="1" stroke-width="3.2"/>
<path clip-path="url(#clip742)" d="M420.817 653.865 L404.817 669.865 L420.817 685.865 L436.817 669.865 L420.817 653.865 Z" fill="#6badd5" fill-rule="evenodd" fill-opacity="1" stroke="#000000" stroke-opacity="1" stroke-width="3.2"/>
<path clip-path="url(#clip742)" d="M472.797 576.279 L456.797 592.279 L472.797 608.279 L488.797 592.279 L472.797 576.279 Z" fill="#6badd5" fill-rule="evenodd" fill-opacity="1" stroke="#000000" stroke-opacity="1" stroke-width="3.2"/>
<path clip-path="url(#clip742)" d="M524.804 518.091 L508.804 534.091 L524.804 550.091 L540.804 534.091 L524.804 518.091 Z" fill="#6badd5" fill-rule="evenodd" fill-opacity="1" stroke="#000000" stroke-opacity="1" stroke-width="3.2"/>
<path clip-path="url(#clip742)" d="M576.784 479.298 L560.784 495.298 L576.784 511.298 L592.784 495.298 L576.784 479.298 Z" fill="#6badd5" fill-rule="evenodd" fill-opacity="1" stroke="#000000" stroke-opacity="1" stroke-width="3.2"/>
<path clip-path="url(#clip742)" d="M628.791 421.109 L612.791 437.109 L628.791 453.109 L644.791 437.109 L628.791 421.109 Z" fill="#6badd5" fill-rule="evenodd" fill-opacity="1" stroke="#000000" stroke-opacity="1" stroke-width="3.2"/>
<path clip-path="url(#clip742)" d="M680.771 382.317 L664.771 398.317 L680.771 414.317 L696.771 398.317 L680.771 382.317 Z" fill="#6badd5" fill-rule="evenodd" fill-opacity="1" stroke="#000000" stroke-opacity="1" stroke-width="3.2"/>
<path clip-path="url(#clip742)" d="M732.778 353.222 L716.778 369.222 L732.778 385.222 L748.778 369.222 L732.778 353.222 Z" fill="#6badd5" fill-rule="evenodd" fill-opacity="1" stroke="#000000" stroke-opacity="1" stroke-width="3.2"/>
<path clip-path="url(#clip742)" d="M784.758 324.128 L768.758 340.128 L784.758 356.128 L800.758 340.128 L784.758 324.128 Z" fill="#6badd5" fill-rule="evenodd" fill-opacity="1" stroke="#000000" stroke-opacity="1" stroke-width="3.2"/>
<path clip-path="url(#clip742)" d="M836.765 304.732 L820.765 320.732 L836.765 336.732 L852.765 320.732 L836.765 304.732 Z" fill="#6badd5" fill-rule="evenodd" fill-opacity="1" stroke="#000000" stroke-opacity="1" stroke-width="3.2"/>
<path clip-path="url(#clip742)" d="M888.745 285.335 L872.745 301.335 L888.745 317.335 L904.745 301.335 L888.745 285.335 Z" fill="#6badd5" fill-rule="evenodd" fill-opacity="1" stroke="#000000" stroke-opacity="1" stroke-width="3.2"/>
<path clip-path="url(#clip742)" d="M940.724 265.939 L924.724 281.939 L940.724 297.939 L956.724 281.939 L940.724 265.939 Z" fill="#6badd5" fill-rule="evenodd" fill-opacity="1" stroke="#000000" stroke-opacity="1" stroke-width="3.2"/>
<path clip-path="url(#clip742)" d="M992.731 246.543 L976.731 262.543 L992.731 278.543 L1008.73 262.543 L992.731 246.543 Z" fill="#6badd5" fill-rule="evenodd" fill-opacity="1" stroke="#000000" stroke-opacity="1" stroke-width="3.2"/>
<path clip-path="url(#clip742)" d="M1044.71 236.845 L1028.71 252.845 L1044.71 268.845 L1060.71 252.845 L1044.71 236.845 Z" fill="#6badd5" fill-rule="evenodd" fill-opacity="1" stroke="#000000" stroke-opacity="1" stroke-width="3.2"/>
<path clip-path="url(#clip742)" d="M1096.72 227.146 L1080.72 243.146 L1096.72 259.146 L1112.72 243.146 L1096.72 227.146 Z" fill="#6badd5" fill-rule="evenodd" fill-opacity="1" stroke="#000000" stroke-opacity="1" stroke-width="3.2"/>
<path clip-path="url(#clip742)" d="M1148.7 207.75 L1132.7 223.75 L1148.7 239.75 L1164.7 223.75 L1148.7 207.75 Z" fill="#6badd5" fill-rule="evenodd" fill-opacity="1" stroke="#000000" stroke-opacity="1" stroke-width="3.2"/>
<path clip-path="url(#clip742)" d="M1200.68 188.354 L1184.68 204.354 L1200.68 220.354 L1216.68 204.354 L1200.68 188.354 Z" fill="#6badd5" fill-rule="evenodd" fill-opacity="1" stroke="#000000" stroke-opacity="1" stroke-width="3.2"/>
<path clip-path="url(#clip742)" d="M1252.69 188.354 L1236.69 204.354 L1252.69 220.354 L1268.69 204.354 L1252.69 188.354 Z" fill="#6badd5" fill-rule="evenodd" fill-opacity="1" stroke="#000000" stroke-opacity="1" stroke-width="3.2"/>
<path clip-path="url(#clip742)" d="M1304.66 188.354 L1288.66 204.354 L1304.66 220.354 L1320.66 204.354 L1304.66 188.354 Z" fill="#6badd5" fill-rule="evenodd" fill-opacity="1" stroke="#000000" stroke-opacity="1" stroke-width="3.2"/>
<path clip-path="url(#clip742)" d="M1356.67 168.958 L1340.67 184.958 L1356.67 200.958 L1372.67 184.958 L1356.67 168.958 Z" fill="#6badd5" fill-rule="evenodd" fill-opacity="1" stroke="#000000" stroke-opacity="1" stroke-width="3.2"/>
<path clip-path="url(#clip742)" d="M1408.65 159.26 L1392.65 175.26 L1408.65 191.26 L1424.65 175.26 L1408.65 159.26 Z" fill="#6badd5" fill-rule="evenodd" fill-opacity="1" stroke="#000000" stroke-opacity="1" stroke-width="3.2"/>
<path clip-path="url(#clip742)" d="M1460.66 159.26 L1444.66 175.26 L1460.66 191.26 L1476.66 175.26 L1460.66 159.26 Z" fill="#6badd5" fill-rule="evenodd" fill-opacity="1" stroke="#000000" stroke-opacity="1" stroke-width="3.2"/>
<path clip-path="url(#clip742)" d="M1512.64 149.561 L1496.64 165.561 L1512.64 181.561 L1528.64 165.561 L1512.64 149.561 Z" fill="#6badd5" fill-rule="evenodd" fill-opacity="1" stroke="#000000" stroke-opacity="1" stroke-width="3.2"/>
<path clip-path="url(#clip742)" d="M1564.65 139.863 L1548.65 155.863 L1564.65 171.863 L1580.65 155.863 L1564.65 139.863 Z" fill="#6badd5" fill-rule="evenodd" fill-opacity="1" stroke="#000000" stroke-opacity="1" stroke-width="3.2"/>
<path clip-path="url(#clip742)" d="M1616.63 130.165 L1600.63 146.165 L1616.63 162.165 L1632.63 146.165 L1616.63 130.165 Z" fill="#6badd5" fill-rule="evenodd" fill-opacity="1" stroke="#000000" stroke-opacity="1" stroke-width="3.2"/>
<path clip-path="url(#clip742)" d="M1668.63 120.467 L1652.63 136.467 L1668.63 152.467 L1684.63 136.467 L1668.63 120.467 Z" fill="#6badd5" fill-rule="evenodd" fill-opacity="1" stroke="#000000" stroke-opacity="1" stroke-width="3.2"/>
<path clip-path="url(#clip742)" d="M1720.61 110.769 L1704.61 126.769 L1720.61 142.769 L1736.61 126.769 L1720.61 110.769 Z" fill="#6badd5" fill-rule="evenodd" fill-opacity="1" stroke="#000000" stroke-opacity="1" stroke-width="3.2"/>
<path clip-path="url(#clip742)" d="M1772.59 101.071 L1756.59 117.071 L1772.59 133.071 L1788.59 117.071 L1772.59 101.071 Z" fill="#6badd5" fill-rule="evenodd" fill-opacity="1" stroke="#000000" stroke-opacity="1" stroke-width="3.2"/>
<path clip-path="url(#clip742)" d="M1824.6 71.9763 L1808.6 87.9763 L1824.6 103.976 L1840.6 87.9763 L1824.6 71.9763 Z" fill="#6badd5" fill-rule="evenodd" fill-opacity="1" stroke="#000000" stroke-opacity="1" stroke-width="3.2"/>
<path clip-path="url(#clip742)" d="M2103 2925.65 L2103 -1391.96 L2292.51 -1391.96 L2292.51 2925.65 L2103 2925.65  Z" fill="#808080" fill-rule="evenodd" fill-opacity="0.3"/>
<polyline clip-path="url(#clip742)" style="stroke:#000000; stroke-linecap:round; stroke-linejoin:round; stroke-width:4; stroke-opacity:0.3; fill:none" points="2103,2925.65 2103,-1391.96 2292.51,-1391.96 2292.51,2925.65 2103,2925.65 "/>
<path clip-path="url(#clip740)" d="M1872.43 1438.47 L2281.8 1438.47 L2281.8 1231.11 L1872.43 1231.11  Z" fill="#ffffff" fill-rule="evenodd" fill-opacity="1"/>
<polyline clip-path="url(#clip740)" style="stroke:#000000; stroke-linecap:round; stroke-linejoin:round; stroke-width:4; stroke-opacity:1; fill:none" points="1872.43,1438.47 2281.8,1438.47 2281.8,1231.11 1872.43,1231.11 1872.43,1438.47 "/>
<circle clip-path="url(#clip740)" cx="1967.03" cy="1282.95" r="20.48" fill="#07519c" fill-rule="evenodd" fill-opacity="1" stroke="#000000" stroke-opacity="1" stroke-width="4.55111"/>
<path clip-path="url(#clip740)" d="M2094.27 1260.04 Q2094.27 1260.49 2094.17 1260.86 L2092.86 1269.2 Q2092.79 1269.84 2092.65 1270.07 Q2092.53 1270.3 2092.16 1270.3 Q2091.57 1270.3 2091.57 1269.69 Q2091.57 1269.34 2091.71 1268.78 Q2092.11 1266.13 2092.11 1264.94 Q2092.11 1264.14 2091.95 1263.56 Q2091.81 1262.95 2091.57 1262.53 Q2091.36 1262.11 2090.87 1261.82 Q2090.38 1261.54 2089.91 1261.38 Q2089.44 1261.22 2088.6 1261.15 Q2087.76 1261.05 2087.03 1261.03 Q2086.3 1261.01 2085.11 1261.01 Q2082.51 1261.01 2082.09 1261.1 Q2081.64 1261.22 2081.41 1261.57 Q2081.2 1261.9 2080.96 1262.88 L2074.59 1288.34 L2074.4 1289.35 Q2074.4 1289.91 2074.76 1290.1 Q2075.11 1290.28 2076.18 1290.4 Q2077.73 1290.52 2079.25 1290.52 Q2079.3 1290.52 2079.39 1290.52 Q2079.91 1290.52 2080.12 1290.54 Q2080.33 1290.54 2080.54 1290.59 Q2080.75 1290.63 2080.8 1290.75 Q2080.87 1290.85 2080.87 1291.03 Q2080.87 1291.48 2080.68 1291.71 Q2080.49 1291.92 2080.31 1291.97 Q2080.14 1291.99 2079.82 1291.99 Q2079.16 1291.99 2077.75 1291.95 Q2076.35 1291.9 2075.65 1291.9 L2071.66 1291.85 L2067.59 1291.9 Q2066.96 1291.9 2065.62 1291.95 Q2064.29 1291.99 2063.65 1291.99 Q2062.83 1291.99 2062.83 1291.41 Q2062.83 1290.75 2063.14 1290.63 Q2063.47 1290.52 2064.85 1290.52 Q2066.79 1290.52 2067.85 1290.42 Q2068.9 1290.33 2069.46 1290 Q2070.05 1289.67 2070.21 1289.35 Q2070.38 1288.99 2070.56 1288.2 L2077 1262.6 Q2077.19 1262.04 2077.19 1261.59 Q2077.19 1261.36 2077.12 1261.26 Q2077.07 1261.17 2076.77 1261.1 Q2076.47 1261.01 2075.83 1261.01 L2073.96 1261.01 Q2072.04 1261.01 2070.84 1261.1 Q2069.67 1261.17 2068.55 1261.52 Q2067.45 1261.87 2066.79 1262.36 Q2066.16 1262.86 2065.46 1263.86 Q2064.75 1264.87 2064.24 1266.09 Q2063.75 1267.31 2063.04 1269.3 Q2062.81 1269.95 2062.67 1270.14 Q2062.55 1270.3 2062.22 1270.3 Q2061.99 1270.3 2061.8 1270.16 Q2061.64 1270 2061.64 1269.79 Q2061.87 1269.02 2061.92 1268.92 L2064.8 1260.47 Q2065.04 1259.79 2065.25 1259.67 Q2065.48 1259.53 2066.35 1259.53 L2092.96 1259.53 Q2093.38 1259.53 2093.52 1259.53 Q2093.66 1259.53 2093.89 1259.58 Q2094.13 1259.62 2094.2 1259.74 Q2094.27 1259.86 2094.27 1260.04 Z" fill="#000000" fill-rule="nonzero" fill-opacity="1" /><path clip-path="url(#clip740)" d="M2099.06 1292.63 L2099.06 1291.58 L2101.7 1291.58 L2101.7 1287.73 Q2101.7 1285.23 2103.3 1283.81 Q2104.93 1282.38 2106.91 1282.38 Q2108.22 1282.38 2109.07 1283.09 Q2109.93 1283.79 2109.93 1284.74 Q2109.93 1285.38 2109.53 1285.81 Q2109.16 1286.22 2108.45 1286.22 Q2107.78 1286.22 2107.39 1285.79 Q2107.01 1285.37 2107.01 1284.77 Q2107.01 1283.69 2108.01 1283.36 Q2107.5 1283.14 2106.91 1283.12 Q2105.7 1283.12 2104.75 1284.36 Q2103.81 1285.61 2103.81 1287.69 L2103.81 1291.58 L2107.75 1291.58 L2107.75 1292.63 L2103.93 1292.63 L2103.93 1303.43 Q2103.93 1304.4 2104.32 1304.71 Q2104.73 1305.02 2106.47 1305.02 L2107.17 1305.02 L2107.17 1306.06 Q2105.83 1305.96 2102.91 1305.96 Q2102.5 1305.96 2101.86 1305.97 Q2101.24 1305.99 2100.38 1306.02 Q2099.55 1306.06 2099.09 1306.06 L2099.09 1305.02 Q2100.88 1305.02 2101.29 1304.81 Q2101.7 1304.58 2101.7 1303.5 L2101.7 1292.63 L2099.06 1292.63 Z" fill="#000000" fill-rule="nonzero" fill-opacity="1" /><path clip-path="url(#clip740)" d="M2113.49 1286.89 L2113.49 1285.84 Q2117.52 1285.84 2119.6 1283.69 Q2120.18 1283.69 2120.28 1283.82 Q2120.37 1283.96 2120.37 1284.56 L2120.37 1303.4 Q2120.37 1304.4 2120.87 1304.71 Q2121.36 1305.02 2123.51 1305.02 L2124.57 1305.02 L2124.57 1306.06 Q2123.39 1305.96 2119.13 1305.96 Q2114.87 1305.96 2113.7 1306.06 L2113.7 1305.02 L2114.77 1305.02 Q2116.88 1305.02 2117.39 1304.73 Q2117.9 1304.42 2117.9 1303.4 L2117.9 1286 Q2116.14 1286.89 2113.49 1286.89 Z" fill="#000000" fill-rule="nonzero" fill-opacity="1" /><path clip-path="url(#clip740)" d="M2137.13 1286.11 L2142.02 1286.11 L2142.02 1290.09 L2138.22 1297.5 L2135.23 1297.5 L2137.13 1290.09 L2137.13 1286.11 Z" fill="#000000" fill-rule="nonzero" fill-opacity="1" /><path clip-path="url(#clip740)" d="M2188.36 1277.97 L2188.36 1280.05 L2168.77 1280.05 Q2169.05 1284.45 2171.41 1286.76 Q2173.8 1289.05 2178.03 1289.05 Q2180.49 1289.05 2182.78 1288.45 Q2185.09 1287.85 2187.36 1286.65 L2187.36 1290.67 Q2185.07 1291.65 2182.66 1292.16 Q2180.26 1292.66 2177.78 1292.66 Q2171.58 1292.66 2167.94 1289.05 Q2164.33 1285.44 2164.33 1279.28 Q2164.33 1272.92 2167.76 1269.19 Q2171.2 1265.44 2177.04 1265.44 Q2182.27 1265.44 2185.3 1268.82 Q2188.36 1272.18 2188.36 1277.97 M2184.1 1276.72 Q2184.05 1273.22 2182.13 1271.14 Q2180.23 1269.05 2177.08 1269.05 Q2173.52 1269.05 2171.37 1271.07 Q2169.24 1273.08 2168.91 1276.74 L2184.1 1276.72 Z" fill="#000000" fill-rule="nonzero" fill-opacity="1" /><path clip-path="url(#clip740)" d="M2216.07 1266.07 L2206.69 1278.68 L2216.55 1291.99 L2211.53 1291.99 L2203.98 1281.81 L2196.44 1291.99 L2191.41 1291.99 L2201.48 1278.43 L2192.27 1266.07 L2197.29 1266.07 L2204.17 1275.3 L2211.04 1266.07 L2216.07 1266.07 Z" fill="#000000" fill-rule="nonzero" fill-opacity="1" /><path clip-path="url(#clip740)" d="M2226.69 1288.1 L2226.69 1301.85 L2222.41 1301.85 L2222.41 1266.07 L2226.69 1266.07 L2226.69 1270 Q2228.03 1267.69 2230.07 1266.58 Q2232.13 1265.44 2234.98 1265.44 Q2239.7 1265.44 2242.64 1269.19 Q2245.6 1272.94 2245.6 1279.05 Q2245.6 1285.16 2242.64 1288.91 Q2239.7 1292.66 2234.98 1292.66 Q2232.13 1292.66 2230.07 1291.55 Q2228.03 1290.42 2226.69 1288.1 M2241.18 1279.05 Q2241.18 1274.35 2239.24 1271.69 Q2237.32 1269.01 2233.94 1269.01 Q2230.56 1269.01 2228.61 1271.69 Q2226.69 1274.35 2226.69 1279.05 Q2226.69 1283.75 2228.61 1286.44 Q2230.56 1289.1 2233.94 1289.1 Q2237.32 1289.1 2239.24 1286.44 Q2241.18 1283.75 2241.18 1279.05 Z" fill="#000000" fill-rule="nonzero" fill-opacity="1" /><path clip-path="url(#clip740)" d="M2253.26 1286.11 L2258.15 1286.11 L2258.15 1291.99 L2253.26 1291.99 L2253.26 1286.11 Z" fill="#000000" fill-rule="nonzero" fill-opacity="1" /><path clip-path="url(#clip740)" d="M1944.28 1312.04 L1944.28 1357.55 L1989.79 1357.55 L1989.79 1312.04 L1944.28 1312.04 Z" fill="#3082bc" fill-rule="evenodd" fill-opacity="1" stroke="#000000" stroke-opacity="1" stroke-width="4.55111"/>
<path clip-path="url(#clip740)" d="M2094.27 1311.88 Q2094.27 1312.33 2094.17 1312.7 L2092.86 1321.04 Q2092.79 1321.68 2092.65 1321.91 Q2092.53 1322.14 2092.16 1322.14 Q2091.57 1322.14 2091.57 1321.53 Q2091.57 1321.18 2091.71 1320.62 Q2092.11 1317.97 2092.11 1316.78 Q2092.11 1315.98 2091.95 1315.4 Q2091.81 1314.79 2091.57 1314.37 Q2091.36 1313.95 2090.87 1313.66 Q2090.38 1313.38 2089.91 1313.22 Q2089.44 1313.06 2088.6 1312.99 Q2087.76 1312.89 2087.03 1312.87 Q2086.3 1312.85 2085.11 1312.85 Q2082.51 1312.85 2082.09 1312.94 Q2081.64 1313.06 2081.41 1313.41 Q2081.2 1313.74 2080.96 1314.72 L2074.59 1340.18 L2074.4 1341.19 Q2074.4 1341.75 2074.76 1341.94 Q2075.11 1342.12 2076.18 1342.24 Q2077.73 1342.36 2079.25 1342.36 Q2079.3 1342.36 2079.39 1342.36 Q2079.91 1342.36 2080.12 1342.38 Q2080.33 1342.38 2080.54 1342.43 Q2080.75 1342.47 2080.8 1342.59 Q2080.87 1342.69 2080.87 1342.87 Q2080.87 1343.32 2080.68 1343.55 Q2080.49 1343.76 2080.31 1343.81 Q2080.14 1343.83 2079.82 1343.83 Q2079.16 1343.83 2077.75 1343.79 Q2076.35 1343.74 2075.65 1343.74 L2071.66 1343.69 L2067.59 1343.74 Q2066.96 1343.74 2065.62 1343.79 Q2064.29 1343.83 2063.65 1343.83 Q2062.83 1343.83 2062.83 1343.25 Q2062.83 1342.59 2063.14 1342.47 Q2063.47 1342.36 2064.85 1342.36 Q2066.79 1342.36 2067.85 1342.26 Q2068.9 1342.17 2069.46 1341.84 Q2070.05 1341.51 2070.21 1341.19 Q2070.38 1340.83 2070.56 1340.04 L2077 1314.44 Q2077.19 1313.88 2077.19 1313.43 Q2077.19 1313.2 2077.12 1313.1 Q2077.07 1313.01 2076.77 1312.94 Q2076.47 1312.85 2075.83 1312.85 L2073.96 1312.85 Q2072.04 1312.85 2070.84 1312.94 Q2069.67 1313.01 2068.55 1313.36 Q2067.45 1313.71 2066.79 1314.2 Q2066.16 1314.7 2065.46 1315.7 Q2064.75 1316.71 2064.24 1317.93 Q2063.75 1319.15 2063.04 1321.14 Q2062.81 1321.79 2062.67 1321.98 Q2062.55 1322.14 2062.22 1322.14 Q2061.99 1322.14 2061.8 1322 Q2061.64 1321.84 2061.64 1321.63 Q2061.87 1320.86 2061.92 1320.76 L2064.8 1312.31 Q2065.04 1311.63 2065.25 1311.51 Q2065.48 1311.37 2066.35 1311.37 L2092.96 1311.37 Q2093.38 1311.37 2093.52 1311.37 Q2093.66 1311.37 2093.89 1311.42 Q2094.13 1311.46 2094.2 1311.58 Q2094.27 1311.7 2094.27 1311.88 Z" fill="#000000" fill-rule="nonzero" fill-opacity="1" /><path clip-path="url(#clip740)" d="M2099.06 1344.47 L2099.06 1343.42 L2101.7 1343.42 L2101.7 1339.57 Q2101.7 1337.07 2103.3 1335.65 Q2104.93 1334.22 2106.91 1334.22 Q2108.22 1334.22 2109.07 1334.93 Q2109.93 1335.63 2109.93 1336.58 Q2109.93 1337.22 2109.53 1337.65 Q2109.16 1338.06 2108.45 1338.06 Q2107.78 1338.06 2107.39 1337.63 Q2107.01 1337.21 2107.01 1336.61 Q2107.01 1335.53 2108.01 1335.2 Q2107.5 1334.98 2106.91 1334.96 Q2105.7 1334.96 2104.75 1336.2 Q2103.81 1337.45 2103.81 1339.53 L2103.81 1343.42 L2107.75 1343.42 L2107.75 1344.47 L2103.93 1344.47 L2103.93 1355.27 Q2103.93 1356.24 2104.32 1356.55 Q2104.73 1356.86 2106.47 1356.86 L2107.17 1356.86 L2107.17 1357.9 Q2105.83 1357.8 2102.91 1357.8 Q2102.5 1357.8 2101.86 1357.81 Q2101.24 1357.83 2100.38 1357.86 Q2099.55 1357.9 2099.09 1357.9 L2099.09 1356.86 Q2100.88 1356.86 2101.29 1356.65 Q2101.7 1356.42 2101.7 1355.34 L2101.7 1344.47 L2099.06 1344.47 Z" fill="#000000" fill-rule="nonzero" fill-opacity="1" /><path clip-path="url(#clip740)" d="M2112.28 1357.9 Q2112.28 1357.29 2112.33 1357.11 Q2112.39 1356.93 2112.66 1356.65 L2119.1 1349.47 Q2122.62 1345.5 2122.62 1342.04 Q2122.62 1339.8 2121.44 1338.19 Q2120.28 1336.58 2118.13 1336.58 Q2116.66 1336.58 2115.41 1337.48 Q2114.16 1338.39 2113.59 1339.99 Q2113.69 1339.96 2114.03 1339.96 Q2114.87 1339.96 2115.33 1340.48 Q2115.8 1341.01 2115.8 1341.71 Q2115.8 1342.62 2115.21 1343.06 Q2114.64 1343.48 2114.07 1343.48 Q2113.84 1343.48 2113.52 1343.44 Q2113.23 1343.39 2112.75 1342.93 Q2112.28 1342.45 2112.28 1341.62 Q2112.28 1339.27 2114.05 1337.4 Q2115.84 1335.53 2118.56 1335.53 Q2121.64 1335.53 2123.66 1337.37 Q2125.69 1339.19 2125.69 1342.04 Q2125.69 1343.04 2125.38 1343.96 Q2125.08 1344.86 2124.67 1345.57 Q2124.28 1346.27 2123.2 1347.4 Q2122.12 1348.53 2121.25 1349.34 Q2120.38 1350.14 2118.43 1351.85 L2114.87 1355.31 L2120.92 1355.31 Q2123.87 1355.31 2124.1 1355.04 Q2124.43 1354.57 2124.84 1352.06 L2125.69 1352.06 L2124.74 1357.9 L2112.28 1357.9 Z" fill="#000000" fill-rule="nonzero" fill-opacity="1" /><path clip-path="url(#clip740)" d="M2135.92 1337.95 L2140.81 1337.95 L2140.81 1341.93 L2137.01 1349.34 L2134.02 1349.34 L2135.92 1341.93 L2135.92 1337.95 Z" fill="#000000" fill-rule="nonzero" fill-opacity="1" /><path clip-path="url(#clip740)" d="M2187.15 1329.81 L2187.15 1331.89 L2167.56 1331.89 Q2167.84 1336.29 2170.2 1338.6 Q2172.59 1340.89 2176.82 1340.89 Q2179.28 1340.89 2181.57 1340.29 Q2183.88 1339.69 2186.15 1338.49 L2186.15 1342.51 Q2183.86 1343.49 2181.45 1344 Q2179.05 1344.5 2176.57 1344.5 Q2170.37 1344.5 2166.73 1340.89 Q2163.12 1337.28 2163.12 1331.12 Q2163.12 1324.76 2166.55 1321.03 Q2170 1317.28 2175.83 1317.28 Q2181.06 1317.28 2184.09 1320.66 Q2187.15 1324.02 2187.15 1329.81 M2182.89 1328.56 Q2182.84 1325.06 2180.92 1322.98 Q2179.02 1320.89 2175.87 1320.89 Q2172.31 1320.89 2170.16 1322.91 Q2168.03 1324.92 2167.7 1328.58 L2182.89 1328.56 Z" fill="#000000" fill-rule="nonzero" fill-opacity="1" /><path clip-path="url(#clip740)" d="M2214.86 1317.91 L2205.48 1330.52 L2215.34 1343.83 L2210.32 1343.83 L2202.77 1333.65 L2195.23 1343.83 L2190.2 1343.83 L2200.27 1330.27 L2191.06 1317.91 L2196.08 1317.91 L2202.96 1327.14 L2209.83 1317.91 L2214.86 1317.91 Z" fill="#000000" fill-rule="nonzero" fill-opacity="1" /><path clip-path="url(#clip740)" d="M2225.48 1339.94 L2225.48 1353.69 L2221.2 1353.69 L2221.2 1317.91 L2225.48 1317.91 L2225.48 1321.84 Q2226.82 1319.53 2228.86 1318.42 Q2230.92 1317.28 2233.77 1317.28 Q2238.49 1317.28 2241.43 1321.03 Q2244.39 1324.78 2244.39 1330.89 Q2244.39 1337 2241.43 1340.75 Q2238.49 1344.5 2233.77 1344.5 Q2230.92 1344.5 2228.86 1343.39 Q2226.82 1342.26 2225.48 1339.94 M2239.97 1330.89 Q2239.97 1326.19 2238.03 1323.53 Q2236.11 1320.85 2232.73 1320.85 Q2229.35 1320.85 2227.4 1323.53 Q2225.48 1326.19 2225.48 1330.89 Q2225.48 1335.59 2227.4 1338.28 Q2229.35 1340.94 2232.73 1340.94 Q2236.11 1340.94 2238.03 1338.28 Q2239.97 1335.59 2239.97 1330.89 Z" fill="#000000" fill-rule="nonzero" fill-opacity="1" /><path clip-path="url(#clip740)" d="M2252.06 1337.95 L2256.94 1337.95 L2256.94 1343.83 L2252.06 1343.83 L2252.06 1337.95 Z" fill="#000000" fill-rule="nonzero" fill-opacity="1" /><path clip-path="url(#clip740)" d="M1967.03 1363.88 L1944.28 1386.63 L1967.03 1409.39 L1989.79 1386.63 L1967.03 1363.88 Z" fill="#6badd5" fill-rule="evenodd" fill-opacity="1" stroke="#000000" stroke-opacity="1" stroke-width="4.55111"/>
<path clip-path="url(#clip740)" d="M2094.27 1363.36 Q2094.27 1363.8 2094.17 1364.18 L2092.86 1372.52 Q2092.79 1373.15 2092.65 1373.38 Q2092.53 1373.62 2092.16 1373.62 Q2091.57 1373.62 2091.57 1373.01 Q2091.57 1372.66 2091.71 1372.09 Q2092.11 1369.45 2092.11 1368.25 Q2092.11 1367.46 2091.95 1366.87 Q2091.81 1366.26 2091.57 1365.84 Q2091.36 1365.42 2090.87 1365.14 Q2090.38 1364.86 2089.91 1364.69 Q2089.44 1364.53 2088.6 1364.46 Q2087.76 1364.37 2087.03 1364.34 Q2086.3 1364.32 2085.11 1364.32 Q2082.51 1364.32 2082.09 1364.41 Q2081.64 1364.53 2081.41 1364.88 Q2081.2 1365.21 2080.96 1366.19 L2074.59 1391.65 L2074.4 1392.66 Q2074.4 1393.22 2074.76 1393.41 Q2075.11 1393.6 2076.18 1393.71 Q2077.73 1393.83 2079.25 1393.83 Q2079.3 1393.83 2079.39 1393.83 Q2079.91 1393.83 2080.12 1393.85 Q2080.33 1393.85 2080.54 1393.9 Q2080.75 1393.95 2080.8 1394.07 Q2080.87 1394.16 2080.87 1394.35 Q2080.87 1394.79 2080.68 1395.03 Q2080.49 1395.24 2080.31 1395.28 Q2080.14 1395.31 2079.82 1395.31 Q2079.16 1395.31 2077.75 1395.26 Q2076.35 1395.21 2075.65 1395.21 L2071.66 1395.17 L2067.59 1395.21 Q2066.96 1395.21 2065.62 1395.26 Q2064.29 1395.31 2063.65 1395.31 Q2062.83 1395.31 2062.83 1394.72 Q2062.83 1394.07 2063.14 1393.95 Q2063.47 1393.83 2064.85 1393.83 Q2066.79 1393.83 2067.85 1393.74 Q2068.9 1393.64 2069.46 1393.32 Q2070.05 1392.99 2070.21 1392.66 Q2070.38 1392.31 2070.56 1391.51 L2077 1365.91 Q2077.19 1365.35 2077.19 1364.9 Q2077.19 1364.67 2077.12 1364.58 Q2077.07 1364.48 2076.77 1364.41 Q2076.47 1364.32 2075.83 1364.32 L2073.96 1364.32 Q2072.04 1364.32 2070.84 1364.41 Q2069.67 1364.48 2068.55 1364.83 Q2067.45 1365.19 2066.79 1365.68 Q2066.16 1366.17 2065.46 1367.18 Q2064.75 1368.18 2064.24 1369.4 Q2063.75 1370.62 2063.04 1372.61 Q2062.81 1373.27 2062.67 1373.45 Q2062.55 1373.62 2062.22 1373.62 Q2061.99 1373.62 2061.8 1373.48 Q2061.64 1373.31 2061.64 1373.1 Q2061.87 1372.33 2061.92 1372.24 L2064.8 1363.78 Q2065.04 1363.1 2065.25 1362.98 Q2065.48 1362.84 2066.35 1362.84 L2092.96 1362.84 Q2093.38 1362.84 2093.52 1362.84 Q2093.66 1362.84 2093.89 1362.89 Q2094.13 1362.94 2094.2 1363.05 Q2094.27 1363.17 2094.27 1363.36 Z" fill="#000000" fill-rule="nonzero" fill-opacity="1" /><path clip-path="url(#clip740)" d="M2099.06 1395.94 L2099.06 1394.89 L2101.7 1394.89 L2101.7 1391.04 Q2101.7 1388.55 2103.3 1387.12 Q2104.93 1385.69 2106.91 1385.69 Q2108.22 1385.69 2109.07 1386.4 Q2109.93 1387.1 2109.93 1388.06 Q2109.93 1388.7 2109.53 1389.12 Q2109.16 1389.53 2108.45 1389.53 Q2107.78 1389.53 2107.39 1389.1 Q2107.01 1388.68 2107.01 1388.09 Q2107.01 1387.01 2108.01 1386.68 Q2107.5 1386.45 2106.91 1386.43 Q2105.7 1386.43 2104.75 1387.68 Q2103.81 1388.92 2103.81 1391.01 L2103.81 1394.89 L2107.75 1394.89 L2107.75 1395.94 L2103.93 1395.94 L2103.93 1406.75 Q2103.93 1407.71 2104.32 1408.03 Q2104.73 1408.34 2106.47 1408.34 L2107.17 1408.34 L2107.17 1409.37 Q2105.83 1409.27 2102.91 1409.27 Q2102.5 1409.27 2101.86 1409.29 Q2101.24 1409.3 2100.38 1409.34 Q2099.55 1409.37 2099.09 1409.37 L2099.09 1408.34 Q2100.88 1408.34 2101.29 1408.12 Q2101.7 1407.89 2101.7 1406.81 L2101.7 1395.94 L2099.06 1395.94 Z" fill="#000000" fill-rule="nonzero" fill-opacity="1" /><path clip-path="url(#clip740)" d="M2112.28 1404.84 Q2112.28 1403.84 2112.85 1403.37 Q2113.43 1402.89 2114.16 1402.89 Q2114.93 1402.89 2115.48 1403.4 Q2116.03 1403.89 2116.03 1404.76 Q2116.03 1405.7 2115.38 1406.22 Q2114.74 1406.75 2113.82 1406.62 Q2114.62 1407.96 2116.1 1408.57 Q2117.59 1409.17 2118.97 1409.17 Q2120.41 1409.17 2121.57 1407.93 Q2122.76 1406.68 2122.76 1403.63 Q2122.76 1401.04 2121.74 1399.55 Q2120.74 1398.06 2118.75 1398.06 L2117.28 1398.06 Q2116.77 1398.06 2116.62 1398.01 Q2116.48 1397.96 2116.48 1397.68 Q2116.48 1397.35 2116.98 1397.29 Q2117.49 1397.29 2118.3 1397.19 Q2120.25 1397.12 2121.28 1395.43 Q2122.21 1393.86 2122.21 1391.61 Q2122.21 1389.56 2121.23 1388.71 Q2120.26 1387.84 2119 1387.84 Q2117.82 1387.84 2116.52 1388.33 Q2115.23 1388.83 2114.52 1389.92 Q2116.61 1389.92 2116.61 1391.61 Q2116.61 1392.35 2116.13 1392.84 Q2115.67 1393.32 2114.9 1393.32 Q2114.16 1393.32 2113.67 1392.86 Q2113.18 1392.38 2113.18 1391.58 Q2113.18 1389.66 2114.89 1388.33 Q2116.61 1387.01 2119.13 1387.01 Q2121.62 1387.01 2123.46 1388.32 Q2125.31 1389.63 2125.31 1391.65 Q2125.31 1393.63 2124 1395.25 Q2122.69 1396.88 2120.61 1397.55 Q2123.17 1398.06 2124.69 1399.79 Q2126.21 1401.52 2126.21 1403.63 Q2126.21 1406.25 2124.15 1408.19 Q2122.08 1410.11 2119.07 1410.11 Q2116.28 1410.11 2114.28 1408.6 Q2112.28 1407.09 2112.28 1404.84 Z" fill="#000000" fill-rule="nonzero" fill-opacity="1" /><path clip-path="url(#clip740)" d="M2135.92 1389.43 L2140.81 1389.43 L2140.81 1393.41 L2137.01 1400.82 L2134.02 1400.82 L2135.92 1393.41 L2135.92 1389.43 Z" fill="#000000" fill-rule="nonzero" fill-opacity="1" /><path clip-path="url(#clip740)" d="M2187.15 1381.28 L2187.15 1383.36 L2167.56 1383.36 Q2167.84 1387.76 2170.2 1390.08 Q2172.59 1392.37 2176.82 1392.37 Q2179.28 1392.37 2181.57 1391.76 Q2183.88 1391.16 2186.15 1389.96 L2186.15 1393.99 Q2183.86 1394.96 2181.45 1395.47 Q2179.05 1395.98 2176.57 1395.98 Q2170.37 1395.98 2166.73 1392.37 Q2163.12 1388.76 2163.12 1382.6 Q2163.12 1376.23 2166.55 1372.51 Q2170 1368.76 2175.83 1368.76 Q2181.06 1368.76 2184.09 1372.14 Q2187.15 1375.49 2187.15 1381.28 M2182.89 1380.03 Q2182.84 1376.53 2180.92 1374.45 Q2179.02 1372.37 2175.87 1372.37 Q2172.31 1372.37 2170.16 1374.38 Q2168.03 1376.39 2167.7 1380.05 L2182.89 1380.03 Z" fill="#000000" fill-rule="nonzero" fill-opacity="1" /><path clip-path="url(#clip740)" d="M2214.86 1369.38 L2205.48 1382 L2215.34 1395.31 L2210.32 1395.31 L2202.77 1385.12 L2195.23 1395.31 L2190.2 1395.31 L2200.27 1381.74 L2191.06 1369.38 L2196.08 1369.38 L2202.96 1378.62 L2209.83 1369.38 L2214.86 1369.38 Z" fill="#000000" fill-rule="nonzero" fill-opacity="1" /><path clip-path="url(#clip740)" d="M2225.48 1391.42 L2225.48 1405.17 L2221.2 1405.17 L2221.2 1369.38 L2225.48 1369.38 L2225.48 1373.32 Q2226.82 1371 2228.86 1369.89 Q2230.92 1368.76 2233.77 1368.76 Q2238.49 1368.76 2241.43 1372.51 Q2244.39 1376.26 2244.39 1382.37 Q2244.39 1388.48 2241.43 1392.23 Q2238.49 1395.98 2233.77 1395.98 Q2230.92 1395.98 2228.86 1394.87 Q2226.82 1393.73 2225.48 1391.42 M2239.97 1382.37 Q2239.97 1377.67 2238.03 1375.01 Q2236.11 1372.32 2232.73 1372.32 Q2229.35 1372.32 2227.4 1375.01 Q2225.48 1377.67 2225.48 1382.37 Q2225.48 1387.07 2227.4 1389.75 Q2229.35 1392.41 2232.73 1392.41 Q2236.11 1392.41 2238.03 1389.75 Q2239.97 1387.07 2239.97 1382.37 Z" fill="#000000" fill-rule="nonzero" fill-opacity="1" /><path clip-path="url(#clip740)" d="M2252.06 1389.43 L2256.94 1389.43 L2256.94 1395.31 L2252.06 1395.31 L2252.06 1389.43 Z" fill="#000000" fill-rule="nonzero" fill-opacity="1" /></svg>
