<?xml version="1.0" encoding="utf-8"?>
<svg xmlns="http://www.w3.org/2000/svg" xmlns:xlink="http://www.w3.org/1999/xlink" width="600" height="400" viewBox="0 0 2400 1600">
<defs>
  <clipPath id="clip940">
    <rect x="0" y="0" width="2400" height="1600"/>
  </clipPath>
</defs>
<path clip-path="url(#clip940)" d="M0 1600 L2400 1600 L2400 0 L0 0  Z" fill="#ffffff" fill-rule="evenodd" fill-opacity="1"/>
<defs>
  <clipPath id="clip941">
    <rect x="480" y="0" width="1681" height="1600"/>
  </clipPath>
</defs>
<path clip-path="url(#clip940)" d="M224.098 1486.45 L2352.76 1486.45 L2352.76 47.2441 L224.098 47.2441  Z" fill="#ffffff" fill-rule="evenodd" fill-opacity="1"/>
<defs>
  <clipPath id="clip942">
    <rect x="224" y="47" width="2130" height="1440"/>
  </clipPath>
</defs>
<polyline clip-path="url(#clip942)" style="stroke:#000000; stroke-linecap:round; stroke-linejoin:round; stroke-width:2; stroke-opacity:0.1; fill:none" points="284.343,1486.45 284.343,47.2441 "/>
<polyline clip-path="url(#clip942)" style="stroke:#000000; stroke-linecap:round; stroke-linejoin:round; stroke-width:2; stroke-opacity:0.1; fill:none" points="779.264,1486.45 779.264,47.2441 "/>
<polyline clip-path="url(#clip942)" style="stroke:#000000; stroke-linecap:round; stroke-linejoin:round; stroke-width:2; stroke-opacity:0.1; fill:none" points="1274.18,1486.45 1274.18,47.2441 "/>
<polyline clip-path="url(#clip942)" style="stroke:#000000; stroke-linecap:round; stroke-linejoin:round; stroke-width:2; stroke-opacity:0.1; fill:none" points="1769.1,1486.45 1769.1,47.2441 "/>
<polyline clip-path="url(#clip942)" style="stroke:#000000; stroke-linecap:round; stroke-linejoin:round; stroke-width:2; stroke-opacity:0.1; fill:none" points="2264.03,1486.45 2264.03,47.2441 "/>
<polyline clip-path="url(#clip942)" style="stroke:#000000; stroke-linecap:round; stroke-linejoin:round; stroke-width:2; stroke-opacity:0.1; fill:none" points="224.098,1445.72 2352.76,1445.72 "/>
<polyline clip-path="url(#clip942)" style="stroke:#000000; stroke-linecap:round; stroke-linejoin:round; stroke-width:2; stroke-opacity:0.1; fill:none" points="224.098,1204.98 2352.76,1204.98 "/>
<polyline clip-path="url(#clip942)" style="stroke:#000000; stroke-linecap:round; stroke-linejoin:round; stroke-width:2; stroke-opacity:0.1; fill:none" points="224.098,964.248 2352.76,964.248 "/>
<polyline clip-path="url(#clip942)" style="stroke:#000000; stroke-linecap:round; stroke-linejoin:round; stroke-width:2; stroke-opacity:0.1; fill:none" points="224.098,723.514 2352.76,723.514 "/>
<polyline clip-path="url(#clip942)" style="stroke:#000000; stroke-linecap:round; stroke-linejoin:round; stroke-width:2; stroke-opacity:0.1; fill:none" points="224.098,482.78 2352.76,482.78 "/>
<polyline clip-path="url(#clip942)" style="stroke:#000000; stroke-linecap:round; stroke-linejoin:round; stroke-width:2; stroke-opacity:0.1; fill:none" points="224.098,242.046 2352.76,242.046 "/>
<polyline clip-path="url(#clip940)" style="stroke:#000000; stroke-linecap:round; stroke-linejoin:round; stroke-width:4; stroke-opacity:1; fill:none" points="224.098,1486.45 2352.76,1486.45 "/>
<polyline clip-path="url(#clip940)" style="stroke:#000000; stroke-linecap:round; stroke-linejoin:round; stroke-width:4; stroke-opacity:1; fill:none" points="284.343,1486.45 284.343,1467.55 "/>
<polyline clip-path="url(#clip940)" style="stroke:#000000; stroke-linecap:round; stroke-linejoin:round; stroke-width:4; stroke-opacity:1; fill:none" points="779.264,1486.45 779.264,1467.55 "/>
<polyline clip-path="url(#clip940)" style="stroke:#000000; stroke-linecap:round; stroke-linejoin:round; stroke-width:4; stroke-opacity:1; fill:none" points="1274.18,1486.45 1274.18,1467.55 "/>
<polyline clip-path="url(#clip940)" style="stroke:#000000; stroke-linecap:round; stroke-linejoin:round; stroke-width:4; stroke-opacity:1; fill:none" points="1769.1,1486.45 1769.1,1467.55 "/>
<polyline clip-path="url(#clip940)" style="stroke:#000000; stroke-linecap:round; stroke-linejoin:round; stroke-width:4; stroke-opacity:1; fill:none" points="2264.03,1486.45 2264.03,1467.55 "/>
<path clip-path="url(#clip940)" d="M284.343 1517.37 Q280.732 1517.37 278.903 1520.93 Q277.098 1524.47 277.098 1531.6 Q277.098 1538.71 278.903 1542.27 Q280.732 1545.82 284.343 1545.82 Q287.977 1545.82 289.783 1542.27 Q291.611 1538.71 291.611 1531.6 Q291.611 1524.47 289.783 1520.93 Q287.977 1517.37 284.343 1517.37 M284.343 1513.66 Q290.153 1513.66 293.209 1518.27 Q296.287 1522.85 296.287 1531.6 Q296.287 1540.33 293.209 1544.94 Q290.153 1549.52 284.343 1549.52 Q278.533 1549.52 275.454 1544.94 Q272.399 1540.33 272.399 1531.6 Q272.399 1522.85 275.454 1518.27 Q278.533 1513.66 284.343 1513.66 Z" fill="#000000" fill-rule="nonzero" fill-opacity="1" /><path clip-path="url(#clip940)" d="M769.541 1514.29 L787.898 1514.29 L787.898 1518.22 L773.824 1518.22 L773.824 1526.7 Q774.842 1526.35 775.861 1526.19 Q776.879 1526 777.898 1526 Q783.685 1526 787.064 1529.17 Q790.444 1532.34 790.444 1537.76 Q790.444 1543.34 786.972 1546.44 Q783.5 1549.52 777.18 1549.52 Q775.004 1549.52 772.736 1549.15 Q770.49 1548.78 768.083 1548.04 L768.083 1543.34 Q770.166 1544.47 772.389 1545.03 Q774.611 1545.58 777.088 1545.58 Q781.092 1545.58 783.43 1543.48 Q785.768 1541.37 785.768 1537.76 Q785.768 1534.15 783.43 1532.04 Q781.092 1529.94 777.088 1529.94 Q775.213 1529.94 773.338 1530.35 Q771.486 1530.77 769.541 1531.65 L769.541 1514.29 Z" fill="#000000" fill-rule="nonzero" fill-opacity="1" /><path clip-path="url(#clip940)" d="M1248.87 1544.91 L1256.51 1544.91 L1256.51 1518.55 L1248.2 1520.21 L1248.2 1515.95 L1256.46 1514.29 L1261.14 1514.29 L1261.14 1544.91 L1268.78 1544.91 L1268.78 1548.85 L1248.87 1548.85 L1248.87 1544.91 Z" fill="#000000" fill-rule="nonzero" fill-opacity="1" /><path clip-path="url(#clip940)" d="M1288.22 1517.37 Q1284.61 1517.37 1282.78 1520.93 Q1280.98 1524.47 1280.98 1531.6 Q1280.98 1538.71 1282.78 1542.27 Q1284.61 1545.82 1288.22 1545.82 Q1291.86 1545.82 1293.66 1542.27 Q1295.49 1538.71 1295.49 1531.6 Q1295.49 1524.47 1293.66 1520.93 Q1291.86 1517.37 1288.22 1517.37 M1288.22 1513.66 Q1294.03 1513.66 1297.09 1518.27 Q1300.17 1522.85 1300.17 1531.6 Q1300.17 1540.33 1297.09 1544.94 Q1294.03 1549.52 1288.22 1549.52 Q1282.41 1549.52 1279.33 1544.94 Q1276.28 1540.33 1276.28 1531.6 Q1276.28 1522.85 1279.33 1518.27 Q1282.41 1513.66 1288.22 1513.66 Z" fill="#000000" fill-rule="nonzero" fill-opacity="1" /><path clip-path="url(#clip940)" d="M1744.29 1544.91 L1751.93 1544.91 L1751.93 1518.55 L1743.62 1520.21 L1743.62 1515.95 L1751.88 1514.29 L1756.56 1514.29 L1756.56 1544.91 L1764.2 1544.91 L1764.2 1548.85 L1744.29 1548.85 L1744.29 1544.91 Z" fill="#000000" fill-rule="nonzero" fill-opacity="1" /><path clip-path="url(#clip940)" d="M1773.69 1514.29 L1792.04 1514.29 L1792.04 1518.22 L1777.97 1518.22 L1777.97 1526.7 Q1778.99 1526.35 1780.01 1526.19 Q1781.03 1526 1782.04 1526 Q1787.83 1526 1791.21 1529.17 Q1794.59 1532.34 1794.59 1537.76 Q1794.59 1543.34 1791.12 1546.44 Q1787.65 1549.52 1781.33 1549.52 Q1779.15 1549.52 1776.88 1549.15 Q1774.64 1548.78 1772.23 1548.04 L1772.23 1543.34 Q1774.31 1544.47 1776.54 1545.03 Q1778.76 1545.58 1781.23 1545.58 Q1785.24 1545.58 1787.58 1543.48 Q1789.91 1541.37 1789.91 1537.76 Q1789.91 1534.15 1787.58 1532.04 Q1785.24 1529.94 1781.23 1529.94 Q1779.36 1529.94 1777.48 1530.35 Q1775.63 1530.77 1773.69 1531.65 L1773.69 1514.29 Z" fill="#000000" fill-rule="nonzero" fill-opacity="1" /><path clip-path="url(#clip940)" d="M2242.8 1544.91 L2259.12 1544.91 L2259.12 1548.85 L2237.17 1548.85 L2237.17 1544.91 Q2239.84 1542.16 2244.42 1537.53 Q2249.03 1532.88 2250.21 1531.53 Q2252.45 1529.01 2253.33 1527.27 Q2254.23 1525.51 2254.23 1523.82 Q2254.23 1521.07 2252.29 1519.33 Q2250.37 1517.6 2247.27 1517.6 Q2245.07 1517.6 2242.61 1518.36 Q2240.18 1519.13 2237.41 1520.68 L2237.41 1515.95 Q2240.23 1514.82 2242.68 1514.24 Q2245.14 1513.66 2247.17 1513.66 Q2252.54 1513.66 2255.74 1516.35 Q2258.93 1519.03 2258.93 1523.52 Q2258.93 1525.65 2258.12 1527.57 Q2257.34 1529.47 2255.23 1532.07 Q2254.65 1532.74 2251.55 1535.95 Q2248.45 1539.15 2242.8 1544.91 Z" fill="#000000" fill-rule="nonzero" fill-opacity="1" /><path clip-path="url(#clip940)" d="M2278.93 1517.37 Q2275.32 1517.37 2273.49 1520.93 Q2271.69 1524.47 2271.69 1531.6 Q2271.69 1538.71 2273.49 1542.27 Q2275.32 1545.82 2278.93 1545.82 Q2282.57 1545.82 2284.37 1542.27 Q2286.2 1538.71 2286.2 1531.6 Q2286.2 1524.47 2284.37 1520.93 Q2282.57 1517.37 2278.93 1517.37 M2278.93 1513.66 Q2284.74 1513.66 2287.8 1518.27 Q2290.88 1522.85 2290.88 1531.6 Q2290.88 1540.33 2287.8 1544.94 Q2284.74 1549.52 2278.93 1549.52 Q2273.12 1549.52 2270.04 1544.94 Q2266.99 1540.33 2266.99 1531.6 Q2266.99 1522.85 2270.04 1518.27 Q2273.12 1513.66 2278.93 1513.66 Z" fill="#000000" fill-rule="nonzero" fill-opacity="1" /><polyline clip-path="url(#clip940)" style="stroke:#000000; stroke-linecap:round; stroke-linejoin:round; stroke-width:4; stroke-opacity:1; fill:none" points="224.098,1486.45 224.098,47.2441 "/>
<polyline clip-path="url(#clip940)" style="stroke:#000000; stroke-linecap:round; stroke-linejoin:round; stroke-width:4; stroke-opacity:1; fill:none" points="224.098,1445.72 242.996,1445.72 "/>
<polyline clip-path="url(#clip940)" style="stroke:#000000; stroke-linecap:round; stroke-linejoin:round; stroke-width:4; stroke-opacity:1; fill:none" points="224.098,1204.98 242.996,1204.98 "/>
<polyline clip-path="url(#clip940)" style="stroke:#000000; stroke-linecap:round; stroke-linejoin:round; stroke-width:4; stroke-opacity:1; fill:none" points="224.098,964.248 242.996,964.248 "/>
<polyline clip-path="url(#clip940)" style="stroke:#000000; stroke-linecap:round; stroke-linejoin:round; stroke-width:4; stroke-opacity:1; fill:none" points="224.098,723.514 242.996,723.514 "/>
<polyline clip-path="url(#clip940)" style="stroke:#000000; stroke-linecap:round; stroke-linejoin:round; stroke-width:4; stroke-opacity:1; fill:none" points="224.098,482.78 242.996,482.78 "/>
<polyline clip-path="url(#clip940)" style="stroke:#000000; stroke-linecap:round; stroke-linejoin:round; stroke-width:4; stroke-opacity:1; fill:none" points="224.098,242.046 242.996,242.046 "/>
<path clip-path="url(#clip940)" d="M50.9921 1446.17 L80.6679 1446.17 L80.6679 1450.1 L50.9921 1450.1 L50.9921 1446.17 Z" fill="#000000" fill-rule="nonzero" fill-opacity="1" /><path clip-path="url(#clip940)" d="M103.608 1432.51 L91.8021 1450.96 L103.608 1450.96 L103.608 1432.51 M102.381 1428.44 L108.26 1428.44 L108.26 1450.96 L113.191 1450.96 L113.191 1454.85 L108.26 1454.85 L108.26 1463 L103.608 1463 L103.608 1454.85 L88.0058 1454.85 L88.0058 1450.33 L102.381 1428.44 Z" fill="#000000" fill-rule="nonzero" fill-opacity="1" /><path clip-path="url(#clip940)" d="M130.922 1431.51 Q127.311 1431.51 125.482 1435.08 Q123.677 1438.62 123.677 1445.75 Q123.677 1452.86 125.482 1456.42 Q127.311 1459.96 130.922 1459.96 Q134.556 1459.96 136.362 1456.42 Q138.191 1452.86 138.191 1445.75 Q138.191 1438.62 136.362 1435.08 Q134.556 1431.51 130.922 1431.51 M130.922 1427.81 Q136.732 1427.81 139.788 1432.42 Q142.867 1437 142.867 1445.75 Q142.867 1454.48 139.788 1459.08 Q136.732 1463.67 130.922 1463.67 Q125.112 1463.67 122.033 1459.08 Q118.978 1454.48 118.978 1445.75 Q118.978 1437 122.033 1432.42 Q125.112 1427.81 130.922 1427.81 Z" fill="#000000" fill-rule="nonzero" fill-opacity="1" /><path clip-path="url(#clip940)" d="M151.084 1457.12 L155.968 1457.12 L155.968 1463 L151.084 1463 L151.084 1457.12 Z" fill="#000000" fill-rule="nonzero" fill-opacity="1" /><path clip-path="url(#clip940)" d="M176.153 1431.51 Q172.542 1431.51 170.714 1435.08 Q168.908 1438.62 168.908 1445.75 Q168.908 1452.86 170.714 1456.42 Q172.542 1459.96 176.153 1459.96 Q179.788 1459.96 181.593 1456.42 Q183.422 1452.86 183.422 1445.75 Q183.422 1438.62 181.593 1435.08 Q179.788 1431.51 176.153 1431.51 M176.153 1427.81 Q181.964 1427.81 185.019 1432.42 Q188.098 1437 188.098 1445.75 Q188.098 1454.48 185.019 1459.08 Q181.964 1463.67 176.153 1463.67 Q170.343 1463.67 167.265 1459.08 Q164.209 1454.48 164.209 1445.75 Q164.209 1437 167.265 1432.42 Q170.343 1427.81 176.153 1427.81 Z" fill="#000000" fill-rule="nonzero" fill-opacity="1" /><path clip-path="url(#clip940)" d="M51.9875 1205.43 L81.6633 1205.43 L81.6633 1209.37 L51.9875 1209.37 L51.9875 1205.43 Z" fill="#000000" fill-rule="nonzero" fill-opacity="1" /><path clip-path="url(#clip940)" d="M105.922 1203.63 Q109.279 1204.35 111.154 1206.61 Q113.052 1208.88 113.052 1212.22 Q113.052 1217.33 109.533 1220.13 Q106.015 1222.93 99.5335 1222.93 Q97.3576 1222.93 95.0428 1222.49 Q92.7512 1222.08 90.2975 1221.22 L90.2975 1216.71 Q92.2419 1217.84 94.5567 1218.42 Q96.8715 1219 99.3946 1219 Q103.793 1219 106.084 1217.26 Q108.399 1215.53 108.399 1212.22 Q108.399 1209.16 106.246 1207.45 Q104.117 1205.71 100.297 1205.71 L96.2697 1205.71 L96.2697 1201.87 L100.483 1201.87 Q103.932 1201.87 105.76 1200.5 Q107.589 1199.11 107.589 1196.52 Q107.589 1193.86 105.691 1192.45 Q103.816 1191.01 100.297 1191.01 Q98.3761 1191.01 96.1771 1191.43 Q93.978 1191.85 91.3391 1192.72 L91.3391 1188.56 Q94.0012 1187.82 96.316 1187.45 Q98.6539 1187.08 100.714 1187.08 Q106.038 1187.08 109.14 1189.51 Q112.242 1191.91 112.242 1196.04 Q112.242 1198.91 110.598 1200.9 Q108.955 1202.86 105.922 1203.63 Z" fill="#000000" fill-rule="nonzero" fill-opacity="1" /><path clip-path="url(#clip940)" d="M120.737 1187.7 L142.959 1187.7 L142.959 1189.69 L130.413 1222.26 L125.529 1222.26 L137.334 1191.64 L120.737 1191.64 L120.737 1187.7 Z" fill="#000000" fill-rule="nonzero" fill-opacity="1" /><path clip-path="url(#clip940)" d="M152.08 1216.38 L156.964 1216.38 L156.964 1222.26 L152.08 1222.26 L152.08 1216.38 Z" fill="#000000" fill-rule="nonzero" fill-opacity="1" /><path clip-path="url(#clip940)" d="M167.195 1187.7 L185.552 1187.7 L185.552 1191.64 L171.478 1191.64 L171.478 1200.11 Q172.496 1199.76 173.515 1199.6 Q174.533 1199.41 175.552 1199.41 Q181.339 1199.41 184.718 1202.59 Q188.098 1205.76 188.098 1211.17 Q188.098 1216.75 184.626 1219.85 Q181.153 1222.93 174.834 1222.93 Q172.658 1222.93 170.39 1222.56 Q168.144 1222.19 165.737 1221.45 L165.737 1216.75 Q167.82 1217.89 170.042 1218.44 Q172.265 1219 174.741 1219 Q178.746 1219 181.084 1216.89 Q183.422 1214.78 183.422 1211.17 Q183.422 1207.56 181.084 1205.46 Q178.746 1203.35 174.741 1203.35 Q172.866 1203.35 170.991 1203.77 Q169.14 1204.18 167.195 1205.06 L167.195 1187.7 Z" fill="#000000" fill-rule="nonzero" fill-opacity="1" /><path clip-path="url(#clip940)" d="M50.9921 964.699 L80.6679 964.699 L80.6679 968.634 L50.9921 968.634 L50.9921 964.699 Z" fill="#000000" fill-rule="nonzero" fill-opacity="1" /><path clip-path="url(#clip940)" d="M104.927 962.894 Q108.283 963.611 110.158 965.88 Q112.057 968.148 112.057 971.482 Q112.057 976.597 108.538 979.398 Q105.02 982.199 98.5382 982.199 Q96.3623 982.199 94.0475 981.759 Q91.7558 981.343 89.3021 980.486 L89.3021 975.972 Q91.2465 977.107 93.5613 977.685 Q95.8761 978.264 98.3993 978.264 Q102.797 978.264 105.089 976.528 Q107.404 974.792 107.404 971.482 Q107.404 968.426 105.251 966.713 Q103.121 964.977 99.3021 964.977 L95.2743 964.977 L95.2743 961.134 L99.4872 961.134 Q102.936 961.134 104.765 959.769 Q106.594 958.38 106.594 955.787 Q106.594 953.125 104.696 951.713 Q102.821 950.278 99.3021 950.278 Q97.3808 950.278 95.1817 950.695 Q92.9826 951.111 90.3438 951.991 L90.3438 947.824 Q93.0058 947.084 95.3206 946.713 Q97.6585 946.343 99.7187 946.343 Q105.043 946.343 108.145 948.773 Q111.246 951.181 111.246 955.301 Q111.246 958.171 109.603 960.162 Q107.959 962.13 104.927 962.894 Z" fill="#000000" fill-rule="nonzero" fill-opacity="1" /><path clip-path="url(#clip940)" d="M120.969 946.968 L139.325 946.968 L139.325 950.903 L125.251 950.903 L125.251 959.375 Q126.27 959.028 127.288 958.866 Q128.307 958.681 129.325 958.681 Q135.112 958.681 138.492 961.852 Q141.871 965.023 141.871 970.44 Q141.871 976.019 138.399 979.12 Q134.927 982.199 128.607 982.199 Q126.432 982.199 124.163 981.829 Q121.918 981.458 119.51 980.718 L119.51 976.019 Q121.594 977.153 123.816 977.708 Q126.038 978.264 128.515 978.264 Q132.519 978.264 134.857 976.157 Q137.195 974.051 137.195 970.44 Q137.195 966.829 134.857 964.722 Q132.519 962.616 128.515 962.616 Q126.64 962.616 124.765 963.033 Q122.913 963.449 120.969 964.329 L120.969 946.968 Z" fill="#000000" fill-rule="nonzero" fill-opacity="1" /><path clip-path="url(#clip940)" d="M151.084 975.648 L155.968 975.648 L155.968 981.528 L151.084 981.528 L151.084 975.648 Z" fill="#000000" fill-rule="nonzero" fill-opacity="1" /><path clip-path="url(#clip940)" d="M176.153 950.047 Q172.542 950.047 170.714 953.611 Q168.908 957.153 168.908 964.283 Q168.908 971.389 170.714 974.954 Q172.542 978.495 176.153 978.495 Q179.788 978.495 181.593 974.954 Q183.422 971.389 183.422 964.283 Q183.422 957.153 181.593 953.611 Q179.788 950.047 176.153 950.047 M176.153 946.343 Q181.964 946.343 185.019 950.949 Q188.098 955.533 188.098 964.283 Q188.098 973.009 185.019 977.616 Q181.964 982.199 176.153 982.199 Q170.343 982.199 167.265 977.616 Q164.209 973.009 164.209 964.283 Q164.209 955.533 167.265 950.949 Q170.343 946.343 176.153 946.343 Z" fill="#000000" fill-rule="nonzero" fill-opacity="1" /><path clip-path="url(#clip940)" d="M51.9875 723.965 L81.6633 723.965 L81.6633 727.9 L51.9875 727.9 L51.9875 723.965 Z" fill="#000000" fill-rule="nonzero" fill-opacity="1" /><path clip-path="url(#clip940)" d="M105.922 722.16 Q109.279 722.877 111.154 725.146 Q113.052 727.414 113.052 730.748 Q113.052 735.863 109.533 738.664 Q106.015 741.465 99.5335 741.465 Q97.3576 741.465 95.0428 741.025 Q92.7512 740.609 90.2975 739.752 L90.2975 735.238 Q92.2419 736.373 94.5567 736.951 Q96.8715 737.53 99.3946 737.53 Q103.793 737.53 106.084 735.794 Q108.399 734.058 108.399 730.748 Q108.399 727.692 106.246 725.979 Q104.117 724.243 100.297 724.243 L96.2697 724.243 L96.2697 720.4 L100.483 720.4 Q103.932 720.4 105.76 719.035 Q107.589 717.646 107.589 715.053 Q107.589 712.391 105.691 710.979 Q103.816 709.544 100.297 709.544 Q98.3761 709.544 96.1771 709.961 Q93.978 710.377 91.3391 711.257 L91.3391 707.09 Q94.0012 706.35 96.316 705.979 Q98.6539 705.609 100.714 705.609 Q106.038 705.609 109.14 708.039 Q112.242 710.447 112.242 714.567 Q112.242 717.438 110.598 719.428 Q108.955 721.396 105.922 722.16 Z" fill="#000000" fill-rule="nonzero" fill-opacity="1" /><path clip-path="url(#clip940)" d="M125.945 736.859 L142.265 736.859 L142.265 740.794 L120.32 740.794 L120.32 736.859 Q122.982 734.104 127.566 729.474 Q132.172 724.822 133.353 723.479 Q135.598 720.956 136.478 719.22 Q137.381 717.461 137.381 715.771 Q137.381 713.016 135.436 711.28 Q133.515 709.544 130.413 709.544 Q128.214 709.544 125.76 710.308 Q123.33 711.072 120.552 712.623 L120.552 707.901 Q123.376 706.766 125.83 706.188 Q128.283 705.609 130.32 705.609 Q135.691 705.609 138.885 708.294 Q142.08 710.979 142.08 715.47 Q142.08 717.6 141.269 719.521 Q140.482 721.419 138.376 724.012 Q137.797 724.683 134.695 727.9 Q131.594 731.095 125.945 736.859 Z" fill="#000000" fill-rule="nonzero" fill-opacity="1" /><path clip-path="url(#clip940)" d="M152.08 734.914 L156.964 734.914 L156.964 740.794 L152.08 740.794 L152.08 734.914 Z" fill="#000000" fill-rule="nonzero" fill-opacity="1" /><path clip-path="url(#clip940)" d="M167.195 706.234 L185.552 706.234 L185.552 710.169 L171.478 710.169 L171.478 718.641 Q172.496 718.294 173.515 718.132 Q174.533 717.947 175.552 717.947 Q181.339 717.947 184.718 721.118 Q188.098 724.289 188.098 729.706 Q188.098 735.285 184.626 738.386 Q181.153 741.465 174.834 741.465 Q172.658 741.465 170.39 741.095 Q168.144 740.724 165.737 739.984 L165.737 735.285 Q167.82 736.419 170.042 736.974 Q172.265 737.53 174.741 737.53 Q178.746 737.53 181.084 735.424 Q183.422 733.317 183.422 729.706 Q183.422 726.095 181.084 723.988 Q178.746 721.882 174.741 721.882 Q172.866 721.882 170.991 722.299 Q169.14 722.715 167.195 723.595 L167.195 706.234 Z" fill="#000000" fill-rule="nonzero" fill-opacity="1" /><path clip-path="url(#clip940)" d="M50.9921 483.231 L80.6679 483.231 L80.6679 487.166 L50.9921 487.166 L50.9921 483.231 Z" fill="#000000" fill-rule="nonzero" fill-opacity="1" /><path clip-path="url(#clip940)" d="M104.927 481.426 Q108.283 482.143 110.158 484.412 Q112.057 486.68 112.057 490.014 Q112.057 495.129 108.538 497.93 Q105.02 500.731 98.5382 500.731 Q96.3623 500.731 94.0475 500.291 Q91.7558 499.875 89.3021 499.018 L89.3021 494.504 Q91.2465 495.639 93.5613 496.217 Q95.8761 496.796 98.3993 496.796 Q102.797 496.796 105.089 495.06 Q107.404 493.324 107.404 490.014 Q107.404 486.958 105.251 485.245 Q103.121 483.509 99.3021 483.509 L95.2743 483.509 L95.2743 479.667 L99.4872 479.667 Q102.936 479.667 104.765 478.301 Q106.594 476.912 106.594 474.319 Q106.594 471.657 104.696 470.245 Q102.821 468.81 99.3021 468.81 Q97.3808 468.81 95.1817 469.227 Q92.9826 469.643 90.3438 470.523 L90.3438 466.356 Q93.0058 465.616 95.3206 465.245 Q97.6585 464.875 99.7187 464.875 Q105.043 464.875 108.145 467.305 Q111.246 469.713 111.246 473.833 Q111.246 476.704 109.603 478.694 Q107.959 480.662 104.927 481.426 Z" fill="#000000" fill-rule="nonzero" fill-opacity="1" /><path clip-path="url(#clip940)" d="M130.922 468.579 Q127.311 468.579 125.482 472.143 Q123.677 475.685 123.677 482.815 Q123.677 489.921 125.482 493.486 Q127.311 497.028 130.922 497.028 Q134.556 497.028 136.362 493.486 Q138.191 489.921 138.191 482.815 Q138.191 475.685 136.362 472.143 Q134.556 468.579 130.922 468.579 M130.922 464.875 Q136.732 464.875 139.788 469.481 Q142.867 474.065 142.867 482.815 Q142.867 491.541 139.788 496.148 Q136.732 500.731 130.922 500.731 Q125.112 500.731 122.033 496.148 Q118.978 491.541 118.978 482.815 Q118.978 474.065 122.033 469.481 Q125.112 464.875 130.922 464.875 Z" fill="#000000" fill-rule="nonzero" fill-opacity="1" /><path clip-path="url(#clip940)" d="M151.084 494.18 L155.968 494.18 L155.968 500.06 L151.084 500.06 L151.084 494.18 Z" fill="#000000" fill-rule="nonzero" fill-opacity="1" /><path clip-path="url(#clip940)" d="M176.153 468.579 Q172.542 468.579 170.714 472.143 Q168.908 475.685 168.908 482.815 Q168.908 489.921 170.714 493.486 Q172.542 497.028 176.153 497.028 Q179.788 497.028 181.593 493.486 Q183.422 489.921 183.422 482.815 Q183.422 475.685 181.593 472.143 Q179.788 468.579 176.153 468.579 M176.153 464.875 Q181.964 464.875 185.019 469.481 Q188.098 474.065 188.098 482.815 Q188.098 491.541 185.019 496.148 Q181.964 500.731 176.153 500.731 Q170.343 500.731 167.265 496.148 Q164.209 491.541 164.209 482.815 Q164.209 474.065 167.265 469.481 Q170.343 464.875 176.153 464.875 Z" fill="#000000" fill-rule="nonzero" fill-opacity="1" /><path clip-path="url(#clip940)" d="M51.9875 242.497 L81.6633 242.497 L81.6633 246.433 L51.9875 246.433 L51.9875 242.497 Z" fill="#000000" fill-rule="nonzero" fill-opacity="1" /><path clip-path="url(#clip940)" d="M95.7836 255.391 L112.103 255.391 L112.103 259.326 L90.1586 259.326 L90.1586 255.391 Q92.8206 252.636 97.4039 248.007 Q102.01 243.354 103.191 242.011 Q105.436 239.488 106.316 237.752 Q107.219 235.993 107.219 234.303 Q107.219 231.548 105.274 229.812 Q103.353 228.076 100.251 228.076 Q98.0521 228.076 95.5984 228.84 Q93.1678 229.604 90.3901 231.155 L90.3901 226.433 Q93.2141 225.298 95.6678 224.72 Q98.1215 224.141 100.159 224.141 Q105.529 224.141 108.723 226.826 Q111.918 229.511 111.918 234.002 Q111.918 236.132 111.108 238.053 Q110.321 239.951 108.214 242.544 Q107.635 243.215 104.534 246.433 Q101.432 249.627 95.7836 255.391 Z" fill="#000000" fill-rule="nonzero" fill-opacity="1" /><path clip-path="url(#clip940)" d="M120.737 224.766 L142.959 224.766 L142.959 226.757 L130.413 259.326 L125.529 259.326 L137.334 228.701 L120.737 228.701 L120.737 224.766 Z" fill="#000000" fill-rule="nonzero" fill-opacity="1" /><path clip-path="url(#clip940)" d="M152.08 253.446 L156.964 253.446 L156.964 259.326 L152.08 259.326 L152.08 253.446 Z" fill="#000000" fill-rule="nonzero" fill-opacity="1" /><path clip-path="url(#clip940)" d="M167.195 224.766 L185.552 224.766 L185.552 228.701 L171.478 228.701 L171.478 237.173 Q172.496 236.826 173.515 236.664 Q174.533 236.479 175.552 236.479 Q181.339 236.479 184.718 239.65 Q188.098 242.821 188.098 248.238 Q188.098 253.817 184.626 256.919 Q181.153 259.997 174.834 259.997 Q172.658 259.997 170.39 259.627 Q168.144 259.257 165.737 258.516 L165.737 253.817 Q167.82 254.951 170.042 255.507 Q172.265 256.062 174.741 256.062 Q178.746 256.062 181.084 253.956 Q183.422 251.849 183.422 248.238 Q183.422 244.627 181.084 242.521 Q178.746 240.414 174.741 240.414 Q172.866 240.414 170.991 240.831 Q169.14 241.247 167.195 242.127 L167.195 224.766 Z" fill="#000000" fill-rule="nonzero" fill-opacity="1" /><polyline clip-path="url(#clip942)" style="stroke:#07519c; stroke-linecap:round; stroke-linejoin:round; stroke-width:4; stroke-opacity:1; fill:none" points="284.343,1349.42 285.993,1387.94 287.642,1397.57 289.292,1397.57 290.942,1387.94 292.592,1387.94 294.241,1387.94 295.891,1387.94 297.541,1387.94 299.191,1378.31 300.84,1368.68 302.49,1359.05 304.14,1349.42 305.789,1339.79 307.439,1320.53 309.089,1310.9 310.739,1301.28 312.388,1282.02 314.038,1272.39 315.688,1253.13 317.338,1243.5 318.987,1224.24 320.637,1204.98 322.287,1185.72 323.937,1176.09 325.586,1156.83 327.236,1137.58 328.886,1127.95 330.536,1108.69 332.185,1089.43 333.835,1079.8 335.485,1060.54 337.134,1050.91 338.784,1041.28 340.434,1022.02 342.084,1012.39 343.733,1002.77 345.383,983.507 347.033,973.877 348.683,964.248 350.36,954.618 351.982,935.36 353.632,925.73 355.309,906.472 356.931,896.842 358.609,887.213 360.231,867.954 361.88,858.325 363.558,839.066 365.18,829.437 366.857,819.807 368.507,800.549 370.129,790.919 371.806,790.919 373.456,790.919 375.106,781.29 376.756,771.661 378.405,771.661 380.055,771.661 381.705,762.031 383.355,762.031 385.004,752.402 386.654,752.402 388.304,742.773 389.953,742.773 391.603,733.143 393.253,733.143 394.903,723.514 396.552,723.514 398.202,723.514 399.852,713.885 401.502,713.885 403.151,713.885 404.801,704.255 406.451,704.255 408.101,704.255 409.75,704.255 411.4,694.626 413.05,694.626 414.7,684.996 416.349,675.367 417.999,675.367 419.649,675.367 421.298,675.367 422.948,665.738 424.598,665.738 426.248,665.738 427.897,656.108 429.547,656.108 431.197,656.108 432.847,646.479 434.496,646.479 436.146,646.479 437.796,646.479 439.446,646.479 441.095,636.85 442.745,636.85 444.395,636.85 446.044,627.22 447.694,627.22 449.344,627.22 450.994,617.591 452.643,617.591 454.293,617.591 455.943,617.591 457.593,607.962 459.242,607.962 460.892,607.962 462.542,598.332 464.192,598.332 465.841,598.332 467.491,598.332 469.141,588.703 470.791,588.703 472.44,588.703 474.09,588.703 475.74,588.703 477.389,579.074 479.067,579.074 480.689,579.074 482.366,569.444 483.988,569.444 485.638,569.444 487.315,569.444 488.938,559.815 490.615,559.815 492.265,559.815 493.887,550.185 495.564,550.185 497.214,550.185 498.864,550.185 500.513,550.185 502.163,540.556 503.813,540.556 505.462,540.556 507.112,540.556 508.762,530.927 510.412,530.927 512.061,530.927 513.711,530.927 515.361,530.927 517.011,521.297 518.66,521.297 520.31,521.297 521.96,521.297 523.61,521.297 525.259,521.297 526.909,521.297 528.559,511.668 530.208,511.668 531.858,511.668 533.508,511.668 535.158,502.039 536.807,502.039 538.457,502.039 540.107,502.039 541.757,492.409 543.406,492.409 545.056,492.409 546.706,492.409 548.356,492.409 550.005,492.409 551.655,482.78 553.305,482.78 554.955,482.78 556.604,482.78 558.254,482.78 559.904,473.151 561.553,473.151 563.203,473.151 564.853,473.151 566.503,473.151 568.152,473.151 569.802,473.151 571.452,463.521 573.102,463.521 574.751,463.521 576.401,463.521 578.051,463.521 579.701,463.521 581.35,453.892 583,453.892 584.65,453.892 586.299,453.892 587.949,453.892 589.599,444.263 591.249,444.263 592.898,444.263 594.548,444.263 596.198,444.263 597.848,434.633 599.525,434.633 601.147,434.633 602.797,434.633 604.474,434.633 606.096,434.633 607.774,434.633 609.423,434.633 611.073,425.004 612.723,434.633 614.372,425.004 616.022,425.004 617.672,425.004 619.322,425.004 620.971,425.004 622.621,415.374 624.271,415.374 625.921,415.374 627.57,415.374 629.22,415.374 630.87,405.745 632.52,405.745 634.169,405.745 635.819,405.745 637.469,405.745 639.119,405.745 640.768,405.745 642.418,405.745 644.068,405.745 645.717,405.745 647.367,405.745 649.017,396.116 650.667,396.116 652.316,396.116 653.966,386.486 655.616,386.486 657.266,386.486 658.915,386.486 660.565,386.486 662.215,386.486 663.865,386.486 665.514,386.486 667.164,386.486 668.814,376.857 670.463,376.857 672.113,376.857 673.763,376.857 675.413,376.857 677.062,376.857 678.712,367.228 680.362,367.228 682.012,367.228 683.661,367.228 685.311,367.228 686.961,367.228 688.611,367.228 690.26,367.228 691.91,367.228 693.56,357.598 695.21,357.598 696.859,357.598 698.509,357.598 700.159,357.598 701.808,357.598 703.458,357.598 705.108,357.598 706.758,357.598 708.407,347.969 710.057,347.969 711.707,347.969 713.357,347.969 715.006,347.969 716.656,347.969 718.333,347.969 719.956,338.34 721.605,338.34 723.283,347.969 724.905,347.969 726.582,338.34 728.204,338.34 729.881,338.34 731.531,338.34 733.181,338.34 734.831,338.34 736.453,328.71 738.13,338.34 739.78,338.34 741.43,338.34 743.079,338.34 744.729,328.71 746.379,328.71 748.029,328.71 749.678,328.71 751.328,328.71 752.978,328.71 754.627,328.71 756.277,328.71 757.927,328.71 759.577,328.71 761.226,319.081 762.876,328.71 764.526,319.081 766.176,319.081 767.825,319.081 769.475,309.452 771.125,309.452 772.775,309.452 774.424,309.452 776.074,309.452 777.724,309.452 779.374,309.452 781.023,309.452 782.673,309.452 784.323,309.452 785.972,309.452 787.622,309.452 789.272,309.452 790.922,309.452 792.571,309.452 794.221,309.452 795.871,309.452 797.521,299.822 799.17,299.822 800.82,309.452 802.47,309.452 804.12,299.822 805.769,309.452 807.419,299.822 809.069,299.822 810.718,299.822 812.368,299.822 814.018,290.193 815.668,299.822 817.317,299.822 818.967,299.822 820.617,290.193 822.267,290.193 823.916,290.193 825.566,290.193 827.216,290.193 828.866,290.193 830.515,290.193 832.165,290.193 833.815,290.193 835.465,280.563 837.142,280.563 838.764,280.563 840.414,280.563 842.063,280.563 843.713,280.563 845.39,280.563 847.013,280.563 848.662,280.563 850.34,280.563 851.962,280.563 853.639,280.563 855.261,280.563 856.939,280.563 858.588,280.563 860.211,280.563 861.888,280.563 863.538,280.563 865.187,280.563 866.837,270.934 868.487,270.934 870.136,270.934 871.786,270.934 873.436,270.934 875.086,270.934 876.735,270.934 878.385,270.934 880.035,270.934 881.685,270.934 883.334,270.934 884.984,270.934 886.634,270.934 888.284,270.934 889.933,270.934 891.583,270.934 893.233,270.934 894.883,270.934 896.532,261.305 898.182,261.305 899.832,261.305 901.481,261.305 903.131,261.305 904.781,261.305 906.431,261.305 908.08,261.305 909.73,261.305 911.38,261.305 913.03,261.305 914.679,261.305 916.329,261.305 917.979,251.675 919.629,251.675 921.278,251.675 922.928,261.305 924.578,261.305 926.227,261.305 927.877,251.675 929.527,251.675 931.177,251.675 932.826,251.675 934.476,251.675 936.126,251.675 937.776,251.675 939.425,251.675 941.075,251.675 942.725,251.675 944.375,251.675 946.024,251.675 947.674,251.675 949.324,251.675 950.974,251.675 952.623,251.675 954.273,251.675 955.923,251.675 957.6,251.675 959.222,251.675 960.872,251.675 962.522,242.046 964.171,251.675 965.849,242.046 967.471,251.675 969.148,251.675 970.798,242.046 972.42,242.046 974.097,251.675 975.747,242.046 977.397,251.675 979.047,242.046 980.669,242.046 982.346,242.046 983.996,242.046 985.645,242.046 987.295,242.046 988.945,242.046 990.595,242.046 992.244,242.046 993.894,242.046 995.544,242.046 997.194,242.046 998.843,242.046 1000.49,232.417 1002.14,232.417 1003.79,232.417 1005.44,232.417 1007.09,232.417 1008.74,232.417 1010.39,232.417 1012.04,232.417 1013.69,222.787 1015.34,232.417 1016.99,232.417 1018.64,232.417 1020.29,232.417 1021.94,232.417 1023.59,232.417 1025.24,232.417 1026.89,232.417 1028.54,232.417 1030.19,232.417 1031.84,222.787 1033.49,232.417 1035.14,222.787 1036.79,222.787 1038.44,222.787 1040.09,232.417 1041.74,222.787 1043.39,222.787 1045.04,222.787 1046.69,222.787 1048.34,222.787 1049.99,222.787 1051.63,222.787 1053.28,222.787 1054.93,222.787 1056.58,222.787 1058.23,222.787 1059.88,222.787 1061.53,222.787 1063.18,222.787 1064.83,222.787 1066.48,222.787 1068.13,222.787 1069.78,222.787 1071.43,222.787 1073.08,222.787 1074.73,222.787 1076.38,222.787 1078.06,222.787 1079.68,222.787 1081.36,222.787 1082.98,222.787 1084.63,222.787 1086.28,222.787 1087.93,213.158 1089.61,222.787 1091.23,213.158 1092.91,213.158 1094.56,213.158 1096.18,213.158 1097.85,213.158 1099.5,213.158 1101.15,213.158 1102.8,213.158 1104.45,213.158 1106.1,213.158 1107.75,213.158 1109.4,213.158 1111.05,213.158 1112.7,203.529 1114.35,213.158 1116,203.529 1117.65,203.529 1119.3,203.529 1120.95,203.529 1122.6,203.529 1124.25,203.529 1125.9,203.529 1127.55,203.529 1129.2,203.529 1130.85,203.529 1132.5,203.529 1134.15,203.529 1135.8,203.529 1137.45,203.529 1139.1,203.529 1140.75,203.529 1142.4,203.529 1144.05,203.529 1145.7,203.529 1147.35,203.529 1149,203.529 1150.65,203.529 1152.3,193.899 1153.95,193.899 1155.6,193.899 1157.25,203.529 1158.9,193.899 1160.54,193.899 1162.19,193.899 1163.84,193.899 1165.49,193.899 1167.14,193.899 1168.79,193.899 1170.44,193.899 1172.09,193.899 1173.74,193.899 1175.39,193.899 1177.04,193.899 1178.69,193.899 1180.34,193.899 1181.99,193.899 1183.64,193.899 1185.29,193.899 1186.94,193.899 1188.59,193.899 1190.24,193.899 1191.89,193.899 1193.54,193.899 1195.19,193.899 1196.84,193.899 1198.49,193.899 1200.14,193.899 1201.79,193.899 1203.47,193.899 1205.09,193.899 1206.74,193.899 1208.41,193.899 1210.04,193.899 1211.71,193.899 1213.36,193.899 1214.99,193.899 1216.66,193.899 1218.29,193.899 1219.96,193.899 1221.61,193.899 1223.26,193.899 1224.91,193.899 1226.56,193.899 1228.21,193.899 1229.86,193.899 1231.51,193.899 1233.16,184.27 1234.81,184.27 1236.46,184.27 1238.11,184.27 1239.76,193.899 1241.41,184.27 1243.06,184.27 1244.71,184.27 1246.36,184.27 1248.01,184.27 1249.66,184.27 1251.31,184.27 1252.96,184.27 1254.61,184.27 1256.26,184.27 1257.91,184.27 1259.56,184.27 1261.21,184.27 1262.86,184.27 1264.51,184.27 1266.16,184.27 1267.81,184.27 1269.45,184.27 1271.1,184.27 1272.75,184.27 1274.4,184.27 1276.05,174.64 1277.7,174.64 1279.35,174.64 1281,174.64 1282.65,174.64 1284.3,174.64 1285.95,174.64 1287.6,174.64 1289.25,174.64 1290.9,174.64 1292.55,174.64 1294.2,174.64 1295.85,174.64 1297.5,174.64 1299.15,174.64 1300.8,174.64 1302.45,174.64 1304.1,174.64 1305.75,184.27 1307.4,174.64 1309.05,174.64 1310.7,174.64 1312.35,174.64 1314,174.64 1315.65,174.64 1317.3,174.64 1318.95,174.64 1320.6,174.64 1322.27,174.64 1323.9,174.64 1325.55,165.011 1327.22,165.011 1328.85,174.64 1330.5,174.64 1332.17,174.64 1333.79,174.64 1335.47,174.64 1337.09,174.64 1338.77,165.011 1340.42,165.011 1342.04,174.64 1343.72,165.011 1345.37,165.011 1347.02,165.011 1348.67,165.011 1350.32,165.011 1351.97,165.011 1353.62,165.011 1355.27,165.011 1356.92,165.011 1358.57,165.011 1360.22,165.011 1361.87,165.011 1363.52,165.011 1365.17,165.011 1366.82,165.011 1368.47,165.011 1370.12,165.011 1371.77,165.011 1373.42,165.011 1375.07,165.011 1376.72,165.011 1378.36,165.011 1380.01,165.011 1381.66,165.011 1383.31,165.011 1384.96,165.011 1386.61,165.011 1388.26,165.011 1389.91,165.011 1391.56,165.011 1393.21,165.011 1394.86,165.011 1396.51,165.011 1398.16,165.011 1399.81,165.011 1401.46,165.011 1403.11,165.011 1404.76,165.011 1406.41,165.011 1408.06,165.011 1409.71,165.011 1411.36,165.011 1413.01,155.382 1414.66,165.011 1416.31,165.011 1417.96,165.011 1419.61,155.382 1421.26,155.382 1422.91,155.382 1424.56,155.382 1426.21,155.382 1427.86,165.011 1429.51,155.382 1431.16,155.382 1432.81,165.011 1434.46,155.382 1436.11,155.382 1437.76,155.382 1439.41,155.382 1441.08,155.382 1442.7,155.382 1444.35,155.382 1446,155.382 1447.65,155.382 1449.33,155.382 1450.95,155.382 1452.6,155.382 1454.28,155.382 1455.9,155.382 1457.58,155.382 1459.23,155.382 1460.85,155.382 1462.53,155.382 1464.18,155.382 1465.83,155.382 1467.48,155.382 1469.13,155.382 1470.78,155.382 1472.43,155.382 1474.08,155.382 1475.73,155.382 1477.38,155.382 1479.03,155.382 1480.68,155.382 1482.33,155.382 1483.98,155.382 1485.63,155.382 1487.28,155.382 1488.92,155.382 1490.57,155.382 1492.22,155.382 1493.87,155.382 1495.52,155.382 1497.17,155.382 1498.82,155.382 1500.47,155.382 1502.12,155.382 1503.77,155.382 1505.42,155.382 1507.07,155.382 1508.72,155.382 1510.37,155.382 1512.02,155.382 1513.67,155.382 1515.32,145.752 1516.97,155.382 1518.62,145.752 1520.27,155.382 1521.92,145.752 1523.57,145.752 1525.22,145.752 1526.87,145.752 1528.52,145.752 1530.17,145.752 1531.82,145.752 1533.47,145.752 1535.12,145.752 1536.77,145.752 1538.42,145.752 1540.07,145.752 1541.72,145.752 1543.37,145.752 1545.02,145.752 1546.67,145.752 1548.32,145.752 1549.96,145.752 1551.61,145.752 1553.26,145.752 1554.91,145.752 1556.56,145.752 1558.21,145.752 1559.86,145.752 1561.51,145.752 1563.16,145.752 1564.81,145.752 1566.46,145.752 1568.14,145.752 1569.76,145.752 "/>
<circle clip-path="url(#clip942)" cx="284.343" cy="1349.42" r="14.4" fill="#07519c" fill-rule="evenodd" fill-opacity="1" stroke="#000000" stroke-opacity="1" stroke-width="3.2"/>
<circle clip-path="url(#clip942)" cx="492.265" cy="559.815" r="14.4" fill="#07519c" fill-rule="evenodd" fill-opacity="1" stroke="#000000" stroke-opacity="1" stroke-width="3.2"/>
<circle clip-path="url(#clip942)" cx="700.159" cy="357.598" r="14.4" fill="#07519c" fill-rule="evenodd" fill-opacity="1" stroke="#000000" stroke-opacity="1" stroke-width="3.2"/>
<circle clip-path="url(#clip942)" cx="908.08" cy="261.305" r="14.4" fill="#07519c" fill-rule="evenodd" fill-opacity="1" stroke="#000000" stroke-opacity="1" stroke-width="3.2"/>
<circle clip-path="url(#clip942)" cx="1116" cy="203.529" r="14.4" fill="#07519c" fill-rule="evenodd" fill-opacity="1" stroke="#000000" stroke-opacity="1" stroke-width="3.2"/>
<circle clip-path="url(#clip942)" cx="1323.9" cy="174.64" r="14.4" fill="#07519c" fill-rule="evenodd" fill-opacity="1" stroke="#000000" stroke-opacity="1" stroke-width="3.2"/>
<circle clip-path="url(#clip942)" cx="1531.82" cy="145.752" r="14.4" fill="#07519c" fill-rule="evenodd" fill-opacity="1" stroke="#000000" stroke-opacity="1" stroke-width="3.2"/>
<polyline clip-path="url(#clip942)" style="stroke:#3082bc; stroke-linecap:round; stroke-linejoin:round; stroke-width:4; stroke-opacity:1; fill:none" points="284.343,1407.2 285.993,1426.46 287.642,1436.09 289.292,1436.09 290.942,1445.72 292.592,1445.72 294.241,1445.72 295.891,1445.72 297.541,1445.72 299.191,1445.72 300.84,1445.72 302.49,1436.09 304.14,1436.09 305.789,1426.46 307.439,1416.83 309.089,1407.2 310.739,1397.57 312.388,1387.94 314.038,1368.68 315.688,1359.05 317.338,1349.42 318.987,1339.79 320.637,1320.53 322.287,1301.28 323.937,1291.65 325.586,1282.02 327.236,1262.76 328.886,1243.5 330.536,1233.87 332.185,1224.24 333.835,1204.98 335.485,1195.35 337.134,1185.72 338.784,1176.09 340.434,1166.46 342.084,1156.83 343.733,1147.21 345.383,1137.58 347.033,1127.95 348.683,1118.32 350.36,1108.69 351.982,1089.43 353.632,1089.43 355.309,1070.17 356.931,1060.54 358.609,1050.91 360.231,1041.28 361.88,1031.65 363.558,1022.02 365.18,1002.77 366.857,1002.77 368.507,983.507 370.129,983.507 371.806,973.877 373.456,973.877 375.106,964.248 376.756,964.248 378.405,964.248 380.055,954.618 381.705,954.618 383.355,944.989 385.004,944.989 386.654,944.989 388.304,935.36 389.953,925.73 391.603,925.73 393.253,925.73 394.903,925.73 396.552,925.73 398.202,916.101 399.852,916.101 401.502,906.472 403.151,916.101 404.801,906.472 406.451,906.472 408.101,906.472 409.75,896.842 411.4,896.842 413.05,887.213 414.7,887.213 416.349,887.213 417.999,887.213 419.649,887.213 421.298,877.584 422.948,877.584 424.598,877.584 426.248,867.954 427.897,867.954 429.547,867.954 431.197,858.325 432.847,858.325 434.496,858.325 436.146,848.696 437.796,848.696 439.446,848.696 441.095,848.696 442.745,848.696 444.395,839.066 446.044,839.066 447.694,839.066 449.344,839.066 450.994,839.066 452.643,829.437 454.293,829.437 455.943,829.437 457.593,829.437 459.242,819.807 460.892,819.807 462.542,819.807 464.192,819.807 465.841,810.178 467.491,810.178 469.141,810.178 470.791,810.178 472.44,800.549 474.09,800.549 475.74,800.549 477.389,800.549 479.067,800.549 480.689,800.549 482.366,800.549 483.988,790.919 485.638,790.919 487.315,781.29 488.938,781.29 490.615,781.29 492.265,781.29 493.887,781.29 495.564,771.661 497.214,771.661 498.864,771.661 500.513,771.661 502.163,771.661 503.813,762.031 505.462,762.031 507.112,762.031 508.762,762.031 510.412,762.031 512.061,762.031 513.711,752.402 515.361,762.031 517.011,752.402 518.66,752.402 520.31,752.402 521.96,742.773 523.61,742.773 525.259,742.773 526.909,742.773 528.559,742.773 530.208,742.773 531.858,742.773 533.508,733.143 535.158,733.143 536.807,733.143 538.457,723.514 540.107,723.514 541.757,723.514 543.406,723.514 545.056,723.514 546.706,723.514 548.356,723.514 550.005,713.885 551.655,713.885 553.305,713.885 554.955,713.885 556.604,704.255 558.254,704.255 559.904,704.255 561.553,704.255 563.203,704.255 564.853,704.255 566.503,694.626 568.152,704.255 569.802,694.626 571.452,694.626 573.102,694.626 574.751,694.626 576.401,694.626 578.051,684.996 579.701,684.996 581.35,684.996 583,684.996 584.65,684.996 586.299,684.996 587.949,675.367 589.599,675.367 591.249,675.367 592.898,675.367 594.548,665.738 596.198,665.738 597.848,665.738 599.525,665.738 601.147,665.738 602.797,665.738 604.474,665.738 606.096,665.738 607.774,656.108 609.423,656.108 611.073,656.108 612.723,656.108 614.372,656.108 616.022,656.108 617.672,646.479 619.322,646.479 620.971,646.479 622.621,646.479 624.271,646.479 625.921,646.479 627.57,646.479 629.22,646.479 630.87,636.85 632.52,636.85 634.169,636.85 635.819,636.85 637.469,627.22 639.119,627.22 640.768,627.22 642.418,627.22 644.068,627.22 645.717,627.22 647.367,627.22 649.017,627.22 650.667,627.22 652.316,617.591 653.966,617.591 655.616,617.591 657.266,617.591 658.915,607.962 660.565,607.962 662.215,607.962 663.865,607.962 665.514,607.962 667.164,607.962 668.814,598.332 670.463,607.962 672.113,598.332 673.763,598.332 675.413,598.332 677.062,598.332 678.712,598.332 680.362,598.332 682.012,598.332 683.661,598.332 685.311,588.703 686.961,588.703 688.611,588.703 690.26,588.703 691.91,588.703 693.56,588.703 695.21,588.703 696.859,588.703 698.509,579.074 700.159,579.074 701.808,579.074 703.458,579.074 705.108,579.074 706.758,579.074 708.407,579.074 710.057,569.444 711.707,569.444 713.357,569.444 715.006,569.444 716.656,569.444 718.333,569.444 719.956,569.444 721.605,559.815 723.283,569.444 724.905,559.815 726.582,559.815 728.204,559.815 729.881,559.815 731.531,559.815 733.181,559.815 734.831,559.815 736.453,559.815 738.13,550.185 739.78,550.185 741.43,550.185 743.079,550.185 744.729,550.185 746.379,550.185 748.029,550.185 749.678,550.185 751.328,550.185 752.978,540.556 754.627,550.185 756.277,540.556 757.927,540.556 759.577,540.556 761.226,540.556 762.876,540.556 764.526,540.556 766.176,540.556 767.825,530.927 769.475,530.927 771.125,530.927 772.775,530.927 774.424,530.927 776.074,530.927 777.724,530.927 779.374,530.927 781.023,530.927 782.673,530.927 784.323,530.927 785.972,530.927 787.622,530.927 789.272,521.297 790.922,521.297 792.571,521.297 794.221,521.297 795.871,521.297 797.521,521.297 799.17,521.297 800.82,511.668 802.47,521.297 804.12,521.297 805.769,511.668 807.419,511.668 809.069,511.668 810.718,511.668 812.368,511.668 814.018,511.668 815.668,511.668 817.317,511.668 818.967,511.668 820.617,511.668 822.267,502.039 823.916,502.039 825.566,502.039 827.216,502.039 828.866,502.039 830.515,502.039 832.165,502.039 833.815,502.039 835.465,492.409 837.142,492.409 838.764,492.409 840.414,492.409 842.063,492.409 843.713,492.409 845.39,492.409 847.013,492.409 848.662,492.409 850.34,492.409 851.962,482.78 853.639,492.409 855.261,492.409 856.939,492.409 858.588,492.409 860.211,492.409 861.888,482.78 863.538,482.78 865.187,482.78 866.837,482.78 868.487,482.78 870.136,482.78 871.786,473.151 873.436,482.78 875.086,473.151 876.735,473.151 878.385,473.151 880.035,473.151 881.685,473.151 883.334,482.78 884.984,473.151 886.634,473.151 888.284,473.151 889.933,463.521 891.583,473.151 893.233,463.521 894.883,463.521 896.532,463.521 898.182,463.521 899.832,463.521 901.481,463.521 903.131,463.521 904.781,463.521 906.431,463.521 908.08,463.521 909.73,463.521 911.38,463.521 913.03,463.521 914.679,463.521 916.329,463.521 917.979,453.892 919.629,453.892 921.278,453.892 922.928,453.892 924.578,453.892 926.227,453.892 927.877,453.892 929.527,453.892 931.177,453.892 932.826,444.263 934.476,453.892 936.126,453.892 937.776,453.892 939.425,453.892 941.075,444.263 942.725,444.263 944.375,444.263 946.024,444.263 947.674,444.263 949.324,444.263 950.974,444.263 952.623,444.263 954.273,444.263 955.923,444.263 957.6,444.263 959.222,444.263 960.872,444.263 962.522,444.263 964.171,434.633 965.849,434.633 967.471,444.263 969.148,444.263 970.798,434.633 972.42,434.633 974.097,434.633 975.747,434.633 977.397,434.633 979.047,434.633 980.669,434.633 982.346,434.633 983.996,434.633 985.645,434.633 987.295,425.004 988.945,425.004 990.595,425.004 992.244,434.633 993.894,425.004 995.544,425.004 997.194,425.004 998.843,425.004 1000.49,425.004 1002.14,425.004 1003.79,425.004 1005.44,425.004 1007.09,425.004 1008.74,425.004 1010.39,425.004 1012.04,425.004 1013.69,425.004 1015.34,425.004 1016.99,425.004 1018.64,425.004 1020.29,425.004 1021.94,415.374 1023.59,415.374 1025.24,415.374 1026.89,415.374 1028.54,415.374 1030.19,415.374 1031.84,415.374 1033.49,415.374 1035.14,415.374 1036.79,415.374 1038.44,405.745 1040.09,415.374 1041.74,405.745 1043.39,415.374 1045.04,405.745 1046.69,405.745 1048.34,405.745 1049.99,405.745 1051.63,405.745 1053.28,405.745 1054.93,405.745 1056.58,405.745 1058.23,405.745 1059.88,405.745 1061.53,405.745 1063.18,405.745 1064.83,405.745 1066.48,405.745 1068.13,405.745 1069.78,405.745 1071.43,405.745 1073.08,405.745 1074.73,405.745 1076.38,405.745 1078.06,405.745 1079.68,405.745 1081.36,405.745 1082.98,405.745 1084.63,405.745 1086.28,396.116 1087.93,396.116 1089.61,396.116 1091.23,396.116 1092.91,396.116 1094.56,396.116 1096.18,396.116 1097.85,386.486 1099.5,386.486 1101.15,386.486 1102.8,386.486 1104.45,386.486 1106.1,396.116 1107.75,386.486 1109.4,386.486 1111.05,386.486 1112.7,386.486 1114.35,386.486 1116,386.486 1117.65,386.486 1119.3,386.486 1120.95,386.486 1122.6,386.486 1124.25,386.486 1125.9,386.486 1127.55,376.857 1129.2,386.486 1130.85,376.857 1132.5,376.857 1134.15,376.857 1135.8,376.857 1137.45,376.857 1139.1,376.857 1140.75,376.857 1142.4,376.857 1144.05,376.857 1145.7,376.857 1147.35,367.228 1149,376.857 1150.65,376.857 1152.3,376.857 1153.95,376.857 1155.6,376.857 1157.25,376.857 1158.9,376.857 1160.54,376.857 1162.19,367.228 1163.84,367.228 1165.49,367.228 1167.14,367.228 1168.79,367.228 1170.44,367.228 1172.09,367.228 1173.74,367.228 1175.39,367.228 1177.04,367.228 1178.69,367.228 1180.34,367.228 1181.99,367.228 1183.64,367.228 1185.29,367.228 1186.94,367.228 1188.59,367.228 1190.24,367.228 1191.89,367.228 1193.54,367.228 1195.19,367.228 1196.84,367.228 1198.49,367.228 1200.14,367.228 1201.79,367.228 1203.47,357.598 1205.09,357.598 1206.74,357.598 1208.41,357.598 1210.04,357.598 1211.71,357.598 1213.36,357.598 1214.99,357.598 1216.66,357.598 1218.29,347.969 1219.96,357.598 1221.61,357.598 1223.26,357.598 1224.91,357.598 1226.56,357.598 1228.21,357.598 1229.86,357.598 1231.51,357.598 1233.16,347.969 1234.81,347.969 1236.46,347.969 1238.11,347.969 1239.76,347.969 1241.41,347.969 1243.06,347.969 1244.71,347.969 1246.36,347.969 1248.01,347.969 1249.66,347.969 1251.31,347.969 1252.96,347.969 1254.61,347.969 1256.26,347.969 1257.91,347.969 1259.56,347.969 1261.21,347.969 1262.86,347.969 1264.51,347.969 1266.16,347.969 1267.81,347.969 1269.45,347.969 1271.1,347.969 1272.75,347.969 1274.4,347.969 1276.05,347.969 1277.7,347.969 1279.35,347.969 1281,347.969 1282.65,347.969 1284.3,347.969 1285.95,347.969 1287.6,347.969 1289.25,347.969 1290.9,347.969 1292.55,338.34 1294.2,338.34 1295.85,338.34 1297.5,338.34 1299.15,338.34 1300.8,338.34 1302.45,338.34 1304.1,338.34 1305.75,338.34 1307.4,338.34 1309.05,338.34 1310.7,338.34 1312.35,338.34 1314,338.34 1315.65,338.34 1317.3,338.34 1318.95,338.34 1320.6,338.34 1322.27,338.34 1323.9,338.34 1325.55,338.34 1327.22,338.34 1328.85,338.34 1330.5,328.71 1332.17,338.34 1333.79,338.34 1335.47,328.71 1337.09,338.34 1338.77,338.34 1340.42,328.71 1342.04,328.71 1343.72,328.71 1345.37,328.71 1347.02,328.71 1348.67,328.71 1350.32,328.71 1351.97,328.71 1353.62,328.71 1355.27,328.71 1356.92,328.71 1358.57,328.71 1360.22,328.71 1361.87,328.71 1363.52,328.71 1365.17,328.71 1366.82,328.71 1368.47,328.71 1370.12,328.71 1371.77,328.71 1373.42,328.71 1375.07,328.71 1376.72,328.71 1378.36,328.71 1380.01,328.71 1381.66,319.081 1383.31,328.71 1384.96,319.081 1386.61,328.71 1388.26,319.081 1389.91,319.081 1391.56,319.081 1393.21,319.081 1394.86,319.081 1396.51,319.081 1398.16,319.081 1399.81,319.081 1401.46,319.081 1403.11,319.081 1404.76,319.081 1406.41,319.081 1408.06,319.081 1409.71,319.081 1411.36,319.081 1413.01,319.081 1414.66,319.081 1416.31,319.081 1417.96,319.081 1419.61,309.452 1421.26,309.452 1422.91,319.081 1424.56,309.452 1426.21,309.452 1427.86,309.452 1429.51,319.081 1431.16,309.452 1432.81,309.452 1434.46,309.452 1436.11,309.452 1437.76,309.452 1439.41,309.452 1441.08,309.452 1442.7,309.452 1444.35,309.452 1446,309.452 1447.65,309.452 1449.33,309.452 1450.95,309.452 1452.6,309.452 1454.28,309.452 1455.9,309.452 1457.58,309.452 1459.23,309.452 1460.85,309.452 1462.53,309.452 1464.18,309.452 1465.83,299.822 1467.48,309.452 1469.13,299.822 1470.78,299.822 1472.43,309.452 1474.08,309.452 1475.73,299.822 1477.38,299.822 1479.03,299.822 1480.68,299.822 1482.33,309.452 1483.98,299.822 1485.63,299.822 1487.28,299.822 1488.92,299.822 1490.57,299.822 1492.22,299.822 1493.87,299.822 1495.52,299.822 1497.17,299.822 1498.82,299.822 1500.47,299.822 1502.12,299.822 1503.77,299.822 1505.42,299.822 1507.07,299.822 1508.72,299.822 1510.37,299.822 1512.02,299.822 1513.67,299.822 1515.32,299.822 1516.97,299.822 1518.62,290.193 1520.27,290.193 1521.92,299.822 1523.57,290.193 1525.22,290.193 1526.87,290.193 1528.52,290.193 1530.17,290.193 1531.82,290.193 1533.47,290.193 1535.12,290.193 1536.77,290.193 1538.42,290.193 1540.07,290.193 1541.72,290.193 1543.37,290.193 1545.02,290.193 1546.67,290.193 1548.32,290.193 1549.96,290.193 1551.61,290.193 1553.26,290.193 1554.91,290.193 1556.56,290.193 1558.21,290.193 1559.86,290.193 1561.51,290.193 1563.16,290.193 1564.81,290.193 1566.46,290.193 1568.14,290.193 1569.76,290.193 "/>
<path clip-path="url(#clip942)" d="M337.632 1073.43 L337.632 1105.43 L369.632 1105.43 L369.632 1073.43 L337.632 1073.43 Z" fill="#3082bc" fill-rule="evenodd" fill-opacity="1" stroke="#000000" stroke-opacity="1" stroke-width="3.2"/>
<path clip-path="url(#clip942)" d="M545.553 688.255 L545.553 720.255 L577.553 720.255 L577.553 688.255 L545.553 688.255 Z" fill="#3082bc" fill-rule="evenodd" fill-opacity="1" stroke="#000000" stroke-opacity="1" stroke-width="3.2"/>
<path clip-path="url(#clip942)" d="M753.475 514.927 L753.475 546.927 L785.475 546.927 L785.475 514.927 L753.475 514.927 Z" fill="#3082bc" fill-rule="evenodd" fill-opacity="1" stroke="#000000" stroke-opacity="1" stroke-width="3.2"/>
<path clip-path="url(#clip942)" d="M961.397 418.633 L961.397 450.633 L993.397 450.633 L993.397 418.633 L961.397 418.633 Z" fill="#3082bc" fill-rule="evenodd" fill-opacity="1" stroke="#000000" stroke-opacity="1" stroke-width="3.2"/>
<path clip-path="url(#clip942)" d="M1169.29 351.228 L1169.29 383.228 L1201.29 383.228 L1201.29 351.228 L1169.29 351.228 Z" fill="#3082bc" fill-rule="evenodd" fill-opacity="1" stroke="#000000" stroke-opacity="1" stroke-width="3.2"/>
<path clip-path="url(#clip942)" d="M1377.21 303.081 L1377.21 335.081 L1409.21 335.081 L1409.21 303.081 L1377.21 303.081 Z" fill="#3082bc" fill-rule="evenodd" fill-opacity="1" stroke="#000000" stroke-opacity="1" stroke-width="3.2"/>
<polyline clip-path="url(#clip942)" style="stroke:#6badd5; stroke-linecap:round; stroke-linejoin:round; stroke-width:4; stroke-opacity:1; fill:none" points="284.343,1407.2 285.993,1416.83 287.642,1426.46 289.292,1426.46 290.942,1426.46 292.592,1416.83 294.241,1416.83 295.891,1416.83 297.541,1407.2 299.191,1407.2 300.84,1387.94 302.49,1387.94 304.14,1368.68 305.789,1368.68 307.439,1349.42 309.089,1339.79 310.739,1320.53 312.388,1310.9 314.038,1291.65 315.688,1282.02 317.338,1262.76 318.987,1243.5 320.637,1224.24 322.287,1204.98 323.937,1185.72 325.586,1176.09 327.236,1156.83 328.886,1147.21 330.536,1127.95 332.185,1108.69 333.835,1089.43 335.485,1079.8 337.134,1060.54 338.784,1041.28 340.434,1031.65 342.084,1022.02 343.733,1002.77 345.383,983.507 347.033,973.877 348.683,954.618 350.36,944.989 351.982,925.73 353.632,916.101 355.309,896.842 356.931,887.213 358.609,867.954 360.231,858.325 361.88,839.066 363.558,829.437 365.18,810.178 366.857,800.549 368.507,790.919 370.129,781.29 371.806,762.031 373.456,762.031 375.106,762.031 376.756,762.031 378.405,752.402 380.055,742.773 381.705,742.773 383.355,742.773 385.004,733.143 386.654,733.143 388.304,723.514 389.953,723.514 391.603,723.514 393.253,723.514 394.903,723.514 396.552,713.885 398.202,713.885 399.852,704.255 401.502,704.255 403.151,704.255 404.801,694.626 406.451,704.255 408.101,694.626 409.75,694.626 411.4,684.996 413.05,684.996 414.7,684.996 416.349,675.367 417.999,675.367 419.649,675.367 421.298,675.367 422.948,675.367 424.598,665.738 426.248,665.738 427.897,665.738 429.547,656.108 431.197,656.108 432.847,646.479 434.496,656.108 436.146,646.479 437.796,646.479 439.446,646.479 441.095,646.479 442.745,646.479 444.395,636.85 446.044,627.22 447.694,636.85 449.344,636.85 450.994,627.22 452.643,627.22 454.293,627.22 455.943,627.22 457.593,627.22 459.242,617.591 460.892,607.962 462.542,617.591 464.192,607.962 465.841,607.962 467.491,607.962 469.141,607.962 470.791,607.962 472.44,607.962 474.09,598.332 475.74,598.332 477.389,598.332 479.067,598.332 480.689,598.332 482.366,598.332 483.988,588.703 485.638,588.703 487.315,588.703 488.938,588.703 490.615,588.703 492.265,579.074 493.887,579.074 495.564,579.074 497.214,569.444 498.864,569.444 500.513,569.444 502.163,559.815 503.813,559.815 505.462,569.444 507.112,569.444 508.762,559.815 510.412,559.815 512.061,559.815 513.711,559.815 515.361,559.815 517.011,559.815 518.66,559.815 520.31,550.185 521.96,550.185 523.61,550.185 525.259,550.185 526.909,550.185 528.559,540.556 530.208,550.185 531.858,540.556 533.508,540.556 535.158,530.927 536.807,530.927 538.457,530.927 540.107,530.927 541.757,530.927 543.406,530.927 545.056,521.297 546.706,521.297 548.356,521.297 550.005,521.297 551.655,521.297 553.305,521.297 554.955,521.297 556.604,521.297 558.254,511.668 559.904,511.668 561.553,511.668 563.203,511.668 564.853,511.668 566.503,502.039 568.152,502.039 569.802,502.039 571.452,502.039 573.102,502.039 574.751,502.039 576.401,502.039 578.051,502.039 579.701,492.409 581.35,502.039 583,502.039 584.65,492.409 586.299,492.409 587.949,492.409 589.599,482.78 591.249,482.78 592.898,482.78 594.548,482.78 596.198,482.78 597.848,482.78 599.525,473.151 601.147,473.151 602.797,473.151 604.474,473.151 606.096,473.151 607.774,473.151 609.423,473.151 611.073,473.151 612.723,463.521 614.372,473.151 616.022,463.521 617.672,463.521 619.322,463.521 620.971,463.521 622.621,463.521 624.271,463.521 625.921,463.521 627.57,453.892 629.22,453.892 630.87,453.892 632.52,453.892 634.169,444.263 635.819,444.263 637.469,453.892 639.119,444.263 640.768,444.263 642.418,444.263 644.068,444.263 645.717,444.263 647.367,444.263 649.017,444.263 650.667,444.263 652.316,444.263 653.966,434.633 655.616,434.633 657.266,434.633 658.915,434.633 660.565,425.004 662.215,425.004 663.865,425.004 665.514,425.004 667.164,425.004 668.814,425.004 670.463,425.004 672.113,425.004 673.763,425.004 675.413,425.004 677.062,415.374 678.712,415.374 680.362,415.374 682.012,415.374 683.661,415.374 685.311,415.374 686.961,405.745 688.611,405.745 690.26,405.745 691.91,405.745 693.56,405.745 695.21,405.745 696.859,405.745 698.509,405.745 700.159,405.745 701.808,405.745 703.458,405.745 705.108,405.745 706.758,405.745 708.407,405.745 710.057,405.745 711.707,405.745 713.357,405.745 715.006,405.745 716.656,396.116 718.333,396.116 719.956,396.116 721.605,396.116 723.283,396.116 724.905,396.116 726.582,396.116 728.204,386.486 729.881,376.857 731.531,386.486 733.181,386.486 734.831,386.486 736.453,386.486 738.13,376.857 739.78,376.857 741.43,376.857 743.079,376.857 744.729,367.228 746.379,367.228 748.029,367.228 749.678,367.228 751.328,367.228 752.978,367.228 754.627,367.228 756.277,367.228 757.927,367.228 759.577,367.228 761.226,367.228 762.876,367.228 764.526,367.228 766.176,367.228 767.825,367.228 769.475,367.228 771.125,367.228 772.775,367.228 774.424,367.228 776.074,357.598 777.724,357.598 779.374,357.598 781.023,357.598 782.673,357.598 784.323,347.969 785.972,347.969 787.622,357.598 789.272,357.598 790.922,347.969 792.571,347.969 794.221,347.969 795.871,347.969 797.521,347.969 799.17,347.969 800.82,347.969 802.47,347.969 804.12,347.969 805.769,347.969 807.419,338.34 809.069,328.71 810.718,338.34 812.368,338.34 814.018,338.34 815.668,338.34 817.317,338.34 818.967,338.34 820.617,328.71 822.267,328.71 823.916,328.71 825.566,328.71 827.216,328.71 828.866,328.71 830.515,319.081 832.165,328.71 833.815,328.71 835.465,319.081 837.142,319.081 838.764,319.081 840.414,319.081 842.063,328.71 843.713,328.71 845.39,328.71 847.013,309.452 848.662,319.081 850.34,319.081 851.962,319.081 853.639,319.081 855.261,319.081 856.939,328.71 858.588,319.081 860.211,319.081 861.888,309.452 863.538,309.452 865.187,309.452 866.837,309.452 868.487,309.452 870.136,309.452 871.786,309.452 873.436,309.452 875.086,309.452 876.735,309.452 878.385,309.452 880.035,309.452 881.685,309.452 883.334,309.452 884.984,309.452 886.634,309.452 888.284,309.452 889.933,309.452 891.583,309.452 893.233,309.452 894.883,299.822 896.532,299.822 898.182,309.452 899.832,299.822 901.481,299.822 903.131,299.822 904.781,290.193 906.431,299.822 908.08,299.822 909.73,290.193 911.38,290.193 913.03,290.193 914.679,290.193 916.329,290.193 917.979,299.822 919.629,290.193 921.278,299.822 922.928,299.822 924.578,299.822 926.227,299.822 927.877,299.822 929.527,299.822 931.177,299.822 932.826,299.822 934.476,299.822 936.126,299.822 937.776,290.193 939.425,290.193 941.075,290.193 942.725,290.193 944.375,290.193 946.024,290.193 947.674,290.193 949.324,290.193 950.974,290.193 952.623,290.193 954.273,290.193 955.923,290.193 957.6,290.193 959.222,290.193 960.872,290.193 962.522,280.563 964.171,280.563 965.849,280.563 967.471,280.563 969.148,280.563 970.798,280.563 972.42,280.563 974.097,290.193 975.747,280.563 977.397,280.563 979.047,280.563 980.669,280.563 982.346,280.563 983.996,280.563 985.645,280.563 987.295,280.563 988.945,280.563 990.595,280.563 992.244,280.563 993.894,280.563 995.544,270.934 997.194,270.934 998.843,270.934 1000.49,270.934 1002.14,280.563 1003.79,270.934 1005.44,270.934 1007.09,270.934 1008.74,270.934 1010.39,280.563 1012.04,270.934 1013.69,270.934 1015.34,270.934 1016.99,270.934 1018.64,270.934 1020.29,270.934 1021.94,261.305 1023.59,261.305 1025.24,261.305 1026.89,261.305 1028.54,261.305 1030.19,261.305 1031.84,261.305 1033.49,261.305 1035.14,261.305 1036.79,270.934 1038.44,261.305 1040.09,261.305 1041.74,261.305 1043.39,261.305 1045.04,261.305 1046.69,270.934 1048.34,261.305 1049.99,261.305 1051.63,261.305 1053.28,261.305 1054.93,261.305 1056.58,261.305 1058.23,261.305 1059.88,261.305 1061.53,261.305 1063.18,261.305 1064.83,261.305 1066.48,261.305 1068.13,261.305 1069.78,261.305 1071.43,261.305 1073.08,261.305 1074.73,261.305 1076.38,251.675 1078.06,251.675 1079.68,251.675 1081.36,251.675 1082.98,251.675 1084.63,251.675 1086.28,251.675 1087.93,242.046 1089.61,242.046 1091.23,242.046 1092.91,242.046 1094.56,251.675 1096.18,242.046 1097.85,242.046 1099.5,242.046 1101.15,242.046 1102.8,242.046 1104.45,242.046 1106.1,251.675 1107.75,251.675 1109.4,251.675 1111.05,242.046 1112.7,242.046 1114.35,242.046 1116,242.046 1117.65,242.046 1119.3,242.046 1120.95,232.417 1122.6,232.417 1124.25,232.417 1125.9,242.046 1127.55,232.417 1129.2,232.417 1130.85,242.046 1132.5,232.417 1134.15,232.417 1135.8,232.417 1137.45,232.417 1139.1,232.417 1140.75,232.417 1142.4,232.417 1144.05,222.787 1145.7,222.787 1147.35,232.417 1149,232.417 1150.65,232.417 1152.3,232.417 1153.95,232.417 1155.6,232.417 1157.25,232.417 1158.9,232.417 1160.54,232.417 1162.19,232.417 1163.84,232.417 1165.49,222.787 1167.14,222.787 1168.79,222.787 1170.44,222.787 1172.09,232.417 1173.74,222.787 1175.39,222.787 1177.04,222.787 1178.69,222.787 1180.34,222.787 1181.99,213.158 1183.64,222.787 1185.29,222.787 1186.94,222.787 1188.59,222.787 1190.24,222.787 1191.89,222.787 1193.54,222.787 1195.19,222.787 1196.84,222.787 1198.49,222.787 1200.14,222.787 1201.79,222.787 1203.47,222.787 1205.09,213.158 1206.74,222.787 1208.41,213.158 1210.04,213.158 1211.71,213.158 1213.36,213.158 1214.99,213.158 1216.66,213.158 1218.29,203.529 1219.96,213.158 1221.61,213.158 1223.26,213.158 1224.91,213.158 1226.56,213.158 1228.21,222.787 1229.86,222.787 1231.51,222.787 1233.16,222.787 1234.81,222.787 1236.46,222.787 1238.11,213.158 1239.76,213.158 1241.41,213.158 1243.06,213.158 1244.71,222.787 1246.36,222.787 1248.01,213.158 1249.66,213.158 1251.31,213.158 1252.96,213.158 1254.61,213.158 1256.26,213.158 1257.91,213.158 1259.56,213.158 1261.21,213.158 1262.86,213.158 1264.51,213.158 1266.16,213.158 1267.81,213.158 1269.45,213.158 1271.1,213.158 1272.75,213.158 1274.4,213.158 1276.05,213.158 1277.7,213.158 1279.35,203.529 1281,213.158 1282.65,213.158 1284.3,213.158 1285.95,213.158 1287.6,213.158 1289.25,213.158 1290.9,213.158 1292.55,213.158 1294.2,213.158 1295.85,213.158 1297.5,213.158 1299.15,203.529 1300.8,213.158 1302.45,213.158 1304.1,203.529 1305.75,203.529 1307.4,203.529 1309.05,203.529 1310.7,203.529 1312.35,203.529 1314,203.529 1315.65,213.158 1317.3,213.158 1318.95,203.529 1320.6,213.158 1322.27,203.529 1323.9,203.529 1325.55,203.529 1327.22,203.529 1328.85,203.529 1330.5,203.529 1332.17,203.529 1333.79,203.529 1335.47,203.529 1337.09,203.529 1338.77,203.529 1340.42,203.529 1342.04,203.529 1343.72,193.899 1345.37,193.899 1347.02,193.899 1348.67,193.899 1350.32,193.899 1351.97,193.899 1353.62,193.899 1355.27,193.899 1356.92,193.899 1358.57,193.899 1360.22,193.899 1361.87,193.899 1363.52,193.899 1365.17,193.899 1366.82,193.899 1368.47,193.899 1370.12,193.899 1371.77,193.899 1373.42,193.899 1375.07,203.529 1376.72,193.899 1378.36,193.899 1380.01,193.899 1381.66,193.899 1383.31,193.899 1384.96,193.899 1386.61,193.899 1388.26,203.529 1389.91,193.899 1391.56,193.899 1393.21,193.899 1394.86,184.27 1396.51,193.899 1398.16,193.899 1399.81,193.899 1401.46,193.899 1403.11,184.27 1404.76,184.27 1406.41,184.27 1408.06,184.27 1409.71,184.27 1411.36,193.899 1413.01,184.27 1414.66,193.899 1416.31,184.27 1417.96,193.899 1419.61,193.899 1421.26,193.899 1422.91,184.27 1424.56,193.899 1426.21,184.27 1427.86,184.27 1429.51,193.899 1431.16,193.899 1432.81,193.899 1434.46,193.899 1436.11,184.27 1437.76,184.27 1439.41,184.27 1441.08,193.899 1442.7,184.27 1444.35,184.27 1446,184.27 1447.65,184.27 1449.33,184.27 1450.95,184.27 1452.6,184.27 1454.28,174.64 1455.9,184.27 1457.58,184.27 1459.23,184.27 1460.85,184.27 1462.53,184.27 1464.18,184.27 1465.83,184.27 1467.48,184.27 1469.13,184.27 1470.78,184.27 1472.43,184.27 1474.08,193.899 1475.73,184.27 1477.38,184.27 1479.03,184.27 1480.68,184.27 1482.33,184.27 1483.98,184.27 1485.63,174.64 1487.28,174.64 1488.92,174.64 1490.57,174.64 1492.22,184.27 1493.87,174.64 1495.52,174.64 1497.17,174.64 1498.82,174.64 1500.47,174.64 1502.12,174.64 1503.77,174.64 1505.42,174.64 1507.07,174.64 1508.72,184.27 1510.37,174.64 1512.02,174.64 1513.67,174.64 1515.32,174.64 1516.97,174.64 1518.62,174.64 1520.27,174.64 1521.92,174.64 1523.57,174.64 1525.22,174.64 1526.87,174.64 1528.52,174.64 1530.17,174.64 1531.82,174.64 1533.47,174.64 1535.12,174.64 1536.77,174.64 1538.42,174.64 1540.07,174.64 1541.72,174.64 1543.37,174.64 1545.02,165.011 1546.67,174.64 1548.32,174.64 1549.96,165.011 1551.61,174.64 1553.26,174.64 1554.91,174.64 1556.56,174.64 1558.21,174.64 1559.86,174.64 1561.51,174.64 1563.16,174.64 1564.81,165.011 1566.46,165.011 1568.14,174.64 1569.76,165.011 1571.41,165.011 1573.09,165.011 1574.71,165.011 1576.39,165.011 1578.01,165.011 1579.66,165.011 1581.34,165.011 1582.96,165.011 1584.64,165.011 1586.29,165.011 1587.94,165.011 1589.59,165.011 1591.24,165.011 1592.89,174.64 1594.54,174.64 1596.19,174.64 1597.83,165.011 1599.48,174.64 1601.13,174.64 1602.78,165.011 1604.43,165.011 1606.08,174.64 1607.73,174.64 1609.38,165.011 1611.03,165.011 1612.68,165.011 1614.33,165.011 1615.98,165.011 1617.63,165.011 1619.28,165.011 1620.93,165.011 1622.58,165.011 1624.23,155.382 1625.88,165.011 1627.53,165.011 1629.18,165.011 1630.83,165.011 1632.48,165.011 1634.13,165.011 1635.78,165.011 1637.43,155.382 1639.08,165.011 1640.73,165.011 1642.38,155.382 1644.03,165.011 1645.68,155.382 1647.33,165.011 1648.98,165.011 1650.63,155.382 1652.28,155.382 1653.93,155.382 1655.58,155.382 1657.23,165.011 1658.87,155.382 1660.52,155.382 1662.17,155.382 1663.82,155.382 1665.47,155.382 1667.12,155.382 1668.77,155.382 1670.42,155.382 1672.07,155.382 1673.72,155.382 1675.37,155.382 1677.02,155.382 1678.67,155.382 1680.32,145.752 1681.97,155.382 1683.62,155.382 1685.27,145.752 1686.92,145.752 1688.57,145.752 1690.25,145.752 1691.87,145.752 1693.52,145.752 1695.2,145.752 1696.82,145.752 1698.47,145.752 1700.15,145.752 1701.77,145.752 1703.45,145.752 1705.1,145.752 1706.74,145.752 1708.39,145.752 1710.04,145.752 1711.69,145.752 1713.34,145.752 1714.99,136.123 1716.64,145.752 1718.29,145.752 1719.94,136.123 1721.59,145.752 1723.24,136.123 1724.89,136.123 1726.54,136.123 1728.19,136.123 1729.84,136.123 1731.49,136.123 1733.14,136.123 1734.79,136.123 1736.44,126.494 1738.09,136.123 1739.74,136.123 1741.39,136.123 1743.04,136.123 1744.69,136.123 1746.34,126.494 1747.99,126.494 1749.64,136.123 1751.29,126.494 1752.94,126.494 1754.59,136.123 1756.24,136.123 1757.89,126.494 1759.54,136.123 1761.19,136.123 1762.84,126.494 1764.49,126.494 1766.14,126.494 1767.79,126.494 1769.43,126.494 1771.08,126.494 1772.73,126.494 1774.38,126.494 1776.03,126.494 1777.68,126.494 1779.33,126.494 1780.98,126.494 1782.63,126.494 1784.28,126.494 1785.93,126.494 1787.58,126.494 1789.23,116.864 1790.88,126.494 1792.53,126.494 1794.18,126.494 1795.83,126.494 1797.48,126.494 1799.13,126.494 1800.78,116.864 1802.43,116.864 1804.08,107.235 1805.73,107.235 1807.38,107.235 1809.06,107.235 1810.68,107.235 1812.33,107.235 1814.01,107.235 1815.63,107.235 1817.28,107.235 1818.95,97.6056 1820.6,107.235 1822.23,107.235 1823.9,97.6056 1825.55,97.6056 1827.2,97.6056 1828.85,97.6056 1830.5,97.6056 1832.15,107.235 1833.77,107.235 1835.45,87.9763 1837.1,87.9763 1838.75,87.9763 1840.4,87.9763 1842.05,97.6056 1843.7,87.9763 1845.35,87.9763 1847,97.6056 1848.65,97.6056 1850.3,97.6056 1851.95,97.6056 1853.6,97.6056 1855.25,97.6056 1856.9,97.6056 1858.55,97.6056 1860.2,97.6056 1861.85,97.6056 1863.5,97.6056 1865.15,87.9763 1866.8,87.9763 "/>
<path clip-path="url(#clip942)" d="M422.948 659.367 L406.948 675.367 L422.948 691.367 L438.948 675.367 L422.948 659.367 Z" fill="#6badd5" fill-rule="evenodd" fill-opacity="1" stroke="#000000" stroke-opacity="1" stroke-width="3.2"/>
<path clip-path="url(#clip942)" d="M630.87 437.892 L614.87 453.892 L630.87 469.892 L646.87 453.892 L630.87 437.892 Z" fill="#6badd5" fill-rule="evenodd" fill-opacity="1" stroke="#000000" stroke-opacity="1" stroke-width="3.2"/>
<path clip-path="url(#clip942)" d="M838.764 303.081 L822.764 319.081 L838.764 335.081 L854.764 319.081 L838.764 303.081 Z" fill="#6badd5" fill-rule="evenodd" fill-opacity="1" stroke="#000000" stroke-opacity="1" stroke-width="3.2"/>
<path clip-path="url(#clip942)" d="M1046.69 254.934 L1030.69 270.934 L1046.69 286.934 L1062.69 270.934 L1046.69 254.934 Z" fill="#6badd5" fill-rule="evenodd" fill-opacity="1" stroke="#000000" stroke-opacity="1" stroke-width="3.2"/>
<path clip-path="url(#clip942)" d="M1254.61 197.158 L1238.61 213.158 L1254.61 229.158 L1270.61 213.158 L1254.61 197.158 Z" fill="#6badd5" fill-rule="evenodd" fill-opacity="1" stroke="#000000" stroke-opacity="1" stroke-width="3.2"/>
<path clip-path="url(#clip942)" d="M1462.53 168.27 L1446.53 184.27 L1462.53 200.27 L1478.53 184.27 L1462.53 168.27 Z" fill="#6badd5" fill-rule="evenodd" fill-opacity="1" stroke="#000000" stroke-opacity="1" stroke-width="3.2"/>
<path clip-path="url(#clip942)" d="M1670.42 139.382 L1654.42 155.382 L1670.42 171.382 L1686.42 155.382 L1670.42 139.382 Z" fill="#6badd5" fill-rule="evenodd" fill-opacity="1" stroke="#000000" stroke-opacity="1" stroke-width="3.2"/>
<polyline clip-path="url(#clip942)" style="stroke:#808080; stroke-linecap:round; stroke-linejoin:round; stroke-width:12; stroke-opacity:1; fill:none" stroke-dasharray="6, 12" points="2292.51,2925.65 2292.51,-1391.96 "/>
<path clip-path="url(#clip940)" d="M1872.43 1438.47 L2281.8 1438.47 L2281.8 1179.27 L1872.43 1179.27  Z" fill="#ffffff" fill-rule="evenodd" fill-opacity="1"/>
<polyline clip-path="url(#clip940)" style="stroke:#000000; stroke-linecap:round; stroke-linejoin:round; stroke-width:4; stroke-opacity:1; fill:none" points="1872.43,1438.47 2281.8,1438.47 2281.8,1179.27 1872.43,1179.27 1872.43,1438.47 "/>
<polyline clip-path="url(#clip940)" style="stroke:#07519c; stroke-linecap:round; stroke-linejoin:round; stroke-width:4; stroke-opacity:1; fill:none" points="1896.08,1231.11 2037.99,1231.11 "/>
<circle clip-path="url(#clip940)" cx="1967.03" cy="1231.11" r="19.7098" fill="#07519c" fill-rule="evenodd" fill-opacity="1" stroke="#000000" stroke-opacity="1" stroke-width="4.55111"/>
<path clip-path="url(#clip940)" d="M2094.27 1208.2 Q2094.27 1208.65 2094.17 1209.02 L2092.86 1217.36 Q2092.79 1218 2092.65 1218.23 Q2092.53 1218.46 2092.16 1218.46 Q2091.57 1218.46 2091.57 1217.85 Q2091.57 1217.5 2091.71 1216.94 Q2092.11 1214.29 2092.11 1213.1 Q2092.11 1212.3 2091.95 1211.72 Q2091.81 1211.11 2091.57 1210.69 Q2091.36 1210.27 2090.87 1209.98 Q2090.38 1209.7 2089.91 1209.54 Q2089.44 1209.38 2088.6 1209.31 Q2087.76 1209.21 2087.03 1209.19 Q2086.3 1209.17 2085.11 1209.17 Q2082.51 1209.17 2082.09 1209.26 Q2081.64 1209.38 2081.41 1209.73 Q2081.2 1210.06 2080.96 1211.04 L2074.59 1236.5 L2074.4 1237.51 Q2074.4 1238.07 2074.76 1238.26 Q2075.11 1238.44 2076.18 1238.56 Q2077.73 1238.68 2079.25 1238.68 Q2079.3 1238.68 2079.39 1238.68 Q2079.91 1238.68 2080.12 1238.7 Q2080.33 1238.7 2080.54 1238.75 Q2080.75 1238.79 2080.8 1238.91 Q2080.87 1239.01 2080.87 1239.19 Q2080.87 1239.64 2080.68 1239.87 Q2080.49 1240.08 2080.31 1240.13 Q2080.14 1240.15 2079.82 1240.15 Q2079.16 1240.15 2077.75 1240.11 Q2076.35 1240.06 2075.65 1240.06 L2071.66 1240.01 L2067.59 1240.06 Q2066.96 1240.06 2065.62 1240.11 Q2064.29 1240.15 2063.65 1240.15 Q2062.83 1240.15 2062.83 1239.57 Q2062.83 1238.91 2063.14 1238.79 Q2063.47 1238.68 2064.85 1238.68 Q2066.79 1238.68 2067.85 1238.58 Q2068.9 1238.49 2069.46 1238.16 Q2070.05 1237.83 2070.21 1237.51 Q2070.38 1237.15 2070.56 1236.36 L2077 1210.76 Q2077.19 1210.2 2077.19 1209.75 Q2077.19 1209.52 2077.12 1209.42 Q2077.07 1209.33 2076.77 1209.26 Q2076.47 1209.17 2075.83 1209.17 L2073.96 1209.17 Q2072.04 1209.17 2070.84 1209.26 Q2069.67 1209.33 2068.55 1209.68 Q2067.45 1210.03 2066.79 1210.52 Q2066.16 1211.02 2065.46 1212.02 Q2064.75 1213.03 2064.24 1214.25 Q2063.75 1215.47 2063.04 1217.46 Q2062.81 1218.11 2062.67 1218.3 Q2062.55 1218.46 2062.22 1218.46 Q2061.99 1218.46 2061.8 1218.32 Q2061.64 1218.16 2061.64 1217.95 Q2061.87 1217.18 2061.92 1217.08 L2064.8 1208.63 Q2065.04 1207.95 2065.25 1207.83 Q2065.48 1207.69 2066.35 1207.69 L2092.96 1207.69 Q2093.38 1207.69 2093.52 1207.69 Q2093.66 1207.69 2093.89 1207.74 Q2094.13 1207.78 2094.2 1207.9 Q2094.27 1208.02 2094.27 1208.2 Z" fill="#000000" fill-rule="nonzero" fill-opacity="1" /><path clip-path="url(#clip940)" d="M2099.06 1240.79 L2099.06 1239.74 L2101.7 1239.74 L2101.7 1235.89 Q2101.7 1233.39 2103.3 1231.97 Q2104.93 1230.54 2106.91 1230.54 Q2108.22 1230.54 2109.07 1231.25 Q2109.93 1231.95 2109.93 1232.9 Q2109.93 1233.54 2109.53 1233.97 Q2109.16 1234.38 2108.45 1234.38 Q2107.78 1234.38 2107.39 1233.95 Q2107.01 1233.53 2107.01 1232.93 Q2107.01 1231.85 2108.01 1231.52 Q2107.5 1231.3 2106.91 1231.28 Q2105.7 1231.28 2104.75 1232.52 Q2103.81 1233.77 2103.81 1235.85 L2103.81 1239.74 L2107.75 1239.74 L2107.75 1240.79 L2103.93 1240.79 L2103.93 1251.59 Q2103.93 1252.56 2104.32 1252.87 Q2104.73 1253.18 2106.47 1253.18 L2107.17 1253.18 L2107.17 1254.22 Q2105.83 1254.12 2102.91 1254.12 Q2102.5 1254.12 2101.86 1254.13 Q2101.24 1254.15 2100.38 1254.18 Q2099.55 1254.22 2099.09 1254.22 L2099.09 1253.18 Q2100.88 1253.18 2101.29 1252.97 Q2101.7 1252.74 2101.7 1251.66 L2101.7 1240.79 L2099.06 1240.79 Z" fill="#000000" fill-rule="nonzero" fill-opacity="1" /><path clip-path="url(#clip940)" d="M2113.49 1235.05 L2113.49 1234 Q2117.52 1234 2119.6 1231.85 Q2120.18 1231.85 2120.28 1231.98 Q2120.37 1232.12 2120.37 1232.72 L2120.37 1251.56 Q2120.37 1252.56 2120.87 1252.87 Q2121.36 1253.18 2123.51 1253.18 L2124.57 1253.18 L2124.57 1254.22 Q2123.39 1254.12 2119.13 1254.12 Q2114.87 1254.12 2113.7 1254.22 L2113.7 1253.18 L2114.77 1253.18 Q2116.88 1253.18 2117.39 1252.89 Q2117.9 1252.58 2117.9 1251.56 L2117.9 1234.16 Q2116.14 1235.05 2113.49 1235.05 Z" fill="#000000" fill-rule="nonzero" fill-opacity="1" /><path clip-path="url(#clip940)" d="M2137.13 1234.27 L2142.02 1234.27 L2142.02 1238.25 L2138.22 1245.66 L2135.23 1245.66 L2137.13 1238.25 L2137.13 1234.27 Z" fill="#000000" fill-rule="nonzero" fill-opacity="1" /><path clip-path="url(#clip940)" d="M2188.36 1226.13 L2188.36 1228.21 L2168.77 1228.21 Q2169.05 1232.61 2171.41 1234.92 Q2173.8 1237.21 2178.03 1237.21 Q2180.49 1237.21 2182.78 1236.61 Q2185.09 1236.01 2187.36 1234.81 L2187.36 1238.83 Q2185.07 1239.81 2182.66 1240.32 Q2180.26 1240.82 2177.78 1240.82 Q2171.58 1240.82 2167.94 1237.21 Q2164.33 1233.6 2164.33 1227.44 Q2164.33 1221.08 2167.76 1217.35 Q2171.2 1213.6 2177.04 1213.6 Q2182.27 1213.6 2185.3 1216.98 Q2188.36 1220.34 2188.36 1226.13 M2184.1 1224.88 Q2184.05 1221.38 2182.13 1219.3 Q2180.23 1217.21 2177.08 1217.21 Q2173.52 1217.21 2171.37 1219.23 Q2169.24 1221.24 2168.91 1224.9 L2184.1 1224.88 Z" fill="#000000" fill-rule="nonzero" fill-opacity="1" /><path clip-path="url(#clip940)" d="M2216.07 1214.23 L2206.69 1226.84 L2216.55 1240.15 L2211.53 1240.15 L2203.98 1229.97 L2196.44 1240.15 L2191.41 1240.15 L2201.48 1226.59 L2192.27 1214.23 L2197.29 1214.23 L2204.17 1223.46 L2211.04 1214.23 L2216.07 1214.23 Z" fill="#000000" fill-rule="nonzero" fill-opacity="1" /><path clip-path="url(#clip940)" d="M2226.69 1236.26 L2226.69 1250.01 L2222.41 1250.01 L2222.41 1214.23 L2226.69 1214.23 L2226.69 1218.16 Q2228.03 1215.85 2230.07 1214.74 Q2232.13 1213.6 2234.98 1213.6 Q2239.7 1213.6 2242.64 1217.35 Q2245.6 1221.1 2245.6 1227.21 Q2245.6 1233.32 2242.64 1237.07 Q2239.7 1240.82 2234.98 1240.82 Q2232.13 1240.82 2230.07 1239.71 Q2228.03 1238.58 2226.69 1236.26 M2241.18 1227.21 Q2241.18 1222.51 2239.24 1219.85 Q2237.32 1217.17 2233.94 1217.17 Q2230.56 1217.17 2228.61 1219.85 Q2226.69 1222.51 2226.69 1227.21 Q2226.69 1231.91 2228.61 1234.6 Q2230.56 1237.26 2233.94 1237.26 Q2237.32 1237.26 2239.24 1234.6 Q2241.18 1231.91 2241.18 1227.21 Z" fill="#000000" fill-rule="nonzero" fill-opacity="1" /><path clip-path="url(#clip940)" d="M2253.26 1234.27 L2258.15 1234.27 L2258.15 1240.15 L2253.26 1240.15 L2253.26 1234.27 Z" fill="#000000" fill-rule="nonzero" fill-opacity="1" /><polyline clip-path="url(#clip940)" style="stroke:#3082bc; stroke-linecap:round; stroke-linejoin:round; stroke-width:4; stroke-opacity:1; fill:none" points="1896.08,1282.95 2037.99,1282.95 "/>
<path clip-path="url(#clip940)" d="M1945.13 1261.05 L1945.13 1304.85 L1988.93 1304.85 L1988.93 1261.05 L1945.13 1261.05 Z" fill="#3082bc" fill-rule="evenodd" fill-opacity="1" stroke="#000000" stroke-opacity="1" stroke-width="4.55111"/>
<path clip-path="url(#clip940)" d="M2094.27 1260.04 Q2094.27 1260.49 2094.17 1260.86 L2092.86 1269.2 Q2092.79 1269.84 2092.65 1270.07 Q2092.53 1270.3 2092.16 1270.3 Q2091.57 1270.3 2091.57 1269.69 Q2091.57 1269.34 2091.71 1268.78 Q2092.11 1266.13 2092.11 1264.94 Q2092.11 1264.14 2091.95 1263.56 Q2091.81 1262.95 2091.57 1262.53 Q2091.36 1262.11 2090.87 1261.82 Q2090.38 1261.54 2089.91 1261.38 Q2089.44 1261.22 2088.6 1261.15 Q2087.76 1261.05 2087.03 1261.03 Q2086.3 1261.01 2085.11 1261.01 Q2082.51 1261.01 2082.09 1261.1 Q2081.64 1261.22 2081.41 1261.57 Q2081.2 1261.9 2080.96 1262.88 L2074.59 1288.34 L2074.4 1289.35 Q2074.4 1289.91 2074.76 1290.1 Q2075.11 1290.28 2076.18 1290.4 Q2077.73 1290.52 2079.25 1290.52 Q2079.3 1290.52 2079.39 1290.52 Q2079.91 1290.52 2080.12 1290.54 Q2080.33 1290.54 2080.54 1290.59 Q2080.75 1290.63 2080.8 1290.75 Q2080.87 1290.85 2080.87 1291.03 Q2080.87 1291.48 2080.68 1291.71 Q2080.49 1291.92 2080.31 1291.97 Q2080.14 1291.99 2079.82 1291.99 Q2079.16 1291.99 2077.75 1291.95 Q2076.35 1291.9 2075.65 1291.9 L2071.66 1291.85 L2067.59 1291.9 Q2066.96 1291.9 2065.62 1291.95 Q2064.29 1291.99 2063.65 1291.99 Q2062.83 1291.99 2062.83 1291.41 Q2062.83 1290.75 2063.14 1290.63 Q2063.47 1290.52 2064.85 1290.52 Q2066.79 1290.52 2067.85 1290.42 Q2068.9 1290.33 2069.46 1290 Q2070.05 1289.67 2070.21 1289.35 Q2070.38 1288.99 2070.56 1288.2 L2077 1262.6 Q2077.19 1262.04 2077.19 1261.59 Q2077.19 1261.36 2077.12 1261.26 Q2077.07 1261.17 2076.77 1261.1 Q2076.47 1261.01 2075.83 1261.01 L2073.96 1261.01 Q2072.04 1261.01 2070.84 1261.1 Q2069.67 1261.17 2068.55 1261.52 Q2067.45 1261.87 2066.79 1262.36 Q2066.16 1262.86 2065.46 1263.86 Q2064.75 1264.87 2064.24 1266.09 Q2063.75 1267.31 2063.04 1269.3 Q2062.81 1269.95 2062.67 1270.14 Q2062.55 1270.3 2062.22 1270.3 Q2061.99 1270.3 2061.8 1270.16 Q2061.64 1270 2061.64 1269.79 Q2061.87 1269.02 2061.92 1268.92 L2064.8 1260.47 Q2065.04 1259.79 2065.25 1259.67 Q2065.48 1259.53 2066.35 1259.53 L2092.96 1259.53 Q2093.38 1259.53 2093.52 1259.53 Q2093.66 1259.53 2093.89 1259.58 Q2094.13 1259.62 2094.2 1259.74 Q2094.27 1259.86 2094.27 1260.04 Z" fill="#000000" fill-rule="nonzero" fill-opacity="1" /><path clip-path="url(#clip940)" d="M2099.06 1292.63 L2099.06 1291.58 L2101.7 1291.58 L2101.7 1287.73 Q2101.7 1285.23 2103.3 1283.81 Q2104.93 1282.38 2106.91 1282.38 Q2108.22 1282.38 2109.07 1283.09 Q2109.93 1283.79 2109.93 1284.74 Q2109.93 1285.38 2109.53 1285.81 Q2109.16 1286.22 2108.45 1286.22 Q2107.78 1286.22 2107.39 1285.79 Q2107.01 1285.37 2107.01 1284.77 Q2107.01 1283.69 2108.01 1283.36 Q2107.5 1283.14 2106.91 1283.12 Q2105.7 1283.12 2104.75 1284.36 Q2103.81 1285.61 2103.81 1287.69 L2103.81 1291.58 L2107.75 1291.58 L2107.75 1292.63 L2103.93 1292.63 L2103.93 1303.43 Q2103.93 1304.4 2104.32 1304.71 Q2104.73 1305.02 2106.47 1305.02 L2107.17 1305.02 L2107.17 1306.06 Q2105.83 1305.96 2102.91 1305.96 Q2102.5 1305.96 2101.86 1305.97 Q2101.24 1305.99 2100.38 1306.02 Q2099.55 1306.06 2099.09 1306.06 L2099.09 1305.02 Q2100.88 1305.02 2101.29 1304.81 Q2101.7 1304.58 2101.7 1303.5 L2101.7 1292.63 L2099.06 1292.63 Z" fill="#000000" fill-rule="nonzero" fill-opacity="1" /><path clip-path="url(#clip940)" d="M2112.28 1306.06 Q2112.28 1305.45 2112.33 1305.27 Q2112.39 1305.09 2112.66 1304.81 L2119.1 1297.63 Q2122.62 1293.66 2122.62 1290.2 Q2122.62 1287.96 2121.44 1286.35 Q2120.28 1284.74 2118.13 1284.74 Q2116.66 1284.74 2115.41 1285.64 Q2114.16 1286.55 2113.59 1288.15 Q2113.69 1288.12 2114.03 1288.12 Q2114.87 1288.12 2115.33 1288.64 Q2115.8 1289.17 2115.8 1289.87 Q2115.8 1290.78 2115.21 1291.22 Q2114.64 1291.64 2114.07 1291.64 Q2113.84 1291.64 2113.52 1291.6 Q2113.23 1291.55 2112.75 1291.09 Q2112.28 1290.61 2112.28 1289.78 Q2112.28 1287.43 2114.05 1285.56 Q2115.84 1283.69 2118.56 1283.69 Q2121.64 1283.69 2123.66 1285.53 Q2125.69 1287.35 2125.69 1290.2 Q2125.69 1291.2 2125.38 1292.12 Q2125.08 1293.02 2124.67 1293.73 Q2124.28 1294.43 2123.2 1295.56 Q2122.12 1296.69 2121.25 1297.5 Q2120.38 1298.3 2118.43 1300.01 L2114.87 1303.47 L2120.92 1303.47 Q2123.87 1303.47 2124.1 1303.2 Q2124.43 1302.73 2124.84 1300.22 L2125.69 1300.22 L2124.74 1306.06 L2112.28 1306.06 Z" fill="#000000" fill-rule="nonzero" fill-opacity="1" /><path clip-path="url(#clip940)" d="M2135.92 1286.11 L2140.81 1286.11 L2140.81 1290.09 L2137.01 1297.5 L2134.02 1297.5 L2135.92 1290.09 L2135.92 1286.11 Z" fill="#000000" fill-rule="nonzero" fill-opacity="1" /><path clip-path="url(#clip940)" d="M2187.15 1277.97 L2187.15 1280.05 L2167.56 1280.05 Q2167.84 1284.45 2170.2 1286.76 Q2172.59 1289.05 2176.82 1289.05 Q2179.28 1289.05 2181.57 1288.45 Q2183.88 1287.85 2186.15 1286.65 L2186.15 1290.67 Q2183.86 1291.65 2181.45 1292.16 Q2179.05 1292.66 2176.57 1292.66 Q2170.37 1292.66 2166.73 1289.05 Q2163.12 1285.44 2163.12 1279.28 Q2163.12 1272.92 2166.55 1269.19 Q2170 1265.44 2175.83 1265.44 Q2181.06 1265.44 2184.09 1268.82 Q2187.15 1272.18 2187.15 1277.97 M2182.89 1276.72 Q2182.84 1273.22 2180.92 1271.14 Q2179.02 1269.05 2175.87 1269.05 Q2172.31 1269.05 2170.16 1271.07 Q2168.03 1273.08 2167.7 1276.74 L2182.89 1276.72 Z" fill="#000000" fill-rule="nonzero" fill-opacity="1" /><path clip-path="url(#clip940)" d="M2214.86 1266.07 L2205.48 1278.68 L2215.34 1291.99 L2210.32 1291.99 L2202.77 1281.81 L2195.23 1291.99 L2190.2 1291.99 L2200.27 1278.43 L2191.06 1266.07 L2196.08 1266.07 L2202.96 1275.3 L2209.83 1266.07 L2214.86 1266.07 Z" fill="#000000" fill-rule="nonzero" fill-opacity="1" /><path clip-path="url(#clip940)" d="M2225.48 1288.1 L2225.48 1301.85 L2221.2 1301.85 L2221.2 1266.07 L2225.48 1266.07 L2225.48 1270 Q2226.82 1267.69 2228.86 1266.58 Q2230.92 1265.44 2233.77 1265.44 Q2238.49 1265.44 2241.43 1269.19 Q2244.39 1272.94 2244.39 1279.05 Q2244.39 1285.16 2241.43 1288.91 Q2238.49 1292.66 2233.77 1292.66 Q2230.92 1292.66 2228.86 1291.55 Q2226.82 1290.42 2225.48 1288.1 M2239.97 1279.05 Q2239.97 1274.35 2238.03 1271.69 Q2236.11 1269.01 2232.73 1269.01 Q2229.35 1269.01 2227.4 1271.69 Q2225.48 1274.35 2225.48 1279.05 Q2225.48 1283.75 2227.4 1286.44 Q2229.35 1289.1 2232.73 1289.1 Q2236.11 1289.1 2238.03 1286.44 Q2239.97 1283.75 2239.97 1279.05 Z" fill="#000000" fill-rule="nonzero" fill-opacity="1" /><path clip-path="url(#clip940)" d="M2252.06 1286.11 L2256.94 1286.11 L2256.94 1291.99 L2252.06 1291.99 L2252.06 1286.11 Z" fill="#000000" fill-rule="nonzero" fill-opacity="1" /><polyline clip-path="url(#clip940)" style="stroke:#6badd5; stroke-linecap:round; stroke-linejoin:round; stroke-width:4; stroke-opacity:1; fill:none" points="1896.08,1334.79 2037.99,1334.79 "/>
<path clip-path="url(#clip940)" d="M1967.03 1312.89 L1945.13 1334.79 L1967.03 1356.69 L1988.93 1334.79 L1967.03 1312.89 Z" fill="#6badd5" fill-rule="evenodd" fill-opacity="1" stroke="#000000" stroke-opacity="1" stroke-width="4.55111"/>
<path clip-path="url(#clip940)" d="M2094.27 1311.52 Q2094.27 1311.96 2094.17 1312.34 L2092.86 1320.68 Q2092.79 1321.31 2092.65 1321.54 Q2092.53 1321.78 2092.16 1321.78 Q2091.57 1321.78 2091.57 1321.17 Q2091.57 1320.82 2091.71 1320.25 Q2092.11 1317.61 2092.11 1316.41 Q2092.11 1315.62 2091.95 1315.03 Q2091.81 1314.42 2091.57 1314 Q2091.36 1313.58 2090.87 1313.3 Q2090.38 1313.02 2089.91 1312.85 Q2089.44 1312.69 2088.6 1312.62 Q2087.76 1312.53 2087.03 1312.5 Q2086.3 1312.48 2085.11 1312.48 Q2082.51 1312.48 2082.09 1312.57 Q2081.64 1312.69 2081.41 1313.04 Q2081.2 1313.37 2080.96 1314.35 L2074.59 1339.81 L2074.4 1340.82 Q2074.4 1341.38 2074.76 1341.57 Q2075.11 1341.76 2076.18 1341.87 Q2077.73 1341.99 2079.25 1341.99 Q2079.3 1341.99 2079.39 1341.99 Q2079.91 1341.99 2080.12 1342.01 Q2080.33 1342.01 2080.54 1342.06 Q2080.75 1342.11 2080.8 1342.23 Q2080.87 1342.32 2080.87 1342.51 Q2080.87 1342.95 2080.68 1343.19 Q2080.49 1343.4 2080.31 1343.44 Q2080.14 1343.47 2079.82 1343.47 Q2079.16 1343.47 2077.75 1343.42 Q2076.35 1343.37 2075.65 1343.37 L2071.66 1343.33 L2067.59 1343.37 Q2066.96 1343.37 2065.62 1343.42 Q2064.29 1343.47 2063.65 1343.47 Q2062.83 1343.47 2062.83 1342.88 Q2062.83 1342.23 2063.14 1342.11 Q2063.47 1341.99 2064.85 1341.99 Q2066.79 1341.99 2067.85 1341.9 Q2068.9 1341.8 2069.46 1341.48 Q2070.05 1341.15 2070.21 1340.82 Q2070.38 1340.47 2070.56 1339.67 L2077 1314.07 Q2077.19 1313.51 2077.19 1313.06 Q2077.19 1312.83 2077.12 1312.74 Q2077.07 1312.64 2076.77 1312.57 Q2076.47 1312.48 2075.83 1312.48 L2073.96 1312.48 Q2072.04 1312.48 2070.84 1312.57 Q2069.67 1312.64 2068.55 1312.99 Q2067.45 1313.35 2066.79 1313.84 Q2066.16 1314.33 2065.46 1315.34 Q2064.75 1316.34 2064.24 1317.56 Q2063.75 1318.78 2063.04 1320.77 Q2062.81 1321.43 2062.67 1321.61 Q2062.55 1321.78 2062.22 1321.78 Q2061.99 1321.78 2061.8 1321.64 Q2061.64 1321.47 2061.64 1321.26 Q2061.87 1320.49 2061.92 1320.4 L2064.8 1311.94 Q2065.04 1311.26 2065.25 1311.14 Q2065.48 1311 2066.35 1311 L2092.96 1311 Q2093.38 1311 2093.52 1311 Q2093.66 1311 2093.89 1311.05 Q2094.13 1311.1 2094.2 1311.21 Q2094.27 1311.33 2094.27 1311.52 Z" fill="#000000" fill-rule="nonzero" fill-opacity="1" /><path clip-path="url(#clip940)" d="M2099.06 1344.1 L2099.06 1343.05 L2101.7 1343.05 L2101.7 1339.2 Q2101.7 1336.71 2103.3 1335.28 Q2104.93 1333.85 2106.91 1333.85 Q2108.22 1333.85 2109.07 1334.56 Q2109.93 1335.26 2109.93 1336.22 Q2109.93 1336.86 2109.53 1337.28 Q2109.16 1337.69 2108.45 1337.69 Q2107.78 1337.69 2107.39 1337.26 Q2107.01 1336.84 2107.01 1336.25 Q2107.01 1335.17 2108.01 1334.84 Q2107.5 1334.61 2106.91 1334.59 Q2105.7 1334.59 2104.75 1335.84 Q2103.81 1337.08 2103.81 1339.17 L2103.81 1343.05 L2107.75 1343.05 L2107.75 1344.1 L2103.93 1344.1 L2103.93 1354.91 Q2103.93 1355.87 2104.32 1356.19 Q2104.73 1356.5 2106.47 1356.5 L2107.17 1356.5 L2107.17 1357.53 Q2105.83 1357.43 2102.91 1357.43 Q2102.5 1357.43 2101.86 1357.45 Q2101.24 1357.46 2100.38 1357.5 Q2099.55 1357.53 2099.09 1357.53 L2099.09 1356.5 Q2100.88 1356.5 2101.29 1356.28 Q2101.7 1356.05 2101.7 1354.97 L2101.7 1344.1 L2099.06 1344.1 Z" fill="#000000" fill-rule="nonzero" fill-opacity="1" /><path clip-path="url(#clip940)" d="M2112.28 1353 Q2112.28 1352 2112.85 1351.53 Q2113.43 1351.05 2114.16 1351.05 Q2114.93 1351.05 2115.48 1351.56 Q2116.03 1352.05 2116.03 1352.92 Q2116.03 1353.86 2115.38 1354.38 Q2114.74 1354.91 2113.82 1354.78 Q2114.62 1356.12 2116.1 1356.73 Q2117.59 1357.33 2118.97 1357.33 Q2120.41 1357.33 2121.57 1356.09 Q2122.76 1354.84 2122.76 1351.79 Q2122.76 1349.2 2121.74 1347.71 Q2120.74 1346.22 2118.75 1346.22 L2117.28 1346.22 Q2116.77 1346.22 2116.62 1346.17 Q2116.48 1346.12 2116.48 1345.84 Q2116.48 1345.51 2116.98 1345.45 Q2117.49 1345.45 2118.3 1345.35 Q2120.25 1345.28 2121.28 1343.59 Q2122.21 1342.02 2122.21 1339.77 Q2122.21 1337.72 2121.23 1336.87 Q2120.26 1336 2119 1336 Q2117.82 1336 2116.52 1336.49 Q2115.23 1336.99 2114.52 1338.08 Q2116.61 1338.08 2116.61 1339.77 Q2116.61 1340.51 2116.13 1341 Q2115.67 1341.48 2114.9 1341.48 Q2114.16 1341.48 2113.67 1341.02 Q2113.18 1340.54 2113.18 1339.74 Q2113.18 1337.82 2114.89 1336.49 Q2116.61 1335.17 2119.13 1335.17 Q2121.62 1335.17 2123.46 1336.48 Q2125.31 1337.79 2125.31 1339.81 Q2125.31 1341.79 2124 1343.41 Q2122.69 1345.04 2120.61 1345.71 Q2123.17 1346.22 2124.69 1347.95 Q2126.21 1349.68 2126.21 1351.79 Q2126.21 1354.41 2124.15 1356.35 Q2122.08 1358.27 2119.07 1358.27 Q2116.28 1358.27 2114.28 1356.76 Q2112.28 1355.25 2112.28 1353 Z" fill="#000000" fill-rule="nonzero" fill-opacity="1" /><path clip-path="url(#clip940)" d="M2135.92 1337.59 L2140.81 1337.59 L2140.81 1341.57 L2137.01 1348.98 L2134.02 1348.98 L2135.92 1341.57 L2135.92 1337.59 Z" fill="#000000" fill-rule="nonzero" fill-opacity="1" /><path clip-path="url(#clip940)" d="M2187.15 1329.44 L2187.15 1331.52 L2167.56 1331.52 Q2167.84 1335.92 2170.2 1338.24 Q2172.59 1340.53 2176.82 1340.53 Q2179.28 1340.53 2181.57 1339.92 Q2183.88 1339.32 2186.15 1338.12 L2186.15 1342.15 Q2183.86 1343.12 2181.45 1343.63 Q2179.05 1344.14 2176.57 1344.14 Q2170.37 1344.14 2166.73 1340.53 Q2163.12 1336.92 2163.12 1330.76 Q2163.12 1324.39 2166.55 1320.67 Q2170 1316.92 2175.83 1316.92 Q2181.06 1316.92 2184.09 1320.3 Q2187.15 1323.65 2187.15 1329.44 M2182.89 1328.19 Q2182.84 1324.69 2180.92 1322.61 Q2179.02 1320.53 2175.87 1320.53 Q2172.31 1320.53 2170.16 1322.54 Q2168.03 1324.55 2167.7 1328.21 L2182.89 1328.19 Z" fill="#000000" fill-rule="nonzero" fill-opacity="1" /><path clip-path="url(#clip940)" d="M2214.86 1317.54 L2205.48 1330.16 L2215.34 1343.47 L2210.32 1343.47 L2202.77 1333.28 L2195.23 1343.47 L2190.2 1343.47 L2200.27 1329.9 L2191.06 1317.54 L2196.08 1317.54 L2202.96 1326.78 L2209.83 1317.54 L2214.86 1317.54 Z" fill="#000000" fill-rule="nonzero" fill-opacity="1" /><path clip-path="url(#clip940)" d="M2225.48 1339.58 L2225.48 1353.33 L2221.2 1353.33 L2221.2 1317.54 L2225.48 1317.54 L2225.48 1321.48 Q2226.82 1319.16 2228.86 1318.05 Q2230.92 1316.92 2233.77 1316.92 Q2238.49 1316.92 2241.43 1320.67 Q2244.39 1324.42 2244.39 1330.53 Q2244.39 1336.64 2241.43 1340.39 Q2238.49 1344.14 2233.77 1344.14 Q2230.92 1344.14 2228.86 1343.03 Q2226.82 1341.89 2225.48 1339.58 M2239.97 1330.53 Q2239.97 1325.83 2238.03 1323.17 Q2236.11 1320.48 2232.73 1320.48 Q2229.35 1320.48 2227.4 1323.17 Q2225.48 1325.83 2225.48 1330.53 Q2225.48 1335.23 2227.4 1337.91 Q2229.35 1340.57 2232.73 1340.57 Q2236.11 1340.57 2238.03 1337.91 Q2239.97 1335.23 2239.97 1330.53 Z" fill="#000000" fill-rule="nonzero" fill-opacity="1" /><path clip-path="url(#clip940)" d="M2252.06 1337.59 L2256.94 1337.59 L2256.94 1343.47 L2252.06 1343.47 L2252.06 1337.59 Z" fill="#000000" fill-rule="nonzero" fill-opacity="1" /><polyline clip-path="url(#clip940)" style="stroke:#808080; stroke-linecap:round; stroke-linejoin:round; stroke-width:12; stroke-opacity:1; fill:none" stroke-dasharray="6, 12" points="1896.08,1386.63 2037.99,1386.63 "/>
<path clip-path="url(#clip940)" d="M2076.37 1373.99 Q2076.37 1374.64 2076.07 1374.81 Q2075.76 1374.95 2074.92 1374.95 L2070.42 1374.95 L2066.86 1389.09 Q2066.58 1390.34 2066.58 1391.39 Q2066.58 1392.56 2066.93 1393.08 Q2067.31 1393.59 2068.08 1393.59 Q2069.6 1393.59 2071.24 1392.21 Q2072.91 1390.83 2074.31 1387.45 Q2074.5 1387.01 2074.59 1386.92 Q2074.71 1386.8 2075.01 1386.8 Q2075.6 1386.8 2075.6 1387.27 Q2075.6 1387.43 2075.27 1388.18 Q2074.97 1388.93 2074.29 1390.03 Q2073.63 1391.13 2072.76 1392.16 Q2071.92 1393.19 2070.63 1393.94 Q2069.35 1394.67 2067.96 1394.67 Q2066.02 1394.67 2064.78 1393.43 Q2063.56 1392.19 2063.56 1390.24 Q2063.56 1389.61 2064.05 1387.6 Q2064.54 1385.56 2067.21 1374.95 L2062.97 1374.95 Q2062.39 1374.95 2062.15 1374.92 Q2061.94 1374.9 2061.78 1374.78 Q2061.64 1374.64 2061.64 1374.36 Q2061.64 1373.92 2061.83 1373.73 Q2062.01 1373.52 2062.25 1373.49 Q2062.51 1373.45 2063.09 1373.45 L2067.59 1373.45 L2069.46 1365.84 Q2069.65 1365.09 2070.12 1364.66 Q2070.61 1364.22 2070.89 1364.17 Q2071.17 1364.1 2071.38 1364.1 Q2072.02 1364.1 2072.39 1364.45 Q2072.76 1364.78 2072.76 1365.39 Q2072.76 1365.72 2070.8 1373.45 L2075.01 1373.45 Q2075.55 1373.45 2075.76 1373.47 Q2076 1373.49 2076.18 1373.61 Q2076.37 1373.73 2076.37 1373.99 Z" fill="#000000" fill-rule="nonzero" fill-opacity="1" /><path clip-path="url(#clip940)" d="M2081.34 1401.11 Q2081.34 1397.94 2083.37 1395.7 Q2085.4 1393.45 2088.32 1393.45 Q2091.27 1393.45 2092.8 1395.37 Q2094.34 1397.29 2094.34 1400.04 Q2094.34 1400.55 2094.21 1400.65 Q2094.08 1400.75 2093.5 1400.75 L2084.12 1400.75 Q2084.12 1404.17 2085.14 1405.78 Q2086.55 1408.03 2088.93 1408.03 Q2089.26 1408.03 2089.65 1407.96 Q2090.04 1407.89 2090.85 1407.62 Q2091.65 1407.32 2092.36 1406.55 Q2093.06 1405.78 2093.47 1404.57 Q2093.57 1404.09 2093.9 1404.11 Q2094.34 1404.11 2094.34 1404.5 Q2094.34 1404.8 2094.01 1405.47 Q2093.7 1406.12 2093.09 1406.91 Q2092.49 1407.7 2091.31 1408.29 Q2090.14 1408.88 2088.73 1408.88 Q2085.78 1408.88 2083.55 1406.65 Q2081.34 1404.4 2081.34 1401.11 M2084.16 1400.04 L2092.13 1400.04 Q2092.13 1399.34 2091.99 1398.55 Q2091.88 1397.76 2091.52 1396.68 Q2091.17 1395.58 2090.36 1394.89 Q2089.54 1394.2 2088.32 1394.2 Q2087.78 1394.2 2087.19 1394.43 Q2086.62 1394.66 2085.91 1395.22 Q2085.21 1395.78 2084.71 1397.04 Q2084.22 1398.3 2084.16 1400.04 Z" fill="#000000" fill-rule="nonzero" fill-opacity="1" /><path clip-path="url(#clip940)" d="M2095.42 1408.5 L2095.42 1407.47 Q2097.21 1407.47 2097.62 1407.26 Q2098.03 1407.03 2098.03 1405.94 L2098.03 1396.94 Q2098.03 1395.7 2097.59 1395.38 Q2097.16 1395.07 2095.42 1395.07 L2095.42 1394.02 L2100.15 1393.66 L2100.15 1397.19 Q2101.72 1393.66 2105.11 1393.66 Q2107.64 1393.66 2108.64 1394.91 Q2109.38 1395.75 2109.52 1396.68 Q2109.69 1397.61 2109.69 1400.04 L2109.69 1406.45 Q2109.72 1407.16 2110.26 1407.32 Q2110.8 1407.47 2112.31 1407.47 L2112.31 1408.5 Q2108.88 1408.4 2108.54 1408.4 Q2108.28 1408.4 2104.75 1408.5 L2104.75 1407.47 Q2106.54 1407.47 2106.95 1407.26 Q2107.38 1407.03 2107.38 1405.94 L2107.38 1398.12 Q2107.38 1396.42 2106.85 1395.42 Q2106.33 1394.4 2104.88 1394.4 Q2103.15 1394.4 2101.75 1395.86 Q2100.36 1397.32 2100.36 1399.78 L2100.36 1405.94 Q2100.36 1407.03 2100.77 1407.26 Q2101.19 1407.47 2102.97 1407.47 L2102.97 1408.5 Q2099.54 1408.4 2099.21 1408.4 Q2098.95 1408.4 2095.42 1408.5 Z" fill="#000000" fill-rule="nonzero" fill-opacity="1" /><path clip-path="url(#clip940)" d="M2114.67 1401.29 Q2114.67 1398.09 2116.9 1395.88 Q2119.13 1393.66 2122.15 1393.66 Q2124.71 1393.66 2126.38 1395.75 L2126.38 1388.48 Q2126.38 1387.24 2125.94 1386.92 Q2125.51 1386.61 2123.77 1386.61 L2123.77 1385.56 L2128.61 1385.2 L2128.61 1405.58 Q2128.61 1406.83 2129.04 1407.16 Q2129.48 1407.47 2131.22 1407.47 L2131.22 1408.5 L2126.28 1408.88 L2126.28 1406.65 Q2124.54 1408.86 2121.79 1408.88 Q2118.9 1408.88 2116.79 1406.67 Q2114.67 1404.45 2114.67 1401.29 M2117.46 1401.32 Q2117.46 1404.44 2118.43 1405.98 Q2119.77 1408.12 2121.95 1408.12 Q2124.45 1408.12 2125.92 1405.78 Q2126.3 1405.21 2126.28 1404.53 L2126.28 1397.65 Q2126.28 1396.98 2125.92 1396.42 Q2124.54 1394.4 2122.3 1394.4 Q2119.95 1394.4 2118.49 1396.55 Q2117.46 1398.16 2117.46 1401.32 Z" fill="#000000" fill-rule="nonzero" fill-opacity="1" /></svg>
